<?xml version="1.0" encoding="utf-8"?>
<!-- Generator: Adobe Illustrator 23.0.3, SVG Export Plug-In . SVG Version: 6.00 Build 0)  -->
<svg version="1.0" id="图层_1" xmlns="http://www.w3.org/2000/svg" xmlns:xlink="http://www.w3.org/1999/xlink" x="0px" y="0px"
	 viewBox="0 0 64.8 44.8" style="enable-background:new 0 0 64.8 44.8;" xml:space="preserve">
<g>
	<g>
		<ellipse style="opacity:0.2;fill:#1D94FF;" cx="32.4" cy="41.3" rx="24" ry="3.5"/>
		<linearGradient id="SVGID_1_" gradientUnits="userSpaceOnUse" x1="32.4015" y1="24.4883" x2="32.4015" y2="44.7817">
			<stop  offset="0" style="stop-color:#1D94FF;stop-opacity:0"/>
			<stop  offset="1" style="stop-color:#1D94FF;stop-opacity:0.6"/>
		</linearGradient>
		<path style="opacity:0.5;fill:url(#SVGID_1_);" d="M0.2,24.5l8.2,16.8c0,1.9,10.7,3.5,24,3.5c13.2,0,24-1.5,24-3.5l8.2-16.8H0.2z"
			/>
	</g>
	<g>
		<path style="fill:#1D94FF;" d="M39.2,9.1c0.2,0,0.5-0.1,0.6-0.3L41,7.7c-0.2,4.4-3.4,6.3-8.5,7.7c0,0,0,0,0,0
			c-5.1,1.2-8.5,4.5-8.5,8.4c0,0.5,0.4,0.9,0.9,0.9s0.9-0.4,0.9-0.9c0-3,2.8-5.6,7.1-6.6c0,0,0,0,0,0c0,0,0,0,0,0
			c0.3-0.1,0.7-0.2,1-0.3l1.5,2.2c0.2,0.3,0.5,0.4,0.8,0.4c0.2,0,0.3,0,0.5-0.1c0.4-0.3,0.5-0.8,0.3-1.3l-1.2-1.9
			c3.6-1.4,6.7-3.8,7-8.4l1,1C44,9,44.2,9.1,44.4,9.1c0.2,0,0.5-0.1,0.6-0.3c0.4-0.4,0.4-0.9,0-1.3l-2.6-2.6c0,0,0,0,0,0
			c0,0-0.1-0.1-0.1-0.1c-0.1,0-0.1-0.1-0.2-0.1c0,0-0.1,0-0.2,0c-0.1,0-0.1,0-0.2,0c0,0,0,0-0.1,0c0,0-0.1,0-0.1,0
			c-0.1,0-0.1,0-0.2,0.1c-0.1,0-0.1,0.1-0.2,0.1c0,0-0.1,0-0.1,0.1l-2.6,2.6c-0.4,0.4-0.4,0.9,0,1.3C38.8,9,39,9.1,39.2,9.1z"/>
		<path style="fill:#1D94FF;" d="M50.7,13.2l-2.6-2.6c0,0,0,0,0,0c0,0-0.1-0.1-0.1-0.1c-0.1,0-0.1-0.1-0.2-0.1c0,0-0.1,0-0.2,0
			c-0.1,0-0.1,0-0.2,0c0,0,0,0-0.1,0c0,0-0.1,0-0.1,0c-0.1,0-0.1,0-0.2,0.1c-0.1,0-0.1,0.1-0.2,0.1c0,0-0.1,0-0.1,0.1l-2.6,2.6
			c-0.4,0.4-0.4,0.9,0,1.3c0.2,0.2,0.4,0.3,0.6,0.3s0.5-0.1,0.6-0.3l1.1-1.1c-0.2,4.4-3.4,6.3-8.5,7.7c0,0,0,0,0,0
			c-5.1,1.2-8.5,4.5-8.5,8.4c0,0.5,0.4,0.9,0.9,0.9c0.5,0,0.9-0.4,0.9-0.9c0-2.5,2-4.8,5.2-6c0,0.4,0.1,0.7,0.1,1.1
			c0,5.3-4.3,9.6-9.6,9.6s-9.6-4.3-9.6-9.6c0-1.4,0.3-2.7,0.8-3.9c0.7-1.1,5.4-9,6.9-11.9c0.6-1.1,1.3-3.2,1.9-4.9
			c0.6,1.7,1.3,3.8,1.9,4.9c1.6,3,2.6,4.4,2.6,4.5c0.2,0.2,0.4,0.4,0.7,0.4c0.2,0,0.4-0.1,0.5-0.2c0.4-0.3,0.5-0.9,0.2-1.3
			c0,0-1-1.3-2.5-4.2c-1-2-2.6-7.3-2.6-7.3c0,0,0,0,0,0c0-0.1-0.1-0.2-0.2-0.3c0,0,0,0,0,0c-0.1-0.1-0.1-0.1-0.2-0.2
			c0,0-0.1,0-0.1-0.1c0,0-0.1,0-0.1-0.1c0,0-0.1,0-0.1,0c-0.1,0-0.1,0-0.2,0c-0.1,0-0.1,0-0.2,0C27,0,27,0,27,0c0,0-0.1,0-0.1,0
			c0,0-0.1,0-0.1,0.1c-0.1,0-0.1,0.1-0.2,0.2c0,0,0,0,0,0c-0.1,0.1-0.1,0.2-0.2,0.3c0,0,0,0,0,0c0,0.1-1.6,5.4-2.6,7.3
			c-1,2-3.9,6.9-5.6,9.7c-0.5,0.7-0.9,1.4-1.3,2.1c0,0,0,0,0,0.1c0,0,0,0,0,0c-0.6,1.4-1,3-1,4.6c0,6.3,5.1,11.4,11.4,11.4
			s11.4-5.1,11.4-11.4c0-0.6-0.1-1.1-0.1-1.7c0.1,0,0.1,0,0.2,0c0,0,0,0,0,0c0,0,0,0,0,0c4.7-1.4,9.4-3.6,9.8-9.3l1,1
			c0.2,0.2,0.4,0.3,0.6,0.3s0.5-0.1,0.6-0.3C51.1,14.1,51.1,13.5,50.7,13.2z"/>
	</g>
</g>
</svg>
