<?xml version="1.0" encoding="utf-8"?>
<!-- Generator: Adobe Illustrator 23.0.3, SVG Export Plug-In . SVG Version: 6.00 Build 0)  -->
<svg version="1.0" id="图层_1" xmlns="http://www.w3.org/2000/svg" xmlns:xlink="http://www.w3.org/1999/xlink" x="0px" y="0px"
	 viewBox="0 0 64.8 47.5" style="enable-background:new 0 0 64.8 47.5;" xml:space="preserve">
<g>
	<g>
		<ellipse style="opacity:0.2;fill:#1D94FF;" cx="32.2" cy="44.3" rx="24" ry="3.5"/>
		<linearGradient id="SVGID_1_" gradientUnits="userSpaceOnUse" x1="32.1982" y1="27.4883" x2="32.1982" y2="47.7817">
			<stop  offset="0" style="stop-color:#1D94FF;stop-opacity:0"/>
			<stop  offset="1" style="stop-color:#1D94FF;stop-opacity:0.6"/>
		</linearGradient>
		<path style="opacity:0.5;fill:url(#SVGID_1_);" d="M0,27.5l8.2,16.8c0,1.9,10.7,3.5,24,3.5c13.2,0,24-1.5,24-3.5l8.2-16.8H0z"/>
	</g>
	<g>
		<path style="fill:#1D94FF;" d="M23.8,27.3c-0.5,0-0.9,0.4-0.9,0.9v1.5c-1.9-2.2-3-5-3-8.1c0-3.4,1.4-6.5,3.6-8.7l-1.2-1.4
			c-2.6,2.6-4.3,6.1-4.3,10.1c0,3.6,1.4,6.8,3.5,9.3h-1.4c-0.5,0-0.9,0.4-0.9,0.9s0.4,0.9,0.9,0.9h3.6c0.5,0,0.9-0.4,0.9-0.9v-3.6
			C24.7,27.7,24.3,27.3,23.8,27.3z"/>
		<path style="fill:#1D94FF;" d="M41.4,10.9h0.7c0.5,0,0.9-0.4,0.9-0.9c0-0.5-0.4-0.9-0.9-0.9h-3.6c-0.5,0-0.9,0.4-0.9,0.9v3.6
			c0,0.5,0.4,0.9,0.9,0.9c0.5,0,0.9-0.4,0.9-0.9v-1.9c3.1,2.2,5.1,5.8,5.1,9.9c0,6.8-5.5,12.3-12.3,12.3c-1.4,0-2.8-0.3-4.1-0.7
			l-0.6,1.7c1.5,0.5,3,0.8,4.7,0.8c7.8,0,14.1-6.3,14.1-14.1C46.3,17.2,44.4,13.4,41.4,10.9z"/>
		<path style="fill:#1D94FF;" d="M25.8,6.1h1.4c0.5,0,0.9-0.4,0.9-0.9c0-0.5-0.4-0.9-0.9-0.9h-1.4c-0.5,0-0.9,0.4-0.9,0.9
			C24.9,5.7,25.3,6.1,25.8,6.1z"/>
		<path style="fill:#1D94FF;" d="M25.8,9.9h1.4c0.5,0,0.9-0.4,0.9-0.9c0-0.5-0.4-0.9-0.9-0.9h-1.4c-0.5,0-0.9,0.4-0.9,0.9
			C24.9,9.5,25.3,9.9,25.8,9.9z"/>
		<path style="fill:#1D94FF;" d="M28.1,12.7c0-0.5-0.4-0.9-0.9-0.9h-1.4c-0.5,0-0.9,0.4-0.9,0.9c0,0.5,0.4,0.9,0.9,0.9h1.4
			C27.7,13.7,28.1,13.2,28.1,12.7z"/>
		<path style="fill:#1D94FF;" d="M32,26.6c2.8,0,5-2.2,5-5c0-1.5-0.6-2.8-1.7-3.7V3.2c0,0,0,0,0,0c0,0,0,0,0,0V3c0-0.1,0-0.1,0-0.1
			C35.2,1.3,33.8,0,32.2,0c0,0,0,0,0,0c0,0,0,0,0,0c-1.6,0-3,1.3-3.1,2.9c0,0,0,0.1,0,0.1v14.7c-1.2,0.9-2,2.3-2,4
			C27,24.4,29.2,26.6,32,26.6z M30.8,18.7v-0.5v-1.3V3.2c0,0,0,0,0,0c0-0.7,0.6-1.3,1.4-1.3c0,0,0,0,0,0c0,0,0,0,0,0
			c0.7,0,1.3,0.6,1.3,1.3v13.7v1.5v0.5c1,0.5,1.7,1.6,1.7,2.8c0,1.8-1.4,3.2-3.2,3.2s-3.2-1.4-3.2-3.2
			C28.8,20.3,29.6,19.2,30.8,18.7z"/>
	</g>
</g>
</svg>
