<?xml version="1.0" standalone="no"?><!DOCTYPE svg PUBLIC "-//W3C//DTD SVG 1.1//EN" "http://www.w3.org/Graphics/SVG/1.1/DTD/svg11.dtd"><svg t="1589181138823" class="icon" viewBox="0 0 1024 1024" version="1.1" xmlns="http://www.w3.org/2000/svg" p-id="16271" xmlns:xlink="http://www.w3.org/1999/xlink" width="64" height="64"><defs><style type="text/css"></style></defs><path d="M520.084211 326.063158c10.778947 0 18.863158-8.084211 18.863157-18.863158s-8.084211-18.863158-18.863157-18.863158c-94.315789 0-169.768421 78.147368-169.768422 175.157895 0 10.778947 8.084211 18.863158 18.863158 18.863158s18.863158-8.084211 18.863158-18.863158c0-75.452632 59.284211-137.431579 132.042106-137.431579z" p-id="16272" fill="#ffffff"></path><path d="M846.147368 757.221053h-72.757894V463.494737c0-113.178947-67.368421-210.189474-161.684211-253.305263-5.389474-53.894737-51.2-97.010526-107.789474-97.010527s-99.705263 43.115789-107.789473 97.010527c-94.315789 43.115789-161.684211 140.126316-161.684211 253.305263v293.726316H177.852632c-10.778947 0-18.863158 8.084211-18.863158 18.863158s8.084211 18.863158 18.863158 18.863157H377.263158c8.084211 64.673684 61.978947 113.178947 129.347368 113.178948s118.568421-48.505263 129.347369-113.178948h212.88421c10.778947 0 18.863158-8.084211 18.863158-18.863157s-10.778947-18.863158-21.557895-18.863158zM506.610526 153.6c29.642105 0 53.894737 18.863158 64.673685 43.115789-21.557895-5.389474-43.115789-8.084211-64.673685-8.08421s-43.115789 2.694737-64.673684 8.08421c8.084211-26.947368 35.031579-43.115789 64.673684-43.115789z m-231.747368 309.894737c0-132.042105 105.094737-237.136842 231.747368-237.136842s231.747368 105.094737 231.747369 237.136842v293.726316H274.863158V463.494737z m231.747368 406.905263c-45.810526 0-83.536842-32.336842-91.621052-75.452632h180.547368c-8.084211 43.115789-45.810526 75.452632-88.926316 75.452632zM854.231579 377.263158c-10.778947 2.694737-13.473684 13.473684-10.778947 24.252631 8.084211 24.252632 13.473684 51.2 13.473684 78.147369s-5.389474 53.894737-13.473684 78.147368c-2.694737 10.778947 2.694737 21.557895 10.778947 24.252632h5.389474c8.084211 0 16.168421-5.389474 18.863158-13.473684 10.778947-29.642105 16.168421-59.284211 16.168421-91.621053 0-32.336842-5.389474-61.978947-16.168421-91.621053-2.694737-5.389474-13.473684-10.778947-24.252632-8.08421zM959.326316 342.231579c-5.389474-10.778947-16.168421-13.473684-24.252632-10.778947-10.778947 5.389474-13.473684 16.168421-10.778947 24.252631 16.168421 40.421053 24.252632 80.842105 24.252631 126.652632 0 43.115789-8.084211 86.231579-24.252631 123.957894-5.389474 10.778947 0 21.557895 10.778947 24.252632 2.694737 0 5.389474 2.694737 8.084211 2.694737 8.084211 0 13.473684-5.389474 16.168421-10.778947 18.863158-43.115789 26.947368-91.621053 26.947368-140.126316 2.694737-48.505263-8.084211-97.010526-26.947368-140.126316zM169.768421 584.757895c10.778947-2.694737 13.473684-13.473684 10.778947-24.252632-8.084211-24.252632-13.473684-51.2-13.473684-78.147368s5.389474-53.894737 13.473684-78.147369c2.694737-10.778947-2.694737-21.557895-10.778947-24.252631-10.778947-2.694737-21.557895 2.694737-24.252632 10.778947-10.778947 29.642105-16.168421 59.284211-16.168421 91.621053 0 32.336842 5.389474 61.978947 16.168421 91.621052 2.694737 8.084211 10.778947 13.473684 18.863158 13.473685 0-2.694737 2.694737-2.694737 5.389474-2.694737zM88.926316 331.452632c-10.778947-5.389474-21.557895 0-24.252632 10.778947-18.863158 43.115789-29.642105 91.621053-29.642105 140.126316 0 48.505263 10.778947 94.315789 26.947368 140.126316 2.694737 8.084211 10.778947 10.778947 16.168421 10.778947 2.694737 0 5.389474 0 8.084211-2.694737 10.778947-5.389474 13.473684-16.168421 10.778947-24.252632-16.168421-40.421053-24.252632-80.842105-24.252631-123.957894 0-43.115789 8.084211-86.231579 24.252631-126.652632 5.389474-10.778947 0-21.557895-8.08421-24.252631z" p-id="16273" fill="#ffffff"></path></svg>