<?xml version="1.0" standalone="no"?><!DOCTYPE svg PUBLIC "-//W3C//DTD SVG 1.1//EN" "http://www.w3.org/Graphics/SVG/1.1/DTD/svg11.dtd"><svg t="1589181034617" class="icon" viewBox="0 0 1024 1024" version="1.1" xmlns="http://www.w3.org/2000/svg" p-id="15814" xmlns:xlink="http://www.w3.org/1999/xlink" width="64" height="64"><defs><style type="text/css"></style></defs><path d="M509.305263 35.031579c-161.684211 0-309.894737 80.842105-398.821052 215.578947L75.452632 175.157895c-2.694737-8.084211-16.168421-13.473684-24.252632-8.084211-10.778947 2.694737-13.473684 13.473684-10.778947 24.252632L91.621053 296.421053c2.694737 2.694737 2.694737 5.389474 5.389473 5.389473h2.694737c2.694737 2.694737 5.389474 2.694737 8.084211 2.694737l113.178947-2.694737c10.778947 0 18.863158-8.084211 18.863158-18.863158 0-10.778947-8.084211-18.863158-18.863158-18.863157H145.515789c80.842105-121.263158 218.273684-196.715789 366.484211-196.71579 226.357895 0 412.294737 169.768421 436.547368 393.431579 0 10.778947 8.084211 16.168421 18.863158 16.168421h2.694737c10.778947 0 18.863158-10.778947 16.168421-21.557895-26.947368-237.136842-231.747368-420.378947-476.968421-420.378947zM929.684211 722.189474s-2.694737 0 0 0c-2.694737-2.694737-2.694737-5.389474-2.694737-5.389474s-2.694737 0-2.694737-2.694737l-2.694737-2.694737h-2.694737-2.694737l-115.873684-2.694737c-10.778947 0-18.863158 8.084211-18.863158 18.863158 0 10.778947 8.084211 18.863158 18.863158 18.863158l83.536842 2.694737c-80.842105 126.652632-218.273684 202.105263-369.178947 202.105263-212.884211 0-393.431579-150.905263-431.157895-361.094737-2.694737-10.778947-10.778947-16.168421-21.557895-16.168421-10.778947 2.694737-16.168421 10.778947-16.168421 21.557895 40.421053 226.357895 239.831579 390.736842 468.884211 390.736842 161.684211 0 312.589474-80.842105 398.821052-215.578947l26.947369 70.063158c2.694737 8.084211 10.778947 10.778947 16.168421 10.778947 2.694737 0 5.389474 0 8.08421-2.694737 10.778947-2.694737 13.473684-16.168421 10.778948-24.252631l-45.810526-102.4z" p-id="15815" fill="#ffffff"></path><path d="M312.589474 552.421053c2.694737 0 5.389474 0 8.08421-2.694737h2.694737c2.694737 0 2.694737-2.694737 5.389474-5.389474l24.252631-43.115789 40.421053 113.178947v5.389474c0 2.694737 2.694737 2.694737 2.694737 2.694737 2.694737 0 2.694737 2.694737 5.389473 2.694736h10.778948c2.694737 0 2.694737-2.694737 5.389474-2.694736l2.694736-2.694737 2.694737-2.694737v-2.694737-2.694737l48.505263-183.242105 59.284211 234.442105v5.389474c0 2.694737 2.694737 2.694737 2.694737 2.694737v2.694737c2.694737 2.694737 2.694737 2.694737 5.389473 2.694736h10.778948c2.694737 0 5.389474-2.694737 5.389473-2.694736 2.694737 0 2.694737-2.694737 2.694737-5.389474v-2.694737-2.694737l48.505263-158.989474 29.642106 94.31579v5.389474c0 2.694737 2.694737 2.694737 2.694737 5.389473l2.694736 2.694737h13.473685s2.694737 0 2.694736-2.694737c2.694737 0 2.694737-2.694737 2.694737-2.694737l40.421053-53.894736h121.263158c10.778947 0 18.863158-8.084211 18.863158-18.863158s-8.084211-18.863158-18.863158-18.863158h-132.042105-2.694737-2.694737s-2.694737 0-2.694737 2.694737l-2.694737 2.694737-24.252631 32.336842-37.726316-115.873685v-2.694736s0-2.694737-2.694737-2.694737l-2.694737-2.694737-2.694737-2.694737s-2.694737 0-2.694737-2.694737h-2.694736-2.694737-2.694737-2.694737-2.694737-2.694737s-2.694737 0-2.694736 2.694737l-2.694737 2.694737-2.694737 2.694737-2.694737 2.694737v2.694736l-45.810526 150.905264-59.284211-239.831579v-2.694737s0-2.694737-2.694737-2.694737l-2.694736-2.694737-2.694737-2.694737s-2.694737 0-2.694737-2.694737h-2.694737-2.694737-2.694737-2.694737s-2.694737 0-2.694736 2.694737l-2.694737 2.694737-2.694737 2.694737s0 2.694737-2.694737 2.694737v2.694737l-51.2 196.715789-32.336842-94.315789s0-2.694737-2.694737-2.694737c0 0 0-2.694737-2.694737-2.694737l-2.694737-2.694737-2.694736-2.694737h-2.694737-2.694737-5.389474s-2.694737 0-2.694737 2.694737c0 0-2.694737 0-2.694736 2.694737l-2.694737 2.694737-2.694737 2.694737-40.421053 67.368421H180.547368c-10.778947 0-18.863158 8.084211-18.863157 18.863158s8.084211 18.863158 18.863157 18.863157h132.042106z" p-id="15816" fill="#ffffff"></path></svg>