<?xml version="1.0" standalone="no"?><!DOCTYPE svg PUBLIC "-//W3C//DTD SVG 1.1//EN" "http://www.w3.org/Graphics/SVG/1.1/DTD/svg11.dtd"><svg t="1589181184823" class="icon" viewBox="0 0 1024 1024" version="1.1" xmlns="http://www.w3.org/2000/svg" p-id="16454" xmlns:xlink="http://www.w3.org/1999/xlink" width="64" height="64"><defs><style type="text/css"></style></defs><path d="M633.263158 339.536842c0-2.694737 0-2.694737-2.694737-2.694737v-2.694737l-2.694737-2.694736-2.694737-2.694737h-2.694736s-2.694737 0-5.389474-2.694737h-2.694737-2.694737l-56.589474 8.08421 21.557895-121.263157v-5.389474s0-2.694737-2.694737-2.694737c0 0 0-2.694737-2.694736-2.694737 0-2.694737-2.694737-2.694737-5.389474-5.389474-2.694737 0-2.694737 0-5.389474-2.694736h-2.694737c-5.389474 0-10.778947 0-13.473684 2.694736l-5.389474 5.389474-140.126315 215.578948v2.694736s0 2.694737-2.694737 2.694737V431.157895s0 2.694737 2.694737 2.694737c0 0 0 2.694737 2.694736 2.694736l2.694737 2.694737h13.473685l56.589473-8.08421-16.168421 123.957894v10.778948s0 2.694737 2.694737 2.694737l5.389474 5.389473c2.694737 0 2.694737 2.694737 5.389473 2.694737h2.694737c2.694737 0 5.389474 0 8.084211-2.694737h2.694737c2.694737 0 2.694737-2.694737 5.389473-5.389473l140.126316-215.578948V350.315789s0-2.694737 2.694737-2.694736v-2.694737c0-2.694737 2.694737-2.694737 0-5.389474 2.694737 2.694737 0 2.694737 0 0z m-113.178947 72.757895v-2.694737-2.694737s0-2.694737-2.694737-2.694737c0 0 0-2.694737-2.694737-2.694737l-2.694737-2.694736h-2.694737c-2.694737 0-2.694737 0-5.389474-2.694737h-2.694736-2.694737l-43.11579 5.389473 67.368421-102.4-8.08421 51.2V358.4s0 2.694737 2.694737 2.694737c0 0 0 2.694737 2.694737 2.694737l2.694736 2.694737s2.694737 0 2.694737 2.694736c0 0 2.694737 0 2.694737 2.694737H536.252632l43.115789-5.389473-67.368421 105.094736 10.778947-56.589473c-2.694737 0-2.694737 0-2.694736-2.694737z" fill="#ffffff" p-id="16455"></path><path d="M813.810526 369.178947c0-167.073684-134.736842-301.810526-301.810526-301.810526-167.073684 0-301.810526 134.736842-301.810526 301.810526 0 107.789474 56.589474 204.8 148.210526 258.694737V808.421053c0 53.894737 40.421053 94.315789 94.315789 99.705263 8.084211 29.642105 35.031579 51.2 67.368422 51.2s59.284211-21.557895 64.673684-51.2c51.2-2.694737 94.315789-45.810526 94.315789-99.705263v-185.936842c83.536842-56.589474 134.736842-150.905263 134.736842-253.305264zM396.126316 751.831579h242.526316v26.947368h-242.526316v-26.947368z m242.526316-37.726316h-242.526316v-26.947368h242.526316v26.947368z m-121.263158 204.8c-10.778947 0-18.863158-5.389474-24.252632-13.473684h48.505263c-5.389474 10.778947-13.473684 13.473684-24.252631 13.473684z m59.28421-48.505263H458.105263c-32.336842 0-56.589474-24.252632-59.28421-53.894737h242.526315c-8.084211 29.642105-32.336842 53.894737-64.673684 53.894737zM646.736842 595.536842s0 2.694737 0 0l-5.389474 5.389474-2.694736 2.694737s0 2.694737-2.694737 2.694736V649.431579h-242.526316V619.789474v-2.694737-2.694737s0-2.694737-2.694737-2.694737c0 0 0-2.694737-2.694737-2.694737l-2.694737-2.694737-2.694736-2.694736c-86.231579-45.810526-137.431579-134.736842-137.431579-231.747369 0-145.515789 118.568421-264.084211 264.08421-264.08421s264.084211 118.568421 264.084211 264.08421c2.694737 91.621053-45.810526 175.157895-126.652632 223.663158zM829.978947 207.494737c2.694737 0 8.084211 0 10.778948-2.694737l78.147368-48.505263c8.084211-5.389474 10.778947-16.168421 5.389474-26.947369-5.389474-8.084211-16.168421-10.778947-26.947369-5.389473l-78.147368 48.505263c-8.084211 5.389474-10.778947 16.168421-5.389474 26.947368 5.389474 5.389474 10.778947 8.084211 16.168421 8.084211zM970.105263 350.315789h-99.705263c-10.778947 0-18.863158 8.084211-18.863158 18.863158s8.084211 18.863158 18.863158 18.863158H970.105263c10.778947 0 18.863158-8.084211 18.863158-18.863158s-8.084211-18.863158-18.863158-18.863158zM916.210526 582.063158l-83.536842-53.894737c-8.084211-5.389474-21.557895-2.694737-26.947368 5.389474-5.389474 8.084211-2.694737 21.557895 5.389473 26.947368l83.536843 53.894737c2.694737 2.694737 5.389474 2.694737 10.778947 2.694737s13.473684-2.694737 16.168421-8.084211c5.389474-10.778947 2.694737-21.557895-5.389474-26.947368zM105.094737 156.294737l78.147368 48.505263c2.694737 2.694737 5.389474 2.694737 10.778948 2.694737s13.473684-2.694737 16.168421-8.084211c5.389474-10.778947 2.694737-21.557895-5.389474-26.947368l-80.842105-48.505263c-8.084211-5.389474-21.557895-2.694737-26.947369 5.389473-2.694737 8.084211 0 21.557895 8.084211 26.947369zM172.463158 369.178947c0-10.778947-8.084211-18.863158-18.863158-18.863158H53.894737c-10.778947 0-18.863158 8.084211-18.863158 18.863158s8.084211 18.863158 18.863158 18.863158h99.705263c10.778947 0 18.863158-8.084211 18.863158-18.863158zM191.326316 528.168421l-83.536842 53.894737c-8.084211 5.389474-10.778947 16.168421-5.389474 26.947368 2.694737 5.389474 10.778947 8.084211 16.168421 8.084211 2.694737 0 8.084211 0 10.778947-2.694737l83.536843-53.894737c8.084211-5.389474 10.778947-16.168421 5.389473-26.947368-5.389474-8.084211-16.168421-10.778947-26.947368-5.389474z" fill="#ffffff" p-id="16456"></path></svg>