<svg 
 xmlns="http://www.w3.org/2000/svg"
 xmlns:xlink="http://www.w3.org/1999/xlink"
 width="31px" height="31px">
<path fill-rule="evenodd"  fill="rgb(255, 255, 255)"
 d="M15.088,31.000 C6.768,31.000 -0.000,24.232 -0.000,15.912 C-0.000,7.592 6.768,0.824 15.088,0.824 C23.408,0.824 30.176,7.592 30.176,15.912 C30.176,24.232 23.408,31.000 15.088,31.000 ZM15.088,2.989 C7.962,2.989 2.165,8.786 2.165,15.912 C2.165,23.037 7.962,28.835 15.088,28.835 C22.213,28.835 28.011,23.037 28.011,15.912 C28.011,8.786 22.213,2.989 15.088,2.989 ZM13.706,22.158 C13.703,22.161 13.700,22.162 13.697,22.165 C13.695,22.167 13.693,22.171 13.691,22.174 C13.622,22.241 13.538,22.281 13.457,22.326 C13.417,22.348 13.385,22.383 13.343,22.400 C13.214,22.452 13.077,22.478 12.940,22.478 C12.802,22.478 12.663,22.452 12.533,22.398 C12.490,22.381 12.456,22.343 12.414,22.320 C12.334,22.275 12.251,22.234 12.182,22.167 C12.180,22.165 12.179,22.161 12.177,22.158 C12.175,22.155 12.170,22.155 12.168,22.152 L7.924,17.791 C7.509,17.365 7.519,16.682 7.946,16.267 C8.371,15.853 9.054,15.860 9.470,16.288 L12.948,19.862 L20.804,11.919 C21.222,11.496 21.905,11.492 22.328,11.910 C22.750,12.329 22.755,13.011 22.335,13.435 L13.706,22.158 Z"/>
</svg>