<svg 
 xmlns="http://www.w3.org/2000/svg"
 xmlns:xlink="http://www.w3.org/1999/xlink"
 width="19px" height="25px">
<path fill-rule="evenodd"  fill="rgb(255, 255, 255)"
 d="M18.395,16.690 L10.376,24.711 C9.986,25.104 9.352,25.107 8.959,24.717 C8.957,24.715 8.955,24.713 8.953,24.711 L0.934,16.690 C0.541,16.297 0.541,15.660 0.934,15.266 C1.328,14.873 1.965,14.873 2.358,15.266 L8.662,21.582 L8.662,1.941 C8.662,1.387 9.111,0.939 9.665,0.939 C10.218,0.939 10.667,1.387 10.667,1.941 L10.667,21.581 L16.971,15.266 C17.364,14.873 18.001,14.873 18.395,15.266 C18.788,15.660 18.788,16.297 18.395,16.690 Z"/>
</svg>