<svg 
 xmlns="http://www.w3.org/2000/svg"
 xmlns:xlink="http://www.w3.org/1999/xlink"
 width="19px" height="20px">
<path fill-rule="evenodd"  fill="rgb(255, 255, 255)"
 d="M18.534,17.332 L14.770,13.577 C15.206,13.014 15.566,12.398 15.845,11.737 C16.275,10.718 16.492,9.635 16.492,8.521 C16.492,7.406 16.275,6.323 15.845,5.304 C15.430,4.320 14.836,3.436 14.079,2.676 C13.321,1.916 12.439,1.321 11.458,0.903 C10.440,0.475 9.359,0.255 8.246,0.255 C7.133,0.255 6.052,0.475 5.035,0.908 C4.053,1.323 3.171,1.921 2.414,2.681 C1.656,3.440 1.062,4.322 0.647,5.308 C0.218,6.328 -0.000,7.410 -0.000,8.525 C-0.000,9.639 0.218,10.722 0.647,11.741 C1.062,12.725 1.656,13.609 2.414,14.369 C3.171,15.129 4.053,15.724 5.035,16.142 C6.052,16.575 7.133,16.792 8.246,16.792 C9.359,16.792 10.440,16.572 11.458,16.142 C12.128,15.857 12.752,15.490 13.321,15.044 L17.078,18.793 C17.478,19.192 18.134,19.192 18.536,18.793 C18.936,18.385 18.936,17.731 18.534,17.332 L18.534,17.332 ZM8.246,15.101 C4.631,15.101 1.688,12.151 1.688,8.523 C1.688,4.894 4.629,1.944 8.246,1.944 C11.862,1.944 14.804,4.894 14.804,8.523 C14.804,12.151 11.862,15.101 8.246,15.101 Z"/>
</svg>