<svg 
 xmlns="http://www.w3.org/2000/svg"
 xmlns:xlink="http://www.w3.org/1999/xlink"
 width="19px" height="25px">
<path fill-rule="evenodd"  fill="rgb(255, 255, 255)"
 d="M18.378,10.671 C17.985,11.064 17.348,11.064 16.955,10.671 L10.650,4.356 L10.650,23.996 C10.650,24.550 10.202,24.999 9.648,24.999 C9.094,24.999 8.645,24.550 8.645,23.996 L8.645,4.356 L2.341,10.671 C1.948,11.064 1.311,11.064 0.918,10.671 C0.525,10.278 0.525,9.641 0.918,9.247 L8.936,1.226 C9.326,0.833 9.961,0.831 10.354,1.221 C10.356,1.222 10.357,1.224 10.360,1.226 L18.378,9.247 C18.771,9.641 18.771,10.278 18.378,10.671 Z"/>
</svg>