<?xml version="1.0" encoding="utf-8"?>
<!-- Generator: Adobe Illustrator 23.0.1, SVG Export Plug-In . SVG Version: 6.00 Build 0)  -->
<svg version="1.0" id="图层_1" xmlns="http://www.w3.org/2000/svg" xmlns:xlink="http://www.w3.org/1999/xlink" x="0px" y="0px"
	 viewBox="0 0 28.6 35.7" style="enable-background:new 0 0 28.6 35.7;" xml:space="preserve">
<style type="text/css">
	.st0{fill:#1D94FF;}
</style>
<g>
	<path class="st0" d="M5.9,27.3c-0.5,0-0.9,0.4-0.9,0.9v1.5c-1.9-2.2-3-5-3-8.1c0-3.4,1.4-6.5,3.6-8.7l-1.2-1.4
		C1.8,14,0.2,17.6,0.2,21.6c0,3.6,1.4,6.8,3.5,9.3H2.3c-0.5,0-0.9,0.4-0.9,0.9s0.4,0.9,0.9,0.9h3.6c0.5,0,0.9-0.4,0.9-0.9v-3.6
		C6.8,27.7,6.4,27.3,5.9,27.3z"/>
	<path class="st0" d="M23.5,10.9h0.7c0.5,0,0.9-0.4,0.9-0.9c0-0.5-0.4-0.9-0.9-0.9h-3.6c-0.5,0-0.9,0.4-0.9,0.9v3.6
		c0,0.5,0.4,0.9,0.9,0.9c0.5,0,0.9-0.4,0.9-0.9v-1.9c3.1,2.2,5.1,5.8,5.1,9.9c0,6.8-5.5,12.3-12.3,12.3c-1.4,0-2.8-0.3-4.1-0.7
		l-0.6,1.7c1.5,0.5,3,0.8,4.7,0.8c7.8,0,14.1-6.3,14.1-14.1C28.4,17.2,26.5,13.4,23.5,10.9z"/>
	<path class="st0" d="M7.9,6.1h1.4c0.5,0,0.9-0.4,0.9-0.9c0-0.5-0.4-0.9-0.9-0.9H7.9C7.4,4.3,7,4.7,7,5.2C7,5.7,7.4,6.1,7.9,6.1z"/>
	<path class="st0" d="M7.9,9.9h1.4c0.5,0,0.9-0.4,0.9-0.9c0-0.5-0.4-0.9-0.9-0.9H7.9C7.4,8.1,7,8.5,7,9C7,9.5,7.4,9.9,7.9,9.9z"/>
	<path class="st0" d="M10.2,12.7c0-0.5-0.4-0.9-0.9-0.9H7.9c-0.5,0-0.9,0.4-0.9,0.9c0,0.5,0.4,0.9,0.9,0.9h1.4
		C9.8,13.7,10.2,13.2,10.2,12.7z"/>
	<path class="st0" d="M14.1,26.6c2.8,0,5-2.2,5-5c0-1.5-0.6-2.8-1.7-3.7V3.2c0,0,0,0,0,0c0,0,0,0,0,0V3c0-0.1,0-0.1,0-0.1
		C17.3,1.3,15.9,0,14.3,0c0,0,0,0,0,0c0,0,0,0,0,0c-1.6,0-3,1.3-3.1,2.9c0,0,0,0.1,0,0.1v14.7c-1.2,0.9-2,2.3-2,4
		C9.1,24.4,11.3,26.6,14.1,26.6z M12.9,18.7v-0.5v-1.3V3.2c0,0,0,0,0,0c0-0.7,0.6-1.3,1.4-1.3c0,0,0,0,0,0c0,0,0,0,0,0
		c0.7,0,1.3,0.6,1.3,1.3v13.7v1.5v0.5c1,0.5,1.7,1.6,1.7,2.8c0,1.8-1.4,3.2-3.2,3.2s-3.2-1.4-3.2-3.2C10.9,20.3,11.7,19.2,12.9,18.7
		z"/>
</g>
</svg>
