<?xml version="1.0" encoding="utf-8"?>
<!-- Generator: Adobe Illustrator 23.0.1, SVG Export Plug-In . SVG Version: 6.00 Build 0)  -->
<svg version="1.0" id="图层_1" xmlns="http://www.w3.org/2000/svg" xmlns:xlink="http://www.w3.org/1999/xlink" x="0px" y="0px"
	 viewBox="0 0 60 60" style="enable-background:new 0 0 60 60;" xml:space="preserve">
<style type="text/css">
	.st0{fill:#FFFFFF;}
</style>
<g>
	<path class="st0" d="M41.9,18.2c-0.8-0.8-2-0.8-2.8,0L30.3,27l-8.8-8.8c-0.8-0.8-2-0.8-2.8,0c-0.8,0.8-0.8,2,0,2.8l8.8,8.8
		l-8.8,8.8c-0.8,0.8-0.8,2,0,2.8c0.4,0.4,0.9,0.6,1.4,0.6s1-0.2,1.4-0.6l8.8-8.8l8.8,8.8c0.4,0.4,0.9,0.6,1.4,0.6s1-0.2,1.4-0.6
		c0.8-0.8,0.8-2,0-2.8l-8.8-8.8l8.8-8.8C42.7,20.3,42.7,19,41.9,18.2z"/>
	<path class="st0" d="M50.7,9.4C45.2,4,38,1,30.3,1C22.6,1,15.4,4,10,9.4C-1.2,20.6-1.2,38.9,10,50.1c5.6,5.6,13,8.4,20.3,8.4
		c7.4,0,14.7-2.8,20.3-8.4C61.9,38.9,61.9,20.6,50.7,9.4z M47.8,47.3c-9.7,9.7-25.4,9.7-35,0c-9.7-9.7-9.7-25.4,0-35
		C17.5,7.6,23.7,5,30.3,5c6.6,0,12.8,2.6,17.5,7.3C57.5,21.9,57.5,37.6,47.8,47.3z"/>
</g>
</svg>
