<?xml version="1.0" encoding="utf-8"?>
<!-- Generator: Adobe Illustrator 23.0.1, SVG Export Plug-In . SVG Version: 6.00 Build 0)  -->
<svg version="1.0" id="图层_1" xmlns="http://www.w3.org/2000/svg" xmlns:xlink="http://www.w3.org/1999/xlink" x="0px" y="0px"
	 viewBox="0 0 60 60" style="enable-background:new 0 0 60 60;" xml:space="preserve">
<style type="text/css">
	.st0{fill:#FFFFFF;}
</style>
<g>
	<path class="st0" d="M58,7.2H2c-1.1,0-2,0.9-2,2v42c0,1.1,0.9,2,2,2h56c1.1,0,2-0.9,2-2v-42C60,8.1,59.1,7.2,58,7.2z M56,11.2v38H4
		v-38H56z"/>
	<path class="st0" d="M19,39.8c4.6,0,8.4-3.3,9.4-7.6l7.1,0v4.9c0,1.1,0.9,2,2,2s2-0.9,2-2v-4.9l5.2,0v4.9c0,1.1,0.9,2,2,2
		s2-0.9,2-2v-6.9c0-0.1,0-0.2,0-0.2c0-0.1,0-0.1,0-0.2c0-0.1-0.1-0.2-0.1-0.3c0,0,0-0.1,0-0.1c0-0.1-0.1-0.2-0.1-0.3c0,0,0,0,0-0.1
		c-0.1-0.1-0.1-0.2-0.2-0.3c0,0,0,0,0,0c-0.1-0.1-0.2-0.1-0.2-0.2c0,0,0,0-0.1,0c-0.1-0.1-0.2-0.1-0.2-0.1c0,0-0.1,0-0.1,0
		c-0.1,0-0.2-0.1-0.2-0.1c0,0-0.1,0-0.1,0c-0.1,0-0.1,0-0.2,0c-0.1,0-0.1,0-0.2,0l-18.3,0c-0.9-4.3-4.8-7.6-9.4-7.6
		c-5.3,0-9.6,4.3-9.6,9.6S13.7,39.8,19,39.8z M19,24.6c3.1,0,5.6,2.5,5.6,5.6c0,3.1-2.5,5.6-5.6,5.6s-5.6-2.5-5.6-5.6
		C13.4,27.1,15.9,24.6,19,24.6z"/>
</g>
</svg>
