<?xml version="1.0" encoding="utf-8"?>
<!-- Generator: Adobe Illustrator 23.0.1, SVG Export Plug-In . SVG Version: 6.00 Build 0)  -->
<svg version="1.0" id="图层_1" xmlns="http://www.w3.org/2000/svg" xmlns:xlink="http://www.w3.org/1999/xlink" x="0px" y="0px"
	 viewBox="0 0 60 60" style="enable-background:new 0 0 60 60;" xml:space="preserve">
<style type="text/css">
	.st0{fill:#E2EDF2;}
</style>
<g>
	<path class="st0" d="M43.7,19.3L26.5,36.5L16.3,26.3c-0.8-0.8-2-0.8-2.8,0c-0.8,0.8-0.8,2,0,2.8l11.6,11.6c0.4,0.4,0.9,0.6,1.4,0.6
		c0.5,0,1-0.2,1.4-0.6l18.5-18.5c0.8-0.8,0.8-2,0-2.8C45.7,18.6,44.4,18.6,43.7,19.3z"/>
	<path class="st0" d="M30,0C13.5,0,0,13.5,0,30s13.5,30,30,30c16.5,0,30-13.5,30-30S46.5,0,30,0z M30,56.1
		C15.6,56.1,3.9,44.4,3.9,30S15.6,3.9,30,3.9S56.1,15.6,56.1,30S44.4,56.1,30,56.1z"/>
</g>
</svg>
