<?xml version="1.0" encoding="utf-8"?>
<!-- Generator: Adobe Illustrator 23.0.1, SVG Export Plug-In . SVG Version: 6.00 Build 0)  -->
<svg version="1.0" id="图层_1" xmlns="http://www.w3.org/2000/svg" xmlns:xlink="http://www.w3.org/1999/xlink" x="0px" y="0px"
	 viewBox="0 0 60 60" style="enable-background:new 0 0 60 60;" xml:space="preserve">
<style type="text/css">
	.st0{fill:#1D94FF;}
</style>
<g>
	<path class="st0" d="M58,4.2H2.1c0,0,0,0-0.1,0c0,0,0,0-0.1,0c-1.1,0-2,0.9-2,2v45c0,1.1,0.9,2,2,2c0.1,0,0.1,0,0.2,0
		c0.1,0,0.1,0,0.2,0h34.9c1.1,0,2-0.9,2-2s-0.9-2-2-2H4v-41h52v25.1c0,1.1,0.9,2,2,2s2-0.9,2-2V6.2C60,5.1,59.1,4.2,58,4.2z"/>
	<path class="st0" d="M23.6,16.4c0-3.7-3-6.6-6.6-6.6s-6.6,3-6.6,6.6s3,6.6,6.6,6.6S23.6,20.1,23.6,16.4z M14.4,16.4
		c0-1.4,1.2-2.6,2.6-2.6c1.5,0,2.6,1.2,2.6,2.6c0,1.4-1.2,2.6-2.6,2.6C15.5,19,14.4,17.9,14.4,16.4z"/>
	<path class="st0" d="M7.1,46.3c0.4,0.4,0.9,0.6,1.4,0.6s1-0.2,1.4-0.6l9.7-9.7l7.8,7.8c0.4,0.4,0.9,0.6,1.4,0.6
		c0.5,0,1-0.2,1.4-0.6l21.5-21.5c0.8-0.8,0.8-2,0-2.8s-2-0.8-2.8,0l-20,20L21,32.3c-0.8-0.8-2-0.8-2.8,0c0,0,0,0,0,0c0,0,0,0,0,0
		L7.1,43.4C6.3,44.2,6.3,45.5,7.1,46.3z"/>
	<path class="st0" d="M51,33.9c-0.1-0.1-0.2-0.2-0.3-0.3c0,0-0.1-0.1-0.1-0.1c-0.1,0-0.1-0.1-0.2-0.1c-0.1,0-0.1,0-0.2-0.1
		c-0.1,0-0.1,0-0.2-0.1c-0.3-0.1-0.5-0.1-0.8,0c-0.1,0-0.1,0-0.2,0.1c-0.1,0-0.1,0-0.2,0.1c-0.1,0-0.1,0.1-0.2,0.1
		c0,0-0.1,0-0.1,0.1c-0.1,0.1-0.2,0.2-0.3,0.3l-5.6,5.6c-0.8,0.8-0.8,2,0,2.8c0.4,0.4,0.9,0.6,1.4,0.6c0.5,0,1-0.2,1.4-0.6l2.2-2.2
		v14.6c0,1.1,0.9,2,2,2s2-0.9,2-2V40.1l2.2,2.2c0.4,0.4,0.9,0.6,1.4,0.6s1-0.2,1.4-0.6c0.8-0.8,0.8-2,0-2.8L51,33.9z"/>
</g>
</svg>
