<?xml version="1.0" encoding="utf-8"?>
<!-- Generator: Adobe Illustrator 23.0.1, SVG Export Plug-In . SVG Version: 6.00 Build 0)  -->
<svg version="1.0" id="图层_1" xmlns="http://www.w3.org/2000/svg" xmlns:xlink="http://www.w3.org/1999/xlink" x="0px" y="0px"
	 viewBox="0 0 60 60" style="enable-background:new 0 0 60 60;" xml:space="preserve">
<g>
	<g>
		
			<rect x="14" y="19.4" transform="matrix(-1.836970e-16 1 -1 -1.836970e-16 39.0338 2.7378)" style="fill:#82E6ED;" width="8.4" height="3"/>
		
			<rect x="16.6" y="16.7" transform="matrix(-1 -1.224647e-16 1.224647e-16 -1 41.6576 36.41)" style="fill:#82E6ED;" width="8.4" height="3"/>
	</g>
	<g>
		
			<rect x="35" y="16.7" transform="matrix(-1 -1.224647e-16 1.224647e-16 -1 78.3424 36.41)" style="fill:#82E6ED;" width="8.4" height="3"/>
		
			<rect x="37.7" y="19.4" transform="matrix(6.123234e-17 -1 1 6.123234e-17 20.9662 62.7378)" style="fill:#82E6ED;" width="8.4" height="3"/>
	</g>
	<g>
		
			<rect x="37.7" y="37.6" transform="matrix(6.123234e-17 -1 1 6.123234e-17 2.7378 80.9662)" style="fill:#82E6ED;" width="8.4" height="3"/>
		<rect x="35" y="40.3" style="fill:#82E6ED;" width="8.4" height="3"/>
	</g>
	<g>
		<rect x="16.6" y="40.3" style="fill:#82E6ED;" width="8.4" height="3"/>
		
			<rect x="14" y="37.6" transform="matrix(-1.836970e-16 1 -1 -1.836970e-16 57.2622 20.9662)" style="fill:#82E6ED;" width="8.4" height="3"/>
	</g>
</g>
<path style="fill:#82E6ED;" d="M30,0C13.4,0,0,13.4,0,30s13.4,30,30,30s30-13.4,30-30S46.6,0,30,0z M30,57C15.1,57,3,44.9,3,30
	S15.1,3,30,3s27,12.1,27,27S44.9,57,30,57z"/>
</svg>
