<?xml version="1.0" standalone="no"?><!DOCTYPE svg PUBLIC "-//W3C//DTD SVG 1.1//EN" "http://www.w3.org/Graphics/SVG/1.1/DTD/svg11.dtd"><svg class="icon" width="64px" height="64.00px" viewBox="0 0 1024 1024" version="1.1" xmlns="http://www.w3.org/2000/svg"><path fill="#e2edf2" d="M922.8 4H373.2C319.6 4 276 47.6 276 101.2v388c0 53.6 64.8 64.8 97.2 64.8V748l291.2-194h258.8c53.6 0 97.2-43.6 97.2-97.2v-356C1020 47.6 976.4 4 922.8 4z m32.4 452.8c0 18-14.4 32.4-32.4 32.4H632l-194 161.6v-161.6H373.2c-18 0-32.4-14.4-32.4-32.4v-356c0-18 14.4-32.4 32.4-32.4h550c18 0 32.4 14.4 32.4 32.4v356z m0 0"  /><path fill="#e2edf2" d="M437.6 337.6l17.2-20.8c10.8 10 25.2 16.8 38.4 16.8 15.6 0 24-6.8 24-17.2 0-11.2-9.2-14.8-22.4-20.4l-20-8.4c-15.2-6.4-30.4-18.4-30.4-40.4 0-24.8 21.6-43.6 52-43.6 17.6 0 34.8 6.8 47.2 19.2l-15.2 18.8c-9.6-8-19.6-12.4-32-12.4-13.2 0-21.6 6-21.6 16 0 10.8 10.8 14.8 23.6 19.6l19.6 8.4c18.4 7.6 30.4 19.2 30.4 40.8 0 24.8-20.4 45.6-55.2 45.6-20.8 0-40.8-8-55.6-22zM574.4 206h33.2l25.6 70.4c3.2 9.2 6 19.2 9.2 29.2h1.2c3.2-9.6 6-19.6 9.2-29.2l25.2-70.4h33.2v150.4h-27.6V293.6c0-14.4 2.4-35.2 3.6-49.6h-0.8l-12.4 35.2-23.2 63.2h-17.2l-23.2-63.2-12-35.2h-0.8c1.6 14.4 4 35.2 4 49.6v62.8h-27.2V206zM738.4 337.6l17.2-20.8c10.8 10 25.2 16.8 38.4 16.8 15.6 0 24-6.8 24-17.2 0-11.2-9.2-14.8-22.4-20.4l-20-8.4c-15.2-6.4-30.4-18.4-30.4-40.4 0-24.8 21.6-43.6 52-43.6 17.6 0 34.8 6.8 47.2 19.2l-15.2 18.8c-9.6-8-19.6-12.4-32-12.4-13.2 0-21.6 6-21.6 16 0 10.8 10.8 14.8 23.6 19.6l19.6 8.4c18.4 7.6 30.4 19.2 30.4 40.8 0 24.8-20.4 45.6-55.2 45.6-20.8 0-41.2-8-55.6-22z"  /><path fill="#e2edf2" d="M252.8 734.8c52-0.4 107.2 45.2 166 137.2 24.8 38.8 17.6 89.6-17.2 120l-14.4 12.4c-25.6 22-62.8 24-90.8 4.8l-3.6-2.4c-26.4-18.4-61.2-18.4-87.6 0l-5.2 3.6c-28.8 20-67.6 17.6-93.2-6.4l-10-9.2c-32.4-30-38.8-79.2-14.8-116.4 61.2-95.6 118-143.2 170.8-143.6z m-145.2 160c-16 24.8-11.6 57.2 10 77.2l10 9.2c15.2 14 38 15.6 54.8 3.6l5.2-3.6c36.8-25.6 86-26 122.8 0l3.6 2.4c16.4 11.2 38.4 10 53.2-2.8l14.4-12.4c23.2-20 28-54.4 11.6-80.4-53.6-83.6-101.6-123.2-140-122.8-39.6 0.4-89.6 42-145.6 129.6z m222.4-164.4c-49.6-8.8-60.4-52-48.8-96.4 11.6-44.4 43.6-80 78.8-74 35.2 6.4 54 42 48.8 96.4-5.6 54.4-29.2 82.8-78.8 74z m5.2-30c28 4.8 39.2-6 43.2-46.8 4-39.6-6.8-60.4-23.6-63.2-14.4-2.4-35.2 18-44 51.6-9.2 34.4-0.8 54 24.4 58.4z m-151.2 28c-50 7.2-75.6-28-75.6-73.6 0-46 17.2-86.8 52.4-91.6 35.6-4.8 63.6 29.2 76 73.6 12 44.8-2.8 84.8-52.8 91.6z m-4.4-30c26.8-3.6 36-21.6 27.2-53.2-9.6-35.2-27.6-53.6-42-51.6-14.4 2-26 24.8-26 61.6 0 32 14 46.8 40.8 43.2z m253.2 118c-35.6-21.2-38.4-56.8-19.2-82.4 19.2-25.6 52.4-40.8 80-27.6 27.6 13.2 34.4 54 19.2 82.4-14.8 28.4-44.4 48.4-80 27.6z m16-26.4c15.2 8.8 27.2 3.6 37.6-15.6 8.4-15.6 4-36-5.6-40.4-11.2-5.2-29.6 1.6-42.4 18.4-10 12.8-7.2 27.2 10.4 37.6z m-345.6 24.8c-26.4 26.4-64 21.6-84.4-4.4-20.8-26-24-65.2-4.4-84.4 19.6-19.2 56.4-21.2 84.4 4.4 28 25.6 30.8 58 4.4 84.4z m-22-21.6c13.2-13.2 12.4-25.6-3.6-40.4-14.8-13.6-33.2-14-42.4-5.2-6.8 6.8-5.2 28.4 6.8 43.6 10.8 13.2 27.2 14.4 39.2 2z m0 0"  /></svg>