<?xml version="1.0" standalone="no"?><!DOCTYPE svg PUBLIC "-//W3C//DTD SVG 1.1//EN" "http://www.w3.org/Graphics/SVG/1.1/DTD/svg11.dtd"><svg class="icon" width="64px" height="64.00px" viewBox="0 0 1024 1024" version="1.1" xmlns="http://www.w3.org/2000/svg"><path fill="#e2edf2" d="M80.772117 217.371726c16.262382-3.747347 33.132608-1.77339 49.698912-2.176572 263.23631 0.049119 526.520715 0.150426 789.804096-0.052189 9.474792 0.657986 21.174252-0.555655 28.219715 7.246031 7.747451 9.117658 6.990205 22.087041 7.549954 33.283034-0.257873 172.449607 0 344.848049-0.153496 517.249561 1.014096 14.285355-4.002151 32.219819-20.823258 33.790594-281.931091 0.203638-564.108798-0.405229-846.089008 0.304945-12.56313-0.506537-23.153326-10.892071-22.49227-23.760146 0.150426-84.552721 1.469468-169.258938-0.961908-253.81166 0.099261-93.013417 0-186.02888 0.049119-279.041274 0.354064-12.057617 1.77339-28.522614 15.198144-33.032324z m56.53869 34.552957a165094.308363 165094.308363 0 0 1 333.803505 346.975503c10.438747 11.044544 22.342868 23.303752 38.856983 23.000853 18.186198 1.063215 30.900777-12.969383 42.300409-24.924669 110.543675-115.103528 221.136469-230.153844 331.931878-345.002568-248.945839 0-497.946936 0.049119-746.892775-0.049119z m-34.905997 15.803941c-0.101307 147.980309-0.202615 295.961642 0.049118 443.943998-0.50449 11.195993 1.521656 23.301705-4.051269 33.587979 4.965082 0.251733 8.662287-3.092431 11.905144-6.486738 73.812099-77.510328 148.589177-154.159032 222.350111-231.721548a48910.486434 48910.486434 0 0 1-230.253104-239.323691z m586.452689 239.323691c76.496232 80.044034 153.447834 159.732981 230.251057 239.523235 0.152473-159.581532 0.152473-319.213205 0-478.795761-76.546374 79.942727-153.145959 159.8875-230.251057 239.272526zM130.774951 769.831206c253.403361 0.252757 506.86198 0.354064 760.27148-0.101307C815.00557 691.205475 739.821217 611.81738 663.269727 533.698185c-30.495548 32.523741-61.802578 64.289212-92.504834 96.662526-14.536065 15.603373-33.889855 28.0171-55.876611 28.471449-23.713075 1.77339-46.559409-9.320273-62.316278-26.64894-31.357172-32.877805-63.222927-65.351404-94.2772-98.534154-76.347852 78.220502-151.884222 157.252487-227.519853 236.18214z"  /></svg>