<?xml version="1.0" encoding="utf-8"?>
<!-- Generator: Adobe Illustrator 23.0.1, SVG Export Plug-In . SVG Version: 6.00 Build 0)  -->
<svg version="1.0" id="图层_1" xmlns="http://www.w3.org/2000/svg" xmlns:xlink="http://www.w3.org/1999/xlink" x="0px" y="0px"
	 viewBox="0 0 59.64 59.08" style="enable-background:new 0 0 59.64 59.08;" xml:space="preserve">
<style type="text/css">
	.st0{fill:#ffffff;}
</style>
<g>
	<g>
		<polygon class="st0" points="32.91,30.13 26.33,41.53 31.24,41.53"/>
		<polygon class="st0" points="28.48,51.49 35.07,40.09 30.15,40.09"/>
	</g>
	<path class="st0" d="M45.96,59.05H13.42c-7.44,0-13.5-6.06-13.5-13.5v-32c0-7.44,6.06-13.5,13.5-13.5h32.53c7.44,0,13.5,6.06,13.5,13.5v32
		C59.46,52.99,53.4,59.05,45.96,59.05z M13.42,3.05c-5.79,0-10.5,4.71-10.5,10.5v32c0,5.79,4.71,10.5,10.5,10.5h32.53
		c5.79,0,10.5-4.71,10.5-10.5v-32c0-5.79-4.71-10.5-10.5-10.5H13.42z"/>
	<path class="st0" d="M42.69,27.29h-26c-3.31,0-6-2.69-6-6v-5c0-3.31,2.69-6,6-6h26c3.31,0,6,2.69,6,6v5C48.69,24.6,46,27.29,42.69,27.29z
		 M16.69,12.29c-2.21,0-4,1.79-4,4v5c0,2.21,1.79,4,4,4h26c2.21,0,4-1.79,4-4v-5c0-2.21-1.79-4-4-4H16.69z"/>
</g>
</svg>
