<?xml version="1.0" encoding="utf-8"?>
<!-- Generator: Adobe Illustrator 22.1.0, SVG Export Plug-In . SVG Version: 6.00 Build 0)  -->
<svg version="1.0" id="图层_1" xmlns="http://www.w3.org/2000/svg" xmlns:xlink="http://www.w3.org/1999/xlink" x="0px" y="0px"
	 viewBox="0 0 57 57" style="enable-background:new 0 0 57 57;" xml:space="preserve">
<g>
	
		<rect x="39.2" y="6.8" transform="matrix(0.7071 0.7071 -0.7071 0.7071 20.1359 -31.9204)" style="fill:#4AC0FF;" width="18.7" height="3"/>

		<rect x="31.3" y="14.8" transform="matrix(0.7071 0.7071 -0.7071 0.7071 23.4523 -23.9333)" style="fill:#4AC0FF;" width="18.7" height="3"/>

		<rect x="2.2" y="43.9" transform="matrix(0.7071 0.7071 -0.7071 0.7071 35.4773 5.0976)" style="fill:#4AC0FF;" width="18.7" height="3"/>
	<polygon style="fill:#4AC0FF;" points="3.8,55.7 5.8,41.8 3.1,40.6 0.8,56.1 	"/>
	<polygon style="fill:#4AC0FF;" points="1.2,53.3 15.1,51.1 16.3,53.9 0.8,56.1 	"/>

		<rect x="7" y="31.3" transform="matrix(0.7071 -0.7071 0.7071 0.7071 -12.8931 34.5382)" style="fill:#4AC0FF;" width="56.5" height="3"/>

		<rect x="-4.1" y="20.2" transform="matrix(0.7071 -0.7071 0.7071 0.7071 -8.2822 23.4064)" style="fill:#4AC0FF;" width="56.5" height="3"/>
</g>
</svg>
