<?xml version="1.0" encoding="utf-8"?>
<!-- Generator: Adobe Illustrator 23.0.1, SVG Export Plug-In . SVG Version: 6.00 Build 0)  -->
<svg version="1.0" id="图层_1" xmlns="http://www.w3.org/2000/svg" xmlns:xlink="http://www.w3.org/1999/xlink" x="0px" y="0px"
	 viewBox="0 0 60 60" style="enable-background:new 0 0 60 60;" xml:space="preserve">
<style type="text/css">
	.st0{fill: #ffffff;}
</style>
<g>
	<path class="st0" d="M58,14.8h-7.1c-1.1,0-2,0.9-2,2s0.9,2,2,2h5.1v36.1H3.9V18.8H9c1.1,0,2-0.9,2-2s-0.9-2-2-2H2c-1.1,0-2,0.9-2,2
		v40c0,1.1,0.9,2,2,2H58c1.1,0,2-0.9,2-2v-40C60,15.7,59.1,14.8,58,14.8z"/>
	<path class="st0" d="M28.6,44.3C28.6,44.3,28.6,44.3,28.6,44.3C28.6,44.3,28.6,44.4,28.6,44.3c0.1,0.1,0.1,0.1,0.1,0.1
		c0,0,0.1,0.1,0.1,0.1c0,0,0.1,0.1,0.1,0.1c0,0,0,0,0,0c0.1,0,0.1,0.1,0.2,0.1c0,0,0,0,0,0c0,0,0.1,0,0.1,0.1c0,0,0,0,0,0
		c0.1,0,0.1,0,0.2,0.1c0,0,0.1,0,0.1,0c0,0,0,0,0,0c0.1,0,0.3,0,0.4,0c0.1,0,0.3,0,0.4,0c0,0,0,0,0,0c0,0,0.1,0,0.1,0
		c0.1,0,0.1,0,0.2-0.1c0,0,0,0,0,0c0,0,0.1,0,0.1-0.1c0,0,0,0,0,0c0.1,0,0.1-0.1,0.2-0.1c0,0,0,0,0,0c0,0,0.1-0.1,0.1-0.1
		c0,0,0.1-0.1,0.1-0.1c0,0,0,0,0,0c0,0,0,0,0,0c0,0,0,0,0,0l13.3-14.4c0.7-0.8,0.7-2-0.1-2.8c-0.8-0.7-2-0.7-2.8,0.1L32,38V3.5
		c0-1.1-0.9-2-2-2s-2,0.9-2,2V38l-9.9-10.7c-0.7-0.8-2-0.8-2.8-0.1c-0.8,0.7-0.8,2-0.1,2.8L28.6,44.3z"/>
</g>
</svg>
