<?xml version="1.0" encoding="utf-8"?>
<!-- Generator: Adobe Illustrator 23.0.3, SVG Export Plug-In . SVG Version: 6.00 Build 0)  -->
<svg version="1.0" id="图层_1" xmlns="http://www.w3.org/2000/svg" xmlns:xlink="http://www.w3.org/1999/xlink" x="0px" y="0px"
	 viewBox="0 0 210.1 59.8" style="enable-background:new 0 0 210.1 59.8;" xml:space="preserve">
<path style="fill:#005BAC;" d="M4,19.2c0,0,4.6-11.1,18.4-17S49.7,4,49.7,4s6.2,3.3,10.9,8.5c0,0,0.6,0.6,0.4,0.8s-1.5-0.5-1.5-0.5
	S45.1,3,36.6,4c0,0-0.3,0.3,1,0.6S55.5,10.2,64.7,20c0,0,0.3,0.3,0,0.6s-2.6-1.1-2.6-1.1s-10.2-7-15.2-8.4s-7.8-3.7-19-3.7
	c0,0-0.4,0.2,5.6,1.8S62,21.1,67.5,27c0,0,0.5,0.6,0.2,0.9s-0.9,0.3-2.2-0.7s-14.9-9.8-21.4-11.3c0,0-8.8-4.2-23.8-4.4
	c0,0,0.1,0,7.7,1.9S55.7,23,65.2,30.7c0,0,2.2,1.9,2.6,2.5c0,0,0.4,0.3,0.1,0.6c0,0-0.5,0.3-1.3-0.4s-13.9-9.5-24.8-12.2
	c0,0-11.8-4.3-27.6-4.2l20.6,5.4c0,0,19.6,6.2,31.4,13.5c0,0,2.4,1.6,1.8,2.3c0,0-0.1,0.5-2.5-0.9c0,0-25.5-12.5-39.3-13.6L8.6,23.2
	C8.6,23.2,2.5,22.9,4,19.2z"/>
<path style="fill:#8EC21F;" d="M64.1,40.6c0,0-4.6,11.1-18.4,17s-27.2-1.8-27.2-1.8s-6.2-3.2-10.9-8.5c0,0-0.6-0.6-0.4-0.8
	S8.7,47,8.7,47s14.3,9.8,22.9,8.8c0,0,0.3-0.3-1-0.6s-18-5.6-27.2-15.4c0,0-0.3-0.3,0-0.6S6,40.3,6,40.3s10.2,7,15.2,8.4
	s7.8,3.7,19,3.8c0,0,0.4-0.2-5.6-1.8s-28.5-12-34-17.9c0,0-0.5-0.6-0.2-0.9c0.3-0.2,0.9-0.3,2.2,0.7c1.4,1,14.9,9.8,21.4,11.3
	c0,0,8.8,4.2,23.8,4.4c0,0-0.1,0-7.7-1.9S12.4,36.9,2.9,29.1c0,0-2.2-1.9-2.6-2.5c0,0-0.4-0.3-0.1-0.6c0,0,0.5-0.3,1.3,0.4
	S15.4,36,26.2,38.7c0,0,11.8,4.3,27.6,4.2l-20.6-5.4c0,0-19.6-6.2-31.4-13.5c0,0-2.4-1.6-1.8-2.3c0,0,0.1-0.5,2.5,0.9
	c0,0,25.5,12.5,39.2,13.6l17.6,0.4C59.5,36.6,65.6,36.9,64.1,40.6z"/>
<text transform="matrix(1 0 0 1 76.4714 46.2439)" style="fill:#005BAC; font-family:'Impact'; font-size:41.73px;">Datcent</text>
</svg>
