<?xml version="1.0" encoding="utf-8"?>
<!-- Generator: Adobe Illustrator 24.1.0, SVG Export Plug-In . SVG Version: 6.00 Build 0)  -->
<svg version="1.1" id="图层_1" xmlns="http://www.w3.org/2000/svg" xmlns:xlink="http://www.w3.org/1999/xlink" x="0px" y="0px"
	 viewBox="0 0 216 192" style="enable-background:new 0 0 216 192;" xml:space="preserve">
<style type="text/css">
	.st0{fill:#FFFFFF;}
</style>
<path class="st0" d="M56.4,48.7l59-46.8c3.9-3.1,9.5-2.5,12.7,1.4c1.3,1.6,2,3.6,2,5.6V183c0,5-4,9-9,9c-2,0-4-0.7-5.6-2l-59-46.9H9
	c-5,0-9-4-9-9c0,0,0,0,0,0V57.8c0-5,4-9,9-9l0,0L56.4,48.7L56.4,48.7z M197.7,96l15.2-15.2c4.2-4.2,4.2-11,0-15.2
	c-4.2-4.2-11-4.2-15.2,0l-15.2,15.2l-15.2-15.2c-4.2-4.2-11-4.2-15.2,0c-4.2,4.2-4.2,11,0,15.2L167.3,96l-15.2,15.4
	c-4,4.2-4,10.8,0,15c4.2,4.2,11,4.2,15.2,0l15.2-15.2l15.2,15.2c4.2,4.2,11,4.2,15.2,0c4.2-4.2,4.2-11,0-15.2L197.7,96L197.7,96z"/>
</svg>
