<?xml version="1.0" encoding="utf-8"?>
<!-- Generator: Adobe Illustrator 24.1.0, SVG Export Plug-In . SVG Version: 6.00 Build 0)  -->
<svg version="1.1" id="图层_1" xmlns="http://www.w3.org/2000/svg" xmlns:xlink="http://www.w3.org/1999/xlink" x="0px" y="0px"
	 viewBox="0 0 250 200" style="enable-background:new 0 0 250 200;" xml:space="preserve">
<style type="text/css">
	.st0{fill:#FFFFFF;}
</style>
<path class="st0" d="M172.5,53.7c-2.4-4.8-8.2-6.8-13.1-4.5c-4.8,2.4-6.8,8.2-4.5,13.1c0.4,0.8,0.9,1.6,1.6,2.3
	c12.4,19.1,12.4,43.7,0,62.9c-3.6,4-3.4,10.1,0.6,13.8c4,3.6,10.1,3.4,13.8-0.6c0.6-0.7,1.1-1.4,1.6-2.3V53.7z M219.5,183.2
	c40.7-51,40.7-123.4,0-174.4c-3-4.4-9.1-5.5-13.5-2.4c-4.4,3-5.5,9.1-2.4,13.5c0.2,0.3,0.5,0.7,0.8,1c34.5,44.2,34.5,106.2,0,150.4
	c-3.6,3.9-3.4,10.1,0.6,13.7c3.9,3.6,10.1,3.4,13.7-0.6C218.9,184,219.2,183.6,219.5,183.2L219.5,183.2z M56.4,48.8l59-46.8
	c3.9-3.1,9.5-2.5,12.7,1.4c1.3,1.6,2,3.6,2,5.6v174.1c0,5-4,9-9,9c-2,0-4-0.7-5.6-2l-59-46.9H9c-5,0-9-4-9-9c0,0,0,0,0,0V57.8
	c0-5,4-9,9-9l0,0L56.4,48.8L56.4,48.8z M171,140.6c18.9-26.8,18.9-62.5,0-89.2V140.6z"/>
</svg>
