<?xml version="1.0" encoding="utf-8"?>
<!-- Generator: Adobe Illustrator 23.0.1, SVG Export Plug-In . SVG Version: 6.00 Build 0)  -->
<svg version="1.0" id="图层_1" xmlns="http://www.w3.org/2000/svg" xmlns:xlink="http://www.w3.org/1999/xlink" x="0px" y="0px"
	 viewBox="0 0 59.6 53.4" style="enable-background:new 0 0 59.6 53.4;" xml:space="preserve">
<style type="text/css">
	.st0{fill:none;stroke:#ED2B4B;stroke-width:2;stroke-linecap:round;stroke-miterlimit:10;}
</style>
<g>
	<g>
		<line class="st0" x1="15.9" y1="4.5" x2="11.9" y2="11.9"/>
		<line class="st0" x1="15.9" y1="4.5" x2="20" y2="11.9"/>
		<path class="st0" d="M11.9,11.9c-2.2,4.8,1.7,7.8,4,7.8"/>
		<path class="st0" d="M15.9,19.7c5,0,5.3-5.6,4-7.8"/>
	</g>
	<g>
		<line class="st0" x1="43.6" y1="7" x2="39.5" y2="14.3"/>
		<line class="st0" x1="43.6" y1="7" x2="47.6" y2="14.3"/>
		<path class="st0" d="M39.5,14.3c-2.2,4.8,1.7,7.8,4,7.8"/>
		<path class="st0" d="M43.6,22.1c5,0,5.3-5.6,4-7.8"/>
	</g>
	<g>
		<line class="st0" x1="29.8" y1="10.6" x2="23.5" y2="22.1"/>
		<line class="st0" x1="29.8" y1="10.6" x2="36.1" y2="22.1"/>
		<path class="st0" d="M23.5,22.1c-3.5,7.6,2.7,12.3,6.4,12.3"/>
		<path class="st0" d="M29.8,34.3c7.9,0,8.4-8.8,6.3-12.3"/>
	</g>
	<line class="st0" x1="7.1" y1="38.6" x2="52.5" y2="38.6"/>
	<line class="st0" x1="7.1" y1="48.9" x2="52.5" y2="48.9"/>
	<line class="st0" x1="9.9" y1="42.9" x2="12.7" y2="42.9"/>
	<line class="st0" x1="15.8" y1="45" x2="18.6" y2="45"/>
	<line class="st0" x1="22" y1="42.9" x2="24.7" y2="42.9"/>
	<line class="st0" x1="27.9" y1="45" x2="30.6" y2="45"/>
	<line class="st0" x1="34" y1="42.9" x2="36.8" y2="42.9"/>
	<line class="st0" x1="39.9" y1="45" x2="42.6" y2="45"/>
	<line class="st0" x1="46.1" y1="42.9" x2="48.8" y2="42.9"/>
</g>
</svg>
