<?xml version="1.0" encoding="utf-8"?>
<!-- Generator: Adobe Illustrator 23.0.1, SVG Export Plug-In . SVG Version: 6.00 Build 0)  -->
<svg version="1.0" id="图层_1" xmlns="http://www.w3.org/2000/svg" xmlns:xlink="http://www.w3.org/1999/xlink" x="0px" y="0px"
	 viewBox="0 0 35.5 36.4" style="enable-background:new 0 0 35.5 36.4;" xml:space="preserve">
<style type="text/css">
	.st0{fill:#1D94FF;}
</style>
<g>
	<path class="st0" d="M23.7,9.3c0.2,0,0.5-0.1,0.6-0.3l1.1-1.1c-0.2,4.4-3.4,6.3-8.5,7.7c0,0,0,0,0,0c-5.1,1.2-8.5,4.5-8.5,8.4
		c0,0.5,0.4,0.9,0.9,0.9s0.9-0.4,0.9-0.9c0-3,2.8-5.6,7.1-6.6c0,0,0,0,0,0c0,0,0,0,0,0c0.3-0.1,0.7-0.2,1-0.3l1.5,2.2
		c0.2,0.3,0.5,0.4,0.8,0.4c0.2,0,0.3,0,0.5-0.1c0.4-0.3,0.5-0.8,0.3-1.3l-1.2-1.9c3.6-1.4,6.7-3.8,7-8.4l1,1
		c0.2,0.2,0.4,0.3,0.6,0.3c0.2,0,0.5-0.1,0.6-0.3c0.4-0.4,0.4-0.9,0-1.3l-2.6-2.6c0,0,0,0,0,0c0,0-0.1-0.1-0.1-0.1
		C26.7,5,26.6,5,26.6,5c0,0-0.1,0-0.2,0c-0.1,0-0.1,0-0.2,0c0,0,0,0-0.1,0c0,0-0.1,0-0.1,0C26,5,26,5,25.9,5c-0.1,0-0.1,0.1-0.2,0.1
		c0,0-0.1,0-0.1,0.1l-2.6,2.6c-0.4,0.4-0.4,0.9,0,1.3C23.2,9.2,23.5,9.3,23.7,9.3z"/>
	<path class="st0" d="M35.2,13.4l-2.6-2.6c0,0,0,0,0,0c0,0-0.1-0.1-0.1-0.1c-0.1,0-0.1-0.1-0.2-0.1c0,0-0.1,0-0.2,0
		c-0.1,0-0.1,0-0.2,0c0,0,0,0-0.1,0c0,0-0.1,0-0.1,0c-0.1,0-0.1,0-0.2,0.1c-0.1,0-0.1,0.1-0.2,0.1c0,0-0.1,0-0.1,0.1l-2.6,2.6
		c-0.4,0.4-0.4,0.9,0,1.3c0.2,0.2,0.4,0.3,0.6,0.3s0.5-0.1,0.6-0.3l1.1-1.1c-0.2,4.4-3.4,6.3-8.5,7.7c0,0,0,0,0,0
		c-5.1,1.2-8.5,4.5-8.5,8.4c0,0.5,0.4,0.9,0.9,0.9c0.5,0,0.9-0.4,0.9-0.9c0-2.5,2-4.8,5.2-6c0,0.4,0.1,0.7,0.1,1.1
		c0,5.3-4.3,9.6-9.6,9.6S2.1,30,2.1,24.8c0-1.4,0.3-2.7,0.8-3.9c0.7-1.1,5.4-9,6.9-11.9c0.6-1.1,1.3-3.2,1.9-4.9
		C12.2,5.8,13,7.9,13.6,9c1.6,3,2.6,4.4,2.6,4.5c0.2,0.2,0.4,0.4,0.7,0.4c0.2,0,0.4-0.1,0.5-0.2c0.4-0.3,0.5-0.9,0.2-1.3
		c0,0-1-1.3-2.5-4.2c-1-2-2.6-7.3-2.6-7.3c0,0,0,0,0,0c0-0.1-0.1-0.2-0.2-0.3c0,0,0,0,0,0c-0.1-0.1-0.1-0.1-0.2-0.2
		c0,0-0.1,0-0.1-0.1c0,0-0.1,0-0.1-0.1c0,0-0.1,0-0.1,0c-0.1,0-0.1,0-0.2,0c-0.1,0-0.1,0-0.2,0c0,0-0.1,0-0.1,0c0,0-0.1,0-0.1,0
		c0,0-0.1,0-0.1,0.1c-0.1,0-0.1,0.1-0.2,0.2c0,0,0,0,0,0c-0.1,0.1-0.1,0.2-0.2,0.3c0,0,0,0,0,0c0,0.1-1.6,5.4-2.6,7.3
		c-1,2-3.9,6.9-5.6,9.7c-0.5,0.7-0.9,1.4-1.3,2.1c0,0,0,0,0,0.1c0,0,0,0,0,0c-0.6,1.4-1,3-1,4.6c0,6.3,5.1,11.4,11.4,11.4
		S23.1,31,23.1,24.8c0-0.6-0.1-1.1-0.1-1.7c0.1,0,0.1,0,0.2,0c0,0,0,0,0,0c0,0,0,0,0,0c4.7-1.4,9.4-3.6,9.8-9.3l1,1
		c0.2,0.2,0.4,0.3,0.6,0.3s0.5-0.1,0.6-0.3C35.5,14.3,35.5,13.8,35.2,13.4z"/>
</g>
</svg>
