<?xml version="1.0" encoding="utf-8"?>
<!-- Generator: Adobe Illustrator 23.0.1, SVG Export Plug-In . SVG Version: 6.00 Build 0)  -->
<svg version="1.0" id="图层_1" xmlns="http://www.w3.org/2000/svg" xmlns:xlink="http://www.w3.org/1999/xlink" x="0px" y="0px"
	 viewBox="0 0 38 38" style="enable-background:new 0 0 38 38;" xml:space="preserve">
<style type="text/css">
	.st0{fill:#e2edf2;}
</style>
<g>
	<path class="st0" d="M33.8,30.5l-4.6-2.2V8.1c0-0.4-0.3-0.7-0.7-0.7s-0.7,0.3-0.7,0.7v0.5L16,3.2V2c0-0.4-0.3-0.7-0.7-0.7
		S14.6,1.6,14.6,2v1.3L8.9,7.1c0,0,0,0,0,0c0,0,0,0-0.1,0c0,0,0,0-0.1,0.1c0,0,0,0.1-0.1,0.1c0,0,0,0,0,0c0,0,0,0,0,0
		c0,0,0,0.1,0,0.1c0,0,0,0.1,0,0.1c0,0,0,0,0,0.1c0,0,0,0,0,0v11.4l-3.7-1.8c-0.4-0.2-0.8,0-0.9,0.3s0,0.8,0.3,0.9l4.3,2.1v5.7
		l-3.2,2.1c-0.3,0.2-0.4,0.6-0.2,1c0.1,0.2,0.4,0.3,0.6,0.3c0.1,0,0.3,0,0.4-0.1l3.2-2.1L21,32.8l-3.9,2.6c-0.3,0.2-0.4,0.6-0.2,1
		c0.1,0.2,0.4,0.3,0.6,0.3c0.1,0,0.3,0,0.4-0.1l10.6-7.1l4.6,2.2c0.1,0,0.2,0.1,0.3,0.1c0.3,0,0.5-0.1,0.6-0.4
		C34.3,31.1,34.1,30.6,33.8,30.5z M15.3,4.5L27,9.8l-4.6,3.1L10.7,7.5L15.3,4.5z M10,8.8l11.8,5.3v17.5L10,26.3V8.8z M23.2,14l4.6-3
		v17.4l-4.6,3.1V14z"/>
	<path class="st0" d="M15.2,21.9l-2.1-1.1l1.6-1.2c0.4-0.3,0.6-0.8,0.6-1.3v-0.2c0-1-0.8-2.2-1.8-2.7c-0.6-0.3-1.2-0.3-1.7,0
		c-0.4,0.3-0.7,0.8-0.7,1.3c0,0.4,0.3,0.7,0.7,0.7s0.7-0.3,0.7-0.7c0-0.1,0-0.1,0-0.1c0,0,0.1,0,0.3,0.1c0.5,0.3,1,1,1,1.5v0.2
		c0,0.1,0,0.2,0,0.2l-2.6,1.9C11.1,20.5,11,20.7,11,21c0,0.2,0.2,0.5,0.4,0.6l3.1,1.6c0.1,0.1,0.2,0.1,0.3,0.1
		c0.3,0,0.5-0.1,0.6-0.4C15.7,22.5,15.5,22.1,15.2,21.9z"/>
	<path class="st0" d="M17.9,17.6L17,17.1c0,0,0,0,0,0c0,0-0.1,0-0.1,0c0,0-0.1,0-0.1,0c0,0,0,0,0,0c0,0-0.1,0-0.1,0
		c-0.1,0-0.1,0-0.1,0c0,0-0.1,0-0.1,0.1c0,0-0.1,0-0.1,0.1c0,0-0.1,0.1-0.1,0.1c0,0,0,0-0.1,0.1c0,0,0,0,0,0c0,0,0,0.1,0,0.1
		c0,0,0,0.1,0,0.1c0,0,0,0,0,0v5.7c0,0,0,0.1,0,0.1c0,0,0,0.1,0,0.1c0,0,0,0.1,0.1,0.1c0,0,0,0.1,0.1,0.1c0,0,0.1,0.1,0.1,0.1
		c0,0,0,0,0.1,0.1l0.9,0.5c0,0,0,0,0,0c0.5,0.3,1.1,0.4,1.6,0.4c0.4,0,0.8-0.1,1.2-0.3c0.7-0.4,1.1-1.2,1.1-2.1
		C21.1,20.6,19.7,18.5,17.9,17.6z M19.3,23.4c-0.3,0.2-0.9,0.1-1.4-0.2c0,0,0,0,0,0L17.4,23v-4.1c1.3,0.7,2.3,2.3,2.3,3.6
		C19.7,22.7,19.6,23.2,19.3,23.4z"/>
</g>
</svg>
