<?xml version="1.0" encoding="utf-8"?>
<!-- Generator: Adobe Illustrator 23.0.1, SVG Export Plug-In . SVG Version: 6.00 Build 0)  -->
<svg version="1.0" id="图层_1" xmlns="http://www.w3.org/2000/svg" xmlns:xlink="http://www.w3.org/1999/xlink" x="0px" y="0px"
	 viewBox="0 0 38 38" style="enable-background:new 0 0 38 38;" xml:space="preserve">
<style type="text/css">
	.st0{fill:#e2edf2;}
</style>
<g>
	<path class="st0" d="M20,33.9l-2.8,1.2V12.3l8-3.4L27.3,8v11.5c0,0.3,0.3,0.6,0.6,0.6s0.6-0.3,0.6-0.6V7.1c0-0.1,0-0.2-0.1-0.3
		c0,0,0,0-0.1-0.1c0,0-0.1-0.1-0.1-0.1c0,0,0,0,0,0c0,0,0,0,0,0L17.8,1.7c-0.8-0.4-1.7-0.4-2.5,0L5,6.6c0,0,0,0,0,0c0,0,0,0,0,0
		c-0.1,0-0.1,0.1-0.1,0.1c0,0,0,0-0.1,0.1C4.7,6.9,4.6,7,4.6,7.1v24.1c0,0.2,0.1,0.5,0.4,0.6l11.3,4.8c0.1,0,0.2,0,0.2,0
		s0.2,0,0.2,0l3.7-1.6c0.3-0.1,0.4-0.5,0.3-0.8C20.6,33.9,20.3,33.8,20,33.9z M15.8,2.8c0.5-0.2,1-0.2,1.5,0l9.1,4.3l-9.8,4.2
		L6.7,7.1L15.8,2.8z M5.8,8l10.1,4.3v22.8L5.8,30.8V8z"/>
	<path class="st0" d="M26.4,21.2c-3.9,0-7,3.1-7,7s3.1,7,7,7s7-3.1,7-7S30.2,21.2,26.4,21.2z M26.4,34c-3.2,0-5.8-2.6-5.8-5.8
		s2.6-5.8,5.8-5.8s5.8,2.6,5.8,5.8S29.6,34,26.4,34z"/>
	<path class="st0" d="M26.4,24.8c0.9,0,1.8,0.4,2.4,1c0.2,0.2,0.6,0.2,0.8,0s0.2-0.6,0-0.8c-0.9-0.9-2-1.4-3.3-1.4
		c-2.6,0-4.7,2.1-4.7,4.7c0,1.1,0.4,2.2,1.1,3c0.1,0.1,0.3,0.2,0.5,0.2c0.1,0,0.3,0,0.4-0.1c0.3-0.2,0.3-0.6,0.1-0.8
		c-0.5-0.6-0.8-1.4-0.8-2.2C22.9,26.3,24.5,24.8,26.4,24.8z"/>
	<path class="st0" d="M31.3,25.8c-0.1-0.3-0.5-0.4-0.8-0.3l-4.4,2.1c-0.3,0.1-0.4,0.5-0.3,0.8c0.1,0.2,0.3,0.3,0.5,0.3
		c0.1,0,0.2,0,0.3-0.1l3.4-1.6c-0.2,0.1-0.3,0.4-0.3,0.6c0,0.2,0,0.3,0,0.5c0,0.8-0.3,1.5-0.7,2.1c-0.2,0.3-0.2,0.6,0.1,0.8
		c0.1,0.1,0.2,0.1,0.4,0.1c0.2,0,0.4-0.1,0.5-0.2c0.6-0.8,1-1.8,1-2.9c0-0.2,0-0.5,0-0.7c0-0.3-0.4-0.5-0.7-0.5
		c-0.1,0-0.1,0-0.2,0.1l1-0.5C31.4,26.5,31.5,26.1,31.3,25.8z"/>
</g>
</svg>
