<?xml version="1.0" encoding="utf-8"?>
<!-- Generator: Adobe Illustrator 23.0.1, SVG Export Plug-In . SVG Version: 6.00 Build 0)  -->
<svg version="1.0" id="图层_1" xmlns="http://www.w3.org/2000/svg" xmlns:xlink="http://www.w3.org/1999/xlink" x="0px" y="0px"
	 viewBox="0 0 38 38" style="enable-background:new 0 0 38 38;" xml:space="preserve">
<style type="text/css">
	.st0{fill:#e2edf2;}
</style>
<g>
	<path class="st0" d="M21.2,28l9.8-5.9c0,0,0,0,0,0c0,0,0.1,0,0.1-0.1c0,0,0,0,0.1-0.1c0,0,0,0,0,0c0,0,0,0,0,0c0,0,0-0.1,0-0.1c0,0,0,0,0-0.1
		c0,0,0,0,0,0c0,0,0,0,0,0c0,0,0-0.1,0-0.1c0,0,0-0.1,0-0.1V5.7c0,0,0,0,0-0.1c0,0,0,0,0-0.1c0,0,0-0.1,0-0.1c0,0,0-0.1,0-0.1
		c0,0,0,0,0-0.1c0,0,0,0,0,0c0,0,0,0,0,0c0,0,0-0.1-0.1-0.1c0,0,0,0-0.1,0c0,0,0,0-0.1,0c0,0-0.1,0-0.1,0c0,0,0,0,0,0L15.9,1.3
		c0,0,0,0,0,0c0,0-0.1,0-0.1,0c0,0,0,0-0.1,0c0,0,0,0-0.1,0c0,0,0,0-0.1,0c0,0-0.1,0-0.1,0c0,0-0.1,0-0.1,0c0,0,0,0-0.1,0
		c0,0,0,0,0,0L6.3,7.5c0,0,0,0,0,0c0,0-0.1,0-0.1,0.1c0,0,0,0,0,0.1c0,0,0,0.1-0.1,0.1c0,0,0,0.1,0,0.1c0,0,0,0,0,0c0,0,0,0,0,0
		C6,8,6,8,6,8.1c0,0,0,0,0,0.1v15.7c0,0,0,0,0,0.1c0,0,0,0.1,0,0.1C6,24,6,24,6,24c0,0,0,0.1,0,0.1c0,0,0,0.1,0,0.1c0,0,0,0,0,0
		c0,0,0,0,0,0c0,0,0,0,0.1,0.1c0,0,0.1,0,0.1,0.1h0c0,0,0,0,0.1,0c0,0,0,0,0.1,0c0,0,0,0,0,0L20.6,28c0.1,0,0.1,0,0.2,0c0,0,0,0,0,0
		c0,0,0,0,0,0c0,0,0,0,0,0c0.1,0,0.2,0,0.2-0.1C21.1,28,21.1,28,21.2,28C21.1,28,21.2,28,21.2,28z M15.8,4.2c0.4,0,0.7-0.3,0.7-0.7
		V2.9L28.9,6l-8.3,5.7l-4.2-1.3c-0.1-0.3-0.3-0.6-0.7-0.6c-0.2,0-0.4,0.1-0.5,0.2l-7-2.1l6.8-4.6v0.2C15.1,3.9,15.4,4.2,15.8,4.2z
		 M22.2,18l-0.7-0.2v-5L29.9,7v13.5l-0.5-0.2c-0.4-0.1-0.8,0.1-0.9,0.5c-0.1,0.4,0.1,0.7,0.4,0.9l-7.4,4.5v-6.9l0.3,0.1
		c0.1,0,0.1,0,0.2,0c0.3,0,0.6-0.2,0.7-0.5C22.8,18.5,22.6,18.1,22.2,18z M8.4,22.4c-0.2-0.3-0.7-0.4-1-0.1l-0.1,0V9.1l7.7,2.4v1.4
		c0,0.4,0.3,0.7,0.7,0.7s0.7-0.3,0.7-0.7v-1l3.6,1.1v4.4l-0.3-0.1c-0.4-0.1-0.8,0.1-0.9,0.5s0.1,0.8,0.5,0.9l0.7,0.2v7.6l-11.9-3
		l0.1,0C8.6,23.2,8.6,22.7,8.4,22.4z"/>
	<path class="st0" d="M15.1,8.2c0,0.4,0.3,0.7,0.7,0.7s0.7-0.3,0.7-0.7V5.8c0-0.4-0.3-0.7-0.7-0.7s-0.7,0.3-0.7,0.7V8.2z"/>
	<path class="st0" d="M10.1,21.8c0.2,0,0.3,0,0.4-0.1l2.2-1.8c0.3-0.2,0.4-0.7,0.1-1c-0.2-0.3-0.7-0.4-1-0.1l-2.2,1.8c-0.3,0.2-0.4,0.7-0.1,1
		C9.7,21.7,9.9,21.8,10.1,21.8z"/>
	<path class="st0" d="M14.6,18.3c0.2,0,0.3,0,0.4-0.1l0.9-0.7l1.1,0.3c0.1,0,0.1,0,0.2,0c0.3,0,0.6-0.2,0.7-0.5c0.1-0.4-0.1-0.8-0.5-0.9
		l-0.9-0.3v-1c0-0.4-0.3-0.7-0.7-0.7s-0.7,0.3-0.7,0.7v1.2L14.2,17c-0.3,0.2-0.4,0.7-0.1,1C14.2,18.2,14.4,18.3,14.6,18.3z"/>
	<path class="st0" d="M24.2,20.1l2.4,0.8c0.1,0,0.1,0,0.2,0c0.3,0,0.6-0.2,0.7-0.5c0.1-0.4-0.1-0.8-0.5-0.9l-2.4-0.8c-0.4-0.1-0.8,0.1-0.9,0.5
		S23.8,20,24.2,20.1z"/>
	<path class="st0" d="M33.8,16.4c-0.3-0.3-0.7-0.3-1,0s-0.3,0.7,0,1c1.6,1.6,2.5,3.5,2.5,5.4c0,4.9-5.5,9.2-13.1,10.1c-0.4,0-0.7,0.4-0.6,0.8
		c0,0.4,0.3,0.6,0.7,0.6c0,0,0.1,0,0.1,0c8.3-1,14.4-5.9,14.4-11.5C36.7,20.5,35.7,18.3,33.8,16.4z"/>
	<path class="st0" d="M19,33.8c0,0,0-0.1,0-0.1c0,0,0-0.1,0-0.1c0,0,0-0.1,0-0.1c0,0,0-0.1-0.1-0.1c0,0,0,0,0-0.1l-1.7-2.2
		c-0.2-0.3-0.7-0.4-1-0.1c-0.3,0.2-0.4,0.7-0.1,1l0.8,1c-0.3,0-0.6-0.1-0.9-0.1C8.2,32,2.7,27.7,2.7,22.8c0-1.8,0.7-3.5,2.1-5
		C5,17.5,5,17,4.7,16.8c-0.3-0.3-0.7-0.2-1,0.1c-1.6,1.8-2.4,3.8-2.4,5.9c0,5.6,6,10.5,14.4,11.5c0.4,0,0.8,0.1,1.2,0.1L16,35.6
		c-0.2,0.3-0.2,0.7,0.1,1c0.1,0.1,0.3,0.2,0.4,0.2c0.2,0,0.4-0.1,0.6-0.3l1.7-2.2c0,0,0,0,0,0c0,0,0,0,0-0.1c0,0,0-0.1,0-0.1
		c0,0,0-0.1,0-0.1C18.9,33.9,19,33.9,19,33.8C19,33.8,19,33.8,19,33.8C19,33.8,19,33.8,19,33.8z"/>
</g>
</svg>
