<?xml version="1.0" encoding="utf-8"?>
<!-- Generator: Adobe Illustrator 23.0.1, SVG Export Plug-In . SVG Version: 6.00 Build 0)  -->
<svg version="1.0" id="图层_1" xmlns="http://www.w3.org/2000/svg" xmlns:xlink="http://www.w3.org/1999/xlink" x="0px" y="0px"
	 viewBox="0 0 38 38" style="enable-background:new 0 0 38 38;" xml:space="preserve">
<style type="text/css">
	.st0{fill:#e2edf2;}
</style>
<g>
	<path class="st0" d="M18.3,13.5v0.8h-0.4c-0.9,0-1.6,0.7-1.6,1.6v1c0,1.2,1.2,2.1,2.7,2.1c0.8,0,1.3,0.4,1.3,0.7v1.8c0,0.1-0.1,0.2-0.2,0.2
		h-2.3c-0.1,0-0.2-0.1-0.2-0.2v-1.1c0-0.4-0.3-0.7-0.7-0.7s-0.7,0.3-0.7,0.7v1.1c0,0.9,0.7,1.6,1.6,1.6h0.4v0.8
		c0,0.4,0.3,0.7,0.7,0.7s0.7-0.3,0.7-0.7V23h0.4c0.9,0,1.6-0.7,1.6-1.6v-1.8c0-1.2-1.2-2.1-2.7-2.1c-0.8,0-1.3-0.4-1.3-0.7v-1
		c0-0.1,0.1-0.2,0.2-0.2h2.3c0.1,0,0.2,0.1,0.2,0.2v1.1c0,0.4,0.3,0.7,0.7,0.7s0.7-0.3,0.7-0.7v-1.1c0-0.9-0.7-1.6-1.6-1.6h-0.4
		v-0.8c0-0.4-0.3-0.7-0.7-0.7S18.3,13.1,18.3,13.5z"/>
	<path class="st0" d="M9.1,19c0,5.5,4.4,9.9,9.9,9.9c5.5,0,9.9-4.4,9.9-9.9c0-5.5-4.4-9.9-9.9-9.9C13.5,9.1,9.1,13.5,9.1,19z M27.5,19
		c0,4.7-3.8,8.5-8.5,8.5s-8.5-3.8-8.5-8.5s3.8-8.5,8.5-8.5S27.5,14.3,27.5,19z"/>
	<path class="st0" d="M21.4,5.2h12c0.4,0,0.7-0.3,0.7-0.7s-0.3-0.7-0.7-0.7h-12c-0.4,0-0.7,0.3-0.7,0.7S21.1,5.2,21.4,5.2z"/>
	<path class="st0" d="M16.6,32.8h-12c-0.4,0-0.7,0.3-0.7,0.7s0.3,0.7,0.7,0.7h12c0.4,0,0.7-0.3,0.7-0.7S16.9,32.8,16.6,32.8z"/>
	<path class="st0" d="M4.5,19.8c0.2,0,0.4-0.1,0.5-0.2L7.6,17c0.3-0.3,0.3-0.7,0-1s-0.7-0.3-1,0l-1.2,1.2c0.9-6.8,6.6-12,13.6-12
		c0.4,0,0.7-0.3,0.7-0.7S19.4,3.8,19,3.8c-7.8,0-14.3,6-15.1,13.6L2.5,16c-0.3-0.3-0.7-0.3-1,0s-0.3,0.7,0,1L4,19.6
		C4.2,19.7,4.4,19.8,4.5,19.8z"/>
	<path class="st0" d="M36.5,21L34,18.5c-0.1-0.1-0.1-0.1-0.2-0.2c0,0-0.1,0-0.1,0c0,0-0.1,0-0.1,0c0,0-0.1,0-0.1,0c-0.1,0-0.1,0-0.2,0
		c-0.1,0-0.2,0.1-0.2,0.2L30.4,21c-0.3,0.3-0.3,0.7,0,1c0.1,0.1,0.3,0.2,0.5,0.2s0.4-0.1,0.5-0.2l1.2-1.2c-0.9,6.7-6.7,12-13.6,12
		c-0.4,0-0.7,0.3-0.7,0.7s0.3,0.7,0.7,0.7c7.8,0,14.3-6,15.1-13.6l1.4,1.4c0.1,0.1,0.3,0.2,0.5,0.2c0.2,0,0.4-0.1,0.5-0.2
		C36.8,21.7,36.8,21.3,36.5,21z"/>
</g>
</svg>
