<?xml version="1.0" encoding="utf-8"?>
<!-- Generator: Adobe Illustrator 23.0.1, SVG Export Plug-In . SVG Version: 6.00 Build 0)  -->
<svg version="1.0" id="图层_1" xmlns="http://www.w3.org/2000/svg" xmlns:xlink="http://www.w3.org/1999/xlink" x="0px" y="0px"
	 viewBox="0 0 38 38" style="enable-background:new 0 0 38 38;" xml:space="preserve">
<style type="text/css">
	.st0{fill:#e2edf2;}
</style>
<g>
	<path class="st0" d="M28.6,8.1c-3.9,0-7,3.1-7,7c0,3.9,3.1,7,7,7c3.9,0,7-3.1,7-7C35.6,11.2,32.5,8.1,28.6,8.1z M28.6,20.9
		c-3.2,0-5.8-2.6-5.8-5.8s2.6-5.8,5.8-5.8s5.8,2.6,5.8,5.8S31.8,20.9,28.6,20.9z"/>
	<path class="st0" d="M32.7,14.5c-0.3,0-0.6,0.3-0.6,0.6c0,0.8-0.3,1.5-0.7,2.1c-0.2,0.3-0.2,0.6,0.1,0.8c0.1,0.1,0.2,0.1,0.4,0.1
		c0.2,0,0.4-0.1,0.5-0.2c0.6-0.8,1-1.8,1-2.9C33.3,14.7,33,14.5,32.7,14.5z"/>
	<path class="st0" d="M28.6,11.6c0.7,0,1.3,0.2,1.9,0.6c0.3,0.2,0.6,0.1,0.8-0.2c0.2-0.3,0.1-0.6-0.2-0.8c-0.8-0.5-1.6-0.8-2.6-0.8
		c-2.6,0-4.7,2.1-4.7,4.7c0,1.1,0.4,2.2,1.1,3c0.1,0.1,0.3,0.2,0.5,0.2c0.1,0,0.3,0,0.4-0.1c0.3-0.2,0.3-0.6,0.1-0.8
		c-0.5-0.6-0.8-1.4-0.8-2.2C25.2,13.2,26.7,11.6,28.6,11.6z"/>
	<path class="st0" d="M33.6,12.7c-0.1-0.3-0.5-0.4-0.8-0.3l-4.4,2.1c-0.3,0.1-0.4,0.5-0.3,0.8c0.1,0.2,0.3,0.3,0.5,0.3
		c0.1,0,0.2,0,0.3-0.1l4.4-2.1C33.7,13.3,33.8,13,33.6,12.7z"/>
	<path class="st0" d="M29.5,23.4c-0.3,0-0.6,0.3-0.5,0.7c0.3,2.2,0.1,4.3-0.5,6.1c-1,2.7-2.9,4.5-5.6,5.2h-6.5c0,0,0,0-0.1,0
		c0,0,0,0-0.1,0H9.8c-2.7-0.7-4.6-2.5-5.6-5.2c-0.9-2.6-0.9-5.8,0.1-9c0.3-0.9,0.6-1.8,1.1-2.7c2.1-3.9,5.7-7.3,7.4-8.7h3.5
		c0,0,0,0,0.1,0c0,0,0,0,0.1,0h3.5c0.3,0.3,0.8,0.7,1.3,1.2c0.1,0.1,0.3,0.2,0.4,0.2c0.2,0,0.3-0.1,0.4-0.2c0.2-0.2,0.2-0.6,0-0.8
		c-0.4-0.4-0.8-0.8-1.1-1l2.5-4.6c0,0,0,0,0,0c0,0,0-0.1,0-0.1c0,0,0,0,0-0.1c0,0,0-0.1,0-0.1c0,0,0-0.1,0-0.1c0,0,0,0,0-0.1
		c0,0,0-0.1-0.1-0.1c0,0,0,0,0,0c-1.4-1.7-2.5-1.2-3.3-0.9c-0.4,0.2-0.7,0.3-1.1,0.3C18.2,3,17.5,2.3,17,1.9c0,0,0,0-0.1-0.1
		c0-0.1-0.1-0.1-0.1-0.2c-0.1-0.2-0.3-0.2-0.5-0.2c-0.2,0-0.4,0-0.5,0.2c-0.1,0.1-0.1,0.1-0.1,0.2c0,0,0,0-0.1,0.1
		c-0.5,0.5-1.2,1.1-1.9,1.2c-0.4,0-0.7-0.1-1.1-0.3c-0.8-0.4-1.9-0.9-3.3,0.9c0,0,0,0,0,0c0,0-0.1,0.1-0.1,0.2c0,0,0,0,0,0.1
		c0,0,0,0.1,0,0.1c0,0,0,0.1,0,0.1c0,0,0,0,0,0.1c0,0.1,0,0.1,0,0.2c0,0,0,0,0,0L11.8,9c-2.1,1.8-5.4,5-7.5,8.9c-0.5,1-0.9,2-1.2,3
		c-1,3.5-1,7,0,9.7c1.1,3.1,3.3,5.2,6.5,6c0.1,0,0.1,0,0.1,0c0,0,0,0,0,0h6.6c0,0,0,0,0.1,0c0,0,0,0,0.1,0H23c0,0,0,0,0,0
		c0,0,0.1,0,0.1,0c3.1-0.8,5.4-2.9,6.5-6c0.7-1.9,0.9-4.2,0.6-6.6C30.2,23.6,29.9,23.4,29.5,23.4z M12.2,3.9c0.4,0.2,1,0.5,1.7,0.4
		c1-0.1,1.9-0.8,2.5-1.4c0.6,0.6,1.4,1.3,2.5,1.4c0.7,0.1,1.3-0.2,1.7-0.4c0.6-0.3,1-0.4,1.7,0.2l-2.4,4.4h-3.4c0,0,0,0-0.1,0
		c0,0,0,0-0.1,0h-3.4l-2.4-4.4C11.2,3.4,11.6,3.6,12.2,3.9z"/>
	<path class="st0" d="M19.4,20.4c0.3,0,0.6-0.3,0.6-0.6v-1.6c0-1-0.9-1.9-1.9-1.9H17v-1.6c0-0.3-0.3-0.6-0.6-0.6s-0.6,0.3-0.6,0.6
		v1.6h-1.1c-1,0-1.9,0.9-1.9,1.9v1.6c0,1.5,1.6,2.7,3.6,2.7c1.3,0,2.4,0.7,2.4,1.5v2.6c0,0.4-0.3,0.7-0.7,0.7h-3.4
		c-0.4,0-0.7-0.3-0.7-0.7v-1.6c0-0.3-0.3-0.6-0.6-0.6s-0.6,0.3-0.6,0.6v1.6c0,1,0.9,1.9,1.9,1.9h1.1v1.6c0,0.3,0.3,0.6,0.6,0.6
		s0.6-0.3,0.6-0.6v-1.6h1.1c1,0,1.9-0.9,1.9-1.9V24c0-1.5-1.6-2.7-3.6-2.7c-1.3,0-2.4-0.7-2.4-1.5v-1.6c0-0.4,0.3-0.7,0.7-0.7h3.4
		c0.4,0,0.7,0.3,0.7,0.7v1.6C18.8,20.1,19.1,20.4,19.4,20.4z"/>
</g>
</svg>
