


<?xml version="1.0" encoding="utf-8"?>
<!-- Generator: Adobe Illustrator 23.0.1, SVG Export Plug-In . SVG Version: 6.00 Build 0)  -->
<svg version="1.0" id="图层_1" xmlns="http://www.w3.org/2000/svg" xmlns:xlink="http://www.w3.org/1999/xlink" x="0px" y="0px"
	 viewBox="0 0 38 38" style="enable-background:new 0 0 38 38;" xml:space="preserve">
<style type="text/css">
	.st0{fill:#e2edf2;}
</style>
<g>
	<path class="st0" d="M36.2,6.5C36.2,6.5,36.2,6.5,36.2,6.5c0.2-0.5,0.4-1,0.4-1.6c0-2-1.7-3.7-3.7-3.7H9.6c-1.8,0-3.2,1.4-3.2,3.2V7
		c0,0.4,0.3,0.7,0.7,0.7S7.8,7.4,7.8,7V4.5c0-1,0.8-1.8,1.8-1.8h20.5c-0.2,0.4-0.4,0.9-0.4,1.4v29.3c0,1-0.8,1.9-1.9,1.9
		c-0.7,0-1.3-0.4-1.6-0.9V32c0-0.4-0.3-0.7-0.7-0.7H7.8v-1.8c0-0.4-0.3-0.7-0.7-0.7s-0.7,0.3-0.7,0.7v1.8H2.1
		c-0.4,0-0.7,0.3-0.7,0.7v1.5c0,1.8,1.4,3.2,3.2,3.2h23.2c1.8,0,3.3-1.5,3.3-3.3V4.1c0-0.8,0.6-1.4,1.4-1.4h0.3c1.3,0,2.3,1,2.3,2.3
		c0,0.2,0,0.4-0.1,0.6h-1.8c-0.4,0-0.7,0.3-0.7,0.7S32.9,7,33.3,7h2.3c0.1,0,0.2,0,0.3-0.1c0,0,0,0,0.1,0
		C36.1,6.8,36.1,6.7,36.2,6.5C36.2,6.6,36.2,6.6,36.2,6.5C36.2,6.6,36.2,6.6,36.2,6.5z M2.8,33.5v-0.8h22v1.9c0,0,0,0,0,0
		c0,0,0,0.1,0,0.1c0,0,0,0.1,0,0.1c0,0,0,0,0,0c0.1,0.1,0.2,0.3,0.3,0.4H4.6C3.6,35.3,2.8,34.5,2.8,33.5z"/>
	<path class="st0" d="M12.4,28.5c5.5,0,9.9-4.5,9.9-9.9c0-0.4-0.3-0.7-0.7-0.7h-8.5V9.3c0-0.4-0.3-0.7-0.7-0.7c-5.5,0-9.9,4.5-9.9,9.9
		S6.9,28.5,12.4,28.5z M11.7,10v8.5c0,0.4,0.3,0.7,0.7,0.7h8.5c-0.4,4.4-4,7.8-8.5,7.8c-4.7,0-8.5-3.8-8.5-8.5
		C3.9,14.1,7.3,10.4,11.7,10z"/>
	<path class="st0" d="M24.4,16.5c0.4,0,0.7-0.3,0.7-0.7c0-5.7-4.4-10.1-9.9-10.1c-0.4,0-0.7,0.3-0.7,0.7v9.4c0,0.4,0.3,0.7,0.7,0.7H24.4z
		 M23.6,15.1h-7.8v-8C20.1,7.5,23.3,10.8,23.6,15.1z"/>
</g>
</svg>
