<?xml version="1.0" encoding="utf-8"?>
<!-- Generator: Adobe Illustrator 23.0.1, SVG Export Plug-In . SVG Version: 6.00 Build 0)  -->
<svg version="1.0" id="图层_1" xmlns="http://www.w3.org/2000/svg" xmlns:xlink="http://www.w3.org/1999/xlink" x="0px" y="0px"
	 viewBox="0 0 38 38" style="enable-background:new 0 0 38 38;" xml:space="preserve">
<style type="text/css">
	.st0{fill:#e2edf2;}
</style>
<g>
	<path class="st0" d="M36.7,8.6c0-2.9-5.8-4.5-11.2-4.5S14.2,5.7,14.2,8.6v2c0,0.4,0.3,0.7,0.7,0.7c0.3,0,0.6-0.2,0.7-0.5c2,1.5,6,2.3,9.9,2.3
		c3.8,0,7.8-0.8,9.8-2.2v1.3c0,1.3-3.7,3.1-9.8,3.1c-0.9,0-1.8,0-2.7-0.1c-0.4,0-0.7,0.2-0.8,0.6c0,0.4,0.2,0.7,0.6,0.8
		c0.9,0.1,1.9,0.1,2.8,0.1c3.8,0,7.8-0.8,9.8-2.2v1.4c0,1.3-3.7,3.1-9.8,3.1c-0.2,0-0.5,0-0.7,0c-0.4,0-0.7,0.3-0.7,0.7
		c0,0.4,0.3,0.7,0.7,0.7c0.2,0,0.5,0,0.7,0c3.8,0,7.8-0.8,9.8-2.2v1.4c0,1.3-3.7,3.1-9.8,3.1c-0.4,0-0.7,0.3-0.7,0.7
		s0.3,0.7,0.7,0.7c3.8,0,7.8-0.8,9.8-2.2v1.4c0,1.3-3.7,3.1-9.8,3.1c-0.2,0-0.4,0-0.6,0c-0.4,0-0.7,0.3-0.7,0.7
		c0,0.4,0.3,0.7,0.7,0.7c0.2,0,0.4,0,0.6,0c3.8,0,7.8-0.8,9.8-2.2v1.4c0,1.3-3.7,3.1-9.8,3.1c-0.6,0-1.2,0-1.8-0.1
		c-0.4,0-0.7,0.3-0.7,0.7c0,0.4,0.3,0.7,0.7,0.7c0.6,0,1.3,0.1,1.9,0.1c5.4,0,11.2-1.6,11.2-4.5v-3.6c0,0,0,0,0,0c0,0,0,0,0-0.1
		v-3.6c0,0,0,0,0,0c0,0,0,0,0-0.1V16c0,0,0,0,0,0c0,0,0,0,0-0.1v-3.6c0,0,0,0,0,0c0,0,0,0,0-0.1V8.6C36.7,8.6,36.7,8.6,36.7,8.6
		C36.7,8.6,36.7,8.6,36.7,8.6z M25.5,11.7c-6.1,0-9.8-1.8-9.8-3.1s3.7-3.1,9.8-3.1c6.1,0,9.8,1.8,9.8,3.1S31.6,11.7,25.5,11.7z"/>
	<path class="st0" d="M12.2,12.2C6.2,12.2,1.3,17,1.3,23c0,6,4.9,10.9,10.9,10.9S23,29,23,23C23,17,18.2,12.2,12.2,12.2z M12.2,32.5
		c-5.2,0-9.5-4.2-9.5-9.5c0-5.2,4.2-9.5,9.5-9.5s9.5,4.2,9.5,9.5C21.6,28.3,17.4,32.5,12.2,32.5z"/>
	<path class="st0" d="M13.5,18.2h-0.6v-1c0-0.4-0.3-0.7-0.7-0.7s-0.7,0.3-0.7,0.7v1h-0.6c-0.9,0-1.7,0.7-1.7,1.7V21c0,1.3,1.3,2.3,3,2.3
		c0.9,0,1.5,0.5,1.5,0.9v2c0,0.1-0.1,0.3-0.3,0.3h-2.6c-0.1,0-0.3-0.1-0.3-0.3V25c0-0.4-0.3-0.7-0.7-0.7S9.2,24.6,9.2,25v1.2
		c0,0.9,0.7,1.7,1.7,1.7h0.6v1c0,0.4,0.3,0.7,0.7,0.7s0.7-0.3,0.7-0.7v-1h0.6c0.9,0,1.7-0.8,1.7-1.7v-2c0-1.3-1.3-2.3-3-2.3
		c-0.9,0-1.5-0.5-1.5-0.9v-1.2c0-0.1,0.1-0.3,0.3-0.3h2.6c0.1,0,0.3,0.1,0.3,0.3v1.2c0,0.4,0.3,0.7,0.7,0.7s0.7-0.3,0.7-0.7v-1.2
		C15.1,19,14.4,18.2,13.5,18.2z"/>
</g>
</svg>
