<?xml version="1.0" encoding="utf-8"?>
<!-- Generator: Adobe Illustrator 23.0.1, SVG Export Plug-In . SVG Version: 6.00 Build 0)  -->
<svg version="1.0" id="图层_1" xmlns="http://www.w3.org/2000/svg" xmlns:xlink="http://www.w3.org/1999/xlink" x="0px" y="0px"
	 viewBox="0 0 38 38" style="enable-background:new 0 0 38 38;" xml:space="preserve">
<style type="text/css">
	.st0{fill:#e2edf2;}
</style>
<g>
	<path class="st0" d="M7.1,12.7c0.2,0,0.4-0.1,0.5-0.2c2-2.1,7-3.6,12.5-3.6c1.5,0,2.9,0.1,4.2,0.3l-0.8,0.9c-0.3,0.3-0.2,0.7,0,1
		c0.1,0.1,0.3,0.2,0.5,0.2c0.2,0,0.4-0.1,0.5-0.2l5-5.5h5.2c0.4,0,0.7-0.3,0.7-0.7s-0.3-0.7-0.7-0.7h-5.2c-0.4,0-0.8,0.2-1.1,0.5
		l-3,3.3c-1.7-0.3-3.5-0.4-5.3-0.4c-5.9,0-11.2,1.6-13.5,4c-0.3,0.3-0.2,0.7,0,1C6.8,12.7,7,12.7,7.1,12.7z"/>
	<path class="st0" d="M28.6,27.2c-0.4,0.1-0.6,0.5-0.4,0.9c0.1,0.3,0.4,0.5,0.7,0.5c0.1,0,0.2,0,0.2,0c3.7-1.3,5.8-3.2,5.8-5.4v-8.8
		c0-2.3-2.3-4.3-6.3-5.6c-0.4-0.1-0.8,0.1-0.9,0.5c-0.1,0.4,0.1,0.8,0.5,0.9c3.3,1,5.3,2.6,5.3,4.2c0,2.6-5.3,5.3-13.3,5.3
		c-0.8,0-1.6,0-2.4-0.1c-0.4,0-0.7,0.3-0.8,0.6c0,0.4,0.3,0.7,0.6,0.8c0.8,0.1,1.7,0.1,2.5,0.1c6,0,11-1.6,13.3-3.8v5.9
		C33.5,24.6,31.6,26.1,28.6,27.2z"/>
	<path class="st0" d="M15.5,20.1l5.2-5.4c0,0,0-0.1,0.1-0.1c0,0,0.1-0.1,0.1-0.1c0-0.1,0-0.1,0-0.2c0,0,0-0.1,0-0.1c0,0,0,0,0,0
		c0-0.1,0-0.2,0-0.2c0,0,0,0,0,0c0,0,0,0,0,0c0-0.1-0.1-0.1-0.1-0.2c0,0,0,0,0,0c0,0,0,0-0.1,0c0,0-0.1-0.1-0.2-0.1
		c-0.1,0-0.1,0-0.2,0c0,0-0.1,0-0.1,0h-14c-0.4,0-0.7,0.3-0.7,0.7v8.8c0,1.8,1.4,3.4,3.9,4.6L7.2,30H2c-0.4,0-0.7,0.3-0.7,0.7
		s0.3,0.7,0.7,0.7h5.2c0.4,0,0.8-0.2,1.1-0.5l2.7-3c0,0,0,0,0,0l1.4-1.6c0.3-0.3,0.2-0.7-0.1-1c-0.3-0.3-0.7-0.2-1,0.1l-1.1,1.2
		c-2.2-1-3.4-2.2-3.4-3.5v-5.9c1.4,1.4,4,2.5,7.2,3.2v7.4c-0.4-0.1-0.9-0.2-1.3-0.3c-0.4-0.1-0.8,0.1-0.9,0.5
		c-0.1,0.4,0.1,0.8,0.5,0.9c0.7,0.2,1.5,0.4,2.3,0.5c0,0,0.1,0,0.1,0c0,0,0,0,0,0c0,0,0,0,0,0c0.1,0,0.2,0,0.2,0c0,0,0.1,0,0.1,0
		c0,0,0.1-0.1,0.1-0.1c0,0,0-0.1,0.1-0.1c0,0,0.1-0.1,0.1-0.1c0,0,0-0.1,0-0.1c0,0,0-0.1,0-0.1c0,0,0,0,0-0.1c0,0,0,0,0-0.1V20.1z
		 M7,15h11.5l-4,4.1C10.5,18.3,7.6,16.7,7,15z"/>
	<path class="st0" d="M36,32.3l-5.3,0L27,28c0,0,0,0,0,0l-2.4-2.6c-0.3-0.3-0.7-0.3-1-0.1c-0.3,0.3-0.3,0.7-0.1,1l1.6,1.7
		c-1.7,0.3-3.6,0.4-5,0.4c-1,0-2,0-2.9-0.1c-0.4,0-0.7,0.2-0.8,0.6c0,0.4,0.2,0.7,0.6,0.8c1,0.1,2,0.1,3.1,0.1c1.8,0,4.1-0.1,6-0.6
		l3.5,3.9c0.3,0.3,0.7,0.5,1.1,0.5H36c0.4,0,0.7-0.3,0.7-0.7S36.4,32.3,36,32.3z"/>
</g>
</svg>
