<?xml version="1.0" encoding="utf-8"?>
<!-- Generator: Adobe Illustrator 23.0.1, SVG Export Plug-In . SVG Version: 6.00 Build 0)  -->
<svg version="1.0" id="图层_1" xmlns="http://www.w3.org/2000/svg" xmlns:xlink="http://www.w3.org/1999/xlink" x="0px" y="0px"
	 viewBox="0 0 38 38" style="enable-background:new 0 0 38 38;" xml:space="preserve">
<style type="text/css">
	.st0{fill:#e2edf2;}
</style>
<g>
	<path class="st0" d="M34,27.7C33.9,27.7,33.9,27.7,34,27.7c-0.1,0-0.1,0-0.2,0h-1.1v-6.4c0-0.4-0.3-0.7-0.7-0.7s-0.7,0.3-0.7,0.7v6.4H21.1
		c0,0-0.1,0-0.1,0c0,0-0.1,0-0.1,0c0,0-0.1,0-0.1,0.1c0,0-0.1,0-0.1,0l-1,0.9H18h-0.2h-1.6l-1-0.9c0,0-0.1,0-0.1,0
		c0,0-0.1-0.1-0.1-0.1c0,0-0.1,0-0.1,0c0,0-0.1,0-0.1,0h-10V10.2c0-0.3,0.2-0.5,0.5-0.5h15.8c0.4,0,0.7-0.3,0.7-0.7
		s-0.3-0.7-0.7-0.7H5.1c-1,0-1.9,0.8-1.9,1.9v17.5H2c-0.4,0-0.7,0.3-0.7,0.7v2.7c0,0.9,0.8,1.7,1.7,1.7h30c0.9,0,1.7-0.8,1.7-1.7
		v-2.7C34.7,28,34.3,27.7,34,27.7z M18,30.1h1.9c0,0,0,0,0,0s0,0,0,0c0.1,0,0.2,0,0.3-0.1c0,0,0.1,0,0.1-0.1c0,0,0.1,0,0.1-0.1
		l1-0.9h11.9v2c0,0.2-0.1,0.3-0.3,0.3H3c-0.2,0-0.3-0.1-0.3-0.3v-2h11.8l1,0.9c0,0,0.1,0,0.1,0.1c0,0,0.1,0,0.1,0.1
		c0.1,0,0.2,0.1,0.3,0.1c0,0,0,0,0,0s0,0,0,0h1.9H18z"/>
	<path class="st0" d="M30.8,8.5L30.8,8.5l0-0.3c0-0.4-0.3-0.7-0.7-0.7s-0.7,0.3-0.7,0.7v0.3h0c-0.7,0-1.3,0.6-1.3,1.3v1.3c0,0.9,0.9,1.6,2,1.6
		c0.4,0,0.6,0.2,0.6,0.2v1h-1.2v-0.6c0-0.4-0.3-0.7-0.7-0.7S28,13,28,13.4v0.7c0,0.7,0.6,1.3,1.3,1.3h0v0.3c0,0.4,0.3,0.7,0.7,0.7
		s0.7-0.3,0.7-0.7v-0.3h0c0.7,0,1.3-0.6,1.3-1.3v-1.1c0-0.9-0.9-1.6-2-1.6c-0.4,0-0.6-0.2-0.6-0.2V9.9h1.2v0.6
		c0,0.4,0.3,0.7,0.7,0.7s0.7-0.3,0.7-0.7V9.8C32,9.1,31.5,8.5,30.8,8.5z"/>
	<path class="st0" d="M30,5.2c-3.7,0-6.7,3-6.7,6.7s3,6.7,6.7,6.7s6.7-3,6.7-6.7S33.7,5.2,30,5.2z M30,17.2c-2.9,0-5.3-2.4-5.3-5.3
		s2.4-5.3,5.3-5.3c2.9,0,5.3,2.4,5.3,5.3S32.9,17.2,30,17.2z"/>
	<path class="st0" d="M19.9,18c-0.9,0-1.4,0.8-1.7,1.4c-0.1,0.2-0.4,0.7-0.4,0.7c-0.2-0.1-0.6-0.9-0.7-1.1c-0.1-0.1-0.1-0.3-0.2-0.4
		c-0.2-0.3-0.3-0.7-0.4-1c-0.3-0.9-0.8-2.1-2.1-2.1c0,0,0,0,0,0c-1.4,0-1.9,1.4-2.4,2.6c-0.2,0.5-0.5,1.2-0.7,1.3
		c-0.1,0-0.2-0.1-0.4-0.1c-0.5-0.2-1.8-0.6-2.3,0.6c-0.7,1.5-1.1,1.7-2,1.9c-0.4,0.1-0.6,0.4-0.5,0.8c0.1,0.4,0.5,0.6,0.8,0.5
		c1.4-0.3,2.2-0.8,3-2.6c0.1,0,0.5,0.1,0.7,0.1c0.2,0.1,0.5,0.1,0.6,0.2c1.2,0.1,1.7-1.1,2.1-2.2c0.3-0.7,0.7-1.7,1.1-1.7
		c0,0,0,0,0,0c0.3,0,0.4,0.2,0.8,1.1c0.1,0.4,0.3,0.8,0.5,1.2c0.1,0.1,0.1,0.2,0.2,0.3c0.4,0.8,1,2,2.1,1.9c0.8-0.1,1.2-0.8,1.5-1.4
		c0.1-0.2,0.4-0.7,0.4-0.7c0.1,0.1,0.2,0.4,0.3,0.7c0.3,0.7,0.7,1.9,2,1.9c0,0,0,0,0,0c0.6,0,0.9-0.4,1.1-0.6
		c0.2-0.2,0.4-0.4,0.9-0.4c0.4,0,0.7,0.5,0.9,1.1c0.1,0.2,0.1,0.3,0.2,0.5c0.3,0.4,0.8,0.8,1.6,0.8c0.3,0,0.6-0.1,1-0.2
		c0.3-0.2,0.5-0.6,0.3-0.9c-0.2-0.3-0.6-0.5-0.9-0.3c-0.5,0.2-0.7,0-0.8-0.1c0-0.1-0.1-0.1-0.1-0.2c-0.3-0.6-0.8-1.9-2.2-1.9
		c-1.1,0-1.6,0.5-1.9,0.8c-0.1,0.1-0.1,0.1-0.1,0.2c-0.3,0-0.4-0.2-0.7-1C21.2,18.9,20.8,18,19.9,18z"/>
</g>
</svg>
