<?xml version="1.0" encoding="utf-8"?>
<!-- Generator: Adobe Illustrator 23.0.1, SVG Export Plug-In . SVG Version: 6.00 Build 0)  -->
<svg version="1.0" id="图层_1" xmlns="http://www.w3.org/2000/svg" xmlns:xlink="http://www.w3.org/1999/xlink" x="0px" y="0px"
	 viewBox="0 0 38 38" style="enable-background:new 0 0 38 38;" xml:space="preserve">
<style type="text/css">
	.st0{fill:#e2edf2;}
</style>
<g>
	<path class="st0" d="M24.4,9.2c0.2,0,0.4-0.1,0.5-0.2l0.2-0.2v2.5c0,0.4,0.3,0.7,0.7,0.7s0.7-0.3,0.7-0.7V8.8L26.7,9c0.1,0.1,0.3,0.2,0.5,0.2
		s0.4-0.1,0.5-0.2c0.3-0.3,0.3-0.7,0-1l-1.4-1.4c-0.1-0.1-0.1-0.1-0.2-0.2c-0.2-0.1-0.4-0.1-0.5,0c-0.1,0-0.2,0.1-0.2,0.2L23.9,8
		c-0.3,0.3-0.3,0.7,0,1C24,9.1,24.2,9.2,24.4,9.2z"/>
	<path class="st0" d="M32,16.7c0.1,0.1,0.1,0.1,0.2,0.2c0.1,0,0.2,0.1,0.3,0.1s0.2,0,0.3-0.1c0.1,0,0.2-0.1,0.2-0.2l1.4-1.4c0.3-0.3,0.3-0.7,0-1
		s-0.7-0.3-1,0l-0.2,0.2v-4.2c0-0.4-0.3-0.7-0.7-0.7s-0.7,0.3-0.7,0.7v4.2l-0.2-0.2c-0.3-0.3-0.7-0.3-1,0s-0.3,0.7,0,1L32,16.7z"/>
	<path class="st0" d="M18.4,8H5.5C4.8,8,4.2,8.6,4.2,9.4v4.8c0,0.8,0.6,1.4,1.4,1.4h12.9c0.8,0,1.4-0.6,1.4-1.4V9.4C19.8,8.6,19.2,8,18.4,8z
		 M5.6,14.2V9.4l12.8,0l0,4.8L5.6,14.2z"/>
	<path class="st0" d="M7.3,17.9H4.9c-0.4,0-0.7,0.3-0.7,0.7s0.3,0.7,0.7,0.7h2.5C7.7,19.3,8,19,8,18.6S7.7,17.9,7.3,17.9z"/>
	<path class="st0" d="M19.1,17.9h-2.5c-0.4,0-0.7,0.3-0.7,0.7s0.3,0.7,0.7,0.7h2.5c0.4,0,0.7-0.3,0.7-0.7S19.5,17.9,19.1,17.9z"/>
	<path class="st0" d="M13.3,17.9h-2.5c-0.4,0-0.7,0.3-0.7,0.7s0.3,0.7,0.7,0.7h2.5c0.4,0,0.7-0.3,0.7-0.7S13.7,17.9,13.3,17.9z"/>
	<path class="st0" d="M7.3,21.3H4.9c-0.4,0-0.7,0.3-0.7,0.7s0.3,0.7,0.7,0.7h2.5C7.7,22.7,8,22.4,8,22S7.7,21.3,7.3,21.3z"/>
	<path class="st0" d="M19.1,21.3h-2.5c-0.4,0-0.7,0.3-0.7,0.7s0.3,0.7,0.7,0.7h2.5c0.4,0,0.7-0.3,0.7-0.7S19.5,21.3,19.1,21.3z"/>
	<path class="st0" d="M13.3,21.3h-2.5c-0.4,0-0.7,0.3-0.7,0.7s0.3,0.7,0.7,0.7h2.5c0.4,0,0.7-0.3,0.7-0.7S13.7,21.3,13.3,21.3z"/>
	<path class="st0" d="M7.3,24.7H4.9c-0.4,0-0.7,0.3-0.7,0.7s0.3,0.7,0.7,0.7h2.5c0.4,0,0.7-0.3,0.7-0.7S7.7,24.7,7.3,24.7z"/>
	<path class="st0" d="M19.1,24.7h-2.5c-0.4,0-0.7,0.3-0.7,0.7s0.3,0.7,0.7,0.7h2.5c0.4,0,0.7-0.3,0.7-0.7S19.5,24.7,19.1,24.7z"/>
	<path class="st0" d="M13.3,24.7h-2.5c-0.4,0-0.7,0.3-0.7,0.7s0.3,0.7,0.7,0.7h2.5c0.4,0,0.7-0.3,0.7-0.7S13.7,24.7,13.3,24.7z"/>
	<path class="st0" d="M7.3,28.1H4.9c-0.4,0-0.7,0.3-0.7,0.7s0.3,0.7,0.7,0.7h2.5c0.4,0,0.7-0.3,0.7-0.7S7.7,28.1,7.3,28.1z"/>
	<path class="st0" d="M19.1,28.1h-2.5c-0.4,0-0.7,0.3-0.7,0.7s0.3,0.7,0.7,0.7h2.5c0.4,0,0.7-0.3,0.7-0.7S19.5,28.1,19.1,28.1z"/>
	<path class="st0" d="M13.3,28.1h-2.5c-0.4,0-0.7,0.3-0.7,0.7s0.3,0.7,0.7,0.7h2.5c0.4,0,0.7-0.3,0.7-0.7S13.7,28.1,13.3,28.1z"/>
	<path class="st0" d="M36.7,21.1c0-2-3.5-3.1-7.1-3.2v-1.7c0,0,0,0,0,0c0,0,0,0,0,0c0-2-3.5-3.1-7.1-3.2V6.3c0-0.8-0.6-1.4-1.4-1.4H2.7
		c-0.8,0-1.4,0.6-1.4,1.4v25.4c0,0.8,0.6,1.4,1.4,1.4h18.5c0.7,0,1.3-0.6,1.4-1.3c3.1-0.1,6-0.9,6.9-2.4c3.7-0.1,7.3-1.2,7.3-3.2
		v-2.4c0,0,0,0,0,0c0,0,0,0,0-0.1v-2.4C36.7,21.3,36.7,21.2,36.7,21.1C36.7,21.2,36.7,21.2,36.7,21.1z M35.3,23.7
		c0,0.6-2,1.7-5.7,1.8v-1.1c2.2-0.1,4.3-0.5,5.7-1.3V23.7z M28.2,21.1c0,0.6-2,1.7-5.7,1.8v-1.1c2.2-0.1,4.3-0.5,5.7-1.3V21.1z
		 M22.5,24.3c2.2-0.1,4.3-0.5,5.7-1.3v0.5c0,0.6-2,1.7-5.7,1.8V24.3z M28.2,18.6c0,0.6-2,1.7-5.7,1.8v-1c2.2-0.1,4.3-0.5,5.7-1.3
		V18.6z M22.5,26.8c2.2-0.1,4.3-0.5,5.7-1.3v0.5c0,0.6-2,1.7-5.7,1.8V26.8z M35.3,21.1c0,0.6-2,1.7-5.7,1.8v-1.8c0,0,0,0,0,0
		c0,0,0,0,0-0.1v-1.8C33.3,19.4,35.3,20.5,35.3,21.1z M28.2,16.2c0,0.6-2,1.7-5.7,1.8v-3.6C26.2,14.5,28.2,15.6,28.2,16.2z
		 M2.7,31.7V6.3l18.4,0l0,7.3c0,0,0,0,0,0c0,0,0,0,0,0l0,5c0,0,0,0,0,0.1c0,0,0,0,0,0.1l0,2.3c0,0,0,0.1,0,0.1c0,0,0,0.1,0,0.1
		l0,2.3c0,0,0,0.1,0,0.1c0,0,0,0.1,0,0.1l0,2.3c0,0,0,0.1,0,0.1c0,0,0,0.1,0,0.1l0,2.3c0,0,0,0.1,0,0.1c0,0,0,0.1,0,0.1l0,2.2
		c0,0,0,0.1,0,0.1c0,0,0,0.1,0,0.1l0,0.4L2.7,31.7z M22.5,30.4v-1.1c2.2-0.1,4.3-0.5,5.7-1.3v0.5C28.2,29.1,26.2,30.2,22.5,30.4z
		 M29.6,28v-1.1c2.2-0.1,4.3-0.5,5.7-1.3v0.5C35.3,26.8,33.3,27.9,29.6,28z"/>
</g>
</svg>
