<?xml version="1.0" encoding="utf-8"?>
<!-- Generator: Adobe Illustrator 23.0.1, SVG Export Plug-In . SVG Version: 6.00 Build 0)  -->
<svg version="1.0" id="图层_1" xmlns="http://www.w3.org/2000/svg" xmlns:xlink="http://www.w3.org/1999/xlink" x="0px" y="0px"
	 viewBox="0 0 38 38" style="enable-background:new 0 0 38 38;" xml:space="preserve">
<style type="text/css">
	.st0{fill:#e2edf2;}
</style>
<g>
	<path class="st0" d="M20.1,28.8L10.4,24c-0.6-0.3-1.3-0.5-2-0.5H3.5c-0.4,0-0.8-0.4-0.8-0.8v-8.2c0-0.4,0.4-0.8,0.8-0.8h5.1
		c0.7,0,1.3-0.2,1.9-0.4c0.3-0.2,0.5-0.6,0.3-0.9c-0.2-0.3-0.6-0.5-0.9-0.3c-0.4,0.2-0.9,0.3-1.3,0.3H3.5c-1.2,0-2.2,1-2.2,2.2v8.2
		c0,1.2,1,2.2,2.2,2.2h4.9c0.5,0,0.9,0.1,1.4,0.3l9.7,4.8c0.1,0,0.2,0.1,0.3,0.1c0.3,0,0.5-0.1,0.6-0.4C20.6,29.4,20.5,29,20.1,28.8
		z"/>
	<path class="st0" d="M15.7,10.7c0.1,0,0.2,0,0.3-0.1l9.2-4.8v12.8v10.2c0,0.4,0.3,0.7,0.7,0.7s0.7-0.3,0.7-0.7V18.7v-14
		c0,0,0,0,0,0c0,0,0-0.1,0-0.1c0,0,0-0.1,0-0.1c0,0,0,0,0,0c0,0,0,0-0.1-0.1c0,0-0.1-0.1-0.1-0.1c0,0-0.1,0-0.1-0.1
		c0,0-0.1-0.1-0.1-0.1c0,0-0.1,0-0.1,0c0,0-0.1,0-0.1,0c0,0,0,0,0,0c0,0-0.1,0-0.1,0c0,0-0.1,0-0.1,0c0,0,0,0,0,0L15.4,9.4
		c-0.3,0.2-0.5,0.6-0.3,0.9C15.3,10.6,15.5,10.7,15.7,10.7z"/>
	<path class="st0" d="M30,19.4h6c0.4,0,0.7-0.3,0.7-0.7S36.4,18,36,18h-6c-0.4,0-0.7,0.3-0.7,0.7S29.6,19.4,30,19.4z"/>
	<path class="st0" d="M30,11.8c0.1,0,0.2,0,0.4-0.1l6-3.6c0.3-0.2,0.4-0.6,0.2-1c-0.2-0.3-0.6-0.4-1-0.2l-6,3.6
		c-0.3,0.2-0.4,0.6-0.2,1C29.5,11.7,29.7,11.8,30,11.8z"/>
	<path class="st0" d="M36.4,29.5l-6-3.5c-0.3-0.2-0.8-0.1-1,0.2c-0.2,0.3-0.1,0.8,0.2,1l6,3.5c0.1,0.1,0.2,0.1,0.4,0.1
		c0.2,0,0.5-0.1,0.6-0.3C36.8,30.1,36.7,29.7,36.4,29.5z"/>
	<path class="st0" d="M8.8,3c-0.2-0.3-0.6-0.5-1-0.3s-0.5,0.6-0.3,1L25.5,35c0.1,0.2,0.4,0.4,0.6,0.4c0.1,0,0.2,0,0.3-0.1
		c0.3-0.2,0.5-0.6,0.3-1L8.8,3z"/>
</g>
</svg>
