<?xml version="1.0" encoding="utf-8"?>
<!-- Generator: Adobe Illustrator 23.0.1, SVG Export Plug-In . SVG Version: 6.00 Build 0)  -->
<svg version="1.0" id="图层_1" xmlns="http://www.w3.org/2000/svg" xmlns:xlink="http://www.w3.org/1999/xlink" x="0px" y="0px"
	 viewBox="0 0 38 38" style="enable-background:new 0 0 38 38;" xml:space="preserve">
<style type="text/css">
	.st0{fill:#e2edf2;}
</style>
<g>
	<path class="st0" d="M36.7,18.8C36.7,18.8,36.7,18.8,36.7,18.8c0-0.1,0-0.1,0-0.2c0,0,0-0.1,0-0.1c0,0,0,0,0,0c-1.8-3-2.9-5.9-4.4-10.9
		c0,0,0,0,0-0.1c0,0,0-0.1,0-0.1c-2.3-4-8.6-5.9-14-4.2c-1-0.8-2.2-1.4-3.8-1.5c0,0,0,0,0,0c0,0,0,0,0,0c-2.1,0-5.8,0.9-6.8,4.1
		C6.3,6.1,5.4,6.8,4.7,7.8c-1.2,1.7-1.4,4.1-0.5,6.4c-1.3,0.7-2.2,1.7-2.6,3.2c-0.6,2.4,0.4,5.1,2.5,6.5c-0.4,0.9-0.6,1.8-0.6,2.7
		c0,1.5,0.6,3.1,1.7,4.1c0.7,0.6,1.4,1,2.2,1.1c1,2.7,3.4,4.5,6.2,4.5c1.2,0,2.5-0.4,3.6-1.1h8.6c1.1,0,2-0.9,2-2
		c0-2.5,0.9-4.2,1.6-4.3c0.5,0.2,1.7,0.5,2.9,0.5c0.5,0,1-0.1,1.5-0.2c0,0,0,0,0,0c0,0,0,0,0,0c0,0,0,0,0.1,0c0,0,0,0,0,0
		c0.3-0.1,0.6-0.3,0.8-0.7c0.7-1.2,0.9-4,0.2-6.8C36,21.3,36.7,20.2,36.7,18.8z M34.1,20.4c0,0-0.1,0-0.1,0c0,0-0.1,0-0.1,0
		c0,0,0,0,0,0c0,0-0.1,0-0.1,0.1c0,0-0.1,0-0.1,0.1c0,0-0.1,0.1-0.1,0.1c0,0-0.1,0.1-0.1,0.1c0,0,0,0.1,0,0.1c0,0,0,0.1,0,0.1
		c0,0,0,0,0,0c0,0,0,0.1,0,0.1c0,0,0,0.1,0,0.1c1.1,3.3,0.5,6.1,0.1,6.5c0,0,0,0,0,0c0,0,0,0,0,0c-1.3,0.4-3.1-0.1-3.6-0.3
		c0,0,0,0,0,0c0,0-0.1,0-0.1,0c0,0-0.1,0-0.1,0c0,0,0,0,0,0c-1.8,0-3.1,2.5-3.1,5.7c0,0.4-0.3,0.6-0.6,0.6h-6.9
		c0.8-0.9,1.4-2.1,1.4-3.3v-3.9c0-0.4-0.3-0.7-0.7-0.7s-0.7,0.3-0.7,0.7v3.9c0,2.4-2.9,4.4-5.3,4.4c-2.9,0-5.3-2.6-5.3-5.8
		c0-0.4-0.3-0.7-0.7-0.7s-0.7,0.3-0.7,0.7c0,0.4,0,0.7,0.1,1.1c-0.4-0.2-0.7-0.4-0.9-0.6c-0.8-0.7-1.2-1.9-1.2-3.1
		c0-2.7,1.5-4.1,4.6-4.4c0.4,0,0.7-0.4,0.6-0.8c0-0.4-0.4-0.7-0.8-0.6c-2.3,0.2-3.7,1-4.6,1.9c-1.6-1-2.4-3.1-1.9-5
		c0.5-2.1,2.5-3.1,5.4-2.9c0.4,0,0.7-0.3,0.8-0.6c0-0.4-0.3-0.7-0.6-0.8c-1.1-0.1-2.1,0-2.9,0.2c-0.7-1.8-0.6-3.8,0.4-5.1
		c0.8-1.2,2.2-1.7,4-1.4c0.4,0.1,0.7-0.2,0.8-0.6c0.1-0.4-0.2-0.7-0.6-0.8c-0.3,0-0.6-0.1-0.9-0.1c1.3-2.5,4.9-2.6,5.2-2.6
		c2.8,0.1,4.6,2.6,4.6,4.2v4.1c0,0.4,0.3,0.7,0.7,0.7s0.7-0.3,0.7-0.7V7.4c0-0.9-0.4-2-1.1-3c5-1.3,10,0.8,11.7,3.7
		c1.5,4.9,2.6,7.9,4.4,11C35.3,19.5,35.1,20.4,34.1,20.4z"/>
	<path class="st0" d="M11.8,11.9c0.3,0,0.6-0.1,0.9-0.2l2.2,2.4c0,0,0,0,0,0c0.1,0.1,0.1,0.1,0.2,0.1c0,0,0,0,0,0c0.1,0,0.2,0.1,0.3,0.1h12.8
		c0.4,0,0.7-0.3,0.7-0.7S28.6,13,28.2,13H15.7l-2-2.3c0.2-0.3,0.3-0.6,0.3-1c0-1.2-1-2.2-2.2-2.2s-2.2,1-2.2,2.2
		S10.6,11.9,11.8,11.9z M11.8,8.9c0.4,0,0.8,0.4,0.8,0.8s-0.4,0.8-0.8,0.8S11,10.1,11,9.7S11.3,8.9,11.8,8.9z"/>
	<path class="st0" d="M29.7,22.6H15.4c0,0,0,0,0,0c0,0-0.1,0-0.1,0c0,0-0.1,0-0.1,0c0,0-0.1,0-0.1,0.1c0,0-0.1,0.1-0.1,0.1c0,0,0,0,0,0l-2.2,2.4
		c-0.3-0.1-0.6-0.2-0.9-0.2c-1.2,0-2.2,1-2.2,2.2s1,2.2,2.2,2.2s2.2-1,2.2-2.2c0-0.4-0.1-0.7-0.3-1l2-2.3h14c0.4,0,0.7-0.3,0.7-0.7
		S30,22.6,29.7,22.6z M11.8,28.1c-0.4,0-0.8-0.4-0.8-0.8s0.4-0.8,0.8-0.8s0.8,0.4,0.8,0.8S12.2,28.1,11.8,28.1z"/>
	<path class="st0" d="M30.8,17.8H15.3c-0.3-0.9-1.1-1.5-2.1-1.5c-1.2,0-2.2,1-2.2,2.2s1,2.2,2.2,2.2c1,0,1.8-0.6,2.1-1.5h15.5
		c0.4,0,0.7-0.3,0.7-0.7S31.2,17.8,30.8,17.8z M13.3,19.3c-0.4,0-0.8-0.4-0.8-0.8s0.4-0.8,0.8-0.8s0.8,0.4,0.8,0.8
		S13.7,19.3,13.3,19.3z"/>
</g>
</svg>
