<?xml version="1.0" encoding="utf-8"?>
<!-- Generator: Adobe Illustrator 23.0.1, SVG Export Plug-In . SVG Version: 6.00 Build 0)  -->
<svg version="1.0" id="图层_1" xmlns="http://www.w3.org/2000/svg" xmlns:xlink="http://www.w3.org/1999/xlink" x="0px" y="0px"
	 viewBox="0 0 38 38" style="enable-background:new 0 0 38 38;" xml:space="preserve">
<style type="text/css">
	.st0{fill:#e2edf2;}
</style>
<g>
	<path class="st0" d="M7.1,23.9v0.8c0,0.8,0.6,1.4,1.4,1.4h0.6c0.8,0,1.4-0.6,1.4-1.4v-0.8c0.3-0.1,0.6-0.2,0.8-0.3l0.6,0.6
		c0.3,0.3,0.6,0.4,1,0.4s0.7-0.1,1-0.4l0.4-0.4c0.3-0.3,0.4-0.6,0.4-1s-0.1-0.7-0.4-1l-0.6-0.6c0.1-0.2,0.2-0.4,0.3-0.7h0.8
		c0.8,0,1.4-0.6,1.4-1.4v-0.6c0-0.8-0.6-1.4-1.4-1.4H14c-0.1-0.2-0.2-0.5-0.3-0.7l0.6-0.6c0.5-0.5,0.5-1.4,0-2l-0.4-0.4
		c-0.5-0.5-1.4-0.5-2,0l-0.6,0.6c-0.3-0.1-0.5-0.3-0.8-0.3v-0.8c0-0.8-0.6-1.4-1.4-1.4H8.5c-0.8,0-1.4,0.6-1.4,1.4v0.8
		c-0.2,0.1-0.5,0.2-0.7,0.3l-0.6-0.6c-0.5-0.5-1.4-0.5-2,0l-0.4,0.4c-0.5,0.5-0.5,1.4,0,2L4,16.3c-0.1,0.3-0.2,0.5-0.3,0.8H2.8
		c-0.8,0-1.4,0.6-1.4,1.4v0.6c0,0.8,0.6,1.4,1.4,1.4h0.8C3.7,20.8,3.8,21,4,21.3l-0.5,0.5c-0.3,0.3-0.4,0.6-0.4,1s0.1,0.7,0.4,1
		l0.4,0.4c0.3,0.3,0.6,0.4,1,0.4s0.7-0.1,1-0.4l0.6-0.6C6.6,23.8,6.9,23.9,7.1,23.9z M4.7,23.4l-0.4-0.4c-0.1-0.1-0.1-0.2,0-0.3
		l0.8-0.8c0,0,0,0,0,0c0,0,0-0.1,0.1-0.1c0,0,0-0.1,0-0.1c0,0,0-0.1,0-0.1c0,0,0-0.1,0-0.1c0,0,0-0.1,0-0.1c0,0,0-0.1,0-0.1
		c0,0,0,0,0-0.1c-0.3-0.4-0.5-0.9-0.6-1.3c0,0,0,0,0,0c0,0,0-0.1-0.1-0.1c0,0,0-0.1-0.1-0.1c0,0-0.1-0.1-0.1-0.1c0,0-0.1,0-0.1-0.1
		c0,0-0.1,0-0.1,0c0,0-0.1,0-0.1,0c0,0,0,0-0.1,0H2.8c-0.1,0-0.2-0.1-0.2-0.2v-0.6c0-0.1,0.1-0.2,0.2-0.2h1.3c0,0,0,0,0,0
		c0,0,0,0,0,0c0.1,0,0.1,0,0.2,0c0,0,0,0,0.1,0c0,0,0.1,0,0.1-0.1c0,0,0,0,0.1-0.1c0,0,0.1-0.1,0.1-0.1c0,0,0-0.1,0-0.1
		c0,0,0,0,0-0.1c0.1-0.5,0.3-0.9,0.6-1.3c0,0,0,0,0,0c0,0,0-0.1,0-0.1c0,0,0-0.1,0-0.1c0,0,0-0.1,0-0.1c0,0,0-0.1,0-0.1
		c0,0,0-0.1,0-0.1c0,0,0-0.1-0.1-0.1c0,0,0,0,0,0l-0.8-0.8c-0.1-0.1-0.1-0.2,0-0.3l0.4-0.4c0.1-0.1,0.2-0.1,0.3,0L5.9,15
		c0,0,0.1,0,0.1,0.1c0,0,0.1,0,0.1,0.1c0,0,0.1,0,0.1,0c0.1,0,0.1,0,0.2,0c0.1,0,0.1,0,0.2,0c0,0,0,0,0,0c0,0,0.1,0,0.1,0
		c0.4-0.2,0.8-0.4,1.2-0.5c0,0,0,0,0,0c0,0,0.1,0,0.1-0.1c0,0,0.1,0,0.1-0.1c0,0,0.1-0.1,0.1-0.1c0,0,0-0.1,0.1-0.1c0,0,0-0.1,0-0.1
		c0,0,0-0.1,0-0.1c0,0,0,0,0-0.1v-1.3c0-0.1,0.1-0.2,0.2-0.2h0.6c0.1,0,0.2,0.1,0.2,0.2V14c0,0,0,0,0,0.1c0,0,0,0.1,0,0.1
		c0,0,0,0.1,0,0.1c0,0,0,0.1,0.1,0.1c0,0,0,0.1,0.1,0.1c0,0,0.1,0,0.1,0.1c0,0,0.1,0,0.1,0.1c0,0,0,0,0,0c0.5,0.1,0.9,0.3,1.3,0.6
		c0,0,0,0,0,0c0.1,0,0.2,0.1,0.3,0.1c0,0,0,0,0,0c0,0,0,0,0,0c0.1,0,0.2,0,0.3-0.1c0,0,0,0,0.1,0c0,0,0.1,0,0.1-0.1l0.9-0.9
		c0.1-0.1,0.2-0.1,0.3,0l0.4,0.4c0.1,0.1,0.1,0.2,0,0.3l-0.9,1c0,0,0,0,0,0c0,0,0,0.1-0.1,0.1c0,0,0,0.1,0,0.1c0,0,0,0.1,0,0.1
		c0,0,0,0.1,0,0.1c0,0,0,0.1,0,0.1c0,0,0,0.1,0,0.1c0,0,0,0,0,0c0.2,0.4,0.4,0.8,0.5,1.2c0,0,0,0,0,0.1c0,0,0,0.1,0,0.1
		c0,0,0,0.1,0.1,0.1c0,0,0,0,0.1,0.1c0,0,0.1,0.1,0.1,0.1c0,0,0,0,0.1,0c0.1,0,0.1,0,0.2,0c0,0,0,0,0,0c0,0,0,0,0,0h1.3
		c0.1,0,0.2,0.1,0.2,0.2v0.6c0,0.1-0.1,0.2-0.2,0.2h-1.3c0,0,0,0-0.1,0c0,0-0.1,0-0.1,0c0,0-0.1,0-0.1,0c0,0-0.1,0-0.1,0.1
		c0,0-0.1,0-0.1,0.1c0,0,0,0.1-0.1,0.1c0,0,0,0.1-0.1,0.1c0,0,0,0,0,0c-0.1,0.4-0.3,0.8-0.5,1.2c0,0,0,0,0,0c0,0,0,0.1,0,0.1
		c0,0,0,0.1,0,0.1c0,0,0,0.1,0,0.1c0,0,0,0.1,0,0.1c0,0,0,0.1,0,0.1c0,0,0,0.1,0.1,0.1c0,0,0,0,0,0l0.9,0.9c0.1,0.1,0.1,0.2,0,0.3
		l-0.4,0.4c-0.1,0.1-0.2,0.1-0.3,0l-0.9-0.9c0,0,0,0-0.1,0c0,0-0.1,0-0.1-0.1c0,0-0.1,0-0.1,0c0,0-0.1,0-0.1,0c0,0-0.1,0-0.1,0
		c0,0-0.1,0-0.1,0c0,0-0.1,0-0.1,0c0,0,0,0-0.1,0c-0.4,0.3-0.8,0.4-1.3,0.6c0,0-0.1,0-0.1,0.1c0,0,0,0,0,0c-0.1,0-0.1,0.1-0.1,0.1
		c0,0-0.1,0.1-0.1,0.1c0,0,0,0,0,0c-0.1,0.1-0.1,0.2-0.1,0.3v1.3c0,0.1-0.1,0.2-0.2,0.2H8.5c-0.1,0-0.2-0.1-0.2-0.2v-1.3
		c0,0,0-0.1,0-0.1c0,0,0,0,0-0.1c0,0,0-0.1,0-0.1c0,0,0-0.1-0.1-0.1c0,0,0,0,0,0C8,23,7.9,22.9,7.8,22.9c-0.4-0.1-0.8-0.3-1.2-0.5
		c0,0,0,0,0,0c0,0-0.1,0-0.1,0c0,0-0.1,0-0.1,0c0,0-0.1,0-0.1,0c0,0-0.1,0-0.1,0c0,0-0.1,0-0.1,0c0,0-0.1,0-0.1,0.1c0,0,0,0,0,0
		L5,23.4C4.9,23.5,4.8,23.5,4.7,23.4z"/>
	<path class="st0" d="M8.8,22.2c1.9,0,3.5-1.6,3.5-3.5s-1.6-3.5-3.5-3.5c-1.9,0-3.5,1.6-3.5,3.5S6.9,22.2,8.8,22.2z M8.8,16.5
		c1.3,0,2.3,1,2.3,2.3c0,1.3-1,2.3-2.3,2.3c-1.3,0-2.3-1-2.3-2.3C6.5,17.5,7.6,16.5,8.8,16.5z"/>
	<path class="st0" d="M27.8,28.7l-2.5,0.1c-0.3,0-0.6,0.3-0.6,0.6c0,0.3,0.3,0.6,0.6,0.6c0,0,0,0,0,0l0.8,0c-2.3,1.9-5.2,3-8.3,3
		c-3.7,0-7.3-1.6-9.8-4.3c-0.2-0.2-0.6-0.3-0.8,0c-0.2,0.2-0.3,0.6,0,0.8c2.7,3,6.6,4.7,10.6,4.7c3.5,0,6.8-1.3,9.4-3.6l0.1,1.3
		c0,0.3,0.3,0.6,0.6,0.6c0,0,0,0,0,0c0.3,0,0.6-0.3,0.6-0.6l-0.1-2.5C28.4,28.9,28.2,28.6,27.8,28.7z"/>
	<path class="st0" d="M7.6,9.7l2.5,0c0,0,0,0,0,0c0.3,0,0.6-0.3,0.6-0.6c0-0.3-0.3-0.6-0.6-0.6l-1.1,0c2.4-2.2,5.5-3.4,8.8-3.4
		c3.9,0,7.6,1.7,10.1,4.7c0.1,0.1,0.3,0.2,0.5,0.2c0.1,0,0.3,0,0.4-0.1C29,9.6,29.1,9.3,28.9,9c-2.7-3.3-6.7-5.1-11-5.1
		c-3.6,0-7,1.4-9.7,3.8l0-1.1C8.2,6.2,8,6,7.6,5.9c0,0,0,0,0,0C7.3,5.9,7,6.2,7,6.5l0,2.5C7,9.4,7.3,9.7,7.6,9.7z"/>
	<path class="st0" d="M36.4,23.5l-6.4-11c-0.3-0.5-0.8-0.8-1.3-0.8c-0.5,0-1,0.3-1.3,0.8v0l-6.4,11c-0.3,0.5-0.3,1,0,1.5
		c0.3,0.5,0.8,0.8,1.3,0.8h12.7c0.5,0,1-0.3,1.3-0.8C36.7,24.6,36.7,24,36.4,23.5z M35.4,24.4c0,0-0.1,0.2-0.3,0.2H22.4
		c-0.2,0-0.2-0.1-0.3-0.2c0,0-0.1-0.2,0-0.3l6.4-11v0c0.1-0.1,0.2-0.2,0.3-0.2c0.1,0,0.2,0,0.3,0.1l6.4,11
		C35.4,24.3,35.4,24.4,35.4,24.4z"/>
	<path class="st0" d="M28.7,16.4c-0.3,0-0.6,0.3-0.6,0.6v3.7c0,0.3,0.3,0.6,0.6,0.6s0.6-0.3,0.6-0.6V17
		C29.3,16.7,29.1,16.4,28.7,16.4z"/>
	<path class="st0" d="M28.7,21.8c-0.3,0-0.6,0.3-0.6,0.6v0.5c0,0.3,0.3,0.6,0.6,0.6s0.6-0.3,0.6-0.6v-0.5
		C29.3,22.1,29.1,21.8,28.7,21.8z"/>
</g>
</svg>
