<?xml version="1.0" encoding="utf-8"?>
<!-- Generator: Adobe Illustrator 23.0.1, SVG Export Plug-In . SVG Version: 6.00 Build 0)  -->
<svg version="1.0" id="图层_1" xmlns="http://www.w3.org/2000/svg" xmlns:xlink="http://www.w3.org/1999/xlink" x="0px" y="0px"
	 viewBox="0 0 38 38" style="enable-background:new 0 0 38 38;" xml:space="preserve">
<style type="text/css">
	.st0{fill:#e2edf2;}
</style>
<g>
	<path class="st0" d="M24,22.6c-2.3,0-4.1,1.9-4.1,4.1s1.9,4.1,4.1,4.1c2.3,0,4.1-1.9,4.1-4.1S26.3,22.6,24,22.6z M24,29.5
		c-1.5,0-2.7-1.2-2.7-2.7S22.5,24,24,24s2.7,1.2,2.7,2.7S25.5,29.5,24,29.5z"/>
	<path class="st0" d="M15.4,17.9c0.1,0.1,0.3,0.2,0.5,0.2s0.4-0.1,0.5-0.2c0.3-0.3,0.3-0.7,0-1l-2.2-2.2l2.2-2.2
		c0.3-0.3,0.3-0.7,0-1s-0.7-0.3-1,0l-2.2,2.2l-2.2-2.2c-0.3-0.3-0.7-0.3-1,0s-0.3,0.7,0,1l2.2,2.2l-2.2,2.2c-0.3,0.3-0.3,0.7,0,1
		c0.1,0.1,0.3,0.2,0.5,0.2s0.4-0.1,0.5-0.2l2.2-2.2L15.4,17.9z"/>
	<path class="st0" d="M24.7,16.3v-3.2l1.5,1.5c0.1,0.1,0.3,0.2,0.5,0.2s0.4-0.1,0.5-0.2c0.3-0.3,0.3-0.7,0-1l-2.7-2.7
		c-0.1-0.1-0.1-0.1-0.2-0.2c-0.2-0.1-0.4-0.1-0.5,0c-0.1,0-0.2,0.1-0.2,0.2l-2.7,2.7c-0.3,0.3-0.3,0.7,0,1c0.1,0.1,0.3,0.2,0.5,0.2
		s0.4-0.1,0.5-0.2l1.5-1.5v3.2c0,2.2-1.8,4.1-4.1,4.1c0,0,0,0,0,0c0,0,0,0,0,0c-3.7,0.1-6.6,3-6.6,6.6c0,0,0,0,0,0c0,0,0,0,0,0v3.4
		c0,0.4,0.3,0.7,0.7,0.7s0.7-0.3,0.7-0.7V27c0-2.8,2.4-5.2,5.3-5.3c0,0,0,0,0,0C22.2,21.8,24.7,19.3,24.7,16.3z"/>
	<path class="st0" d="M30.7,1.3H12c0,0-0.1,0-0.1,0c-0.1,0-0.1,0-0.2,0c-0.1,0-0.1,0.1-0.1,0.1c0,0-0.1,0-0.1,0.1L5.3,7.4
		c0,0,0,0,0,0c0,0-0.1,0.1-0.1,0.2c0,0,0,0,0,0.1c0,0,0,0.1,0,0.1c0,0.1,0,0.1,0,0.2c0,0,0,0,0,0v26.6c0,1.2,1,2.2,2.2,2.2h23.5
		c1.2,0,2.2-1,2.2-2.2v-31C32.9,2.3,31.9,1.3,30.7,1.3z M9.9,7.2C9.9,7.2,9.9,7.2,9.9,7.2C9.9,7.2,9.9,7.2,9.9,7.2H7.5l3.8-3.6v2.2
		C11.3,6.6,10.7,7.2,9.9,7.2z M31.5,34.5c0,0.4-0.4,0.8-0.8,0.8H7.3c-0.4,0-0.8-0.4-0.8-0.8V8.6h3.4c0,0,0,0,0,0c0,0,0,0,0,0
		c1.5,0,2.7-1.2,2.7-2.7V2.7h18c0.4,0,0.8,0.4,0.8,0.8V34.5z"/>
</g>
</svg>
