<?xml version="1.0" encoding="utf-8"?>
<!-- Generator: Adobe Illustrator 23.0.1, SVG Export Plug-In . SVG Version: 6.00 Build 0)  -->
<svg version="1.0" id="图层_1" xmlns="http://www.w3.org/2000/svg" xmlns:xlink="http://www.w3.org/1999/xlink" x="0px" y="0px"
	 viewBox="0 0 38 38" style="enable-background:new 0 0 38 38;" xml:space="preserve">
<style type="text/css">
	.st0{fill:#e2edf2;}
</style>
<g>
	<path class="st0" d="M36,26.7C36,26.7,35.9,26.7,36,26.7c-0.1,0-0.2,0-0.2,0h-1.2v-8.4c0-0.4-0.3-0.7-0.7-0.7s-0.7,0.3-0.7,0.7v8.4H22.3
		c0,0-0.1,0-0.1,0c0,0-0.1,0-0.1,0c0,0-0.1,0-0.1,0.1c0,0-0.1,0-0.1,0l-1.1,0.9H19h-0.2h-1.7L16,26.8c0,0-0.1,0-0.1,0
		c0,0-0.1-0.1-0.1-0.1c0,0-0.1,0-0.1,0c0,0-0.1,0-0.1,0H4.8V8c0-0.3,0.2-0.6,0.5-0.6h18.4c0.4,0,0.7-0.3,0.7-0.7S24.2,6,23.8,6H5.3
		C4.3,6,3.4,6.9,3.4,8v18.7H2c-0.4,0-0.7,0.3-0.7,0.7v2.8c0,1,0.8,1.8,1.7,1.8H35c1,0,1.7-0.8,1.7-1.8v-2.8
		C36.7,27,36.4,26.7,36,26.7z M19,29.2h2c0.1,0,0.2,0,0.3-0.1c0,0,0.1,0,0.1-0.1c0,0,0.1,0,0.1-0.1l1.1-0.9h12.8v2.1
		c0,0.2-0.2,0.4-0.3,0.4H3c-0.2,0-0.3-0.2-0.3-0.4v-2.1h12.6l1.1,0.9c0,0,0.1,0,0.1,0.1c0,0,0.1,0,0.1,0.1c0.1,0,0.2,0.1,0.3,0.1
		c0,0,0,0,0,0s0,0,0,0h2H19z"/>
	<path class="st0" d="M28.9,20.4c-0.6,0.3-0.9,0-0.9-0.1c0-0.1-0.1-0.1-0.1-0.2c-0.3-0.6-0.9-2-2.3-2c-1.1,0-1.7,0.5-2,0.9
		c-0.1,0.1-0.2,0.2-0.2,0.2c-0.3,0-0.5-0.2-0.8-1.1c-0.2-0.7-0.6-1.6-1.6-1.6c-1,0-1.4,0.9-1.8,1.5c-0.1,0.3-0.4,0.7-0.5,0.8
		c-0.2-0.1-0.6-0.9-0.8-1.2c-0.1-0.2-0.1-0.3-0.2-0.4c-0.2-0.3-0.3-0.7-0.5-1.1c-0.4-1-0.8-2.2-2.2-2.2c0,0,0,0,0,0
		c-1.4,0-2,1.5-2.5,2.7c-0.2,0.5-0.5,1.3-0.7,1.4c-0.1,0-0.2-0.1-0.4-0.1c-0.6-0.2-1.9-0.6-2.4,0.6c-0.7,1.6-1.2,1.8-2.2,2
		c-0.4,0.1-0.6,0.4-0.5,0.8c0.1,0.4,0.5,0.6,0.8,0.5c1.4-0.3,2.3-0.8,3.2-2.8c0.1,0,0.5,0.1,0.7,0.2c0.2,0.1,0.5,0.1,0.7,0.2
		c1.2,0.1,1.7-1.2,2.2-2.3c0.3-0.8,0.7-1.8,1.2-1.8c0,0,0,0,0,0c0.3,0,0.5,0.2,0.9,1.2c0.1,0.4,0.3,0.8,0.5,1.3
		c0.1,0.1,0.1,0.2,0.2,0.4c0.4,0.9,1,2.2,2.1,2c0.8-0.1,1.3-0.9,1.6-1.5c0.1-0.3,0.4-0.7,0.5-0.8c0.1,0.1,0.2,0.5,0.3,0.7
		c0.3,0.8,0.8,2,2.2,2c0.6,0,0.9-0.4,1.2-0.6c0.2-0.3,0.4-0.4,0.9-0.4c0.5,0,0.7,0.5,1,1.1c0.1,0.2,0.2,0.4,0.3,0.5
		c0.3,0.4,0.9,0.8,1.6,0.8c0.3,0,0.7-0.1,1-0.3c0.3-0.2,0.5-0.6,0.3-0.9S29.2,20.2,28.9,20.4z"/>
	<path class="st0" d="M22.8,14.2c0,0.4,0.1,0.7,0.3,1.1c0.4,0.6,1,1,1.7,1h7.7c0.7,0,1.4-0.4,1.7-1c0.2-0.3,0.3-0.7,0.3-1c0-0.3-0.1-0.7-0.3-1
		l-3.8-6c-0.4-0.7-1.1-1.1-1.8-1.1c-0.7,0-1.4,0.4-1.7,1c0,0,0,0.1,0,0.1L23,13.3C22.9,13.6,22.8,13.9,22.8,14.2z M24.2,14l3.9-6.1
		c0,0,0,0,0-0.1c0.2-0.3,0.4-0.3,0.6-0.3c0.1,0,0.4,0,0.6,0.4l3.8,6c0.1,0.1,0.1,0.2,0.1,0.3c0,0.2-0.1,0.3-0.1,0.3
		c-0.1,0.1-0.2,0.3-0.5,0.3h-7.7c-0.3,0-0.5-0.2-0.5-0.3c0-0.1-0.1-0.2-0.1-0.4C24.2,14.1,24.2,14.1,24.2,14z"/>
	<path class="st0" d="M28.7,12.6c0.4,0,0.7-0.3,0.7-0.7V9.7c0-0.4-0.3-0.7-0.7-0.7S28,9.3,28,9.7v2.2C28,12.3,28.3,12.6,28.7,12.6z"/>
	<path class="st0" d="M28.7,14.6c0.4,0,0.7-0.3,0.7-0.7v-0.4c0-0.4-0.3-0.7-0.7-0.7S28,13.1,28,13.5v0.4C28,14.3,28.3,14.6,28.7,14.6z"/>
</g>
</svg>
