<?xml version="1.0" encoding="utf-8"?>
<!-- Generator: Adobe Illustrator 23.0.1, SVG Export Plug-In . SVG Version: 6.00 Build 0)  -->
<svg version="1.0" id="图层_1" xmlns="http://www.w3.org/2000/svg" xmlns:xlink="http://www.w3.org/1999/xlink" x="0px" y="0px"
	 viewBox="0 0 38 38" style="enable-background:new 0 0 38 38;" xml:space="preserve">
<style type="text/css">
	.st0{fill:#e2edf2;}
</style>
<g>
	<path class="st0" d="M20,16.7c0.5,0,1-0.2,1.4-0.6c0.4-0.4,0.6-0.9,0.6-1.4c0-0.5-0.2-1-0.6-1.4c-0.8-0.8-2-0.8-2.8,0c-0.8,0.8-0.8,2,0,2.8
		C19,16.5,19.5,16.7,20,16.7z M19.6,14.3c0.1-0.1,0.2-0.2,0.4-0.2c0.1,0,0.3,0.1,0.4,0.2c0.1,0.1,0.2,0.2,0.2,0.4s-0.1,0.3-0.2,0.4
		c-0.2,0.2-0.6,0.2-0.8,0C19.4,14.9,19.4,14.5,19.6,14.3z"/>
	<path class="st0" d="M21.2,12.5c0.2,0,0.4,0.2,0.6,0.3c0.2,0.2,0.3,0.4,0.3,0.6c0.1,0.3,0.4,0.6,0.7,0.6c0,0,0.1,0,0.1,0
		c0.4-0.1,0.6-0.4,0.6-0.8c-0.1-0.5-0.3-1-0.7-1.3c-0.4-0.4-0.8-0.6-1.3-0.7c-0.4-0.1-0.7,0.2-0.8,0.6
		C20.6,12.1,20.9,12.5,21.2,12.5z"/>
	<path class="st0" d="M21.6,10.5c0.6,0.1,1.2,0.4,1.7,0.9c0.5,0.5,0.8,1,0.9,1.7c0.1,0.3,0.4,0.6,0.7,0.6c0,0,0.1,0,0.1,0
		c0.4-0.1,0.6-0.4,0.6-0.8c-0.2-0.9-0.6-1.7-1.3-2.4c-0.7-0.7-1.5-1.1-2.4-1.3c-0.4-0.1-0.7,0.2-0.8,0.6
		C21,10.1,21.2,10.4,21.6,10.5z"/>
	<path class="st0" d="M22,8.6c1,0.2,1.9,0.7,2.7,1.4c0.7,0.7,1.2,1.7,1.4,2.7c0.1,0.3,0.4,0.6,0.7,0.6c0,0,0.1,0,0.1,0c0.4-0.1,0.6-0.4,0.6-0.8
		c-0.3-1.3-0.9-2.5-1.8-3.4c-0.9-0.9-2.1-1.6-3.4-1.8c-0.4-0.1-0.7,0.2-0.8,0.6C21.4,8.1,21.6,8.5,22,8.6z"/>
	<path class="st0" d="M18.3,18.1c0,0,0.1,0,0.1,0c0.3,0,0.6-0.2,0.7-0.6c0.1-0.4-0.2-0.7-0.6-0.8c-0.2,0-0.4-0.2-0.6-0.3
		c-0.2-0.2-0.3-0.4-0.3-0.6c-0.1-0.4-0.4-0.6-0.8-0.6c-0.4,0.1-0.6,0.4-0.6,0.8c0.1,0.5,0.3,1,0.7,1.3S17.8,18,18.3,18.1z"/>
	<path class="st0" d="M17.9,20.1c0,0,0.1,0,0.1,0c0.3,0,0.6-0.2,0.7-0.6c0.1-0.4-0.2-0.7-0.6-0.8c-0.6-0.1-1.2-0.4-1.7-0.9
		c-0.5-0.5-0.8-1-0.9-1.7c-0.1-0.4-0.4-0.6-0.8-0.6c-0.4,0.1-0.6,0.4-0.6,0.8c0.2,0.9,0.6,1.7,1.3,2.4S17,20,17.9,20.1z"/>
	<path class="st0" d="M17.7,22.1c0.3,0,0.6-0.2,0.7-0.6c0.1-0.4-0.2-0.7-0.6-0.8c-1-0.2-1.9-0.7-2.7-1.4c-0.7-0.7-1.2-1.7-1.4-2.7
		c-0.1-0.4-0.4-0.6-0.8-0.6c-0.4,0.1-0.6,0.4-0.6,0.8c0.2,1.3,0.9,2.5,1.8,3.4c0.9,0.9,2.1,1.6,3.4,1.8
		C17.6,22.1,17.6,22.1,17.7,22.1z"/>
	<path class="st0" d="M13.2,26.1c0.5,0.1,1,0.2,1.4,0.2l1.4,1.4c0.3,0.3,0.8,0.5,1.2,0.5c0.4,0,0.9-0.2,1.2-0.5l1.4-1.4l1.6,0c0,0,0,0,0,0
		c0.7,0,1.3,0.6,1.3,1.3c0,0.7-0.6,1.3-1.3,1.3h-5.6c-0.4,0-0.7,0.3-0.7,0.7s0.3,0.7,0.7,0.7h5.6c1.5,0,2.7-1.2,2.7-2.7
		c0-1.5-1.2-2.7-2.7-2.7c0,0,0,0,0,0l-0.2,0l11.6-11.6c0.7-0.7,0.7-1.7,0-2.4l-9.2-9.2c-0.6-0.6-1.7-0.6-2.4,0L6.9,16.2
		c-0.7,0.7-0.7,1.7,0,2.4l6,6c-1.4-0.3-3.2-0.4-5.1,0.9c0,0,0,0,0,0c0,0,0,0,0,0L2.9,30c-0.3,0.3-0.3,0.7-0.1,1
		c0.1,0.2,0.3,0.2,0.5,0.2c0.2,0,0.3-0.1,0.5-0.2l4.9-4.3C10.3,25.5,11.9,25.8,13.2,26.1z M7.9,17.2L22.3,2.8
		c0.1-0.1,0.2-0.1,0.2-0.1s0.1,0,0.2,0.1l9.2,9.2C32,12,32,12.1,32,12.1c0,0,0,0.1-0.1,0.2L19.1,25.1c0,0,0,0,0,0l-1.6,1.6
		c-0.1,0.1-0.2,0.1-0.4,0l-9.2-9.2C7.8,17.5,7.8,17.3,7.9,17.2z"/>
	<path class="st0" d="M35,24.1c-0.3-0.6-0.9-1.1-1.6-1.3c-0.7-0.2-1.4-0.1-2.1,0.2c0,0,0,0,0,0c0,0,0,0,0,0L26,25.8c-0.3,0.2-0.5,0.6-0.3,0.9
		c0.1,0.2,0.4,0.4,0.6,0.4c0.1,0,0.2,0,0.3-0.1l5.3-2.9c0.3-0.2,0.7-0.2,1-0.1c0.3,0.1,0.6,0.3,0.8,0.6c0.3,0.6,0.1,1.4-0.5,1.8
		c0,0,0,0,0,0c0,0,0,0,0,0l-12.3,6.7H10.1c0,0,0,0,0,0c0,0,0,0-0.1,0c-1.7,0.2-2.7,1.6-3.2,2.5c-0.2,0.3-0.1,0.8,0.2,1
		c0.1,0.1,0.2,0.1,0.4,0.1c0.2,0,0.5-0.1,0.6-0.3c0.4-0.6,1.1-1.6,2.2-1.8h11c0,0,0,0,0,0c0,0,0,0,0,0c0,0,0,0,0,0
		c0.1,0,0.2,0,0.3-0.1c0,0,0,0,0,0l12.5-6.8c0,0,0,0,0,0C35.2,27,35.7,25.4,35,24.1z"/>
</g>
</svg>
