<?xml version="1.0" encoding="utf-8"?>
<!-- Generator: Adobe Illustrator 23.0.1, SVG Export Plug-In . SVG Version: 6.00 Build 0)  -->
<svg version="1.0" id="图层_1" xmlns="http://www.w3.org/2000/svg" xmlns:xlink="http://www.w3.org/1999/xlink" x="0px" y="0px"
	 viewBox="0 0 38 38" style="enable-background:new 0 0 38 38;" xml:space="preserve">
<style type="text/css">
	.st0{fill:#e2edf2;}
</style>
<g>
	<path class="st0" d="M26.1,4.1C26.1,4.1,26.1,4.1,26.1,4.1C26.1,4.1,26.1,4.1,26.1,4.1C26.1,4.1,26.1,4.1,26.1,4.1
		C26.1,4.1,26.1,4.1,26.1,4.1c-5.2,0-9.6,3.7-10.5,8.7l-0.1,0.3c-0.1,0.4,0.2,0.7,0.6,0.8c0.4,0.1,0.7-0.2,0.8-0.6l0-0.3
		c0.2-1.4,0.8-2.7,1.6-3.8c0.7,0.5,1.7,0.9,2.7,1.2c-0.2,1-0.3,1.9-0.4,2.7c0,0.4,0.3,0.7,0.6,0.8c0,0,0,0,0.1,0
		c0.4,0,0.7-0.3,0.7-0.6c0.1-0.7,0.2-1.6,0.4-2.5c0.9,0.1,1.9,0.2,2.6,0.2v3l-0.7,0c-0.4,0-0.7,0.3-0.7,0.7c0,0.4,0.3,0.7,0.7,0.7
		l0.7,0v3.1c-0.3,0-0.5,0-0.8,0c-0.4,0-0.7,0.4-0.7,0.7c0,0.4,0.3,0.7,0.7,0.7c0,0,0,0,0,0c0.2,0,0.5,0,0.7,0v3.5
		c-0.2-0.1-0.3-0.2-0.5-0.3c-0.3-0.3-0.7-0.2-1,0c-0.2,0.3-0.2,0.7,0,0.9c-0.1,0.1-0.1,0.2-0.2,0.3c-0.1,0.4,0.2,0.7,0.6,0.8
		c0.6,0.1,1.1,0.1,1.7,0.1c0,0,0,0,0,0c0,0,0,0,0,0c5.8,0,10.5-4.8,10.5-10.6C36.7,8.9,32,4.1,26.1,4.1z M33.5,20.1
		c-0.7-0.5-1.7-0.9-2.7-1.1c0.3-1.4,0.4-2.7,0.5-3.6l4,0C35.1,17.2,34.5,18.8,33.5,20.1z M29,20.1c-0.5,1.3-1.2,2.5-2.2,3.3v-3.5
		C27.5,19.9,28.3,20,29,20.1z M30.4,20.4c0.9,0.2,1.7,0.5,2.2,0.8c-1.1,1.1-2.4,1.9-3.8,2.3C29.5,22.6,30.1,21.5,30.4,20.4z
		 M31.3,14c0-0.9-0.1-2.2-0.4-3.5c1-0.2,2-0.6,2.7-1.2c1,1.3,1.6,2.9,1.7,4.7L31.3,14z M32.6,8.3c-0.5,0.4-1.3,0.7-2.2,0.9
		c-0.4-1.2-0.9-2.3-1.7-3.2C30.2,6.4,31.6,7.2,32.6,8.3z M26.8,6c1.1,0.8,1.8,2.1,2.3,3.4c-0.7,0.1-1.5,0.2-2.3,0.2V6z M19.6,8.3
		c1.1-1.1,2.4-1.9,3.9-2.3c-0.8,0.9-1.3,2.1-1.7,3.2C20.8,8.9,20.1,8.6,19.6,8.3z M25.4,6v3.6c-0.7,0-1.5-0.1-2.3-0.2
		C23.6,8.1,24.3,6.8,25.4,6z M26.8,11c0.6,0,1.6-0.1,2.6-0.2c0.3,1.3,0.4,2.5,0.4,3.3l-3,0V11z M29.9,15.4c0,0.8-0.1,2-0.4,3.3
		c-1-0.2-2-0.2-2.6-0.2v-3.1L29.9,15.4z"/>
	<path class="st0" d="M8.1,27.1h11.5c0.7,0,1.3-0.6,1.3-1.3v-7.4c0-0.7-0.6-1.3-1.3-1.3H8.1c-0.7,0-1.3,0.6-1.3,1.3v7.4
		C6.8,26.5,7.4,27.1,8.1,27.1z M8.2,18.5h11.3v7.2H8.2V18.5z"/>
	<path class="st0" d="M22.7,28.2c0.3-0.4,0.4-0.8,0.4-1.3v-9.7c0-1.2-1-2.2-2.2-2.2H6.7c-1.2,0-2.2,1-2.2,2.2v9.7
		c0,0.5,0.2,0.9,0.4,1.3l-3.2,3.4c-0.6,0.7-0.5,1.2-0.4,1.5c0.2,0.4,0.7,0.7,1.2,0.7h11.2c0,0,0,0,0,0s0,0,0,0h11.2
		c0.5,0,1-0.3,1.2-0.7c0.1-0.3,0.2-0.8-0.4-1.5L22.7,28.2z M5.9,17.2c0-0.4,0.4-0.8,0.8-0.8h14.2c0.4,0,0.8,0.4,0.8,0.8v9.7
		c0,0.4-0.4,0.8-0.8,0.8H6.7c-0.4,0-0.8-0.4-0.8-0.8V17.2z M13.8,32.5C13.8,32.5,13.8,32.5,13.8,32.5C13.8,32.5,13.8,32.5,13.8,32.5
		l-10.9,0l3.2-3.4c0.2,0.1,0.4,0.1,0.6,0.1h14.2c0.2,0,0.4,0,0.6-0.1l3.2,3.4H13.8z"/>
</g>
</svg>
