<?xml version="1.0" encoding="utf-8"?>
<!-- Generator: Adobe Illustrator 23.0.1, SVG Export Plug-In . SVG Version: 6.00 Build 0)  -->
<svg version="1.0" id="图层_1" xmlns="http://www.w3.org/2000/svg" xmlns:xlink="http://www.w3.org/1999/xlink" x="0px" y="0px"
	 viewBox="0 0 38 38" style="enable-background:new 0 0 38 38;" xml:space="preserve">
<style type="text/css">
	.st0{fill:#e2edf2;}
</style>
<path class="st0" d="M35,28.9c0,0,0-0.1,0-0.1v-3.9c0,0,0,0,0,0v-16c0,0,0-0.1,0-0.1c0-0.1,0-0.1,0-0.2c0,0,0-0.1-0.1-0.1c0,0,0-0.1-0.1-0.1
	c0,0-0.1-0.1-0.1-0.1c0,0,0,0-0.1-0.1l0,0c0,0,0,0,0,0L19.5,1.4c-0.2-0.1-0.5-0.1-0.7-0.1c0,0,0,0,0,0c-0.1,0-0.2,0-0.3,0.1
	c0,0,0,0,0,0L3.4,8.2c0,0,0,0,0,0l0,0c0,0,0,0-0.1,0.1c-0.1,0-0.1,0.1-0.1,0.1c0,0,0,0.1-0.1,0.1c0,0-0.1,0.1-0.1,0.1
	c0,0,0,0.1,0,0.2c0,0,0,0.1,0,0.1v16c0,0,0,0,0,0v0.8c0,0,0,0,0,0v3c0,0.2,0.1,0.4,0.2,0.5c0,0,0,0,0,0c0,0,0.1,0.1,0.2,0.1
	l15.3,7.2c0.1,0,0.2,0.1,0.3,0.1c0,0,0,0,0,0s0,0,0,0c0.1,0,0.2,0,0.3-0.1l15.3-7.2c0,0,0,0,0.1-0.1c0,0,0.1-0.1,0.1-0.1
	c0,0,0-0.1,0.1-0.1c0,0,0.1-0.1,0.1-0.1C35,29,35,28.9,35,28.9z M19,35.2L4.4,28.3v-1.6l14.3,6.4c0,0,0,0,0,0c0.1,0,0.2,0.1,0.2,0.1
	c0,0,0,0,0,0c0,0,0,0,0,0s0,0,0,0c0,0,0,0,0,0c0.1,0,0.2,0,0.2-0.1c0,0,0,0,0,0l14.3-6.4v1.6L19,35.2z M33.6,23.8l-3.5-1.4v-8.2
	c0,0,0-0.1,0-0.1c0-0.1,0-0.1,0-0.2c0,0,0-0.1-0.1-0.1c0,0,0-0.1-0.1-0.1c0,0-0.1-0.1-0.1-0.1c0,0,0,0-0.1-0.1l0,0c0,0,0,0,0,0
	l-5.8-2.6c0,0,0,0,0,0c0,0-0.1,0-0.2,0c0,0-0.1,0-0.1,0c0,0,0,0,0,0c0,0-0.1,0-0.1,0c-0.1,0-0.1,0-0.2,0c0,0-0.1,0-0.1,0.1
	c0,0-0.1,0-0.1,0.1c0,0-0.1,0.1-0.1,0.1c0,0,0,0-0.1,0.1c0,0,0,0,0,0c0,0,0,0.1,0,0.1c0,0,0,0.1,0,0.1c0,0,0,0,0,0v1.3l-0.6-0.2
	c-0.2-0.1-0.4-0.1-0.6,0l-2.2,0.8V3l14.1,6.3V23.8z M25.9,20.7v-6.1c0,0,0,0,0,0c0-0.3-0.2-0.6-0.5-0.8l-1.1-0.4v-0.8l4.4,2v7.2
	L25.9,20.7z M19.5,26.5v-7.9v-2.9l1.8,0.7v10.9L19.5,26.5z M23.5,14.6L22,15.1l-1.4-0.6L22,14L23.5,14.6z M22.7,16.4l1.8-0.7v5.5
	c0,0,0,0,0,0v5.3l-1.8,0.7V16.4z M18.1,14.6v4V27c0,0,0,0,0,0c0,0.1,0,0.2,0,0.2c0,0.1,0.1,0.2,0.1,0.2c0,0,0,0,0,0
	c0.1,0.1,0.1,0.1,0.2,0.2c0,0,0,0,0,0l3.2,1.3c0,0,0,0,0,0l0,0c0,0,0,0,0,0c0.1,0,0.1,0,0.2,0c0,0,0,0,0,0c0,0,0,0,0,0
	c0.1,0,0.2,0,0.3-0.1l3.2-1.3c0,0,0,0,0,0c0.1,0,0.2-0.1,0.2-0.2c0,0,0,0,0,0c0.1-0.1,0.1-0.1,0.1-0.2c0-0.1,0-0.1,0-0.2
	c0,0,0,0,0,0v-4.8l3.2,1.3c0,0,0.1,0,0.1,0l4.2,1.7L19,31.7L4.5,25.3l4.7-2v2.3c0,0,0,0,0,0c0,0.1,0,0.2,0,0.2
	c0,0.1,0.1,0.2,0.1,0.2c0,0,0,0,0,0c0.1,0.1,0.1,0.1,0.2,0.2c0,0,0,0,0,0l3.2,1.3c0,0,0.1,0,0.1,0c0.1,0,0.1,0,0.2,0c0,0,0,0,0,0
	c0,0,0,0,0,0c0.1,0,0.2,0,0.3-0.1l3.2-1.3c0,0,0,0,0,0c0.1,0,0.2-0.1,0.2-0.2c0,0,0,0,0,0c0.1-0.1,0.1-0.2,0.1-0.3
	c0-0.1,0-0.1,0-0.2c0,0,0,0,0,0V13.3c0,0,0,0,0,0c0,0,0,0,0,0c0-0.3-0.2-0.6-0.5-0.8l-3.1-1.2c-0.2-0.1-0.4-0.1-0.6,0l-3.1,1.2
	c-0.3,0.1-0.5,0.4-0.5,0.8c0,0,0,0,0,0c0,0,0,0,0,0v8.5l-4.8,2V9.3l13.7-6.2V14.6z M15.6,25.2L13.8,26V15.1l1.8-0.7V25.2z
	 M13.1,13.8l-1.4-0.6l1.4-0.6l1.4,0.6L13.1,13.8z M12.4,15.1v10.9l-1.8-0.7V14.4L12.4,15.1z"/>
</svg>
