<?xml version="1.0" encoding="utf-8"?>
<!-- Generator: Adobe Illustrator 23.0.1, SVG Export Plug-In . SVG Version: 6.00 Build 0)  -->
<svg version="1.0" id="图层_1" xmlns="http://www.w3.org/2000/svg" xmlns:xlink="http://www.w3.org/1999/xlink" x="0px" y="0px"
	 viewBox="0 0 38 38" style="enable-background:new 0 0 38 38;" xml:space="preserve">
<style type="text/css">
	.st0{fill:#e2edf2;}
</style>
<g>
	<path class="st0" d="M30.2,3.2h-3.1V2.8c0-0.8-0.7-1.5-1.5-1.5H12.1c-0.8,0-1.5,0.7-1.5,1.5v0.5H7.8c-1.5,0-2.7,1.2-2.7,2.7v28.1
		c0,1.5,1.2,2.6,2.7,2.6h22.5c1.5,0,2.7-1.2,2.7-2.7V5.9C32.9,4.4,31.7,3.2,30.2,3.2z M12.1,2.7l13.6,0.1v2.4c0,0,0,0.1-0.1,0.1
		L12,5.1L12.1,2.7z M31.5,34c0,0.7-0.6,1.3-1.3,1.3H7.7c-0.7,0-1.3-0.6-1.3-1.2V5.9c0-0.7,0.6-1.3,1.3-1.3h2.9v0.5
		c0,0.8,0.7,1.5,1.5,1.5h13.6c0.8,0,1.5-0.7,1.5-1.5V4.6h3.1c0.7,0,1.3,0.6,1.3,1.3V34z"/>
	<path class="st0" d="M13.9,11.2L12.1,13l-0.6-0.5c-0.3-0.3-0.7-0.3-1,0c-0.3,0.3-0.3,0.7,0,1l1,1c0,0,0.1,0.1,0.1,0.1c0,0,0.1,0,0.1,0.1
		c0.1,0,0.2,0.1,0.3,0.1s0.2,0,0.3-0.1c0,0,0.1,0,0.1-0.1c0.1,0,0.1-0.1,0.1-0.1l2.3-2.2c0.3-0.3,0.3-0.7,0-1
		C14.6,10.9,14.2,10.9,13.9,11.2z"/>
	<path class="st0" d="M28.3,10.9h-9.8c-0.4,0-0.7,0.3-0.7,0.7s0.3,0.7,0.7,0.7h9.8c0.4,0,0.7-0.3,0.7-0.7S28.7,10.9,28.3,10.9z"/>
	<path class="st0" d="M28.3,13.3h-9.8c-0.4,0-0.7,0.3-0.7,0.7s0.3,0.7,0.7,0.7h9.8c0.4,0,0.7-0.3,0.7-0.7S28.7,13.3,28.3,13.3z"/>
	<path class="st0" d="M13.9,18.9l-1.8,1.8l-0.6-0.5c-0.3-0.3-0.7-0.3-1,0c-0.3,0.3-0.3,0.7,0,1l1,1c0,0,0.1,0.1,0.2,0.1c0,0,0,0,0.1,0
		c0.1,0,0.2,0.1,0.3,0.1s0.2,0,0.3-0.1c0,0,0,0,0.1,0c0.1,0,0.1-0.1,0.2-0.1l2.3-2.2c0.3-0.3,0.3-0.7,0-1
		C14.6,18.7,14.2,18.7,13.9,18.9z"/>
	<path class="st0" d="M28.3,18.7h-9.8c-0.4,0-0.7,0.3-0.7,0.7s0.3,0.7,0.7,0.7h9.8c0.4,0,0.7-0.3,0.7-0.7S28.7,18.7,28.3,18.7z"/>
	<path class="st0" d="M28.3,21.1h-9.8c-0.4,0-0.7,0.3-0.7,0.7s0.3,0.7,0.7,0.7h9.8c0.4,0,0.7-0.3,0.7-0.7S28.7,21.1,28.3,21.1z"/>
	<path class="st0" d="M13.9,26.7l-1.8,1.8l-0.6-0.5c-0.3-0.3-0.7-0.3-1,0c-0.3,0.3-0.3,0.7,0,1l1,1c0.1,0.1,0.1,0.1,0.2,0.1c0,0,0,0,0,0
		c0.1,0,0.2,0.1,0.3,0.1c0.1,0,0.2,0,0.3-0.1c0,0,0.1,0,0.1-0.1c0,0,0.1-0.1,0.1-0.1l2.3-2.2c0.3-0.3,0.3-0.7,0-1
		C14.6,26.4,14.2,26.4,13.9,26.7z"/>
	<path class="st0" d="M28.3,26.4h-9.8c-0.4,0-0.7,0.3-0.7,0.7s0.3,0.7,0.7,0.7h9.8c0.4,0,0.7-0.3,0.7-0.7S28.7,26.4,28.3,26.4z"/>
	<path class="st0" d="M28.3,28.8h-9.8c-0.4,0-0.7,0.3-0.7,0.7s0.3,0.7,0.7,0.7h9.8c0.4,0,0.7-0.3,0.7-0.7S28.7,28.8,28.3,28.8z"/>
</g>
</svg>
