<?xml version="1.0" encoding="utf-8"?>
<!-- Generator: Adobe Illustrator 23.0.1, SVG Export Plug-In . SVG Version: 6.00 Build 0)  -->
<svg version="1.0" id="图层_1" xmlns="http://www.w3.org/2000/svg" xmlns:xlink="http://www.w3.org/1999/xlink" x="0px" y="0px"
	 viewBox="0 0 38 38" style="enable-background:new 0 0 38 38;" xml:space="preserve">
<style type="text/css">
	.st0{fill:#e2edf2;}
</style>
<g>
	<path class="st0" d="M28.5,4.2l2.7-1.1c0.3-0.1,0.5-0.5,0.3-0.8C31.4,2,31.1,1.9,30.7,2l-3.9,1.6c0,0,0,0,0,0c0,0,0,0-0.1,0
		c0,0-0.1,0-0.1,0.1c0,0,0,0,0,0c0,0,0,0-0.1,0.1c0,0,0,0,0,0c0,0,0,0-0.1,0.1c0,0,0,0,0,0c0,0,0,0,0,0c0,0,0,0.1,0,0.1
		c0,0,0,0.1,0,0.1c0,0,0,0,0,0l0,0c0,0,0,0,0,0l-0.1,4.3c0,0.3,0.3,0.6,0.6,0.6c0,0,0,0,0,0c0.3,0,0.6-0.3,0.6-0.6l0.1-3.3
		c4.8,3,7.7,8.2,7.7,13.9c0,7.9-5.7,14.7-13.5,16.1c-0.3,0.1-0.5,0.4-0.5,0.7c0.1,0.3,0.3,0.5,0.6,0.5c0,0,0.1,0,0.1,0
		c8.4-1.5,14.4-8.8,14.4-17.3C36.6,13,33.5,7.5,28.5,4.2z"/>
	<path class="st0" d="M11.3,34.1C11.3,34.1,11.3,34,11.3,34.1l-0.1-4.3c0-0.3-0.3-0.6-0.6-0.6c0,0,0,0,0,0c-0.3,0-0.6,0.3-0.6,0.6
		l0.1,3c-4.6-3-7.5-8.2-7.5-13.8c0-8.4,6.3-15.4,14.7-16.3c0.3,0,0.6-0.3,0.5-0.7c0-0.3-0.3-0.6-0.7-0.5c-9,1-15.7,8.5-15.7,17.5
		c0,6,3.1,11.6,8.1,14.8l-3,1.4c-0.3,0.1-0.4,0.5-0.3,0.8c0.1,0.2,0.3,0.3,0.5,0.3c0.1,0,0.2,0,0.2-0.1l3.9-1.8c0,0,0,0,0,0l0,0
		c0,0,0,0,0.1,0c0,0,0.1-0.1,0.1-0.1c0,0,0-0.1,0.1-0.1c0,0,0-0.1,0.1-0.1C11.3,34.2,11.3,34.1,11.3,34.1z"/>
	<path class="st0" d="M21.7,29.8c0.3,0,0.5-0.2,0.6-0.5l0.6-3L24,28c0.1,0.2,0.3,0.3,0.5,0.3c0.1,0,0.2,0,0.3-0.1
		c0.3-0.2,0.4-0.6,0.2-0.8l-1.1-1.7l3,0.6c0,0,0.1,0,0.1,0c0.3,0,0.5-0.2,0.6-0.5c0.1-0.3-0.1-0.6-0.5-0.7l-4.2-0.8L20.1,20h5.1l3,3
		c0.1,0.1,0.3,0.2,0.4,0.2s0.3-0.1,0.4-0.2c0.2-0.2,0.2-0.6,0-0.8L26.9,20h2c0.3,0,0.6-0.3,0.6-0.6s-0.3-0.6-0.6-0.6h-2l2.2-2.2
		c0.2-0.2,0.2-0.6,0-0.8s-0.6-0.2-0.8,0l-3,3h-5.1l2.8-4.2l4.2-0.8c0.3-0.1,0.5-0.4,0.5-0.7c-0.1-0.3-0.4-0.5-0.7-0.5l-3,0.6
		l1.1-1.7c0.2-0.3,0.1-0.6-0.2-0.8c-0.3-0.2-0.6-0.1-0.8,0.2l-1.1,1.7l-0.6-3c-0.1-0.3-0.4-0.5-0.7-0.5C21.2,9,21,9.4,21.1,9.7
		l0.8,4.2L19,18.3l-2.9-4.4l0.8-4.2C17,9.4,16.8,9,16.5,9c-0.3-0.1-0.6,0.1-0.7,0.5l-0.6,3L14,10.8c-0.2-0.3-0.6-0.4-0.8-0.2
		c-0.3,0.2-0.4,0.6-0.2,0.8l1.1,1.7l-3-0.6c-0.3-0.1-0.6,0.1-0.7,0.5s0.1,0.6,0.5,0.7l4.2,0.8l2.8,4.2h-5.1l-3-3
		c-0.2-0.2-0.6-0.2-0.8,0s-0.2,0.6,0,0.8l2.2,2.2h-2c-0.3,0-0.6,0.3-0.6,0.6S8.8,20,9.1,20h2l-2.2,2.2c-0.2,0.2-0.2,0.6,0,0.8
		c0.1,0.1,0.3,0.2,0.4,0.2s0.3-0.1,0.4-0.2l3-3h5.1l-2.8,4.2l-4.2,0.8c-0.3,0.1-0.5,0.4-0.5,0.7c0.1,0.3,0.3,0.5,0.6,0.5
		c0,0,0.1,0,0.1,0l3-0.6L13,27.3c-0.2,0.3-0.1,0.6,0.2,0.8c0.1,0.1,0.2,0.1,0.3,0.1c0.2,0,0.4-0.1,0.5-0.3l1.1-1.7l0.6,3
		c0.1,0.3,0.3,0.5,0.6,0.5c0,0,0.1,0,0.1,0c0.3-0.1,0.5-0.4,0.5-0.7l-0.8-4.2l2.9-4.4l2.9,4.4l-0.8,4.2c-0.1,0.3,0.1,0.6,0.5,0.7
		C21.6,29.8,21.6,29.8,21.7,29.8z"/>
</g>
</svg>
