<?xml version="1.0" encoding="utf-8"?>
<!-- Generator: Adobe Illustrator 23.0.1, SVG Export Plug-In . SVG Version: 6.00 Build 0)  -->
<svg version="1.0" id="图层_1" xmlns="http://www.w3.org/2000/svg" xmlns:xlink="http://www.w3.org/1999/xlink" x="0px" y="0px"
	 viewBox="0 0 38 38" style="enable-background:new 0 0 38 38;" xml:space="preserve">
<style type="text/css">
	.st0{fill:#e2edf2;}
</style>
<g>
	<path class="st0" d="M23.5,12.6c0-0.1,0-0.1-0.1-0.1c0,0,0-0.1,0-0.1c0,0-0.1-0.1-0.1-0.1c0,0-0.1-0.1-0.1-0.1c0,0,0,0,0,0
		c0,0-0.1,0-0.1,0c0,0-0.1,0-0.2-0.1c0,0-0.1,0-0.1,0c0,0-0.1,0-0.1,0l-2.1,0.3l0.8-4.5c0,0,0,0,0,0c0-0.1,0-0.2,0-0.2
		c0,0,0-0.1-0.1-0.1c0,0,0-0.1-0.1-0.1c0-0.1-0.1-0.1-0.2-0.2c0,0,0,0,0,0c0,0,0,0,0,0c-0.1,0-0.1,0-0.2-0.1c0,0-0.1,0-0.1,0
		c0,0,0,0,0,0c-0.2,0-0.4,0-0.5,0.1c0,0,0,0,0,0c-0.1,0.1-0.1,0.1-0.2,0.2l-5.2,8c0,0,0,0.1,0,0.1c0,0,0,0.1-0.1,0.1
		c0,0,0,0.1,0,0.1c0,0,0,0.1,0,0.1c0,0,0,0,0,0c0,0,0,0.1,0,0.1c0,0,0,0.1,0.1,0.1c0,0,0,0.1,0.1,0.1c0,0,0.1,0.1,0.1,0.1
		c0,0,0,0,0,0c0,0,0.1,0,0.1,0c0,0,0,0,0.1,0c0.1,0,0.1,0,0.2,0c0,0,0,0,0,0c0,0,0,0,0,0c0,0,0,0,0,0s0,0,0,0c0,0,0.1,0,0.1,0
		l2.1-0.3L17,20.6c0,0.1,0,0.2,0,0.3c0,0,0,0.1,0,0.1c0,0,0,0.1,0.1,0.1c0.1,0.1,0.1,0.1,0.2,0.2c0,0,0,0,0,0l0,0c0,0,0,0,0,0
		c0.1,0,0.1,0.1,0.2,0.1c0,0,0,0,0,0c0,0,0.1,0,0.1,0c0,0,0,0,0,0c0,0,0,0,0,0c0,0,0,0,0,0c0.1,0,0.2,0,0.3-0.1c0,0,0,0,0.1,0
		c0.1,0,0.1-0.1,0.2-0.2c0,0,0,0,0,0l5.2-8c0,0,0-0.1,0-0.1c0,0,0-0.1,0.1-0.1c0,0,0-0.1,0-0.1C23.5,12.7,23.6,12.7,23.5,12.6
		C23.6,12.7,23.5,12.7,23.5,12.6z M19.3,15.3c0,0,0-0.1,0-0.1c0,0,0,0,0,0c0,0,0-0.1,0-0.1c0,0,0-0.1-0.1-0.1c0,0,0-0.1-0.1-0.1
		c0,0-0.1-0.1-0.1-0.1c0,0-0.1,0-0.1,0c-0.1,0-0.1,0-0.2-0.1c0,0,0,0,0,0c0,0-0.1,0-0.1,0c0,0-0.1,0-0.1,0l-1.6,0.2l2.5-3.8L19.1,13
		c0,0,0,0.1,0,0.1c0,0,0,0.1,0,0.1c0,0,0,0,0,0c0,0,0,0.1,0,0.1c0,0,0,0.1,0.1,0.1c0,0,0,0.1,0.1,0.1c0,0,0.1,0.1,0.1,0.1
		c0,0,0.1,0,0.1,0.1c0,0,0.1,0,0.1,0.1c0,0,0,0,0.1,0c0,0,0.1,0,0.1,0c0,0,0,0,0,0c0,0,0,0,0,0c0,0,0,0,0,0c0,0,0,0,0,0
		c0,0,0.1,0,0.1,0l1.6-0.2l-2.5,3.9l0.4-2.1C19.3,15.4,19.3,15.4,19.3,15.3z"/>
	<path class="st0" d="M30.2,13.7c0-6.2-5-11.2-11.2-11.2c-6.2,0-11.2,5-11.2,11.2c0,4,2.1,7.6,5.5,9.6v6.3v0.2V30
		c0,2,1.5,3.5,3.5,3.7c0.3,1.1,1.3,1.9,2.5,1.9c1.2,0,2.2-0.8,2.4-1.9c1.9-0.1,3.5-1.7,3.5-3.7v-0.2v-0.2v-6.5
		C28.3,21,30.2,17.5,30.2,13.7z M14.7,27.9h9v1h-9V27.9z M23.7,26.5h-9v-1h9V26.5z M19.2,34.1c-0.4,0-0.7-0.2-0.9-0.5h1.8
		C19.9,34,19.6,34.1,19.2,34.1z M21.4,32.3H17c-1.2,0-2.1-0.9-2.2-2h9C23.5,31.4,22.6,32.3,21.4,32.3z M24,22.1
		C24,22.1,24,22.2,24,22.1c-0.1,0.1-0.1,0.1-0.2,0.2c0,0-0.1,0.1-0.1,0.1c0,0,0,0.1-0.1,0.1c0,0,0,0.1,0,0.1c0,0,0,0.1,0,0.1v1.4h-9
		V23c0,0,0-0.1,0-0.1c0,0,0-0.1,0-0.1c0,0,0-0.1-0.1-0.1c0,0,0-0.1-0.1-0.1c0,0-0.1-0.1-0.1-0.1c0,0,0,0-0.1-0.1
		c-3.2-1.7-5.1-5-5.1-8.6c0-5.4,4.4-9.8,9.8-9.8s9.8,4.4,9.8,9.8C28.8,17.2,27,20.3,24,22.1z"/>
	<path class="st0" d="M30.8,7.7c0.1,0,0.3,0,0.4-0.1l2.9-1.8c0.3-0.2,0.4-0.6,0.2-1c-0.2-0.3-0.6-0.4-1-0.2l-2.9,1.8
		c-0.3,0.2-0.4,0.6-0.2,1C30.4,7.6,30.6,7.7,30.8,7.7z"/>
	<path class="st0" d="M36,13h-3.7c-0.4,0-0.7,0.3-0.7,0.7s0.3,0.7,0.7,0.7H36c0.4,0,0.7-0.3,0.7-0.7S36.4,13,36,13z"/>
	<path class="st0" d="M34,21.6l-3.1-2c-0.3-0.2-0.8-0.1-1,0.2c-0.2,0.3-0.1,0.8,0.2,1l3.1,2c0.1,0.1,0.2,0.1,0.4,0.1
		c0.2,0,0.5-0.1,0.6-0.3C34.4,22.2,34.3,21.8,34,21.6z"/>
	<path class="st0" d="M3.9,5.8l2.9,1.8c0.1,0.1,0.2,0.1,0.4,0.1c0.2,0,0.5-0.1,0.6-0.3C8,7,7.9,6.6,7.6,6.4L4.6,4.6
		c-0.3-0.2-0.8-0.1-1,0.2C3.5,5.1,3.6,5.6,3.9,5.8z"/>
	<path class="st0" d="M6.4,13.7c0-0.4-0.3-0.7-0.7-0.7H2c-0.4,0-0.7,0.3-0.7,0.7s0.3,0.7,0.7,0.7h3.7C6.1,14.4,6.4,14.1,6.4,13.7z"
		/>
	<path class="st0" d="M7.1,19.6l-3.1,2c-0.3,0.2-0.4,0.6-0.2,1c0.1,0.2,0.4,0.3,0.6,0.3c0.1,0,0.3,0,0.4-0.1l3.1-2
		c0.3-0.2,0.4-0.6,0.2-1C7.9,19.5,7.5,19.4,7.1,19.6z"/>
</g>
</svg>
