<?xml version="1.0" encoding="utf-8"?>
<!-- Generator: Adobe Illustrator 23.0.1, SVG Export Plug-In . SVG Version: 6.00 Build 0)  -->
<svg version="1.0" id="图层_1" xmlns="http://www.w3.org/2000/svg" xmlns:xlink="http://www.w3.org/1999/xlink" x="0px" y="0px"
	 viewBox="0 0 38 38" style="enable-background:new 0 0 38 38;" xml:space="preserve">
<style type="text/css">
	.st0{fill:#e2edf2;}
</style>
<g>
	<path class="st0" d="M19.3,12.1c0.4,0,0.7-0.3,0.7-0.7s-0.3-0.7-0.7-0.7c-3.5,0-6.3,2.9-6.3,6.5c0,0.4,0.3,0.7,0.7,0.7s0.7-0.3,0.7-0.7
		C14.4,14.4,16.6,12.1,19.3,12.1z"/>
	<path class="st0" d="M31.4,28.1h-2.7V17.2c0-4.2-2.5-7.8-6-9.4c-0.2-2-1.9-3.6-4-3.6c-2.1,0-3.7,1.6-4,3.6c-3.5,1.6-6,5.2-6,9.4v10.9H6.6
		c-0.4,0-0.7,0.3-0.7,0.7s0.3,0.7,0.7,0.7H14c0.3,2.4,2.3,4.2,4.8,4.2s4.4-1.8,4.8-4.2h7.9c0.4,0,0.7-0.3,0.7-0.7
		S31.8,28.1,31.4,28.1z M18.8,5.7c1.1,0,2,0.7,2.4,1.6C20.4,7.1,19.6,7,18.8,7s-1.6,0.1-2.4,0.3C16.7,6.3,17.7,5.7,18.8,5.7z
		 M10.2,17.2c0-4.9,3.9-8.8,8.6-8.8s8.6,3.9,8.6,8.8v10.9H10.2V17.2z M18.8,32.3c-1.7,0-3.1-1.2-3.4-2.8h6.7
		C21.8,31.1,20.4,32.3,18.8,32.3z"/>
	<path class="st0" d="M31.7,14c-0.4,0.1-0.5,0.5-0.4,0.9c0.3,0.9,0.5,1.9,0.5,2.9c0,1-0.2,2-0.5,2.9c-0.1,0.4,0.1,0.8,0.4,0.9c0.1,0,0.2,0,0.2,0
		c0.3,0,0.6-0.2,0.7-0.5c0.4-1.1,0.6-2.2,0.6-3.4c0-1.2-0.2-2.3-0.6-3.4C32.5,14.1,32.1,13.9,31.7,14z"/>
	<path class="st0" d="M35.6,12.7c-0.2-0.4-0.6-0.5-0.9-0.4c-0.4,0.2-0.5,0.6-0.4,0.9c0.6,1.5,0.9,3,0.9,4.7c0,1.6-0.3,3.2-0.9,4.6
		c-0.2,0.4,0,0.8,0.4,0.9c0.1,0,0.2,0.1,0.3,0.1c0.3,0,0.5-0.2,0.6-0.4c0.7-1.6,1-3.4,1-5.2C36.7,16.1,36.3,14.3,35.6,12.7z"/>
	<path class="st0" d="M6.3,21.7c0.4-0.1,0.5-0.5,0.4-0.9c-0.3-0.9-0.5-1.9-0.5-2.9c0-1,0.2-2,0.5-2.9c0.1-0.4-0.1-0.8-0.4-0.9
		c-0.4-0.1-0.8,0.1-0.9,0.4c-0.4,1.1-0.6,2.2-0.6,3.4c0,1.2,0.2,2.3,0.6,3.4c0.1,0.3,0.4,0.5,0.7,0.5C6.1,21.7,6.2,21.7,6.3,21.7z"
		/>
	<path class="st0" d="M3.3,12.3c-0.4-0.2-0.8,0-0.9,0.4c-0.7,1.6-1.1,3.4-1.1,5.2c0,1.8,0.4,3.5,1,5.2c0.1,0.3,0.4,0.4,0.6,0.4
		c0.1,0,0.2,0,0.3-0.1c0.4-0.2,0.5-0.6,0.4-0.9c-0.6-1.5-0.9-3-0.9-4.6c0-1.6,0.3-3.2,0.9-4.7C3.8,12.8,3.6,12.4,3.3,12.3z"/>
</g>
</svg>
