<?xml version="1.0" encoding="utf-8"?>
<!-- Generator: Adobe Illustrator 23.0.1, SVG Export Plug-In . SVG Version: 6.00 Build 0)  -->
<svg version="1.0" id="图层_1" xmlns="http://www.w3.org/2000/svg" xmlns:xlink="http://www.w3.org/1999/xlink" x="0px" y="0px"
	 viewBox="0 0 38 38" style="enable-background:new 0 0 38 38;" xml:space="preserve">
<style type="text/css">
	.st0{fill:#e2edf2;}
</style>
<g>
	<path class="st0" d="M28.7,4.3l2.6-1c0.4-0.1,0.5-0.6,0.4-0.9c-0.1-0.4-0.6-0.5-0.9-0.4l-3.9,1.6c0,0-0.1,0-0.1,0.1
		c0,0-0.1,0-0.1,0c-0.1,0-0.1,0.1-0.1,0.2c0,0,0,0,0,0c0,0,0,0,0,0c0,0.1,0,0.1-0.1,0.2c0,0,0,0.1,0,0.1c0,0,0,0,0,0l-0.1,4.3
		c0,0.4,0.3,0.7,0.7,0.7c0,0,0,0,0,0c0.4,0,0.7-0.3,0.7-0.7l0.1-3.1c4.7,3,7.5,8.1,7.5,13.7c0,7.9-5.6,14.6-13.4,16
		c-0.4,0.1-0.6,0.4-0.6,0.8c0.1,0.3,0.4,0.6,0.7,0.6c0,0,0.1,0,0.1,0c8.4-1.5,14.5-8.9,14.5-17.4C36.7,13.1,33.7,7.5,28.7,4.3z"/>
	<path class="st0" d="M11.4,34l-0.1-4.2c0-0.4-0.4-0.7-0.7-0.7c-0.4,0-0.7,0.3-0.7,0.7l0,2.8c-4.5-3-7.3-8.1-7.3-13.6
		C2.7,10.7,9,3.8,17.3,2.9c0.4,0,0.7-0.4,0.6-0.8c0-0.4-0.4-0.7-0.8-0.6c-9,1-15.8,8.5-15.8,17.6c0,6,3,11.5,8,14.8l-2.8,1.3
		c-0.4,0.2-0.5,0.6-0.3,0.9c0.1,0.3,0.4,0.4,0.6,0.4c0.1,0,0.2,0,0.3-0.1l3.9-1.8c0,0,0,0,0,0l0,0c0,0,0,0,0.1,0
		c0.1,0,0.1-0.1,0.2-0.1c0,0,0.1-0.1,0.1-0.1c0,0,0.1-0.1,0.1-0.1C11.4,34.2,11.4,34.1,11.4,34C11.4,34,11.4,34,11.4,34L11.4,34
		C11.4,34,11.4,34,11.4,34z"/>
	<path class="st0" d="M11.8,19.7c-0.2-0.1-0.4-0.1-0.5,0c-0.1,0-0.2,0.1-0.2,0.2l-1.9,1.9c-0.3,0.3-0.3,0.7,0,1
		C9.2,22.9,9.4,23,9.6,23s0.4-0.1,0.5-0.2l0.7-0.7v4.6c0,0.4,0.3,0.7,0.7,0.7s0.7-0.3,0.7-0.7v-6.3c0-0.1,0-0.2-0.1-0.3
		C12.1,19.9,12,19.8,11.8,19.7z"/>
	<path class="st0" d="M16.2,19.6c-1.3,0-2.3,1-2.3,2.3V25c0,1.3,1,2.3,2.3,2.3s2.3-1,2.3-2.3v-3.1C18.5,20.6,17.5,19.6,16.2,19.6z
		 M17.1,25c0,0.5-0.4,0.9-0.9,0.9s-0.9-0.4-0.9-0.9v-3.1c0-0.5,0.4-0.9,0.9-0.9s0.9,0.4,0.9,0.9V25z"/>
	<path class="st0" d="M22.1,22v4.6c0,0.4,0.3,0.7,0.7,0.7s0.7-0.3,0.7-0.7v-6.3c0-0.1,0-0.2-0.1-0.3c-0.1-0.2-0.2-0.3-0.4-0.4
		c-0.2-0.1-0.4-0.1-0.5,0c-0.1,0-0.2,0.1-0.2,0.2l-1.9,1.9c-0.3,0.3-0.3,0.7,0,1c0.1,0.1,0.3,0.2,0.5,0.2s0.4-0.1,0.5-0.2L22.1,22z"
		/>
	<path class="st0" d="M27.5,27.3c1.3,0,2.3-1,2.3-2.3v-3.1c0-1.3-1-2.3-2.3-2.3s-2.3,1-2.3,2.3V25C25.2,26.3,26.2,27.3,27.5,27.3z
		 M26.6,21.9c0-0.5,0.4-0.9,0.9-0.9s0.9,0.4,0.9,0.9V25c0,0.5-0.4,0.9-0.9,0.9s-0.9-0.4-0.9-0.9V21.9z"/>
	<path class="st0" d="M18.2,11.2c-0.2-0.1-0.4-0.1-0.5,0c-0.1,0-0.2,0.1-0.2,0.2l-1.9,1.9c-0.3,0.3-0.3,0.7,0,1
		c0.1,0.1,0.3,0.2,0.5,0.2s0.4-0.1,0.5-0.2l0.7-0.7v4.6c0,0.4,0.3,0.7,0.7,0.7s0.7-0.3,0.7-0.7v-6.3c0-0.1,0-0.2-0.1-0.3
		C18.5,11.4,18.4,11.2,18.2,11.2z"/>
	<path class="st0" d="M28.8,18.8c0.4,0,0.7-0.3,0.7-0.7v-6.3c0-0.1,0-0.2-0.1-0.3c-0.1-0.2-0.2-0.3-0.4-0.4c-0.2-0.1-0.4-0.1-0.5,0
		c-0.1,0-0.2,0.1-0.2,0.2l-1.9,1.9c-0.3,0.3-0.3,0.7,0,1c0.1,0.1,0.3,0.2,0.5,0.2s0.4-0.1,0.5-0.2l0.7-0.7v4.6
		C28.1,18.5,28.4,18.8,28.8,18.8z"/>
	<path class="st0" d="M13.9,13.4c0-1.3-1-2.3-2.3-2.3s-2.3,1-2.3,2.3v3.1c0,1.3,1,2.3,2.3,2.3s2.3-1,2.3-2.3V13.4z M12.5,16.5
		c0,0.5-0.4,0.9-0.9,0.9s-0.9-0.4-0.9-0.9v-3.1c0-0.5,0.4-0.9,0.9-0.9s0.9,0.4,0.9,0.9V16.5z"/>
	<path class="st0" d="M22.4,18.8c1.3,0,2.3-1,2.3-2.3v-3.1c0-1.3-1-2.3-2.3-2.3s-2.3,1-2.3,2.3v3.1C20.1,17.8,21.1,18.8,22.4,18.8z
		 M21.5,13.4c0-0.5,0.4-0.9,0.9-0.9s0.9,0.4,0.9,0.9v3.1c0,0.5-0.4,0.9-0.9,0.9s-0.9-0.4-0.9-0.9V13.4z"/>
</g>
</svg>
