<?xml version="1.0" encoding="utf-8"?>
<!-- Generator: Adobe Illustrator 23.0.1, SVG Export Plug-In . SVG Version: 6.00 Build 0)  -->
<svg version="1.0" id="图层_1" xmlns="http://www.w3.org/2000/svg" xmlns:xlink="http://www.w3.org/1999/xlink" x="0px" y="0px"
	 viewBox="0 0 38 38" style="enable-background:new 0 0 38 38;" xml:space="preserve">
<style type="text/css">
	.st0{fill:#e2edf2;}
</style>
<path class="st0" d="M34.8,25.3c-0.2-0.8-0.7-1.5-1.5-1.9c-0.2-0.1-0.5-0.2-0.8-0.3v-8.3c0.3-0.1,0.5-0.2,0.8-0.3
	c1.5-0.8,2-2.7,1.2-4.2c-0.4-0.7-1.1-1.2-1.9-1.5c-0.7-0.2-1.3-0.1-2,0.1L22.1,4c-0.2-1.5-1.5-2.7-3-2.7S16.2,2.5,16,4L7.4,9
	c-1.4-0.5-3,0-3.8,1.4c-0.8,1.5-0.3,3.4,1.2,4.2c0.3,0.1,0.5,0.2,0.8,0.3v8.3c-0.3,0.1-0.5,0.2-0.8,0.3c-1.5,0.8-2,2.7-1.2,4.2
	c0.6,1,1.6,1.6,2.7,1.6c0.4,0,0.7-0.1,1.1-0.2L16,34c0.2,1.5,1.5,2.7,3,2.7s2.8-1.2,3-2.7l8.6-5.1c0.4,0.1,0.7,0.2,1.1,0.2
	c0.3,0,0.6,0,0.8-0.1c0.8-0.2,1.5-0.7,1.9-1.5C34.9,26.9,35,26.1,34.8,25.3z M19.7,30.6v-4.1c2.3-0.2,4.3-1.4,5.5-3.2l3.6,2
	c-0.3,1,0,2,0.6,2.8l-7.5,4.4C21.6,31.6,20.7,30.8,19.7,30.6z M16.2,32.5l-7.5-4.4c0.3-0.3,0.5-0.7,0.6-1.1c0.2-0.6,0.1-1.1,0-1.7
	l3.6-2c1.3,1.8,3.3,3,5.5,3.2v4.1C17.3,30.8,16.5,31.6,16.2,32.5z M7.1,14.8c0.6-0.2,1.1-0.5,1.4-0.9l3.5,2c-0.4,0.9-0.6,2-0.6,3
	c0,1.1,0.2,2.2,0.7,3.1l-3.5,2c-0.4-0.5-1-0.8-1.6-0.9v-8.2C7,14.9,7.1,14.9,7.1,14.8z M18.3,7.4v4c-2.3,0.2-4.4,1.5-5.6,3.3l-3.5-2
	c0.2-0.5,0.2-1.1,0-1.7c-0.1-0.4-0.3-0.8-0.6-1.1l7.5-4.4C16.5,6.4,17.3,7.2,18.3,7.4z M21.9,5.5l7.5,4.4c-0.6,0.8-0.9,1.8-0.6,2.8
	l-3.5,2c-1.2-1.8-3.3-3.1-5.6-3.3v-4C20.7,7.2,21.6,6.4,21.9,5.5z M19,25.2c-3.4,0-6.2-2.8-6.2-6.2c0-3.4,2.8-6.2,6.2-6.2
	s6.2,2.8,6.2,6.2C25.3,22.4,22.5,25.2,19,25.2z M29.5,24l-3.5-2c0.4-1,0.7-2,0.7-3.1c0-1.1-0.2-2.1-0.6-3l3.5-2
	c0.4,0.4,0.9,0.7,1.4,0.9c0.1,0,0.1,0,0.2,0v8.2c-0.1,0-0.1,0-0.2,0C30.4,23.3,29.9,23.6,29.5,24z M32.3,10.3c0.4,0.1,0.8,0.4,1,0.8
	c0.5,0.8,0.2,1.8-0.7,2.3c0,0,0,0,0,0c-0.4,0.2-0.9,0.3-1.3,0.2c-0.4-0.1-0.8-0.4-1-0.8c0,0,0,0,0,0c0,0,0,0,0,0
	c-0.5-0.8-0.2-1.8,0.7-2.3c0.3-0.1,0.5-0.2,0.8-0.2C32,10.2,32.1,10.2,32.3,10.3z M19,2.7c0.9,0,1.7,0.8,1.7,1.7S20,6.1,19,6.1
	c-0.9,0-1.7-0.8-1.7-1.7S18.1,2.7,19,2.7z M4.8,11.1c0.3-0.6,0.9-0.9,1.5-0.9c0.3,0,0.6,0.1,0.8,0.2c0,0,0,0,0,0c0,0,0,0,0,0
	c0.4,0.2,0.7,0.6,0.8,1C8,11.9,8,12.3,7.8,12.7s-0.6,0.7-1,0.8s-0.9,0.1-1.3-0.2C4.7,12.9,4.4,11.9,4.8,11.1z M4.8,26.9
	c-0.2-0.4-0.3-0.8-0.1-1.3c0.1-0.4,0.4-0.8,0.8-1c0.3-0.1,0.5-0.2,0.8-0.2c0,0,0,0,0,0c0,0,0,0,0,0c0.2,0,0.3,0,0.5,0.1
	c0.4,0.1,0.8,0.4,1,0.8s0.3,0.8,0.1,1.3c-0.1,0.4-0.4,0.8-0.8,1C6.3,28,5.3,27.8,4.8,26.9z M19,35.3c-0.9,0-1.7-0.8-1.7-1.7
	s0.8-1.7,1.7-1.7c0.9,0,1.7,0.8,1.7,1.7S20,35.3,19,35.3z M33.3,26.9c-0.2,0.4-0.6,0.7-1,0.8c-0.4,0.1-0.9,0.1-1.3-0.2
	c-0.4-0.2-0.7-0.6-0.8-1s-0.1-0.9,0.1-1.3s0.6-0.7,1-0.8c0.2,0,0.3-0.1,0.5-0.1c0.3,0,0.6,0.1,0.8,0.2
	C33.4,25.1,33.7,26.1,33.3,26.9z"/>
</svg>
