<?xml version="1.0" encoding="utf-8"?>
<!-- Generator: Adobe Illustrator 23.0.1, SVG Export Plug-In . SVG Version: 6.00 Build 0)  -->
<svg version="1.0" id="图层_1" xmlns="http://www.w3.org/2000/svg" xmlns:xlink="http://www.w3.org/1999/xlink" x="0px" y="0px"
	 viewBox="0 0 38 38" style="enable-background:new 0 0 38 38;" xml:space="preserve">
<style type="text/css">
	.st0{fill:#e2edf2;}
</style>
<g>
	<path class="st0" d="M31.6,3.3h-2.9h-3.3V3c0-0.9-0.7-1.6-1.6-1.6H12.9c-0.9,0-1.6,0.7-1.6,1.6v0.3h-2H6.4C5.6,3.3,5,3.9,5,4.7v4
		v22.6v4c0,0.8,0.6,1.4,1.4,1.4h2.9h16.1c0,0,0,0,0,0c0,0,0,0,0,0c0,0,0,0,0,0c0.6,0,1.3,0,2.2-0.7c0,0,0,0,0,0c0,0,0,0,0,0l4.1-3.5
		c0,0,0,0,0,0c0.7-0.5,1.1-0.9,1.1-2.1v-0.6v-0.4c0-0.7-0.5-1.2-1.2-1.2h-0.6h-2h-0.4c-0.7,0-1.2,0.5-1.2,1.2v0.6v0.6
		c0,0.3,0.3,0.6,0.6,0.6s0.6-0.3,0.6-0.6v-0.6l0-0.6h0.4h2l0.6,0v0.4v0.6c0,0.7-0.1,0.7-0.7,1.2c0,0,0,0,0,0c0,0,0,0,0,0L27,35
		c-0.6,0.4-1,0.4-1.5,0.4H9.3H6.4c-0.1,0-0.2-0.1-0.2-0.2v-4V8.7v-4c0-0.1,0.1-0.2,0.2-0.2h2.9h2v0.3c0,0.9,0.7,1.6,1.6,1.6h10.9
		c0.9,0,1.6-0.7,1.6-1.6V4.5h3.3h2.9c0.1,0,0.2,0.1,0.2,0.2v4v17c0,0.3,0.3,0.6,0.6,0.6S33,26,33,25.7v-17v-4
		C33,3.9,32.4,3.3,31.6,3.3z M24.2,4.8c0,0.2-0.2,0.4-0.4,0.4H12.9c-0.2,0-0.4-0.2-0.4-0.4V4c0,0,0,0,0-0.1s0,0,0-0.1V3
		c0-0.2,0.2-0.4,0.4-0.4h10.9c0.2,0,0.4,0.2,0.4,0.4V4.8z"/>
	<path class="st0" d="M14.1,11.1c0-0.3-0.3-0.6-0.6-0.6h-3.1c-0.3,0-0.6,0.3-0.6,0.6v3.1c0,0.3,0.3,0.6,0.6,0.6h3.1
		c0.3,0,0.6-0.3,0.6-0.6V11.1z M12.9,13.7H11v-1.9h1.9V13.7z"/>
	<path class="st0" d="M28.3,11H16.5c-0.3,0-0.6,0.3-0.6,0.6s0.3,0.6,0.6,0.6h11.9c0.3,0,0.6-0.3,0.6-0.6S28.7,11,28.3,11z"/>
	<path class="st0" d="M16.5,14.5h7.1c0.3,0,0.6-0.3,0.6-0.6s-0.3-0.6-0.6-0.6h-7.1c-0.3,0-0.6,0.3-0.6,0.6S16.1,14.5,16.5,14.5z"/>
	<path class="st0" d="M14.1,19.7c0-0.3-0.3-0.6-0.6-0.6h-3.1c-0.3,0-0.6,0.3-0.6,0.6v3.1c0,0.3,0.3,0.6,0.6,0.6h3.1
		c0.3,0,0.6-0.3,0.6-0.6V19.7z M12.9,22.2H11v-1.9h1.9V22.2z"/>
	<path class="st0" d="M28.9,20.1c0-0.3-0.3-0.6-0.6-0.6H16.5c-0.3,0-0.6,0.3-0.6,0.6c0,0.3,0.3,0.6,0.6,0.6h11.9
		C28.7,20.7,28.9,20.4,28.9,20.1z"/>
	<path class="st0" d="M16.5,23h7.1c0.3,0,0.6-0.3,0.6-0.6s-0.3-0.6-0.6-0.6h-7.1c-0.3,0-0.6,0.3-0.6,0.6S16.1,23,16.5,23z"/>
	<path class="st0" d="M13.5,27.6h-3.1c-0.3,0-0.6,0.3-0.6,0.6v3.1c0,0.3,0.3,0.6,0.6,0.6h3.1c0.3,0,0.6-0.3,0.6-0.6v-3.1
		C14.1,27.8,13.8,27.6,13.5,27.6z M12.9,30.7H11v-1.9h1.9V30.7z"/>
	<path class="st0" d="M26,28.6c0-0.3-0.3-0.6-0.6-0.6h-8.9c-0.3,0-0.6,0.3-0.6,0.6s0.3,0.6,0.6,0.6h8.9C25.8,29.2,26,28.9,26,28.6z"
		/>
	<path class="st0" d="M16.5,30.3c-0.3,0-0.6,0.3-0.6,0.6s0.3,0.6,0.6,0.6h7.1c0.3,0,0.6-0.3,0.6-0.6s-0.3-0.6-0.6-0.6H16.5z"/>
</g>
</svg>
