<?xml version="1.0" standalone="no"?><!DOCTYPE svg PUBLIC "-//W3C//DTD SVG 1.1//EN" "http://www.w3.org/Graphics/SVG/1.1/DTD/svg11.dtd"><svg t="1584610411707" class="icon" viewBox="0 0 1024 1024" version="1.1" xmlns="http://www.w3.org/2000/svg" p-id="2803" xmlns:xlink="http://www.w3.org/1999/xlink" width="200" height="200"><defs><style type="text/css"></style></defs><path d="M107.789474 218.273684v40.421053C107.789474 296.421053 137.431579 323.368421 175.157895 323.368421H242.526316v29.642105c0 21.557895 18.863158 40.421053 40.421052 40.421053h458.105264c21.557895 0 40.421053-18.863158 40.421052-40.421053V323.368421h70.063158c35.031579 0 64.673684-26.947368 64.673684-64.673684V218.273684c43.115789-8.084211 72.757895-45.810526 72.757895-88.926316 0-51.2-40.421053-91.621053-91.621053-91.621052s-91.621053 40.421053-91.621052 91.621052c0 43.115789 32.336842 80.842105 72.757895 88.926316v40.421053c0 16.168421-13.473684 26.947368-26.947369 26.947368H781.473684V239.831579c0-21.557895-18.863158-40.421053-40.421052-40.421053h-458.105264c-21.557895 2.694737-40.421053 18.863158-40.421052 40.421053v45.810526H175.157895c-16.168421 0-26.947368-13.473684-26.947369-26.947368V218.273684C188.631579 207.494737 218.273684 172.463158 218.273684 126.652632c0-51.2-40.421053-91.621053-91.621052-91.621053S35.031579 75.452632 35.031579 126.652632c0 45.810526 32.336842 80.842105 72.757895 91.621052z m735.663158-91.621052c0-29.642105 24.252632-53.894737 53.894736-53.894737s53.894737 24.252632 53.894737 53.894737-24.252632 53.894737-53.894737 53.894736-53.894737-24.252632-53.894736-53.894736z m-102.4 113.178947v113.178947s0 2.694737-2.694737 2.694737l-458.105263-2.694737 2.694736-115.873684 458.105264 2.694737zM126.652632 72.757895c29.642105 0 53.894737 24.252632 53.894736 53.894737s-24.252632 53.894737-53.894736 53.894736-53.894737-24.252632-53.894737-53.894736 24.252632-53.894737 53.894737-53.894737z" p-id="2804" fill="#aebdd0"></path><path d="M326.063158 317.978947h99.705263c10.778947 0 18.863158-8.084211 18.863158-18.863158s-8.084211-18.863158-18.863158-18.863157h-99.705263c-10.778947 0-18.863158 8.084211-18.863158 18.863157s8.084211 18.863158 18.863158 18.863158zM916.210526 805.726316v-40.421053c0-35.031579-29.642105-64.673684-64.673684-64.673684H781.473684v-29.642105c0-21.557895-18.863158-40.421053-40.421052-40.421053h-458.105264c-21.557895 0-40.421053 16.168421-40.421052 37.726316V700.631579H175.157895C137.431579 700.631579 107.789474 727.578947 107.789474 765.305263v40.421053c-43.115789 8.084211-72.757895 45.810526-72.757895 88.926316 0 51.2 40.421053 91.621053 91.621053 91.621052s91.621053-40.421053 91.621052-91.621052c0-43.115789-32.336842-80.842105-72.757895-88.926316v-40.421053c0-16.168421 13.473684-26.947368 26.947369-26.947368H242.526316v45.810526c0 21.557895 18.863158 40.421053 40.421052 40.421053h458.105264c21.557895 0 40.421053-18.863158 40.421052-40.421053v-45.810526h70.063158c16.168421 0 26.947368 13.473684 26.947369 26.947368v40.421053c-43.115789 8.084211-72.757895 45.810526-72.757895 88.926316 0 51.2 40.421053 91.621053 91.621052 91.621052s91.621053-40.421053 91.621053-91.621052c0-43.115789-32.336842-78.147368-72.757895-88.926316zM180.547368 897.347368c0 29.642105-24.252632 53.894737-53.894736 53.894737s-53.894737-24.252632-53.894737-53.894737 24.252632-53.894737 53.894737-53.894736 53.894737 24.252632 53.894736 53.894736z m99.705264-113.178947l2.694736-115.873684h458.105264l2.694736 2.694737-2.694736 115.873684-460.8-2.694737z m617.094736 167.073684c-29.642105 0-53.894737-24.252632-53.894736-53.894737s24.252632-53.894737 53.894736-53.894736 53.894737 24.252632 53.894737 53.894736-24.252632 53.894737-53.894737 53.894737z" p-id="2805" fill="#aebdd0"></path><path d="M425.768421 706.021053h-99.705263c-10.778947 0-18.863158 8.084211-18.863158 18.863158s8.084211 18.863158 18.863158 18.863157h99.705263c10.778947 0 18.863158-8.084211 18.863158-18.863157s-8.084211-18.863158-18.863158-18.863158zM326.063158 530.863158h99.705263c10.778947 0 18.863158-8.084211 18.863158-18.863158s-8.084211-18.863158-18.863158-18.863158h-99.705263c-10.778947 0-18.863158 8.084211-18.863158 18.863158s8.084211 18.863158 18.863158 18.863158z" p-id="2806" fill="#aebdd0"></path><path d="M970.105263 414.989474h-153.6c-10.778947 0-18.863158 8.084211-18.863158 18.863158v59.28421H781.473684v-37.726316c0-21.557895-18.863158-40.421053-40.421052-40.421052h-458.105264c-21.557895 0-40.421053 18.863158-40.421052 40.421052v37.726316h-16.168421v-59.28421c0-10.778947-8.084211-18.863158-18.863158-18.863158H53.894737c-10.778947 0-18.863158 8.084211-18.863158 18.863158v153.6c0 10.778947 8.084211 18.863158 18.863158 18.863157h153.6c10.778947 0 18.863158-8.084211 18.863158-18.863157v-59.284211H242.526316V565.894737c0 21.557895 18.863158 40.421053 40.421052 40.421052h458.105264c21.557895 0 40.421053-18.863158 40.421052-40.421052v-37.726316h16.168421v59.284211c0 10.778947 8.084211 18.863158 18.863158 18.863157H970.105263c10.778947 0 18.863158-8.084211 18.863158-18.863157v-153.6c0-10.778947-8.084211-18.863158-18.863158-18.863158zM188.631579 571.284211H72.757895v-115.873685H188.631579v115.873685z m552.421053-2.694737s0 2.694737 0 0H280.252632l2.694736-115.873685 458.105264 2.694737v113.178948z m210.189473 2.694737H835.368421v-115.873685h115.873684v115.873685z" p-id="2807" fill="#aebdd0"></path></svg>