<?xml version="1.0" standalone="no"?><!DOCTYPE svg PUBLIC "-//W3C//DTD SVG 1.1//EN" "http://www.w3.org/Graphics/SVG/1.1/DTD/svg11.dtd"><svg t="1584610379648" class="icon" viewBox="0 0 1024 1024" version="1.1" xmlns="http://www.w3.org/2000/svg" p-id="2627" xmlns:xlink="http://www.w3.org/1999/xlink" width="200" height="200"><defs><style type="text/css"></style></defs><path d="M916.210526 547.031579l-13.473684-26.947368-53.894737-107.789474c2.694737-18.863158 8.084211-88.926316 0-132.042105-43.115789-150.905263-180.547368-242.526316-358.4-242.526316-105.094737 0-207.494737 43.115789-282.947368 118.568421-70.063158 72.757895-107.789474 169.768421-105.094737 269.473684C105.094737 503.915789 134.736842 582.063158 188.631579 646.736842c26.947368 40.421053 59.284211 91.621053 51.2 142.821053-5.389474 37.726316-45.810526 140.126316-59.284211 175.157894-2.694737 5.389474-2.694737 13.473684 2.694737 18.863158 2.694737 5.389474 8.084211 8.084211 16.168421 8.084211h363.789474c5.389474 0 10.778947-2.694737 13.473684-8.084211 35.031579-51.2 97.010526-86.231579 167.073684-91.621052 8.084211 0 16.168421-5.389474 16.168421-16.168421 0 0 26.947368-123.957895 43.11579-161.684211 8.084211-18.863158 40.421053-64.673684 56.589474-86.231579l40.421052-16.168421c10.778947-2.694737 16.168421-10.778947 18.863158-21.557895 10.778947-18.863158-2.694737-43.115789-2.694737-43.115789z m-29.642105 29.642105l-45.810526 16.168421c-2.694737 0-5.389474 2.694737-8.084211 5.389474-5.389474 8.084211-51.2 70.063158-64.673684 97.010526-13.473684 32.336842-35.031579 121.263158-43.115789 156.294737-70.063158 8.084211-134.736842 45.810526-175.157895 97.010526H223.663158c16.168421-40.421053 45.810526-121.263158 51.2-158.989473 8.084211-67.368421-29.642105-129.347368-59.284211-172.463158 0 2.694737 0 2.694737-2.694736 0-45.810526-59.284211-72.757895-129.347368-75.452632-196.71579-2.694737-88.926316 32.336842-172.463158 94.315789-239.831579 67.368421-67.368421 158.989474-107.789474 256-107.789473 126.652632 0 277.557895 56.589474 323.368421 215.578947 8.084211 43.115789 0 123.957895 0 123.957895 0 2.694737 0 8.084211 2.694737 10.778947l56.589474 113.178948s0 2.694737 2.694737 2.694736c2.694737 5.389474 8.084211 13.473684 13.473684 24.252632l16.168421-8.084211-16.168421 8.084211c-2.694737 5.389474 0 10.778947 0 13.473684z" p-id="2628" fill="#aebdd0"></path><path d="M557.810526 250.610526l18.863158-26.947368h51.2c8.084211 21.557895 29.642105 37.726316 53.894737 37.726316 32.336842 0 56.589474-26.947368 56.589474-56.589474 0-32.336842-26.947368-56.589474-56.589474-56.589474-24.252632 0-45.810526 16.168421-53.894737 37.726316H565.894737h-2.694737-2.694737-2.694737s-2.694737 0-2.694737 2.694737l-2.694736 2.694737L517.389474 242.526316c-8.084211 0-16.168421-2.694737-24.252632-2.694737-97.010526 0-191.326316 48.505263-247.915789 126.652632-5.389474 5.389474-5.389474 16.168421 0 21.557894 40.421053 56.589474 97.010526 94.315789 161.68421 113.178948l-18.863158 29.642105h-51.2c-8.084211-21.557895-29.642105-37.726316-53.894737-37.726316-32.336842 0-56.589474 26.947368-56.589473 56.589474 0 32.336842 26.947368 56.589474 56.589473 56.589473 24.252632 0 45.810526-16.168421 53.894737-37.726315h61.978948c2.694737 0 5.389474 0 8.08421-2.694737h2.694737c2.694737 0 2.694737-2.694737 5.389474-5.389474l35.031579-48.505263c16.168421 2.694737 32.336842 5.389474 48.505263 5.389474 97.010526 0 191.326316-48.505263 247.915789-126.652632 5.389474-5.389474 5.389474-16.168421 0-21.557895-51.2-59.284211-115.873684-102.4-188.631579-118.568421z m123.957895-64.673684c10.778947 0 18.863158 8.084211 18.863158 18.863158 0 10.778947-8.084211 18.863158-18.863158 18.863158s-18.863158-8.084211-18.863158-18.863158c0-8.084211 8.084211-18.863158 18.863158-18.863158zM280.252632 573.978947c-10.778947 0-18.863158-8.084211-18.863158-18.863158s8.084211-18.863158 18.863158-18.863157 18.863158 8.084211 18.863157 18.863157-8.084211 18.863158-18.863157 18.863158z m212.88421-91.621052c-80.842105 0-158.989474-37.726316-210.189474-99.705263 51.2-61.978947 129.347368-99.705263 210.189474-99.705264s158.989474 37.726316 210.189474 99.705264c-51.2 61.978947-129.347368 99.705263-210.189474 99.705263z" p-id="2629" fill="#aebdd0"></path><path d="M493.136842 296.421053c-48.505263 0-86.231579 37.726316-86.231579 86.231579s37.726316 86.231579 86.231579 86.231579 86.231579-37.726316 86.231579-86.231579S538.947368 296.421053 493.136842 296.421053z m0 134.736842c-26.947368 0-48.505263-21.557895-48.505263-48.505263s21.557895-48.505263 48.505263-48.505264 48.505263 21.557895 48.505263 48.505264-21.557895 48.505263-48.505263 48.505263zM455.410526 226.357895h37.726316c10.778947 0 18.863158-8.084211 18.863158-18.863158s-10.778947-18.863158-18.863158-18.863158h-37.726316c-10.778947 0-18.863158 8.084211-18.863158 18.863158s8.084211 18.863158 18.863158 18.863158zM501.221053 541.642105h-45.810527c-10.778947 0-18.863158 8.084211-18.863158 18.863158s8.084211 18.863158 18.863158 18.863158h45.810527c10.778947 0 18.863158-8.084211 18.863158-18.863158s-10.778947-18.863158-18.863158-18.863158zM576.673684 541.642105h-21.557895c-10.778947 0-18.863158 8.084211-18.863157 18.863158s8.084211 18.863158 18.863157 18.863158h21.557895c10.778947 0 18.863158-8.084211 18.863158-18.863158s-8.084211-18.863158-18.863158-18.863158z" p-id="2630" fill="#aebdd0"></path></svg>