<?xml version="1.0" standalone="no"?><!DOCTYPE svg PUBLIC "-//W3C//DTD SVG 1.1//EN" "http://www.w3.org/Graphics/SVG/1.1/DTD/svg11.dtd"><svg t="1584610348691" class="icon" viewBox="0 0 1024 1024" version="1.1" xmlns="http://www.w3.org/2000/svg" p-id="2452" xmlns:xlink="http://www.w3.org/1999/xlink" width="200" height="200"><defs><style type="text/css"></style></defs><path d="M765.305263 522.778947v-35.031579c0-35.031579-26.947368-61.978947-61.978947-61.978947h-97.010527v-40.421053c29.642105-8.084211 48.505263-35.031579 48.505264-64.673684 0-37.726316-29.642105-67.368421-67.368421-67.368421s-67.368421 29.642105-67.368421 67.368421c0 32.336842 21.557895 56.589474 48.505263 64.673684v40.421053h-97.010527c-35.031579 0-61.978947 26.947368-61.978947 61.978947v35.031579c-29.642105 8.084211-51.2 35.031579-51.2 67.368421 0 37.726316 29.642105 67.368421 67.368421 67.368421s67.368421-29.642105 67.368421-67.368421c0-29.642105-21.557895-56.589474-48.505263-64.673684v-35.031579c0-13.473684 10.778947-24.252632 24.252632-24.252631H565.894737v59.28421c-29.642105 8.084211-48.505263 35.031579-48.505263 64.673684 0 37.726316 29.642105 67.368421 67.368421 67.368421s67.368421-29.642105 67.368421-67.368421c0-32.336842-21.557895-56.589474-48.505263-64.673684v-59.28421H700.631579c13.473684 0 24.252632 10.778947 24.252632 24.252631v35.031579c-26.947368 8.084211-48.505263 35.031579-48.505264 64.673684 0 37.726316 29.642105 67.368421 67.368421 67.368421s67.368421-29.642105 67.368421-67.368421c5.389474-35.031579-16.168421-59.284211-45.810526-67.368421z m-309.894737 64.673685c0 16.168421-13.473684 29.642105-29.642105 29.642105s-29.642105-13.473684-29.642105-29.642105c0-16.168421 13.473684-29.642105 29.642105-29.642106s29.642105 13.473684 29.642105 29.642106z m99.705263-269.473685c0-16.168421 13.473684-29.642105 29.642106-29.642105 16.168421 0 29.642105 13.473684 29.642105 29.642105s-10.778947 32.336842-26.947368 32.336842c-18.863158 0-32.336842-13.473684-32.336843-32.336842z m61.978948 269.473685c0 16.168421-13.473684 29.642105-29.642105 29.642105-16.168421 0-29.642105-13.473684-29.642106-29.642105 0-16.168421 13.473684-29.642105 29.642106-29.642106 16.168421 0 29.642105 13.473684 29.642105 29.642106z m132.042105 32.336842c-16.168421 0-29.642105-13.473684-29.642105-29.642106 0-16.168421 13.473684-29.642105 29.642105-29.642105 16.168421 0 29.642105 13.473684 29.642105 29.642105 0 16.168421-13.473684 29.642105-29.642105 29.642106z" fill="#aebdd0" p-id="2453"></path><path d="M913.515789 212.884211v-5.389474-2.694737-2.694737c0-2.694737-2.694737-2.694737-2.694736-5.389474l-167.073685-158.989473h-2.694736l-2.694737-2.694737h-2.694737-428.463158c-32.336842 0-59.284211 26.947368-59.284211 59.28421v78.147369l-83.536842 21.557895c-26.947368 5.389474-40.421053 18.863158-45.810526 29.642105-13.473684 24.252632-8.084211 53.894737-2.694737 70.063158l134.736842 525.473684 32.336842 113.178947c13.473684 43.115789 43.115789 56.589474 70.063158 56.589474 18.863158 0 40.421053-5.389474 53.894737-10.778947l5.389474-2.694737L856.926316 862.315789c29.642105-2.694737 53.894737-26.947368 53.894737-59.28421l2.694736-590.147368z m-129.347368-18.863158c-18.863158 0-35.031579-16.168421-35.031579-35.031579V97.010526l102.4 97.010527h-67.368421zM150.905263 242.526316c5.389474-5.389474 10.778947-10.778947 21.557895-13.473684l75.452631-18.863158v452.715789l-97.010526-377.263158c-5.389474-18.863158-5.389474-32.336842 0-43.115789z m167.073684 679.073684l-16.168421-56.589474H703.326316L404.210526 940.463158l-8.08421 2.694737c-43.115789 13.473684-64.673684 13.473684-78.147369-21.557895z m536.252632-94.315789H307.2c-10.778947 0-21.557895-10.778947-21.557895-21.557895V94.315789c0-10.778947 10.778947-21.557895 21.557895-21.557894h401.515789v86.231579c0 40.421053 32.336842 72.757895 72.757895 72.757894h94.31579v573.978948c0 10.778947-8.084211 21.557895-21.557895 21.557895z" fill="#aebdd0" p-id="2454"></path></svg>