<?xml version="1.0" encoding="utf-8"?>
<!-- Generator: Adobe Illustrator 23.0.1, SVG Export Plug-In . SVG Version: 6.00 Build 0)  -->
<svg version="1.0" id="图层_1" xmlns="http://www.w3.org/2000/svg" xmlns:xlink="http://www.w3.org/1999/xlink" x="0px" y="0px"
	 viewBox="0 0 38 38" style="enable-background:new 0 0 38 38;" xml:space="preserve">
<style type="text/css">
	.st0{fill:#e2edf2;}
</style>
<g>
	<path class="st0" d="M19,1.3C9.3,1.3,1.4,9.2,1.4,18.9c0,7.2,4.3,13.4,10.5,16.1c0,0,0.1,0,0.1,0.1c2.1,0.9,4.5,1.4,7,1.4
		c9.7,0,17.6-7.9,17.6-17.6S28.7,1.3,19,1.3z M19,35.3c-2.1,0-4.2-0.4-6-1.2c1-3.6,3.4-5.7,7.2-6.4c0.3-0.1,0.5-0.4,0.5-0.7
		c-0.1-0.3-0.4-0.5-0.7-0.5c-1.3,0.2-2.8,0.7-4.2,1.6c0.7-2.6,3.1-4.2,4.8-4.4c0.3,0,0.7-0.1,1.3-0.1c1.5-0.1,3.7-0.2,5.3-0.8
		c-0.4,2-1.2,5.8-3.8,7.4c-1.5,0.9-3.5,1.1-5.8,0.4c-0.3-0.1-0.7,0.1-0.7,0.4c-0.1,0.3,0.1,0.7,0.4,0.7c1.1,0.3,2.1,0.5,3.1,0.5
		c1.4,0,2.7-0.3,3.7-1c3.2-2,4-6.4,4.4-8.5c0.1-0.4,0.1-0.7,0.2-0.9c0,0,0,0,0-0.1c0,0,0-0.1,0-0.1c0,0,0-0.1,0-0.1c0,0,0-0.1,0-0.1
		c0,0,0-0.1-0.1-0.1c0,0,0,0,0,0c0,0,0,0,0,0c0,0-0.1-0.1-0.1-0.1c0,0-0.1,0-0.1-0.1c0,0,0,0-0.1,0c0,0,0,0-0.1,0c0,0-0.1,0-0.1,0
		c0,0-0.1,0-0.1,0c0,0-0.1,0-0.1,0c0,0-0.1,0-0.1,0.1c0,0,0,0,0,0c-1.2,1-4.1,1.1-5.8,1.2c-0.6,0-1.1,0-1.4,0.1
		c-2.4,0.3-5.8,2.6-6,6.7c-1.1,1-2,2.5-2.5,4.4C6.4,31,2.6,25.4,2.6,18.9C2.6,9.9,10,2.5,19,2.5s16.4,7.4,16.4,16.4
		C35.4,27.9,28,35.3,19,35.3z"/>
	<path class="st0" d="M29.6,16.7c-0.3,0-0.6,0.4-0.5,0.7c0.1,0.5,0.1,1,0.1,1.5c0,0.2,0,0.5,0,0.7c0,0.3,0.2,0.6,0.6,0.6
		c0,0,0,0,0,0c0.3,0,0.6-0.2,0.6-0.6c0-0.3,0-0.5,0-0.8c0-0.6,0-1.1-0.1-1.7C30.2,16.9,29.9,16.7,29.6,16.7z"/>
	<path class="st0" d="M26.2,11.7c0.2,0.2,0.6,0.2,0.8,0c0.2-0.2,0.2-0.6,0-0.8c-2.1-2.1-5-3.3-8-3.3c-6.3,0-11.4,5.1-11.4,11.4
		c0,2.7,0.9,5.3,2.7,7.3c0.1,0.1,0.3,0.2,0.5,0.2c0.1,0,0.3,0,0.4-0.1c0.3-0.2,0.3-0.6,0.1-0.8c-1.5-1.8-2.4-4.2-2.4-6.5
		c0-5.6,4.6-10.2,10.2-10.2C21.7,8.7,24.3,9.8,26.2,11.7z"/>
	<path class="st0" d="M29.7,13.8c-0.1-0.3-0.5-0.4-0.8-0.3l-10.1,4.9c-0.3,0.1-0.4,0.5-0.3,0.8c0.1,0.2,0.3,0.3,0.5,0.3
		c0.1,0,0.2,0,0.3-0.1l10.1-4.9C29.7,14.4,29.8,14.1,29.7,13.8z"/>
</g>
</svg>
