<?xml version="1.0" encoding="utf-8"?>
<!-- Generator: Adobe Illustrator 23.0.1, SVG Export Plug-In . SVG Version: 6.00 Build 0)  -->
<svg version="1.0" id="图层_1" xmlns="http://www.w3.org/2000/svg" xmlns:xlink="http://www.w3.org/1999/xlink" x="0px" y="0px"
	 viewBox="0 0 38 38" style="enable-background:new 0 0 38 38;" xml:space="preserve">
<style type="text/css">
  .st0{fill:#e2edf2;}
</style>
<g>
	<path class="st0" d="M10.6,18.9c-0.2-0.4-0.5-0.6-0.9-0.6h-1C9,12.8,13.5,8.5,19,8.5c3.7,0,7.2,2,9,5.3c0.2,0.3,0.6,0.5,1,0.3
		c0.3-0.2,0.5-0.6,0.3-1c-2.1-3.7-6-6-10.2-6C12.5,7.1,7.2,12.4,7.2,19c0,0.4,0.3,0.7,0.7,0.7h0.9L6,22.9l-2.8-3.2h0.9
		c0.4,0,0.7-0.3,0.7-0.7c0-7.9,6.4-14.4,14.2-14.4c0.4,0,0.7-0.3,0.7-0.7S19.4,3.2,19,3.2c-8.4,0-15.2,6.7-15.6,15.1H2.3
		c-0.4,0-0.8,0.2-0.9,0.6c-0.2,0.4-0.1,0.8,0.2,1.1l3.7,4.2c0.2,0.2,0.5,0.3,0.8,0.3s0.6-0.1,0.8-0.3l3.7-4.2
		C10.7,19.7,10.7,19.3,10.6,18.9z"/>
	<path class="st0" d="M36.4,18l-3.7-4.2c-0.4-0.4-1.1-0.4-1.5,0L27.6,18c-0.3,0.3-0.3,0.7-0.2,1.1c0.2,0.4,0.5,0.6,0.9,0.6h1
		c-0.4,5.5-4.9,9.8-10.4,9.8c-3.8,0-7.3-2.1-9.1-5.5c-0.2-0.3-0.6-0.5-0.9-0.3c-0.3,0.2-0.5,0.6-0.3,0.9c2.1,3.9,6,6.3,10.4,6.3
		c6.5,0,11.8-5.4,11.8-11.9c0-0.4-0.3-0.7-0.7-0.7h-0.9l2.8-3.2l2.8,3.2h-0.9c-0.4,0-0.7,0.3-0.7,0.7c0,7.9-6.4,14.4-14.2,14.4
		c-0.4,0-0.7,0.3-0.7,0.7s0.3,0.7,0.7,0.7c8.4,0,15.2-6.7,15.6-15.1h1.1c0.4,0,0.8-0.2,0.9-0.6C36.8,18.7,36.7,18.3,36.4,18z"/>
	<path class="st0" d="M25.1,21.9C25.1,21.9,25.1,21.9,25.1,21.9L22.8,18c-0.2-0.3-0.6-0.4-1-0.3c-0.3,0.2-0.5,0.6-0.3,1l2.2,3.7
		c0,0.1,0,0.1,0.1,0.2h-3l0.1-0.1c0.3-0.3,0.3-0.7,0-1s-0.7-0.3-1,0l-1.3,1.3c-0.1,0.1-0.1,0.1-0.2,0.2c-0.1,0.2-0.1,0.4,0,0.5
		c0,0.1,0.1,0.2,0.2,0.2l1.4,1.4c0.1,0.1,0.3,0.2,0.5,0.2s0.4-0.1,0.5-0.2c0.3-0.3,0.3-0.7,0-1l-0.2-0.2h3c0.5,0,0.9-0.3,1.2-0.7
		c0.1-0.1,0.1-0.2,0.1-0.3s0-0.2,0-0.3C25.3,22.3,25.2,22.1,25.1,21.9z"/>
	<path class="st0" d="M12.9,23.2c0.2,0.4,0.7,0.7,1.2,0.7h3.2c0.4,0,0.7-0.3,0.7-0.7s-0.3-0.7-0.7-0.7l-3,0.1c-0.1,0-0.1,0-0.2,0l1.8-3.1
		l0.2,0.5c0.1,0.3,0.4,0.5,0.7,0.5c0.1,0,0.2,0,0.2,0c0.4-0.1,0.6-0.5,0.4-0.9l-0.7-1.9c0,0,0-0.1,0-0.1c0,0,0-0.1,0-0.1
		c0,0,0,0,0,0c0,0-0.1-0.1-0.1-0.1c0,0-0.1-0.1-0.1-0.1c0,0,0,0,0,0c0,0,0,0,0,0c0,0-0.1,0-0.1,0c0,0-0.1,0-0.1,0c0,0,0,0,0,0
		c0,0-0.1,0-0.1,0c0,0-0.1,0-0.1,0l-2.4,0.5c-0.4,0.1-0.6,0.5-0.5,0.8c0.1,0.3,0.4,0.6,0.7,0.6c0,0,0.1,0,0.1,0l0.9-0.2l-1.8,3
		C12.7,22.3,12.7,22.8,12.9,23.2z"/>
	<path class="st0" d="M18.4,15.9c-0.1,0.4,0.1,0.8,0.5,0.9l2.2,0.6c0.1,0,0.1,0,0.2,0c0.1,0,0.1,0,0.2,0c0,0,0,0,0.1,0c0,0,0,0,0.1,0
		c0,0,0,0,0,0c0,0,0,0,0,0c0,0,0,0,0,0c0,0,0,0,0.1-0.1c0,0,0.1-0.1,0.1-0.1c0,0,0,0,0,0c0,0,0,0,0-0.1c0,0,0,0,0-0.1l0.8-1.9
		c0.2-0.4,0-0.8-0.4-0.9c-0.4-0.2-0.8,0-0.9,0.4l-0.3,0.6l-1-1.8c-0.5-0.9-1.9-0.9-2.4,0l-1.4,2.5c-0.2,0.3-0.1,0.8,0.3,1
		c0.1,0.1,0.2,0.1,0.3,0.1c0.2,0,0.5-0.1,0.6-0.4l1.4-2.4l0.9,1.5l-0.6-0.2C18.9,15.3,18.5,15.5,18.4,15.9z"/>
</g>
</svg>
