<?xml version="1.0" encoding="utf-8"?>
<!-- Generator: Adobe Illustrator 23.0.1, SVG Export Plug-In . SVG Version: 6.00 Build 0)  -->
<svg version="1.0" id="图层_1" xmlns="http://www.w3.org/2000/svg" xmlns:xlink="http://www.w3.org/1999/xlink" x="0px" y="0px"
	 viewBox="0 0 38 38" style="enable-background:new 0 0 38 38;" xml:space="preserve">
<style type="text/css">
	.st0{fill:#e2edf2;}
</style>
<path class="st0" d="M36,35.3h-6.5L24.8,20h4.5v2.1c0,0.4,0.3,0.7,0.7,0.7s0.7-0.3,0.7-0.7V20h0.7v2.1c0,0.4,0.3,0.7,0.7,0.7
	s0.7-0.3,0.7-0.7v-2.8c0,0,0,0,0-0.1c0,0,0-0.1,0-0.1c0,0,0-0.1,0-0.1c0,0,0-0.1-0.1-0.1c0,0-0.1-0.1-0.1-0.1c0,0,0,0,0,0l-6.4-4.7
	h3.1v0.9c0,0.4,0.3,0.7,0.7,0.7s0.7-0.3,0.7-0.7v-0.9h0.7v0.9c0,0.4,0.3,0.7,0.7,0.7s0.7-0.3,0.7-0.7v-1.6c0,0,0,0,0,0
	c0,0,0-0.1,0-0.1c0,0,0-0.1,0-0.1c0,0,0-0.1-0.1-0.1c0,0-0.1-0.1-0.1-0.1c0,0,0,0,0,0l-8.1-6.1l-2.9-5c0,0,0,0-0.1-0.1
	c0,0-0.1-0.1-0.1-0.1c0,0-0.1-0.1-0.1-0.1c0,0-0.1,0-0.1-0.1c0,0-0.1,0-0.1,0c0,0-0.1,0-0.1,0H19c0,0,0,0,0,0c0,0,0,0,0,0h-1.8
	c0,0-0.1,0-0.1,0c0,0-0.1,0-0.1,0c0,0-0.1,0-0.1,0.1c0,0-0.1,0-0.1,0.1c0,0-0.1,0.1-0.1,0.1c0,0,0,0-0.1,0.1l-2.9,5l-8.1,6.1
	c0,0,0,0,0,0c0,0-0.1,0.1-0.1,0.1c0,0-0.1,0.1-0.1,0.1c0,0,0,0.1,0,0.1c0,0,0,0.1,0,0.1c0,0,0,0,0,0v1.6c0,0.4,0.3,0.7,0.7,0.7
	s0.7-0.3,0.7-0.7v-0.9h0.7v0.9c0,0.4,0.3,0.7,0.7,0.7s0.7-0.3,0.7-0.7v-0.9h3.1l-6.4,4.7c0,0,0,0,0,0c0,0-0.1,0.1-0.1,0.1
	c0,0-0.1,0.1-0.1,0.1c0,0,0,0.1,0,0.1c0,0,0,0.1,0,0.1c0,0,0,0,0,0.1v2.8c0,0.4,0.3,0.7,0.7,0.7s0.7-0.3,0.7-0.7V20h0.7v2.1
	c0,0.4,0.3,0.7,0.7,0.7s0.7-0.3,0.7-0.7V20h4.5L8.5,35.3H2c-0.4,0-0.7,0.3-0.7,0.7s0.3,0.7,0.7,0.7h17c0,0,0,0,0,0c0,0,0,0,0,0h17
	c0.4,0,0.7-0.3,0.7-0.7S36.4,35.3,36,35.3z M19,35.3C19,35.3,19,35.3,19,35.3C19,35.3,19,35.3,19,35.3h-7l6.9-3.4l6.9,3.4H19z
	 M8.1,18.6l5.4-4v4H8.1z M8,12.7l5.4-4.1v4.1H8z M17.6,2.7H19c0,0,0,0,0,0c0,0,0,0,0,0h1.4l2.2,3.8H19c0,0,0,0,0,0c0,0,0,0,0,0h-3.6
	L17.6,2.7z M24.5,12.7V8.6l5.4,4.1H24.5z M24.5,18.6v-4l5.4,4H24.5z M19,7.9C19,7.9,19,7.9,19,7.9C19,7.9,19,7.9,19,7.9h2.4L19,9.5
	l-2.4-1.6H19z M19,18.6C19,18.6,19,18.6,19,18.6C19,18.6,19,18.6,19,18.6h-2.4l2.4-1.5l2.4,1.5H19z M19,11.1l2.5,1.6H19c0,0,0,0,0,0
	c0,0,0,0,0,0h-2.5L19,11.1z M19,14.1C19,14.1,19,14.1,19,14.1C19,14.1,19,14.1,19,14.1h2.3L19,15.5l-2.3-1.4H19z M20.3,16.3l2.8-1.8
	v3.5L20.3,16.3z M20.3,10.3l2.8-1.8V12L20.3,10.3z M17.7,10.3L14.9,12V8.5L17.7,10.3z M17.7,16.3l-2.8,1.7v-3.5L17.7,16.3z M19,20
	C19,20,19,20,19,20C19,20,19,20,19,20h2.6L19,21.8L16.4,20H19z M19,23.5l6,4l-6,2.8l-6-2.8L19,23.5z M26,28.6l1.9,6l-7.2-3.5
	L26,28.6z M20.2,22.6l3.2-2.2l1.7,5.5L20.2,22.6z M17.8,22.6L12.9,26l1.7-5.5L17.8,22.6z M12,28.6l5.3,2.5l-7.2,3.5L12,28.6z"/>
</svg>
