<?xml version="1.0" encoding="utf-8"?>
<!-- Generator: Adobe Illustrator 23.0.1, SVG Export Plug-In . SVG Version: 6.00 Build 0)  -->
<svg version="1.0" id="图层_1" xmlns="http://www.w3.org/2000/svg" xmlns:xlink="http://www.w3.org/1999/xlink" x="0px" y="0px"
	 viewBox="0 0 38 38" style="enable-background:new 0 0 38 38;" xml:space="preserve">
<style type="text/css">
	.st0{fill:#e2edf2;}
</style>
<g>
	<path class="st0" d="M30,24.5c-0.4,0-0.7,0.3-0.7,0.7v6.6c0,0.6-0.5,1-1,1h-9.1V5.3h9.1c0.6,0,1,0.5,1,1v6.5c0,0.4,0.3,0.7,0.7,0.7
		s0.7-0.3,0.7-0.7V6.3c0-1.3-1.1-2.4-2.4-2.4h-9.1V3.5c0-0.6-0.3-1.2-0.7-1.6c-0.7-0.6-1.7-0.8-2.9-0.6c0,0,0,0,0,0L6.1,3.1
		C4.7,3.6,3.9,4.4,3.9,5.5V32c0,1.2,0.9,2.2,2.3,2.6l9.9,2.1c0.2,0,0.4,0,0.6,0c0.7,0,1.3-0.2,1.8-0.6c0.5-0.4,0.7-1,0.7-1.7v-0.3
		h9.1c1.3,0,2.4-1.1,2.4-2.4v-6.6C30.7,24.8,30.4,24.5,30,24.5z M17.7,34.4c0,0.3-0.1,0.5-0.2,0.7c-0.2,0.2-0.7,0.3-1.2,0.2l-9.8-2
		c-0.6-0.2-1.2-0.6-1.2-1.3V5.5c0-0.6,0.9-0.9,1.2-1l9.3-1.7c0.8-0.1,1.4,0,1.7,0.3c0.2,0.1,0.2,0.3,0.2,0.5V34.4z"/>
	<path class="st0" d="M16.1,17.4c0-1.4-1.2-2.6-2.6-2.6S11,15.9,11,17.4c0,0.8,0.4,1.5,0.9,2l-0.6,2.8c0,0,0,0.1,0,0.2c0,0.5,0.4,1,1,1h2.6
		c0.5,0,1-0.4,1-1c0-0.1,0-0.1,0-0.2l-0.6-2.8C15.8,18.8,16.1,18.1,16.1,17.4z M12.8,21.8l0.6-2.6c0,0,0,0,0,0c0,0,0-0.1,0-0.1
		c0,0,0-0.1,0-0.1c0,0,0-0.1,0-0.1c0,0,0-0.1-0.1-0.1c0,0-0.1-0.1-0.1-0.1c0,0-0.1-0.1-0.1-0.1c0,0,0,0,0,0c-0.4-0.2-0.6-0.6-0.6-1
		c0-0.6,0.5-1.2,1.2-1.2s1.2,0.5,1.2,1.2c0,0.4-0.2,0.8-0.6,1c0,0,0,0,0,0c0,0-0.1,0.1-0.1,0.1c0,0-0.1,0.1-0.1,0.1
		c0,0,0,0.1-0.1,0.1c0,0,0,0.1,0,0.1c0,0,0,0.1,0,0.1c0,0,0,0.1,0,0.1c0,0,0,0,0,0l0.6,2.6H12.8z"/>
	<path class="st0" d="M34.1,19.1c0,0,0-0.1,0-0.1c0,0,0-0.1,0-0.1c0,0,0-0.1,0-0.1c0,0,0-0.1-0.1-0.1c0,0,0,0,0-0.1c0,0,0,0-0.1,0c0,0,0,0,0-0.1
		L30,15.3c0,0-0.1,0-0.1,0c0,0-0.1-0.1-0.1-0.1c0,0-0.1,0-0.1,0c0,0-0.1,0-0.1,0c0,0,0,0,0,0c0,0-0.1,0-0.1,0c0,0-0.1,0-0.1,0
		c0,0-0.1,0-0.1,0.1c0,0-0.1,0.1-0.1,0.1c0,0,0,0,0,0c0,0,0,0.1,0,0.1c0,0-0.1,0.1-0.1,0.1c0,0,0,0.1,0,0.1c0,0,0,0.1,0,0.1V17h-6.5
		c-0.4,0-0.7,0.3-0.7,0.7s0.3,0.7,0.7,0.7h7.2c0.4,0,0.7-0.3,0.7-0.7v-0.4l2.1,1.7l-2.1,1.7v-0.4c0-0.4-0.3-0.7-0.7-0.7h-7.2
		c-0.4,0-0.7,0.3-0.7,0.7s0.3,0.7,0.7,0.7h6.5v1.2c0,0,0,0.1,0,0.1c0,0,0,0.1,0,0.1c0,0,0,0.1,0.1,0.1c0,0,0,0.1,0,0.1c0,0,0,0,0,0
		c0,0.1,0.1,0.1,0.2,0.1c0,0,0,0,0.1,0c0.1,0,0.2,0.1,0.3,0.1c0.1,0,0.2,0,0.3-0.1c0,0,0.1,0,0.1,0c0,0,0.1,0,0.1-0.1l3.9-3.2
		c0,0,0,0,0.1-0.1c0,0,0,0,0.1,0c0,0,0,0,0-0.1c0,0,0-0.1,0.1-0.1C34.1,19.2,34.1,19.2,34.1,19.1z"/>
</g>
</svg>
