<?xml version="1.0" encoding="utf-8"?>
<!-- Generator: Adobe Illustrator 23.0.1, SVG Export Plug-In . SVG Version: 6.00 Build 0)  -->
<svg version="1.0" id="图层_1" xmlns="http://www.w3.org/2000/svg" xmlns:xlink="http://www.w3.org/1999/xlink" x="0px" y="0px"
	 viewBox="0 0 38 38" style="enable-background:new 0 0 38 38;" xml:space="preserve">
<style type="text/css">
	.st0{fill:#e2edf2;}
</style>
<g>
	<path class="st0" d="M17.2,15.5c0-1.1,0.9-2,2-2c0.4,0,0.7-0.3,0.7-0.7s-0.3-0.7-0.7-0.7c-1.9,0-3.4,1.5-3.4,3.4
		c0,0.4,0.3,0.7,0.7,0.7S17.2,15.9,17.2,15.5z"/>
	<path class="st0" d="M18.9,23.7c1.2,0,2.3-0.9,2.6-2h3.4c0.4,0,0.7-0.3,0.7-0.7s-0.3-0.7-0.7-0.7H24v-4.8c0-2.9-2.3-5.2-5.1-5.2
		c-2.8,0-5.1,2.3-5.1,5.2v4.8h-0.7c-0.4,0-0.7,0.3-0.7,0.7s0.3,0.7,0.7,0.7h3.2C16.6,22.9,17.7,23.7,18.9,23.7z M18.9,22.3
		c-0.4,0-0.8-0.2-1-0.6h2.1C19.7,22.1,19.3,22.3,18.9,22.3z M15.2,15.5c0-2.1,1.7-3.8,3.7-3.8s3.7,1.7,3.7,3.8v4.8h-7.4V15.5z"/>
	<path class="st0" d="M36,26.7h-1.4V8c0-1.1-0.9-2-1.9-2H5.3C4.3,6,3.4,6.9,3.4,8v18.7H2c-0.4,0-0.7,0.3-0.7,0.7v2.8
		c0,1,0.8,1.8,1.7,1.8H35c1,0,1.7-0.8,1.7-1.8v-2.8C36.7,27,36.4,26.7,36,26.7z M3,30.6c-0.2,0-0.3-0.2-0.3-0.4v-2.1h11.9l1.1,0.9
		c0,0,0.1,0,0.1,0.1c0,0,0.1,0,0.1,0.1c0.1,0,0.2,0.1,0.3,0.1c0,0,0,0,0,0s0,0,0,0h2h2.1h2c0.1,0,0.2,0,0.3-0.1c0,0,0.1,0,0.1-0.1
		c0,0,0.1,0,0.1-0.1l1.1-0.9h11.6v2.1c0,0.2-0.2,0.4-0.3,0.4H3z M4.8,8c0-0.3,0.2-0.6,0.5-0.6h27.3c0.3,0,0.5,0.2,0.5,0.6v18.7h-9.8
		c0,0-0.1,0-0.1,0c0,0-0.1,0-0.1,0c0,0-0.1,0-0.1,0.1c0,0-0.1,0-0.1,0l-1.1,0.9h-1.7h-2.1h-1.7l-1.1-0.9c0,0-0.1,0-0.1,0
		c0,0-0.1-0.1-0.1-0.1c0,0-0.1,0-0.1,0c0,0-0.1,0-0.1,0h-10V8z"/>
</g>
</svg>
