<?xml version="1.0" encoding="utf-8"?>
<!-- Generator: Adobe Illustrator 23.0.1, SVG Export Plug-In . SVG Version: 6.00 Build 0)  -->
<svg version="1.0" id="图层_1" xmlns="http://www.w3.org/2000/svg" xmlns:xlink="http://www.w3.org/1999/xlink" x="0px" y="0px"
	 viewBox="0 0 38 38" style="enable-background:new 0 0 38 38;" xml:space="preserve">
<style type="text/css">
	.st0{fill:#e2edf2;}
</style>
<g>
	<path class="st0" d="M10.3,28.9H3.5c-0.5,0-0.8-0.4-0.8-0.8V3.9c0-0.5,0.4-0.8,0.8-0.8h28c0.5,0,0.8,0.4,0.8,0.8v17.5
		c0,0.4,0.3,0.7,0.7,0.7s0.7-0.3,0.7-0.7V3.9c0-1.2-1-2.2-2.2-2.2h-28c-1.2,0-2.2,1-2.2,2.2v24.2c0,1.2,1,2.2,2.2,2.2h6.8
		c0.4,0,0.7-0.3,0.7-0.7S10.7,28.9,10.3,28.9z"/>
	<path class="st0" d="M12.5,26.5c0-0.4-0.3-0.7-0.7-0.7H6.3c-0.2,0-0.3-0.1-0.3-0.3V6.3c0-0.2,0.1-0.3,0.3-0.3H29
		c0.2,0,0.3,0.1,0.3,0.3v13.8c0,0.4,0.3,0.7,0.7,0.7s0.7-0.3,0.7-0.7V6.3c0-0.9-0.8-1.7-1.7-1.7H6.3c-0.9,0-1.7,0.8-1.7,1.7v19.2
		c0,0.9,0.8,1.7,1.7,1.7h5.5C12.1,27.2,12.5,26.9,12.5,26.5z"/>
	<path class="st0" d="M35.1,27.3C35.1,27.3,35.1,27.3,35.1,27.3c0-0.1-0.1-0.1-0.1-0.1c-1.1-1.8-2.6-3.3-4.4-4.4c0,0,0,0-0.1-0.1
		c0,0,0,0-0.1,0c-1.8-1-3.9-1.6-6.1-1.6c-2.2,0-4.3,0.6-6.1,1.6c0,0,0,0-0.1,0c0,0,0,0-0.1,0.1c-1.8,1.1-3.3,2.6-4.4,4.4
		c0,0,0,0-0.1,0.1c0,0,0,0,0,0.1c-1,1.8-1.6,3.9-1.6,6.1c0,0.4,0.3,0.7,0.7,0.7h2.3c0.4,0,0.7-0.3,0.7-0.7s-0.3-0.7-0.7-0.7h-1.5
		c0.1-1.5,0.5-2.8,1.1-4.1l1.3,0.8c0.1,0.1,0.2,0.1,0.3,0.1c0.2,0,0.5-0.1,0.6-0.4c0.2-0.3,0.1-0.8-0.3-1l-1.3-0.8
		c0.8-1.2,1.8-2.2,3-3l0.8,1.3c0.1,0.2,0.4,0.4,0.6,0.4c0.1,0,0.2,0,0.3-0.1c0.3-0.2,0.5-0.6,0.3-1l-0.8-1.3c1.2-0.6,2.6-1,4.1-1.1
		v1.5c0,0.4,0.3,0.7,0.7,0.7s0.7-0.3,0.7-0.7v-1.5c1.5,0.1,2.8,0.5,4.1,1.1L28.5,25c-0.2,0.3-0.1,0.8,0.3,1C28.9,26,29,26,29.1,26
		c0.2,0,0.5-0.1,0.6-0.3l0.8-1.3c1.2,0.8,2.2,1.8,3,3l-1.3,0.8c-0.3,0.2-0.5,0.6-0.3,1c0.1,0.2,0.4,0.4,0.6,0.4c0.1,0,0.2,0,0.3-0.1
		l1.3-0.8c0.6,1.2,1,2.6,1.1,4.1h-1.5c-0.4,0-0.7,0.3-0.7,0.7s0.3,0.7,0.7,0.7H36c0.4,0,0.7-0.3,0.7-0.7
		C36.7,31.2,36.1,29.1,35.1,27.3z"/>
	<path class="st0" d="M30.4,29.2l-4.1,2.3c-0.4-0.4-0.9-0.7-1.5-0.7c-1.4-0.2-2.7,0.8-2.9,2.2c0,0.3,0,0.7,0.1,1l-1.8,1
		c-0.3,0.2-0.5,0.6-0.3,1c0.1,0.2,0.4,0.4,0.6,0.4c0.1,0,0.2,0,0.3-0.1l1.8-1c0.4,0.4,0.9,0.7,1.5,0.7c0.1,0,0.2,0,0.4,0
		c1.3,0,2.4-0.9,2.6-2.2c0-0.3,0-0.7-0.1-1l4.1-2.3c0.3-0.2,0.5-0.6,0.3-1C31.1,29.1,30.7,29,30.4,29.2z M24.3,34.5
		c-0.3,0-0.6-0.2-0.8-0.5c-0.2-0.3-0.3-0.6-0.2-0.9c0.1-0.6,0.6-1,1.2-1c0.1,0,0.1,0,0.2,0c0.3,0,0.6,0.2,0.8,0.5
		c0.2,0.3,0.3,0.6,0.2,0.9C25.6,34.2,24.9,34.6,24.3,34.5z"/>
	<path class="st0" d="M11.9,10.8c-0.4,0-0.7,0.3-0.7,0.7v7.8c0,0.4,0.3,0.7,0.7,0.7h2.3c0.4,0,0.7-0.3,0.7-0.7v-7.8
		c0-0.4-0.3-0.7-0.7-0.7H11.9z M13.5,18.6h-0.9v-6.4h0.9V18.6z"/>
	<path class="st0" d="M21.4,8.3c-0.4,0-0.7,0.3-0.7,0.7v10.3c0,0.4,0.3,0.7,0.7,0.7h2.3c0.4,0,0.7-0.3,0.7-0.7V9
		c0-0.4-0.3-0.7-0.7-0.7H21.4z M23,18.6h-0.9V9.7H23V18.6z"/>
	<path class="st0" d="M16.7,13c-0.4,0-0.7,0.3-0.7,0.7v5.6c0,0.4,0.3,0.7,0.7,0.7H19c0.4,0,0.7-0.3,0.7-0.7v-5.6
		c0-0.4-0.3-0.7-0.7-0.7H16.7z M18.3,18.6h-0.9v-4.2h0.9V18.6z"/>
</g>
</svg>
