<?xml version="1.0" encoding="utf-8"?>
<!-- Generator: Adobe Illustrator 23.0.1, SVG Export Plug-In . SVG Version: 6.00 Build 0)  -->
<svg version="1.0" id="图层_1" xmlns="http://www.w3.org/2000/svg" xmlns:xlink="http://www.w3.org/1999/xlink" x="0px" y="0px"
	 viewBox="0 0 38 38" style="enable-background:new 0 0 38 38;" xml:space="preserve">
<style type="text/css">
	.st0{fill:#e2edf2;}
</style>
<g>
	<path class="st0" d="M25.1,12.4H12.9c-0.8,0-1.5,0.7-1.5,1.5V17c0,0.8,0.7,1.5,1.5,1.5h12.2c0.8,0,1.5-0.7,1.5-1.5v-3.1
		C26.6,13,25.9,12.4,25.1,12.4z M25.2,17C25.2,17,25.1,17.1,25.2,17l-12.2,0.1c0,0-0.1,0-0.1-0.1v-3.1c0,0,0-0.1,0.1-0.1l12.2,0.1
		V17z"/>
	<path class="st0" d="M14.1,16.1h2.2c0.4,0,0.7-0.3,0.7-0.7s-0.3-0.7-0.7-0.7h-2.2c-0.4,0-0.7,0.3-0.7,0.7S13.7,16.1,14.1,16.1z"/>
	<path class="st0" d="M25.1,19.5H12.9c-0.8,0-1.5,0.7-1.5,1.5v3.1c0,0.8,0.7,1.5,1.5,1.5h12.2c0.8,0,1.5-0.7,1.5-1.5V21
		C26.6,20.2,25.9,19.5,25.1,19.5z M25.2,24.1C25.2,24.2,25.1,24.2,25.2,24.1l-12.2,0.1c0,0-0.1,0-0.1-0.1V21c0,0,0-0.1,0.1-0.1
		L25.2,21V24.1z"/>
	<path class="st0" d="M14.1,23.3h2.2c0.4,0,0.7-0.3,0.7-0.7s-0.3-0.7-0.7-0.7h-2.2c-0.4,0-0.7,0.3-0.7,0.7S13.7,23.3,14.1,23.3z"/>
	<path class="st0" d="M3.5,16.7c0,0,0.1,0,0.1,0c0.3,0,0.6-0.2,0.7-0.6c1.1-6,5.9-10.8,11.9-11.9c0.4-0.1,0.6-0.4,0.6-0.8
		c-0.1-0.4-0.4-0.6-0.8-0.6c-6.6,1.2-11.8,6.4-13,13C2.9,16.3,3.1,16.7,3.5,16.7z"/>
	<path class="st0" d="M16.2,33.7c-6-1.1-10.7-5.8-11.9-11.8c-0.1-0.4-0.4-0.6-0.8-0.6c-0.4,0.1-0.6,0.4-0.6,0.8c1.3,6.5,6.5,11.7,13,12.9
		c0,0,0.1,0,0.1,0c0.3,0,0.6-0.2,0.7-0.6C16.9,34.1,16.6,33.8,16.2,33.7z"/>
	<path class="st0" d="M34.5,21.4c-0.4-0.1-0.7,0.2-0.8,0.6c-1.2,5.9-5.9,10.6-11.8,11.8c-0.4,0.1-0.6,0.4-0.6,0.8c0.1,0.3,0.4,0.6,0.7,0.6
		c0,0,0.1,0,0.1,0c6.5-1.3,11.6-6.3,12.9-12.9C35.1,21.8,34.9,21.4,34.5,21.4z"/>
	<path class="st0" d="M21.9,4.3c5.9,1.2,10.7,5.9,11.8,11.9c0.1,0.3,0.4,0.6,0.7,0.6c0,0,0.1,0,0.1,0c0.4-0.1,0.6-0.4,0.6-0.8
		c-1.2-6.5-6.4-11.7-12.9-13c-0.4-0.1-0.7,0.2-0.8,0.6C21.2,3.9,21.5,4.2,21.9,4.3z"/>
	<path class="st0" d="M36,18.3h-3.7c-0.4-6.8-5.8-12.2-12.6-12.6V2c0-0.4-0.3-0.7-0.7-0.7S18.3,1.6,18.3,2v3.7C11.5,6.1,6.1,11.5,5.7,18.3H2
		c-0.4,0-0.7,0.3-0.7,0.7s0.3,0.7,0.7,0.7h3.7c0.4,6.8,5.8,12.2,12.6,12.6V36c0,0.4,0.3,0.7,0.7,0.7s0.7-0.3,0.7-0.7v-3.7
		c6.8-0.4,12.2-5.8,12.6-12.6H36c0.4,0,0.7-0.3,0.7-0.7S36.4,18.3,36,18.3z M19,30.9c-6.6,0-11.9-5.3-11.9-11.9
		c0-6.6,5.3-11.9,11.9-11.9c6.6,0,11.9,5.3,11.9,11.9C30.9,25.6,25.6,30.9,19,30.9z"/>
</g>
</svg>
