<?xml version="1.0" encoding="utf-8"?>
<!-- Generator: Adobe Illustrator 23.0.1, SVG Export Plug-In . SVG Version: 6.00 Build 0)  -->
<svg version="1.0" id="图层_1" xmlns="http://www.w3.org/2000/svg" xmlns:xlink="http://www.w3.org/1999/xlink" x="0px" y="0px"
	 viewBox="0 0 38 38" style="enable-background:new 0 0 38 38;" xml:space="preserve">
<style type="text/css">
	.st0{fill:#e2edf2;}
</style>
<g>
	<path class="st0" d="M34.1,2.7H3.9c-1.4,0-2.6,1.2-2.6,2.6v7.8c0,1.4,1.2,2.6,2.6,2.6h30.1c1.4,0,2.6-1.2,2.6-2.6V5.3
		C36.7,3.9,35.5,2.7,34.1,2.7z M35.3,13.1c0,0.7-0.5,1.2-1.2,1.2H3.9c-0.7,0-1.2-0.6-1.2-1.2V5.3c0-0.7,0.6-1.2,1.2-1.2h30.2
		c0.7,0,1.2,0.5,1.2,1.2V13.1z"/>
	<path class="st0" d="M12.4,8.5H6.9c-0.4,0-0.7,0.3-0.7,0.7s0.3,0.7,0.7,0.7h5.5c0.4,0,0.7-0.3,0.7-0.7S12.7,8.5,12.4,8.5z"/>
	<path class="st0" d="M34.1,19H3.9c-1.4,0-2.6,1.2-2.6,2.6v7.8c0,1.4,1.2,2.6,2.6,2.6h19.3c0.4,0,0.7-0.3,0.7-0.7s-0.3-0.7-0.7-0.7
		H3.9c-0.7,0-1.2-0.6-1.2-1.2v-7.8c0-0.7,0.6-1.2,1.2-1.2h30.2c0.7,0,1.2,0.5,1.2,1.2v4.1c0,0.4,0.3,0.7,0.7,0.7s0.7-0.3,0.7-0.7
		v-4.1C36.7,20.2,35.5,19,34.1,19z"/>
	<path class="st0" d="M6.9,24.8c-0.4,0-0.7,0.3-0.7,0.7s0.3,0.7,0.7,0.7h5.5c0.4,0,0.7-0.3,0.7-0.7s-0.3-0.7-0.7-0.7H6.9z"/>
	<path class="st0" d="M36.7,29.2c0-0.1,0-0.1,0-0.2c0,0,0,0,0,0c0,0,0,0,0-0.1c0,0-0.1-0.1-0.1-0.1c0,0-0.1-0.1-0.1-0.1
		c0,0-0.1-0.1-0.1-0.1l-6.6-3.2c0,0-0.1,0-0.1,0c0,0-0.1,0-0.1,0c0,0,0,0,0,0c0,0-0.1,0-0.1,0c0,0-0.1,0-0.1,0c0,0-0.1,0-0.1,0
		c0,0-0.1,0-0.1,0.1c0,0-0.1,0.1-0.1,0.1c0,0-0.1,0.1-0.1,0.1c0,0,0,0,0,0c0,0,0,0.1,0,0.1c0,0,0,0.1,0,0.1l-1.4,7.7c0,0,0,0,0,0
		c0,0.1,0,0.1,0,0.2c0,0,0,0.1,0,0.1c0,0,0,0.1,0,0.1c0,0.1,0,0.1,0.1,0.2c0,0,0,0,0,0c0,0,0,0,0,0c0.1,0.1,0.1,0.1,0.2,0.1
		c0,0,0.1,0,0.1,0c0,0,0.1,0,0.1,0c0,0,0.1,0,0.1,0c0.1,0,0.2,0,0.2,0c0,0,0.1,0,0.1,0c0,0,0.1,0,0.1-0.1l1.7-1.3l1.2,2c0,0,0,0,0,0
		c0,0,0,0,0,0l0,0c0,0.1,0.1,0.1,0.2,0.1c0,0,0.1,0.1,0.1,0.1c0.1,0.1,0.2,0.1,0.3,0.1c0.1,0,0.2,0,0.3-0.1l3.2-1.8c0,0,0,0,0,0
		c0,0,0,0,0,0c0,0,0-0.1,0.1-0.1c0,0,0.1-0.1,0.1-0.1c0,0,0-0.1,0.1-0.1c0,0,0-0.1,0-0.1c0,0,0-0.1,0-0.1c0,0,0-0.1,0-0.1
		c0,0,0-0.1,0-0.1c0,0,0-0.1,0-0.1c0,0,0,0,0,0c0,0,0,0,0,0l-1.3-1.8l1.8-0.7c0,0,0,0,0.1,0c0,0,0.1,0,0.1-0.1
		c0.1-0.1,0.1-0.1,0.2-0.2c0,0,0,0,0,0c0,0,0,0,0,0c0,0,0-0.1,0-0.1c0,0,0-0.1,0-0.1C36.7,29.2,36.7,29.2,36.7,29.2z M33.1,29.6
		C33.1,29.6,33.1,29.7,33.1,29.6C33,29.7,33,29.7,33,29.7c0,0,0,0,0,0c0,0-0.1,0.1-0.1,0.1c0,0-0.1,0.1-0.1,0.1c0,0,0,0.1,0,0.1
		c0,0,0,0.1,0,0.1c0,0,0,0.1,0,0.1c0,0,0,0.1,0,0.1c0,0,0,0,0,0.1c0,0,0,0.1,0.1,0.1c0,0,0,0,0,0l1.3,1.9l-1.9,1.1L31,31.5
		c0,0,0,0,0,0c0,0,0,0,0,0c0,0-0.1,0-0.1-0.1c0,0-0.1-0.1-0.1-0.1c0,0-0.1,0-0.1-0.1c0,0-0.1,0-0.1,0c0,0-0.1,0-0.1,0
		c0,0-0.1,0-0.1,0c0,0-0.1,0-0.1,0c0,0-0.1,0-0.1,0c0,0,0,0,0,0c0,0,0,0,0,0L29,32l0.9-5l4.3,2.1L33.1,29.6z"/>
	<path class="st0" d="M32.1,25.4l0.8-0.6c0.3-0.2,0.3-0.7,0.1-1c-0.2-0.3-0.7-0.3-1-0.1l-0.8,0.6c-0.3,0.2-0.3,0.7-0.1,1
		c0.1,0.2,0.3,0.3,0.5,0.3C31.9,25.6,32,25.5,32.1,25.4z"/>
	<path class="st0" d="M29.6,24.9c0.4,0,0.7-0.3,0.7-0.7v-1.1c0-0.4-0.3-0.7-0.7-0.7s-0.7,0.3-0.7,0.7v1.1
		C28.9,24.5,29.2,24.9,29.6,24.9z"/>
	<path class="st0" d="M27.8,25.6c0.2,0,0.4-0.1,0.5-0.2c0.3-0.3,0.3-0.7,0-1l-0.9-0.9c-0.3-0.3-0.7-0.3-1,0s-0.3,0.7,0,1l0.9,0.9
		C27.4,25.5,27.6,25.6,27.8,25.6z"/>
	<path class="st0" d="M28,26.9c0-0.4-0.3-0.7-0.7-0.7h-1.6c-0.4,0-0.7,0.3-0.7,0.7s0.3,0.7,0.7,0.7h1.6C27.7,27.6,28,27.3,28,26.9z"
		/>
</g>
</svg>
