<?xml version="1.0" encoding="utf-8"?>
<!-- Generator: Adobe Illustrator 23.0.1, SVG Export Plug-In . SVG Version: 6.00 Build 0)  -->
<svg version="1.0" id="图层_1" xmlns="http://www.w3.org/2000/svg" xmlns:xlink="http://www.w3.org/1999/xlink" x="0px" y="0px"
	 viewBox="0 0 38 38" style="enable-background:new 0 0 38 38;" xml:space="preserve">
<style type="text/css">
	.st0{fill:#e2edf2;}
</style>
<g>
	<path class="st0" d="M34.4,21.3h-10c-0.7,0-1.3,0.6-1.3,1.3v2.6c0,0.7,0.6,1.3,1.3,1.3h10c0.7,0,1.3-0.6,1.3-1.3v-2.6
		C35.8,21.9,35.2,21.3,34.4,21.3z M24.4,25.2l-0.1-2.5l10-0.1l0.1,2.5L24.4,25.2z"/>
	<path class="st0" d="M27.2,23.2h-1.8c-0.4,0-0.7,0.3-0.7,0.7s0.3,0.7,0.7,0.7h1.8c0.4,0,0.7-0.3,0.7-0.7S27.6,23.2,27.2,23.2z"/>
	<path class="st0" d="M34.4,26.7h-10c-0.7,0-1.3,0.6-1.3,1.3v2.6c0,0.7,0.6,1.3,1.3,1.3h10c0.7,0,1.3-0.6,1.3-1.3V28
		C35.8,27.3,35.2,26.7,34.4,26.7z M24.4,30.6l-0.1-2.5l10-0.1l0.1,2.5L24.4,30.6z"/>
	<path class="st0" d="M27.2,28.6h-1.8c-0.4,0-0.7,0.3-0.7,0.7S25,30,25.4,30h1.8c0.4,0,0.7-0.3,0.7-0.7S27.6,28.6,27.2,28.6z"/>
	<path class="st0" d="M29.4,32.7c-0.4,0-0.7,0.3-0.7,0.7v1.1c0,0.4-0.4,0.8-0.8,0.8H4.4c-0.4,0-0.8-0.4-0.8-0.8v-31
		c0-0.4,0.4-0.8,0.8-0.8h18v3.2c0,1.5,1.2,2.7,2.7,2.7c0,0,0,0,0,0c0,0,0,0,0,0h3.4v11.1c0,0.4,0.3,0.7,0.7,0.7s0.7-0.3,0.7-0.7V7.9
		c0,0,0,0,0,0c0-0.1,0-0.1,0-0.2c0,0,0-0.1,0-0.1c0,0,0,0,0-0.1c0-0.1-0.1-0.1-0.1-0.2c0,0,0,0,0,0l-6.2-5.9c0,0-0.1,0-0.1,0
		c0,0-0.1-0.1-0.1-0.1c0,0-0.1,0-0.1,0c0,0-0.1,0-0.1,0H4.4c-1.2,0-2.2,1-2.2,2.2v31c0,1.2,1,2.2,2.2,2.2h23.5c1.2,0,2.2-1,2.2-2.2
		v-1.1C30.1,33,29.8,32.7,29.4,32.7z M23.9,5.9V3.6l3.8,3.6h-2.4c0,0,0,0,0,0c0,0,0,0,0,0C24.5,7.2,23.9,6.6,23.9,5.9z"/>
	<path class="st0" d="M24.8,9.1H13c-0.4,0-0.7,0.3-0.7,0.7s0.3,0.7,0.7,0.7h11.8c0.4,0,0.7-0.3,0.7-0.7S25.1,9.1,24.8,9.1z"/>
	<path class="st0" d="M10.6,8.5c-0.3-0.3-0.7-0.3-1,0L8.4,9.7L8.1,9.3c-0.3-0.3-0.7-0.3-1,0c-0.3,0.3-0.3,0.7,0,1l0.8,0.8
		c0,0,0,0,0,0c0.1,0.1,0.3,0.2,0.5,0.2s0.4-0.1,0.5-0.2l1.7-1.7C10.9,9.2,10.9,8.8,10.6,8.5z"/>
	<path class="st0" d="M25.5,16.4c0-0.4-0.3-0.7-0.7-0.7H13c-0.4,0-0.7,0.3-0.7,0.7s0.3,0.7,0.7,0.7h11.8
		C25.1,17.1,25.5,16.8,25.5,16.4z"/>
	<path class="st0" d="M10.6,15.1c-0.3-0.3-0.7-0.3-1,0l-1.2,1.2l-0.3-0.3c-0.3-0.3-0.7-0.3-1,0c-0.3,0.3-0.3,0.7,0,1l0.8,0.8
		c0,0,0,0,0,0C8.1,17.9,8.2,18,8.4,18s0.4-0.1,0.5-0.2l1.7-1.7C10.9,15.8,10.9,15.4,10.6,15.1z"/>
	<path class="st0" d="M20,22.3h-7c-0.4,0-0.7,0.3-0.7,0.7s0.3,0.7,0.7,0.7h7c0.4,0,0.7-0.3,0.7-0.7S20.4,22.3,20,22.3z"/>
	<path class="st0" d="M10.6,21.7c-0.3-0.3-0.7-0.3-1,0l-1.2,1.2l-0.3-0.3c-0.3-0.3-0.7-0.3-1,0c-0.3,0.3-0.3,0.7,0,1l0.8,0.8
		c0.1,0.1,0.3,0.2,0.5,0.2s0.4-0.1,0.5-0.2l1.7-1.7C10.9,22.4,10.8,22,10.6,21.7z"/>
	<path class="st0" d="M20,29h-7c-0.4,0-0.7,0.3-0.7,0.7s0.3,0.7,0.7,0.7h7c0.4,0,0.7-0.3,0.7-0.7S20.4,29,20,29z"/>
	<path class="st0" d="M9.6,28.3l-1.2,1.2l-0.3-0.3c-0.3-0.3-0.7-0.3-1,0s-0.3,0.7,0,1L7.9,31c0,0,0,0,0,0c0.1,0.1,0.3,0.2,0.5,0.2
		s0.4-0.1,0.5-0.2l1.7-1.7c0.3-0.3,0.3-0.7,0-1C10.3,28,9.9,28,9.6,28.3z"/>
</g>
</svg>
