<?xml version="1.0" encoding="utf-8"?>
<!-- Generator: Adobe Illustrator 23.0.1, SVG Export Plug-In . SVG Version: 6.00 Build 0)  -->
<svg version="1.0" id="图层_1" xmlns="http://www.w3.org/2000/svg" xmlns:xlink="http://www.w3.org/1999/xlink" x="0px" y="0px"
	 viewBox="0 0 38 38" style="enable-background:new 0 0 38 38;" xml:space="preserve">
<style type="text/css">
	.st0{fill:#e2edf2;}
</style>
<path class="st0" d="M36.7,28.8C36.7,28.7,36.7,28.7,36.7,28.8L36.7,28.8C36.7,28.7,36.7,28.7,36.7,28.8l0-16.3c0-0.4-0.3-0.7-0.7-0.7
	c-1,0-2,0.4-3,1.1V7.4c0,0,0,0,0,0c0-0.5-0.3-0.9-0.7-1.1L19.4,1.4c-0.3-0.1-0.6-0.1-0.9,0L5.7,6.3C5.2,6.5,5,6.9,5,7.4c0,0,0,0,0,0
	v5.5c-1-0.7-2-1.1-3-1.1c-0.4,0-0.7,0.3-0.7,0.7v16.2c0,0,0,0,0,0v0c0,0,0,0,0,0c0,0.1,0,0.2,0,0.2c0,0,0,0.1,0.1,0.1
	c0,0,0,0.1,0.1,0.1c0.1,0.1,0.1,0.1,0.2,0.1c0,0,0,0,0,0l0,0c0,0,0,0,0,0l17,7.3c0,0,0,0,0,0c0.1,0,0.2,0,0.2,0c0,0,0,0,0,0
	c0,0,0,0,0,0s0,0,0,0c0,0,0,0,0,0c0.1,0,0.2,0,0.2,0c0,0,0,0,0,0l17-7.3c0,0,0,0,0,0l0,0c0,0,0,0,0,0c0.1,0,0.1-0.1,0.2-0.1
	c0,0,0-0.1,0.1-0.1c0,0,0.1-0.1,0.1-0.1C36.7,28.9,36.7,28.8,36.7,28.8z M27.3,26.9l0,0.2l-7.6,3.3v-4.2l7.9-3
	C27.3,24.5,27.3,25.8,27.3,26.9z M6.4,8.7l11.9,4.6v11.4L10,21.6c-0.9-3-2.2-5.6-3.7-7.3V8.7z M10.7,27.1l0-0.2
	c0-1.1-0.1-2.4-0.3-3.7l7.9,3v4.2L10.7,27.1z M28,21.6l-8.3,3.1V13.3l11.9-4.6v5.5C30.1,16,28.8,18.5,28,21.6z M19,2.7l12.2,4.7
	L19,12.1L6.8,7.4L19,2.7z M5.1,15C5.2,15,5.2,15,5.1,15c1.5,1.6,2.9,4.2,3.8,7.8c0.4,1.5,0.4,2.9,0.4,4.2l0,0.7c0,0,0,0.1,0,0.1
	c0,0,0,0.1,0,0.1c0,0,0.1,0.1,0.1,0.1c0,0,0,0.1,0.1,0.1c0,0,0.1,0.1,0.2,0.1c0,0,0,0,0.1,0l9,3.9c0,0,0,0,0,0c0,0,0,0,0,0
	c0.1,0,0.2,0,0.2,0c0,0,0,0,0,0c0,0,0,0,0,0c0,0,0,0,0,0s0,0,0,0c0,0,0,0,0,0c0,0,0,0,0,0c0.1,0,0.2,0,0.2,0c0,0,0,0,0,0
	c0,0,0,0,0,0l9-3.9c0,0,0,0,0.1,0c0.1,0,0.1-0.1,0.2-0.1c0,0,0-0.1,0.1-0.1c0,0,0.1-0.1,0.1-0.1c0,0,0-0.1,0-0.1c0,0,0-0.1,0-0.1
	l0-0.6c0-1.3,0-2.7,0.4-4.2c0.9-3.6,2.3-6.1,3.7-7.7c0,0,0,0,0.1-0.1c0.8-0.9,1.7-1.4,2.4-1.6v5.1l-2.7,1.2
	c-0.4,0.2-0.5,0.6-0.4,0.9c0.1,0.3,0.4,0.4,0.6,0.4c0.1,0,0.2,0,0.3-0.1l2.1-0.9v2.9L32.6,24c-0.4,0.2-0.5,0.6-0.4,0.9
	c0.1,0.3,0.4,0.4,0.6,0.4c0.1,0,0.2,0,0.3-0.1l2.1-0.9v3.9l-16.3,7l-16.3-7v-3.9l2.1,0.9c0.1,0,0.2,0.1,0.3,0.1
	c0.3,0,0.5-0.2,0.6-0.4c0.2-0.4,0-0.8-0.4-0.9l-2.7-1.2V20l2.1,0.9c0.1,0,0.2,0.1,0.3,0.1c0.3,0,0.5-0.2,0.6-0.4
	c0.2-0.4,0-0.8-0.4-0.9l-2.7-1.2v-5.1C3.5,13.5,4.3,14.1,5.1,15z"/>
</svg>
