<?xml version="1.0" encoding="utf-8"?>
<!-- Generator: Adobe Illustrator 23.0.1, SVG Export Plug-In . SVG Version: 6.00 Build 0)  -->
<svg version="1.0" id="图层_1" xmlns="http://www.w3.org/2000/svg" xmlns:xlink="http://www.w3.org/1999/xlink" x="0px" y="0px"
	 viewBox="0 0 38 38" style="enable-background:new 0 0 38 38;" xml:space="preserve">
<style type="text/css">
	.st0{fill:#e2edf2;}
</style>
<g>
	<path class="st0" d="M34.3,1.3H3.7c-1.3,0-2.4,1.1-2.4,2.4v30.7c0,1.3,1.1,2.4,2.4,2.4h30.7c1.3,0,2.4-1.1,2.4-2.4V3.7
		C36.7,2.4,35.6,1.3,34.3,1.3z M35.3,34.3c0,0.5-0.4,1-1,1H3.7c-0.5,0-1-0.4-1-1V3.7c0-0.5,0.4-1,1-1h30.7c0.5,0,1,0.4,1,1V34.3z"/>
	<path class="st0" d="M26.2,18.3H11.8c-0.4,0-0.7,0.3-0.7,0.7s0.3,0.7,0.7,0.7h14.4c0.4,0,0.7-0.3,0.7-0.7S26.6,18.3,26.2,18.3z"/>
	<path class="st0" d="M26.2,24.7H11.8c-0.4,0-0.7,0.3-0.7,0.7s0.3,0.7,0.7,0.7h14.4c0.4,0,0.7-0.3,0.7-0.7S26.6,24.7,26.2,24.7z"/>
	<path class="st0" d="M26.2,11.9H11.8c-0.4,0-0.7,0.3-0.7,0.7s0.3,0.7,0.7,0.7h14.4c0.4,0,0.7-0.3,0.7-0.7S26.6,11.9,26.2,11.9z"/>
</g>
</svg>
