<?xml version="1.0" encoding="utf-8"?>
<!-- Generator: Adobe Illustrator 23.0.1, SVG Export Plug-In . SVG Version: 6.00 Build 0)  -->
<svg version="1.0" id="图层_1" xmlns="http://www.w3.org/2000/svg" xmlns:xlink="http://www.w3.org/1999/xlink" x="0px" y="0px"
	 viewBox="0 0 38 38" style="enable-background:new 0 0 38 38;" xml:space="preserve">
<style type="text/css">
	.st0{fill:#e2edf2;}
</style>
<g>
	<path class="st0" d="M24.8,14.4c0,0,0-0.1,0-0.1c0,0,0-0.1-0.1-0.1c0,0,0-0.1,0-0.1l-3.5-4.3c0,0,0,0-0.1,0c0,0,0,0,0-0.1
		c0,0,0,0-0.1,0c0,0-0.1,0-0.1-0.1c0,0-0.1,0-0.1,0c0,0-0.1,0-0.1,0c0,0-0.1,0-0.1,0c0,0-0.1,0-0.1,0c0,0-0.1,0-0.1,0.1
		c0,0,0,0-0.1,0c0,0,0,0,0,0.1c0,0,0,0-0.1,0l-3.5,4.3c0,0,0,0.1,0,0.1c0,0-0.1,0.1-0.1,0.1c0,0,0,0.1,0,0.1c0,0,0,0.1,0,0.1
		c0,0,0,0,0,0c0,0,0,0.1,0,0.1c0,0,0,0.1,0,0.1c0,0,0,0.1,0.1,0.1c0,0,0.1,0.1,0.1,0.1c0,0,0,0,0,0c0,0,0.1,0,0.1,0.1
		c0,0,0.1,0,0.1,0c0.1,0,0.2,0.1,0.3,0.1c0,0,0,0,0,0s0,0,0,0h1.4v7.1c0,0.4,0.3,0.7,0.7,0.7s0.7-0.3,0.7-0.7v-7.8
		c0-0.4-0.3-0.7-0.7-0.7h-0.6l2-2.5l2,2.5H22c-0.4,0-0.7,0.3-0.7,0.7v9.9c0,0.4,0.3,0.7,0.7,0.7s0.7-0.3,0.7-0.7v-9.2h1.4
		c0.1,0,0.2,0,0.3-0.1c0,0,0.1,0,0.1,0c0,0,0.1,0,0.1-0.1c0,0,0,0,0,0c0,0,0.1-0.1,0.1-0.1c0,0,0.1-0.1,0.1-0.1c0,0,0-0.1,0-0.1
		c0,0,0-0.1,0-0.1C24.8,14.6,24.8,14.5,24.8,14.4C24.8,14.5,24.8,14.5,24.8,14.4z"/>
	<path class="st0" d="M16.2,22.1c0,0,0-0.1,0-0.1c0,0,0-0.1-0.1-0.1c0,0,0-0.1,0-0.1l-3.3-4.1c0,0,0,0-0.1,0c0,0,0,0,0-0.1
		c0,0,0,0-0.1,0c0,0-0.1,0-0.1-0.1c0,0-0.1,0-0.1,0c0,0-0.1,0-0.1,0c0,0-0.1,0-0.1,0c0,0-0.1,0-0.1,0c0,0-0.1,0-0.1,0.1
		c0,0,0,0-0.1,0c0,0,0,0,0,0.1c0,0,0,0-0.1,0l-3.3,4.1c0,0,0,0.1,0,0.1c0,0-0.1,0.1-0.1,0.1c0,0,0,0.1,0,0.1c0,0,0,0.1,0,0.1
		c0,0,0,0,0,0c0,0,0,0.1,0,0.1c0,0,0,0.1,0,0.1c0,0,0,0.1,0.1,0.1c0,0,0.1,0.1,0.1,0.1c0,0,0,0,0,0c0,0,0.1,0,0.1,0.1
		c0,0,0.1,0,0.1,0c0.1,0,0.2,0.1,0.3,0.1c0,0,0,0,0,0s0,0,0,0h1.3v6.5c0,0.4,0.3,0.7,0.7,0.7s0.7-0.3,0.7-0.7v-7.2
		c0-0.4-0.3-0.7-0.7-0.7h-0.5l1.8-2.3l1.8,2.3h-0.5c-0.4,0-0.7,0.3-0.7,0.7v7.2c0,0.4,0.3,0.7,0.7,0.7s0.7-0.3,0.7-0.7v-6.5h1.3
		c0,0,0,0,0,0s0,0,0,0c0.1,0,0.2,0,0.3-0.1c0,0,0.1,0,0.1,0c0,0,0.1,0,0.1-0.1c0,0,0,0,0,0c0,0,0.1-0.1,0.1-0.1c0,0,0.1-0.1,0.1-0.1
		c0,0,0-0.1,0-0.1c0,0,0-0.1,0-0.1C16.2,22.2,16.3,22.2,16.2,22.1C16.3,22.1,16.2,22.1,16.2,22.1z"/>
	<path class="st0" d="M29.6,33.9c-0.4,0-0.7,0.3-0.7,0.7c0,0.4-0.4,0.8-0.8,0.8H4.7c-0.4,0-0.8-0.4-0.8-0.8v-31
		c0-0.4,0.4-0.8,0.8-0.8h18v3.2c0,1.5,1.2,2.7,2.7,2.7c0,0,0,0,0,0c0,0,0,0,0,0h3.4v11.4c0,0.4,0.3,0.7,0.7,0.7s0.7-0.3,0.7-0.7V8
		c0,0,0,0,0,0c0-0.1,0-0.1,0-0.2c0,0,0-0.1,0-0.1c0,0,0,0,0-0.1c0-0.1-0.1-0.1-0.1-0.2c0,0,0,0,0,0l-6.2-5.9c0,0-0.1,0-0.1,0
		c0,0-0.1-0.1-0.1-0.1c0,0-0.1,0-0.2,0c0,0-0.1,0-0.1,0H4.7c-1.2,0-2.2,1-2.2,2.2v31c0,1.2,1,2.2,2.2,2.2h23.5c1.2,0,2.2-1,2.2-2.2
		C30.3,34.2,30,33.9,29.6,33.9z M24.1,5.9V3.7l3.8,3.6h-2.4c0,0,0,0,0,0c0,0,0,0,0,0C24.7,7.3,24.1,6.6,24.1,5.9z"/>
	<path class="st0" d="M29.6,21.5c-3.3,0-5.9,2.7-5.9,5.9s2.7,5.9,5.9,5.9s5.9-2.7,5.9-5.9S32.9,21.5,29.6,21.5z M29.6,31.9
		c-2.5,0-4.5-2-4.5-4.5c0-2.5,2-4.5,4.5-4.5c2.5,0,4.5,2,4.5,4.5C34.1,29.9,32.1,31.9,29.6,31.9z"/>
	<path class="st0" d="M32.7,29.5l-2.4-2.4v-1.6c0-0.4-0.3-0.7-0.7-0.7s-0.7,0.3-0.7,0.7v1.9c0,0.1,0,0.2,0.1,0.3
		c0,0.1,0.1,0.2,0.2,0.2l2.6,2.6c0.1,0.1,0.3,0.2,0.5,0.2s0.4-0.1,0.5-0.2C33,30.2,33,29.8,32.7,29.5z"/>
</g>
</svg>
