<?xml version="1.0" encoding="utf-8"?>
<!-- Generator: Adobe Illustrator 23.0.1, SVG Export Plug-In . SVG Version: 6.00 Build 0)  -->
<svg version="1.0" id="图层_1" xmlns="http://www.w3.org/2000/svg" xmlns:xlink="http://www.w3.org/1999/xlink" x="0px" y="0px"
	 viewBox="0 0 38 38" style="enable-background:new 0 0 38 38;" xml:space="preserve">
<style type="text/css">
	.st0{fill:#e2edf2;}
</style>
<g>
	<path class="st0" d="M26.7,26.2c1.6-1.9,2.6-4.3,2.6-7c0-5.9-4.8-10.6-10.6-10.6c-5.9,0-10.6,4.8-10.6,10.6c0,5.9,4.8,10.6,10.6,10.6
		c2.7,0,5.1-1,7-2.7l6.2,6.2c0.1,0.1,0.3,0.2,0.5,0.2s0.4-0.1,0.5-0.2c0.3-0.3,0.3-0.7,0-1L26.7,26.2z M9.5,19.2
		c0-5.1,4.1-9.2,9.2-9.2s9.2,4.1,9.2,9.2c0,5.1-4.1,9.2-9.2,9.2S9.5,24.3,9.5,19.2z"/>
	<path class="st0" d="M2.2,12.5c0.2,0,0.4-0.1,0.5-0.2l2.4-2.4c0,0,0,0,0,0c0,0,0,0,0,0c0.4-0.4,1-0.4,1.3,0c0,0,0,0,0,0c0,0,0,0,0,0l1.9,1.8
		c0.1,0.1,0.3,0.2,0.5,0.2c0.2,0,0.4-0.1,0.5-0.2c0.3-0.3,0.3-0.7,0-1L7.4,8.9c0,0,0,0,0,0C6.5,8,5.1,8,4.1,8.9c0,0,0,0,0,0
		l-2.4,2.4c-0.3,0.3-0.3,0.7,0,1C1.8,12.4,2,12.5,2.2,12.5z"/>
	<path class="st0" d="M16.3,19.6C16.3,19.6,16.3,19.6,16.3,19.6c0.5,0.5,1.1,0.7,1.7,0.7s1.2-0.2,1.6-0.7c0,0,0,0,0,0l4.8-4.7
		c0.3-0.3,0.3-0.7,0-1c-0.3-0.3-0.7-0.3-1,0l-4.8,4.7c0,0,0,0,0,0c0,0,0,0,0,0c-0.4,0.4-1,0.4-1.3,0c0,0,0,0,0,0c0,0,0,0,0,0
		l-3.8-3.7c-0.3-0.3-0.7-0.3-1,0c-0.3,0.3-0.3,0.7,0,1L16.3,19.6z"/>
	<path class="st0" d="M26.4,18.8c0.3-0.3,0.3-0.7,0-1c-0.3-0.3-0.7-0.3-1,0l-6.8,6.7c0,0,0,0,0,0c0,0,0,0,0,0c-0.4,0.4-1,0.4-1.3,0c0,0,0,0,0,0
		c0,0,0,0,0,0l-5.5-5.4c-0.3-0.3-0.7-0.3-1,0c-0.3,0.3-0.3,0.7,0,1l5.5,5.4c0,0,0,0,0,0c0.5,0.4,1.1,0.7,1.6,0.7s1.2-0.2,1.6-0.7
		c0,0,0,0,0,0L26.4,18.8z"/>
	<path class="st0" d="M7.4,14.7C7.4,14.7,7.4,14.7,7.4,14.7c-0.9-0.9-2.4-0.9-3.3,0c0,0,0,0,0,0l-2.4,2.4c-0.3,0.3-0.3,0.7,0,1
		c0.1,0.1,0.3,0.2,0.5,0.2c0.2,0,0.4-0.1,0.5-0.2l2.4-2.4c0,0,0,0,0,0c0,0,0,0,0,0c0.4-0.4,1-0.4,1.3,0c0,0,0,0,0,0c0,0,0,0,0,0
		l0.2,0.2c0.1,0.1,0.3,0.2,0.5,0.2c0.2,0,0.4-0.1,0.5-0.2c0.3-0.3,0.3-0.7,0-1L7.4,14.7z"/>
	<path class="st0" d="M36.9,5C36.9,5,36.9,5,36.9,5c0-0.1,0-0.1-0.1-0.1c0,0,0-0.1-0.1-0.1c0,0,0,0-0.1-0.1c0,0-0.1-0.1-0.1-0.1c0,0,0,0,0,0
		c-0.1,0-0.1-0.1-0.2-0.1c0,0,0,0,0,0c0,0-0.1,0-0.1,0c-0.1,0-0.1,0-0.2,0L27,6c0,0,0,0-0.1,0c0,0-0.1,0-0.1,0.1c0,0-0.1,0-0.1,0.1
		c0,0,0,0-0.1,0c0,0,0,0,0,0.1c0,0-0.1,0.1-0.1,0.1c0,0,0,0.1-0.1,0.1c0,0,0,0.1,0,0.1c0,0,0,0.1,0,0.1c0,0,0,0,0,0.1c0,0,0,0,0,0.1
		c0,0,0,0.1,0,0.1c0,0.1,0.1,0.1,0.1,0.1c0,0,0,0,0,0.1L28.4,9l-0.9,0.9c-0.3,0.3-0.3,0.7,0,1c0.1,0.1,0.3,0.2,0.5,0.2
		c0.2,0,0.4-0.1,0.5-0.2l1.4-1.4c0,0,0-0.1,0.1-0.1c0,0,0.1-0.1,0.1-0.1c0,0,0-0.1,0-0.1c0,0,0-0.1,0-0.1c0-0.1,0-0.1,0-0.1
		c0,0,0-0.1,0-0.1c0,0-0.1-0.1-0.1-0.1c0,0,0-0.1-0.1-0.1l0,0c0,0,0,0,0,0c0,0,0,0,0,0l-1.3-1.4l6.8-1.2l-1.2,6.6l-1.2-1.2
		c0,0-0.1,0-0.1-0.1c0,0-0.1-0.1-0.1-0.1c0,0-0.1,0-0.1,0c0,0-0.1,0-0.1,0c0,0-0.1,0-0.1,0c0,0-0.1,0-0.1,0c0,0-0.1,0-0.1,0.1
		c0,0-0.1,0-0.1,0.1L30,13.3c-0.3,0.3-0.3,0.7,0,1c0.1,0.1,0.3,0.2,0.5,0.2c0.2,0,0.4-0.1,0.5-0.2l1.4-1.4l1.7,1.6c0,0,0,0,0.1,0
		c0,0,0.1,0.1,0.1,0.1c0,0,0.1,0,0.1,0.1c0,0,0,0,0.1,0c0,0,0.1,0,0.1,0c0,0,0,0,0,0c0,0,0,0,0,0c0,0,0,0,0,0c0.1,0,0.2,0,0.3-0.1
		c0,0,0,0,0.1,0c0.1,0,0.1-0.1,0.2-0.1c0,0,0,0,0,0c0,0,0,0,0-0.1c0,0,0.1-0.1,0.1-0.1c0,0,0-0.1,0-0.1c0,0,0,0,0-0.1l1.6-8.9
		c0,0,0-0.1,0-0.1C36.9,5,36.9,5,36.9,5z"/>
</g>
</svg>
