<?xml version="1.0" encoding="utf-8"?>
<!-- Generator: Adobe Illustrator 23.0.1, SVG Export Plug-In . SVG Version: 6.00 Build 0)  -->
<svg version="1.0" id="图层_1" xmlns="http://www.w3.org/2000/svg" xmlns:xlink="http://www.w3.org/1999/xlink" x="0px" y="0px"
	 viewBox="0 0 38 38" style="enable-background:new 0 0 38 38;" xml:space="preserve">
<style type="text/css">
	.st0{fill:#e2edf2;}
</style>
<path class="st0" d="M34.1,11.2C34.1,11.2,34.1,11.2,34.1,11.2C34,11.2,34,11.2,34.1,11.2l-12.4-9c0,0,0,0,0,0c0,0,0,0,0,0l0,0
	c0,0,0,0,0,0c-1.6-1.2-3.9-1.2-5.4,0c0,0,0,0,0,0L4,11.2c0,0,0,0,0,0c0,0,0,0,0,0c-2.3,2.1-2.3,3.5-2.3,7.2v15.1
	c0,1.7,1.4,3.1,3.1,3.1h28.5c1.7,0,3.1-1.4,3.1-3.1V18.5C36.4,14.7,36.4,13.5,34.1,11.2z M22.6,35.3h-7.2l0.1-10.1l7.1,0.1V35.3z
	 M33.2,35.3H24v-10c0-0.8-0.7-1.5-1.5-1.5h-7.1c-0.8,0-1.5,0.7-1.5,1.5v10H4.8c-1,0-1.7-0.8-1.7-1.7V18.5c0-3.6,0-4.5,1.8-6.2
	l12.3-9c0,0,0,0,0,0c0,0,0,0,0,0c1-0.8,2.7-0.8,3.7,0c0,0,0,0,0,0c0,0,0,0,0,0l12.3,9c1.9,1.8,1.9,2.6,1.9,6.2v15.1
	C35,34.5,34.2,35.3,33.2,35.3z"/>
</svg>
