<?xml version="1.0" encoding="utf-8"?>
<!-- Generator: Adobe Illustrator 23.0.1, SVG Export Plug-In . SVG Version: 6.00 Build 0)  -->
<svg version="1.0" id="图层_1" xmlns="http://www.w3.org/2000/svg" xmlns:xlink="http://www.w3.org/1999/xlink" x="0px" y="0px"
	 viewBox="0 0 38 38" style="enable-background:new 0 0 38 38;" xml:space="preserve">
<style type="text/css">
	.st0{fill:#e2edf2;}
</style>
<g>
	<path class="st0" d="M7.5,24.3v0.9c0,0.8,0.7,1.5,1.5,1.5h0.7c0.8,0,1.5-0.7,1.5-1.5v-0.9c0.3-0.1,0.6-0.2,0.9-0.4l0.7,0.7
		c0.3,0.3,0.6,0.4,1,0.4s0.8-0.2,1-0.4l0.5-0.5c0.6-0.6,0.6-1.5,0-2.1l-0.7-0.7c0.1-0.2,0.2-0.5,0.3-0.8h0.9c0.8,0,1.5-0.7,1.5-1.5
		v-0.7c0-0.8-0.7-1.5-1.5-1.5h-0.9c-0.1-0.3-0.2-0.5-0.3-0.8l0.7-0.7c0.6-0.6,0.6-1.5,0-2.1L14.6,13c-0.6-0.6-1.5-0.6-2.1,0
		l-0.7,0.7c-0.3-0.2-0.6-0.3-0.9-0.4v-0.9c0-0.8-0.7-1.5-1.5-1.5H8.9c-0.8,0-1.5,0.7-1.5,1.5v0.9c-0.3,0.1-0.5,0.2-0.8,0.3L6.1,13
		c-0.5-0.5-1.5-0.5-2.1,0l-0.5,0.5C3,14,3,15,3.6,15.5l0.6,0.6C4,16.4,3.9,16.7,3.8,17H2.9c-0.8,0-1.5,0.7-1.5,1.5v0.7
		c0,0.8,0.7,1.5,1.5,1.5h0.9c0.1,0.3,0.2,0.6,0.4,0.9L3.6,22c-0.6,0.6-0.6,1.5,0,2.1L4,24.6c0.3,0.3,0.6,0.4,1,0.4
		c0.4,0,0.8-0.2,1-0.4l0.6-0.6C6.9,24.1,7.2,24.2,7.5,24.3z M4.9,23.7l-0.5-0.5c-0.1-0.1-0.1-0.3,0-0.4L5.3,22c0,0,0,0,0,0
		c0,0,0-0.1,0.1-0.1c0,0,0-0.1,0-0.1c0,0,0-0.1,0-0.1c0,0,0-0.1,0-0.1c0,0,0-0.1,0-0.1c0,0,0-0.1,0-0.1c0,0,0,0,0-0.1
		c-0.3-0.4-0.5-0.9-0.6-1.4c0,0,0,0,0,0c0,0,0-0.1-0.1-0.1c0,0,0-0.1-0.1-0.1c0,0-0.1-0.1-0.1-0.1c0,0-0.1,0-0.1-0.1
		c0,0-0.1,0-0.1,0c0,0-0.1,0-0.1,0c0,0,0,0-0.1,0H2.9c-0.1,0-0.3-0.1-0.3-0.3v-0.7c0-0.1,0.1-0.3,0.3-0.3h1.3c0,0,0,0,0,0
		c0,0,0,0,0,0c0.1,0,0.1,0,0.2,0c0,0,0,0,0.1,0c0,0,0.1,0,0.1-0.1c0,0,0,0,0.1-0.1c0,0,0.1-0.1,0.1-0.1c0,0,0-0.1,0-0.1
		c0,0,0,0,0-0.1c0.1-0.5,0.3-1,0.6-1.4c0,0,0,0,0,0c0,0,0-0.1,0-0.1c0,0,0-0.1,0-0.1c0,0,0-0.1,0-0.1c0,0,0-0.1,0-0.1
		c0,0,0-0.1,0-0.1c0,0,0-0.1-0.1-0.1c0,0,0,0,0,0l-0.9-0.9c-0.1-0.1-0.1-0.3,0-0.4l0.5-0.5c0.1-0.1,0.2-0.1,0.4,0l0.9,0.9
		c0,0,0.1,0,0.1,0.1c0,0,0.1,0.1,0.1,0.1c0,0,0,0,0.1,0c0.1,0,0.1,0,0.2,0c0.1,0,0.1,0,0.2-0.1c0,0,0,0,0,0c0,0,0.1,0,0.1,0
		c0.4-0.2,0.9-0.4,1.3-0.5c0,0,0,0,0,0c0,0,0.1,0,0.1-0.1c0,0,0.1,0,0.1-0.1c0,0,0.1-0.1,0.1-0.1c0,0,0-0.1,0.1-0.1c0,0,0-0.1,0-0.1
		c0,0,0-0.1,0-0.1c0,0,0,0,0,0v-1.3c0-0.1,0.1-0.3,0.3-0.3h0.7c0.1,0,0.3,0.1,0.3,0.3v1.3c0,0,0,0,0,0.1c0,0,0,0.1,0,0.1
		c0,0,0,0.1,0,0.1c0,0,0,0.1,0.1,0.1c0,0,0,0.1,0.1,0.1c0,0,0.1,0,0.1,0.1c0,0,0.1,0,0.1,0.1c0,0,0,0,0,0c0.5,0.1,1,0.3,1.4,0.6
		c0,0,0,0,0,0c0.1,0,0.2,0.1,0.3,0.1c0,0,0,0,0,0c0,0,0,0,0,0c0.1,0,0.2,0,0.3-0.1c0,0,0,0,0.1,0c0,0,0.1,0,0.1-0.1l1-1
		c0.1-0.1,0.3-0.1,0.4,0l0.5,0.5c0.1,0.1,0.1,0.3,0,0.4l-1,1c0,0,0,0,0,0c0,0,0,0.1-0.1,0.1c0,0,0,0.1,0,0.1c0,0,0,0.1,0,0.1
		c0,0,0,0.1,0,0.1c0,0,0,0.1,0,0.1c0,0,0,0.1,0,0.1c0,0,0,0,0,0c0.2,0.4,0.4,0.8,0.5,1.3c0,0,0,0,0,0.1c0,0,0,0.1,0,0.1
		c0,0,0,0.1,0.1,0.1c0,0,0,0,0.1,0.1c0,0,0.1,0.1,0.1,0.1c0,0,0,0,0.1,0c0.1,0,0.1,0,0.2,0c0,0,0,0,0,0c0,0,0,0,0,0h1.3
		c0.1,0,0.3,0.1,0.3,0.3v0.7c0,0.1-0.1,0.3-0.3,0.3h-1.3c0,0,0,0-0.1,0c0,0-0.1,0-0.1,0c0,0-0.1,0-0.1,0c0,0-0.1,0-0.1,0.1
		c0,0-0.1,0-0.1,0.1c0,0,0,0.1-0.1,0.1c0,0,0,0.1-0.1,0.1c0,0,0,0,0,0c-0.1,0.5-0.3,0.9-0.5,1.3c0,0,0,0,0,0c0,0,0,0.1,0,0.1
		c0,0,0,0.1,0,0.1c0,0,0,0.1,0,0.1c0,0,0,0.1,0,0.1c0,0,0,0.1,0,0.1c0,0,0,0.1,0.1,0.1c0,0,0,0,0,0l1,1c0.1,0.1,0.1,0.3,0,0.4
		l-0.5,0.5c-0.1,0.1-0.2,0.1-0.4,0l-1-1c0,0,0,0-0.1,0c0,0-0.1,0-0.1-0.1c0,0-0.1,0-0.1,0c0,0-0.1,0-0.1,0c0,0-0.1,0-0.1,0
		c0,0-0.1,0-0.1,0c0,0-0.1,0-0.1,0c0,0,0,0-0.1,0c-0.4,0.3-0.9,0.5-1.4,0.6c0,0-0.1,0-0.1,0.1c0,0,0,0,0,0c-0.1,0-0.1,0.1-0.1,0.1
		c0,0-0.1,0.1-0.1,0.1c0,0,0,0,0,0c-0.1,0.1-0.1,0.2-0.1,0.3v1.3c0,0.1-0.1,0.3-0.3,0.3H8.9c-0.1,0-0.3-0.1-0.3-0.3v-1.3
		c0,0,0-0.1,0-0.1c0,0,0,0,0-0.1c0,0,0-0.1,0-0.1c0,0-0.1-0.1-0.1-0.1c0,0,0,0,0,0c-0.1-0.1-0.2-0.1-0.3-0.2
		c-0.5-0.1-0.9-0.3-1.3-0.5c0,0,0,0,0,0c0,0-0.1,0-0.1,0c0,0-0.1,0-0.1,0c0,0-0.1,0-0.1,0c0,0-0.1,0-0.1,0c0,0-0.1,0-0.1,0
		c0,0-0.1,0-0.1,0.1c0,0,0,0,0,0l-0.9,0.9C5.1,23.8,5,23.8,4.9,23.7z"/>
	<path class="st0" d="M9.2,22.4c2,0,3.7-1.6,3.7-3.7c0-2-1.6-3.7-3.7-3.7c-2,0-3.7,1.6-3.7,3.7C5.6,20.8,7.2,22.4,9.2,22.4z
		 M9.2,16.3c1.4,0,2.5,1.1,2.5,2.5c0,1.4-1.1,2.5-2.5,2.5c-1.4,0-2.5-1.1-2.5-2.5C6.8,17.4,7.9,16.3,9.2,16.3z"/>
	<path class="st0" d="M35,11.1H24.8c-0.8,0-1.5,0.7-1.5,1.5v12.1c0,0.8,0.7,1.5,1.5,1.5H33c0.8,0,1.5-0.7,1.5-1.5v-2.3
		c0-0.3-0.3-0.6-0.6-0.6s-0.6,0.3-0.6,0.6v2.3c0,0.2-0.2,0.3-0.3,0.3h-8.2c-0.2,0-0.3-0.2-0.3-0.3V12.6c0-0.2,0.2-0.3,0.3-0.3h8.6
		c0,0.1-0.1,0.3-0.1,0.4v4.6c0,0.3,0.3,0.6,0.6,0.6s0.6-0.3,0.6-0.6v-4.6c0-0.2,0.2-0.4,0.4-0.4s0.4,0.2,0.4,0.4v2.8
		c0,0.3,0.3,0.6,0.6,0.6s0.6-0.3,0.6-0.6v-2.8C36.6,11.8,35.9,11.1,35,11.1z"/>
	<path class="st0" d="M29.4,29.3l-2.7,0.2c-0.3,0-0.6,0.3-0.6,0.6c0,0.3,0.3,0.6,0.6,0.6c0,0,0,0,0,0l1-0.1
		c-2.5,2.1-5.6,3.2-8.9,3.2c-4,0-7.7-1.7-10.4-4.6c-0.2-0.2-0.6-0.3-0.8,0c-0.2,0.2-0.3,0.6,0,0.8c2.9,3.2,7,5,11.3,5
		c3.8,0,7.3-1.4,10.1-3.8l0.1,1.4c0,0.3,0.3,0.6,0.6,0.6c0,0,0,0,0,0c0.3,0,0.6-0.3,0.6-0.6l-0.2-2.7C30.1,29.5,29.8,29.3,29.4,29.3
		z"/>
	<path class="st0" d="M8,9.1l2.7,0c0,0,0,0,0,0c0.3,0,0.6-0.3,0.6-0.6c0-0.3-0.3-0.6-0.6-0.6l-1.2,0c2.6-2.4,5.9-3.7,9.4-3.7
		c4.1,0,8.1,1.8,10.7,5c0.1,0.1,0.3,0.2,0.5,0.2c0.1,0,0.3,0,0.4-0.1c0.3-0.2,0.3-0.6,0.1-0.8C27.6,5,23.4,3,18.9,3
		c-3.8,0-7.5,1.5-10.3,4l0-1.2c0-0.3-0.3-0.6-0.6-0.6c0,0,0,0,0,0c-0.3,0-0.6,0.3-0.6,0.6l0,2.7C7.4,8.8,7.6,9.1,8,9.1z"/>
	<path class="st0" d="M35.2,18.3l-3.6,3.6L29.8,20c-0.2-0.2-0.6-0.2-0.8,0c-0.2,0.2-0.2,0.6,0,0.8l2.2,2.2c0.1,0.1,0.3,0.2,0.4,0.2
		s0.3-0.1,0.4-0.2c0,0,0,0,0,0l4-4c0.2-0.2,0.2-0.6,0-0.8S35.4,18.1,35.2,18.3z"/>
</g>
</svg>
