<?xml version="1.0" encoding="utf-8"?>
<!-- Generator: Adobe Illustrator 23.0.1, SVG Export Plug-In . SVG Version: 6.00 Build 0)  -->
<svg version="1.0" id="图层_1" xmlns="http://www.w3.org/2000/svg" xmlns:xlink="http://www.w3.org/1999/xlink" x="0px" y="0px"
	 viewBox="0 0 38 38" style="enable-background:new 0 0 38 38;" xml:space="preserve">
<style type="text/css">
	.st0{fill:#e2edf2;}
</style>
<g>
	<path class="st0" d="M11.8,9.9c1.6,0,2.9-1.1,3.2-2.6H21c0.4,0,0.7-0.3,0.7-0.7S21.4,6,21,6h-6.1c-0.3-1.5-1.6-2.6-3.2-2.6
		c-1.8,0-3.3,1.5-3.3,3.3S10,9.9,11.8,9.9z M11.8,4.8c1,0,1.9,0.8,1.9,1.9s-0.8,1.9-1.9,1.9S9.9,7.7,9.9,6.7S10.7,4.8,11.8,4.8z"/>
	<path class="st0" d="M25.4,9.8c0.3,0.1,0.5,0.1,0.8,0.1c0.3,0,0.7-0.1,1-0.2l3.1,5.2c0.1,0.2,0.4,0.3,0.6,0.3c0.1,0,0.2,0,0.4-0.1
		c0.3-0.2,0.4-0.6,0.2-1l-3.1-5.2c0.5-0.4,0.8-1,0.9-1.6C29.6,6.6,29.5,5.8,29,5s-1.1-1.3-2-1.5c-0.8-0.2-1.7-0.1-2.5,0.3
		s-1.3,1.1-1.5,2c-0.2,0.8-0.1,1.7,0.3,2.5S24.6,9.6,25.4,9.8z M24.4,6.2c0.1-0.5,0.4-0.9,0.9-1.1c0.3-0.2,0.6-0.3,0.9-0.3
		c0.2,0,0.3,0,0.5,0.1c0.5,0.1,0.9,0.4,1.1,0.9c0.3,0.4,0.3,0.9,0.2,1.4c-0.1,0.5-0.4,0.9-0.9,1.1c0,0,0,0,0,0
		c-0.4,0.3-0.9,0.3-1.4,0.2c-0.5-0.1-0.9-0.4-1.1-0.9S24.3,6.7,24.4,6.2z"/>
	<path class="st0" d="M35.1,16.2c-1.5-0.9-3.5-0.4-4.5,1.2c-0.4,0.8-0.6,1.6-0.3,2.5c0.2,0.6,0.5,1.1,0.9,1.6l-3.1,5.2
		c-0.2,0.3-0.1,0.8,0.2,1c0.1,0.1,0.2,0.1,0.4,0.1c0.2,0,0.5-0.1,0.6-0.3l3.1-5.2c0.3,0.1,0.7,0.2,1,0.2c1.1,0,2.2-0.6,2.8-1.6
		C37.2,19.1,36.6,17.1,35.1,16.2z M35,20c-0.5,0.9-1.7,1.2-2.5,0.7c-0.9-0.5-1.2-1.7-0.7-2.5c0.5-0.9,1.7-1.2,2.5-0.7
		C35.3,18,35.6,19.1,35,20z"/>
	<path class="st0" d="M26.2,28.1c-1.6,0-2.9,1.1-3.2,2.6H17c-0.4,0-0.7,0.3-0.7,0.7S16.6,32,17,32h6.1c0.3,1.5,1.6,2.6,3.2,2.6
		c1.8,0,3.3-1.5,3.3-3.3S28,28.1,26.2,28.1z M26.2,33.2c-1,0-1.9-0.8-1.9-1.9c0-1,0.8-1.9,1.9-1.9s1.9,0.8,1.9,1.9
		C28.1,32.3,27.3,33.2,26.2,33.2z"/>
	<path class="st0" d="M10.8,28.2L7.7,23c-0.2-0.3-0.6-0.4-1-0.2c-0.3,0.2-0.4,0.6-0.2,1l3.1,5.2c-1.1,1-1.4,2.7-0.6,4
		c0.6,1,1.7,1.6,2.8,1.6c0.6,0,1.1-0.1,1.6-0.4c1.5-0.9,2.1-2.9,1.2-4.5C13.8,28.3,12.2,27.8,10.8,28.2z M12.7,32.9
		c-0.9,0.5-2,0.2-2.5-0.7c-0.5-0.9-0.2-2,0.7-2.5c0.9-0.5,2-0.2,2.5,0.7C13.9,31.3,13.6,32.4,12.7,32.9z"/>
	<path class="st0" d="M7.4,20.6c0.4-0.7,0.6-1.6,0.3-2.5c-0.2-0.6-0.5-1.1-0.9-1.6l3.1-5.2c0.2-0.3,0.1-0.8-0.3-1
		c-0.3-0.2-0.8-0.1-1,0.3l-3.1,5.2c-0.6-0.2-1.2-0.2-1.8-0.1c-0.8,0.2-1.5,0.8-2,1.5c-0.4,0.8-0.6,1.6-0.3,2.5
		c0.2,0.8,0.8,1.5,1.5,2c0.5,0.3,1.1,0.4,1.6,0.4c0.3,0,0.6,0,0.8-0.1C6.2,21.9,6.9,21.4,7.4,20.6z M6.2,19.9
		c-0.2,0.4-0.7,0.7-1.1,0.9c-0.5,0.1-1,0.1-1.4-0.2C2.7,20,2.4,18.9,3,18c0.2-0.4,0.7-0.7,1.1-0.9c0.2,0,0.3-0.1,0.5-0.1
		c0.3,0,0.6,0.1,0.9,0.3h0c0.4,0.2,0.7,0.7,0.9,1.1C6.5,19,6.4,19.5,6.2,19.9z"/>
	<path class="st0" d="M19.1,10.7C19.1,10.7,19.1,10.7,19.1,10.7C19.1,10.7,19.1,10.7,19.1,10.7C19.1,10.7,19.1,10.7,19.1,10.7
		C19,10.7,19,10.7,19.1,10.7c-4.6,0-8.3,3.7-8.3,8.3c0,4.6,3.7,8.3,8.3,8.3c0,0,0,0,0,0s0,0,0,0c4.6,0,8.3-3.7,8.3-8.3
		C27.4,14.5,23.7,10.8,19.1,10.7z M24.7,23c-0.5-0.3-1.2-0.6-1.8-0.8c0.2-0.9,0.3-1.8,0.3-2.5l2.7,0C25.8,20.9,25.4,22,24.7,23z
		 M12.2,19.7l2.7,0c0,0.7,0.1,1.5,0.3,2.5c-0.7,0.2-1.3,0.4-1.8,0.8C12.8,22,12.3,20.9,12.2,19.7z M13.4,15.1
		c0.5,0.3,1.2,0.6,1.9,0.8c-0.2,0.9-0.3,1.8-0.3,2.4l-2.7,0C12.3,17.2,12.7,16.1,13.4,15.1z M18.4,15c-0.4,0-0.9-0.1-1.4-0.1
		c0.3-0.8,0.7-1.6,1.4-2.2V15z M18.4,16.4v2l-2,0c0-0.6,0.1-1.3,0.3-2.1C17.2,16.3,17.8,16.3,18.4,16.4z M16.4,19.7l2,0v2
		c-0.5,0-1.1,0.1-1.7,0.2C16.5,21.1,16.4,20.3,16.4,19.7z M18.4,23.2v2.2c-0.6-0.5-1-1.3-1.3-2.1C17.5,23.2,17.9,23.2,18.4,23.2z
		 M19.8,23.2c0.4,0,0.9,0.1,1.3,0.1c-0.3,0.8-0.7,1.6-1.3,2.1V23.2z M19.8,21.8v-2.1l2,0c0,0.6-0.1,1.4-0.3,2.2
		C20.8,21.9,20.2,21.8,19.8,21.8z M21.8,18.3l-2,0v-2c0.5,0,1.1-0.1,1.7-0.2C21.7,17,21.7,17.8,21.8,18.3z M19.8,14.9v-2.3
		c0.6,0.5,1.1,1.3,1.4,2.1C20.7,14.9,20.2,14.9,19.8,14.9z M21.6,12.6c0.8,0.3,1.6,0.8,2.3,1.4c-0.3,0.2-0.8,0.4-1.3,0.5
		C22.3,13.9,22,13.2,21.6,12.6z M15.6,14.6c-0.5-0.1-1-0.3-1.3-0.5c0.6-0.6,1.4-1.1,2.3-1.4C16.2,13.2,15.8,13.9,15.6,14.6z
		 M15.6,23.6c0.2,0.7,0.5,1.3,0.9,1.9c-0.8-0.3-1.6-0.8-2.2-1.4C14.7,23.9,15.1,23.7,15.6,23.6z M22.5,23.6c0.5,0.1,1,0.3,1.3,0.5
		c-0.6,0.6-1.4,1.1-2.2,1.4C22,24.9,22.3,24.2,22.5,23.6z M23.2,18.3c0-0.6-0.1-1.5-0.3-2.4c0.7-0.2,1.4-0.4,1.9-0.8
		c0.6,0.9,1.1,2,1.2,3.2L23.2,18.3z"/>
</g>
</svg>
