<?xml version="1.0" encoding="utf-8"?>
<!-- Generator: Adobe Illustrator 23.0.1, SVG Export Plug-In . SVG Version: 6.00 Build 0)  -->
<svg version="1.0" id="图层_1" xmlns="http://www.w3.org/2000/svg" xmlns:xlink="http://www.w3.org/1999/xlink" x="0px" y="0px"
	 viewBox="0 0 38 38" style="enable-background:new 0 0 38 38;" xml:space="preserve">
<style type="text/css">
	.st0{fill:#e2edf2;}
</style>
<g>
	<path class="st0" d="M29.1,16.8c0-5.7-4.6-10.2-10.2-10.2c-5.7,0-10.2,4.6-10.2,10.2c0,3.6,1.9,6.9,5,8.8v5.6v0.2v0.1
		c0,1.8,1.4,3.2,3.2,3.4c0.3,1,1.2,1.7,2.3,1.7c1.1,0,2-0.7,2.3-1.7c1.8-0.1,3.2-1.6,3.2-3.4v-0.1v-0.2v-5.9
		C27.3,23.5,29.1,20.3,29.1,16.8z M15,29.8H23v0.8H15V29.8z M23,28.4H15v-0.8H23V28.4z M19,35.3c-0.3,0-0.5-0.1-0.7-0.3h1.4
		C19.5,35.2,19.3,35.3,19,35.3z M21,33.6H17c-1,0-1.8-0.7-2-1.7h8C22.8,32.9,22,33.6,21,33.6z M23.4,24.4
		C23.3,24.4,23.3,24.5,23.4,24.4c-0.1,0.1-0.1,0.1-0.2,0.2c0,0-0.1,0.1-0.1,0.1c0,0,0,0.1-0.1,0.1c0,0,0,0.1,0,0.1c0,0,0,0.1,0,0.1
		v1.2H15v-1c0,0,0-0.1,0-0.1c0,0,0-0.1,0-0.1c0,0,0-0.1-0.1-0.1c0,0,0-0.1-0.1-0.1c0,0-0.1-0.1-0.1-0.1c0,0,0,0-0.1-0.1
		c-2.9-1.6-4.6-4.5-4.6-7.8c0-4.9,4-8.8,8.8-8.8s8.8,4,8.8,8.8C27.7,20,26.1,22.8,23.4,24.4z"/>
	<path class="st0" d="M25.1,15l-0.8,0c-0.1-0.2-0.1-0.4-0.2-0.6l0.6-0.6c0.6-0.6,0.6-1.5,0-2.1l-0.4-0.4c-0.6-0.6-1.5-0.6-2.1,0
		l-0.6,0.6c-0.2-0.1-0.5-0.2-0.7-0.3v-0.8c0-0.8-0.7-1.5-1.5-1.5h-0.6c-0.8,0-1.5,0.7-1.5,1.5v0.8c-0.2,0.1-0.4,0.1-0.6,0.2
		l-0.5-0.5c-0.6-0.6-1.5-0.6-2.1,0l-0.4,0.4c-0.6,0.6-0.6,1.5,0,2.1l0.5,0.5c-0.1,0.2-0.2,0.5-0.3,0.7h-0.8c-0.8,0-1.5,0.7-1.5,1.5
		v0.6c0,0.8,0.7,1.5,1.5,1.5h0.8c0.1,0.2,0.2,0.5,0.3,0.7l-0.5,0.5c-0.6,0.6-0.6,1.5,0,2.1l0.4,0.4c0.3,0.3,0.7,0.4,1.1,0.4
		c0.4,0,0.8-0.1,1.1-0.4l0.5-0.5c0.2,0.1,0.4,0.2,0.6,0.2v0.8c0,0.8,0.7,1.5,1.5,1.5h0.6c0.8,0,1.5-0.7,1.5-1.5v-0.8
		c0.2-0.1,0.5-0.2,0.7-0.3l0.6,0.6c0.3,0.3,0.7,0.4,1.1,0.4c0.4,0,0.8-0.1,1.1-0.4l0.4-0.4c0.6-0.6,0.6-1.5,0-2.1l-0.6-0.6
		c0.1-0.2,0.2-0.4,0.2-0.6h0.8c0.8,0,1.5-0.7,1.5-1.5v-0.6C26.6,15.7,25.9,15,25.1,15z M25.2,17.2c0,0.1,0,0.1-0.1,0.1h-1.3
		c0,0,0,0-0.1,0c0,0-0.1,0-0.1,0c0,0-0.1,0-0.1,0c0,0-0.1,0-0.1,0.1c0,0-0.1,0.1-0.1,0.1c0,0-0.1,0.1-0.1,0.1c0,0,0,0.1-0.1,0.1
		c0,0,0,0,0,0.1c-0.1,0.4-0.3,0.8-0.5,1.2c0,0,0,0,0,0.1c0,0,0,0.1,0,0.1c0,0,0,0.1,0,0.1c0,0,0,0.1,0,0.1c0,0,0,0.1,0,0.1
		c0,0,0,0.1,0.1,0.1c0,0,0,0.1,0.1,0.1c0,0,0,0,0,0l1,1c0,0,0,0.1,0,0.2l-0.4,0.4c0,0-0.1,0-0.2,0l-0.9-0.9c0,0,0,0-0.1,0
		c0,0-0.1-0.1-0.1-0.1c0,0-0.1,0-0.1,0c0,0-0.1,0-0.1,0c0,0-0.1,0-0.1,0c0,0-0.1,0-0.1,0c0,0-0.1,0-0.1,0.1c0,0,0,0-0.1,0
		c-0.4,0.3-0.9,0.5-1.3,0.6c0,0,0,0-0.1,0c0,0-0.1,0-0.1,0.1c0,0-0.1,0-0.1,0.1c0,0-0.1,0.1-0.1,0.1c0,0-0.1,0.1-0.1,0.1
		c0,0,0,0.1,0,0.1c0,0,0,0.1,0,0.1c0,0,0,0,0,0.1v1.3c0,0.1-0.1,0.1-0.1,0.1h-0.6c-0.1,0-0.1-0.1-0.1-0.1v-1.3c0,0,0,0,0-0.1
		c0,0,0-0.1,0-0.1c0,0,0-0.1,0-0.1c0,0,0-0.1-0.1-0.1c0,0-0.1-0.1-0.1-0.1c0,0-0.1,0-0.1-0.1c0,0-0.1,0-0.1-0.1c0,0,0,0-0.1,0
		c-0.4-0.1-0.8-0.3-1.2-0.5c0,0,0,0-0.1,0c0,0-0.1,0-0.1,0c0,0-0.1,0-0.1,0c0,0-0.1,0-0.1,0c0,0-0.1,0-0.1,0c0,0-0.1,0-0.1,0.1
		c0,0-0.1,0-0.1,0.1c0,0,0,0,0,0l-0.9,0.9c0,0-0.1,0-0.2,0L14.5,21c0,0,0-0.1,0-0.2l0.8-0.8c0,0,0,0,0-0.1c0,0,0.1-0.1,0.1-0.1
		c0,0,0-0.1,0.1-0.1c0,0,0-0.1,0-0.1c0,0,0-0.1,0-0.1c0,0,0-0.1,0-0.1c0,0,0-0.1-0.1-0.1c0,0,0,0,0-0.1c-0.3-0.4-0.4-0.8-0.6-1.3
		c0,0,0,0,0-0.1c0,0,0-0.1-0.1-0.1c0,0,0-0.1-0.1-0.1c0,0-0.1-0.1-0.1-0.1c0,0-0.1-0.1-0.1-0.1c0,0-0.1,0-0.1,0c0,0-0.1,0-0.1,0
		c0,0,0,0-0.1,0h-1.3c-0.1,0-0.1-0.1-0.1-0.1v-0.6c0-0.1,0.1-0.1,0.1-0.1h1.3c0,0,0,0,0,0c0,0,0,0,0,0c0.1,0,0.2,0,0.3-0.1
		c0,0,0.1,0,0.1,0c0,0,0.1-0.1,0.1-0.1c0,0,0,0,0.1-0.1c0,0,0.1-0.1,0.1-0.1c0,0,0-0.1,0-0.1c0,0,0,0,0-0.1c0.1-0.5,0.3-0.9,0.6-1.3
		c0,0,0,0,0-0.1c0,0,0-0.1,0.1-0.1c0,0,0-0.1,0-0.1c0,0,0-0.1,0-0.1c0,0,0-0.1,0-0.1c0,0,0-0.1-0.1-0.1c0,0,0-0.1-0.1-0.1
		c0,0,0,0,0-0.1l-0.8-0.9c0,0,0-0.1,0-0.2l0.4-0.4c0,0,0.1,0,0.2,0l0.9,0.9c0,0,0.1,0,0.1,0.1c0,0,0.1,0.1,0.1,0.1c0,0,0.1,0,0.1,0
		c0.1,0,0.1,0,0.2,0c0.1,0,0.1,0,0.2,0c0,0,0.1,0,0.1,0c0,0,0.1,0,0.1,0c0.4-0.2,0.8-0.4,1.2-0.5c0,0,0,0,0.1,0c0,0,0.1,0,0.1-0.1
		c0,0,0.1,0,0.1-0.1c0,0,0.1-0.1,0.1-0.1c0,0,0.1-0.1,0.1-0.1c0,0,0-0.1,0-0.1c0,0,0-0.1,0-0.1c0,0,0,0,0-0.1v-1.3
		c0-0.1,0.1-0.1,0.1-0.1h0.6c0.1,0,0.1,0.1,0.1,0.1V12c0,0,0,0,0,0.1c0,0,0,0.1,0,0.1c0,0,0,0.1,0,0.1c0,0,0,0.1,0.1,0.1
		c0,0,0.1,0.1,0.1,0.1c0,0,0.1,0,0.1,0.1c0,0,0.1,0,0.1,0.1c0,0,0,0,0.1,0c0.5,0.1,0.9,0.3,1.3,0.6c0,0,0.1,0,0.1,0c0,0,0,0,0.1,0
		c0.1,0,0.2,0,0.2,0c0,0,0,0,0,0c0.1,0,0.2,0,0.3-0.1c0,0,0.1,0,0.1-0.1c0,0,0.1,0,0.1-0.1l0.9-0.9c0,0,0.1,0,0.2,0l0.4,0.4
		c0,0,0,0.1,0,0.2l-1,1c0,0,0,0,0,0c0,0-0.1,0.1-0.1,0.1c0,0,0,0.1-0.1,0.1c0,0,0,0.1,0,0.1c0,0,0,0.1,0,0.1c0,0,0,0.1,0,0.1
		c0,0,0,0.1,0,0.1c0,0,0,0,0,0c0.2,0.4,0.4,0.8,0.5,1.2c0,0,0,0,0,0.1c0,0,0,0.1,0,0.1c0,0,0.1,0.1,0.1,0.1c0,0,0,0.1,0.1,0.1
		c0,0,0.1,0.1,0.1,0.1c0,0,0,0,0.1,0c0.1,0,0.2,0.1,0.3,0.1c0,0,0,0,0,0c0,0,0,0,0,0l1.3,0c0.1,0,0.1,0.1,0.1,0.1V17.2z"/>
	<path class="st0" d="M19,13.6c-1.8,0-3.2,1.5-3.2,3.2c0,1.8,1.5,3.2,3.2,3.2c1.8,0,3.2-1.5,3.2-3.2C22.2,15.1,20.8,13.6,19,13.6z
		 M19,18.7c-1,0-1.8-0.8-1.8-1.8c0-1,0.8-1.8,1.8-1.8s1.8,0.8,1.8,1.8C20.8,17.9,20,18.7,19,18.7z"/>
	<path class="st0" d="M19,6.1c0.4,0,0.7-0.3,0.7-0.7V2c0-0.4-0.3-0.7-0.7-0.7S18.3,1.6,18.3,2v3.4C18.3,5.8,18.6,6.1,19,6.1z"/>
	<path class="st0" d="M12.7,7.3c0.1,0.2,0.4,0.4,0.6,0.4c0.1,0,0.2,0,0.3-0.1c0.3-0.2,0.4-0.6,0.3-1l-1.7-2.9
		c-0.2-0.3-0.6-0.4-1-0.3c-0.3,0.2-0.4,0.6-0.3,1L12.7,7.3z"/>
	<path class="st0" d="M5.8,10l2.9,1.7c0.1,0.1,0.2,0.1,0.3,0.1c0.2,0,0.5-0.1,0.6-0.4c0.2-0.3,0.1-0.8-0.3-1L6.5,8.8
		c-0.3-0.2-0.8-0.1-1,0.3C5.3,9.4,5.4,9.9,5.8,10z"/>
	<path class="st0" d="M8.2,16.9c0-0.4-0.3-0.7-0.7-0.7H4.1c-0.4,0-0.7,0.3-0.7,0.7s0.3,0.7,0.7,0.7h3.4C7.9,17.6,8.2,17.3,8.2,16.9z
		"/>
	<path class="st0" d="M8.7,22l-2.9,1.7c-0.3,0.2-0.4,0.6-0.3,1C5.6,24.9,5.9,25,6.1,25c0.1,0,0.2,0,0.3-0.1l2.9-1.7
		c0.3-0.2,0.4-0.6,0.3-1C9.5,21.9,9,21.8,8.7,22z"/>
	<path class="st0" d="M32.2,23.7L29.3,22c-0.3-0.2-0.8-0.1-1,0.3c-0.2,0.3-0.1,0.8,0.3,1l2.9,1.7c0.1,0.1,0.2,0.1,0.3,0.1
		c0.2,0,0.5-0.1,0.6-0.3C32.7,24.3,32.6,23.9,32.2,23.7z"/>
	<path class="st0" d="M33.9,16.2h-3.4c-0.4,0-0.7,0.3-0.7,0.7s0.3,0.7,0.7,0.7h3.4c0.4,0,0.7-0.3,0.7-0.7S34.3,16.2,33.9,16.2z"/>
	<path class="st0" d="M28.9,11.8c0.1,0,0.2,0,0.3-0.1l2.9-1.7c0.3-0.2,0.5-0.6,0.3-1c-0.2-0.3-0.6-0.5-1-0.3l-2.9,1.7
		c-0.3,0.2-0.5,0.6-0.3,1C28.5,11.7,28.7,11.8,28.9,11.8z"/>
	<path class="st0" d="M24.4,7.5c0.1,0.1,0.2,0.1,0.3,0.1c0.2,0,0.5-0.1,0.6-0.4L27,4.3c0.2-0.3,0.1-0.8-0.3-1
		c-0.3-0.2-0.8-0.1-1,0.3l-1.7,2.9C23.9,6.9,24.1,7.4,24.4,7.5z"/>
</g>
</svg>
