<?xml version="1.0" encoding="utf-8"?>
<!-- Generator: Adobe Illustrator 23.0.1, SVG Export Plug-In . SVG Version: 6.00 Build 0)  -->
<svg version="1.0" id="图层_1" xmlns="http://www.w3.org/2000/svg" xmlns:xlink="http://www.w3.org/1999/xlink" x="0px" y="0px"
	 viewBox="0 0 38 38" style="enable-background:new 0 0 38 38;" xml:space="preserve">
<style type="text/css">
	.st0{fill:#e2edf2;}
</style>
<g>
	<path class="st0" d="M34,15.5h-2.6c-0.3-0.9-0.6-1.8-1.1-2.7l2-2c0.5-0.5,0.8-1.2,0.8-1.9c0-0.7-0.3-1.4-0.8-1.9l-1.1-1.1
		c-1.1-1.1-2.8-1.1-3.8,0l-1.9,1.9c-0.9-0.6-1.9-1-3-1.3V4c0-1.5-1.2-2.7-2.7-2.7h-1.5c-1.5,0-2.7,1.2-2.7,2.7v2.6
		c-0.9,0.3-1.8,0.6-2.7,1.1l-1.8-1.8c-1.1-1.1-2.8-1.1-3.8,0L6.2,7c-1.1,1.1-1.1,2.8,0,3.8l1.7,1.7c-0.5,0.9-1,1.9-1.3,3H4
		c-1.5,0-2.7,1.2-2.7,2.7v1.5c0,1.5,1.2,2.7,2.7,2.7h3c0.4,0,0.7-0.3,0.7-0.7S7.4,21.1,7,21.1H4c-0.7,0-1.3-0.6-1.3-1.3v-1.5
		c0-0.7,0.6-1.3,1.3-1.3h3c0,0,0,0,0.1,0c0,0,0.1,0,0.1,0c0.3,0,0.6-0.2,0.7-0.5c0.3-1.3,0.8-2.5,1.5-3.6c0,0,0,0,0-0.1
		c0,0,0-0.1,0.1-0.1c0,0,0-0.1,0-0.1c0,0,0-0.1,0-0.1c0,0,0-0.1,0-0.1c0,0,0-0.1-0.1-0.1c0,0,0-0.1-0.1-0.1c0,0,0,0,0-0.1L7.2,9.8
		C6.7,9.3,6.7,8.5,7.2,8l1.1-1.1c0.5-0.5,1.3-0.5,1.8,0L12.2,9c0,0,0.1,0,0.1,0.1c0.1,0.1,0.3,0.2,0.4,0.2c0.1,0,0.2,0,0.4-0.1
		c1-0.6,2.1-1.1,3.3-1.3c0.3-0.1,0.6-0.4,0.5-0.8c0,0,0-0.1,0-0.1V4c0-0.7,0.6-1.3,1.3-1.3h1.5c0.7,0,1.3,0.6,1.3,1.3v3
		c0,0,0,0.1,0,0.1c0,0.3,0.2,0.7,0.5,0.8c1.3,0.3,2.5,0.8,3.6,1.5c0,0,0.1,0,0.1,0c0,0,0,0,0.1,0c0.1,0,0.2,0,0.2,0c0,0,0,0,0,0
		c0.1,0,0.2,0,0.3-0.1c0,0,0.1,0,0.1-0.1c0,0,0.1,0,0.1-0.1l2.3-2.3c0.5-0.5,1.3-0.5,1.8,0L31.3,8c0.2,0.2,0.4,0.6,0.4,0.9
		c0,0.3-0.1,0.7-0.4,0.9L29,12.3c0,0,0,0,0,0c0,0-0.1,0.1-0.1,0.1c0,0,0,0.1-0.1,0.1c0,0,0,0.1,0,0.1c0,0,0,0.1,0,0.1
		c0,0,0,0.1,0,0.1c0,0,0,0.1,0,0.1c0,0,0,0,0,0c0.6,1,1.1,2.1,1.3,3.3c0,0,0,0,0,0.1c0,0,0,0.1,0,0.1c0,0,0.1,0.1,0.1,0.1
		c0,0,0,0,0.1,0.1c0,0,0.1,0.1,0.1,0.1c0,0,0,0,0.1,0c0.1,0,0.2,0.1,0.3,0.1c0,0,0,0,0,0c0,0,0,0,0,0H34c0.7,0,1.3,0.6,1.3,1.3v1.5
		c0,0.7-0.6,1.3-1.3,1.3h-3.2c-0.4,0-0.7,0.3-0.7,0.7s0.3,0.7,0.7,0.7H34c1.5,0,2.7-1.2,2.7-2.7v-1.5C36.7,16.7,35.5,15.5,34,15.5z"
		/>
	<path class="st0" d="M22.8,19c0-2.1-1.7-3.8-3.8-3.8c-2.1,0-3.8,1.7-3.8,3.8c0,1.9,1.4,3.4,3.1,3.8v8.8c-1.1,0.3-1.9,1.3-1.9,2.5
		c0,1.5,1.2,2.6,2.6,2.6s2.6-1.2,2.6-2.6c0-1.2-0.8-2.2-1.9-2.5v-8.8C21.5,22.4,22.8,20.9,22.8,19z M16.6,19c0-1.3,1.1-2.4,2.4-2.4
		s2.4,1.1,2.4,2.4s-1.1,2.4-2.4,2.4S16.6,20.3,16.6,19z M20.2,34.1c0,0.7-0.6,1.2-1.2,1.2s-1.2-0.6-1.2-1.2c0-0.7,0.6-1.2,1.2-1.2
		S20.2,33.4,20.2,34.1z"/>
	<path class="st0" d="M31.6,31.5v-5.8c0,0,0,0,0-0.1c0,0,0-0.1,0-0.1c0,0,0-0.1,0-0.1c0,0,0,0,0-0.1l-2.4-3.8V19c0-5.6-4.5-10.1-10.1-10.1
		S8.9,13.4,8.9,19v2.6l-2.5,3.8c0,0,0,0,0,0.1c0,0,0,0.1-0.1,0.1c0,0,0,0.1,0,0.1c0,0,0,0,0,0.1v5.8c-1.1,0.3-1.9,1.3-1.9,2.5
		c0,1.5,1.2,2.6,2.6,2.6s2.6-1.2,2.6-2.6c0-1.2-0.8-2.2-1.9-2.5v-5.6l2.5-3.8c0,0,0,0,0-0.1c0,0,0-0.1,0.1-0.1c0,0,0-0.1,0-0.1
		c0,0,0,0,0-0.1V19c0-4.8,3.9-8.7,8.7-8.7c4.8,0,8.7,3.9,8.7,8.7v2.8c0,0,0,0.1,0,0.1c0,0,0,0,0,0c0,0.1,0,0.2,0.1,0.2c0,0,0,0,0,0
		l2.4,3.8v5.6c-1.1,0.3-1.9,1.3-1.9,2.5c0,1.5,1.2,2.6,2.6,2.6s2.6-1.2,2.6-2.6C33.5,32.9,32.7,31.9,31.6,31.5z M8.3,34.1
		c0,0.7-0.6,1.2-1.2,1.2s-1.2-0.6-1.2-1.2c0-0.7,0.6-1.2,1.2-1.2S8.3,33.4,8.3,34.1z M30.9,35.3c-0.7,0-1.2-0.6-1.2-1.2
		c0-0.7,0.6-1.2,1.2-1.2c0.7,0,1.2,0.6,1.2,1.2C32.1,34.7,31.5,35.3,30.9,35.3z"/>
	<path class="st0" d="M26,25.2V19c0-3.8-3.1-7-7-7s-7,3.1-7,7v6.2c-1.1,0.3-1.9,1.3-1.9,2.5c0,1.5,1.2,2.6,2.6,2.6s2.6-1.2,2.6-2.6
		c0-1.2-0.8-2.2-1.9-2.5V19c0-3.1,2.5-5.6,5.6-5.6c3.1,0,5.6,2.5,5.6,5.6v6.2c-1.1,0.3-1.9,1.3-1.9,2.5c0,1.5,1.2,2.6,2.6,2.6
		s2.6-1.2,2.6-2.6C27.9,26.5,27.1,25.5,26,25.2z M14,27.7c0,0.7-0.6,1.2-1.2,1.2s-1.2-0.6-1.2-1.2s0.6-1.2,1.2-1.2S14,27,14,27.7z
		 M25.3,28.9c-0.7,0-1.2-0.6-1.2-1.2s0.6-1.2,1.2-1.2c0.7,0,1.2,0.6,1.2,1.2S25.9,28.9,25.3,28.9z"/>
</g>
</svg>
