<?xml version="1.0" encoding="utf-8"?>
<!-- Generator: Adobe Illustrator 23.0.1, SVG Export Plug-In . SVG Version: 6.00 Build 0)  -->
<svg version="1.0" id="图层_1" xmlns="http://www.w3.org/2000/svg" xmlns:xlink="http://www.w3.org/1999/xlink" x="0px" y="0px"
	 viewBox="0 0 38 38" style="enable-background:new 0 0 38 38;" xml:space="preserve">
<style type="text/css">
	.st0{fill:#e2edf2;}
</style>
<g>
	<path class="st0" d="M36.7,31.8C36.7,31.8,36.7,31.8,36.7,31.8c0-0.1,0-0.1,0-0.1c0,0,0-0.1,0-0.1c0,0,0-0.1-0.1-0.1
		c0,0,0-0.1-0.1-0.1c0,0-0.1-0.1-0.1-0.1c0,0,0,0-0.1-0.1c-3.4-2.1-6.7-8.6-6.7-18.5V3.7c0-0.7-0.6-1.3-1.3-1.3h-4.7H2.6
		C1.9,2.5,1.3,3,1.3,3.7v30.5c0,0.7,0.6,1.3,1.3,1.3h8.8h17c0.7,0,1.3-0.6,1.3-1.3v-1.8H36c0.1,0,0.2,0,0.3-0.1c0,0,0,0,0.1,0
		c0.1,0,0.1-0.1,0.2-0.2c0,0,0,0,0,0c0,0,0,0,0,0c0,0,0-0.1,0.1-0.1C36.7,31.9,36.7,31.8,36.7,31.8z M23.7,3.9h4.5v8.8
		c0,7.9,2.3,14.9,5.8,18.4H9.1c-3.2-2.1-5.6-9.2-6.4-18.4V3.9H23.7z M28.2,34.1H11.4H2.7V21.7C4,27,6,30.8,8.5,32.3c0,0,0,0,0.1,0
		c0,0,0,0,0.1,0c0.1,0,0.2,0,0.2,0c0,0,0,0,0,0c0,0,0,0,0,0h19.4V34.1z"/>
	<path class="st0" d="M7.7,17.1h18.2c0.4,0,0.7-0.3,0.7-0.7s-0.3-0.7-0.7-0.7H7.7c-0.4,0-0.7,0.3-0.7,0.7S7.3,17.1,7.7,17.1z"/>
	<path class="st0" d="M7.7,11.5h18.2c0.4,0,0.7-0.3,0.7-0.7s-0.3-0.7-0.7-0.7H7.7c-0.4,0-0.7,0.3-0.7,0.7S7.3,11.5,7.7,11.5z"/>
	<path class="st0" d="M7.7,22.8h13.7c0.4,0,0.7-0.3,0.7-0.7s-0.3-0.7-0.7-0.7H7.7c-0.4,0-0.7,0.3-0.7,0.7S7.3,22.8,7.7,22.8z"/>
</g>
</svg>
