<?xml version="1.0" encoding="utf-8"?>
<!-- Generator: Adobe Illustrator 23.0.1, SVG Export Plug-In . SVG Version: 6.00 Build 0)  -->
<svg version="1.0" id="图层_1" xmlns="http://www.w3.org/2000/svg" xmlns:xlink="http://www.w3.org/1999/xlink" x="0px" y="0px"
	 viewBox="0 0 38 38" style="enable-background:new 0 0 38 38;" xml:space="preserve">
<style type="text/css">
	.st0{fill:#e2edf2;}
</style>
<g>
	<path class="st0" d="M28.9,1.3H9.1C7.9,1.3,7,2.3,7,3.5v31c0,1.2,1,2.2,2.2,2.2h19.7c1.2,0,2.2-1,2.2-2.2v-31
		C31,2.3,30.1,1.3,28.9,1.3z M22.2,3.4h-6.3c-0.3,0-0.6-0.2-0.6-0.6V2.7h7.4v0.1C22.7,3.1,22.5,3.4,22.2,3.4z M29.6,34.5
		c0,0.4-0.4,0.8-0.8,0.8H9.1c-0.4,0-0.8-0.4-0.8-0.8v-31c0-0.4,0.4-0.8,0.8-0.8h4.7v0.1c0,1.1,0.9,2,2,2h6.3c1.1,0,2-0.9,2-2V2.7
		h4.7c0.4,0,0.8,0.4,0.8,0.8V34.5z"/>
	<path class="st0" d="M19,29.2c-1.4,0-2.6,1.2-2.6,2.6c0,1.4,1.2,2.6,2.6,2.6s2.6-1.2,2.6-2.6C21.6,30.4,20.4,29.2,19,29.2z M19,33
		c-0.7,0-1.2-0.5-1.2-1.2c0-0.7,0.5-1.2,1.2-1.2c0.7,0,1.2,0.5,1.2,1.2C20.2,32.5,19.7,33,19,33z"/>
</g>
</svg>
