<?xml version="1.0" encoding="utf-8"?>
<!-- Generator: Adobe Illustrator 23.0.1, SVG Export Plug-In . SVG Version: 6.00 Build 0)  -->
<svg version="1.0" id="图层_1" xmlns="http://www.w3.org/2000/svg" xmlns:xlink="http://www.w3.org/1999/xlink" x="0px" y="0px"
	 viewBox="0 0 38 38" style="enable-background:new 0 0 38 38;" xml:space="preserve">
<style type="text/css">
	.st0{fill:#e2edf2;}
</style>
<g>
	<path class="st0" d="M30.5,5.5C30.5,5.5,30.5,5.5,30.5,5.5L28,2.8c0,0,0,0,0,0c0,0,0,0,0,0c-1-1.1-1.6-1.4-3.2-1.5c0,0,0,0,0,0
		c0,0,0,0,0,0H13.3c0,0,0,0,0,0c0,0,0,0,0,0c-1.6,0.1-2.2,0.4-3.2,1.5c0,0,0,0,0,0c0,0,0,0,0,0L7.6,5.4C7.2,5.8,7,6.3,7,6.9v27.8
		c0,1.1,1,2,2.2,2h19.7c1.2,0,2.2-0.9,2.2-2V6.9C31,6.4,30.8,5.9,30.5,5.5z M13.4,2.7h11.3c1.1,0.1,1.4,0.2,2.3,1.1c0,0,0,0,0,0
		l1,1.1H10.1l1-1.1C11.9,2.9,12.2,2.8,13.4,2.7z M29.6,34.7c0,0.3-0.4,0.6-0.8,0.6H9.1c-0.4,0-0.8-0.3-0.8-0.6V6.9
		c0-0.3,0.4-0.6,0.8-0.6h19.7c0.4,0,0.8,0.3,0.8,0.6V34.7z"/>
	<path class="st0" d="M27,20.8V18c0-0.4-0.3-0.7-0.7-0.7s-0.7,0.3-0.7,0.7v7.5c0,0.4,0.3,0.7,0.7,0.7s0.7-0.3,0.7-0.7V23l0.6,0.7
		c0.1,0.2,0.3,0.3,0.5,0.3c0.2,0,0.3,0,0.4-0.2c0.3-0.2,0.4-0.7,0.1-1L27,20.8z"/>
</g>
</svg>
