<?xml version="1.0" encoding="utf-8"?>
<!-- Generator: Adobe Illustrator 23.0.1, SVG Export Plug-In . SVG Version: 6.00 Build 0)  -->
<svg version="1.0" id="图层_1" xmlns="http://www.w3.org/2000/svg" xmlns:xlink="http://www.w3.org/1999/xlink" x="0px" y="0px"
	 viewBox="0 0 38 38" style="enable-background:new 0 0 38 38;" xml:space="preserve">
<style type="text/css">
	.st0{fill:#e2edf2;}
</style>
<g>
	<path class="st0" d="M28.4,19.4v-1.3c0-1.3-1-2.3-2.3-2.3h-3.6v-1.5c1.1-0.3,1.8-1.3,1.8-2.4c0-1.4-1.1-2.5-2.5-2.5
		s-2.5,1.1-2.5,2.5c0,1.2,0.8,2.1,1.8,2.4v1.5h-3.6c-1.3,0-2.3,1-2.3,2.3v1.3c-1.1,0.3-1.9,1.3-1.9,2.5c0,1.4,1.1,2.5,2.5,2.5
		s2.5-1.1,2.5-2.5c0-1.1-0.8-2.1-1.8-2.4v-1.3c0-0.5,0.4-0.9,0.9-0.9h3.6v2.2c-1.1,0.3-1.8,1.3-1.8,2.4c0,1.4,1.1,2.5,2.5,2.5
		s2.5-1.1,2.5-2.5c0-1.2-0.8-2.1-1.8-2.4v-2.2h3.6c0.5,0,0.9,0.4,0.9,0.9v1.3c-1,0.3-1.8,1.3-1.8,2.4c0,1.4,1.1,2.5,2.5,2.5
		c1.4,0,2.5-1.1,2.5-2.5C30.3,20.6,29.5,19.7,28.4,19.4z M16.9,21.8c0,0.6-0.5,1.1-1.1,1.1s-1.1-0.5-1.1-1.1c0-0.6,0.5-1.1,1.1-1.1
		S16.9,21.2,16.9,21.8z M20.6,11.8c0-0.6,0.5-1.1,1.1-1.1c0.6,0,1.1,0.5,1.1,1.1S22.4,13,21.8,13C21.1,13,20.6,12.5,20.6,11.8z
		 M22.9,21.8c0,0.6-0.5,1.1-1.1,1.1c-0.6,0-1.1-0.5-1.1-1.1c0-0.6,0.5-1.1,1.1-1.1C22.4,20.7,22.9,21.2,22.9,21.8z M27.8,23
		c-0.6,0-1.1-0.5-1.1-1.1c0-0.6,0.5-1.1,1.1-1.1c0.6,0,1.1,0.5,1.1,1.1C28.9,22.5,28.4,23,27.8,23z"/>
	<path class="st0" d="M33.9,7.9c0-0.1,0-0.1,0-0.2c0,0,0-0.1,0-0.1c0,0,0,0,0-0.1c0-0.1-0.1-0.1-0.1-0.2c0,0,0,0,0,0l-6.2-5.9
		c0,0-0.1,0-0.1,0c0,0-0.1-0.1-0.1-0.1c0,0-0.1,0-0.1,0c0,0-0.1,0-0.1,0H11.4c-1.2,0-2.2,1-2.2,2.2v2.9L6.1,7.2c0,0,0,0,0,0
		C5.1,7.4,4.6,7.9,4.4,8.3c-0.5,0.9-0.3,2-0.1,2.6l5,19.5l1.2,4.2c0,0,0,0,0,0c0,0,0,0,0,0c0.5,1.6,1.6,2.1,2.6,2.1
		c0.7,0,1.5-0.2,2-0.4l0.2-0.1l16.5-4.2c1.1-0.1,2-1,2-2.2L33.9,7.9C33.9,7.9,33.9,7.9,33.9,7.9z M29.1,7.2c-0.7,0-1.3-0.6-1.3-1.3
		V3.6l3.8,3.6H29.1z M5.6,9C5.8,8.8,6,8.6,6.4,8.5c0,0,0,0,0,0c0,0,0,0,0,0l2.8-0.7v16.8l-3.6-14c0,0,0,0,0,0c0,0,0,0,0,0
		C5.4,9.9,5.4,9.4,5.6,9z M11.8,34.2l-0.6-2.1c0.1,0,0.1,0,0.2,0h14.7L15,34.9c0,0,0,0,0,0c0,0,0,0,0,0L14.7,35
		C13.1,35.5,12.3,35.5,11.8,34.2z M31.7,30.7H11.4c-0.4,0-0.8-0.4-0.8-0.8V29V3.5c0-0.4,0.4-0.8,0.8-0.8h14.9v3.2
		c0,1.5,1.2,2.7,2.7,2.7h3.5v21.3C32.5,30.3,32.2,30.7,31.7,30.7z"/>
</g>
</svg>
