<?xml version="1.0" encoding="utf-8"?>
<!-- Generator: Adobe Illustrator 23.0.1, SVG Export Plug-In . SVG Version: 6.00 Build 0)  -->
<svg version="1.0" id="图层_1" xmlns="http://www.w3.org/2000/svg" xmlns:xlink="http://www.w3.org/1999/xlink" x="0px" y="0px"
	 viewBox="0 0 38 38" style="enable-background:new 0 0 38 38;" xml:space="preserve">
<style type="text/css">
	.st0{fill:#e2edf2;}
</style>
<g>
	<path class="st0" d="M32.7,3.4c0-1.1-0.9-2.1-2.1-2.1H9C7.9,1.3,7,2.2,7,3.4v19.3c-0.4,0-0.7,0.1-1,0.3c-0.4,0.2-0.9,0.9-0.6,2.2
		c0,0,0,0.1,0,0.1c0,0,0,0,0,0.1c0.6,1.2,1.1,2.4,1.4,3.3c0.2,0.6,0.4,1.2,0.6,1.6l0.1,0.2c0.3,0.5,0.7,1.4,1.6,2.1
		c0,0,0.4,0.4,0.5,0.9H9.1c-0.4,0-0.7,0.3-0.7,0.7V36c0,0.4,0.3,0.7,0.7,0.7s0.7-0.3,0.7-0.7v-1h10.9v1c0,0.4,0.3,0.7,0.7,0.7
		S22,36.4,22,36v-1.7c0-0.4-0.3-0.7-0.7-0.7h-0.5v-0.3l1.2-2.1c0.1-0.1,0.1-0.2,0.1-0.4v-5.6h4.1c0.1,0,0.2,0,0.3-0.1
		c0,0,0.1-0.1,0.1-0.1c0,0,0.1,0,0.1-0.1l0,0c0,0,0,0,0,0l5.7-5.4c0,0,0,0,0,0c0,0,0.1-0.1,0.1-0.2c0,0,0,0,0-0.1c0,0,0-0.1,0-0.1
		c0-0.1,0-0.1,0-0.2c0,0,0,0,0,0V3.4z M27,21.1c0-0.7,0.5-1.2,1.2-1.2c0,0,0,0,0,0c0,0,0,0,0,0h2.1L27,23V21.1z M9,2.7h21.6
		c0.4,0,0.7,0.3,0.7,0.7v15.1h-3.1c0,0,0,0,0,0c0,0,0,0,0,0c-1.4,0-2.6,1.2-2.6,2.6v2.9H22c-0.2-0.7-0.7-1.1-1.1-1.2
		c-0.4-0.2-0.8-0.2-1.3-0.1c0,0,0,0,0,0c-0.2-0.6-0.6-1.1-1.1-1.3c-0.5-0.3-1.2-0.3-1.8-0.1c-0.2-0.3-0.5-0.5-0.8-0.7
		c-0.4-0.2-0.9-0.3-1.4-0.2v-3.6c0-1.2-1-2.3-2.3-2.3c-1.2,0-2.3,1-2.3,2.3v8.7l-0.6-0.9c0,0,0,0,0,0c0,0,0,0,0,0
		c0-0.1-0.1-0.1-0.1-0.2c-0.2-0.3-0.5-0.7-1-1.1V3.4C8.4,3,8.7,2.7,9,2.7z M11.1,33.6c-0.2-1.1-0.8-1.8-1-2c-0.7-0.6-1-1.2-1.2-1.7
		l-0.1-0.3c-0.2-0.3-0.4-0.8-0.6-1.4c-0.3-0.9-0.8-2.1-1.4-3.4c-0.1-0.4,0-0.6,0-0.7c0.1-0.1,0.4-0.1,0.8,0.2
		C7.8,24.5,8,24.7,8.1,25c0.1,0.1,0.1,0.2,0.1,0.2c0,0,0,0,0,0l1.4,2.3c0.1,0.2,0.4,0.3,0.6,0.3c0,0,0,0,0.1,0
		c0.3,0,0.5-0.2,0.6-0.4l0.4-1c0-0.1,0.1-0.2,0.1-0.3v-9.4c0-0.5,0.4-0.9,0.9-0.9c0.5,0,0.9,0.4,0.9,0.9v7.8c0,0.4,0.3,0.7,0.7,0.7
		s0.7-0.3,0.7-0.7v-2.8c0.3-0.1,0.6,0,0.8,0.1c0.2,0.1,0.3,0.3,0.4,0.5v2.6c0,0.4,0.3,0.7,0.7,0.7s0.7-0.3,0.7-0.7v-2.4
		c0.3-0.1,0.6,0,0.8,0.1c0.2,0.1,0.3,0.3,0.4,0.5v2.6c0,0.4,0.3,0.7,0.7,0.7s0.7-0.3,0.7-0.7V24c0.2-0.1,0.5-0.1,0.6,0
		c0.1,0,0.2,0.1,0.3,0.5v6.3l-1.2,2.1c-0.1,0.1-0.1,0.2-0.1,0.4v0.5H11.1z"/>
	<path class="st0" d="M12.3,8.8h15.2c0.4,0,0.7-0.3,0.7-0.7s-0.3-0.7-0.7-0.7H12.3c-0.4,0-0.7,0.3-0.7,0.7S11.9,8.8,12.3,8.8z"/>
	<path class="st0" d="M27.5,13H17.3c-0.4,0-0.7,0.3-0.7,0.7s0.3,0.7,0.7,0.7h10.2c0.4,0,0.7-0.3,0.7-0.7S27.9,13,27.5,13z"/>
</g>
</svg>
