<?xml version="1.0" encoding="utf-8"?>
<!-- Generator: Adobe Illustrator 23.0.1, SVG Export Plug-In . SVG Version: 6.00 Build 0)  -->
<svg version="1.0" id="图层_1" xmlns="http://www.w3.org/2000/svg" xmlns:xlink="http://www.w3.org/1999/xlink" x="0px" y="0px"
	 viewBox="0 0 38 38" style="enable-background:new 0 0 38 38;" xml:space="preserve">
<style type="text/css">
	.st0{fill:#e2edf2;}
</style>
<g>
	<path class="st0" d="M28.5,21.4c1,0,1.9-0.9,1.9-1.9v-1c0-1-0.9-1.9-1.9-1.9h-1.6c-0.2-0.5-0.4-1-0.6-1.5l1.2-1.2
		c0.7-0.7,0.7-1.9,0-2.7l-0.7-0.7c-0.7-0.7-1.9-0.7-2.7,0L23,11.6c-0.6-0.3-1.2-0.6-1.8-0.8V9.3c0-1-0.9-1.9-1.9-1.9h-1
		c-1,0-1.9,0.9-1.9,1.9v1.6c-0.5,0.2-1.1,0.4-1.5,0.6l-1.1-1.1c-0.7-0.7-1.9-0.7-2.7,0l-0.7,0.7c-0.7,0.7-0.7,1.9,0,2.7l1,1
		c-0.3,0.6-0.6,1.1-0.7,1.8H9.1c-1,0-1.9,0.9-1.9,1.9v1c0,1,0.9,1.9,1.9,1.9h1.6c0.2,0.6,0.4,1.2,0.7,1.8l-1,1
		C10,24.5,9.8,25,9.8,25.5s0.2,1,0.6,1.3l0.7,0.7c0.4,0.4,0.9,0.6,1.3,0.6c0.5,0,1-0.2,1.3-0.6l1.1-1.1c0.5,0.3,1,0.5,1.5,0.6v1.6
		c0,1,0.9,1.9,1.9,1.9h1c1,0,1.9-0.9,1.9-1.9v-1.6c0.6-0.2,1.2-0.4,1.8-0.7l1.2,1.2c0.4,0.4,0.8,0.6,1.3,0.6s1-0.2,1.3-0.6l0.7-0.7
		c0.7-0.7,0.7-1.9,0-2.7l-1.2-1.2c0.3-0.5,0.5-1,0.6-1.5H28.5z M26.7,26L26,26.7c-0.3,0.3-0.7,0.3-1,0l-1.5-1.5c0,0,0,0,0,0
		c0,0-0.1-0.1-0.1-0.1c0,0-0.1,0-0.1,0c0,0-0.1,0-0.1,0c0,0-0.1,0-0.1,0c0,0-0.1,0-0.1,0c0,0-0.1,0-0.1,0c0,0,0,0-0.1,0
		c-0.7,0.5-1.4,0.8-2.3,1c-0.1,0-0.2,0.1-0.3,0.2c0,0-0.1,0.1-0.1,0.1c0,0,0,0,0,0c-0.1,0.1-0.1,0.2-0.1,0.3v2
		c0,0.4-0.3,0.7-0.7,0.7h-1c-0.4,0-0.7-0.3-0.7-0.7v-2c0,0,0-0.1,0-0.1c0,0,0,0,0,0c0,0,0-0.1-0.1-0.1c-0.1-0.2-0.2-0.3-0.4-0.3
		c-0.8-0.2-1.4-0.5-2.1-0.8c0,0,0,0,0,0c0,0-0.1,0-0.1,0c0,0-0.1,0-0.1,0c0,0-0.1,0-0.1,0c0,0-0.1,0-0.1,0c0,0-0.1,0-0.1,0
		c0,0-0.1,0-0.1,0.1c0,0,0,0,0,0l-1.4,1.4c-0.3,0.3-0.7,0.3-1,0L11.2,26c-0.1-0.1-0.2-0.3-0.2-0.5s0.1-0.4,0.2-0.5l1.4-1.4
		c0,0,0,0,0,0c0,0,0-0.1,0.1-0.1c0,0,0-0.1,0-0.1c0,0,0-0.1,0-0.1c0,0,0-0.1,0-0.1c0,0,0-0.1,0-0.1c0,0,0-0.1,0-0.1c0,0,0,0,0-0.1
		c-0.4-0.7-0.8-1.5-1-2.3c0,0,0,0,0,0c0,0,0-0.1-0.1-0.1c0,0,0-0.1-0.1-0.1c0,0-0.1-0.1-0.1-0.1c0,0-0.1,0-0.1-0.1c0,0-0.1,0-0.1,0
		c0,0-0.1,0-0.1,0c0,0,0,0,0,0h-2c-0.4,0-0.7-0.3-0.7-0.7v-1c0-0.4,0.3-0.7,0.7-0.7h2c0,0,0,0,0,0c0,0,0,0,0,0c0.1,0,0.1,0,0.2,0
		c0,0,0,0,0.1,0c0,0,0.1,0,0.1-0.1c0,0,0,0,0.1-0.1c0,0,0.1-0.1,0.1-0.1c0,0,0-0.1,0-0.1c0,0,0,0,0-0.1c0.2-0.8,0.5-1.6,1-2.3
		c0,0,0,0,0,0c0,0,0-0.1,0-0.1c0,0,0-0.1,0-0.1c0,0,0-0.1,0-0.1c0,0,0-0.1,0-0.1c0,0,0-0.1,0-0.1c0,0,0-0.1-0.1-0.1c0,0,0,0,0,0
		L11.2,13c-0.3-0.3-0.3-0.7,0-1l0.7-0.7c0.3-0.3,0.7-0.3,1,0l1.4,1.4c0,0,0.1,0,0.1,0.1c0.1,0.1,0.2,0.1,0.4,0.1
		c0.1,0,0.2,0,0.3-0.1c0.7-0.4,1.4-0.7,2.1-0.9c0,0,0,0,0,0c0,0,0.1,0,0.1-0.1c0,0,0.1,0,0.1-0.1c0,0,0.1-0.1,0.1-0.1
		c0,0,0-0.1,0.1-0.1c0,0,0-0.1,0-0.1c0,0,0-0.1,0-0.1c0,0,0,0,0-0.1v-2c0-0.4,0.3-0.7,0.7-0.7h1c0.4,0,0.7,0.3,0.7,0.7v2
		c0,0,0,0,0,0c0,0,0,0.1,0,0.1c0,0,0,0.1,0,0.1c0,0,0,0.1,0.1,0.1c0,0,0,0.1,0.1,0.1c0,0,0.1,0,0.1,0.1c0,0,0.1,0,0.1,0c0,0,0,0,0,0
		c0.8,0.2,1.6,0.5,2.3,1c0,0,0,0,0,0c0.1,0,0.2,0.1,0.3,0.1c0,0,0,0,0,0c0,0,0,0,0,0c0.1,0,0.2,0,0.3-0.1c0,0,0,0,0.1,0
		c0,0,0.1,0,0.1-0.1l1.5-1.5c0.3-0.3,0.7-0.3,1,0l0.7,0.7c0.3,0.3,0.3,0.7,0,1l-1.5,1.5c0,0,0,0,0,0c0,0,0,0.1-0.1,0.1
		c0,0,0,0.1,0,0.1c0,0,0,0.1,0,0.1c0,0,0,0.1,0,0.1c0,0,0,0.1,0,0.1c0,0,0,0.1,0,0.1c0,0,0,0,0,0c0.4,0.6,0.7,1.3,0.8,2.1
		c0,0,0,0,0,0.1c0,0,0,0.1,0,0.1c0,0,0,0.1,0.1,0.1c0,0,0,0,0.1,0.1c0,0,0.1,0.1,0.1,0.1c0,0,0,0,0.1,0c0.1,0,0.1,0,0.2,0
		c0,0,0,0,0,0c0,0,0,0,0,0h2c0.4,0,0.7,0.3,0.7,0.7v1c0,0.4-0.3,0.7-0.7,0.7h-2c0,0,0,0-0.1,0c0,0-0.1,0-0.1,0c0,0-0.1,0-0.1,0
		c0,0-0.1,0-0.1,0.1c0,0-0.1,0.1-0.1,0.1c0,0,0,0.1-0.1,0.1c0,0,0,0.1-0.1,0.1c0,0,0,0,0,0c-0.2,0.7-0.5,1.4-0.8,2.1c0,0,0,0,0,0
		c0,0,0,0.1,0,0.1c0,0,0,0.1,0,0.1c0,0,0,0.1,0,0.1c0,0,0,0.1,0,0.1c0,0,0,0.1,0,0.1c0,0,0,0.1,0.1,0.1c0,0,0,0,0,0l1.5,1.5
		C27,25.3,27,25.7,26.7,26z"/>
	<path class="st0" d="M34.8,16.7h-1.5c-0.1-0.5-0.3-1-0.6-1.4l1.1-1.2c0.7-0.7,0.7-1.9,0-2.6l-0.7-0.7c-0.7-0.7-1.9-0.7-2.6,0
		l-1.4,1.4c-0.2,0.2-0.2,0.6,0,0.8c0.2,0.2,0.6,0.2,0.8,0l1.4-1.4c0.2-0.2,0.6-0.2,0.9,0l0.7,0.7c0.2,0.2,0.2,0.6,0,0.9l-1.4,1.5
		c0,0,0,0,0,0c0,0,0,0.1-0.1,0.1c0,0,0,0.1,0,0.1c0,0,0,0.1,0,0.1c0,0,0,0.1,0,0.1c0,0,0,0.1,0,0.1c0,0,0,0.1,0,0.1c0,0,0,0,0,0
		c0.4,0.6,0.6,1.3,0.8,2c0,0,0,0,0,0.1c0,0,0,0.1,0,0.1c0,0,0,0.1,0.1,0.1c0,0,0,0,0.1,0.1c0,0,0.1,0.1,0.1,0.1c0,0,0,0,0.1,0
		c0.1,0,0.1,0,0.2,0c0,0,0,0,0,0c0,0,0,0,0,0h1.9c0.3,0,0.6,0.3,0.6,0.6v1c0,0.3-0.3,0.6-0.6,0.6h-1.9c0,0,0,0-0.1,0
		c0,0-0.1,0-0.1,0c0,0-0.1,0-0.1,0c0,0-0.1,0-0.1,0.1c0,0-0.1,0.1-0.1,0.1c0,0,0,0.1-0.1,0.1c0,0,0,0.1-0.1,0.1c0,0,0,0,0,0
		c-0.2,0.7-0.4,1.4-0.8,2c0,0,0,0,0,0c0,0,0,0.1,0,0.1c0,0,0,0.1,0,0.1c0,0,0,0.1,0,0.1c0,0,0,0.1,0,0.1c0,0,0,0.1,0,0.1
		c0,0,0,0.1,0.1,0.1c0,0,0,0,0,0l1.5,1.5c0.2,0.2,0.2,0.6,0,0.9l-0.7,0.7c-0.2,0.2-0.6,0.2-0.9,0L30,24.9c-0.2-0.2-0.6-0.2-0.8,0
		c-0.2,0.2-0.2,0.6,0,0.8l1.4,1.4c0.4,0.4,0.8,0.5,1.3,0.5s0.9-0.2,1.3-0.5l0.7-0.7c0.7-0.7,0.7-1.9,0-2.6l-1.2-1.2
		c0.2-0.5,0.4-0.9,0.6-1.4h1.5c1,0,1.8-0.8,1.8-1.8v-1C36.6,17.5,35.8,16.7,34.8,16.7z"/>
	<path class="st0" d="M8.8,25.7c0.2-0.2,0.2-0.6,0-0.8c-0.2-0.2-0.6-0.2-0.8,0l-1.4,1.4c-0.2,0.2-0.6,0.2-0.9,0L5,25.6
		c-0.2-0.2-0.2-0.6,0-0.9l1.5-1.5c0,0,0,0,0,0c0,0,0-0.1,0.1-0.1c0,0,0-0.1,0-0.1c0,0,0-0.1,0-0.1c0,0,0-0.1,0-0.1c0,0,0-0.1,0-0.1
		c0,0,0-0.1,0-0.1c0,0,0,0,0,0c-0.4-0.6-0.6-1.3-0.8-2c0,0,0,0,0,0c0,0,0-0.1-0.1-0.1c0,0,0-0.1-0.1-0.1c0,0-0.1-0.1-0.1-0.1
		c0,0-0.1,0-0.1-0.1c0,0-0.1,0-0.1,0c0,0-0.1,0-0.1,0c0,0,0,0,0,0H3.2c-0.3,0-0.6-0.3-0.6-0.6v-1c0-0.3,0.3-0.6,0.6-0.6h1.9
		c0,0,0,0,0,0c0,0,0,0,0,0c0.1,0,0.1,0,0.2,0c0,0,0,0,0.1,0c0,0,0.1,0,0.1-0.1c0,0,0,0,0.1-0.1c0,0,0.1-0.1,0.1-0.1c0,0,0-0.1,0-0.1
		c0,0,0,0,0-0.1c0.2-0.7,0.4-1.4,0.8-2c0,0,0,0,0,0c0,0,0-0.1,0-0.1c0,0,0-0.1,0-0.1c0,0,0-0.1,0-0.1c0,0,0-0.1,0-0.1
		c0,0,0-0.1,0-0.1c0,0,0-0.1-0.1-0.1c0,0,0,0,0,0L5,13.3c-0.2-0.2-0.2-0.6,0-0.9l0.7-0.7c0.2-0.2,0.6-0.2,0.9,0L8,13.1
		c0.2,0.2,0.6,0.2,0.8,0c0.2-0.2,0.2-0.6,0-0.8l-1.4-1.4c-0.7-0.7-1.9-0.7-2.6,0l-0.7,0.7c-0.7,0.7-0.7,1.9,0,2.6l1.1,1.2
		c-0.2,0.5-0.4,0.9-0.6,1.4H3.2c-1,0-1.8,0.8-1.8,1.8v1c0,1,0.8,1.8,1.8,1.8h1.5c0.1,0.5,0.3,1,0.6,1.4l-1.2,1.2
		c-0.7,0.7-0.7,1.9,0,2.6l0.7,0.7c0.4,0.4,0.8,0.5,1.3,0.5c0.5,0,0.9-0.2,1.3-0.5L8.8,25.7z"/>
	<path class="st0" d="M18.8,13.7c-2.9,0-5.3,2.4-5.3,5.3s2.4,5.3,5.3,5.3c2.9,0,5.3-2.4,5.3-5.3S21.7,13.7,18.8,13.7z M18.8,23.1
		c-2.2,0-4.1-1.8-4.1-4.1c0-2.2,1.8-4.1,4.1-4.1c2.2,0,4.1,1.8,4.1,4.1C22.9,21.2,21,23.1,18.8,23.1z"/>
	<path class="st0" d="M30.4,30.4c-3.1,3.1-7.2,4.9-11.6,4.9c-3.8,0-7.4-1.3-10.3-3.7l1.9-0.4c0.3-0.1,0.5-0.4,0.5-0.7
		c-0.1-0.3-0.4-0.5-0.7-0.5L7,30.7c-0.3,0.1-0.5,0.4-0.5,0.7l0.6,3.2C7.2,34.8,7.4,35,7.7,35c0,0,0.1,0,0.1,0
		c0.3-0.1,0.5-0.4,0.5-0.7L8,32.7c3.1,2.4,6.9,3.8,10.8,3.8c4.7,0,9.2-1.9,12.5-5.2c0.2-0.2,0.2-0.6,0-0.8
		C31,30.2,30.7,30.2,30.4,30.4z"/>
	<path class="st0" d="M5.9,8.8c0.2,0,0.3-0.1,0.5-0.2C9.4,4.8,14,2.7,18.8,2.7c3.8,0,7.4,1.3,10.3,3.7l-2,0.4
		c-0.3,0.1-0.5,0.4-0.5,0.7C26.6,7.8,26.9,8,27.2,8c0,0,0.1,0,0.1,0l3.2-0.6C30.8,7.3,31,7,31,6.7c0-0.1,0-0.1,0-0.2l-0.6-3.1
		c-0.1-0.3-0.4-0.5-0.7-0.5c-0.3,0.1-0.5,0.4-0.5,0.7l0.3,1.4c-3-2.3-6.8-3.6-10.6-3.6c-5.2,0-10.1,2.3-13.4,6.3
		C5.2,8,5.2,8.4,5.5,8.6C5.6,8.7,5.7,8.8,5.9,8.8z"/>
</g>
</svg>
