<?xml version="1.0" encoding="utf-8"?>
<!-- Generator: Adobe Illustrator 23.0.1, SVG Export Plug-In . SVG Version: 6.00 Build 0)  -->
<svg version="1.0" id="图层_1" xmlns="http://www.w3.org/2000/svg" xmlns:xlink="http://www.w3.org/1999/xlink" x="0px" y="0px"
	 viewBox="0 0 38 38" style="enable-background:new 0 0 38 38;" xml:space="preserve">
<style type="text/css">
	.st0{fill:#e2edf2;}
</style>
<g>
	<path class="st0" d="M28.7,4.3l2.6-1c0.4-0.1,0.5-0.6,0.4-0.9c-0.1-0.4-0.6-0.5-0.9-0.4l-3.9,1.6c0,0-0.1,0-0.1,0.1
		c0,0-0.1,0-0.1,0c-0.1,0-0.1,0.1-0.1,0.2c0,0,0,0,0,0c0,0,0,0,0,0c0,0.1,0,0.1-0.1,0.2c0,0,0,0.1,0,0.1c0,0,0,0,0,0l-0.1,4.3
		c0,0.4,0.3,0.7,0.7,0.7c0,0,0,0,0,0c0.4,0,0.7-0.3,0.7-0.7l0.1-3.1c4.7,3,7.5,8.1,7.5,13.7c0,7.9-5.6,14.6-13.4,16
		c-0.4,0.1-0.6,0.4-0.6,0.8c0.1,0.3,0.4,0.6,0.7,0.6c0,0,0.1,0,0.1,0c8.4-1.5,14.5-8.9,14.5-17.4C36.7,13.1,33.7,7.5,28.7,4.3z"/>
	<path class="st0" d="M11.4,34l-0.1-4.2c0-0.4-0.4-0.7-0.7-0.7c-0.4,0-0.7,0.3-0.7,0.7l0,2.8c-4.5-3-7.3-8.1-7.3-13.6
		C2.7,10.7,9,3.8,17.3,2.9c0.4,0,0.7-0.4,0.6-0.8c0-0.4-0.4-0.7-0.8-0.6c-9,1-15.8,8.5-15.8,17.6c0,6,3,11.5,8,14.8l-2.8,1.3
		c-0.4,0.2-0.5,0.6-0.3,0.9c0.1,0.3,0.4,0.4,0.6,0.4c0.1,0,0.2,0,0.3-0.1l3.9-1.8c0,0,0,0,0,0l0,0c0,0,0,0,0.1,0
		c0.1,0,0.1-0.1,0.2-0.1c0,0,0.1-0.1,0.1-0.1c0,0,0.1-0.1,0.1-0.1C11.4,34.2,11.4,34.1,11.4,34C11.4,34,11.4,34,11.4,34L11.4,34
		C11.4,34,11.4,34,11.4,34z"/>
	<path class="st0" d="M10.2,13.5v3.9c0,0.9,0.7,1.7,1.7,1.7h15c0.9,0,1.7-0.7,1.7-1.7v-3.9c0-0.9-0.7-1.6-1.6-1.6h-15
		C11,11.8,10.2,12.5,10.2,13.5z M27.1,13.4v3.9c0,0.1-0.1,0.3-0.3,0.3h-15c-0.1,0-0.3-0.1-0.3-0.3v-3.9c0-0.1,0.1-0.3,0.3-0.3h15
		C27,13.2,27.1,13.3,27.1,13.4z"/>
	<path class="st0" d="M13.3,16.1h2.7c0.4,0,0.7-0.3,0.7-0.7s-0.3-0.7-0.7-0.7h-2.7c-0.4,0-0.7,0.3-0.7,0.7S12.9,16.1,13.3,16.1z"/>
	<path class="st0" d="M28.5,25.4v-3.9c0-0.9-0.7-1.6-1.6-1.6h-15c-0.9,0-1.7,0.7-1.7,1.7v3.9c0,0.9,0.7,1.7,1.7,1.7h15
		C27.8,27.1,28.5,26.3,28.5,25.4z M11.6,25.4v-3.9c0-0.1,0.1-0.3,0.3-0.3h15c0.1,0,0.2,0.1,0.2,0.2v3.9c0,0.1-0.1,0.3-0.3,0.3h-15
		C11.7,25.7,11.6,25.5,11.6,25.4z"/>
	<path class="st0" d="M16.1,22.8h-2.7c-0.4,0-0.7,0.3-0.7,0.7s0.3,0.7,0.7,0.7h2.7c0.4,0,0.7-0.3,0.7-0.7S16.4,22.8,16.1,22.8z"/>
</g>
</svg>
