<?xml version="1.0" encoding="utf-8"?>
<!-- Generator: Adobe Illustrator 23.0.1, SVG Export Plug-In . SVG Version: 6.00 Build 0)  -->
<svg version="1.0" id="图层_1" xmlns="http://www.w3.org/2000/svg" xmlns:xlink="http://www.w3.org/1999/xlink" x="0px" y="0px"
	 viewBox="0 0 38 38" style="enable-background:new 0 0 38 38;" xml:space="preserve">
<style type="text/css">
	.st0{fill:#e2edf2;}
</style>
<g>
	<path class="st0" d="M12.4,24.1C12.4,24.1,12.4,24.1,12.4,24.1C12.4,24.1,12.4,24.1,12.4,24.1L9.2,13c-0.1-0.4-0.5-0.6-0.9-0.5
		c-0.4,0.1-0.6,0.5-0.5,0.9l3.1,10.4l-7.2,2.2c-0.4,0.1-0.6,0.5-0.5,0.9c0.1,0.3,0.4,0.5,0.7,0.5c0.1,0,0.1,0,0.2,0l7.2-2.2
		l3.3,11.1c0.1,0.3,0.4,0.5,0.7,0.5c0.1,0,0.1,0,0.2,0c0.4-0.1,0.6-0.5,0.5-0.9L12.4,24.1z"/>
	<path class="st0" d="M12.6,17.6C12.6,17.6,12.6,17.6,12.6,17.6C12.6,17.6,12.6,17.6,12.6,17.6L12.6,17.6c0,0,0,0.1,0.1,0.1c0,0,0,0.1,0,0.1
		c0,0,0.1,0.1,0.1,0.1c0,0,0,0,0.1,0.1c0,0,0.1,0,0.1,0.1c0,0,0,0,0.1,0c0.1,0,0.1,0,0.2,0c0.1,0,0.1,0,0.2,0l5.2-1.7
		c0.4-0.1,0.6-0.5,0.5-0.9c-0.1-0.4-0.5-0.6-0.9-0.5l-4.6,1.5l-1.4-4.4c-0.1-0.4-0.5-0.6-0.9-0.5c-0.4,0.1-0.6,0.5-0.5,0.9
		L12.6,17.6z"/>
	<path class="st0" d="M34.8,23.6c-0.1-0.4-0.5-0.6-0.9-0.5l-16.7,5l-2.1-7l5-1.6c0.4-0.1,0.6-0.5,0.4-0.9S20,18,19.7,18.1L14.1,20
		c0,0-0.1,0-0.1,0.1c0,0-0.1,0-0.1,0.1c0,0-0.1,0.1-0.1,0.1c0,0-0.1,0.1-0.1,0.1c0,0,0,0.1,0,0.1c0,0,0,0.1,0,0.1c0,0,0,0.1,0,0.1
		c0,0,0,0.1,0,0.1l2.5,8.3c0,0,0,0,0,0s0,0,0,0l1.9,6.2c0.1,0.3,0.4,0.5,0.7,0.5c0.1,0,0.1,0,0.2,0c0.4-0.1,0.6-0.5,0.5-0.9
		l-1.7-5.5L29,26.1l1.2,3.8c0.1,0.3,0.4,0.5,0.7,0.5c0.1,0,0.1,0,0.2,0c0.4-0.1,0.6-0.5,0.4-0.9l-1.2-3.7l4-1.2
		C34.7,24.3,34.9,24,34.8,23.6z"/>
	<path class="st0" d="M27,12.7c2.1,0,3.8-1.7,3.8-3.8c0-2.1-1.7-3.8-3.8-3.8c-2.1,0-3.8,1.7-3.8,3.8C23.2,11.1,24.9,12.7,27,12.7z M27,6.6
		c1.3,0,2.4,1.1,2.4,2.4c0,1.3-1.1,2.4-2.4,2.4c-1.3,0-2.4-1.1-2.4-2.4C24.6,7.7,25.7,6.6,27,6.6z"/>
	<path class="st0" d="M20.1,12.4C20.1,12.5,20.1,12.5,20.1,12.4l4.7,8.9c0,0,0,0,0,0c0,0,0,0,0,0c0.4,0.8,1.1,1.3,1.9,1.3c0,0,0,0,0,0
		c0.7,0,1.4-0.5,1.8-1.3c0,0,0,0,0,0l5-8.4c0,0,0,0,0,0c0.7-1.2,1.1-2.5,1.1-3.9c0-4.2-3.4-7.7-7.7-7.7S19.3,4.7,19.3,9
		C19.3,10.2,19.5,11.4,20.1,12.4C20.1,12.4,20.1,12.4,20.1,12.4z M27,2.7c3.5,0,6.3,2.8,6.3,6.3c0,1.1-0.3,2.2-0.9,3.2c0,0,0,0,0,0
		l-5,8.4c0,0,0,0,0,0c0,0,0,0,0,0c-0.2,0.3-0.4,0.5-0.6,0.5c0,0,0,0,0,0c-0.2,0-0.5-0.2-0.7-0.6l0,0l-4.7-8.9
		c-0.4-0.9-0.7-1.8-0.7-2.8C20.7,5.5,23.5,2.7,27,2.7z"/>
</g>
</svg>
