<?xml version="1.0" encoding="utf-8"?>
<!-- Generator: Adobe Illustrator 23.0.1, SVG Export Plug-In . SVG Version: 6.00 Build 0)  -->
<svg version="1.0" id="图层_1" xmlns="http://www.w3.org/2000/svg" xmlns:xlink="http://www.w3.org/1999/xlink" x="0px" y="0px"
	 viewBox="0 0 38 38" style="enable-background:new 0 0 38 38;" xml:space="preserve">
<style type="text/css">
	.st0{fill:#e2edf2;}
</style>
<g>
	<path class="st0" d="M17.6,23.3C17.6,23.3,17.6,23.3,17.6,23.3c0.3,0,0.5-0.2,0.5-0.5c0-1.2-0.8-1.4-1.5-1.5c-0.6-0.2-0.9-0.5-1-0.5
		c0,0,0-0.1,0-0.1c0.1-0.2,0.2-0.3,0.2-0.4c0.1-0.1,0.2-0.2,0.3-0.3c0.3-0.4,0.2-0.8,0.1-1c0.1-0.2,0.1-0.6,0.1-0.9
		c0-0.6-0.6-1.5-1.9-1.5c-1.2,0-1.8,0.8-1.9,1.5c0,0.4,0,0.7,0.1,0.9c-0.1,0.2-0.2,0.6,0,1c0.1,0.2,0.3,0.3,0.3,0.3
		c0,0.1,0.1,0.3,0.2,0.4c0,0,0,0.1,0,0.1c0,0.1-0.4,0.4-1,0.5c-0.7,0.2-1.5,0.4-1.5,1.5c0,0.3,0.2,0.5,0.5,0.5s0.5-0.2,0.5-0.5
		c0-0.3,0-0.4,0.8-0.5c1-0.2,1.5-0.9,1.6-0.9c0.2-0.2,0.2-0.5,0.2-0.7c0-0.1,0-0.3-0.1-0.4c0,0-0.1-0.1-0.1-0.1
		c0-0.1-0.1-0.2-0.1-0.2c0-0.1-0.1-0.3-0.3-0.4c0,0-0.1-0.1-0.1-0.1c0,0,0-0.1,0.1-0.1l0-0.1c0-0.1,0.1-0.3,0-0.4
		c-0.1-0.2-0.1-0.5-0.1-0.8c0-0.2,0.2-0.6,0.9-0.6c0.7,0,0.9,0.4,0.9,0.6c0,0.3,0,0.6-0.1,0.8c0,0.1,0,0.2,0,0.4
		c0,0,0.1,0.1,0.1,0.1c0,0,0,0.1,0,0.1c-0.1,0.1-0.1,0.1-0.2,0.2c-0.1,0.1-0.2,0.2-0.2,0.4c0,0,0,0.1-0.1,0.3c0,0,0,0.1,0,0.1
		c0,0.1-0.1,0.2-0.1,0.4c0,0.2,0,0.4,0.2,0.7c0.1,0.1,0.5,0.7,1.6,0.9c0.7,0.2,0.7,0.2,0.7,0.5C17.1,23.1,17.4,23.3,17.6,23.3z"/>
	<path class="st0" d="M26.7,23.3C26.7,23.3,26.7,23.3,26.7,23.3c0.3,0,0.5-0.2,0.5-0.5c0-1.2-0.8-1.4-1.5-1.5c-0.6-0.2-0.9-0.5-1-0.5
		c0,0,0-0.1,0-0.1c0.1-0.2,0.2-0.3,0.2-0.4c0.1-0.1,0.2-0.2,0.3-0.3c0.3-0.4,0.2-0.8,0.1-1c0.1-0.3,0.1-0.6,0.1-1
		c0-0.6-0.6-1.5-1.9-1.5c-1.2,0-1.8,0.8-1.9,1.5c0,0.4,0,0.7,0.1,0.9c-0.1,0.2-0.2,0.6,0,1c0.1,0.2,0.3,0.3,0.3,0.3
		c0,0.1,0.1,0.3,0.2,0.4c0,0,0,0.1,0,0.1c-0.1,0.1-0.4,0.4-1,0.5c-0.7,0.2-1.5,0.4-1.5,1.5c0,0.3,0.2,0.5,0.5,0.5s0.5-0.2,0.5-0.5
		c0-0.3,0-0.4,0.8-0.5c1-0.2,1.5-0.9,1.6-0.9c0.2-0.2,0.2-0.5,0.2-0.7c0-0.1,0-0.3-0.1-0.4c0,0,0-0.1-0.1-0.1c0-0.1-0.1-0.2-0.1-0.2
		c0-0.2-0.2-0.4-0.3-0.5c0,0-0.1-0.1-0.1-0.1c0,0,0-0.1,0.1-0.1l0-0.1c0-0.1,0.1-0.3,0-0.4c-0.1-0.2-0.1-0.5-0.1-0.8
		c0-0.2,0.2-0.6,0.9-0.6c0.7,0,0.9,0.4,0.9,0.6c0,0.3,0,0.6-0.1,0.8c0,0.1,0,0.3,0,0.4c0,0,0.1,0.1,0.1,0.1c0,0,0,0.1,0,0.1
		c-0.1,0.1-0.1,0.1-0.2,0.2c-0.1,0.1-0.2,0.2-0.2,0.4c0,0,0,0.1-0.1,0.3c0,0,0,0.1,0,0.1c0,0.1-0.1,0.2-0.1,0.4c0,0.2,0,0.4,0.2,0.7
		c0.1,0.1,0.5,0.7,1.6,0.9c0.7,0.2,0.7,0.2,0.7,0.5C26.2,23.1,26.5,23.3,26.7,23.3z"/>
	<path class="st0" d="M10.6,18.9c-0.2-0.4-0.5-0.6-0.9-0.6h-1C9,12.8,13.5,8.5,19,8.5c3.7,0,7.2,2,9,5.3c0.2,0.3,0.6,0.5,1,0.3
		c0.3-0.2,0.5-0.6,0.3-1c-2.1-3.7-6-6-10.2-6C12.5,7.1,7.2,12.4,7.2,19c0,0.4,0.3,0.7,0.7,0.7h0.9L6,22.9l-2.8-3.2h0.9
		c0.4,0,0.7-0.3,0.7-0.7c0-7.9,6.4-14.4,14.2-14.4c0.4,0,0.7-0.3,0.7-0.7S19.4,3.2,19,3.2c-8.4,0-15.2,6.7-15.6,15.1H2.3
		c-0.4,0-0.8,0.2-0.9,0.6c-0.2,0.4-0.1,0.8,0.2,1.1l3.7,4.2c0.2,0.2,0.5,0.3,0.8,0.3s0.6-0.1,0.8-0.3l3.7-4.2
		C10.7,19.7,10.7,19.3,10.6,18.9z"/>
	<path class="st0" d="M36.4,18l-3.7-4.2c-0.4-0.4-1.1-0.4-1.5,0L27.6,18c-0.3,0.3-0.3,0.7-0.2,1.1c0.2,0.4,0.5,0.6,0.9,0.6h1
		c-0.4,5.5-4.9,9.8-10.4,9.8c-3.8,0-7.3-2.1-9.1-5.5c-0.2-0.3-0.6-0.5-0.9-0.3c-0.3,0.2-0.5,0.6-0.3,0.9c2.1,3.9,6,6.3,10.4,6.3
		c6.5,0,11.8-5.4,11.8-11.9c0-0.4-0.3-0.7-0.7-0.7h-0.9l2.8-3.2l2.8,3.2h-0.9c-0.4,0-0.7,0.3-0.7,0.7c0,7.9-6.4,14.4-14.2,14.4
		c-0.4,0-0.7,0.3-0.7,0.7s0.3,0.7,0.7,0.7c8.4,0,15.2-6.7,15.6-15.1h1.1c0.4,0,0.8-0.2,0.9-0.6C36.8,18.7,36.7,18.3,36.4,18z"/>
</g>
</svg>
