<?xml version="1.0" encoding="utf-8"?>
<!-- Generator: Adobe Illustrator 23.0.1, SVG Export Plug-In . SVG Version: 6.00 Build 0)  -->
<svg version="1.0" id="图层_1" xmlns="http://www.w3.org/2000/svg" xmlns:xlink="http://www.w3.org/1999/xlink" x="0px" y="0px"
	 viewBox="0 0 38 38" style="enable-background:new 0 0 38 38;" xml:space="preserve">
<style type="text/css">
	.st0{fill:#e2edf2;}
</style>
<g>
	<path class="st0" d="M31.4,12.9c-0.2-1.5-1.8-2.1-2.5-2.4c0,0,0,0,0,0l-1.2-0.5c0.6-0.2,1-0.7,1-1.3c0,0,0,0,0,0c0,0,0-0.1,0-0.1
		c0,0,0-0.1,0-0.1c0,0,0,0,0,0c-0.1-0.2-0.2-0.3-0.4-0.3L28,8c0.8,0,1.4-0.7,1.4-1.5c0,0,0,0,0,0c0-0.1,0-0.1,0-0.1c0,0,0-0.1,0-0.1
		c0,0,0-0.1-0.1-0.1c0,0,0-0.1-0.1-0.1c0,0-0.1,0-0.1-0.1c0,0-0.1-0.1-0.1-0.1c0,0,0,0,0,0l-0.5-0.2c0.1,0,0.1-0.1,0.2-0.1
		c0.9,0,1.6-0.7,1.6-1.6c0,0,0,0,0,0c0-0.1,0-0.1,0-0.1c0,0,0-0.1,0-0.1c0,0,0-0.1-0.1-0.1c0,0,0-0.1-0.1-0.1c0,0-0.1,0-0.1-0.1
		c0,0-0.1-0.1-0.1-0.1c0,0,0,0,0,0l-0.3-0.1c0-0.8-0.5-1.5-1.3-1.8c-0.8-0.3-1.7,0-2.2,0.6L25.7,2c0,0,0,0,0,0c0,0-0.1,0-0.1,0
		c0,0-0.1,0-0.1,0c0,0-0.1,0-0.1,0c0,0-0.1,0-0.1,0c0,0-0.1,0-0.1,0.1c0,0-0.1,0.1-0.1,0.1c0,0,0,0,0,0c-0.5,0.7-0.4,1.7,0.3,2.2
		c0.1,0,0.1,0.1,0.1,0.2l-0.5-0.2c0,0,0,0,0,0c-0.1,0-0.1,0-0.2,0c0,0-0.1,0-0.1,0c0,0-0.1,0-0.1,0c0,0-0.1,0-0.1,0
		c0,0-0.1,0.1-0.1,0.1c0,0-0.1,0.1-0.1,0.1c0,0,0,0,0,0c-0.5,0.6-0.4,1.6,0.2,2.1l-0.3-0.1c0,0,0,0,0,0c-0.1,0-0.1,0-0.2,0
		c0,0-0.1,0-0.1,0c-0.1,0-0.1,0-0.1,0c0,0-0.1,0-0.1,0c0,0-0.1,0.1-0.1,0.1c0,0-0.1,0.1-0.1,0.1c0,0,0,0,0,0c0,0,0,0.1-0.1,0.1
		c0,0,0,0.1,0,0.1c0,0,0,0,0,0c-0.1,0.2-0.2,0.5-0.2,0.8c0,0.2,0.1,0.4,0.2,0.5c-1.1-0.4-2.6-0.7-4-0.7c-1.4,0-2.9,0.4-4,0.7
		c0.2-0.4,0.2-0.9,0-1.3c0,0,0,0,0,0C15,7,15,7,15,6.9c0,0,0-0.1-0.1-0.1c0,0,0,0,0,0c0,0-0.1-0.1-0.1-0.1c0,0-0.1-0.1-0.1-0.1
		c0,0,0,0,0,0c-0.2-0.1-0.3-0.1-0.5,0l-0.3,0.1c0.3-0.2,0.5-0.6,0.5-1c0.1-0.4-0.1-0.8-0.3-1.1c0,0,0,0,0,0c0,0-0.1-0.1-0.1-0.1
		c0,0-0.1-0.1-0.1-0.1s-0.1,0-0.1,0c0,0-0.1,0-0.1,0c0,0-0.1,0-0.1,0c-0.1,0-0.1,0-0.2,0c0,0,0,0,0,0l-0.5,0.2
		c0-0.1,0.1-0.1,0.1-0.2c0,0,0,0,0,0c0.7-0.5,0.8-1.5,0.3-2.2c0,0,0,0,0,0c0,0-0.1-0.1-0.1-0.1c0,0-0.1,0-0.1-0.1c0,0-0.1,0-0.2-0.1
		c0,0-0.1,0-0.1,0c0,0-0.1,0-0.1,0c0,0-0.1,0-0.1,0c0,0,0,0,0,0L12.2,2c-0.2-0.2-0.4-0.4-0.7-0.5c-0.5-0.2-1-0.3-1.5-0.1
		c-0.5,0.2-0.9,0.5-1.1,1C8.8,2.7,8.7,2.9,8.7,3.2L8.4,3.3c0,0,0,0,0,0c-0.1,0-0.1,0-0.1,0.1c0,0-0.1,0-0.1,0.1c0,0-0.1,0.1-0.1,0.1
		C8,3.6,8,3.7,8,3.7c0,0,0,0.1,0,0.1c0,0,0,0.1,0,0.1c0,0,0,0,0,0c0,0.9,0.7,1.6,1.6,1.6c0.1,0,0.1,0,0.2,0.1L9.1,5.8c0,0,0,0,0,0
		c0,0-0.1,0-0.1,0.1c0,0-0.1,0-0.1,0.1c0,0-0.1,0.1-0.1,0.1c0,0-0.1,0.1-0.1,0.1c0,0,0,0.1,0,0.1c0,0,0,0.1,0,0.1c0,0,0,0,0,0
		c0,0.8,0.6,1.5,1.5,1.5L9.8,8.1c0,0,0,0,0,0c0,0-0.1,0-0.1,0.1c0,0-0.1,0-0.1,0.1c0,0-0.1,0.1-0.1,0.1c0,0-0.1,0.1-0.1,0.1
		c0,0,0,0.1,0,0.1c0,0,0,0.1,0,0.1c0,0,0,0,0,0c0,0.6,0.4,1.1,1,1.3l-1.2,0.5c-0.6,0.3-2.2,0.9-2.5,2.4c0,0.1,0,0.2,0,0.4v21.9
		c0,0.9,0.8,1.6,1.7,1.6h21.5c0.9,0,1.7-0.7,1.7-1.6V13.2C31.5,13.1,31.5,13,31.4,12.9z M10.8,6.7l0.9-0.3c0,0,0,0,0,0c0,0,0,0,0,0
		l0.8-0.3c-0.1,0.2-0.2,0.4-0.2,0.7c0,0.1,0,0.3,0,0.4l-0.1,0c0,0,0,0,0,0c0,0,0,0,0,0l-0.4,0.1C11.5,7.1,11.2,6.8,10.8,6.7z
		 M11.8,11C11.8,11,11.8,10.9,11.8,11c0.1,0,0.1-0.1,0.2-0.1c0,0,0,0,0.1,0c0,0,0.1-0.1,0.1-0.1c0,0,0.1-0.1,0.1-0.1
		c0,0,0-0.1,0-0.1c0-0.1,0-0.1,0-0.2c0,0,0,0,0,0c0-0.6-0.3-1.1-0.8-1.3l1.1-0.4l0.7-0.2c0,0.1-0.1,0.2-0.1,0.4
		c-0.1,0.4,0.1,0.8,0.3,1.2c0,0,0,0,0,0c0.1,0.1,0.1,0.1,0.2,0.2c0,0,0,0,0.1,0c0.1,0,0.2,0.1,0.3,0.1c0,0,0,0,0,0s0,0,0,0
		c0.1,0,0.2,0,0.2,0c0,0,0,0,0,0C16,9.4,17.8,9,19,9c1.3,0,3,0.4,4.7,1.1c0,0,0,0,0,0c0.1,0,0.2,0,0.2,0c0,0,0,0,0,0s0,0,0,0
		c0.1,0,0.2,0,0.3-0.1c0,0,0,0,0.1,0c0.1,0,0.2-0.1,0.2-0.2c0,0,0,0,0,0c0.3-0.3,0.4-0.7,0.3-1.2c0-0.1-0.1-0.2-0.1-0.4l0.7,0.2
		c0,0,0,0,0,0L26.5,9c-0.4,0.3-0.8,0.8-0.8,1.3c0,0,0,0,0,0c0,0.1,0,0.1,0,0.2c0,0,0,0.1,0,0.1c0,0,0,0.1,0.1,0.1
		c0,0,0.1,0.1,0.1,0.1c0,0,0,0,0.1,0c0.1,0,0.1,0.1,0.2,0.1c0,0,0,0,0,0l1.8,0.7H10L11.8,11z M25.8,6.8c0-0.2-0.1-0.5-0.2-0.7
		l0.8,0.3c0,0,0,0,0,0c0,0,0,0,0,0l0.9,0.3c-0.4,0.1-0.7,0.4-0.9,0.7l-0.4-0.1c0,0,0,0,0,0c0,0,0,0,0,0l-0.1,0
		C25.8,7.1,25.8,6.9,25.8,6.8z M26.4,3.7l0.7,0.2c0,0,0,0,0,0l0.9,0.3c-0.5,0.1-0.8,0.5-1.1,0.9l-0.2-0.1h0l-0.1,0
		C26.8,4.6,26.7,4.1,26.4,3.7z M10,4.3l0.9-0.3c0,0,0,0,0,0l0.7-0.2c-0.2,0.3-0.3,0.5-0.3,0.9c0,0.2,0,0.3,0,0.5l-0.1,0h0l-0.2,0.1
		C10.8,4.7,10.4,4.4,10,4.3z M30.1,35.1c0,0.1-0.1,0.2-0.3,0.2H8.3c-0.2,0-0.3-0.1-0.3-0.2V13.2c0-0.1,0.1-0.2,0.3-0.2h21.5
		c0.2,0,0.3,0.1,0.3,0.2V35.1z"/>
	<path class="st0" d="M13.8,16.3c0-1.3-1.1-2.4-2.4-2.4s-2.4,1.1-2.4,2.4s1.1,2.4,2.4,2.4S13.8,17.6,13.8,16.3z M11.3,17.3
		c-0.6,0-1-0.5-1-1s0.5-1,1-1s1,0.5,1,1S11.9,17.3,11.3,17.3z"/>
	<path class="st0" d="M19.1,18.7c1.3,0,2.4-1.1,2.4-2.4s-1.1-2.4-2.4-2.4s-2.4,1.1-2.4,2.4S17.7,18.7,19.1,18.7z M19.1,15.3
		c0.6,0,1,0.5,1,1s-0.5,1-1,1c-0.6,0-1-0.5-1-1S18.5,15.3,19.1,15.3z"/>
	<path class="st0" d="M26.8,13.9c-1.3,0-2.4,1.1-2.4,2.4s1.1,2.4,2.4,2.4s2.4-1.1,2.4-2.4S28.1,13.9,26.8,13.9z M26.8,17.3
		c-0.6,0-1-0.5-1-1s0.5-1,1-1c0.6,0,1,0.5,1,1S27.4,17.3,26.8,17.3z"/>
	<path class="st0" d="M19,20.3c-3.5,0-6.4,2.9-6.4,6.4s2.9,6.4,6.4,6.4c3.5,0,6.4-2.9,6.4-6.4S22.6,20.3,19,20.3z M19,31.7
		c-2.8,0-5-2.3-5-5s2.3-5,5-5s5,2.3,5,5S21.8,31.7,19,31.7z"/>
	<path class="st0" d="M21.2,26.6c0,0,0-0.1,0-0.1c0,0,0-0.1-0.1-0.1c0,0,0-0.1-0.1-0.1c0,0-0.1-0.1-0.1-0.1c0,0,0,0-0.1-0.1
		c0,0,0,0,0,0c0,0-0.1,0-0.1,0c0,0-0.1,0-0.1,0c0,0,0,0,0,0h-1.2l0.9-1.5c0.2-0.3,0.1-0.8-0.2-1c-0.3-0.2-0.8-0.1-1,0.2l-1.6,2.5
		c0,0,0,0,0,0.1c0,0,0,0.1,0,0.1c0,0,0,0.1,0,0.1c0,0,0,0,0,0.1c0,0,0,0,0,0.1c0,0,0,0.1,0,0.1c0,0,0,0.1,0.1,0.1c0,0,0,0.1,0.1,0.1
		c0,0,0.1,0.1,0.1,0.1c0,0,0,0,0.1,0.1c0,0,0,0,0.1,0c0,0,0,0,0.1,0c0.1,0,0.2,0,0.2,0c0,0,0,0,0,0c0,0,0,0,0,0h1.3l-0.9,1.5
		c-0.2,0.3-0.1,0.8,0.3,1c0.1,0.1,0.2,0.1,0.3,0.1c0.2,0,0.5-0.1,0.6-0.4l1.5-2.5c0,0,0,0,0,0c0,0,0-0.1,0-0.1c0,0,0-0.1,0-0.1
		C21.2,26.8,21.2,26.7,21.2,26.6C21.2,26.7,21.2,26.7,21.2,26.6z"/>
</g>
</svg>
