<?xml version="1.0" encoding="utf-8"?>
<!-- Generator: Adobe Illustrator 23.0.1, SVG Export Plug-In . SVG Version: 6.00 Build 0)  -->
<svg version="1.0" id="图层_1" xmlns="http://www.w3.org/2000/svg" xmlns:xlink="http://www.w3.org/1999/xlink" x="0px" y="0px"
	 viewBox="0 0 38 38" style="enable-background:new 0 0 38 38;" xml:space="preserve">
<style type="text/css">
	.st0{fill:#e2edf2;}
</style>
<g>
	<path class="st0" d="M32.9,3.5c0-1.2-1-2.2-2.2-2.2H12c0,0-0.1,0-0.1,0c-0.1,0-0.1,0-0.2,0c-0.1,0-0.1,0.1-0.1,0.1
		c0,0-0.1,0-0.1,0.1L5.3,7.4c0,0,0,0,0,0c0,0-0.1,0.1-0.1,0.2c0,0,0,0,0,0.1c0,0,0,0.1,0,0.1c0,0.1,0,0.1,0,0.2c0,0,0,0,0,0v26.6
		c0,1.2,1,2.2,2.2,2.2h23.5c1.2,0,2.2-1,2.2-2.2v-0.9c0-0.4-0.3-0.7-0.7-0.7s-0.7,0.3-0.7,0.7v0.9c0,0.4-0.4,0.8-0.8,0.8H7.3
		c-0.4,0-0.8-0.4-0.8-0.8V8.6h3.4c0,0,0,0,0,0c0,0,0,0,0,0c1.5,0,2.7-1.2,2.7-2.7V2.7h18c0.4,0,0.8,0.4,0.8,0.8v23
		c0,0.4,0.3,0.7,0.7,0.7s0.7-0.3,0.7-0.7V3.5z M9.9,7.2C9.9,7.2,9.9,7.2,9.9,7.2C9.9,7.2,9.9,7.2,9.9,7.2H7.5l3.8-3.6v2.2
		C11.3,6.6,10.7,7.2,9.9,7.2z"/>
	<path class="st0" d="M16.9,18c-0.4,0-0.7,0.3-0.7,0.7v1.9c0,0.4,0.3,0.7,0.7,0.7s0.7-0.3,0.7-0.7v-1.9C17.6,18.3,17.3,18,16.9,18z"
		/>
	<path class="st0" d="M20,15c-0.4,0-0.7,0.3-0.7,0.7v4.9c0,0.4,0.3,0.7,0.7,0.7s0.7-0.3,0.7-0.7v-4.9C20.7,15.3,20.4,15,20,15z"/>
	<path class="st0" d="M23.1,16.5c-0.4,0-0.7,0.3-0.7,0.7v3.4c0,0.4,0.3,0.7,0.7,0.7s0.7-0.3,0.7-0.7v-3.4
		C23.8,16.8,23.4,16.5,23.1,16.5z"/>
	<path class="st0" d="M25.8,12.7c-1.5-1.5-3.6-2.4-5.8-2.4s-4.2,0.8-5.8,2.4c-1.5,1.5-2.4,3.6-2.4,5.8c0,2.2,0.8,4.2,2.4,5.8
		c1.5,1.5,3.6,2.4,5.8,2.4c1.9,0,3.8-0.7,5.2-1.9l6.5,6.6c0.1,0.1,0.3,0.2,0.5,0.2c0.2,0,0.4-0.1,0.5-0.2c0.3-0.3,0.3-0.7,0-1
		l-6.5-6.6c1.2-1.5,1.9-3.3,1.9-5.3C28.2,16.3,27.3,14.2,25.8,12.7z M15.2,23.2c-1.3-1.3-2-3-2-4.8c0-1.8,0.7-3.5,2-4.8s3-2,4.8-2
		c1.8,0,3.5,0.7,4.8,2c1.3,1.3,2,3,2,4.8c0,1.8-0.7,3.5-2,4.8c-1.3,1.3-3,2-4.8,2S16.5,24.5,15.2,23.2z"/>
</g>
</svg>
