<?xml version="1.0" encoding="utf-8"?>
<!-- Generator: Adobe Illustrator 23.0.1, SVG Export Plug-In . SVG Version: 6.00 Build 0)  -->
<svg version="1.0" id="图层_1" xmlns="http://www.w3.org/2000/svg" xmlns:xlink="http://www.w3.org/1999/xlink" x="0px" y="0px"
	 viewBox="0 0 38 38" style="enable-background:new 0 0 38 38;" xml:space="preserve">
<style type="text/css">
	.st0{fill:#e2edf2;}
</style>
<g>
	<path class="st0" d="M29.2,25.5c-0.4,0-0.7,0.3-0.7,0.7v8.3c0,0.4-0.4,0.8-0.8,0.8H4.2c-0.4,0-0.8-0.4-0.8-0.8v-31
		c0-0.4,0.4-0.8,0.8-0.8h18v3.2c0,1.5,1.2,2.7,2.7,2.7c0,0,0,0,0,0c0,0,0,0,0,0h3.4v3.8c0,0.4,0.3,0.7,0.7,0.7s0.7-0.3,0.7-0.7V7.9
		c0,0,0,0,0,0c0-0.1,0-0.1,0-0.2c0,0,0-0.1,0-0.1c0,0,0,0,0-0.1c0-0.1-0.1-0.1-0.1-0.2c0,0,0,0,0,0l-6.2-5.9c0,0-0.1,0-0.1,0
		c0,0-0.1-0.1-0.1-0.1c0,0-0.1,0-0.1,0c0,0-0.1,0-0.1,0H4.2c-1.2,0-2.2,1-2.2,2.2v31c0,1.2,1,2.2,2.2,2.2h23.5c1.2,0,2.2-1,2.2-2.2
		v-8.3C29.9,25.8,29.6,25.5,29.2,25.5z M23.7,5.9V3.6l3.8,3.6h-2.4c0,0,0,0,0,0c0,0,0,0,0,0C24.3,7.2,23.7,6.6,23.7,5.9z"/>
	<path class="st0" d="M7.5,9.7h9.3c0.4,0,0.7-0.3,0.7-0.7s-0.3-0.7-0.7-0.7H7.5C7.1,8.3,6.8,8.6,6.8,9S7.1,9.7,7.5,9.7z"/>
	<path class="st0" d="M25.7,14.6c0-0.4-0.3-0.7-0.7-0.7H7.5c-0.4,0-0.7,0.3-0.7,0.7s0.3,0.7,0.7,0.7H25C25.4,15.3,25.7,15,25.7,14.6
		z"/>
	<path class="st0" d="M18.1,19.5H7.5c-0.4,0-0.7,0.3-0.7,0.7s0.3,0.7,0.7,0.7h10.5c0.4,0,0.7-0.3,0.7-0.7S18.5,19.5,18.1,19.5z"/>
	<path class="st0" d="M18.8,25.7c0-0.4-0.3-0.7-0.7-0.7H7.5c-0.4,0-0.7,0.3-0.7,0.7s0.3,0.7,0.7,0.7h10.5
		C18.5,26.4,18.8,26.1,18.8,25.7z"/>
	<path class="st0" d="M18.1,32h7.8c0.4,0,0.7-0.3,0.7-0.7s-0.3-0.7-0.7-0.7h-7.8c-0.4,0-0.7,0.3-0.7,0.7S17.7,32,18.1,32z"/>
	<path class="st0" d="M35.2,14.2l-1-1c-0.9-0.9-2.4-0.9-3.3,0L30.1,14l-8.9,8.9c-0.1,0.1-0.1,0.2-0.2,0.3c0,0,0,0,0,0l-1.2,4.6
		c0,0.1,0,0.1,0,0.2c0,0.2,0.1,0.4,0.2,0.5s0.3,0.2,0.5,0.2c0.1,0,0.1,0,0.2,0l4.6-1.2c0,0,0,0,0,0c0.1,0,0.2-0.1,0.3-0.2l8.9-8.9
		l0.8-0.8C36.2,16.7,36.2,15.2,35.2,14.2z M31.9,14.2c0.4-0.4,1-0.4,1.4,0l1,1c0.4,0.4,0.4,1,0,1.4L34,16.9l-2.4-2.4L31.9,14.2z
		 M21.5,27l0.6-2.3l1.7,1.7L21.5,27z M25.1,25.8l-2.4-2.4l7.9-7.9l2.4,2.4L25.1,25.8z"/>
</g>
</svg>
