<?xml version="1.0" encoding="utf-8"?>
<!-- Generator: Adobe Illustrator 23.0.1, SVG Export Plug-In . SVG Version: 6.00 Build 0)  -->
<svg version="1.0" id="图层_1" xmlns="http://www.w3.org/2000/svg" xmlns:xlink="http://www.w3.org/1999/xlink" x="0px" y="0px"
	 viewBox="0 0 38 38" style="enable-background:new 0 0 38 38;" xml:space="preserve">
<style type="text/css">
	.st0{fill:#e2edf2;}
</style>
<g>
	<path class="st0" d="M31.5,12.2c0-0.1,0-0.1,0-0.2c0,0,0-0.1,0-0.1c0,0,0,0,0-0.1c0-0.1-0.1-0.1-0.1-0.2c0,0,0,0,0,0l-5.3-5
		c0,0-0.1,0-0.1,0c0,0-0.1-0.1-0.1-0.1c0,0-0.1,0-0.1,0c0,0-0.1,0-0.1,0h-6.8V4.9c0-2-1.6-3.6-3.6-3.6s-3.6,1.6-3.6,3.6v1.7H9.7
		c-1.1,0-2,0.9-2,2v26.2c0,1.1,0.9,2,2,2h19.9c1.1,0,2-0.9,2-2L31.5,12.2C31.5,12.2,31.5,12.2,31.5,12.2z M27.3,11.5
		C27.3,11.5,27.3,11.5,27.3,11.5C27.3,11.5,27.3,11.5,27.3,11.5c-0.6,0-1.1-0.5-1.1-1V8.9l2.8,2.7H27.3z M13.1,4.9
		c0-1.2,1-2.2,2.2-2.2s2.2,1,2.2,2.2v1.7h-4.3V4.9z M29.6,35.3H9.7c-0.3,0-0.6-0.2-0.6-0.6V8.5c0-0.3,0.2-0.6,0.6-0.6h1.9v3.7
		c0,1.9,1.5,3.4,3.4,3.4c1.9,0,3.4-1.5,3.4-3.4V9.7c0-0.4-0.3-0.7-0.7-0.7S17,9.3,17,9.7v1.9c0,1.1-0.9,2-2,2c-1.1,0-2-0.9-2-2V7.9
		h11.8v2.6c0,1.3,1.1,2.4,2.4,2.4c0,0,0,0,0,0c0,0,0,0,0,0h2.8v21.8C30.1,35.1,29.9,35.3,29.6,35.3z"/>
	<path class="st0" d="M27.3,18.2H17c-0.4,0-0.7,0.3-0.7,0.7s0.3,0.7,0.7,0.7h10.3c0.4,0,0.7-0.3,0.7-0.7S27.7,18.2,27.3,18.2z"/>
	<path class="st0" d="M14.3,17.1h-2.1c-0.4,0-0.7,0.3-0.7,0.7v2.1c0,0.4,0.3,0.7,0.7,0.7h2.1c0.4,0,0.7-0.3,0.7-0.7v-2.1
		C15,17.4,14.7,17.1,14.3,17.1z M13.6,19.2H13v-0.7h0.7V19.2z"/>
	<path class="st0" d="M27.3,24.1H17c-0.4,0-0.7,0.3-0.7,0.7s0.3,0.7,0.7,0.7h10.3c0.4,0,0.7-0.3,0.7-0.7S27.7,24.1,27.3,24.1z"/>
	<path class="st0" d="M14.3,23.1h-2.1c-0.4,0-0.7,0.3-0.7,0.7v2.1c0,0.4,0.3,0.7,0.7,0.7h2.1c0.4,0,0.7-0.3,0.7-0.7v-2.1
		C15,23.4,14.7,23.1,14.3,23.1z M13.6,25.1H13v-0.7h0.7V25.1z"/>
	<path class="st0" d="M27.3,30H17c-0.4,0-0.7,0.3-0.7,0.7s0.3,0.7,0.7,0.7h10.3c0.4,0,0.7-0.3,0.7-0.7S27.7,30,27.3,30z"/>
	<path class="st0" d="M14.3,29h-2.1c-0.4,0-0.7,0.3-0.7,0.7v2.1c0,0.4,0.3,0.7,0.7,0.7h2.1c0.4,0,0.7-0.3,0.7-0.7v-2.1
		C15,29.3,14.7,29,14.3,29z M13.6,31.1H13v-0.7h0.7V31.1z"/>
</g>
</svg>
