<?xml version="1.0" encoding="utf-8"?>
<!-- Generator: Adobe Illustrator 23.0.1, SVG Export Plug-In . SVG Version: 6.00 Build 0)  -->
<svg version="1.0" id="图层_1" xmlns="http://www.w3.org/2000/svg" xmlns:xlink="http://www.w3.org/1999/xlink" x="0px" y="0px"
	 viewBox="0 0 38 38" style="enable-background:new 0 0 38 38;" xml:space="preserve">
<style type="text/css">
	.st0{fill:#e2edf2;}
</style>
<g>
	<path class="st0" d="M36,13.5c-0.4,0-0.7,0.3-0.7,0.7v8H24.8V11.5c0-0.4-0.3-0.7-0.7-0.7s-0.7,0.3-0.7,0.7v10.7h-9.1c-0.4,0-0.7,0.3-0.7,0.7
		s0.3,0.7,0.7,0.7h4v7.6c0,0.4,0.3,0.7,0.7,0.7s0.7-0.3,0.7-0.7v-7.6h15.6v3.2c0,0.4,0.3,0.7,0.7,0.7s0.7-0.3,0.7-0.7V14.2
		C36.7,13.8,36.4,13.5,36,13.5z"/>
	<path class="st0" d="M34.5,1.3h-3.3c-0.4,0-0.7,0.3-0.7,0.7s0.3,0.7,0.7,0.7h3.3c0.4,0,0.8,0.4,0.8,0.8v5.9c0,0.4,0.3,0.7,0.7,0.7
		s0.7-0.3,0.7-0.7V3.5C36.7,2.3,35.7,1.3,34.5,1.3z"/>
	<path class="st0" d="M36,30.5c-0.4,0-0.7,0.3-0.7,0.7v3.3c0,0.4-0.4,0.8-0.8,0.8h-31c-0.4,0-0.8-0.4-0.8-0.8v-3.3c0-0.4-0.3-0.7-0.7-0.7
		s-0.7,0.3-0.7,0.7v3.3c0,1.2,1,2.2,2.2,2.2h31c1.2,0,2.2-1,2.2-2.2v-3.3C36.7,30.9,36.4,30.5,36,30.5z"/>
	<path class="st0" d="M1.4,27.1c0.1,0.2,0.2,0.3,0.4,0.4c0.1,0,0.2,0.1,0.3,0.1c0.1,0,0.2,0,0.3-0.1c0.1,0,0.2-0.1,0.2-0.2c0,0,0,0,0,0L27.1,2.5
		c0.1-0.1,0.1-0.1,0.2-0.2c0-0.1,0-0.1,0-0.2c0,0,0,0,0-0.1c0,0,0,0,0,0c0-0.1,0-0.2-0.1-0.3c0-0.1-0.1-0.2-0.2-0.2c0,0,0,0,0,0
		c0,0,0,0,0,0c-0.1-0.1-0.1-0.1-0.2-0.1c-0.1,0-0.2-0.1-0.3-0.1H3.5c-1.2,0-2.2,1-2.2,2.2v23.3c0,0,0,0,0,0
		C1.3,26.9,1.3,27,1.4,27.1z M3.5,2.7h21.4L2.7,25.1v-3.9h2.4c0.4,0,0.7-0.3,0.7-0.7s-0.3-0.7-0.7-0.7H2.7v-3.2h2.4
		c0.4,0,0.7-0.3,0.7-0.7s-0.3-0.7-0.7-0.7H2.7v-3.2h2.4c0.4,0,0.7-0.3,0.7-0.7s-0.3-0.7-0.7-0.7H2.7V7.3h2.4c0.4,0,0.7-0.3,0.7-0.7
		S5.5,5.9,5.1,5.9H2.7V3.5C2.7,3.1,3.1,2.7,3.5,2.7z"/>
	<path class="st0" d="M6.7,7.1l1.9,7.1c0.2,0.4,0.6,0.8,1.1,0.8c0.1,0,0.1,0,0.2,0c0.4,0,0.8-0.2,1.1-0.5l5.4-7c0.2-0.2,0.3-0.5,0.3-0.8
		c0-0.2,0-0.3-0.1-0.5c-0.2-0.4-0.6-0.8-1.2-0.8l-7.2,0C7.7,5.2,7.2,5.4,6.9,5.8c0,0,0,0,0,0C6.6,6.2,6.6,6.6,6.7,7.1
		C6.7,7,6.7,7,6.7,7.1z M15.1,6.7l-5.2,6.9L8.1,6.7L15.1,6.7z"/>
</g>
</svg>
