<?xml version="1.0" encoding="utf-8"?>
<!-- Generator: Adobe Illustrator 23.0.1, SVG Export Plug-In . SVG Version: 6.00 Build 0)  -->
<svg version="1.0" id="图层_1" xmlns="http://www.w3.org/2000/svg" xmlns:xlink="http://www.w3.org/1999/xlink" x="0px" y="0px"
	 viewBox="0 0 38 38" style="enable-background:new 0 0 38 38;" xml:space="preserve">
<style type="text/css">
	.st0{fill:#e2edf2;}
</style>
<g>
	<path class="st0" d="M10.2,32.1H5.1c-0.4,0-0.7,0.3-0.7,0.7s0.3,0.7,0.7,0.7h5.1c0.4,0,0.7-0.3,0.7-0.7S10.6,32.1,10.2,32.1z"/>
	<path class="st0" d="M21.6,32.1h-5.1c-0.4,0-0.7,0.3-0.7,0.7s0.3,0.7,0.7,0.7h5.1c0.4,0,0.7-0.3,0.7-0.7S21.9,32.1,21.6,32.1z"/>
	<path class="st0" d="M36.5,11.5l-5.6-9.8c-0.2-0.3-0.6-0.5-1-0.3c-0.3,0.2-0.5,0.6-0.3,1L30,2.8h-6l-0.1-0.9c-0.1-0.4-0.4-0.6-0.8-0.6
		c-0.4,0.1-0.6,0.4-0.6,0.8l0.1,0.7h-7.1l0.1-0.7c0.1-0.4-0.2-0.7-0.6-0.8c-0.4-0.1-0.7,0.2-0.8,0.6L14,2.8H8l0.2-0.4
		C8.5,2,8.3,1.6,8,1.4c-0.3-0.2-0.8-0.1-1,0.3l-5.6,9.8c-0.1,0.2-0.2,0.5-0.2,0.7v23c0,0.8,0.7,1.5,1.6,1.5h9.5
		c0.3,0,0.7-0.1,0.9-0.3c0.3,0.2,0.6,0.3,0.9,0.3h9.5c0.3,0,0.7-0.1,0.9-0.3c0.3,0.2,0.6,0.3,0.9,0.3h9.5c0.9,0,1.6-0.7,1.6-1.5v-23
		C36.7,11.9,36.6,11.7,36.5,11.5z M26.7,4.2l1.7,4.9c0.1,0.3,0.4,0.5,0.7,0.5c0.1,0,0.2,0,0.2,0c0.4-0.1,0.6-0.5,0.4-0.9l-1.6-4.5
		h2.6l3.7,6.5h-8.9c-0.1,0-0.3,0-0.4,0.1l-1-6.5H26.7z M18.3,4.2v4.7c0,0.4,0.3,0.7,0.7,0.7s0.7-0.3,0.7-0.7V4.2h3.1l1,6.5h-9.5
		l1-6.5H18.3z M9.8,4.2L8.2,8.6C8.1,9,8.3,9.4,8.7,9.5c0.1,0,0.2,0,0.2,0c0.3,0,0.6-0.2,0.7-0.5l1.7-4.9h2.5l-1,6.5
		c-0.1,0-0.3-0.1-0.4-0.1H3.6l3.7-6.5H9.8z M12.4,35.3H2.9c-0.1,0-0.2-0.1-0.2-0.1v-23l0,0c0,0,0.1-0.1,0.2-0.1h9.5
		c0.1,0,0.2,0.1,0.2,0.1v23C12.6,35.2,12.6,35.3,12.4,35.3z M23.8,35.3h-9.5c-0.1,0-0.2-0.1-0.2-0.1v-23l0-0.1c0,0,0.1-0.1,0.2-0.1
		h9.5c0.1,0,0.2,0.1,0.2,0.1l0,0.1v23C24,35.2,23.9,35.3,23.8,35.3z M35.1,35.3h-9.5c-0.1,0-0.2-0.1-0.2-0.1v-23
		c0,0,0.1-0.1,0.2-0.1h9.5c0.1,0,0.2,0.1,0.2,0.1l0,0v23C35.3,35.2,35.2,35.3,35.1,35.3z"/>
	<path class="st0" d="M32.9,32.1h-5.1c-0.4,0-0.7,0.3-0.7,0.7s0.3,0.7,0.7,0.7h5.1c0.4,0,0.7-0.3,0.7-0.7S33.3,32.1,32.9,32.1z"/>
</g>
</svg>
