<?xml version="1.0" encoding="utf-8"?>
<!-- Generator: Adobe Illustrator 23.0.1, SVG Export Plug-In . SVG Version: 6.00 Build 0)  -->
<svg version="1.0" id="图层_1" xmlns="http://www.w3.org/2000/svg" xmlns:xlink="http://www.w3.org/1999/xlink" x="0px" y="0px"
	 viewBox="0 0 38 38" style="enable-background:new 0 0 38 38;" xml:space="preserve">
<style type="text/css">
	.st0{fill:#e2edf2;}
</style>
<g>
	<path class="st0" d="M4,8.1v1.5C4,11,5.1,12,6.5,12H9v1.1c0,0.8,0.7,1.5,1.5,1.5h17c0.8,0,1.5-0.7,1.5-1.5V12h2.6C32.9,12,34,11,34,9.6V8.1
		c1.6-0.3,2.7-1.7,2.7-3.3c0-1.9-1.5-3.4-3.4-3.4s-3.4,1.5-3.4,3.4c0,1.6,1.2,3,2.7,3.3v1.5c0,0.6-0.5,1-1,1h-2.6V8.9
		c0-0.8-0.7-1.5-1.5-1.5h-17C9.7,7.5,9,8.1,9,8.9v1.7H6.5c-0.6,0-1-0.5-1-1V8.1C7,7.7,8.1,6.4,8.1,4.7c0-1.9-1.5-3.4-3.4-3.4
		S1.3,2.8,1.3,4.7C1.3,6.4,2.5,7.7,4,8.1z M31.3,4.7c0-1.1,0.9-2,2-2c1.1,0,2,0.9,2,2s-0.9,2-2,2C32.2,6.7,31.3,5.8,31.3,4.7z
		 M27.5,8.9v4.2c0,0,0,0.1-0.1,0.1l-17-0.1l0.1-4.3L27.5,8.9z M4.7,2.7c1.1,0,2,0.9,2,2s-0.9,2-2,2s-2-0.9-2-2S3.6,2.7,4.7,2.7z"/>
	<path class="st0" d="M12.1,11.8h3.7c0.4,0,0.7-0.3,0.7-0.7s-0.3-0.7-0.7-0.7h-3.7c-0.4,0-0.7,0.3-0.7,0.7S11.7,11.8,12.1,11.8z"/>
	<path class="st0" d="M34,29.9v-1.5c0-1.3-1.1-2.4-2.4-2.4h-2.6v-1.1c0-0.8-0.7-1.5-1.5-1.5h-17C9.7,23.4,9,24,9,24.8V26H6.5C5.1,26,4,27,4,28.4
		v1.5c-1.6,0.3-2.7,1.7-2.7,3.3c0,1.9,1.5,3.4,3.4,3.4s3.4-1.5,3.4-3.4c0-1.6-1.2-3-2.7-3.3v-1.5c0-0.6,0.5-1,1-1H9v1.7
		c0,0.8,0.7,1.5,1.5,1.5h17c0.8,0,1.5-0.7,1.5-1.5v-1.7h2.6c0.6,0,1,0.5,1,1v1.5c-1.6,0.3-2.7,1.7-2.7,3.3c0,1.9,1.5,3.4,3.4,3.4
		s3.4-1.5,3.4-3.4C36.7,31.6,35.5,30.3,34,29.9z M6.7,33.3c0,1.1-0.9,2-2,2s-2-0.9-2-2s0.9-2,2-2S6.7,32.2,6.7,33.3z M10.4,29.1
		l0.1-4.3h17l0.1,0.1l-0.1,4.3L10.4,29.1z M33.3,35.3c-1.1,0-2-0.9-2-2s0.9-2,2-2c1.1,0,2,0.9,2,2S34.4,35.3,33.3,35.3z"/>
	<path class="st0" d="M15.8,26.2h-3.7c-0.4,0-0.7,0.3-0.7,0.7s0.3,0.7,0.7,0.7h3.7c0.4,0,0.7-0.3,0.7-0.7S16.2,26.2,15.8,26.2z"/>
	<path class="st0" d="M12.1,19.7h3.7c0.4,0,0.7-0.3,0.7-0.7s-0.3-0.7-0.7-0.7h-3.7c-0.4,0-0.7,0.3-0.7,0.7S11.7,19.7,12.1,19.7z"/>
	<path class="st0" d="M36,15.4h-5.7c-0.4,0-0.7,0.3-0.7,0.7v2.2h-0.6v-1.4c0-0.8-0.7-1.5-1.5-1.5h-17c-0.8,0-1.5,0.7-1.5,1.5v1.4H8.4v-2.2
		c0-0.4-0.3-0.7-0.7-0.7H2c-0.4,0-0.7,0.3-0.7,0.7v5.7c0,0.4,0.3,0.7,0.7,0.7h5.7c0.4,0,0.7-0.3,0.7-0.7v-2.2H9v1.4
		c0,0.8,0.7,1.5,1.5,1.5h17c0.8,0,1.5-0.7,1.5-1.5v-1.4h0.6v2.2c0,0.4,0.3,0.7,0.7,0.7H36c0.4,0,0.7-0.3,0.7-0.7v-5.7
		C36.7,15.7,36.4,15.4,36,15.4z M7,21.2H2.7v-4.3H7V21.2z M27.5,21.1C27.5,21.1,27.5,21.2,27.5,21.1H10.4l0.1-4.3l17,0.1V21.1z
		 M35.3,21.2H31v-4.3h4.3V21.2z"/>
</g>
</svg>
