<?xml version="1.0" encoding="utf-8"?>
<!-- Generator: Adobe Illustrator 23.0.1, SVG Export Plug-In . SVG Version: 6.00 Build 0)  -->
<svg version="1.0" id="图层_1" xmlns="http://www.w3.org/2000/svg" xmlns:xlink="http://www.w3.org/1999/xlink" x="0px" y="0px"
	 viewBox="0 0 38 38" style="enable-background:new 0 0 38 38;" xml:space="preserve">
<style type="text/css">
	.st0{fill:#e2edf2;}
</style>
<g>
	<path class="st0" d="M33.8,8.2C33.8,8.2,33.8,8.2,33.8,8.2c0-0.1,0-0.2,0-0.2c0,0,0-0.1-0.1-0.1c0,0,0-0.1-0.1-0.1c0,0-0.1-0.1-0.1-0.1
		c0,0-0.1-0.1-0.1-0.1c0,0-0.1,0-0.1,0c0,0-0.1,0-0.1,0c-3.5-0.4-10-1.7-13.6-6c0,0,0,0,0,0c0,0,0,0,0,0c0,0-0.1,0-0.1,0
		c0,0-0.1-0.1-0.1-0.1c0,0-0.1,0-0.1,0c0,0-0.1,0-0.1,0c0,0-0.1,0-0.1,0c0,0-0.1,0-0.1,0c0,0-0.1,0-0.1,0.1c0,0-0.1,0-0.1,0
		c0,0,0,0,0,0c0,0,0,0,0,0c-3.6,4.2-10.1,5.6-13.6,6c0,0-0.1,0-0.1,0c0,0-0.1,0-0.1,0c0,0-0.1,0-0.1,0.1c0,0-0.1,0.1-0.1,0.1
		c0,0-0.1,0.1-0.1,0.1c0,0,0,0.1-0.1,0.1c0,0,0,0.1,0,0.1c0,0,0,0.1,0,0.1v14.3c0,0,0,0,0,0c0,0,0,0,0,0c0.6,7,7.7,11,11.9,13.4
		c0,0,0.1,0,0.1,0l0,0c1,0.4,1.9,0.7,2.9,0.7c1,0,2-0.3,2.8-0.8c0,0,0,0,0,0c4.5-2.5,11.2-6.3,11.8-13.3c0,0,0,0,0,0c0,0,0,0,0,0
		V8.2z M21.3,34.7C21.3,34.7,21.3,34.7,21.3,34.7C21.3,34.7,21.3,34.7,21.3,34.7c-1.7,1-3.5,0.5-4.4,0.1c0,0,0,0,0,0
		c-5.4-3-10.7-6.5-11.2-12.3V8.8C9.3,8.3,15.2,6.9,19,3c3.8,3.9,9.7,5.3,13.4,5.8v13.6C31.9,28.3,26.6,31.7,21.3,34.7z"/>
	<path class="st0" d="M25.5,17.3C25.5,17.3,25.5,17.3,25.5,17.3c-0.1,0-0.1-0.1-0.2-0.1c0,0-0.1,0-0.1,0c0,0-0.1,0-0.1,0c-0.1,0-0.1,0-0.2,0
		c0,0,0,0,0,0c0,0-0.1,0-0.1,0c0,0-0.1,0-0.1,0.1c0,0-0.1,0.1-0.1,0.1c0,0,0,0-0.1,0.1c0,0,0,0,0,0c0,0,0,0.1-0.1,0.1
		c0,0,0,0.1,0,0.1c0,0,0,0.1,0,0.1c0,0,0,0.1,0,0.1c0,0,0,0,0,0c0.2,0.7,0.1,1.4-0.3,1.9c-0.3,0.4-0.8,0.7-1.5,0.7
		c-1.1,0-1.3-0.4-1.4-0.5c-0.3-0.4-0.6-1.4,0.4-4.1c0,0,0,0,0,0c0,0,0,0,0,0c0.8-2.6-2-6-4.3-7.1c0,0,0,0-0.1,0c0,0-0.1,0-0.1,0
		c0,0-0.1,0-0.1,0c0,0,0,0-0.1,0c0,0,0,0-0.1,0c0,0-0.1,0-0.1,0c0,0-0.1,0-0.1,0.1c0,0-0.1,0.1-0.1,0.1c0,0-0.1,0.1-0.1,0.1
		c0,0,0,0,0,0.1c0,0,0,0,0,0.1c0,0,0,0.1,0,0.1c0,0,0,0.1,0,0.1c0,0,0,0,0,0.1c0.2,1.4,0.2,3-1.3,4.7c-0.3,0.3-0.5,0.5-0.8,0.8
		c-1.5,1.6-3.1,3.3-3.3,5.9c-0.3,5.9,4.7,7.1,5.7,7.3l0,0c0,0,0,0,0,0c0.7,0.1,1.4,0.2,2,0.2c0.6,0,1.3-0.1,1.9-0.2c0,0,0,0,0,0
		c0,0,0,0,0,0c0,0,0,0,0,0c0,0,0,0,0,0c3.3-0.7,5.6-2.7,6.2-5.6C27.3,20.5,26.7,18.2,25.5,17.3z M16.2,27.6
		C16.2,27.6,16.2,27.6,16.2,27.6L16.2,27.6L16.2,27.6z M25.5,22.4c-0.3,1.4-1.4,3.8-5.1,4.6c0,0,0,0,0,0c0,0,0,0,0,0
		c-1.1,0.2-2.1,0.2-3.4,0c0,0,0,0,0,0c0,0,0,0,0,0c-1.1-0.2-4.7-1.2-4.5-5.9c0.1-2.1,1.4-3.5,2.9-5c0.3-0.3,0.5-0.6,0.8-0.8
		c1.4-1.5,1.8-3.1,1.8-4.4c1.6,1.2,2.9,3.4,2.5,4.7c-0.9,2.5-1,4.2-0.2,5.3c0.5,0.7,1.4,1.1,2.6,1.1c1.1,0,2-0.4,2.6-1.2
		c0.1-0.2,0.2-0.3,0.3-0.5C25.6,20.9,25.7,21.6,25.5,22.4z"/>
</g>
</svg>
