<?xml version="1.0" encoding="utf-8"?>
<!-- Generator: Adobe Illustrator 23.0.1, SVG Export Plug-In . SVG Version: 6.00 Build 0)  -->
<svg version="1.0" id="图层_1" xmlns="http://www.w3.org/2000/svg" xmlns:xlink="http://www.w3.org/1999/xlink" x="0px" y="0px"
	 viewBox="0 0 38 38" style="enable-background:new 0 0 38 38;" xml:space="preserve">
<style type="text/css">
	.st0{fill:#e2edf2;}
</style>
<g>
	<path class="st0" d="M34,20.3l-0.5-1l-2-4c0.1-0.7,0.3-3.3,0-4.9c-1.6-5.6-6.7-9-13.3-9c-3.9,0-7.7,1.6-10.5,4.4c-2.6,2.7-4,6.3-3.9,10
		c0.1,2.9,1.2,5.8,3.2,8.2c0,0,0,0,0,0c1,1.5,2.2,3.4,1.9,5.3c-0.2,1.4-1.7,5.2-2.2,6.5c-0.1,0.2-0.1,0.5,0.1,0.7
		c0.1,0.2,0.3,0.3,0.6,0.3h13.5c0,0,0,0,0,0c0,0,0,0,0,0c0.2,0,0.4-0.1,0.5-0.3c1.3-1.9,3.6-3.2,6.2-3.4c0.3,0,0.6-0.2,0.6-0.6
		c0,0,1-4.6,1.6-6c0.3-0.7,1.5-2.4,2.1-3.2l1.5-0.6c0.4-0.1,0.6-0.4,0.7-0.8C34.5,21.2,34,20.3,34,20.3z M32.9,21.4L31.2,22
		c-0.1,0-0.2,0.1-0.3,0.2c-0.2,0.3-1.9,2.6-2.4,3.6c-0.5,1.2-1.3,4.5-1.6,5.8c-2.6,0.3-5,1.7-6.5,3.6H8.3c0.6-1.5,1.7-4.5,1.9-5.9
		c0.3-2.5-1.1-4.8-2.2-6.4C8,23,8,23,7.9,22.9c-1.7-2.2-2.7-4.8-2.8-7.3C5,12.3,6.3,9.2,8.6,6.7c2.5-2.5,5.9-4,9.5-4
		c4.7,0,10.3,2.1,12,8c0.3,1.6,0,4.6,0,4.6c0,0.1,0,0.3,0.1,0.4l2.1,4.2l0,0c0,0,0,0,0,0l0,0c0,0,0,0.1,0.1,0.1
		c0.1,0.2,0.3,0.5,0.5,0.9l0.6-0.3l-0.6,0.3C32.8,21.1,32.9,21.3,32.9,21.4z"/>
	<path class="st0" d="M20.7,9.3l0.7-1h1.9c0.3,0.8,1.1,1.4,2,1.4c1.2,0,2.1-1,2.1-2.1c0-1.2-1-2.1-2.1-2.1c-0.9,0-1.7,0.6-2,1.4H21
		c0,0,0,0-0.1,0c0,0-0.1,0-0.1,0c0,0-0.1,0-0.1,0c0,0-0.1,0-0.1,0.1c0,0-0.1,0.1-0.1,0.1c0,0,0,0,0,0l-1.3,1.9
		c-0.3,0-0.6-0.1-0.9-0.1c-3.6,0-7.1,1.8-9.2,4.7c-0.2,0.2-0.2,0.6,0,0.8c1.5,2.1,3.6,3.5,6,4.2l-0.7,1.1h-1.9
		c-0.3-0.8-1.1-1.4-2-1.4c-1.2,0-2.1,1-2.1,2.1c0,1.2,1,2.1,2.1,2.1c0.9,0,1.7-0.6,2-1.4h2.3c0.1,0,0.2,0,0.3-0.1c0,0,0,0,0.1,0
		c0.1,0,0.1-0.1,0.2-0.2c0,0,0,0,0,0l1.3-1.8c0.6,0.1,1.2,0.2,1.8,0.2c3.6,0,7.1-1.8,9.2-4.7c0.2-0.2,0.2-0.6,0-0.8
		C25.8,11.5,23.4,9.9,20.7,9.3z M25.3,6.9c0.4,0,0.7,0.3,0.7,0.7c0,0.4-0.3,0.7-0.7,0.7s-0.7-0.3-0.7-0.7
		C24.6,7.3,24.9,6.9,25.3,6.9z M10.4,21.3c-0.4,0-0.7-0.3-0.7-0.7s0.3-0.7,0.7-0.7s0.7,0.3,0.7,0.7S10.8,21.3,10.4,21.3z M18.3,17.9
		c-3,0-5.9-1.4-7.8-3.7c1.9-2.3,4.8-3.7,7.8-3.7c3,0,5.9,1.4,7.8,3.7C24.2,16.5,21.3,17.9,18.3,17.9z"/>
	<path class="st0" d="M18.3,11c-1.8,0-3.2,1.4-3.2,3.2s1.4,3.2,3.2,3.2s3.2-1.4,3.2-3.2S20,11,18.3,11z M18.3,16c-1,0-1.8-0.8-1.8-1.8
		s0.8-1.8,1.8-1.8s1.8,0.8,1.8,1.8S19.3,16,18.3,16z"/>
	<path class="st0" d="M16.9,8.4h1.4c0.4,0,0.7-0.3,0.7-0.7S18.6,7,18.3,7h-1.4c-0.4,0-0.7,0.3-0.7,0.7S16.5,8.4,16.9,8.4z"/>
	<path class="st0" d="M18.6,20.1h-1.7c-0.4,0-0.7,0.3-0.7,0.7s0.3,0.7,0.7,0.7h1.7c0.4,0,0.7-0.3,0.7-0.7S18.9,20.1,18.6,20.1z"/>
	<path class="st0" d="M21.4,20.1h-0.8c-0.4,0-0.7,0.3-0.7,0.7s0.3,0.7,0.7,0.7h0.8c0.4,0,0.7-0.3,0.7-0.7S21.8,20.1,21.4,20.1z"/>
</g>
</svg>
