<?xml version="1.0" encoding="utf-8"?>
<!-- Generator: Adobe Illustrator 23.0.1, SVG Export Plug-In . SVG Version: 6.00 Build 0)  -->
<svg version="1.0" id="图层_1" xmlns="http://www.w3.org/2000/svg" xmlns:xlink="http://www.w3.org/1999/xlink" x="0px" y="0px"
	 viewBox="0 0 38 38" style="enable-background:new 0 0 38 38;" xml:space="preserve">
<style type="text/css">
	.st0{fill:#e2edf2;}
</style>
<g>
	<path class="st0" d="M19.9,7.6h-2.1c-0.8,0-1.5,0.7-1.5,1.5v2.1c0,0.8,0.7,1.5,1.5,1.5h2.1c0.8,0,1.5-0.7,1.5-1.5V9
		C21.4,8.2,20.7,7.6,19.9,7.6z M20,11.1C20,11.1,20,11.2,20,11.1h-2.2L17.9,9L20,9V11.1z"/>
	<path class="st0" d="M19.9,13.8h-2.1c-0.8,0-1.5,0.7-1.5,1.5v2.1c0,0.8,0.7,1.5,1.5,1.5h2.1c0.8,0,1.5-0.7,1.5-1.5v-2.1
		C21.4,14.4,20.7,13.8,19.9,13.8z M20,17.3C20,17.3,20,17.3,20,17.3h-2.2l0.1-2.1l2.1,0.1V17.3z"/>
	<path class="st0" d="M19.9,20h-2.1c-0.8,0-1.5,0.7-1.5,1.5v2.1c0,0.8,0.7,1.5,1.5,1.5h2.1c0.8,0,1.5-0.7,1.5-1.5v-2.1
		C21.4,20.6,20.7,20,19.9,20z M20,23.5C20,23.5,20,23.5,20,23.5h-2.2l0.1-2.1l2.1,0.1V23.5z"/>
	<path class="st0" d="M19.9,26h-2.1c-0.8,0-1.5,0.7-1.5,1.5v6.3c0,0.8,0.7,1.5,1.5,1.5h2.1c0.8,0,1.5-0.7,1.5-1.5v-6.3
		C21.4,26.7,20.7,26,19.9,26z M20,33.8C20,33.8,20,33.8,20,33.8h-2.2l0.1-6.4l2.1,0.1V33.8z"/>
	<path class="st0" d="M8.5,21.4H6.5c-0.8,0-1.5,0.7-1.5,1.5V25c0,0.8,0.7,1.5,1.5,1.5h2.1c0.8,0,1.5-0.7,1.5-1.5v-2.1
		C10,22.1,9.4,21.4,8.5,21.4z M8.6,25C8.6,25,8.6,25,8.6,25H6.4l0.1-2.1l2.1,0.1V25z"/>
	<path class="st0" d="M8.5,27.6H6.5c-0.8,0-1.5,0.7-1.5,1.5v2.1c0,0.8,0.7,1.5,1.5,1.5h2.1c0.8,0,1.5-0.7,1.5-1.5v-2.1
		C10,28.3,9.4,27.6,8.5,27.6z M8.6,31.2C8.6,31.2,8.6,31.2,8.6,31.2H6.4L6.5,29l2.1,0.1V31.2z"/>
	<path class="st0" d="M31.5,21.4h-2.1c-0.8,0-1.5,0.7-1.5,1.5V25c0,0.8,0.7,1.5,1.5,1.5h2.1c0.8,0,1.5-0.7,1.5-1.5v-2.1
		C33,22.1,32.3,21.4,31.5,21.4z M31.5,25h-2.1L29.4,25l0.1-2.1l2.1,0.1L31.5,25z"/>
	<path class="st0" d="M31.5,27.6h-2.1c-0.8,0-1.5,0.7-1.5,1.5v2.1c0,0.8,0.7,1.5,1.5,1.5h2.1c0.8,0,1.5-0.7,1.5-1.5v-2.1
		C33,28.3,32.3,27.6,31.5,27.6z M31.5,31.2h-2.1l-0.1-0.1l0.1-2.1l2.1,0.1L31.5,31.2z"/>
	<path class="st0" d="M34.3,18.4C34.3,18.4,34.3,18.4,34.3,18.4C34.3,18.4,34.3,18.3,34.3,18.4l-8.6-4.5V9.1c0-1.4,0-1.9-0.9-2.9
		c0,0,0,0-0.1,0c0,0,0,0,0,0L21,3.4c-1.2-0.9-2.9-0.9-4,0c0,0,0,0,0,0l0,0c0,0,0,0,0,0c0,0,0,0,0,0l-3.6,2.7c0,0,0,0,0,0
		c0,0,0,0-0.1,0c-0.9,1-0.9,1.5-0.9,2.9v4.7l-8.6,4.5c0,0,0,0,0,0c0,0,0,0,0,0c-1.6,0.9-2.4,2.1-2.4,3.4v12.8c0,0.4,0.3,0.7,0.7,0.7
		s0.7-0.3,0.7-0.7V21.8c0-0.8,0.6-1.5,1.7-2.2l7.9-4.2v19.1c0,0.4,0.3,0.7,0.7,0.7s0.7-0.3,0.7-0.7V9.1c0-1.3,0-1.3,0.5-1.9l3.6-2.7
		c0,0,0,0,0,0c0,0,0,0,0,0c0.7-0.5,1.7-0.5,2.3,0l3.6,2.7c0.5,0.6,0.5,0.6,0.5,1.9v25.4c0,0.4,0.3,0.7,0.7,0.7s0.7-0.3,0.7-0.7V15.4
		l7.9,4.2c1.1,0.7,1.7,1.4,1.7,2.2v12.8c0,0.4,0.3,0.7,0.7,0.7s0.7-0.3,0.7-0.7V21.8C36.7,20.4,35.9,19.3,34.3,18.4z"/>
</g>
</svg>
