<?xml version="1.0" encoding="utf-8"?>
<!-- Generator: Adobe Illustrator 23.0.1, SVG Export Plug-In . SVG Version: 6.00 Build 0)  -->
<svg version="1.0" id="图层_1" xmlns="http://www.w3.org/2000/svg" xmlns:xlink="http://www.w3.org/1999/xlink" x="0px" y="0px"
	 viewBox="0 0 38 38" style="enable-background:new 0 0 38 38;" xml:space="preserve">
<style type="text/css">
	.st0{fill:#e2edf2;}
</style>
<path class="st0" d="M33.7,15.8C33.7,15.8,33.7,15.8,33.7,15.8c0-0.3-0.1-0.9-1-1.4l-5.3-2.8c-0.2-0.1-0.5-0.2-0.8-0.3V5.9
	c0,0,0,0,0,0c0,0,0,0,0,0c0-0.3-0.1-0.9-1-1.4l-5.3-2.8c-0.7-0.4-2.1-0.5-3,0l-5.2,2.7c-0.6,0.3-1,0.9-1,1.5c0,0,0,0,0,0
	c0,0,0,0,0,0v5.8l-6,3.2c-0.6,0.3-1,0.9-1,1.5c0,0,0,0,0,0c0,0,0,0,0,0v5.5l0,0.3c0,0.9-0.1,2.3,1.2,3.1c0,0,0,0,0,0l0,0
	c0,0,0,0,0,0c0,0,0,0,0,0l18.6,10.8c0,0,0,0,0,0c0,0,0,0,0,0c0.6,0.3,1.2,0.5,1.8,0.5c0,0,0,0,0,0c0,0,0,0,0,0c0,0,0.1,0,0.1,0
	c0.6,0,1.2-0.2,1.7-0.6c0,0,0,0,0,0l0,0c0,0,0,0,0,0c0,0,0,0,0,0l4.4-2.7c0,0,0,0,0,0c0,0,0,0,0,0c1-0.6,1.4-1.4,1.4-2.6L33.7,15.8
	C33.7,15.8,33.7,15.8,33.7,15.8z M27.1,34.9C27.1,34.9,27.1,34.9,27.1,34.9C27.1,34.9,27.1,34.9,27.1,34.9c-0.1,0.1-0.3,0.1-0.4,0.2
	V20.4c0.3-0.1,0.6-0.2,0.9-0.3l4.7-2.6v13.3c0,0.8-0.2,1.1-0.8,1.4c0,0,0,0,0,0L27.1,34.9z M24.8,35l-5.1-3V17.5l4.7,2.6
	c0.3,0.1,0.6,0.2,0.9,0.2v14.8C25.2,35.1,25,35.1,24.8,35z M6.2,24.1C6.2,24.1,6.2,24.1,6.2,24.1C6.2,24.1,6.2,24.1,6.2,24.1
	c-0.5-0.3-0.5-0.9-0.5-1.8l0-0.4c0,0,0,0,0,0c0,0,0,0,0,0v-3.7l4.7,2.6c0.3,0.1,0.6,0.2,0.9,0.3v6L6.2,24.1z M12.7,7.7l4.7,2.6
	c0,0,0,0,0,0c0.3,0.1,0.6,0.2,0.9,0.2v20.7l-5.6-3.3V7.7z M25.3,11.3c-0.3,0.1-0.6,0.1-0.9,0.3l-4.8,2.5v-3.6
	c0.3-0.1,0.6-0.2,0.9-0.3l4.7-2.6V11.3z M32.1,15.6c0.2,0.1,0.2,0.2,0.3,0.2c0,0-0.1,0.1-0.2,0.2L27,18.8c-0.4,0.3-1.4,0.3-1.9,0.1
	l-5.3-3v-0.3l5.4-2.9c0.5-0.3,1.4-0.2,1.7,0L32.1,15.6z M12.9,5.6l5.2-2.7c0.5-0.3,1.4-0.2,1.7,0l5.3,2.8c0.2,0.1,0.2,0.2,0.3,0.2
	c0,0-0.1,0.1-0.2,0.2l-5.2,2.9C19.5,9.2,18.6,9.3,18,9l-5.2-2.9c-0.1,0-0.1-0.1-0.1-0.1v0C12.7,5.8,12.8,5.7,12.9,5.6z M5.9,16.2
	l5.4-2.9v6.4c-0.1,0-0.2,0-0.3-0.1l-5.3-2.9c-0.1,0-0.1-0.1-0.1-0.1C5.7,16.4,5.8,16.2,5.9,16.2z"/>
</svg>
