<?xml version="1.0" encoding="utf-8"?>
<!-- Generator: Adobe Illustrator 23.0.1, SVG Export Plug-In . SVG Version: 6.00 Build 0)  -->
<svg version="1.0" id="图层_1" xmlns="http://www.w3.org/2000/svg" xmlns:xlink="http://www.w3.org/1999/xlink" x="0px" y="0px"
	 viewBox="0 0 38 38" style="enable-background:new 0 0 38 38;" xml:space="preserve">
<style type="text/css">
	.st0{fill:#e2edf2;}
</style>
<g>
	<path class="st0" d="M30.2,3.2h-3.1V2.8c0-0.8-0.7-1.5-1.5-1.5H12.1c-0.8,0-1.5,0.7-1.5,1.5v0.5H7.8c-1.5,0-2.7,1.2-2.7,2.7v28.1
		c0,1.5,1.2,2.6,2.7,2.6h22.5c1.5,0,2.7-1.2,2.7-2.7V5.9C32.9,4.4,31.7,3.2,30.2,3.2z M12.1,2.7l13.6,0.1v2.4c0,0,0,0.1-0.1,0.1
		L12,5.1L12.1,2.7z M31.5,34c0,0.7-0.6,1.3-1.3,1.3H7.7c-0.7,0-1.3-0.6-1.3-1.2V5.9c0-0.7,0.6-1.3,1.3-1.3h2.9v0.5
		c0,0.8,0.7,1.5,1.5,1.5h13.6c0.8,0,1.5-0.7,1.5-1.5V4.6h3.1c0.7,0,1.3,0.6,1.3,1.3V34z"/>
	<path class="st0" d="M9.3,11.8h19.1c0.4,0,0.7-0.3,0.7-0.7s-0.3-0.7-0.7-0.7H9.3c-0.4,0-0.7,0.3-0.7,0.7S8.9,11.8,9.3,11.8z"/>
	<path class="st0" d="M9.3,18.6h4.6c0.4,0,0.7-0.3,0.7-0.7s-0.3-0.7-0.7-0.7H9.3c-0.4,0-0.7,0.3-0.7,0.7S8.9,18.6,9.3,18.6z"/>
	<path class="st0" d="M9.3,25.4h7c0.4,0,0.7-0.3,0.7-0.7S16.6,24,16.2,24h-7c-0.4,0-0.7,0.3-0.7,0.7S8.9,25.4,9.3,25.4z"/>
	<path class="st0" d="M28.3,30.8H9.3c-0.4,0-0.7,0.3-0.7,0.7s0.3,0.7,0.7,0.7h19.1c0.4,0,0.7-0.3,0.7-0.7S28.7,30.8,28.3,30.8z"/>
	<path class="st0" d="M26.9,22.8c1.7-2.2,1.6-5.5-0.4-7.5c-1.1-1.1-2.5-1.7-4-1.7c-1.5,0-3,0.6-4,1.7c-1.1,1.1-1.7,2.5-1.7,4c0,1.5,0.6,3,1.7,4
		c1.1,1.1,2.6,1.7,4,1.7c1.2,0,2.5-0.4,3.5-1.2l2.4,2.4c0.1,0.1,0.3,0.2,0.5,0.2s0.4-0.1,0.5-0.2c0.3-0.3,0.3-0.7,0-1L26.9,22.8z
		 M25.5,22.4c-1.7,1.7-4.4,1.7-6.1,0c-0.8-0.8-1.3-1.9-1.3-3.1c0-1.2,0.4-2.2,1.3-3.1c0.8-0.8,1.9-1.3,3.1-1.3
		c1.2,0,2.2,0.4,3.1,1.3C27.2,17.9,27.2,20.7,25.5,22.4z"/>
</g>
</svg>
