<?xml version="1.0" encoding="utf-8"?>
<!-- Generator: Adobe Illustrator 23.0.1, SVG Export Plug-In . SVG Version: 6.00 Build 0)  -->
<svg version="1.0" id="图层_1" xmlns="http://www.w3.org/2000/svg" xmlns:xlink="http://www.w3.org/1999/xlink" x="0px" y="0px"
	 viewBox="0 0 38 38" style="enable-background:new 0 0 38 38;" xml:space="preserve">
<style type="text/css">
	.st0{fill:#e2edf2;}
</style>
<g>
	<path class="st0" d="M25.6,34.8c-0.8,0.1-1.7,0.3-2.5,0.3c-0.4,0-0.7,0.4-0.6,0.8c0,0.4,0.3,0.6,0.7,0.6c0,0,0,0,0.1,0c0.9-0.1,1.8-0.2,2.6-0.4
		c0.4-0.1,0.6-0.4,0.6-0.8C26.3,34.9,26,34.7,25.6,34.8z"/>
	<path class="st0" d="M20.5,35.3c-0.2,0-0.4,0-0.6,0v-3.5c0-0.4-0.3-0.7-0.7-0.7c-8.6,0-14.6-2.7-14.6-5.2s6-5.2,14.6-5.2c2.4,0,4.8,0.2,6.9,0.6
		c0.4,0.1,0.7-0.2,0.8-0.5c0.1-0.4-0.2-0.7-0.5-0.8c-2.2-0.4-4.7-0.7-7.2-0.7c-9,0-16,2.9-16,6.6v4.2c0,0.2,0,0.5,0.1,0.7
		c0,0,0,0,0,0c0.2,0.9,0.8,1.7,1.8,2.4c0.1,0.1,0.1,0.1,0.2,0.1c0.6,0.4,1.3,0.8,2.1,1.1c0,0,0.1,0.1,0.1,0.1
		c0.8,0.3,1.6,0.6,2.5,0.9c0,0,0.1,0,0.1,0c0.8,0.2,1.6,0.4,2.5,0.6c0,0,0,0,0,0c0.1,0,0.1,0,0.2,0c0.1,0,0.2,0,0.3,0
		c0.3,0.1,0.7,0.1,1.1,0.2c0.2,0,0.4,0,0.6,0.1c0.2,0,0.3,0,0.5,0.1c0,0,0,0,0.1,0c0,0,0,0,0,0c0.8,0.1,1.7,0.1,2.5,0.2c0,0,0,0,0,0
		c0.3,0,0.7,0,1,0c0.1,0,0.2,0,0.3,0c0,0,0,0,0,0c0,0,0.1,0,0.1,0c0.4,0,0.8,0,1.3,0c0.4,0,0.7-0.3,0.7-0.7
		C21.2,35.6,20.9,35.2,20.5,35.3z M18.5,32.4v2.8c-1.2,0-2.4-0.1-3.5-0.2c-0.2,0-0.4,0-0.6-0.1c-0.2,0-0.5-0.1-0.7-0.1
		c-0.2,0-0.4-0.1-0.5-0.1c-1.2-0.2-2.3-0.5-3.3-0.8c-0.1,0-0.1,0-0.2-0.1c-0.3-0.1-0.6-0.2-0.9-0.3c0,0,0,0-0.1,0
		C7,33,5.9,32.3,5.2,31.5c0,0,0,0,0,0c-0.1-0.1-0.2-0.3-0.3-0.4c0,0,0,0,0,0c-0.1-0.1-0.1-0.3-0.2-0.4c0,0,0,0,0-0.1
		c0-0.2-0.1-0.3-0.1-0.4v-1.5C7,30.8,12.2,32.3,18.5,32.4z"/>
	<path class="st0" d="M30.4,33.4c-0.7,0.3-1.5,0.6-2.4,0.8c-0.4,0.1-0.6,0.5-0.5,0.9c0.1,0.3,0.4,0.5,0.7,0.5c0.1,0,0.1,0,0.2,0
		c0.9-0.3,1.8-0.6,2.5-0.9c0.4-0.2,0.5-0.6,0.4-0.9S30.8,33.2,30.4,33.4z"/>
	<path class="st0" d="M28.9,21C28.9,21,28.9,21,28.9,21c-0.1,0-0.2,0-0.3,0c-0.1,0-0.2,0-0.3,0.1c0,0,0,0,0,0L19,25.5c0,0,0,0,0,0l0,0
		c0,0,0,0,0,0c0,0-0.1,0-0.1,0.1c0,0-0.1,0-0.1,0.1c0,0,0,0,0,0c0,0,0,0.1-0.1,0.1c0,0,0,0.1-0.1,0.1c0,0,0,0,0,0.1c0,0,0,0,0,0
		c0,0,0,0.1,0,0.1c0,0,0,0.1,0,0.1v3.5c0,0,0,0,0,0.1c0,0,0,0.1,0,0.1c0,0,0,0.1,0,0.1c0,0,0,0.1,0.1,0.1c0,0,0.1,0.1,0.1,0.1
		c0,0,0.1,0,0.1,0.1c0,0,0.1,0,0.1,0.1c0,0,0,0,0,0l12.1,3c0.1,0,0.1,0,0.2,0c0,0,0,0,0,0c0,0,0,0,0,0c0,0,0,0,0,0
		c0.1,0,0.1,0,0.2,0c0,0,0,0,0,0c0,0,0,0,0.1,0c0,0,0,0,0.1,0c1.5-0.9,3.1-2.2,3.1-3.9v-3.7C34.8,23.1,31.9,22.1,28.9,21z
		 M33.4,25.7c0,0.7-0.7,1.6-2.3,2.6l-9.8-2.3l7.3-3.5C32,23.6,33.4,24.4,33.4,25.7z M19.9,27.1l10.7,2.5v2.2l-10.7-2.6V27.1z
		 M32,31.3v-1.9c0.5-0.3,1-0.7,1.4-1.1v1.1C33.4,30,32.7,30.7,32,31.3z"/>
	<path class="st0" d="M24.5,7.4C24.5,7.4,24.5,7.5,24.5,7.4c0,0.1,0,0.1,0,0.1c0,0,0,0.1,0,0.1c0,0,0,0.1,0,0.1c0,0,0,0.1,0.1,0.1
		c0,0,0.1,0.1,0.1,0.1c0,0,0,0,0,0c0,0,0.1,0,0.1,0.1c0,0,0.1,0,0.1,0c0.1,0,0.2,0.1,0.3,0.1h2v9.2c0,0.4,0.3,0.7,0.7,0.7
		s0.7-0.3,0.7-0.7V7.5c0-0.4-0.3-0.7-0.7-0.7h-1.2l3-3.7l3,3.7h-1.2c-0.4,0-0.7,0.3-0.7,0.7v12.5c0,0.4,0.3,0.7,0.7,0.7
		s0.7-0.3,0.7-0.7V8.2h2c0.1,0,0.2,0,0.3-0.1c0,0,0.1,0,0.1,0c0,0,0.1,0,0.1-0.1c0,0,0,0,0,0c0,0,0.1-0.1,0.1-0.1
		c0,0,0.1-0.1,0.1-0.1c0,0,0-0.1,0-0.1c0,0,0-0.1,0-0.1c0,0,0,0,0,0c0,0,0-0.1,0-0.1c0,0,0-0.1,0-0.1c0,0,0-0.1-0.1-0.1
		c0,0,0-0.1,0-0.1l-4.5-5.5c0,0,0,0-0.1,0c0,0,0,0,0-0.1c0,0,0,0-0.1,0c0,0-0.1,0-0.1-0.1c0,0-0.1,0-0.1,0c0,0-0.1,0-0.1,0
		c0,0-0.1,0-0.1,0c0,0-0.1,0-0.1,0c0,0-0.1,0-0.1,0.1c0,0,0,0-0.1,0c0,0,0,0,0,0.1c0,0,0,0-0.1,0l-4.5,5.5c0,0,0,0.1,0,0.1
		c0,0-0.1,0.1-0.1,0.1C24.5,7.3,24.5,7.4,24.5,7.4z"/>
	<path class="st0" d="M16.1,12.7C16.1,12.7,16.1,12.7,16.1,12.7c0,0.1,0,0.1,0,0.1c0,0,0,0.1,0,0.1c0,0,0,0.1,0,0.1c0,0,0,0.1,0.1,0.1
		c0,0,0.1,0.1,0.1,0.1c0,0,0,0,0,0c0,0,0.1,0,0.1,0.1c0,0,0.1,0,0.1,0c0.1,0,0.2,0.1,0.3,0.1c0,0,0,0,0,0s0,0,0,0h1.4v4.1
		c0,0.4,0.3,0.7,0.7,0.7s0.7-0.3,0.7-0.7v-4.8c0-0.4-0.3-0.7-0.7-0.7h-0.7l2.1-2.6l2.1,2.6h-0.7c-0.4,0-0.7,0.3-0.7,0.7v4.8
		c0,0.4,0.3,0.7,0.7,0.7s0.7-0.3,0.7-0.7v-4.1h1.4c0.1,0,0.2,0,0.3-0.1c0,0,0.1,0,0.1,0c0,0,0.1,0,0.1-0.1c0,0,0,0,0,0
		c0,0,0.1-0.1,0.1-0.1c0,0,0-0.1,0.1-0.1c0,0,0-0.1,0-0.1c0,0,0-0.1,0-0.1c0,0,0,0,0,0c0,0,0-0.1,0-0.1c0,0,0-0.1,0-0.1
		c0,0,0-0.1-0.1-0.1c0,0,0-0.1,0-0.1l-3.6-4.4c0,0,0,0-0.1,0c0,0,0,0,0-0.1c0,0,0,0-0.1,0c0,0-0.1,0-0.1-0.1c0,0-0.1,0-0.1,0
		c0,0-0.1,0-0.1,0c0,0-0.1,0-0.1,0c0,0-0.1,0-0.1,0c0,0-0.1,0-0.1,0.1c0,0,0,0-0.1,0c0,0,0,0,0,0.1c0,0,0,0-0.1,0l-3.6,4.4
		c0,0,0,0.1,0,0.1c0,0-0.1,0.1-0.1,0.1C16.1,12.6,16.1,12.6,16.1,12.7z"/>
</g>
</svg>
