<?xml version="1.0" encoding="utf-8"?>
<!-- Generator: Adobe Illustrator 23.0.1, SVG Export Plug-In . SVG Version: 6.00 Build 0)  -->
<svg version="1.0" id="图层_1" xmlns="http://www.w3.org/2000/svg" xmlns:xlink="http://www.w3.org/1999/xlink" x="0px" y="0px"
	 viewBox="0 0 38 38" style="enable-background:new 0 0 38 38;" xml:space="preserve">
<style type="text/css">
	.st0{fill:#e2edf2;}
</style>
<g>
	<path class="st0" d="M19.1,14.3c1.8,0,3.3-1.5,3.3-3.3s-1.5-3.3-3.3-3.3s-3.3,1.5-3.3,3.3S17.3,14.3,19.1,14.3z M19.1,9
		C20.2,9,21,9.9,21,11s-0.9,1.9-1.9,1.9c-1.1,0-1.9-0.9-1.9-1.9S18.1,9,19.1,9z"/>
	<path class="st0" d="M13.1,13.9l4.1,9.4c0,0,0,0,0,0c0,0,0,0,0,0c0,0,0,0.1,0.1,0.1c0,0,0,0,0,0c0.4,0.6,1,1,1.6,1c0,0,0,0,0,0
		c0.7,0,1.3-0.4,1.7-1.2c0,0,0,0,0,0c0,0,0,0,0,0l4.3-9c0,0,0,0,0,0c0.6-1,0.9-2.2,0.9-3.3c0-3.7-3-6.7-6.7-6.7
		c-3.7,0-6.7,3-6.7,6.7C12.4,12,12.6,13,13.1,13.9C13.1,13.9,13.1,13.9,13.1,13.9z M19.1,5.7c2.9,0,5.3,2.4,5.3,5.3
		c0,1-0.3,1.9-0.7,2.7c0,0,0,0,0,0c0,0,0,0,0,0l-4.3,9c-0.1,0.2-0.3,0.4-0.4,0.4c-0.1,0-0.3-0.1-0.5-0.4l-4-9.3c0,0,0,0,0,0
		c0,0,0,0,0,0c-0.4-0.7-0.6-1.5-0.6-2.4C13.8,8,16.2,5.7,19.1,5.7z"/>
	<path class="st0" d="M36.7,32.1c0,0,0-0.1,0-0.1c0,0,0-0.1,0-0.1c0-0.1,0-0.1,0-0.1c0,0,0,0,0,0l-5-10.7c0,0,0-0.1-0.1-0.1
		c0,0-0.1-0.1-0.1-0.1c0,0-0.1-0.1-0.1-0.1c0,0-0.1,0-0.1-0.1l-5.4-2.3c-0.4-0.2-0.8,0-0.9,0.4c-0.2,0.4,0,0.8,0.4,0.9l5.2,2.2
		l4.1,8.8l-6.5-2.8l-2.2-5.8c-0.1-0.4-0.5-0.5-0.9-0.4c-0.4,0.1-0.5,0.5-0.4,0.9l2.1,5.5l-7,3.8v-5c0-0.4-0.3-0.7-0.7-0.7
		s-0.7,0.3-0.7,0.7v5l-7-3.8l2.1-5.5c0.1-0.4,0-0.8-0.4-0.9c-0.4-0.1-0.8,0-0.9,0.4l-2.2,5.8l-6.5,2.8l4.1-8.8l5.2-2.2
		c0.4-0.2,0.5-0.6,0.4-0.9c-0.2-0.4-0.6-0.5-0.9-0.4l-5.4,2.3c0,0-0.1,0-0.1,0.1c0,0-0.1,0-0.1,0.1c0,0-0.1,0.1-0.1,0.1
		c0,0,0,0-0.1,0.1l-5,10.7c0,0,0,0,0,0c0,0,0,0.1,0,0.2c0,0,0,0.1,0,0.1c0,0,0,0.1,0,0.1c0,0.1,0,0.1,0,0.1c0,0,0,0,0,0
		c0,0.1,0.1,0.1,0.1,0.2c0,0,0,0,0,0c0.1,0.1,0.1,0.1,0.2,0.1c0,0,0,0,0,0c0,0,0,0,0,0c0.1,0,0.2,0.1,0.3,0.1c0,0,0,0,0,0
		c0,0,0,0,0,0c0,0,0,0,0,0c0.1,0,0.2,0,0.3-0.1l8.1-3.5l8.3,4.4c0,0,0,0,0,0c0.1,0,0.2,0.1,0.3,0.1c0,0,0,0,0,0c0,0,0,0,0,0
		c0,0,0,0,0,0c0,0,0,0,0,0c0,0,0,0,0,0c0,0,0.1,0,0.1,0c0,0,0.1,0,0.1,0c0,0,0.1,0,0.1,0l8.3-4.4l8.1,3.5c0.1,0,0.2,0.1,0.3,0.1
		c0.1,0,0.2,0,0.3-0.1c0,0,0,0,0,0c0,0,0,0,0,0c0.1,0,0.1-0.1,0.2-0.1c0,0,0,0,0,0c0-0.1,0.1-0.1,0.1-0.2c0,0,0,0,0,0
		C36.7,32.3,36.7,32.2,36.7,32.1z"/>
</g>
</svg>
