<?xml version="1.0" encoding="utf-8"?>
<!-- Generator: Adobe Illustrator 23.0.1, SVG Export Plug-In . SVG Version: 6.00 Build 0)  -->
<svg version="1.0" id="图层_1" xmlns="http://www.w3.org/2000/svg" xmlns:xlink="http://www.w3.org/1999/xlink" x="0px" y="0px"
	 viewBox="0 0 38 38" style="enable-background:new 0 0 38 38;" xml:space="preserve">
<style type="text/css">
	.st0{fill:#e2edf2;}
</style>
<g>
	<path class="st0" d="M18.5,23.5c4.1,0,7.4-3.3,7.4-7.4c0-0.4-0.3-0.7-0.7-0.7h-6v-6c0-0.4-0.3-0.7-0.7-0.7c-4.1,0-7.4,3.3-7.4,7.4
		C11.1,20.1,14.4,23.5,18.5,23.5z M17.8,10.1v6c0,0.4,0.3,0.7,0.7,0.7h6c-0.3,3-2.9,5.3-6,5.3c-3.3,0-6-2.7-6-6
		C12.5,13,14.8,10.4,17.8,10.1z"/>
	<path class="st0" d="M21.1,14.2h6.1c0.4,0,0.7-0.3,0.7-0.7c0-3.9-3-6.9-6.8-6.9c-0.4,0-0.7,0.3-0.7,0.7v6.2C20.4,13.9,20.7,14.2,21.1,14.2z
		 M26.4,12.8h-4.6V8.1C24.2,8.4,26.1,10.3,26.4,12.8z"/>
	<path class="st0" d="M30.7,1.3H12c0,0-0.1,0-0.1,0c-0.1,0-0.1,0-0.2,0c-0.1,0-0.1,0.1-0.1,0.1c0,0-0.1,0-0.1,0.1L5.3,7.4c0,0,0,0,0,0
		c0,0-0.1,0.1-0.1,0.2c0,0,0,0,0,0.1c0,0,0,0.1,0,0.1c0,0.1,0,0.1,0,0.2c0,0,0,0,0,0v26.6c0,1.2,1,2.2,2.2,2.2h23.5
		c1.2,0,2.2-1,2.2-2.2v-0.9V3.5C32.9,2.3,31.9,1.3,30.7,1.3z M9.9,7.2C9.9,7.2,9.9,7.2,9.9,7.2C9.9,7.2,9.9,7.2,9.9,7.2H7.5l3.8-3.6
		v2.2C11.3,6.6,10.7,7.2,9.9,7.2z M31.5,34.5c0,0.4-0.4,0.8-0.8,0.8H7.3c-0.4,0-0.8-0.4-0.8-0.8V8.6h3.4c0,0,0,0,0,0c0,0,0,0,0,0
		c1.5,0,2.7-1.2,2.7-2.7V2.7h18c0.4,0,0.8,0.4,0.8,0.8v30.1V34.5z"/>
	<path class="st0" d="M28.5,26.5H9.4c-0.4,0-0.7,0.3-0.7,0.7s0.3,0.7,0.7,0.7h19.2c0.4,0,0.7-0.3,0.7-0.7S28.9,26.5,28.5,26.5z"/>
	<path class="st0" d="M20.9,30.5H9.4c-0.4,0-0.7,0.3-0.7,0.7s0.3,0.7,0.7,0.7h11.6c0.4,0,0.7-0.3,0.7-0.7S21.3,30.5,20.9,30.5z"/>
</g>
</svg>
