<?xml version="1.0" encoding="utf-8"?>
<!-- Generator: Adobe Illustrator 23.0.1, SVG Export Plug-In . SVG Version: 6.00 Build 0)  -->
<svg version="1.0" id="图层_1" xmlns="http://www.w3.org/2000/svg" xmlns:xlink="http://www.w3.org/1999/xlink" x="0px" y="0px"
	 viewBox="0 0 38 38" style="enable-background:new 0 0 38 38;" xml:space="preserve">
<style type="text/css">
	.st0{fill:#e2edf2;}
</style>
<g>
	<path class="st0" d="M10.2,14.4c1.9,0,3.5-1.6,3.5-3.5s-1.6-3.5-3.5-3.5S6.7,9,6.7,10.9S8.2,14.4,10.2,14.4z M10.2,8.9c1.1,0,2.1,0.9,2.1,2.1
		S11.3,13,10.2,13s-2.1-0.9-2.1-2.1S9,8.9,10.2,8.9z"/>
	<path class="st0" d="M3.9,14.1C3.9,14.2,3.9,14.2,3.9,14.1l4.5,6.1c0,0,0,0,0,0c0.4,0.7,1,1.1,1.7,1.1c0,0,0,0,0,0c0.7,0,1.3-0.4,1.7-1.1
		c0,0,0,0,0,0l4.3-5.6c0,0,0,0,0-0.1c0,0,0,0,0,0c0.6-1.1,1-2.3,1-3.6c0-3.9-3.1-7-7-7s-7,3.1-7,7C3.1,12.1,3.4,13.1,3.9,14.1
		C3.9,14.1,3.9,14.1,3.9,14.1z M10.2,5.3c3.1,0,5.6,2.5,5.6,5.6c0,1-0.3,2-0.8,2.9c0,0,0,0,0,0l-4.3,5.6c0,0,0,0,0,0.1c0,0,0,0,0,0
		c-0.1,0.3-0.3,0.5-0.5,0.5c0,0,0,0,0,0c-0.2,0-0.4-0.2-0.5-0.5c0,0,0,0,0,0c0,0,0,0,0,0l-4.5-6c-0.4-0.8-0.6-1.6-0.6-2.5
		C4.5,7.8,7.1,5.3,10.2,5.3z"/>
	<path class="st0" d="M36.1,7.5c-0.4-0.3-0.8-0.3-1.2-0.2L26,10.2c-0.7,0.2-1.6,0.2-2.3,0l-3.4-1.2C20,8.8,19.6,9,19.5,9.3s0.1,0.8,0.4,0.9
		l3.4,1.2c1,0.4,2.2,0.4,3.2,0l8.8-2.9v19.8c0,0.1-0.1,0.2-0.2,0.3L26.4,32c-0.9,0.3-1.8,0.4-2.7,0.2L14,29.9
		c-1.1-0.3-2.3-0.2-3.4,0.1l-7.9,2.7V17.9c0-0.4-0.3-0.7-0.7-0.7s-0.7,0.3-0.7,0.7v14.7c0,0.4,0.2,0.9,0.6,1.1
		c0.2,0.2,0.5,0.3,0.8,0.3c0.1,0,0.3,0,0.4-0.1l7.9-2.6c0.8-0.3,1.8-0.3,2.6-0.1l9.8,2.2c1.2,0.3,2.3,0.2,3.5-0.2l8.7-3.2
		c0.7-0.3,1.1-0.9,1.1-1.6V8.6C36.7,8.2,36.5,7.7,36.1,7.5z"/>
	<path class="st0" d="M11.7,23.3c-0.2,0.3-0.1,0.8,0.2,1c1.5,1.1,3,1.6,4.5,1.6c1.8,0,3.7-0.8,5.8-2.3c1.8-1.3,3.6-1.8,5.2-1.6
		c1.7,0.3,3.4,1.5,4.7,3.4c0.2,0.3,0.6,0.4,1,0.2c0.3-0.2,0.4-0.7,0.2-1c-1.5-2.2-3.5-3.7-5.6-4c-2-0.4-4.2,0.2-6.3,1.8
		c-3.9,2.8-6.3,2.3-8.6,0.7C12.3,23,11.9,23,11.7,23.3z"/>
</g>
</svg>
