<?xml version="1.0" encoding="utf-8"?>
<!-- Generator: Adobe Illustrator 23.0.1, SVG Export Plug-In . SVG Version: 6.00 Build 0)  -->
<svg version="1.0" id="图层_1" xmlns="http://www.w3.org/2000/svg" xmlns:xlink="http://www.w3.org/1999/xlink" x="0px" y="0px"
	 viewBox="0 0 38 38" style="enable-background:new 0 0 38 38;" xml:space="preserve">
<style type="text/css">
	.st0{fill:#e2edf2;}
</style>
<g>
	<path class="st0" d="M35.1,14.8H24.9c0-0.7-0.3-1.2-0.9-1.6c0,0,0,0,0,0l0,0c0,0,0,0,0,0c0,0,0,0,0,0l-6.4-4.5c0,0,0,0,0,0
		c-1.2-0.9-2.9-1-4.6-0.3c0,0,0,0,0,0l-5.5,2c0,0,0,0,0,0c0,0,0,0,0,0c-0.3,0.2-1,0.2-1.6,0c0,0,0,0,0,0c0,0,0,0,0,0L3.2,9.6
		c0,0-0.1,0-0.1,0c0,0-0.1,0-0.1,0c0,0,0,0,0,0c0,0,0,0,0,0c-0.9,0-1.6,0.8-1.6,1.6v6.3c0,0,0,0,0,0c-0.1,1.5,0.6,1.9,1.3,2.2
		c0,0,0,0,0,0c0,0,0,0,0,0c0,0,2.2,0.9,2.8,1.2c0.6,0.3,2.5,1.5,2.5,1.5c0,0,0,0,0,0c0.9,0.6,1.9,1,3,1c0,0,0,0,0,0c0,0,0,0,0,0h3.2
		v5.1c0,0.9,0.7,1.6,1.6,1.6h19.2c0.9,0,1.6-0.7,1.6-1.6V16.4C36.7,15.5,36,14.8,35.1,14.8z M3.1,18.4C3.1,18.4,3.1,18.4,3.1,18.4
		c-0.4-0.2-0.5-0.2-0.4-0.9c0,0,0,0,0,0c0,0,0,0,0,0v-6.3c0-0.1,0.1-0.2,0.2-0.2l2.4,0.8c0,0,0,0,0,0C5.7,11.9,6.2,12,6.6,12
		c0.5,0,0.9-0.1,1.3-0.3c0,0,0,0,0,0l5.5-2c0,0,0,0,0,0c0,0,0,0,0,0c1.2-0.5,2.5-0.5,3.3,0.1c0,0,0,0,0,0c0,0,0,0,0,0l6.4,4.5
		c0,0,0,0,0,0c0,0,0,0,0,0c0.2,0.1,0.3,0.3,0.3,0.5h-6.5c-1.3,0-2.3,1-2.3,2.3c0,0.9,0.7,1.7,1.8,2c0,0,0,0,0,0
		c1.4,0.4,1.9,0.5,3.3,0.7c0,0,0,0,0,0c1,0.1,2.1,0.7,2.1,2c0,0.5-0.2,0.7-0.3,0.8c-0.2,0.2-0.8,0.5-2.4,0.2
		c-0.3-0.1-1.3-0.5-1.7-0.6c-0.4-0.1-1.4-0.1-1.6-0.1H11c-0.8,0-1.6-0.3-2.3-0.8c0,0,0,0,0,0c0,0,0,0,0,0c-0.1,0-1.9-1.2-2.6-1.6
		C5.4,19.4,3.3,18.5,3.1,18.4z M35.3,28.6c0,0.1-0.1,0.2-0.2,0.2H15.8c-0.1,0-0.2-0.1-0.2-0.2v-5.1h0.2c0.5,0,1.1,0,1.3,0.1
		c0.3,0.1,1.1,0.4,1.6,0.5c0,0,0,0,0.1,0c0,0,0,0,0.1,0c0.5,0.1,1,0.1,1.5,0.1c0.9,0,1.7-0.2,2.2-0.6c0.4-0.3,0.8-0.9,0.8-1.9
		c0-1.7-1.3-3.1-3.3-3.4c0,0,0,0,0,0c-1.4-0.2-1.8-0.3-3.1-0.7c0,0,0,0,0,0c0,0,0,0,0,0c-0.2-0.1-0.8-0.2-0.8-0.6
		c0-0.5,0.4-0.9,0.9-0.9H24c0,0,0,0,0,0h11c0.1,0,0.2,0.1,0.2,0.2V28.6z"/>
	<path class="st0" d="M25.5,20.6c-1,0-1.9,0.8-1.9,1.9c0,1,0.8,1.9,1.9,1.9c1,0,1.9-0.8,1.9-1.9C27.4,21.5,26.6,20.6,25.5,20.6z M25.5,23
		c-0.3,0-0.5-0.2-0.5-0.5s0.2-0.5,0.5-0.5s0.5,0.2,0.5,0.5S25.8,23,25.5,23z"/>
	<path class="st0" d="M29,21.1c-0.2-0.3-0.7-0.4-1-0.2c-0.3,0.2-0.4,0.7-0.2,1c0.1,0.2,0.2,0.4,0.2,0.6s-0.1,0.4-0.2,0.6c-0.2,0.3-0.1,0.8,0.2,1
		c0.1,0.1,0.3,0.1,0.4,0.1c0.2,0,0.4-0.1,0.6-0.3c0.3-0.4,0.4-0.9,0.4-1.4C29.4,22,29.2,21.5,29,21.1z"/>
	<path class="st0" d="M30.6,20.1c-0.2-0.3-0.7-0.4-1-0.2c-0.3,0.2-0.4,0.7-0.2,1c0.3,0.5,0.5,1.1,0.5,1.7c0,0.6-0.2,1.2-0.5,1.7
		c-0.2,0.3-0.1,0.8,0.2,1c0.1,0.1,0.3,0.1,0.4,0.1c0.2,0,0.4-0.1,0.6-0.3c0.5-0.7,0.8-1.6,0.8-2.5C31.3,21.6,31.1,20.8,30.6,20.1z"
		/>
	<path class="st0" d="M31.1,18.8c-0.3,0.2-0.4,0.7-0.2,1c0.5,0.8,0.8,1.7,0.8,2.7c0,1-0.3,1.9-0.8,2.7c-0.2,0.3-0.1,0.8,0.2,1
		c0.1,0.1,0.3,0.1,0.4,0.1c0.2,0,0.4-0.1,0.6-0.3c0.7-1,1.1-2.2,1.1-3.5c0-1.2-0.4-2.5-1.1-3.5C31.9,18.7,31.5,18.6,31.1,18.8z"/>
</g>
</svg>
