<?xml version="1.0" encoding="utf-8"?>
<!-- Generator: Adobe Illustrator 23.0.1, SVG Export Plug-In . SVG Version: 6.00 Build 0)  -->
<svg version="1.0" id="图层_1" xmlns="http://www.w3.org/2000/svg" xmlns:xlink="http://www.w3.org/1999/xlink" x="0px" y="0px"
	 viewBox="0 0 38 38" style="enable-background:new 0 0 38 38;" xml:space="preserve">
<style type="text/css">
	.st0{fill:#e2edf2;}
</style>
<g>
	<path class="st0" d="M36.6,27.9L35,22c0,0,0,0,0,0c0,0,0,0,0,0L31.1,8.5c-0.2-0.8-1.1-1.3-1.9-1.1l-7.8,2.2
		c-0.4,0.1-0.6,0.5-0.5,0.9c0.1,0.4,0.5,0.6,0.9,0.5l7.8-2.2c0.1,0,0.2,0,0.2,0.1l2,7l-1.9,0.5c-0.4,0.1-0.6,0.5-0.5,0.9
		c0.1,0.3,0.4,0.5,0.7,0.5c0.1,0,0.1,0,0.2,0l1.9-0.5l1.3,4.4l-3.5,1c-0.4,0.1-0.6,0.5-0.5,0.9c0.1,0.3,0.4,0.5,0.7,0.5
		c0.1,0,0.1,0,0.2,0l3.5-1l1.5,5.2c0,0,0,0.1,0,0.1c0,0,0,0.1-0.1,0.1l-6.9,2V15c0-0.9-0.7-1.5-1.5-1.5h-8.1c-0.4,0-0.7,0.3-0.7,0.7
		s0.3,0.7,0.7,0.7h8.1c0.1,0,0.1,0.1,0.1,0.1v20.1c0,0.1-0.1,0.1-0.1,0.1H8.1v-2.7c0,0,0,0,0,0c0,0,0,0,0,0c0-1.3-1.1-2.4-2.4-2.4
		H3.2V15c0-0.1,0.1-0.1,0.1-0.1h1.8c0.4,0,0.7-0.3,0.7-0.7s-0.3-0.7-0.7-0.7H3.3c-0.9,0-1.5,0.7-1.5,1.5v15.8c0,0,0,0.1,0,0.1
		c0,0.1,0,0.1,0,0.2c0,0.1,0.1,0.1,0.1,0.1c0,0,0,0.1,0,0.1l4.9,5.1c0,0,0,0,0,0C7,36.6,7,36.6,7.1,36.6c0.1,0,0.2,0.1,0.3,0.1h19.4
		c0.9,0,1.5-0.7,1.5-1.5v-3.3l7.3-2.1c0.4-0.1,0.7-0.4,0.9-0.7S36.8,28.3,36.6,27.9z M6.7,32.6C6.7,32.6,6.7,32.6,6.7,32.6
		C6.7,32.6,6.7,32.6,6.7,32.6v1.7l-2.6-2.7h1.6C6.2,31.6,6.7,32,6.7,32.6z"/>
	<path class="st0" d="M3,10.3c0.2,0.2,0.5,0.3,0.8,0.1L4.9,10l3.1,3c0.2,0.2,0.2,0.4,0.2,0.7l-0.5,1.6c-0.2,0.7,0,1.5,0.5,2.1
		l1.1,1.1c0.1,0.1,0.1,0.1,0.2,0.1c0.2,0.2,0.5,0.3,0.7,0.3c0.3,0,0.5-0.1,0.7-0.2c0,0,0,0,0,0c0.1,0,0.1-0.1,0.2-0.1c0,0,0,0,0,0
		l3.1-3.1l4.9,4.9c0.1,0.1,0.3,0.2,0.5,0.2c0.2,0,0.4-0.1,0.5-0.2c0.3-0.3,0.3-0.7,0-1l-4.9-4.9l3.1-3.1c0,0,0,0,0,0
		c0.3-0.3,0.4-0.6,0.4-1c0-0.4-0.1-0.7-0.4-1c0,0,0,0,0,0l-1.1-1.1c-0.5-0.5-1.3-0.7-2.1-0.5l-1.6,0.5c-0.2,0.1-0.5,0-0.7-0.2l-3-3
		l0.5-1.1c0.1-0.3,0.1-0.6-0.1-0.8L9.1,1.7c0,0,0,0,0,0c-0.5-0.5-1.3-0.5-1.9,0c0,0-0.1,0-0.1,0L4.4,4.4L1.7,7.1c0,0,0,0,0,0
		s0,0,0,0c-0.3,0.3-0.4,0.6-0.4,1c0,0.4,0.1,0.7,0.4,1c0,0,0,0,0,0L3,10.3z M12,8.9c0.5,0.5,1.3,0.7,2.1,0.5L15.7,9
		c0.2-0.1,0.5,0,0.7,0.2l1.1,1.1l-3.6,3.6l0,0c0,0,0,0,0,0s0,0,0,0l-3.6,3.6l-1.1-1.1C9,16.1,8.9,15.9,9,15.6l0.5-1.6
		c0.2-0.7,0-1.5-0.5-2.1L5.5,8.6C5.3,8.4,5,8.4,4.7,8.5L3.6,9L2.7,8.1l2.7-2.7l2.7-2.7L9,3.6L8.5,4.7C8.4,5,8.4,5.3,8.6,5.5L12,8.9z
		"/>
	<path class="st0" d="M23.5,23.3H7.7C7.3,23.3,7,23.6,7,24s0.3,0.7,0.7,0.7h15.9c0.4,0,0.7-0.3,0.7-0.7S23.9,23.3,23.5,23.3z"/>
	<path class="st0" d="M23.5,28.7H11.8c-0.4,0-0.7,0.3-0.7,0.7s0.3,0.7,0.7,0.7h11.7c0.4,0,0.7-0.3,0.7-0.7S23.9,28.7,23.5,28.7z"/>
</g>
</svg>
