<?xml version="1.0" encoding="utf-8"?>
<!-- Generator: Adobe Illustrator 23.0.1, SVG Export Plug-In . SVG Version: 6.00 Build 0)  -->
<svg version="1.0" id="图层_1" xmlns="http://www.w3.org/2000/svg" xmlns:xlink="http://www.w3.org/1999/xlink" x="0px" y="0px"
	 viewBox="0 0 38 38" style="enable-background:new 0 0 38 38;" xml:space="preserve">
<style type="text/css">
	.st0{fill:#e2edf2;}
</style>
<g>
	<path class="st0" d="M34.6,14.2c0.1,0.3,0.4,0.5,0.7,0.5c0.1,0,0.1,0,0.2,0c0.4-0.1,0.6-0.5,0.5-0.9c-0.4-1.4-1-2.7-1.8-4
		c-0.2-0.3-0.6-0.4-1-0.2c-0.3,0.2-0.4,0.6-0.2,1C33.7,11.7,34.2,12.9,34.6,14.2z"/>
	<path class="st0" d="M2.5,15c0.1,0,0.1,0,0.2,0c0.3,0,0.6-0.2,0.7-0.5C5.4,7.5,11.8,2.7,19,2.7c4.8,0,9.3,2.1,12.4,5.7c0.3,0.3,0.7,0.3,1,0.1
		c0.3-0.3,0.3-0.7,0.1-1C29.1,3.6,24.2,1.3,19,1.3c-7.8,0-14.8,5.3-17,12.8C1.9,14.5,2.1,14.8,2.5,15z"/>
	<path class="st0" d="M3.4,23.5c-0.1-0.4-0.5-0.6-0.9-0.5c-0.4,0.1-0.6,0.5-0.5,0.9c0.4,1.4,1,2.8,1.8,4.1c0.1,0.2,0.4,0.3,0.6,0.3
		c0.1,0,0.2,0,0.4-0.1c0.3-0.2,0.4-0.6,0.2-1C4.3,26.1,3.7,24.8,3.4,23.5z"/>
	<path class="st0" d="M35.5,23.2c-0.4-0.1-0.8,0.1-0.9,0.5c-2.1,6.8-8.5,11.6-15.6,11.6c-4.9,0-9.6-2.2-12.7-6c-0.2-0.3-0.7-0.3-1-0.1
		c-0.3,0.2-0.3,0.7-0.1,1c3.4,4.2,8.4,6.6,13.8,6.6c7.7,0,14.7-5.2,16.9-12.6C36.1,23.8,35.9,23.4,35.5,23.2z"/>
	<path class="st0" d="M6.4,19c0-3.3,1.3-6.5,3.6-8.8c0.3-0.3,0.3-0.7,0-1c-0.3-0.3-0.7-0.3-1,0c-2.6,2.6-4,6.1-4,9.8c0,3.8,1.5,7.4,4.2,10
		c0.1,0.1,0.3,0.2,0.5,0.2c0.2,0,0.4-0.1,0.5-0.2c0.3-0.3,0.3-0.7,0-1C7.7,25.6,6.4,22.4,6.4,19z"/>
	<path class="st0" d="M17.1,31.5c-0.4-0.1-0.7,0.2-0.8,0.6c-0.1,0.4,0.2,0.7,0.6,0.8C17.6,33,18.3,33,19,33c0.8,0,1.6-0.1,2.4-0.2
		c0.4-0.1,0.6-0.4,0.6-0.8c-0.1-0.4-0.4-0.6-0.8-0.6C19.9,31.7,18.5,31.7,17.1,31.5z"/>
	<path class="st0" d="M28,29.6c0.2,0,0.3-0.1,0.5-0.2c2.9-2.7,4.6-6.4,4.6-10.4c0-3.9-1.7-7.7-4.6-10.4c-0.3-0.3-0.7-0.2-1,0
		c-0.3,0.3-0.2,0.7,0,1c2.6,2.4,4.1,5.8,4.1,9.3c0,3.6-1.5,7-4.1,9.4c-0.3,0.3-0.3,0.7,0,1C27.6,29.5,27.8,29.6,28,29.6z"/>
	<path class="st0" d="M17.2,6.5c1.3-0.2,2.7-0.2,4,0c0,0,0.1,0,0.1,0c0.3,0,0.6-0.2,0.7-0.6c0.1-0.4-0.2-0.7-0.6-0.8c-1.5-0.3-3-0.3-4.5,0
		c-0.4,0.1-0.6,0.4-0.6,0.8C16.4,6.3,16.8,6.6,17.2,6.5z"/>
	<path class="st0" d="M23.8,27.2c0.4,0.4,0.8,0.6,1.4,0.6c0,0,0,0,0,0c0.5,0,1-0.2,1.4-0.6l0.7-0.7c0.7-0.7,0.7-2,0-2.7L26,22.8
		c0.2-0.4,0.4-0.8,0.5-1.3H28c1.1,0,1.9-0.9,1.9-1.9v-0.9c0-1.1-0.9-1.9-1.9-1.9h-1.4c-0.1-0.4-0.3-0.9-0.5-1.3l1.1-1.1
		c0.7-0.7,0.7-2,0-2.7L26.5,11c-0.7-0.7-2-0.7-2.7,0l-1,1c-0.5-0.3-1-0.5-1.5-0.6V10c0-1.1-0.9-1.9-1.9-1.9h-0.9
		c-1.1,0-1.9,0.9-1.9,1.9v1.4c-0.4,0.1-0.9,0.3-1.3,0.5L14.3,11c-0.7-0.7-2-0.7-2.7,0l-0.7,0.7c-0.7,0.7-0.7,2,0,2.7l0.9,0.9
		c-0.3,0.5-0.5,1-0.6,1.5H9.8c-1.1,0-1.9,0.9-1.9,1.9v0.9c0,1.1,0.9,1.9,1.9,1.9h1.4c0.2,0.5,0.4,1,0.6,1.5l-0.9,0.9
		c-0.7,0.7-0.7,2,0,2.7l0.7,0.7c0.4,0.4,0.9,0.6,1.4,0.6c0.5,0,1-0.2,1.4-0.6l0.9-0.9c0.4,0.2,0.8,0.4,1.3,0.5v1.4
		c0,1.1,0.9,1.9,1.9,1.9h0.9c1.1,0,1.9-0.9,1.9-1.9v-1.4c0.5-0.2,1-0.4,1.5-0.6L23.8,27.2z M19.9,28.2c0,0.3-0.2,0.5-0.5,0.5h-0.9
		c-0.3,0-0.5-0.2-0.5-0.5v-1.9c0,0,0,0,0-0.1c0,0,0-0.1,0-0.1c0,0,0-0.1,0-0.1c0,0,0-0.1-0.1-0.1c0,0-0.1-0.1-0.1-0.1
		c0,0-0.1,0-0.1-0.1c0,0-0.1,0-0.1-0.1c0,0,0,0-0.1,0c-0.7-0.2-1.3-0.4-1.9-0.8c0,0,0,0,0,0c0,0-0.1,0-0.1,0c0,0-0.1,0-0.1,0
		c0,0-0.1,0-0.1,0c0,0-0.1,0-0.1,0c0,0-0.1,0-0.1,0.1c0,0-0.1,0-0.1,0.1c0,0,0,0,0,0l-1.3,1.3c-0.2,0.2-0.5,0.2-0.7,0l-0.7-0.7
		c-0.2-0.2-0.2-0.5,0-0.7l1.3-1.3c0,0,0,0,0-0.1c0,0,0.1-0.1,0.1-0.1c0,0,0-0.1,0.1-0.1c0,0,0-0.1,0-0.1c0,0,0-0.1,0-0.1
		c0,0,0-0.1,0-0.1c0,0,0-0.1-0.1-0.1c0,0,0,0,0-0.1c-0.4-0.6-0.7-1.3-0.9-2.1c0,0,0,0,0-0.1c0,0,0-0.1-0.1-0.1c0,0,0-0.1-0.1-0.1
		c0,0-0.1-0.1-0.1-0.1c0,0-0.1-0.1-0.1-0.1c0,0-0.1,0-0.1,0c0,0-0.1,0-0.1,0c0,0,0,0-0.1,0H9.8c-0.3,0-0.5-0.2-0.5-0.5v-0.9
		c0-0.3,0.2-0.5,0.5-0.5h1.9c0,0,0,0,0,0c0,0,0,0,0,0c0.1,0,0.2,0,0.3-0.1c0,0,0.1,0,0.1,0c0,0,0.1-0.1,0.1-0.1c0,0,0,0,0.1-0.1
		c0,0,0.1-0.1,0.1-0.1c0,0,0-0.1,0-0.1c0,0,0,0,0-0.1c0.2-0.7,0.5-1.4,0.9-2.1c0,0,0,0,0-0.1c0,0,0-0.1,0.1-0.1c0,0,0-0.1,0-0.1
		c0,0,0-0.1,0-0.1c0,0,0-0.1,0-0.1c0,0,0-0.1-0.1-0.1c0,0,0-0.1-0.1-0.1c0,0,0,0,0-0.1l-1.3-1.3c-0.2-0.2-0.2-0.5,0-0.7l0.7-0.7
		c0.2-0.2,0.5-0.2,0.7,0l1.3,1.3c0,0,0.1,0,0.1,0.1c0,0,0.1,0.1,0.1,0.1c0,0,0,0,0,0c0.1,0,0.2,0.1,0.2,0.1c0.1,0,0.2,0,0.4-0.1
		c0.6-0.4,1.2-0.6,1.9-0.8c0,0,0,0,0.1,0c0,0,0.1,0,0.1-0.1c0,0,0.1,0,0.1-0.1c0,0,0.1-0.1,0.1-0.1c0,0,0.1-0.1,0.1-0.1
		c0,0,0-0.1,0-0.1c0,0,0-0.1,0-0.1c0,0,0,0,0-0.1V10c0-0.3,0.2-0.5,0.5-0.5h0.9c0.3,0,0.5,0.2,0.5,0.5v1.9c0,0,0,0,0,0.1
		c0,0,0,0.1,0,0.1c0,0,0,0.1,0,0.1c0,0,0,0.1,0.1,0.1c0,0,0.1,0.1,0.1,0.1c0,0,0.1,0,0.1,0.1c0,0,0.1,0,0.1,0.1c0,0,0,0,0.1,0
		c0.7,0.2,1.4,0.5,2.1,0.9c0,0,0.1,0,0.1,0c0,0,0,0,0.1,0c0.1,0,0.2,0,0.2,0c0,0,0,0,0,0c0.1,0,0.2,0,0.3-0.1c0,0,0.1,0,0.1-0.1
		c0,0,0.1,0,0.1-0.1l1.4-1.4c0.2-0.2,0.5-0.2,0.7,0l0.7,0.7c0.1,0.1,0.1,0.2,0.1,0.4c0,0.1-0.1,0.3-0.2,0.4l-1.4,1.4c0,0,0,0,0,0
		c0,0-0.1,0.1-0.1,0.1c0,0,0,0.1-0.1,0.1c0,0,0,0.1,0,0.1c0,0,0,0.1,0,0.1c0,0,0,0.1,0,0.1c0,0,0,0.1,0,0.1c0,0,0,0,0,0
		c0.4,0.6,0.6,1.2,0.8,1.9c0,0,0,0,0,0.1c0,0,0,0.1,0,0.1c0,0,0.1,0.1,0.1,0.1c0,0,0,0.1,0.1,0.1c0,0,0.1,0.1,0.1,0.1c0,0,0,0,0.1,0
		c0.1,0,0.2,0.1,0.3,0.1c0,0,0,0,0,0c0,0,0,0,0,0H28c0.3,0,0.5,0.2,0.5,0.5v0.9c0,0.3-0.2,0.5-0.5,0.5h-1.9c0,0,0,0-0.1,0
		c-0.1,0-0.1,0-0.1,0c0,0-0.1,0-0.1,0c0,0-0.1,0-0.1,0.1c0,0-0.1,0.1-0.1,0.1c0,0,0,0.1-0.1,0.1c0,0,0,0.1-0.1,0.1c0,0,0,0,0,0.1
		c-0.2,0.7-0.4,1.3-0.8,1.9c0,0,0,0,0,0.1c0,0,0,0.1,0,0.1c0,0,0,0.1,0,0.1c0,0,0,0.1,0,0.1c0,0,0,0.1,0,0.1c0,0,0,0.1,0.1,0.1
		c0,0,0,0.1,0.1,0.1c0,0,0,0,0,0l1.4,1.4c0.2,0.2,0.2,0.5,0,0.7l-0.7,0.7c-0.1,0.1-0.2,0.2-0.4,0.2h0c-0.1,0-0.3-0.1-0.4-0.1
		l-1.4-1.4c0,0,0,0-0.1,0c0,0-0.1-0.1-0.1-0.1c0,0-0.1,0-0.1,0c0,0-0.1,0-0.1,0c0,0-0.1,0-0.1,0c0,0-0.1,0-0.1,0c0,0-0.1,0-0.1,0.1
		c0,0,0,0-0.1,0c-0.6,0.4-1.3,0.7-2.1,0.9c0,0,0,0-0.1,0c0,0-0.1,0-0.1,0.1c0,0-0.1,0-0.1,0.1c0,0-0.1,0.1-0.1,0.1
		c0,0-0.1,0.1-0.1,0.1c0,0,0,0.1,0,0.1c0,0,0,0.1,0,0.1c0,0,0,0,0,0.1V28.2z"/>
	<path class="st0" d="M23.6,19.1c0-0.4-0.3-0.7-0.7-0.7s-0.7,0.3-0.7,0.7c0,1.8-1.5,3.3-3.3,3.3c-1.8,0-3.3-1.5-3.3-3.3s1.5-3.3,3.3-3.3
		c0.2,0,0.4,0,0.7,0.1c0.4,0.1,0.7-0.2,0.8-0.5c0.1-0.4-0.2-0.7-0.5-0.8c-0.3-0.1-0.6-0.1-0.9-0.1c-2.6,0-4.7,2.1-4.7,4.7
		c0,2.6,2.1,4.7,4.7,4.7S23.6,21.7,23.6,19.1z"/>
	<path class="st0" d="M17.8,18.4c-0.3-0.3-0.7-0.3-1-0.1c-0.3,0.3-0.3,0.7-0.1,1l1.4,1.5c0,0,0,0,0,0c0,0,0,0,0,0c0,0,0.1,0.1,0.1,0.1
		c0,0,0,0,0.1,0c0.1,0,0.2,0.1,0.3,0.1c0,0,0,0,0,0s0,0,0,0c0.1,0,0.2,0,0.3-0.1c0,0,0,0,0.1,0c0,0,0.1,0,0.1-0.1c0,0,0,0,0,0
		c0,0,0,0,0,0l3.9-4.5c0.3-0.3,0.2-0.7-0.1-1c-0.3-0.3-0.7-0.2-1,0.1l-3.4,3.9L17.8,18.4z"/>
</g>
</svg>
