<?xml version="1.0" encoding="utf-8"?>
<!-- Generator: Adobe Illustrator 23.0.1, SVG Export Plug-In . SVG Version: 6.00 Build 0)  -->
<svg version="1.0" id="图层_1" xmlns="http://www.w3.org/2000/svg" xmlns:xlink="http://www.w3.org/1999/xlink" x="0px" y="0px"
	 viewBox="0 0 38 38" style="enable-background:new 0 0 38 38;" xml:space="preserve">
<style type="text/css">
	.st0{fill:#e2edf2;}
</style>
<g>
	<path class="st0" d="M36,26.7C36,26.7,35.9,26.7,36,26.7c-0.1,0-0.2,0-0.2,0h-1.2V8c0-1.1-0.9-2-1.9-2H5.3C4.3,6,3.4,6.9,3.4,8v18.7H2
		c-0.4,0-0.7,0.3-0.7,0.7v2.8c0,1,0.8,1.8,1.7,1.8H35c1,0,1.7-0.8,1.7-1.8v-2.8C36.7,27,36.4,26.7,36,26.7z M3,30.6
		c-0.2,0-0.3-0.2-0.3-0.4v-2.1h12.6l1.1,0.9c0,0,0.1,0,0.1,0.1c0,0,0.1,0,0.1,0.1c0.1,0,0.2,0.1,0.3,0.1c0,0,0,0,0,0s0,0,0,0h2H19h2
		c0.1,0,0.2,0,0.3-0.1c0,0,0.1,0,0.1-0.1c0,0,0.1,0,0.1-0.1l1.1-0.9h12.8v2.1c0,0.2-0.2,0.4-0.3,0.4H3z M4.8,8
		c0-0.3,0.2-0.6,0.5-0.6h27.3c0.3,0,0.5,0.2,0.5,0.6v18.7H22.3c0,0-0.1,0-0.1,0c0,0-0.1,0-0.1,0c0,0-0.1,0-0.1,0.1c0,0-0.1,0-0.1,0
		l-1.1,0.9H19h-0.2h-1.7L16,26.8c0,0-0.1,0-0.1,0c0,0-0.1-0.1-0.1-0.1c0,0-0.1,0-0.1,0c0,0-0.1,0-0.1,0H4.8V8z"/>
	<path class="st0" d="M19,24.7c2.6,0,4.8-2.2,4.8-4.8c0-1.3-0.5-2.5-1.4-3.4v-3.7c0-1.9-1.5-3.4-3.4-3.4c-1.9,0-3.4,1.5-3.4,3.4v3.7
		c-0.8,0.9-1.4,2-1.4,3.4C14.2,22.6,16.4,24.7,19,24.7z M19,23.3c-1.9,0-3.4-1.5-3.4-3.4s1.5-3.4,3.4-3.4c1.9,0,3.4,1.5,3.4,3.4
		S20.9,23.3,19,23.3z M19,10.9c1.1,0,2,0.9,2,2v2.7c-0.6-0.3-1.3-0.5-2-0.5s-1.4,0.2-2,0.5v-2.7C17,11.8,17.9,10.9,19,10.9z"/>
	<path class="st0" d="M19,18.1c-1,0-1.8,0.8-1.8,1.8s0.8,1.8,1.8,1.8c1,0,1.8-0.8,1.8-1.8S20,18.1,19,18.1z M19,20.3c-0.2,0-0.4-0.2-0.4-0.4
		c0-0.2,0.2-0.4,0.4-0.4c0.2,0,0.4,0.2,0.4,0.4C19.4,20.2,19.2,20.3,19,20.3z"/>
</g>
</svg>
