<?xml version="1.0" standalone="no"?><!DOCTYPE svg PUBLIC "-//W3C//DTD SVG 1.1//EN" "http://www.w3.org/Graphics/SVG/1.1/DTD/svg11.dtd"><svg t="1584609534967" class="icon" viewBox="0 0 1024 1024" version="1.1" xmlns="http://www.w3.org/2000/svg" p-id="1893" xmlns:xlink="http://www.w3.org/1999/xlink" width="200" height="200"><defs><style type="text/css"></style></defs><path d="M644.042105 202.105263c-10.778947-40.421053-48.505263-72.757895-94.315789-75.452631-5.389474-51.2-48.505263-94.315789-99.705263-94.31579-51.2 0-91.621053 37.726316-99.705264 86.231579-18.863158-16.168421-40.421053-26.947368-67.368421-26.947368C229.052632 94.315789 185.936842 134.736842 180.547368 188.631579c-53.894737 2.694737-97.010526 45.810526-97.010526 102.4 0 56.589474 45.810526 102.4 102.4 102.4h5.389474c-35.031579 59.284211-51.2 126.652632-51.2 196.715789 0 220.968421 180.547368 401.515789 401.515789 401.51579S943.157895 811.115789 943.157895 590.147368c-2.694737-183.242105-123.957895-339.536842-299.11579-388.042105z m-194.021052-129.347368c35.031579 0 64.673684 29.642105 64.673684 64.673684v13.473684c0 2.694737 0 2.694737 2.694737 2.694737 0 0 0 2.694737 2.694737 2.694737l2.694736 2.694737s0 2.694737 2.694737 2.694737c0 0 2.694737 0 2.694737 2.694736h21.557895c35.031579 0 64.673684 29.642105 64.673684 64.673685 0 35.031579-29.642105 64.673684-64.673684 64.673684h-67.368421v-5.389474c0-53.894737-43.115789-99.705263-97.010527-102.4 0-8.084211-2.694737-16.168421-5.389473-24.252631l2.694737-2.694737s0-2.694737 2.694736-2.694737c0 0 0-2.694737 2.694737-2.694737v-2.694737-2.694737-2.694737-8.08421c-2.694737-35.031579 26.947368-64.673684 61.978948-64.673684z m-328.757895 215.578947c0-35.031579 29.642105-64.673684 64.673684-64.673684h18.863158s2.694737 0 2.694737-2.694737l2.694737-2.694737 2.694737-2.694737H215.578947s0-2.694737 2.694737-2.694736v-2.694737-2.694737-8.084211C218.273684 164.378947 247.915789 134.736842 282.947368 134.736842c35.031579 0 64.673684 29.642105 64.673685 64.673684v13.473685c0 2.694737 0 2.694737 2.694736 2.694736 0 0 0 2.694737 2.694737 2.694737l2.694737 2.694737 2.694737 2.694737s2.694737 0 2.694737 2.694737h21.557895c35.031579 0 64.673684 29.642105 64.673684 64.673684 0 35.031579-29.642105 64.673684-64.673684 64.673684H185.936842c-35.031579-2.694737-64.673684-32.336842-64.673684-67.368421zM538.947368 951.242105c-199.410526 0-363.789474-161.684211-363.789473-363.789473 0-70.063158 21.557895-140.126316 59.28421-196.71579H377.263158c40.421053 0 75.452632-24.252632 91.621053-59.28421h75.452631c51.2 0 94.315789-37.726316 99.705263-88.926316 150.905263 45.810526 256 185.936842 256 344.926316 2.694737 202.105263-161.684211 363.789474-361.094737 363.789473z" fill="#aebdd0" p-id="1894"></path><path d="M482.357895 450.021053c43.115789 0 78.147368 35.031579 78.147368 78.147368 0 10.778947 8.084211 18.863158 18.863158 18.863158s18.863158-8.084211 18.863158-18.863158c0-64.673684-51.2-115.873684-115.873684-115.873684s-115.873684 51.2-115.873684 115.873684v183.242105c0 64.673684 51.2 115.873684 115.873684 115.873685s115.873684-51.2 115.873684-115.873685c0-10.778947-8.084211-18.863158-18.863158-18.863158s-18.863158 8.084211-18.863158 18.863158c0 43.115789-35.031579 78.147368-78.147368 78.147369S404.210526 754.526316 404.210526 711.410526v-183.242105c0-43.115789 35.031579-78.147368 78.147369-78.147368zM695.242105 393.431579c-43.115789 0-78.147368 35.031579-78.147368 78.147368s35.031579 78.147368 78.147368 78.147369 78.147368-35.031579 78.147369-78.147369-35.031579-78.147368-78.147369-78.147368z m0 121.263158c-21.557895 0-40.421053-18.863158-40.421052-40.421053S673.684211 431.157895 695.242105 431.157895s40.421053 18.863158 40.421053 40.421052-18.863158 43.115789-40.421053 43.11579z" fill="#aebdd0" p-id="1895"></path></svg>