<?xml version="1.0" encoding="utf-8"?>
<!-- Generator: Adobe Illustrator 23.0.1, SVG Export Plug-In . SVG Version: 6.00 Build 0)  -->
<svg version="1.0" id="图层_1" xmlns="http://www.w3.org/2000/svg" xmlns:xlink="http://www.w3.org/1999/xlink" x="0px" y="0px"
	 viewBox="0 0 38 38" style="enable-background:new 0 0 38 38;" xml:space="preserve">
<style type="text/css">
	.st0{fill:#e2edf2;}
</style>
<g>
	<path class="st0" d="M19.3,35.3l-14.6,0c0-3.6,1.9-4.2,6.1-5.1c5.2-1.2,7.6-4.3,7.7-4.5C19,25,19,24,19,23.3c0-0.4-0.1-0.8-0.3-1.2
		c0,0-0.1-0.1-0.1-0.3c-0.1-0.1-0.2-0.3-0.3-0.6c-0.3-0.5-0.6-1.2-0.8-1.8c-0.1-0.3-0.4-0.8-0.7-1.1c0,0-0.1-0.1-0.1-0.1
		c-0.4-0.2-0.8-0.6-1.3-1.3c-0.6-1-0.3-1.7,0.2-2.8c0.1-0.2,0.2-0.3,0.2-0.5c0.1-0.3,0.1-0.7,0-0.7c-0.3-1.3-0.8-3-0.7-5.1
		c0.1-1.8,1.7-5.2,7.2-5.2c5,0,7,3.1,7.2,5.2c0.1,2.1-0.3,3.8-0.7,5.2c0,0.1-0.1,0.5,0.1,0.8c0.1,0.2,0.2,0.3,0.3,0.5
		c0.6,1,0.9,1.6,0.2,2.6c-0.6,0.8-1,1.1-1.3,1.3c0,0-0.1,0.1-0.1,0.1c-0.3,0.3-0.7,0.8-0.7,1.1c-0.2,0.7-0.7,1.6-0.9,2.1l-0.1,0.2
		c-0.2,0.3,0,0.8,0.3,0.9c0.3,0.2,0.8,0,0.9-0.3l0.1-0.2c0.3-0.5,0.8-1.6,1-2.4c0-0.1,0.2-0.3,0.3-0.5c0.4-0.3,0.9-0.7,1.6-1.6
		c1.3-1.7,0.4-3.1-0.1-4.1c-0.1-0.1-0.1-0.2-0.2-0.3c0.4-1.5,0.8-3.3,0.7-5.6c-0.2-2.6-2.6-6.5-8.6-6.5c-5.6,0-8.4,3.4-8.6,6.5
		c-0.1,2.3,0.3,4.1,0.7,5.4c-0.1,0.1-0.1,0.2-0.2,0.3c-0.5,1-1.2,2.4-0.1,4.1c0.6,0.9,1.2,1.4,1.6,1.7c0.2,0.2,0.3,0.4,0.3,0.4
		c0.2,0.7,0.6,1.5,0.9,2.1c0.1,0.2,0.2,0.4,0.2,0.5c0,0.1,0.1,0.1,0.1,0.3c0.1,0.3,0.2,0.5,0.2,0.7c0,0.6,0,1.3-0.3,1.6
		c-0.1,0.1-2.2,2.8-6.9,3.9c-4,0.9-7.2,1.7-7.2,6.5c0,0.7,0.6,1.4,1.4,1.4h14.6c0.4,0,0.7-0.3,0.7-0.7S19.6,35.3,19.3,35.3z"/>
	<path class="st0" d="M26.2,27.5c0.3-0.3,0.3-0.7,0-1s-0.7-0.3-1,0l-2.7,2.7c-0.1,0.1-0.1,0.1-0.2,0.2c-0.1,0.2-0.1,0.4,0,0.5
		c0.1,0.2,0.2,0.3,0.4,0.4c0.1,0,0.2,0.1,0.3,0.1h11c0.4,0,0.7-0.3,0.7-0.7S34.4,29,34,29h-9.3L26.2,27.5z"/>
	<path class="st0" d="M34.7,33c-0.1-0.2-0.2-0.3-0.4-0.4c-0.1,0-0.2-0.1-0.3-0.1H23c-0.4,0-0.7,0.3-0.7,0.7S22.6,34,23,34h9.3l-1.6,1.6
		c-0.3,0.3-0.3,0.7,0,1c0.1,0.1,0.3,0.2,0.5,0.2s0.4-0.1,0.5-0.2l2.7-2.7c0.1-0.1,0.1-0.1,0.2-0.2C34.7,33.3,34.7,33.2,34.7,33z"/>
</g>
</svg>
