<?xml version="1.0" encoding="utf-8"?>
<!-- Generator: Adobe Illustrator 23.0.1, SVG Export Plug-In . SVG Version: 6.00 Build 0)  -->
<svg version="1.0" id="图层_1" xmlns="http://www.w3.org/2000/svg" xmlns:xlink="http://www.w3.org/1999/xlink" x="0px" y="0px"
	 viewBox="0 0 38 38" style="enable-background:new 0 0 38 38;" xml:space="preserve">
<style type="text/css">
	.st0{fill:#e2edf2;}
</style>
<g>
	<path class="st0" d="M24.8,10.1c0.3,0.4,0.5,0.6,0.7,0.8c0,0,0,0.1,0,0c0,0,0,0,0,0c0.1,0.3,0.3,0.7,0.4,0.9C26,11.9,26,12,26,12
		c0,0,0,0.1,0.1,0.1c0,0,0.1,0.2,0.1,0.2c0,0.1,0,0.4,0,0.5c-0.2,0.3-0.1,0.6,0.1,0.8c0.3,0.2,0.6,0.1,0.8-0.1
		c0.3-0.4,0.3-0.9,0.3-1.2c0-0.2-0.1-0.4-0.2-0.6l-0.1-0.1c0-0.1-0.1-0.2-0.1-0.3c-0.1-0.2-0.2-0.5-0.3-0.7c0-0.2-0.2-0.5-0.4-0.6
		c0,0-0.1-0.1-0.1-0.1c-0.1-0.1-0.3-0.2-0.4-0.4c-0.2-0.3-0.1-0.4,0.1-0.9L26,8.4c0.1-0.2,0-0.4,0-0.5c-0.1-0.5-0.3-1.2-0.3-2
		c0-0.7,0.6-1.9,2.6-1.9c1.8,0,2.6,1.1,2.6,1.9c0,0.8-0.1,1.5-0.3,2.1c0,0.1-0.1,0.3,0,0.5c0,0.1,0.1,0.1,0.1,0.2
		c0.2,0.4,0.3,0.5,0.1,0.7c-0.2,0.3-0.3,0.4-0.5,0.5c0,0-0.1,0-0.1,0.1c-0.2,0.2-0.3,0.4-0.4,0.6c-0.1,0.2-0.3,0.6-0.3,0.8l-0.1,0.2
		c0,0.1-0.2,0.4-0.2,0.7c0,0.4,0,0.8,0.3,1.2c0.4,0.5,1.5,1.5,3.4,2c1.8,0.4,2.2,0.6,2.2,1.8c0,0.3,0.3,0.6,0.6,0.6c0,0,0,0,0,0
		c0.3,0,0.6-0.3,0.6-0.6c0-2.3-1.5-2.6-3.1-3c-1.8-0.4-2.7-1.5-2.7-1.5c0-0.1,0-0.3,0-0.5c0,0,0-0.1,0.1-0.1l0.1-0.2
		c0.1-0.2,0.4-0.7,0.4-1c0,0,0-0.1,0.1-0.1c0.2-0.1,0.4-0.3,0.7-0.7c0.6-0.9,0.2-1.6,0-2l0,0c0.1-0.6,0.3-1.4,0.3-2.3
		c-0.1-1.2-1.1-3-3.8-3c-2.5,0-3.7,1.5-3.8,3c-0.1,0.9,0.1,1.7,0.3,2.2l0,0C24.6,8.5,24.3,9.3,24.8,10.1z"/>
	<path class="st0" d="M2.3,17.9C2.3,17.9,2.3,17.9,2.3,17.9c0.3,0,0.6-0.3,0.6-0.6c0-1.2,0.4-1.4,2.2-1.8c1.8-0.4,3-1.4,3.3-2
		c0.3-0.4,0.3-0.8,0.3-1.2c0-0.3-0.1-0.6-0.2-0.7l-0.1-0.2c-0.1-0.2-0.3-0.5-0.3-0.8c0-0.2-0.2-0.5-0.4-0.6c0,0-0.1-0.1-0.1-0.1
		C7.5,9.9,7.4,9.7,7.2,9.5C7,9.2,7,9.1,7.3,8.7c0-0.1,0.1-0.1,0.1-0.2c0.1-0.2,0.1-0.4,0-0.5C7.3,7.4,7.1,6.7,7.2,5.9
		c0-0.7,0.8-1.9,2.6-1.9c2,0,2.6,1.2,2.6,1.9c0,0.8-0.1,1.5-0.3,2c0,0.1-0.1,0.3,0,0.5l0.1,0.2c0.2,0.4,0.3,0.6,0.1,0.9
		c-0.2,0.2-0.3,0.4-0.4,0.4c0,0-0.1,0-0.1,0.1c-0.2,0.2-0.3,0.4-0.4,0.6c0,0.2-0.2,0.5-0.3,0.7c-0.1,0.1-0.1,0.2-0.1,0.3
		c0,0,0,0.1-0.1,0.1c-0.1,0.2-0.2,0.4-0.2,0.6c0,0.3,0,0.8,0.3,1.2c0.2,0.3,0.6,0.3,0.8,0.1c0.3-0.2,0.3-0.6,0.1-0.8
		c0-0.1,0-0.4-0.1-0.5c0,0,0.1-0.1,0.1-0.2c0,0,0-0.1,0.1-0.1c0,0,0-0.1,0.1-0.2c0.1-0.3,0.3-0.6,0.4-0.9c0,0,0-0.1,0.1-0.1
		c0.2-0.1,0.5-0.3,0.7-0.8c0.5-0.9,0.2-1.6,0-2l0,0c0.1-0.6,0.3-1.3,0.3-2.2c-0.1-1.4-1.3-3-3.8-3C7.1,2.9,6,4.6,6,5.8
		C5.9,6.8,6.1,7.5,6.2,8.1l0,0c-0.2,0.4-0.7,1.2,0,2c0.3,0.4,0.5,0.6,0.7,0.7c0,0,0,0.1,0,0c0,0,0,0,0,0c0.1,0.4,0.3,0.8,0.5,1.1
		l0.1,0.1c0,0.1,0,0.1,0,0.1c0,0.2,0,0.4,0,0.5c0,0-0.8,1.1-2.7,1.5c-1.6,0.4-3.2,0.7-3.1,3C1.7,17.6,2,17.9,2.3,17.9z"/>
	<path class="st0" d="M14.9,9.3c0.3,0.5,0.6,0.7,0.8,0.8c0,0,0.1,0.1,0.1,0.1c0.1,0.4,0.3,0.7,0.4,1c0,0.1,0.1,0.1,0.1,0.2
		c0,0,0,0.1,0.1,0.1c0,0,0.1,0.2,0.1,0.2c0,0.2,0,0.5-0.1,0.6c0,0-0.9,1.2-3,1.7c-1.8,0.4-3.5,0.8-3.5,3.3c0,0.3,0.3,0.6,0.6,0.6
		s0.6-0.3,0.6-0.6c0-1.4,0.7-1.6,2.5-2.1c2.4-0.6,3.5-2,3.7-2.2c0.3-0.4,0.3-0.9,0.3-1.3c0-0.2-0.1-0.4-0.2-0.7c0,0,0-0.1-0.1-0.1
		c0-0.1-0.1-0.2-0.1-0.3c-0.1-0.2-0.3-0.5-0.3-0.7c0-0.2-0.2-0.5-0.4-0.7c0,0-0.1-0.1-0.1-0.1c-0.1-0.1-0.3-0.2-0.5-0.5
		c-0.2-0.3-0.1-0.5,0.1-1l0.1-0.2c0.1-0.2,0.1-0.5,0-0.5c-0.2-0.6-0.3-1.3-0.3-2.2c0-0.7,0.7-2.1,3-2.1c2.1,0,2.9,1.3,3,2.1
		c0.1,0.9-0.1,1.7-0.3,2.3c0,0.1-0.1,0.3,0,0.5c0,0.1,0.1,0.2,0.1,0.2C22,8.3,22,8.4,21.8,8.7c-0.2,0.3-0.4,0.5-0.5,0.5
		c0,0-0.1,0-0.1,0.1C21,9.5,20.8,9.7,20.8,10c-0.1,0.3-0.3,0.7-0.4,0.9l-0.1,0.2c-0.1,0.2-0.2,0.5-0.2,0.7c0,0.4,0,0.9,0.3,1.3
		c0.4,0.6,1.7,1.7,3.7,2.2c2,0.5,2.5,0.7,2.5,2.1c0,0.3,0.3,0.6,0.6,0.6c0,0,0,0,0,0c0.3,0,0.6-0.3,0.6-0.6c0-2.5-1.6-2.9-3.4-3.3
		c-2.1-0.5-3-1.7-3-1.7c-0.1-0.1-0.1-0.3-0.1-0.6c0,0,0-0.1,0.1-0.2l0.1-0.2c0.1-0.2,0.4-0.8,0.5-1.1c0,0,0-0.1,0.1-0.1
		c0.2-0.1,0.4-0.4,0.8-0.8c0.7-0.9,0.2-1.7,0-2.2l0,0c0.2-0.7,0.4-1.5,0.3-2.5c-0.1-1.3-1.3-3.2-4.2-3.2c-2.7,0-4.1,1.7-4.2,3.2
		c-0.1,1,0.1,1.9,0.3,2.5l0,0.1C14.7,7.7,14.3,8.4,14.9,9.3z"/>
	<path class="st0" d="M35.9,19.2c-0.3,0-0.6,0.3-0.6,0.6c0,0.8-0.6,1.4-1.4,1.4h-3.1c0,0,0,0-0.1,0c0,0-0.1,0-0.1,0c0,0-0.1,0-0.1,0
		c0,0-0.1,0-0.1,0.1c0,0-0.1,0-0.1,0.1c0,0,0,0.1-0.1,0.1c0,0,0,0.1-0.1,0.1c0,0,0,0,0,0C30,22.8,29.5,24,28.9,25c0,0,0,0,0,0
		c0,0,0,0.1,0,0.1c0,0,0,0.1,0,0.1c0,0,0,0.1,0,0.1c0,0,0,0.1,0,0.1c0,0,0,0.1,0,0.1c0,0,0,0.1,0.1,0.1c0,0,0,0,0,0l2.4,2.4
		c0.3,0.3,0.4,0.6,0.4,1c0,0.4-0.1,0.7-0.4,1l-1.1,1.1c-0.5,0.5-1.5,0.5-2,0L26,28.8c0,0,0,0,0,0c0,0-0.1,0-0.1-0.1c0,0-0.1,0-0.1,0
		c0,0-0.1,0-0.1,0c0,0-0.1,0-0.1,0c0,0-0.1,0-0.1,0c0,0-0.1,0-0.1,0c0,0,0,0-0.1,0c-1.1,0.7-2.3,1.2-3.6,1.5c-0.1,0-0.2,0.1-0.3,0.2
		c-0.1,0.1-0.2,0.3-0.2,0.5V34c0,0.8-0.6,1.4-1.4,1.4h-1.5c-0.8,0-1.4-0.6-1.4-1.4l0-3.1c0-0.1,0-0.2-0.1-0.3
		c-0.1-0.2-0.2-0.3-0.4-0.3c-1.2-0.3-2.3-0.7-3.3-1.3c0,0,0,0,0,0c0,0-0.1,0-0.1,0c0,0-0.1,0-0.1,0c0,0-0.1,0-0.1,0c0,0-0.1,0-0.1,0
		c0,0-0.1,0-0.1,0c0,0-0.1,0-0.1,0.1c0,0,0,0,0,0l-2.1,2.1c-0.5,0.5-1.4,0.5-2,0l-1.1-1.1c-0.3-0.3-0.4-0.6-0.4-1
		c0-0.4,0.1-0.7,0.4-1L9.2,26c0,0,0,0,0,0c0,0,0-0.1,0.1-0.1c0,0,0-0.1,0-0.1c0,0,0-0.1,0-0.1c0,0,0-0.1,0-0.1c0,0,0-0.1,0-0.1
		c0,0,0-0.1,0-0.1c0,0,0,0,0-0.1c-0.7-1.1-1.2-2.3-1.5-3.6c0,0,0,0,0,0c0,0,0-0.1-0.1-0.1c0,0,0-0.1-0.1-0.1c0,0-0.1-0.1-0.1-0.1
		c0,0-0.1,0-0.1-0.1c0,0-0.1,0-0.1,0c0,0-0.1,0-0.1,0c0,0,0,0-0.1,0H4.1c-0.8,0-1.4-0.6-1.4-1.4c0-0.3-0.3-0.6-0.6-0.6
		s-0.6,0.3-0.6,0.6c0,1.4,1.2,2.6,2.6,2.6h2.7C7,23.5,7.5,24.5,8,25.5l-1.8,1.8c-0.5,0.5-0.8,1.1-0.8,1.8s0.3,1.3,0.8,1.8L7.4,32
		c0.5,0.5,1.2,0.8,1.8,0.8c0.7,0,1.3-0.3,1.8-0.8l1.8-1.8c0.9,0.5,1.8,0.8,2.8,1.1l0,2.7c0,1.4,1.2,2.6,2.6,2.6h1.5
		c1.4,0,2.6-1.2,2.6-2.6v-2.7c1.1-0.3,2.1-0.7,3.1-1.3l1.9,2c0.5,0.5,1.1,0.8,1.8,0.8s1.3-0.3,1.8-0.8l1.1-1.1
		c0.5-0.5,0.8-1.1,0.8-1.8c0-0.7-0.3-1.3-0.8-1.8l-2-2c0.5-0.9,0.9-1.8,1.1-2.8h2.7c1.4,0,2.6-1.2,2.6-2.6
		C36.5,19.5,36.3,19.2,35.9,19.2z"/>
	<path class="st0" d="M25.5,19.7c-0.3,3.4-3.1,5.9-6.5,5.9c-3.4,0-6.2-2.5-6.5-5.9c0-0.3-0.3-0.6-0.7-0.5c-0.3,0-0.6,0.3-0.5,0.7
		c0.4,4,3.7,6.9,7.7,6.9c4,0,7.3-3,7.7-7c0-0.3-0.2-0.6-0.5-0.7C25.9,19.2,25.6,19.4,25.5,19.7z"/>
</g>
</svg>
