<?xml version="1.0" encoding="utf-8"?>
<!-- Generator: Adobe Illustrator 23.0.1, SVG Export Plug-In . SVG Version: 6.00 Build 0)  -->
<svg version="1.0" id="图层_1" xmlns="http://www.w3.org/2000/svg" xmlns:xlink="http://www.w3.org/1999/xlink" x="0px" y="0px"
	 viewBox="0 0 38 38" style="enable-background:new 0 0 38 38;" xml:space="preserve">
<style type="text/css">
	.st0{fill:#e2edf2;}
</style>
<g>
	<path class="st0" d="M13.7,22.8c0.2-0.3,0.3-0.6,0.4-0.8c0.2-0.1,0.4-0.3,0.6-0.6c0.6-0.8,0.2-1.4,0-1.8c0.1-0.5,0.2-1.1,0.2-1.8
		c-0.1-1-1-2.6-3.3-2.6c-2.2,0-3.2,1.3-3.3,2.6c0,0.7,0.1,1.3,0.2,1.8c-0.2,0.4-0.5,1,0,1.8C8.7,21.8,9,22,9.1,22
		c0.1,0.3,0.2,0.5,0.3,0.7l0.1,0.1c0,0,0,0.1,0,0.1c0,0,0,0.1,0,0c0,0.1,0,0.2,0,0.2c0,0-0.6,0.8-2,1.1c-1.3,0.3-2.7,0.6-2.7,2.6
		c0,0.4,0.4,0.9,0.9,0.9h11.6c0.5,0,0.9-0.4,0.9-0.9c0-2-1.4-2.3-2.7-2.6c-1.4-0.3-2-1.1-2-1.1c0,0,0-0.2,0-0.3 M6.2,26.5
		c0.1-0.4,0.5-0.5,1.6-0.8c1.9-0.4,2.7-1.5,2.8-1.6c0.3-0.4,0.3-0.8,0.3-1.1c0-0.2-0.1-0.4-0.1-0.6c0,0,0-0.1,0-0.1
		c0-0.1-0.1-0.1-0.1-0.2c-0.1-0.1-0.2-0.3-0.2-0.5c-0.1-0.2-0.3-0.5-0.4-0.6c0,0-0.1-0.1-0.1-0.1c-0.1-0.1-0.2-0.1-0.3-0.3
		c-0.1-0.1-0.1-0.1,0.1-0.5L9.8,20c0.1-0.1,0.1-0.4,0-0.6c-0.1-0.4-0.2-0.9-0.2-1.5c0-0.5,0.5-1.3,1.9-1.3c1.5,0,1.9,0.9,1.9,1.3
		c0,0.6-0.1,1.1-0.2,1.6c0,0.2,0,0.4,0.1,0.6l0.1,0.2c0,0.1,0.1,0.2,0.1,0.3c-0.2,0.2-0.3,0.3-0.3,0.3c0,0-0.1,0.1-0.1,0.1
		c-0.1,0.1-0.3,0.4-0.4,0.6c0,0.2-0.2,0.5-0.3,0.6l-0.1,0.2c0,0.1-0.2,0.3-0.2,0.6c0,0.3,0,0.7,0.3,1.1c0.1,0.1,0.9,1.2,2.8,1.6
		c0,0,0,0,0,0c1.1,0.2,1.4,0.4,1.6,0.8H6.2z"/>
	<path class="st0" d="M34.5,5.1h-31c-1.2,0-2.2,1-2.2,2.2v23.5c0,1.2,1,2.2,2.2,2.2h31c1.2,0,2.2-1,2.2-2.2V7.3
		C36.7,6.1,35.7,5.1,34.5,5.1z M3.5,6.5h31c0.4,0,0.8,0.4,0.8,0.8v3.3H2.7V7.3C2.7,6.8,3.1,6.5,3.5,6.5z M34.5,31.5h-31
		c-0.4,0-0.8-0.4-0.8-0.8V11.9h32.6v18.8C35.3,31.2,34.9,31.5,34.5,31.5z"/>
	<path class="st0" d="M33,16.4H22.4c-0.4,0-0.7,0.3-0.7,0.7s0.3,0.7,0.7,0.7H33c0.4,0,0.7-0.3,0.7-0.7S33.4,16.4,33,16.4z"/>
	<path class="st0" d="M33,20.9H22.4c-0.4,0-0.7,0.3-0.7,0.7s0.3,0.7,0.7,0.7H33c0.4,0,0.7-0.3,0.7-0.7S33.4,20.9,33,20.9z"/>
	<path class="st0" d="M33,25.3H22.4c-0.4,0-0.7,0.3-0.7,0.7s0.3,0.7,0.7,0.7H33c0.4,0,0.7-0.3,0.7-0.7S33.4,25.3,33,25.3z"/>
	<path class="st0" d="M4.8,9.3h2c0.4,0,0.7-0.3,0.7-0.7S7.3,7.9,6.9,7.9h-2c-0.4,0-0.7,0.3-0.7,0.7S4.4,9.3,4.8,9.3z"/>
	<path class="st0" d="M9.8,9.3h2c0.4,0,0.7-0.3,0.7-0.7s-0.3-0.7-0.7-0.7h-2c-0.4,0-0.7,0.3-0.7,0.7S9.4,9.3,9.8,9.3z"/>
</g>
</svg>
