<?xml version="1.0" encoding="utf-8"?>
<!-- Generator: Adobe Illustrator 23.0.1, SVG Export Plug-In . SVG Version: 6.00 Build 0)  -->
<svg version="1.0" id="图层_1" xmlns="http://www.w3.org/2000/svg" xmlns:xlink="http://www.w3.org/1999/xlink" x="0px" y="0px"
	 viewBox="0 0 38 38" style="enable-background:new 0 0 38 38;" xml:space="preserve">
<style type="text/css">
	.st0{fill:#e2edf2;}
</style>
<g>
	<path class="st0" d="M29.7,21.9l-1.8-1.3c0,0-0.1-0.1-0.1-0.1V3.9c0-1.5-1.2-2.6-2.7-2.6c0,0-0.1,0-0.1,0L5,5C3.7,5.1,2.4,6.1,2.4,7.6v20.4
		c0,1.3,1,2.4,2.5,2.9l22.4,5.7c0.2,0,0.5,0,0.7,0c0.8,0,1.5-0.2,1.9-0.6c0.5-0.4,0.8-1.1,0.8-1.9V23.7C30.6,23,30.3,22.3,29.7,21.9
		z M29.2,34.2c0,0.4-0.1,0.6-0.3,0.8c-0.3,0.3-0.8,0.3-1.5,0.3L5.2,29.6c-0.7-0.2-1.4-0.8-1.4-1.5V7.6c0-0.7,0.7-1.2,1.4-1.2
		l20.1-3.7c0.7,0,1.2,0.6,1.2,1.2v16.5c0,0.5,0.2,1,0.6,1.3l1.8,1.3c0.2,0.2,0.3,0.4,0.3,0.7V34.2z"/>
	<path class="st0" d="M33,3.9h-3.3c-0.4,0-0.7,0.3-0.7,0.7s0.3,0.7,0.7,0.7H33c0.7,0,1.2,0.6,1.2,1.2v22.6c0,0.7-0.6,1.2-1.2,1.2h-0.7
		c-0.4,0-0.7,0.3-0.7,0.7s0.3,0.7,0.7,0.7H33c1.5,0,2.7-1.2,2.7-2.6V6.6C35.6,5.1,34.5,3.9,33,3.9z"/>
	<path class="st0" d="M15.3,9.6c-4.7,0-8.6,3.8-8.6,8.6c0,4.7,3.8,8.6,8.6,8.6s8.6-3.8,8.6-8.6C23.9,13.5,20.1,9.6,15.3,9.6z M15.3,25.4
		c-4,0-7.2-3.2-7.2-7.2s3.2-7.2,7.2-7.2s7.2,3.2,7.2,7.2S19.3,25.4,15.3,25.4z"/>
	<path class="st0" d="M19.7,17.2L14,13.4c-0.4-0.2-0.8-0.2-1.2,0c-0.4,0.2-0.6,0.6-0.6,1V22c0,0.4,0.2,0.8,0.6,1c0.2,0.1,0.4,0.2,0.6,0.2
		c0.2,0,0.4-0.1,0.6-0.2l5.7-3.8c0.4-0.2,0.6-0.6,0.6-1C20.3,17.8,20.1,17.4,19.7,17.2z M13.6,21.6v-6.8l5.1,3.4L13.6,21.6z"/>
</g>
</svg>
