<?xml version="1.0" encoding="utf-8"?>
<!-- Generator: Adobe Illustrator 23.0.1, SVG Export Plug-In . SVG Version: 6.00 Build 0)  -->
<svg version="1.0" id="图层_1" xmlns="http://www.w3.org/2000/svg" xmlns:xlink="http://www.w3.org/1999/xlink" x="0px" y="0px"
	 viewBox="0 0 38 38" style="enable-background:new 0 0 38 38;" xml:space="preserve">
<style type="text/css">
	.st0{fill:#e2edf2;}
</style>
<g>
	<path class="st0" d="M9.8,16.8c0,0.4,0.3,0.7,0.7,0.7s0.7-0.3,0.7-0.7c0-3.5,2.7-6.3,6.1-6.3c0.4,0,0.7-0.3,0.7-0.7s-0.3-0.7-0.7-0.7
		C13.2,9.2,9.8,12.6,9.8,16.8z"/>
	<path class="st0" d="M23.2,30.2h-17V16.8c0-6,4.7-10.8,10.5-10.8c3.2,0,6.2,1.5,8.2,4.1c0.1,0.2,0.3,0.3,0.6,0.3c0.1,0,0.3,0,0.4-0.1
		c0.3-0.2,0.4-0.7,0.1-1c-1.3-1.6-2.9-2.9-4.7-3.7c-0.2-2.4-2.2-4.3-4.7-4.3c-2.4,0-4.4,1.9-4.7,4.3c-4.3,1.9-7.3,6.2-7.3,11.2v13.4
		H2c-0.4,0-0.7,0.3-0.7,0.7s0.3,0.7,0.7,0.7h9c0.3,2.9,2.7,5.1,5.7,5.1s5.3-2.2,5.7-5.1h0.8c0.4,0,0.7-0.3,0.7-0.7
		S23.5,30.2,23.2,30.2z M16.7,2.7c1.5,0,2.7,1,3.1,2.3c-1-0.3-2.1-0.4-3.1-0.4c-1.1,0-2.1,0.2-3.1,0.4C14,3.7,15.2,2.7,16.7,2.7z
		 M16.7,35.3c-2.1,0-3.9-1.6-4.2-3.7h8.5C20.6,33.7,18.8,35.3,16.7,35.3z"/>
	<path class="st0" d="M35,19.2h-1.1c-0.1-0.3-0.2-0.7-0.4-1l0.9-0.9c0.7-0.7,0.7-1.8,0-2.5l-0.6-0.6c-0.7-0.7-1.8-0.7-2.5,0l-0.8,0.8
		c-0.4-0.2-0.7-0.4-1.1-0.5v-1.1c0-1-0.8-1.7-1.7-1.7h-0.8c-1,0-1.7,0.8-1.7,1.7v1.1c-0.3,0.1-0.7,0.2-1,0.4l-0.8-0.8
		c-0.3-0.3-0.8-0.5-1.2-0.5c0,0,0,0,0,0c-0.5,0-0.9,0.2-1.2,0.5l-0.6,0.6c-0.7,0.7-0.7,1.8,0,2.5l0.7,0.7c-0.2,0.4-0.4,0.7-0.5,1.1
		h-1.1c-1,0-1.7,0.8-1.7,1.7v0.8c0,1,0.8,1.7,1.7,1.7h1.1c0.1,0.4,0.3,0.8,0.5,1.1l-0.7,0.7c-0.7,0.7-0.7,1.8,0,2.5l0.6,0.6
		c0.3,0.3,0.8,0.5,1.2,0.5c0,0,0,0,0,0c0.5,0,0.9-0.2,1.2-0.5l0.8-0.8c0.3,0.2,0.6,0.3,1,0.4v1.1c0,1,0.8,1.7,1.7,1.7h0.8
		c1,0,1.7-0.8,1.7-1.7v-1.1c0.4-0.1,0.8-0.3,1.1-0.5l0.8,0.9c0.3,0.3,0.8,0.5,1.2,0.5c0.5,0,0.9-0.2,1.2-0.5l0.6-0.6
		c0.7-0.7,0.7-1.8,0-2.5l-0.9-0.9c0.2-0.3,0.3-0.6,0.4-1H35c1,0,1.7-0.8,1.7-1.7V21C36.7,20,35.9,19.2,35,19.2z M35.3,21.8
		c0,0.2-0.2,0.3-0.3,0.3h-1.6c0,0,0,0-0.1,0c0,0-0.1,0-0.1,0c0,0-0.1,0-0.1,0c0,0-0.1,0-0.1,0.1c0,0-0.1,0.1-0.1,0.1
		c0,0,0,0.1-0.1,0.1c0,0,0,0.1-0.1,0.1c0,0,0,0,0,0.1c-0.1,0.6-0.4,1.1-0.7,1.6c0,0,0,0,0,0c0,0,0,0.1,0,0.1c0,0,0,0.1,0,0.1
		c0,0,0,0.1,0,0.1c0,0,0,0.1,0,0.1c0,0,0,0.1,0.1,0.1c0,0,0,0.1,0.1,0.1c0,0,0,0,0,0l1.2,1.2c0.1,0.1,0.1,0.4,0,0.5l-0.6,0.6
		c-0.2,0.2-0.3,0.2-0.5,0l-1.2-1.2c0,0,0,0-0.1,0c0,0-0.1-0.1-0.1-0.1c0,0-0.1,0-0.1-0.1c0,0-0.1,0-0.1,0c0,0-0.1,0-0.1,0
		c0,0-0.1,0-0.1,0c0,0-0.1,0-0.1,0.1c0,0,0,0-0.1,0c-0.5,0.4-1.1,0.6-1.8,0.8c0,0,0,0-0.1,0c0,0-0.1,0-0.1,0.1c0,0-0.1,0-0.1,0.1
		c0,0-0.1,0.1-0.1,0.1c0,0-0.1,0.1-0.1,0.1c0,0,0,0.1,0,0.1c0,0,0,0.1,0,0.1c0,0,0,0,0,0.1v1.6c0,0.2-0.2,0.3-0.3,0.3h-0.8
		c-0.2,0-0.3-0.2-0.3-0.3v-1.6c0,0,0,0,0-0.1c0,0,0-0.1,0-0.1c0,0,0-0.1,0-0.1c0,0,0-0.1-0.1-0.1c0,0-0.1-0.1-0.1-0.1
		c0,0-0.1,0-0.1-0.1c0,0-0.1,0-0.1-0.1c0,0,0,0-0.1,0c-0.6-0.1-1.1-0.4-1.6-0.7c0,0,0,0-0.1,0c0,0-0.1,0-0.1,0c0,0-0.1,0-0.1,0
		c0,0-0.1,0-0.1,0c0,0-0.1,0-0.1,0c0,0-0.1,0-0.1,0.1c0,0-0.1,0-0.1,0.1c0,0,0,0,0,0l-1.1,1.1c-0.1,0.1-0.2,0.1-0.2,0.1h0
		c-0.1,0-0.2,0-0.2-0.1l-0.6-0.6c-0.1-0.1-0.1-0.4,0-0.5l1.1-1.1c0,0,0,0,0-0.1c0,0,0.1-0.1,0.1-0.1c0,0,0-0.1,0.1-0.1
		c0,0,0-0.1,0-0.1c0,0,0-0.1,0-0.1c0,0,0-0.1,0-0.1c0,0,0-0.1-0.1-0.1c0,0,0,0,0-0.1c-0.3-0.5-0.6-1.1-0.7-1.8c0,0,0,0,0-0.1
		c0,0,0-0.1-0.1-0.1c0,0,0-0.1-0.1-0.1c0,0-0.1-0.1-0.1-0.1c0,0-0.1-0.1-0.1-0.1c0,0-0.1,0-0.1,0c0,0-0.1,0-0.1,0c0,0,0,0-0.1,0
		h-1.6c-0.2,0-0.3-0.2-0.3-0.3V21c0-0.2,0.2-0.3,0.3-0.3H21c0,0,0,0,0,0c0,0,0,0,0,0c0.1,0,0.2,0,0.3-0.1c0,0,0,0,0.1,0
		c0,0,0.1-0.1,0.1-0.1c0,0,0,0,0.1-0.1c0,0,0.1-0.1,0.1-0.1c0,0,0-0.1,0-0.1c0,0,0,0,0-0.1c0.1-0.6,0.4-1.2,0.7-1.8c0,0,0,0,0-0.1
		c0,0,0-0.1,0.1-0.1c0,0,0-0.1,0-0.1c0,0,0-0.1,0-0.1c0,0,0-0.1,0-0.1c0,0,0-0.1-0.1-0.1c0,0,0-0.1-0.1-0.1c0,0,0,0,0-0.1l-1.1-1.1
		c-0.1-0.1-0.1-0.4,0-0.5l0.6-0.6c0.1-0.1,0.2-0.1,0.2-0.1h0c0.1,0,0.2,0,0.2,0.1l1.1,1.1c0,0,0.1,0,0.1,0.1c0,0,0.1,0.1,0.1,0.1
		c0,0,0,0,0.1,0c0.1,0,0.1,0.1,0.2,0.1c0.1,0,0.2,0,0.2-0.1c0,0,0,0,0,0c0,0,0.1,0,0.1,0c0.5-0.3,1-0.5,1.6-0.7c0,0,0,0,0.1,0
		c0,0,0.1,0,0.1-0.1c0,0,0.1,0,0.1-0.1c0,0,0.1-0.1,0.1-0.1c0,0,0.1-0.1,0.1-0.1c0,0,0-0.1,0-0.1c0,0,0-0.1,0-0.1c0,0,0,0,0-0.1
		v-1.6c0-0.2,0.2-0.3,0.3-0.3h0.8c0.2,0,0.3,0.2,0.3,0.3v1.6c0,0,0,0,0,0.1c0,0,0,0.1,0,0.1c0,0,0,0.1,0,0.1c0,0,0,0.1,0.1,0.1
		c0,0,0.1,0.1,0.1,0.1c0,0,0.1,0.1,0.1,0.1c0,0,0.1,0,0.1,0.1c0,0,0,0,0.1,0c0.6,0.1,1.2,0.4,1.8,0.7c0,0,0.1,0,0.1,0c0,0,0,0,0.1,0
		c0.1,0,0.2,0,0.2,0c0,0,0,0,0,0c0.1,0,0.2,0,0.3-0.1c0,0,0.1,0,0.1-0.1c0,0,0.1,0,0.1-0.1l1.2-1.2c0.2-0.2,0.3-0.2,0.5,0l0.6,0.6
		c0.1,0.1,0.1,0.4,0,0.5l-1.2,1.2c0,0,0,0,0,0c0,0-0.1,0.1-0.1,0.1c0,0,0,0.1-0.1,0.1c0,0,0,0.1,0,0.1c0,0,0,0.1,0,0.1
		c0,0,0,0.1,0,0.1c0,0,0,0.1,0,0.1c0,0,0,0,0,0c0.3,0.5,0.5,1,0.6,1.6c0,0,0,0,0,0.1c0,0,0,0.1,0,0.1c0,0,0.1,0.1,0.1,0.1
		c0,0,0,0.1,0.1,0.1c0,0,0.1,0.1,0.1,0.1c0,0,0,0,0.1,0c0.1,0,0.2,0.1,0.3,0.1c0,0,0,0,0,0c0,0,0,0,0,0H35c0.2,0,0.3,0.2,0.3,0.3
		V21.8z"/>
	<path class="st0" d="M27.2,17c-2.4,0-4.3,1.9-4.3,4.3c0,2.4,1.9,4.3,4.3,4.3s4.3-1.9,4.3-4.3C31.5,19,29.5,17,27.2,17z M27.2,24.3
		c-1.6,0-2.9-1.3-2.9-2.9c0-1.6,1.3-2.9,2.9-2.9s2.9,1.3,2.9,2.9C30.1,23,28.8,24.3,27.2,24.3z"/>
</g>
</svg>
