<?xml version="1.0" encoding="utf-8"?>
<!-- Generator: Adobe Illustrator 23.0.1, SVG Export Plug-In . SVG Version: 6.00 Build 0)  -->
<svg version="1.0" id="图层_1" xmlns="http://www.w3.org/2000/svg" xmlns:xlink="http://www.w3.org/1999/xlink" x="0px" y="0px"
	 viewBox="0 0 38 38" style="enable-background:new 0 0 38 38;" xml:space="preserve">
<style type="text/css">
	.st0{fill:#e2edf2;}
</style>
<g>
	<path class="st0" d="M29.3,32.9c-0.4,0-0.7,0.3-0.7,0.7v0.9c0,0.4-0.4,0.8-0.8,0.8H4.4c-0.4,0-0.8-0.4-0.8-0.8V8.6H7c0,0,0,0,0,0c0,0,0,0,0,0
		c1.5,0,2.7-1.2,2.7-2.7V2.7h18c0.4,0,0.8,0.4,0.8,0.8V14c0,0.4,0.3,0.7,0.7,0.7S30,14.4,30,14V3.5c0-1.2-1-2.2-2.2-2.2H9.1
		c0,0-0.1,0-0.1,0c-0.1,0-0.1,0-0.2,0c-0.1,0-0.1,0.1-0.1,0.1c0,0-0.1,0-0.1,0.1L2.4,7.4c0,0,0,0,0,0c0,0-0.1,0.1-0.1,0.2
		c0,0,0,0,0,0.1c0,0,0,0.1,0,0.1c0,0.1,0,0.1,0,0.2c0,0,0,0,0,0v26.6c0,1.2,1,2.2,2.2,2.2h23.5c1.2,0,2.2-1,2.2-2.2v-0.9
		C30,33.2,29.7,32.9,29.3,32.9z M7,7.2C7,7.2,7,7.2,7,7.2C7,7.2,7,7.2,7,7.2H4.6l3.8-3.6v2.2C8.4,6.6,7.8,7.2,7,7.2z"/>
	<path class="st0" d="M25.4,12.2c0-0.4-0.3-0.7-0.7-0.7H7.5c-0.4,0-0.7,0.3-0.7,0.7s0.3,0.7,0.7,0.7h17.2C25.1,12.9,25.4,12.6,25.4,12.2z"/>
	<path class="st0" d="M21.5,17.8c0-0.4-0.3-0.7-0.7-0.7H7.5c-0.4,0-0.7,0.3-0.7,0.7s0.3,0.7,0.7,0.7h13.3C21.2,18.5,21.5,18.2,21.5,17.8z"/>
	<path class="st0" d="M18.1,22.7H7.5c-0.4,0-0.7,0.3-0.7,0.7s0.3,0.7,0.7,0.7h10.5c0.4,0,0.7-0.3,0.7-0.7S18.5,22.7,18.1,22.7z"/>
	<path class="st0" d="M18.1,28.3H7.5c-0.4,0-0.7,0.3-0.7,0.7s0.3,0.7,0.7,0.7h10.5c0.4,0,0.7-0.3,0.7-0.7S18.5,28.3,18.1,28.3z"/>
	<path class="st0" d="M28,23c0.1-0.8,0.7-1.4,1.5-1.6c0.4-0.1,0.6-0.5,0.5-0.8c-0.1-0.4-0.5-0.6-0.8-0.5c-1.3,0.3-2.3,1.4-2.5,2.7
		c-0.1,0.4,0.2,0.7,0.6,0.8c0,0,0.1,0,0.1,0C27.6,23.5,27.9,23.3,28,23z"/>
	<path class="st0" d="M35.1,27.6h-0.9v-4.7c0-2.8-2.3-5.1-5-5.1c-2.8,0-5,2.3-5,5.1v4.7h-0.6c-0.4,0-0.7,0.3-0.7,0.7s0.3,0.7,0.7,0.7h3.2
		c0.3,1.1,1.3,2,2.5,2c1.2,0,2.2-0.8,2.5-2h3.4c0.4,0,0.7-0.3,0.7-0.7S35.5,27.6,35.1,27.6z M25.6,22.8c0-2.1,1.6-3.7,3.6-3.7
		s3.6,1.7,3.6,3.7v4.7h-7.3V22.8z M29.2,29.5c-0.4,0-0.8-0.2-1-0.6h2C30,29.3,29.6,29.5,29.2,29.5z"/>
</g>
</svg>
