<?xml version="1.0" encoding="utf-8"?>
<!-- Generator: Adobe Illustrator 23.0.1, SVG Export Plug-In . SVG Version: 6.00 Build 0)  -->
<svg version="1.0" id="图层_1" xmlns="http://www.w3.org/2000/svg" xmlns:xlink="http://www.w3.org/1999/xlink" x="0px" y="0px"
	 viewBox="0 0 38 38" style="enable-background:new 0 0 38 38;" xml:space="preserve">
<style type="text/css">
	.st0{fill:#e2edf2;}
</style>
<g>
	<path class="st0" d="M21.8,7.3C21.8,7.4,21.7,7.4,21.8,7.3c0,0.1,0,0.1,0,0.1c0,0,0,0.1,0,0.1c0,0,0,0.1,0,0.1c0,0,0,0.1,0.1,0.1
		c0,0,0.1,0.1,0.1,0.1c0,0,0,0,0,0c0,0,0.1,0,0.1,0.1c0,0,0.1,0,0.1,0c0.1,0,0.2,0.1,0.3,0.1h1.9v9c0,0.4,0.3,0.7,0.7,0.7
		s0.7-0.3,0.7-0.7V7.4c0-0.4-0.3-0.7-0.7-0.7h-1.1l2.9-3.6l2.9,3.6h-1.1c-0.4,0-0.7,0.3-0.7,0.7v12.3c0,0.4,0.3,0.7,0.7,0.7
		s0.7-0.3,0.7-0.7V8.1h1.9c0.1,0,0.2,0,0.3-0.1c0,0,0.1,0,0.1,0c0,0,0.1,0,0.1-0.1c0,0,0,0,0,0c0,0,0.1-0.1,0.1-0.1
		c0,0,0-0.1,0.1-0.1c0,0,0-0.1,0-0.1c0,0,0-0.1,0-0.1c0,0,0,0,0,0c0,0,0-0.1,0-0.1c0,0,0-0.1,0-0.1c0,0,0-0.1-0.1-0.1
		c0,0,0-0.1,0-0.1l-4.4-5.4c0,0,0,0-0.1,0c0,0,0,0,0-0.1c0,0,0,0-0.1,0c0,0-0.1,0-0.1-0.1c0,0-0.1,0-0.1,0c0,0-0.1,0-0.1,0
		c0,0-0.1,0-0.1,0c0,0-0.1,0-0.1,0c0,0-0.1,0-0.1,0.1c0,0,0,0-0.1,0c0,0,0,0,0,0.1c0,0,0,0-0.1,0L21.9,7c0,0,0,0.1,0,0.1
		c0,0-0.1,0.1-0.1,0.1C21.8,7.2,21.8,7.3,21.8,7.3z"/>
	<path class="st0" d="M13.5,12.5C13.5,12.5,13.5,12.6,13.5,12.5c0,0.1,0,0.1,0,0.1c0,0,0,0.1,0,0.1c0,0,0,0.1,0,0.1c0,0,0,0.1,0.1,0.1
		c0,0,0.1,0.1,0.1,0.1c0,0,0,0,0,0c0,0,0.1,0,0.1,0.1c0,0,0.1,0,0.1,0c0.1,0,0.2,0.1,0.3,0.1c0,0,0,0,0,0s0,0,0,0h1.4v4.1
		c0,0.4,0.3,0.7,0.7,0.7s0.7-0.3,0.7-0.7v-4.8c0-0.4-0.3-0.7-0.7-0.7h-0.6l2.1-2.5l2.1,2.5h-0.6c-0.4,0-0.7,0.3-0.7,0.7v4.8
		c0,0.4,0.3,0.7,0.7,0.7s0.7-0.3,0.7-0.7v-4.1h1.4c0.1,0,0.2,0,0.3-0.1c0,0,0.1,0,0.1,0c0,0,0.1,0,0.1-0.1c0,0,0,0,0,0
		c0,0,0.1-0.1,0.1-0.1c0,0,0.1-0.1,0.1-0.1c0,0,0-0.1,0-0.1c0,0,0-0.1,0-0.1c0,0,0,0,0,0c0,0,0-0.1,0-0.1c0,0,0-0.1,0-0.1
		c0,0,0-0.1-0.1-0.1c0,0,0-0.1,0-0.1l-3.5-4.3c0,0,0,0-0.1,0c0,0,0,0,0-0.1c0,0,0,0-0.1,0c0,0-0.1,0-0.1-0.1c0,0-0.1,0-0.1,0
		c0,0-0.1,0-0.1,0c0,0-0.1,0-0.1,0c0,0-0.1,0-0.1,0c0,0-0.1,0-0.1,0.1c0,0,0,0-0.1,0c0,0,0,0,0,0.1c0,0,0,0-0.1,0l-3.5,4.3
		c0,0,0,0.1,0,0.1c0,0-0.1,0.1-0.1,0.1C13.5,12.4,13.5,12.4,13.5,12.5z"/>
	<path class="st0" d="M22,26.3c-2.1,0.3-4.4,0.4-6.7,0.3c-0.4,0-0.7,0.3-0.7,0.7c0,0.4,0.3,0.7,0.7,0.7c0.7,0,1.4,0.1,2.2,0.1
		c1.7,0,3.3-0.1,4.9-0.4c0.4-0.1,0.6-0.4,0.6-0.8C22.7,26.5,22.4,26.2,22,26.3z"/>
	<path class="st0" d="M30.5,19.5c-0.3,0.2-0.5,0.6-0.3,0.9c0.2,0.3,0.2,0.6,0.2,0.9c0,0.4,0.3,0.7,0.7,0.7s0.7-0.3,0.7-0.7
		c0-0.5-0.1-1.1-0.4-1.6C31.3,19.5,30.8,19.3,30.5,19.5z"/>
	<path class="st0" d="M23.5,16.1c0.1-0.4-0.2-0.7-0.6-0.8c-0.5-0.1-1-0.2-1.5-0.2c-0.4-0.1-0.7,0.2-0.8,0.6c0,0.4,0.2,0.7,0.6,0.8
		c0.5,0.1,1,0.1,1.4,0.2c0,0,0.1,0,0.1,0C23.2,16.7,23.5,16.4,23.5,16.1z"/>
	<path class="st0" d="M4.5,19.9c0.2,0,0.4-0.1,0.5-0.2c1.4-1.5,4.4-2.7,8-3.2c0.4-0.1,0.6-0.4,0.6-0.8c-0.1-0.4-0.4-0.6-0.8-0.6
		c-4,0.6-7.2,1.9-8.9,3.6c-0.3,0.3-0.2,0.7,0,1C4.2,19.8,4.4,19.9,4.5,19.9z"/>
	<path class="st0" d="M23.3,34.7c-1.9,0.5-4.3,0.6-6,0.6c-1,0-1.9,0-2.9-0.1c-0.4,0-0.7,0.2-0.8,0.6c0,0.4,0.2,0.7,0.6,0.8c1,0.1,2,0.1,3,0.1
		c1.9,0,4.4-0.1,6.4-0.7c0.4-0.1,0.6-0.5,0.5-0.9C24.1,34.8,23.7,34.6,23.3,34.7z"/>
	<path class="st0" d="M12.7,27.2l5.1-5.3c0,0,0,0,0,0l0,0c0,0,0,0,0-0.1c0-0.1,0.1-0.1,0.1-0.2c0-0.1,0-0.1,0-0.2c0,0,0-0.1,0-0.1c0,0,0,0,0,0
		c0-0.1,0-0.1,0-0.2c0,0,0,0,0-0.1c0,0,0,0,0,0c0-0.1-0.1-0.1-0.1-0.2c0,0,0,0,0,0c0,0-0.1,0-0.1,0c0,0-0.1-0.1-0.1-0.1
		c-0.1,0-0.1,0-0.2,0c0,0-0.1,0-0.1,0H3.5c-0.4,0-0.7,0.3-0.7,0.7v8.7c0,1.9,1.7,3.7,4.7,4.9C7.6,35,7.7,35,7.8,35
		c0.3,0,0.5-0.2,0.6-0.4c0.1-0.4,0-0.8-0.4-0.9c-2.4-1-3.8-2.3-3.8-3.6v-5.7c1.4,1.4,3.9,2.5,7.1,3.1v7.2c-0.6-0.1-1.2-0.3-1.7-0.4
		c-0.4-0.1-0.8,0.1-0.9,0.5c-0.1,0.4,0.1,0.8,0.5,0.9c0.8,0.3,1.8,0.5,2.7,0.6c0,0,0.1,0,0.1,0c0,0,0,0,0,0c0,0,0,0,0,0
		c0.1,0,0.2,0,0.2,0c0,0,0.1,0,0.1-0.1c0,0,0.1,0,0.1-0.1c0,0,0-0.1,0.1-0.1c0,0,0.1-0.1,0.1-0.1c0,0,0-0.1,0-0.1c0,0,0-0.1,0-0.1
		c0,0,0,0,0-0.1c0,0,0,0,0-0.1V27.2z M4.4,22.1h11.3l-3.9,4C7.9,25.4,5,23.8,4.4,22.1z"/>
	<path class="st0" d="M27.8,28.1c0-1,0.8-1.8,1.8-1.8c0.4,0,0.7-0.3,0.7-0.7s-0.3-0.7-0.7-0.7c-1.7,0-3.2,1.4-3.2,3.2c0,0.4,0.3,0.7,0.7,0.7
		S27.8,28.5,27.8,28.1z"/>
	<path class="st0" d="M34.5,31.9h-0.8v-4.4c0-2.7-2.1-4.9-4.8-4.9s-4.8,2.2-4.8,4.9v4.4h-0.6c-0.4,0-0.7,0.3-0.7,0.7s0.3,0.7,0.7,0.7h2.9
		c0.3,1.1,1.3,1.9,2.4,1.9s2.1-0.8,2.4-1.9h3.1c0.4,0,0.7-0.3,0.7-0.7S34.9,31.9,34.5,31.9z M25.5,27.6c0-1.9,1.5-3.5,3.4-3.5
		s3.4,1.6,3.4,3.5v4.4h-6.7V27.6z M28.9,33.8c-0.4,0-0.7-0.2-0.9-0.5h1.7C29.6,33.6,29.3,33.8,28.9,33.8z"/>
</g>
</svg>
