<?xml version="1.0" encoding="utf-8"?>
<!-- Generator: Adobe Illustrator 23.0.1, SVG Export Plug-In . SVG Version: 6.00 Build 0)  -->
<svg version="1.0" id="图层_1" xmlns="http://www.w3.org/2000/svg" xmlns:xlink="http://www.w3.org/1999/xlink" x="0px" y="0px"
	 viewBox="0 0 38 38" style="enable-background:new 0 0 38 38;" xml:space="preserve">
<style type="text/css">
	.st0{fill:#e2edf2;}
</style>
	<g>
	<path class="st0" d="M11.3,16.8c0,0.4,0.3,0.7,0.7,0.7s0.7-0.3,0.7-0.7c0-3.5,2.7-6.3,6.1-6.3c0.4,0,0.7-0.3,0.7-0.7s-0.3-0.7-0.7-0.7
		C14.6,9.1,11.3,12.6,11.3,16.8z"/>
	<path class="st0" d="M24.6,30.2h-17V16.8c0-6,4.7-10.8,10.5-10.8c4,0,7.6,2.3,9.4,6c0.1,0.2,0.4,0.4,0.6,0.4c0.1,0,0.2,0,0.3-0.1
		c0.3-0.2,0.5-0.6,0.3-0.9c-1.3-2.7-3.4-4.7-6-5.8c-0.2-2.4-2.2-4.3-4.7-4.3c-2.4,0-4.4,1.9-4.7,4.3c-4.3,1.9-7.3,6.2-7.3,11.2v13.4
		H3.4c-0.4,0-0.7,0.3-0.7,0.7s0.3,0.7,0.7,0.7h9c0.3,2.9,2.7,5.1,5.7,5.1c2.9,0,5.3-2.2,5.7-5.1h0.8c0.4,0,0.7-0.3,0.7-0.7
		S25,30.2,24.6,30.2z M18.1,2.7c1.5,0,2.7,1,3.1,2.3c-1-0.3-2.1-0.4-3.1-0.4C17,4.6,16,4.8,15,5C15.4,3.7,16.6,2.7,18.1,2.7z
		 M18.1,35.3c-2.1,0-3.9-1.6-4.2-3.7h8.5C22,33.7,20.3,35.3,18.1,35.3z"/>
	<path class="st0" d="M23,13.7c-1.4,0-2.6,1.1-2.6,2.6s1.1,2.6,2.6,2.6c1.2,0,2.1-0.8,2.5-1.9h9.1c0.4,0,0.7-0.3,0.7-0.7s-0.3-0.7-0.7-0.7h-9.1
		C25.1,14.5,24.2,13.7,23,13.7z M23,17.5c-0.6,0-1.2-0.5-1.2-1.2s0.5-1.2,1.2-1.2s1.2,0.5,1.2,1.2S23.6,17.5,23,17.5z"/>
	<path class="st0" d="M32.6,24c-1.2,0-2.1,0.8-2.5,1.9h-9c-0.4,0-0.7,0.3-0.7,0.7s0.3,0.7,0.7,0.7h9c0.3,1.1,1.3,1.9,2.5,1.9
		c1.4,0,2.6-1.1,2.6-2.6S34,24,32.6,24z M32.6,27.7c-0.6,0-1.2-0.5-1.2-1.2s0.5-1.2,1.2-1.2s1.2,0.5,1.2,1.2S33.2,27.7,32.6,27.7z"
		/>
	<path class="st0" d="M34.6,20.7h-3.9c-0.3-1.1-1.3-1.9-2.5-1.9s-2.1,0.8-2.5,1.9h-4.5c-0.4,0-0.7,0.3-0.7,0.7s0.3,0.7,0.7,0.7h4.5
		c0.3,1.1,1.3,1.9,2.5,1.9s2.1-0.8,2.5-1.9h3.9c0.4,0,0.7-0.3,0.7-0.7S34.9,20.7,34.6,20.7z M28.2,22.6c-0.6,0-1.2-0.5-1.2-1.2
		s0.5-1.2,1.2-1.2s1.2,0.5,1.2,1.2S28.9,22.6,28.2,22.6z"/>
</g>
</svg>
