<?xml version="1.0" encoding="utf-8"?>
<!-- Generator: Adobe Illustrator 23.0.1, SVG Export Plug-In . SVG Version: 6.00 Build 0)  -->
<svg version="1.0" id="图层_1" xmlns="http://www.w3.org/2000/svg" xmlns:xlink="http://www.w3.org/1999/xlink" x="0px" y="0px"
	 viewBox="0 0 38 38" style="enable-background:new 0 0 38 38;" xml:space="preserve">
<style type="text/css">
	.st0{fill:#e2edf2;}
</style>
<g>
	<path class="st0" d="M29.8,15.1l-2.1,2.6c-0.2,0.2-0.2,0.5-0.1,0.7s0.4,0.4,0.6,0.4h2.6c0.4,0,0.7-0.3,0.7-0.7s-0.3-0.7-0.7-0.7h-1.1l1.2-1.5
		c0.3-0.3,0.4-0.8,0.4-1.2v-0.2c0-1-0.8-1.8-1.8-1.8s-1.8,0.8-1.8,1.8c0,0.4,0.3,0.7,0.7,0.7S29,15,29,14.6c0-0.2,0.2-0.4,0.4-0.4
		s0.4,0.2,0.4,0.4v0.2C29.9,14.9,29.8,15,29.8,15.1z"/>
	<path class="st0" d="M18.7,10.5c0.4,0,0.7-0.3,0.7-0.7s-0.3-0.7-0.7-0.7c-4.2,0-7.5,3.4-7.5,7.7c0,0.4,0.3,0.7,0.7,0.7s0.7-0.3,0.7-0.7
		C12.6,13.3,15.3,10.5,18.7,10.5z"/>
	<path class="st0" d="M33.4,30.2H30v-8c3-0.3,5.4-2.9,5.4-6c0-3.4-2.7-6.1-6.1-6.1c-0.4,0-0.8,0-1.3,0.1c-0.3-0.4-0.7-1.1-1.1-1.5
		c-1.2-1.3-2.6-2.3-4.2-3c-0.2-2.4-2.2-4.3-4.7-4.3c-2.4,0-4.4,1.9-4.7,4.3c-4.3,1.9-7.3,6.2-7.3,11.2v13.4H3.3
		c-0.4,0-0.7,0.3-0.7,0.7s0.3,0.7,0.7,0.7h9.1c0.3,2.9,2.8,5.1,5.7,5.1c2.9,0,5.3-2.2,5.7-5.1h9.7c0.4,0,0.7-0.3,0.7-0.7
		S33.8,30.2,33.4,30.2z M34,16.1c0,2.6-2.1,4.7-4.7,4.7s-4.7-2.1-4.7-4.7c0-2.6,2.1-4.7,4.7-4.7S34,13.5,34,16.1z M18,2.7
		c1.5,0,2.7,1,3.2,2.3c-1-0.3-2.1-0.5-3.2-0.5c-1.1,0-2.1,0.2-3.2,0.4C15.3,3.7,16.6,2.7,18,2.7z M7.5,16.8C7.5,10.8,12.2,6,18,6
		c3,0,5.8,1.3,7.8,3.5c0.3,0.3,0.6,0.7,0.8,1.1c-2,1-3.5,3.1-3.5,5.5c0,3.1,2.4,5.7,5.4,6v8H7.5V16.8z M18,35.3
		c-2.1,0-3.9-1.6-4.2-3.7h8.5C22,33.7,20.2,35.3,18,35.3z"/>
</g>
</svg>
