<?xml version="1.0" encoding="utf-8"?>
<!-- Generator: Adobe Illustrator 23.0.1, SVG Export Plug-In . SVG Version: 6.00 Build 0)  -->
<svg version="1.0" id="图层_1" xmlns="http://www.w3.org/2000/svg" xmlns:xlink="http://www.w3.org/1999/xlink" x="0px" y="0px"
	 viewBox="0 0 38 38" style="enable-background:new 0 0 38 38;" xml:space="preserve">
<style type="text/css">
	.st0{fill:#e2edf2;}
</style>
<g>
	<path class="st0" d="M34.7,16.7h-6.9V9.8c0-0.3-0.3-0.6-0.6-0.6c-4.5,0-8.1,3.6-8.1,8.1c0,4.5,3.6,8.1,8.1,8.1s8.1-3.6,8.1-8.1
		C35.3,16.9,35,16.7,34.7,16.7z M27.2,24.2c-3.8,0-6.9-3.1-6.9-6.9c0-3.6,2.8-6.6,6.3-6.9v6.9c0,0.3,0.3,0.6,0.6,0.6h6.9
		C33.8,21.4,30.8,24.2,27.2,24.2z"/>
	<path class="st0" d="M29.1,8.1c-0.3,0-0.6,0.3-0.6,0.6v6.8c0,0.3,0.3,0.6,0.6,0.6h6.7c0.3,0,0.6-0.3,0.6-0.6
		C36.3,11.3,33.1,8.1,29.1,8.1z M35.1,14.8h-5.4V9.3C32.6,9.6,34.8,11.9,35.1,14.8z"/>
	<path class="st0" d="M29.1,26.5c-0.3,0-0.6,0.3-0.6,0.6v8.1c0,0.1-0.1,0.2-0.2,0.2H6H3.1c-0.1,0-0.2-0.1-0.2-0.2v-4V8.7v-4
		c0-0.1,0.1-0.2,0.2-0.2H6h2v0.3c0,0.9,0.7,1.6,1.6,1.6h10.9c0.9,0,1.6-0.7,1.6-1.6V4.5h3.3h2.9c0.1,0,0.2,0.1,0.2,0.2V6
		c0,0.3,0.3,0.6,0.6,0.6s0.6-0.3,0.6-0.6V4.7c0-0.8-0.6-1.4-1.4-1.4h-2.9h-3.3V3c0-0.9-0.7-1.6-1.6-1.6H9.6C8.7,1.4,8,2.1,8,3v0.3H6
		H3.1c-0.8,0-1.4,0.6-1.4,1.4v4v22.6v4c0,0.8,0.6,1.4,1.4,1.4H6h22.3c0.8,0,1.4-0.6,1.4-1.4v-8.1C29.7,26.8,29.4,26.5,29.1,26.5z
		 M9.6,2.6h10.9c0.2,0,0.4,0.2,0.4,0.4v1.8c0,0.2-0.2,0.4-0.4,0.4H9.6C9.3,5.2,9.2,5,9.2,4.8V4c0,0,0,0,0-0.1s0,0,0-0.1V3
		C9.2,2.8,9.3,2.6,9.6,2.6z"/>
	<path class="st0" d="M10.1,11.1c0-0.3-0.3-0.6-0.6-0.6H6.4c-0.3,0-0.6,0.3-0.6,0.6v3.1c0,0.3,0.3,0.6,0.6,0.6h3.1
		c0.3,0,0.6-0.3,0.6-0.6V11.1z M8.9,13.7H7v-1.9h1.9V13.7z"/>
	<path class="st0" d="M18.6,11h-6.1c-0.3,0-0.6,0.3-0.6,0.6s0.3,0.6,0.6,0.6h6.1c0.3,0,0.6-0.3,0.6-0.6S18.9,11,18.6,11z"/>
	<path class="st0" d="M12.5,14.5h4c0.3,0,0.6-0.3,0.6-0.6s-0.3-0.6-0.6-0.6h-4c-0.3,0-0.6,0.3-0.6,0.6S12.2,14.5,12.5,14.5z"/>
	<path class="st0" d="M10.1,19.7c0-0.3-0.3-0.6-0.6-0.6H6.4c-0.3,0-0.6,0.3-0.6,0.6v3.1c0,0.3,0.3,0.6,0.6,0.6h3.1
		c0.3,0,0.6-0.3,0.6-0.6V19.7z M8.9,22.2H7v-1.9h1.9V22.2z"/>
	<path class="st0" d="M18.6,19.5h-6.1c-0.3,0-0.6,0.3-0.6,0.6c0,0.3,0.3,0.6,0.6,0.6h6.1c0.3,0,0.6-0.3,0.6-0.6
		C19.2,19.7,18.9,19.5,18.6,19.5z"/>
	<path class="st0" d="M12.5,23h4c0.3,0,0.6-0.3,0.6-0.6s-0.3-0.6-0.6-0.6h-4c-0.3,0-0.6,0.3-0.6,0.6S12.2,23,12.5,23z"/>
	<path class="st0" d="M9.5,27.6H6.4c-0.3,0-0.6,0.3-0.6,0.6v3.1c0,0.3,0.3,0.6,0.6,0.6h3.1c0.3,0,0.6-0.3,0.6-0.6v-3.1
		C10.1,27.8,9.9,27.6,9.5,27.6z M8.9,30.7H7v-1.9h1.9V30.7z"/>
	<path class="st0" d="M22.7,28.6c0-0.3-0.3-0.6-0.6-0.6h-9.6c-0.3,0-0.6,0.3-0.6,0.6s0.3,0.6,0.6,0.6h9.6
		C22.4,29.2,22.7,28.9,22.7,28.6z"/>
	<path class="st0" d="M12.5,30.3c-0.3,0-0.6,0.3-0.6,0.6s0.3,0.6,0.6,0.6h7.8c0.3,0,0.6-0.3,0.6-0.6s-0.3-0.6-0.6-0.6H12.5z"/>
</g>
</svg>
