<?xml version="1.0" encoding="utf-8"?>
<!-- Generator: Adobe Illustrator 23.0.1, SVG Export Plug-In . SVG Version: 6.00 Build 0)  -->
<svg version="1.0" id="图层_1" xmlns="http://www.w3.org/2000/svg" xmlns:xlink="http://www.w3.org/1999/xlink" x="0px" y="0px"
	 viewBox="0 0 38 38" style="enable-background:new 0 0 38 38;" xml:space="preserve">
<style type="text/css">
	.st0{fill:#e2edf2;}
</style>
<g>
	<path class="st0" d="M29.5,35.4H6.4c-0.1,0-0.2-0.1-0.2-0.2v-4V8.7v-4c0-0.1,0.1-0.2,0.2-0.2h2.9h2v0.3c0,0.9,0.7,1.6,1.6,1.6h10.9
		c0.9,0,1.6-0.7,1.6-1.6V4.5h3.3h2.9c0.1,0,0.2,0.1,0.2,0.2v4v17c0,0.3,0.3,0.6,0.6,0.6S33,26,33,25.7v-17v-4c0-0.8-0.6-1.4-1.4-1.4
		h-2.9h-3.3V3c0-0.9-0.7-1.6-1.6-1.6H12.8c-0.9,0-1.6,0.7-1.6,1.6v0.3h-2H6.4C5.6,3.3,5,3.9,5,4.7v4v22.6v4c0,0.8,0.6,1.4,1.4,1.4
		h23.1c0.3,0,0.6-0.3,0.6-0.6S29.8,35.4,29.5,35.4z M12.8,2.6h10.9c0.2,0,0.4,0.2,0.4,0.4v1.8c0,0.2-0.2,0.4-0.4,0.4H12.8
		c-0.2,0-0.4-0.2-0.4-0.4V4c0,0,0,0,0-0.1s0,0,0-0.1V3C12.5,2.8,12.6,2.6,12.8,2.6z"/>
	<path class="st0" d="M13.1,11.1c0-0.3-0.3-0.6-0.6-0.6H9.3c-0.3,0-0.6,0.3-0.6,0.6v3.1c0,0.3,0.3,0.6,0.6,0.6h3.1
		c0.3,0,0.6-0.3,0.6-0.6V11.1z M11.9,13.7H9.9v-1.9h1.9V13.7z"/>
	<path class="st0" d="M28.3,11.6c0-0.3-0.3-0.6-0.6-0.6H15.4c-0.3,0-0.6,0.3-0.6,0.6s0.3,0.6,0.6,0.6h12.2
		C28,12.2,28.3,11.9,28.3,11.6z"/>
	<path class="st0" d="M23.6,13.9c0-0.3-0.3-0.6-0.6-0.6h-7.5c-0.3,0-0.6,0.3-0.6,0.6s0.3,0.6,0.6,0.6H23
		C23.3,14.5,23.6,14.2,23.6,13.9z"/>
	<path class="st0" d="M13.1,19.7c0-0.3-0.3-0.6-0.6-0.6H9.3c-0.3,0-0.6,0.3-0.6,0.6v3.1c0,0.3,0.3,0.6,0.6,0.6h3.1
		c0.3,0,0.6-0.3,0.6-0.6V19.7z M11.9,22.2H9.9v-1.9h1.9V22.2z"/>
	<path class="st0" d="M15.4,20.7H19c0.3,0,0.6-0.3,0.6-0.6c0-0.3-0.3-0.6-0.6-0.6h-3.6c-0.3,0-0.6,0.3-0.6,0.6
		C14.8,20.4,15.1,20.7,15.4,20.7z"/>
	<path class="st0" d="M15.4,23h2.2c0.3,0,0.6-0.3,0.6-0.6s-0.3-0.6-0.6-0.6h-2.2c-0.3,0-0.6,0.3-0.6,0.6S15.1,23,15.4,23z"/>
	<path class="st0" d="M12.5,27.6H9.3c-0.3,0-0.6,0.3-0.6,0.6v3.1c0,0.3,0.3,0.6,0.6,0.6h3.1c0.3,0,0.6-0.3,0.6-0.6v-3.1
		C13.1,27.8,12.8,27.6,12.5,27.6z M11.9,30.7H9.9v-1.9h1.9V30.7z"/>
	<path class="st0" d="M20.1,28h-4.7c-0.3,0-0.6,0.3-0.6,0.6s0.3,0.6,0.6,0.6h4.7c0.3,0,0.6-0.3,0.6-0.6S20.5,28,20.1,28z"/>
	<path class="st0" d="M14.8,30.9c0,0.3,0.3,0.6,0.6,0.6h9.7c0.3,0,0.6-0.3,0.6-0.6s-0.3-0.6-0.6-0.6h-9.7
		C15.1,30.3,14.8,30.6,14.8,30.9z"/>
	<path class="st0" d="M23.8,20.6c-0.3,0.2-0.4,0.5-0.2,0.8s0.5,0.4,0.8,0.2c0.8-0.4,1.7-0.4,2.4,0.2c0.1,0.1,0.2,0.1,0.4,0.1
		c0.2,0,0.4-0.1,0.5-0.2c0.2-0.3,0.1-0.6-0.1-0.8C26.5,20,25,19.9,23.8,20.6z"/>
	<path class="st0" d="M32.9,31.8l-3.8-4.7c0.8-0.8,1.3-1.8,1.5-3c0.2-1.3-0.2-2.7-1.1-3.7c-0.8-1.1-2-1.7-3.4-1.9
		c-1.3-0.2-2.7,0.2-3.7,1.1c-1.1,0.8-1.7,2-1.9,3.4s0.2,2.7,1.1,3.7c0.8,1.1,2,1.7,3.4,1.9c0.2,0,0.4,0,0.6,0c0.9,0,1.8-0.3,2.6-0.8
		l3.8,4.7c0.1,0.1,0.3,0.2,0.5,0.2c0.1,0,0.3,0,0.4-0.1C33,32.5,33.1,32.1,32.9,31.8z M25.1,27.5c-1-0.1-1.9-0.6-2.6-1.4
		c-0.6-0.8-0.9-1.8-0.8-2.9c0.1-1,0.6-1.9,1.4-2.6c0.7-0.5,1.5-0.8,2.4-0.8c0.1,0,0.3,0,0.5,0c1,0.1,1.9,0.6,2.6,1.4
		s0.9,1.8,0.8,2.9s-0.6,1.9-1.4,2.6C27.1,27.3,26.1,27.6,25.1,27.5z"/>
</g>
</svg>
