<?xml version="1.0" encoding="utf-8"?>
<!-- Generator: Adobe Illustrator 23.0.3, SVG Export Plug-In . SVG Version: 6.00 Build 0)  -->
<svg version="1.0" id="图层_1" xmlns="http://www.w3.org/2000/svg" xmlns:xlink="http://www.w3.org/1999/xlink" x="0px" y="0px"
	 viewBox="0 0 150 150" style="enable-background:new 0 0 150 150;" xml:space="preserve">
<g>
	<path style="fill:#9C9C9C;" d="M106.66,15.64H43.78c-2.08,0-3.77,1.69-3.77,3.77v26.76c0,2.08,1.69,3.77,3.77,3.77h62.88
		c2.08,0,3.77-1.69,3.77-3.77V19.41C110.43,17.33,108.75,15.64,106.66,15.64z M102.89,23.18V42.4H47.55V23.18H102.89z"/>
	<path style="fill:#9C9C9C;" d="M106.66,64.97H43.78c-2.08,0-3.77,1.69-3.77,3.77c0,2.08,1.69,3.77,3.77,3.77h62.88
		c2.08,0,3.77-1.69,3.77-3.77C110.43,66.66,108.75,64.97,106.66,64.97z"/>
	<path style="fill:#9C9C9C;" d="M106.66,78.24H43.78c-2.08,0-3.77,1.69-3.77,3.77c0,2.08,1.69,3.77,3.77,3.77h62.88
		c2.08,0,3.77-1.69,3.77-3.77C110.43,79.93,108.75,78.24,106.66,78.24z"/>
	<path style="fill:#9C9C9C;" d="M102.29,114.67h-54.1c-2.08,0-3.77,1.69-3.77,3.77c0,2.08,1.69,3.77,3.77,3.77h54.1
		c2.08,0,3.77-1.69,3.77-3.77C106.06,116.36,104.37,114.67,102.29,114.67z"/>
	<path style="fill:#9C9C9C;" d="M105.65,101.16H44.76c-2.08,0-3.77,1.69-3.77,3.77c0,2.08,1.69,3.77,3.77,3.77h60.89
		c2.08,0,3.77-1.69,3.77-3.77C109.42,102.85,107.74,101.16,105.65,101.16z"/>
	<path style="fill:#9C9C9C;" d="M98.51,128.19H51.9c-2.08,0-3.77,1.69-3.77,3.77s1.69,3.77,3.77,3.77h46.61
		c2.08,0,3.77-1.69,3.77-3.77S100.6,128.19,98.51,128.19z"/>
	<path style="fill:#9C9C9C;" d="M130.9,72.98h-7.89V4c0-2.08-1.69-3.77-3.77-3.77H31.21c-2.08,0-3.77,1.69-3.77,3.77v68.99H19.1
		c-2.08,0-3.77,1.69-3.77,3.77v51.71c0,2.08,1.69,3.77,3.77,3.77h8.33v13.99c0,2.08,1.69,3.77,3.77,3.77h88.03
		c2.08,0,3.77-1.69,3.77-3.77v-13.99h7.89c2.08,0,3.77-1.69,3.77-3.77V76.76C134.67,74.67,132.98,72.98,130.9,72.98z M127.13,80.53
		v18.31h-4.12V80.53H127.13z M34.98,7.77h80.49v134.69H34.98V7.77z M27.43,98.84h-4.56V80.53h4.56V98.84z M22.87,124.7v-18.31h4.56
		v18.31H22.87z M123.01,106.39h4.12v18.31h-4.12V106.39z"/>
</g>
</svg>
