<?xml version="1.0" encoding="utf-8"?>
<!-- Generator: Adobe Illustrator 23.0.1, SVG Export Plug-In . SVG Version: 6.00 Build 0)  -->
<svg version="1.0" id="图层_1" xmlns="http://www.w3.org/2000/svg" xmlns:xlink="http://www.w3.org/1999/xlink" x="0px" y="0px"
	 viewBox="0 0 20 20" style="enable-background:new 0 0 20 20;" xml:space="preserve">
<style type="text/css">
	.st0{fill:#FFFFFF;}
</style>
<path class="st0" d="M19.3,12C19.2,11.9,19.2,11.9,19.3,12l-1.7-2l1.7-1.8c0,0,0-0.1,0-0.1c0,0,0-0.1,0-0.1c0,0,0-0.1,0-0.1
	c0,0,0-0.1,0-0.1l-1.1-1.2c0,0,0,0,0,0c0,0,0,0,0,0c0,0-0.1,0-0.1,0c0,0-0.1,0-0.1,0c0,0-0.1,0-0.1,0c0,0-0.1,0-0.1,0c0,0,0,0,0,0
	c0,0,0,0,0,0l-2.3,2.2l-3.3,0.1L13.9,6l3-0.8c0,0,0.1,0,0.1-0.1c0,0,0.1,0,0.1-0.1c0,0,0-0.1,0-0.1c0,0,0-0.1,0-0.1l0,0c0,0,0,0,0,0
	s0,0,0,0l-0.4-1.6c0,0,0-0.1-0.1-0.1c0,0,0-0.1-0.1-0.1c0,0-0.1,0-0.1,0c0,0-0.1,0-0.1,0l-2.5,0.6L13,1.1C13,1,13,1,13,1
	c0,0,0-0.1-0.1-0.1c0,0-0.1,0-0.1,0c0,0-0.1,0-0.1,0l-1.6,0.4c0,0,0,0,0,0c-0.1,0-0.1,0.1-0.2,0.1c0,0,0,0.1,0,0.1c0,0,0,0.1,0,0.1
	l0.9,3.2l-1.7,3l-1.7-3l0.9-3.2c0,0,0-0.1,0-0.1c0,0,0-0.1,0-0.1c0,0-0.1,0-0.1-0.1c0,0-0.1-0.1-0.1-0.1l0,0c0,0,0,0,0,0s0,0,0,0
	L7.3,0.9c0,0-0.1,0-0.1,0c0,0-0.1,0-0.1,0c0,0,0,0.1-0.1,0.1C7,1,7,1,7,1.1L6.2,3.6L3.7,3c0,0-0.1,0-0.1,0c0,0-0.1,0-0.1,0
	c0,0,0,0.1-0.1,0.1c0,0-0.1,0.1-0.1,0.1L3,4.8c0,0,0,0,0,0s0,0,0,0l0,0c0,0,0,0.1,0,0.1C3,4.9,3,5,3,5c0,0,0.1,0,0.1,0.1
	c0,0,0.1,0.1,0.1,0.1l3,0.8l1.8,2.9L4.6,8.8L2.3,6.6c0,0,0,0,0,0c0,0,0,0,0,0c0,0-0.1,0-0.1,0c0,0-0.1,0-0.1,0c0,0-0.1,0-0.1,0.1
	c0,0-0.1,0-0.1,0c0,0,0,0,0,0c0,0,0,0,0,0L0.8,7.8c0,0,0,0.1,0,0.1c0,0,0,0.1,0,0.1c0,0,0,0.1,0,0.1c0,0,0,0.1,0,0.1L2.5,10
	l-1.7,1.9c0,0,0,0.1,0,0.1c0,0,0,0.1,0,0.1c0,0,0,0.1,0,0.1c0,0,0,0.1,0,0.1l1.1,1.2c0,0,0,0,0,0c0,0,0,0,0,0
	c0.1,0.1,0.1,0.1,0.2,0.1c0.1,0,0.1,0,0.2-0.1c0,0,0,0,0,0c0,0,0,0,0,0l2.2-2.2l3.3,0L6.4,14l-3.3,0.9c0,0,0,0,0,0c0,0,0,0,0,0
	c0,0-0.1,0.1-0.1,0.1c0,0-0.1,0-0.1,0.1c0,0,0,0.1,0,0.2c0,0,0,0,0,0.1c0,0,0,0,0,0c0,0,0,0,0,0l0.5,1.6c0,0,0,0.1,0.1,0.1
	c0,0,0,0,0,0C3.5,17,3.6,17,3.6,17c0,0,0.1,0,0.1,0l2.5-0.7L7,18.9c0,0,0,0,0,0s0,0,0,0C7,19,7,19,7.1,19c0,0,0,0,0,0
	c0.1,0,0.1,0.1,0.2,0.1c0,0,0.1,0,0.1,0c0,0,0,0,0,0c0,0,0,0,0,0l1.5-0.5c0,0,0.1,0,0.1-0.1c0,0,0.1,0,0.1-0.1c0,0,0-0.1,0-0.1
	c0,0,0-0.1,0-0.1l-0.8-3l1.8-3.1l1.8,3.1l-0.8,3c0,0,0,0.1,0,0.1c0,0,0,0.1,0,0.1c0,0,0.1,0,0.1,0.1c0,0,0,0.1,0.1,0.1l1.5,0.5
	c0,0,0,0,0,0c0,0,0,0,0,0c0,0,0.1,0,0.1,0c0.1,0,0.1,0,0.2-0.1c0,0,0,0,0,0c0,0,0.1-0.1,0.1-0.1c0,0,0,0,0,0c0,0,0,0,0,0l0.8-2.6
	l2.5,0.7c0,0,0.1,0,0.1,0c0.1,0,0.1,0,0.2-0.1c0,0,0,0,0-0.1c0,0,0.1-0.1,0.1-0.1l0.5-1.6c0,0,0,0,0,0c0,0,0,0,0,0c0,0,0,0,0-0.1
	c0-0.1,0-0.1,0-0.2c0,0-0.1,0-0.1-0.1c0,0-0.1-0.1-0.1-0.1c0,0,0,0,0,0c0,0,0,0,0,0L13.6,14l-1.5-2.8l3.3,0l2.2,2.2c0,0,0,0,0,0
	c0,0,0,0,0,0c0.1,0.1,0.1,0.1,0.2,0.1c0.1,0,0.2,0,0.2-0.1c0,0,0,0,0,0c0,0,0,0,0,0l1.1-1.2c0,0,0-0.1,0-0.1c0,0,0-0.1,0-0.1
	C19.3,12,19.3,12,19.3,12z M12.5,18.5l-0.9-0.3l0.8-2.9c0,0,0,0,0,0l0,0c0,0,0-0.1,0-0.1c0,0,0-0.1,0-0.1l-2-3.6
	c-0.1-0.1-0.2-0.1-0.3-0.1c-0.1,0-0.3,0-0.3,0.1l-2,3.6l0,0l0,0c0,0,0,0.1,0,0.1c0,0,0,0.1,0,0.1l0,0c0,0,0,0,0,0l0.8,2.9l-0.9,0.3
	l-0.8-2.5c0,0,0,0,0,0s0,0,0,0l0,0c0,0,0-0.1-0.1-0.1c0,0,0-0.1-0.1-0.1c0,0-0.1,0-0.1,0c0,0-0.1,0-0.1,0l-2.5,0.7l-0.3-1l3.1-0.9
	c0,0,0,0,0,0c0.1,0,0.1-0.1,0.2-0.1l0,0c0,0,0,0,0,0L8.7,11c0,0,0-0.1,0-0.1c0,0,0,0,0-0.1c0,0,0,0,0,0c0,0,0-0.1,0-0.1
	c0,0,0-0.1-0.1-0.1c0,0,0,0,0,0c0,0-0.1,0-0.1,0c0,0,0,0-0.1,0c0,0,0,0,0,0l-4,0c0,0,0,0,0,0h0c0,0-0.1,0-0.1,0c0,0-0.1,0-0.1,0.1
	l-2.1,2.1l-0.7-0.8l1.7-1.9c0,0,0-0.1,0-0.1c0,0,0-0.1,0-0.1c0,0,0-0.1,0-0.1c0,0,0-0.1,0-0.1L1.4,8l0.7-0.7l2.1,2.1
	c0,0,0.1,0,0.1,0.1c0,0,0,0,0.1,0l4,0.1c0,0,0,0,0,0c0,0,0,0,0,0c0,0,0,0,0,0c0.1,0,0.1,0,0.2,0c0,0,0,0,0,0c0,0,0-0.1,0.1-0.1
	c0,0,0-0.1,0-0.1c0,0,0,0,0,0c0,0,0,0,0-0.1c0,0,0-0.1,0-0.1L6.6,5.6c0,0-0.1,0-0.1-0.1c0,0-0.1-0.1-0.1-0.1L3.6,4.7l0.3-1l2.4,0.6
	c0,0,0,0,0.1,0c0,0,0,0,0,0c0,0,0,0,0,0c0,0,0,0,0,0c0,0,0,0,0,0c0.1,0,0.1,0,0.2-0.1c0,0,0,0,0-0.1c0,0,0.1-0.1,0.1-0.1l0.8-2.5
	l1,0.3L7.7,4.9c0,0,0,0,0,0c0,0,0,0.1,0,0.1c0,0,0,0.1,0,0.1c0,0,0,0,0,0l2.1,3.5c0,0,0.1,0.1,0.1,0.1c0,0,0,0,0,0c0,0,0.1,0,0.2,0
	c0.1,0,0.2-0.1,0.3-0.1l2.1-3.5c0,0,0,0,0,0c0,0,0-0.1,0-0.1c0,0,0-0.1,0-0.1c0,0,0,0,0,0l-0.8-3.1l1-0.3L13.3,4c0,0,0,0.1,0.1,0.1
	c0,0,0,0,0,0.1c0,0,0.1,0.1,0.2,0.1c0,0,0,0,0,0c0,0,0,0,0,0c0,0,0,0,0,0c0,0,0,0,0,0c0,0,0,0,0.1,0l2.4-0.6l0.3,1l-2.8,0.8
	c0,0-0.1,0-0.1,0.1c0,0-0.1,0-0.1,0.1L11.3,9c0,0,0,0.1,0,0.1c0,0,0,0,0,0.1c0,0,0,0,0,0c0,0,0,0.1,0,0.1c0,0,0,0.1,0.1,0.1
	c0,0,0,0,0,0c0,0,0.1,0,0.2,0c0,0,0,0,0,0c0,0,0,0,0,0c0,0,0,0,0,0l4-0.1c0,0,0,0,0.1,0c0,0,0.1,0,0.1-0.1l2.1-2.1L18.6,8l-1.7,1.8
	c0,0,0,0.1,0,0.1c0,0,0,0.1,0,0.1c0,0,0,0.1,0,0.1c0,0,0,0.1,0,0.1l1.7,1.9l-0.7,0.8l-2.1-2.1c0,0-0.1,0-0.1-0.1c0,0,0,0-0.1,0h0
	c0,0,0,0,0,0l-4,0c0,0,0,0-0.1,0c0,0-0.1,0-0.1,0c0,0,0,0,0,0c0,0,0,0.1-0.1,0.1c0,0,0,0.1,0,0.1c0,0,0,0,0,0c0,0,0,0,0,0.1
	c0,0,0,0.1,0,0.1l1.8,3.3c0,0,0,0,0,0l0,0c0,0.1,0.1,0.1,0.2,0.1c0,0,0,0,0,0l3.1,0.9l-0.3,1l-2.5-0.7c0,0-0.1,0-0.1,0
	c0,0-0.1,0-0.1,0c0,0,0,0.1-0.1,0.1c0,0-0.1,0.1-0.1,0.1l0,0c0,0,0,0,0,0s0,0,0,0L12.5,18.5z"/>
</svg>
