<?xml version="1.0" encoding="utf-8"?>
<!-- Generator: Adobe Illustrator 23.0.1, SVG Export Plug-In . SVG Version: 6.00 Build 0)  -->
<svg version="1.0" id="图层_1" xmlns="http://www.w3.org/2000/svg" xmlns:xlink="http://www.w3.org/1999/xlink" x="0px" y="0px"
	 viewBox="0 0 60 60" style="enable-background:new 0 0 60 60;" xml:space="preserve">
<style type="text/css">
	.st0{fill:#FFFFFF;}
</style>
<g>
	<path class="st0" d="M58.5,28.9H50V11c0-0.8-0.7-1.5-1.5-1.5S47,10.2,47,11v17.9H13V11c0-0.8-0.7-1.5-1.5-1.5S10,10.2,10,11v17.9
		H1.5c-0.8,0-1.5,0.7-1.5,1.5v18c0,0.8,0.7,1.5,1.5,1.5h57c0.8,0,1.5-0.7,1.5-1.5v-18C60,29.5,59.3,28.9,58.5,28.9z M11.5,31.9
		C11.5,31.9,11.5,31.9,11.5,31.9C11.5,31.9,11.5,31.9,11.5,31.9h37c0,0,0,0,0,0s0,0,0,0H57v15H3v-15H11.5z"/>
	<path class="st0" d="M8.9,40.9h7c0.8,0,1.5-0.7,1.5-1.5s-0.7-1.5-1.5-1.5h-7c-0.8,0-1.5,0.7-1.5,1.5S8.1,40.9,8.9,40.9z"/>
	<path class="st0" d="M30.1,40.5h1.6c0.8,0,1.5-0.7,1.5-1.5s-0.7-1.5-1.5-1.5h-1.6c-0.8,0-1.5,0.7-1.5,1.5S29.3,40.5,30.1,40.5z"/>
	<path class="st0" d="M36.7,40.5h1.6c0.8,0,1.5-0.7,1.5-1.5s-0.7-1.5-1.5-1.5h-1.6c-0.8,0-1.5,0.7-1.5,1.5S35.9,40.5,36.7,40.5z"/>
	<path class="st0" d="M43.4,40.5H45c0.8,0,1.5-0.7,1.5-1.5s-0.7-1.5-1.5-1.5h-1.6c-0.8,0-1.5,0.7-1.5,1.5S42.6,40.5,43.4,40.5z"/>
	<path class="st0" d="M50,40.5h1.6c0.8,0,1.5-0.7,1.5-1.5s-0.7-1.5-1.5-1.5H50c-0.8,0-1.5,0.7-1.5,1.5S49.2,40.5,50,40.5z"/>
</g>
</svg>
