<?xml version="1.0" encoding="utf-8"?>
<!-- Generator: Adobe Illustrator 23.0.3, SVG Export Plug-In . SVG Version: 6.00 Build 0)  -->
<svg version="1.0" id="图层_1" xmlns="http://www.w3.org/2000/svg" xmlns:xlink="http://www.w3.org/1999/xlink" x="0px" y="0px"
	 viewBox="0 0 150 150" style="enable-background:new 0 0 150 150;" xml:space="preserve">
<g>
	<path style="fill:#9C9C9C;" d="M133.94,5.28c0-0.05-0.01-0.1-0.02-0.15c-0.01-0.13-0.02-0.26-0.04-0.39
		c-0.02-0.12-0.04-0.24-0.06-0.35c-0.03-0.12-0.07-0.24-0.11-0.36c-0.04-0.12-0.08-0.23-0.13-0.34c-0.05-0.11-0.11-0.21-0.17-0.31
		c-0.06-0.11-0.12-0.21-0.2-0.31c-0.07-0.1-0.15-0.19-0.23-0.28c-0.08-0.09-0.16-0.18-0.25-0.26c-0.09-0.08-0.19-0.16-0.28-0.23
		c-0.09-0.07-0.19-0.14-0.29-0.2c-0.1-0.07-0.21-0.12-0.33-0.18c-0.11-0.05-0.22-0.11-0.33-0.15c-0.11-0.04-0.23-0.08-0.35-0.11
		c-0.12-0.03-0.25-0.06-0.38-0.08c-0.05-0.01-0.1-0.03-0.15-0.03c-1-0.12-24.64-2.95-43.3,0.02C71.1,4.15,20.53,1.55,20.02,1.52
		c-0.03,0-0.06,0.01-0.1,0c-0.03,0-0.06-0.01-0.1-0.01c-0.1,0-0.2,0.02-0.3,0.03c-0.12,0.01-0.25,0.02-0.37,0.04
		c-0.12,0.02-0.24,0.06-0.35,0.09c-0.13,0.04-0.25,0.07-0.37,0.12c-0.09,0.04-0.18,0.08-0.27,0.13c-0.13,0.07-0.26,0.13-0.39,0.21
		c-0.07,0.04-0.13,0.1-0.2,0.15c-0.13,0.1-0.26,0.2-0.37,0.31c-0.05,0.05-0.1,0.11-0.15,0.16c-0.11,0.12-0.22,0.24-0.31,0.38
		c-0.05,0.07-0.09,0.14-0.13,0.21c-0.08,0.13-0.16,0.26-0.22,0.4c-0.04,0.09-0.07,0.2-0.11,0.29c-0.04,0.13-0.09,0.26-0.12,0.39
		c-0.03,0.12-0.04,0.24-0.06,0.37c-0.01,0.1-0.04,0.19-0.04,0.29c0,0.03,0.01,0.07,0,0.1c0,0.03-0.01,0.06-0.01,0.1v139.31
		c0,0.23,0.03,0.46,0.07,0.68c-0.02,0.14-0.06,0.27-0.06,0.42c-0.11,2.07,1.49,3.85,3.56,3.95c1.39,0.07,23.29,1.2,43,1.2
		c10.32,0,20.04-0.31,25.89-1.24c17.6-2.8,40.98-0.01,41.21,0.02c2.06,0.23,3.94-1.22,4.19-3.28c0.04-0.37,0.02-0.73-0.04-1.07
		c0.04-0.22,0.07-0.45,0.07-0.68V5.28z M87.33,142.17c-13.7,2.18-51.88,0.67-63.75,0.13V9.23c7.4,0.34,23.86,1.01,39.04,1.01
		c10.32,0,20.04-0.31,25.89-1.24c13.69-2.18,30.84-0.97,37.9-0.32v133.04C118.63,141.01,101.55,139.91,87.33,142.17z"/>
	<path style="fill:#9C9C9C;" d="M72.23,19.45H36.4c-2.08,0-3.76,1.69-3.76,3.76v25.75c0,11.95,9.72,21.68,21.68,21.68
		S76,60.91,76,48.96V23.21C76,21.14,74.31,19.45,72.23,19.45z M68.47,48.96c0,7.81-6.35,14.15-14.16,14.15
		c-7.8,0-14.15-6.35-14.15-14.15V26.97h28.31V48.96z"/>
	<path style="fill:#9C9C9C;" d="M59.35,54.5h2.61c2.08,0,3.76-1.69,3.76-3.76c0-2.08-1.68-3.76-3.76-3.76h-2.61
		c-2.08,0-3.76,1.69-3.76,3.76C55.58,52.81,57.27,54.5,59.35,54.5z"/>
	<path style="fill:#9C9C9C;" d="M46.68,54.5h2.61c2.08,0,3.76-1.69,3.76-3.76c0-2.08-1.68-3.76-3.76-3.76h-2.61
		c-2.08,0-3.76,1.69-3.76,3.76C42.92,52.81,44.6,54.5,46.68,54.5z"/>
	<path style="fill:#9C9C9C;" d="M113.2,95.13h-2.28v-5.88c0-2.08-1.68-3.76-3.76-3.76c-2.08,0-3.76,1.69-3.76,3.76v5.88h-2.29
		c-2.08,0-3.76,1.69-3.76,3.76c0,2.08,1.68,3.76,3.76,3.76h2.29v24.8c0,2.08,1.68,3.76,3.76,3.76c2.08,0,3.76-1.69,3.76-3.76v-24.8
		h2.28c2.08,0,3.76-1.69,3.76-3.76C116.96,96.82,115.28,95.13,113.2,95.13z"/>
</g>
</svg>
