<?xml version="1.0" standalone="no"?><!DOCTYPE svg PUBLIC "-//W3C//DTD SVG 1.1//EN" "http://www.w3.org/Graphics/SVG/1.1/DTD/svg11.dtd"><svg t="1591757892312" class="icon" viewBox="0 0 1024 1024" version="1.1" xmlns="http://www.w3.org/2000/svg" p-id="2660" width="64" height="64" xmlns:xlink="http://www.w3.org/1999/xlink"><defs><style type="text/css"></style></defs><path d="M928.12287365 635.2504699L686.50314057 505.89849158 926.90257198 376.54651327c39.04965382-20.7451286 54.91357571-70.77749758 32.94814543-109.8271514-20.7451286-39.04965382-70.77749758-54.91357571-109.82715139-32.94814544L596.20081609 369.22470317v-289.2114987a81.76021271 81.76021271 0 0 0-163.52042544 0v289.2114987l-255.04305159-136.67378842c-39.04965382-20.7451286-89.08202279-6.10150842-109.8271514 32.94814544-20.7451286 39.04965382-6.10150842 89.08202279 32.94814542 109.82715139L341.15776446 504.6781899 100.75833308 634.03016823c-39.04965382 20.7451286-54.91357571 70.77749758-32.94814542 109.82715141 20.7451286 39.04965382 70.77749758 54.91357571 109.8271514 32.94814543l255.04305159-136.67378843v289.21149871a81.76021271 81.76021271 0 0 0 163.52042544 0V642.57227999l255.04305157 136.67378844c39.04965382 20.7451286 89.08202279 6.10150842 109.82715144-32.94814542 20.7451286-40.26995552 6.10150842-90.30232449-32.94814545-111.04745311z" fill="#FF0000" p-id="2661"></path></svg>