<?xml version="1.0" encoding="utf-8"?>
<!-- Generator: Adobe Illustrator 23.0.1, SVG Export Plug-In . SVG Version: 6.00 Build 0)  -->
<svg version="1.0" id="图层_1" xmlns="http://www.w3.org/2000/svg" xmlns:xlink="http://www.w3.org/1999/xlink" x="0px" y="0px"
	 viewBox="0 0 60 60" style="enable-background:new 0 0 60 60;" xml:space="preserve">
<style type="text/css">
	.st0{fill:#101010;}
	.st1{fill:#10A957;}
</style>
<g>
	<path class="st0" d="M50.9,0h-42C8.1,0,7.4,0.7,7.4,1.5v57c0,0.8,0.7,1.5,1.5,1.5h42c0.8,0,1.5-0.7,1.5-1.5v-57
		C52.4,0.7,51.8,0,50.9,0z M45,25.4c-0.8,0-1.5,0.7-1.5,1.5V57h-27V26.9c0-0.8-0.7-1.5-1.5-1.5s-1.5,0.7-1.5,1.5V57h-3V3h39v54h-3
		V26.9C46.5,26.1,45.8,25.4,45,25.4z"/>
	<path class="st0" d="M46.5,6.1c0-0.8-0.7-1.5-1.5-1.5H15c-0.8,0-1.5,0.7-1.5,1.5V21c0,0.8,0.7,1.5,1.5,1.5h30
		c0.8,0,1.5-0.7,1.5-1.5V6.1z M43.5,7.6v11.8h-27V7.6H43.5z"/>
	<path class="st1" d="M34.5,25.3h-9c-2.2,0-4,1.8-4,4s1.8,4,4,4h9c2.2,0,4-1.8,4-4S36.7,25.3,34.5,25.3z M34.5,30.3h-9
		c-0.6,0-1-0.4-1-1s0.4-1,1-1h9c0.6,0,1,0.4,1,1S35,30.3,34.5,30.3z"/>
	<path class="st1" d="M37,37.8H23c-0.8,0-1.5,0.7-1.5,1.5s0.7,1.5,1.5,1.5h14c0.8,0,1.5-0.7,1.5-1.5S37.8,37.8,37,37.8z"/>
	<path class="st1" d="M37,44H23c-0.8,0-1.5,0.7-1.5,1.5S22.1,47,23,47h14c0.8,0,1.5-0.7,1.5-1.5S37.8,44,37,44z"/>
	<path class="st1" d="M37,50.2H23c-0.8,0-1.5,0.7-1.5,1.5s0.7,1.5,1.5,1.5h14c0.8,0,1.5-0.7,1.5-1.5S37.8,50.2,37,50.2z"/>
</g>
</svg>
