<?xml version="1.0" encoding="utf-8"?>
<!-- Generator: Adobe Illustrator 23.0.1, SVG Export Plug-In . SVG Version: 6.00 Build 0)  -->
<svg version="1.0" id="图层_1" xmlns="http://www.w3.org/2000/svg" xmlns:xlink="http://www.w3.org/1999/xlink" x="0px" y="0px"
	 viewBox="0 0 60 60" style="enable-background:new 0 0 60 60;" xml:space="preserve">
<style type="text/css">
	.st0{fill:#101010;}
	.st1{fill:#10A957;}
</style>
<g>
	<g>
		<path class="st0" d="M58.5,54.9h-57c-0.8,0-1.5-0.7-1.5-1.5s0.7-1.5,1.5-1.5h57c0.8,0,1.5,0.7,1.5,1.5S59.3,54.9,58.5,54.9z"/>
		<path class="st0" d="M7.4,54.9c-0.8,0-1.5-0.7-1.5-1.5V34.2c0-0.8,0.7-1.5,1.5-1.5s1.5,0.7,1.5,1.5v19.2
			C8.9,54.3,8.3,54.9,7.4,54.9z"/>
		<path class="st0" d="M22.4,54.9c-0.8,0-1.5-0.7-1.5-1.5V23c0-0.8,0.7-1.5,1.5-1.5s1.5,0.7,1.5,1.5v30.5
			C23.9,54.3,23.2,54.9,22.4,54.9z"/>
		<path class="st0" d="M37.4,54.9c-0.8,0-1.5-0.7-1.5-1.5V30.3c0-0.8,0.7-1.5,1.5-1.5c0.8,0,1.5,0.7,1.5,1.5v23.1
			C38.9,54.3,38.2,54.9,37.4,54.9z"/>
		<path class="st0" d="M52.3,54.9c-0.8,0-1.5-0.7-1.5-1.5v-28c0-0.8,0.7-1.5,1.5-1.5s1.5,0.7,1.5,1.5v28
			C53.8,54.3,53.2,54.9,52.3,54.9z"/>
	</g>
	<g>
		<path class="st1" d="M2.4,31c-0.4,0-0.9-0.2-1.1-0.5c-0.5-0.6-0.5-1.6,0.2-2.1l19.3-16.2c0.6-0.5,1.6-0.5,2.1,0.2
			c0.5,0.6,0.5,1.6-0.2,2.1L3.4,30.7C3.1,30.9,2.8,31,2.4,31z"/>
		<path class="st1" d="M38.1,25.1c-0.3,0-0.5-0.1-0.8-0.2L20.9,14.6c-0.7-0.4-0.9-1.4-0.5-2.1c0.4-0.7,1.4-0.9,2.1-0.5l16.4,10.3
			c0.7,0.4,0.9,1.4,0.5,2.1C39,24.9,38.5,25.1,38.1,25.1z"/>
		<path class="st1" d="M38.1,25.1c-0.4,0-0.9-0.2-1.2-0.5c-0.5-0.6-0.4-1.6,0.2-2.1L54.6,8c0.6-0.5,1.6-0.4,2.1,0.2
			c0.5,0.6,0.4,1.6-0.2,2.1L39,24.8C38.7,25,38.4,25.1,38.1,25.1z"/>
		<g>
			<path class="st1" d="M56.8,9h-7.6c-0.8,0-1.5-0.7-1.5-1.5S48.4,6,49.3,6h7.6c0.8,0,1.5,0.7,1.5,1.5S57.7,9,56.8,9z"/>
			<path class="st1" d="M56.8,16.6c-0.8,0-1.5-0.7-1.5-1.5V7.5C55.3,6.6,56,6,56.8,6c0.8,0,1.5,0.7,1.5,1.5v7.6
				C58.3,15.9,57.7,16.6,56.8,16.6z"/>
		</g>
	</g>
</g>
</svg>
