<?xml version="1.0" encoding="utf-8"?>
<!-- Generator: Adobe Illustrator 23.0.1, SVG Export Plug-In . SVG Version: 6.00 Build 0)  -->
<svg version="1.0" id="图层_1" xmlns="http://www.w3.org/2000/svg" xmlns:xlink="http://www.w3.org/1999/xlink" x="0px" y="0px"
	 viewBox="0 0 60 60" style="enable-background:new 0 0 60 60;" xml:space="preserve">
<style type="text/css">
	.st0{fill:#10A957;}
	.st1{fill:#101010;}
</style>
<g>
	<g>
		<path class="st0" d="M6.8,26.3c-0.8,0-1.5-0.7-1.5-1.5v-6.1c0-0.8,0.7-1.5,1.5-1.5s1.5,0.7,1.5,1.5v6.1
			C8.3,25.7,7.6,26.3,6.8,26.3z"/>
		<path class="st0" d="M6.8,20.2c-0.5,0-1-0.2-1.2-0.7c-0.5-0.7-0.3-1.6,0.4-2.1L30,1.2c0.7-0.5,1.6-0.3,2.1,0.4
			c0.5,0.7,0.3,1.6-0.4,2.1L7.6,20C7.3,20.1,7.1,20.2,6.8,20.2z"/>
		<path class="st0" d="M12.6,26.3H6.8c-0.8,0-1.5-0.7-1.5-1.5s0.7-1.5,1.5-1.5h5.8c0.8,0,1.5,0.7,1.5,1.5S13.4,26.3,12.6,26.3z"/>
		<path class="st0" d="M12.6,26.3c-0.8,0-1.5-0.7-1.5-1.5V22c0-0.8,0.7-1.5,1.5-1.5s1.5,0.7,1.5,1.5v2.8
			C14.1,25.7,13.4,26.3,12.6,26.3z"/>
		<path class="st0" d="M12.6,23.5c-0.5,0-0.9-0.2-1.2-0.6c-0.5-0.7-0.3-1.6,0.3-2.1L30.2,7.5c0.7-0.5,1.6-0.3,2.1,0.3
			c0.5,0.7,0.3,1.6-0.3,2.1L13.4,23.3C13.2,23.5,12.9,23.5,12.6,23.5z"/>
	</g>
	<g>
		<path class="st0" d="M55.1,26.3c-0.8,0-1.5-0.7-1.5-1.5v-6.1c0-0.8,0.7-1.5,1.5-1.5s1.5,0.7,1.5,1.5v6.1
			C56.6,25.7,56,26.3,55.1,26.3z"/>
		<path class="st0" d="M55.1,20.2c-0.3,0-0.6-0.1-0.8-0.3L30.2,3.7c-0.7-0.5-0.9-1.4-0.4-2.1c0.5-0.7,1.4-0.9,2.1-0.4L56,17.5
			c0.7,0.5,0.9,1.4,0.4,2.1C56.1,20,55.6,20.2,55.1,20.2z"/>
		<path class="st0" d="M55.1,26.3h-5.8c-0.8,0-1.5-0.7-1.5-1.5s0.7-1.5,1.5-1.5h5.8c0.8,0,1.5,0.7,1.5,1.5S56,26.3,55.1,26.3z"/>
		<path class="st0" d="M49.3,26.3c-0.8,0-1.5-0.7-1.5-1.5V22c0-0.8,0.7-1.5,1.5-1.5s1.5,0.7,1.5,1.5v2.8
			C50.8,25.7,50.2,26.3,49.3,26.3z"/>
		<path class="st0" d="M49.3,23.5c-0.3,0-0.6-0.1-0.9-0.3L30.2,9.9c-0.7-0.5-0.8-1.4-0.3-2.1c0.5-0.7,1.4-0.8,2.1-0.3l18.3,13.4
			c0.7,0.5,0.8,1.4,0.3,2.1C50.3,23.3,49.8,23.5,49.3,23.5z"/>
	</g>
	<path class="st1" d="M12.6,39.7c-0.8,0-1.5-0.7-1.5-1.5v-8.7c0-0.8,0.7-1.5,1.5-1.5s1.5,0.7,1.5,1.5v8.7
		C14.1,39,13.4,39.7,12.6,39.7z"/>
	<path class="st1" d="M49.3,37.3c-0.8,0-1.5-0.7-1.5-1.5v-6.4c0-0.8,0.7-1.5,1.5-1.5s1.5,0.7,1.5,1.5v6.4
		C50.8,36.7,50.2,37.3,49.3,37.3z"/>
	<path class="st1" d="M1.5,43c-0.5,0-1-0.2-1.3-0.7c-0.4-0.7-0.2-1.6,0.4-2.1l3.6-2.3c0.7-0.5,1.6-0.2,2.1,0.4
		c0.4,0.7,0.2,1.6-0.4,2.1l-3.6,2.3C2.1,42.9,1.8,43,1.5,43z"/>
	<path class="st1" d="M16.3,58.2c-0.5,0-1-0.2-1.3-0.7L3.8,40c-0.4-0.7-0.2-1.6,0.5-2.1c0.7-0.4,1.6-0.2,2.1,0.5l11.2,17.5
		c0.4,0.7,0.2,1.6-0.5,2.1C16.9,58.2,16.6,58.2,16.3,58.2z"/>
	<path class="st1" d="M14.2,59.7c-0.5,0-0.9-0.2-1.2-0.6c-0.5-0.7-0.3-1.6,0.3-2.1l2.1-1.5c0.7-0.5,1.6-0.3,2.1,0.3
		c0.5,0.7,0.3,1.6-0.3,2.1l-2.1,1.5C14.8,59.7,14.5,59.7,14.2,59.7z"/>
	<path class="st1" d="M6.7,43.2c-0.5,0-1-0.3-1.3-0.7c-0.4-0.7-0.2-1.6,0.5-2.1l11.4-6.8c0.7-0.4,1.6-0.2,2.1,0.5
		c0.4,0.7,0.2,1.6-0.5,2.1L7.4,43C7.2,43.1,6.9,43.2,6.7,43.2z"/>
	<path class="st1" d="M35.3,36.4H18c-0.8,0-1.5-0.7-1.5-1.5s0.7-1.5,1.5-1.5h17.2c0.8,0,1.5,0.7,1.5,1.5S36.1,36.4,35.3,36.4z"/>
	<path class="st1" d="M35.5,44.5H24.1c-0.8,0-1.5-0.7-1.5-1.5s0.7-1.5,1.5-1.5h11.5c0.8,0,1.5,0.7,1.5,1.5S36.4,44.5,35.5,44.5z"/>
	<g>
		<path class="st1" d="M39.1,40.1c-0.8,0-1.5-0.7-1.5-1.5c0-1.2-1-2.3-2.3-2.3c-0.8,0-1.5-0.7-1.5-1.5s0.7-1.5,1.5-1.5
			c2.9,0,5.3,2.4,5.3,5.3C40.6,39.5,39.9,40.1,39.1,40.1z"/>
		<path class="st1" d="M35.3,44.5c-0.8,0-1.5-0.7-1.5-1.5s0.7-1.5,1.5-1.5c1.2,0,2.3-1,2.3-2.3c0-0.8,0.7-1.5,1.5-1.5
			s1.5,0.7,1.5,1.5C40.6,42.1,38.2,44.5,35.3,44.5z"/>
	</g>
	<g>
		<path class="st1" d="M58.2,37.9c-0.8,0-1.5-0.7-1.5-1.5c0-0.6-0.3-1-0.6-1.2c-0.6-0.4-1.4-0.4-2.2,0c-0.8,0.3-1.6,0-2-0.8
			c-0.3-0.8,0-1.6,0.8-2c1.7-0.8,3.6-0.7,5.1,0.3c1.2,0.8,2,2.2,2,3.7C59.7,37.2,59.1,37.9,58.2,37.9z"/>
		<path class="st1" d="M54.6,42.7c-0.5,0-1-0.3-1.3-0.7c-0.4-0.7-0.2-1.6,0.5-2.1l0.1-0.1c2.2-1.3,2.9-1.8,2.8-3.4
			c-0.1-0.8,0.6-1.5,1.4-1.6c0.8-0.1,1.5,0.6,1.6,1.4c0.2,3.5-2,4.8-4.2,6.2l-0.1,0.1C55.1,42.7,54.8,42.7,54.6,42.7z"/>
	</g>
	<path class="st1" d="M36.9,44.1c-0.5,0-1.1-0.3-1.3-0.8c-0.4-0.7-0.1-1.6,0.6-2l16.4-8.8c0.7-0.4,1.6-0.1,2,0.6
		c0.4,0.7,0.1,1.6-0.6,2l-16.4,8.8C37.4,44.1,37.1,44.1,36.9,44.1z"/>
	<path class="st1" d="M37.5,53.7c-0.5,0-1-0.2-1.3-0.7c-0.4-0.7-0.2-1.6,0.4-2.1l17-11c0.7-0.4,1.6-0.2,2.1,0.5s0.2,1.6-0.4,2.1
		l-17,11C38.1,53.6,37.8,53.7,37.5,53.7z"/>
	<path class="st1" d="M37.5,53.7H20.2c-0.8,0-1.5-0.7-1.5-1.5s0.7-1.5,1.5-1.5h17.4c0.8,0,1.5,0.7,1.5,1.5S38.4,53.7,37.5,53.7z"/>
	<path class="st1" d="M15.5,56.9c-0.5,0-1-0.2-1.2-0.7c-0.5-0.7-0.3-1.6,0.4-2.1l4.7-3.2c0.7-0.5,1.6-0.3,2.1,0.4
		c0.5,0.7,0.3,1.6-0.4,2.1l-4.7,3.2C16,56.8,15.7,56.9,15.5,56.9z"/>
	<path class="st0" d="M40.5,6.2c-0.8,0-1.5-0.7-1.5-1.5V2.1c0-0.8,0.7-1.5,1.5-1.5S42,1.3,42,2.1v2.6C42,5.5,41.4,6.2,40.5,6.2z"/>
	<path class="st0" d="M49.8,12.1c-0.8,0-1.5-0.7-1.5-1.5V2.1c0-0.8,0.7-1.5,1.5-1.5s1.5,0.7,1.5,1.5v8.5
		C51.3,11.4,50.7,12.1,49.8,12.1z"/>
	<path class="st0" d="M49.8,3.6h-9.3c-0.8,0-1.5-0.7-1.5-1.5s0.7-1.5,1.5-1.5h9.3c0.8,0,1.5,0.7,1.5,1.5S50.7,3.6,49.8,3.6z"/>
</g>
</svg>
