<?xml version="1.0" encoding="utf-8"?>
<!-- Generator: Adobe Illustrator 23.0.1, SVG Export Plug-In . SVG Version: 6.00 Build 0)  -->
<svg version="1.0" id="图层_1" xmlns="http://www.w3.org/2000/svg" xmlns:xlink="http://www.w3.org/1999/xlink" x="0px" y="0px"
	 viewBox="0 0 60 60" style="enable-background:new 0 0 60 60;" xml:space="preserve">
<style type="text/css">
	.st0{fill:#101010;}
	.st1{fill:#10A957;}
</style>
<g>
	<path class="st0" d="M19.7,18.5H1.8c-0.8,0-1.5-0.7-1.5-1.5s0.7-1.5,1.5-1.5h17.9c0.8,0,1.5,0.7,1.5,1.5S20.5,18.5,19.7,18.5z"/>
	<path class="st0" d="M1.8,48.3c-0.8,0-1.5-0.7-1.5-1.5V17c0-0.8,0.7-1.5,1.5-1.5s1.5,0.7,1.5,1.5v29.8C3.3,47.7,2.6,48.3,1.8,48.3z
		"/>
	<path class="st0" d="M51.7,18.5H33.9c-0.8,0-1.5-0.7-1.5-1.5s0.7-1.5,1.5-1.5h17.8c0.8,0,1.5,0.7,1.5,1.5S52.5,18.5,51.7,18.5z"/>
	<path class="st0" d="M17.6,48.3H1.8c-0.8,0-1.5-0.7-1.5-1.5s0.7-1.5,1.5-1.5h15.8c0.8,0,1.5,0.7,1.5,1.5S18.5,48.3,17.6,48.3z"/>
	<path class="st0" d="M51.7,48.3H31.3c-0.8,0-1.5-0.7-1.5-1.5s0.7-1.5,1.5-1.5h20.4c0.8,0,1.5,0.7,1.5,1.5S52.5,48.3,51.7,48.3z"/>
	<path class="st0" d="M51.7,48.3c-0.8,0-1.5-0.7-1.5-1.5V17c0-0.8,0.7-1.5,1.5-1.5s1.5,0.7,1.5,1.5v29.8
		C53.2,47.7,52.5,48.3,51.7,48.3z"/>
	<path class="st0" d="M58.4,40h-6.7c-0.8,0-1.5-0.7-1.5-1.5s0.7-1.5,1.5-1.5h6.7c0.8,0,1.5,0.7,1.5,1.5S59.2,40,58.4,40z"/>
	<path class="st0" d="M58.4,25.4h-6.7c-0.8,0-1.5-0.7-1.5-1.5s0.7-1.5,1.5-1.5h6.7c0.8,0,1.5,0.7,1.5,1.5S59.2,25.4,58.4,25.4z"/>
	<path class="st0" d="M58.4,40c-0.8,0-1.5-0.7-1.5-1.5V23.9c0-0.8,0.7-1.5,1.5-1.5s1.5,0.7,1.5,1.5v14.7C59.9,39.4,59.2,40,58.4,40z
		"/>
	<path class="st1" d="M12.6,37.4c-0.3,0-0.6-0.1-0.8-0.2c-0.7-0.5-0.9-1.4-0.4-2.1l19-29.2c0.5-0.7,1.4-0.9,2.1-0.4
		c0.7,0.5,0.9,1.4,0.4,2.1l-19,29.2C13.6,37.2,13.1,37.4,12.6,37.4z"/>
	<path class="st1" d="M12.6,37.4c-0.7,0-1.4-0.5-1.5-1.3c-0.1-0.8,0.5-1.6,1.3-1.7l11.3-1.5c0.8-0.1,1.6,0.5,1.7,1.3
		s-0.5,1.6-1.3,1.7l-11.3,1.5C12.7,37.4,12.6,37.4,12.6,37.4z"/>
	<path class="st1" d="M20.3,55.9c-0.1,0-0.2,0-0.3,0c-0.8-0.1-1.4-0.9-1.2-1.7l3.5-19.9c0.1-0.8,0.9-1.4,1.7-1.2
		c0.8,0.1,1.4,0.9,1.2,1.7l-3.5,19.9C21.7,55.3,21,55.9,20.3,55.9z"/>
	<path class="st1" d="M20.3,55.9c-0.3,0-0.6-0.1-0.8-0.2c-0.7-0.5-0.9-1.4-0.4-2.1l19-29.3c0.5-0.7,1.4-0.9,2.1-0.4s0.9,1.4,0.4,2.1
		l-19,29.3C21.3,55.6,20.8,55.9,20.3,55.9z"/>
	<path class="st1" d="M28.1,28.1c-0.7,0-1.4-0.5-1.5-1.3c-0.1-0.8,0.5-1.6,1.3-1.7l11.3-1.5c0.8-0.1,1.6,0.5,1.7,1.3
		c0.1,0.8-0.5,1.6-1.3,1.7l-11.3,1.5C28.2,28.1,28.1,28.1,28.1,28.1z"/>
	<path class="st1" d="M28.1,28.1c-0.1,0-0.2,0-0.3,0c-0.8-0.1-1.4-0.9-1.2-1.7l3.5-19.9c0.1-0.8,0.9-1.4,1.7-1.2
		c0.8,0.1,1.4,0.9,1.2,1.7l-3.5,19.9C29.4,27.6,28.8,28.1,28.1,28.1z"/>
</g>
</svg>
