<?xml version="1.0" encoding="utf-8"?>
<!-- Generator: Adobe Illustrator 23.0.1, SVG Export Plug-In . SVG Version: 6.00 Build 0)  -->
<svg version="1.0" id="图层_1" xmlns="http://www.w3.org/2000/svg" xmlns:xlink="http://www.w3.org/1999/xlink" x="0px" y="0px"
	 viewBox="0 0 60 60" style="enable-background:new 0 0 60 60;" xml:space="preserve">
<style type="text/css">
	.st0{fill:#10A957;}
	.st1{fill:#101010;}
</style>
<g>
	<g>
		<path class="st0" d="M11.2,17c-0.3,0-0.6-0.1-0.9-0.3c-0.7-0.5-0.8-1.4-0.3-2.1c4.3-5.9,11.9-9.5,20.3-9.5c0.8,0,1.5,0.7,1.5,1.5
			s-0.7,1.5-1.5,1.5c-11,0-16.4,6.3-17.9,8.2C12.2,16.8,11.7,17,11.2,17z"/>
		<path class="st0" d="M49.4,17c-0.5,0-0.9-0.2-1.2-0.6c-2.8-4-8.9-8.2-17.8-8.2c-0.8,0-1.5-0.7-1.5-1.5s0.7-1.5,1.5-1.5
			c12.7,0,18.7,7.3,20.3,9.5c0.5,0.7,0.3,1.6-0.4,2.1C50,16.9,49.7,17,49.4,17z"/>
	</g>
	<g>
		<path class="st0" d="M20,22c-0.4,0-0.7-0.1-1-0.4c-0.6-0.6-0.6-1.5-0.1-2.1c2.3-2.4,5.7-5.3,11.4-5.3c0.8,0,1.5,0.7,1.5,1.5
			s-0.7,1.5-1.5,1.5c-4.5,0-7.1,2.1-9.2,4.3C20.8,21.8,20.4,22,20,22z"/>
		<path class="st0" d="M40.6,22c-0.4,0-0.8-0.2-1.1-0.5c-2.1-2.2-4.7-4.3-9.2-4.3c-0.8,0-1.5-0.7-1.5-1.5s0.7-1.5,1.5-1.5
			c5.7,0,9.1,2.8,11.4,5.3c0.6,0.6,0.5,1.6-0.1,2.1C41.3,21.8,41,22,40.6,22z"/>
	</g>
	<g>
		<path class="st1" d="M30.3,33.5c-2.7,0-5-2.2-5-5c0-2.7,2.2-5,5-5s5,2.2,5,5C35.3,31.2,33.1,33.5,30.3,33.5z M30.3,26.5
			c-1.1,0-2,0.9-2,2s0.9,2,2,2c1.1,0,2-0.9,2-2S31.4,26.5,30.3,26.5z"/>
		<path class="st1" d="M30.3,45.7c-0.8,0-1.5-0.7-1.5-1.5V32c0-0.8,0.7-1.5,1.5-1.5s1.5,0.7,1.5,1.5v12.3
			C31.8,45.1,31.1,45.7,30.3,45.7z"/>
	</g>
	<g>
		<path class="st1" d="M18.4,48.1h-5.5c-0.8,0-1.5-0.7-1.5-1.5c0-0.8,0.7-1.5,1.5-1.5h5.5c0.8,0,1.5,0.7,1.5,1.5
			C19.9,47.4,19.2,48.1,18.4,48.1z"/>
		<path class="st1" d="M52.8,37.6H36.2v3h16.2v11h-44v-11h16.2v-3H7.8c-1.4,0-2.5,1.1-2.5,2.5v12c0,1.4,1.1,2.5,2.5,2.5h45
			c1.4,0,2.5-1.1,2.5-2.5v-12C55.3,38.7,54.2,37.6,52.8,37.6z"/>
	</g>
</g>
</svg>
