<?xml version="1.0" encoding="utf-8"?>
<!-- Generator: Adobe Illustrator 23.0.1, SVG Export Plug-In . SVG Version: 6.00 Build 0)  -->
<svg version="1.0" id="图层_1" xmlns="http://www.w3.org/2000/svg" xmlns:xlink="http://www.w3.org/1999/xlink" x="0px" y="0px"
	 viewBox="0 0 60 60" style="enable-background:new 0 0 60 60;" xml:space="preserve">
<style type="text/css">
	.st0{fill:#101010;}
	.st1{fill:#10A957;}
</style>
<g>
	<g>
		<path class="st0" d="M52.6,25.4h-45c-1.4,0-2.5-1.1-2.5-2.5v-16c0-1.4,1.1-2.5,2.5-2.5h45c1.4,0,2.5,1.1,2.5,2.5v16
			C55.1,24.3,54,25.4,52.6,25.4z M8.1,22.4h44v-15h-44V22.4z"/>
		<path class="st0" d="M18.2,16.9h-5.5c-0.8,0-1.5-0.7-1.5-1.5c0-0.8,0.7-1.5,1.5-1.5h5.5c0.8,0,1.5,0.7,1.5,1.5
			C19.7,16.3,19,16.9,18.2,16.9z"/>
	</g>
	<path class="st0" d="M18.2,40.9h-5.5c-0.8,0-1.5-0.7-1.5-1.5c0-0.8,0.7-1.5,1.5-1.5h5.5c0.8,0,1.5,0.7,1.5,1.5
		C19.7,40.3,19,40.9,18.2,40.9z"/>
	<path class="st0" d="M32,46.4H8.1v-15h44v3h3v-3.5c0-1.4-1.1-2.5-2.5-2.5h-45c-1.4,0-2.5,1.1-2.5,2.5v16c0,1.4,1.1,2.5,2.5,2.5H32
		V46.4z"/>
	<g>
		<path class="st1" d="M39,56c-0.1,0-0.2,0-0.3,0c-0.8-0.2-1.4-0.9-1.2-1.7l2.6-14.3c0.2-0.8,0.9-1.4,1.7-1.2
			c0.8,0.2,1.4,0.9,1.2,1.7l-2.6,14.3C40.4,55.5,39.7,56,39,56z"/>
		<path class="st1" d="M54,47.7c-0.2,0-0.4,0-0.7-0.2l-12.3-6c-0.7-0.4-1.1-1.3-0.7-2c0.4-0.7,1.3-1.1,2-0.7l12.3,6
			c0.7,0.4,1.1,1.3,0.7,2C55.1,47.4,54.5,47.7,54,47.7z"/>
		<path class="st1" d="M39,56c-0.5,0-0.9-0.2-1.2-0.6c-0.5-0.7-0.4-1.6,0.3-2.1l4.4-3.3c0.7-0.5,1.6-0.4,2.1,0.3
			c0.5,0.7,0.4,1.6-0.3,2.1l-4.4,3.3C39.7,55.9,39.4,56,39,56z"/>
		<path class="st1" d="M49.1,49.7c-0.6,0-1.2-0.4-1.4-0.9c-0.3-0.8,0.1-1.6,0.8-2l4.9-2c0.8-0.3,1.6,0.1,2,0.8
			c0.3,0.8-0.1,1.6-0.8,2l-4.9,2C49.5,49.6,49.3,49.7,49.1,49.7z"/>
		<path class="st1" d="M46.5,57.7c-0.5,0-1-0.3-1.3-0.7l-3-5c-0.4-0.7-0.2-1.6,0.5-2.1c0.7-0.4,1.6-0.2,2.1,0.5l3,5
			c0.4,0.7,0.2,1.6-0.5,2.1C47,57.7,46.7,57.7,46.5,57.7z"/>
		<path class="st1" d="M52.4,54.4c-0.5,0-0.9-0.2-1.2-0.6L47.9,49c-0.5-0.7-0.3-1.6,0.4-2.1c0.7-0.5,1.6-0.3,2.1,0.4l3.3,4.7
			c0.5,0.7,0.3,1.6-0.4,2.1C53,54.3,52.7,54.4,52.4,54.4z"/>
		<path class="st1" d="M46.5,57.7c-0.5,0-1-0.3-1.3-0.8c-0.4-0.7-0.2-1.6,0.6-2l5.9-3.4c0.7-0.4,1.6-0.2,2,0.6
			c0.4,0.7,0.2,1.6-0.6,2l-5.9,3.4C47,57.7,46.7,57.7,46.5,57.7z"/>
		<g>
			<path class="st1" d="M45.9,39.6c-0.4,0-0.9-0.2-1.2-0.5c-0.5-0.6-0.4-1.6,0.2-2.1l1.4-1.2c0.6-0.5,1.6-0.4,2.1,0.2
				c0.5,0.6,0.4,1.6-0.2,2.1l-1.4,1.2C46.6,39.4,46.2,39.6,45.9,39.6z"/>
			<path class="st1" d="M42,38.2c-0.8,0-1.5-0.7-1.5-1.5v-2c0-0.8,0.7-1.5,1.5-1.5s1.5,0.7,1.5,1.5v2C43.5,37.5,42.9,38.2,42,38.2z"
				/>
			<path class="st1" d="M38.6,39.6c-0.4,0-0.8-0.1-1.1-0.4l-1.6-1.6c-0.6-0.6-0.6-1.5,0-2.1s1.5-0.6,2.1,0l1.6,1.6
				c0.6,0.6,0.6,1.5,0,2.1C39.3,39.4,38.9,39.6,38.6,39.6z"/>
			<path class="st1" d="M37.7,43.4h-3.1c-0.8,0-1.5-0.7-1.5-1.5s0.7-1.5,1.5-1.5h3.1c0.8,0,1.5,0.7,1.5,1.5S38.6,43.4,37.7,43.4z"/>
		</g>
	</g>
</g>
</svg>
