<?xml version="1.0" encoding="utf-8"?>
<!-- Generator: Adobe Illustrator 23.0.1, SVG Export Plug-In . SVG Version: 6.00 Build 0)  -->
<svg version="1.0" id="图层_1" xmlns="http://www.w3.org/2000/svg" xmlns:xlink="http://www.w3.org/1999/xlink" x="0px" y="0px"
	 viewBox="0 0 60 60" style="enable-background:new 0 0 60 60;" xml:space="preserve">
<style type="text/css">
	.st0{fill:#101010;}
	.st1{fill:#10A957;}
</style>
<g>
	<path class="st0" d="M6.3,56.7c-0.8,0-1.5-0.7-1.5-1.5V5.5C4.8,4.7,5.5,4,6.3,4s1.5,0.7,1.5,1.5v49.7C7.8,56,7.2,56.7,6.3,56.7z"/>
	<path class="st0" d="M45.9,7H6.3C5.5,7,4.8,6.3,4.8,5.5S5.5,4,6.3,4h39.6c0.8,0,1.5,0.7,1.5,1.5S46.8,7,45.9,7z"/>
	<path class="st0" d="M49.8,56.7H6.3c-0.8,0-1.5-0.7-1.5-1.5s0.7-1.5,1.5-1.5h43.5c0.8,0,1.5,0.7,1.5,1.5S50.6,56.7,49.8,56.7z"/>
	<path class="st0" d="M45.9,52.8c-0.8,0-1.5-0.7-1.5-1.5V5.5c0-0.8,0.7-1.5,1.5-1.5s1.5,0.7,1.5,1.5v45.8
		C47.4,52.1,46.8,52.8,45.9,52.8z"/>
	<path class="st0" d="M53.7,20.7h-2.5c-0.8,0-1.5-0.7-1.5-1.5s0.7-1.5,1.5-1.5h2.5c0.8,0,1.5,0.7,1.5,1.5S54.5,20.7,53.7,20.7z"/>
	<path class="st0" d="M53.7,52.5c-0.8,0-1.5-0.7-1.5-1.5V19.2c0-0.8,0.7-1.5,1.5-1.5s1.5,0.7,1.5,1.5V51
		C55.2,51.8,54.5,52.5,53.7,52.5z"/>
	<path class="st1" d="M15.8,32.3c-0.8,0-1.5-0.7-1.5-1.5V15.5c0-0.8,0.7-1.5,1.5-1.5s1.5,0.7,1.5,1.5v15.3
		C17.3,31.7,16.7,32.3,15.8,32.3z"/>
	<path class="st1" d="M36.3,17H15.8c-0.8,0-1.5-0.7-1.5-1.5S15,14,15.8,14h20.5c0.8,0,1.5,0.7,1.5,1.5S37.1,17,36.3,17z"/>
	<path class="st1" d="M36.3,32.3H15.8c-0.8,0-1.5-0.7-1.5-1.5s0.7-1.5,1.5-1.5h20.5c0.8,0,1.5,0.7,1.5,1.5S37.1,32.3,36.3,32.3z"/>
	<path class="st1" d="M36.3,32.3c-0.8,0-1.5-0.7-1.5-1.5V15.5c0-0.8,0.7-1.5,1.5-1.5s1.5,0.7,1.5,1.5v15.3
		C37.8,31.7,37.1,32.3,36.3,32.3z"/>
	<path class="st1" d="M36.3,40.3H15.8c-0.8,0-1.5-0.7-1.5-1.5s0.7-1.5,1.5-1.5h20.5c0.8,0,1.5,0.7,1.5,1.5S37.1,40.3,36.3,40.3z"/>
	<path class="st1" d="M36.3,45.4H15.8c-0.8,0-1.5-0.7-1.5-1.5s0.7-1.5,1.5-1.5h20.5c0.8,0,1.5,0.7,1.5,1.5S37.1,45.4,36.3,45.4z"/>
	<g>
		<path class="st0" d="M49.8,56.7c-3,0-5.4-2.4-5.4-5.4c0-0.8,0.7-1.5,1.5-1.5s1.5,0.7,1.5,1.5c0,1.3,1.1,2.4,2.4,2.4
			c0.8,0,1.5,0.7,1.5,1.5S50.6,56.7,49.8,56.7z"/>
		<path class="st0" d="M49.8,56.7c-0.8,0-1.5-0.7-1.5-1.5s0.7-1.5,1.5-1.5c1.3,0,2.4-1.1,2.4-2.4c0-0.8,0.7-1.5,1.5-1.5
			s1.5,0.7,1.5,1.5C55.2,54.3,52.8,56.7,49.8,56.7z"/>
	</g>
</g>
</svg>
