<?xml version="1.0" encoding="utf-8"?>
<!-- Generator: Adobe Illustrator 23.0.1, SVG Export Plug-In . SVG Version: 6.00 Build 0)  -->
<svg version="1.0" id="图层_1" xmlns="http://www.w3.org/2000/svg" xmlns:xlink="http://www.w3.org/1999/xlink" x="0px" y="0px"
	 viewBox="0 0 60 60" style="enable-background:new 0 0 60 60;" xml:space="preserve">
<style type="text/css">
	.st0{fill:#101010;}
	.st1{fill:#10A957;}
</style>
<g>
	<path class="st0" d="M5.4,45.2c-0.8,0-1.5-0.7-1.5-1.5v-37c0-0.8,0.7-1.5,1.5-1.5s1.5,0.7,1.5,1.5v37C6.9,44.5,6.2,45.2,5.4,45.2z"
		/>
	<path class="st0" d="M54.4,8.2h-49c-0.8,0-1.5-0.7-1.5-1.5s0.7-1.5,1.5-1.5h49c0.8,0,1.5,0.7,1.5,1.5S55.2,8.2,54.4,8.2z"/>
	<path class="st0" d="M54.4,45.2L54.4,45.2c-0.8,0-1.5-0.7-1.5-1.5l0-37c0-0.8,0.7-1.5,1.5-1.5l0,0c0.8,0,1.5,0.7,1.5,1.5l0,37
		C55.9,44.5,55.2,45.2,54.4,45.2z"/>
	<g>
		<path class="st0" d="M17.7,45.2H5.4c-0.8,0-1.5-0.7-1.5-1.5s0.7-1.5,1.5-1.5h12.3c0.8,0,1.5,0.7,1.5,1.5S18.5,45.2,17.7,45.2z"/>
		<path class="st0" d="M29.9,55.5c-0.3,0-0.7-0.1-1-0.4L16.7,44.8c-0.6-0.5-0.7-1.5-0.2-2.1c0.5-0.6,1.5-0.7,2.1-0.2l12.2,10.3
			c0.6,0.5,0.7,1.5,0.2,2.1C30.7,55.3,30.3,55.5,29.9,55.5z"/>
	</g>
	<g>
		<path class="st0" d="M54.4,45.2H42.1c-0.8,0-1.5-0.7-1.5-1.5s0.7-1.5,1.5-1.5h12.3c0.8,0,1.5,0.7,1.5,1.5S55.2,45.2,54.4,45.2z"/>
		<path class="st0" d="M29.9,55.5c-0.4,0-0.8-0.2-1.1-0.5c-0.5-0.6-0.5-1.6,0.2-2.1l12.2-10.3c0.6-0.5,1.6-0.5,2.1,0.2
			c0.5,0.6,0.5,1.6-0.2,2.1L30.9,55.1C30.6,55.4,30.2,55.5,29.9,55.5z"/>
	</g>
	<path class="st1" d="M44.8,17.2H14.9c-0.8,0-1.5-0.7-1.5-1.5s0.7-1.5,1.5-1.5h29.9c0.8,0,1.5,0.7,1.5,1.5S45.6,17.2,44.8,17.2z"/>
	<path class="st1" d="M44.8,26.4H14.9c-0.8,0-1.5-0.7-1.5-1.5s0.7-1.5,1.5-1.5h29.9c0.8,0,1.5,0.7,1.5,1.5S45.6,26.4,44.8,26.4z"/>
	<path class="st1" d="M30.9,35.7h-16c-0.8,0-1.5-0.7-1.5-1.5s0.7-1.5,1.5-1.5h16c0.8,0,1.5,0.7,1.5,1.5S31.7,35.7,30.9,35.7z"/>
</g>
</svg>
