<?xml version="1.0" encoding="utf-8"?>
<!-- Generator: Adobe Illustrator 23.0.1, SVG Export Plug-In . SVG Version: 6.00 Build 0)  -->
<svg version="1.0" id="图层_1" xmlns="http://www.w3.org/2000/svg" xmlns:xlink="http://www.w3.org/1999/xlink" x="0px" y="0px"
	 viewBox="0 0 60 60" style="enable-background:new 0 0 60 60;" xml:space="preserve">
<style type="text/css">
	.st0{fill:#101010;}
	.st1{fill:#10A957;}
</style>
<g>
	<g>
		<g>
			<polygon class="st0" points="6.5,58.2 22.8,58.2 22.8,55.2 6.5,55.2 			"/>
			<g>
				<polygon class="st0" points="19.9,51.4 19.9,58.1 22.8,58.1 22.9,51.4 				"/>
				<polygon class="st0" points="15.9,51.4 21.6,54.1 22.9,51.4 17.1,48.7 				"/>
			</g>
			<g>
				<polygon class="st0" points="9.4,51.4 9.4,58.1 6.5,58.1 6.4,51.4 				"/>
				<polygon class="st0" points="13.4,51.4 7.7,54.1 6.4,51.4 12.2,48.7 				"/>
			</g>
		</g>
		<g>
			<polygon class="st0" points="37.4,58.2 53.8,58.2 53.8,55.2 37.4,55.2 			"/>
			<g>
				<polygon class="st0" points="50.8,51.4 50.8,58.1 53.8,58.1 53.8,51.4 				"/>
				<polygon class="st0" points="46.8,51.4 52.5,54.1 53.8,51.4 48.1,48.7 				"/>
			</g>
			<g>
				<polygon class="st0" points="40.4,51.4 40.4,58.1 37.4,58.1 37.4,51.4 				"/>
				<polygon class="st0" points="44.4,51.4 38.6,54.1 37.4,51.4 43.1,48.7 				"/>
			</g>
		</g>
	</g>
	<g>
		<rect x="0" y="2.8" class="st0" width="3" height="43.2"/>
		<g>
			<rect x="5.6" y="8.4" class="st0" width="3" height="31.6"/>
			<rect x="35.8" y="8.4" class="st0" width="3" height="31.6"/>
			<rect x="5.6" y="8.4" class="st0" width="33.2" height="3"/>
			<rect x="5.6" y="37" class="st0" width="33.2" height="3"/>
		</g>
		<g>
			<rect x="10.6" y="14.2" class="st1" width="6.2" height="3"/>
			<rect x="19.1" y="14.2" class="st1" width="6.2" height="3"/>
			<rect x="27.6" y="14.2" class="st1" width="6.2" height="3"/>
		</g>
		<g>
			<rect x="10.6" y="19.9" class="st1" width="6.2" height="3"/>
			<rect x="19.1" y="19.9" class="st1" width="6.2" height="3"/>
			<rect x="27.6" y="19.9" class="st1" width="6.2" height="3"/>
		</g>
		<g>
			<rect x="10.6" y="25.6" class="st1" width="6.2" height="3"/>
			<rect x="19.1" y="25.6" class="st1" width="6.2" height="3"/>
			<rect x="27.6" y="25.6" class="st1" width="6.2" height="3"/>
		</g>
		<g>
			<rect x="10.6" y="31.2" class="st1" width="6.2" height="3"/>
			<rect x="19.1" y="31.2" class="st1" width="6.2" height="3"/>
			<rect x="27.6" y="31.2" class="st1" width="6.2" height="3"/>
		</g>
		<g>
			<rect x="42.1" y="8.4" class="st0" width="11.8" height="3"/>
			<rect x="42.1" y="8.4" class="st0" width="3" height="5.7"/>
		</g>
		<g>
			<rect x="42.1" y="17" class="st0" width="11.8" height="3"/>
			<rect x="42.1" y="17" class="st0" width="3" height="5.7"/>
		</g>
		<g>
			<rect x="42.1" y="25.6" class="st0" width="11.8" height="3"/>
			<rect x="42.1" y="25.6" class="st0" width="3" height="5.7"/>
		</g>
		<g>
			<rect x="42.1" y="34.3" class="st0" width="11.8" height="3"/>
			<rect x="42.1" y="34.3" class="st0" width="3" height="5.7"/>
		</g>
		<rect x="57" y="2.8" class="st0" width="3" height="43.2"/>
		<rect x="0" y="2.8" class="st0" width="60" height="3"/>
		<rect x="0" y="43" class="st0" width="60" height="3"/>
	</g>
</g>
</svg>
