<?xml version="1.0" encoding="utf-8"?>
<!-- Generator: Adobe Illustrator 23.0.1, SVG Export Plug-In . SVG Version: 6.00 Build 0)  -->
<svg version="1.0" id="图层_1" xmlns="http://www.w3.org/2000/svg" xmlns:xlink="http://www.w3.org/1999/xlink" x="0px" y="0px"
	 viewBox="0 0 60 60" style="enable-background:new 0 0 60 60;" xml:space="preserve">
<style type="text/css">
	.st0{fill:#101010;}
	.st1{fill:#10A957;}
</style>
<g>
	<path class="st0" d="M55.8,52H4.1c-0.8,0-1.5-0.7-1.5-1.5c0-0.8,0.7-1.5,1.5-1.5h51.7c0.8,0,1.5,0.7,1.5,1.5
		C57.3,51.3,56.6,52,55.8,52z"/>
	<path class="st0" d="M4.1,52c-0.8,0-1.5-0.7-1.5-1.5v-28c0-0.8,0.7-1.5,1.5-1.5s1.5,0.7,1.5,1.5v28C5.6,51.3,4.9,52,4.1,52z"/>
	<path class="st0" d="M55.8,52c-0.8,0-1.5-0.7-1.5-1.5v-28c0-0.8,0.7-1.5,1.5-1.5c0.8,0,1.5,0.7,1.5,1.5v28
		C57.3,51.3,56.6,52,55.8,52z"/>
	<path class="st0" d="M9,24H1.6c-0.8,0-1.5-0.7-1.5-1.5S0.8,21,1.6,21H9c0.8,0,1.5,0.7,1.5,1.5S9.8,24,9,24z"/>
	<path class="st0" d="M58.4,24h-7.4c-0.8,0-1.5-0.7-1.5-1.5s0.7-1.5,1.5-1.5h7.4c0.8,0,1.5,0.7,1.5,1.5S59.2,24,58.4,24z"/>
	<path class="st0" d="M1.6,24c-0.8,0-1.5-0.7-1.5-1.5v-8c0-0.8,0.7-1.5,1.5-1.5s1.5,0.7,1.5,1.5v8C3.1,23.3,2.4,24,1.6,24z"/>
	<path class="st0" d="M58.4,24c-0.8,0-1.5-0.7-1.5-1.5v-8c0-0.8,0.7-1.5,1.5-1.5c0.8,0,1.5,0.7,1.5,1.5v8C59.9,23.3,59.2,24,58.4,24
		z"/>
	<path class="st0" d="M58.4,16H1.6c-0.8,0-1.5-0.7-1.5-1.5S0.8,13,1.6,13h56.8c0.8,0,1.5,0.7,1.5,1.5S59.2,16,58.4,16z"/>
	<path class="st0" d="M21,11.2H9c-0.8,0-1.5-0.7-1.5-1.5S8.2,8.2,9,8.2h12c0.8,0,1.5,0.7,1.5,1.5S21.8,11.2,21,11.2z"/>
	<g>
		<path class="st1" d="M24,35.9H14c-0.8,0-1.5-0.7-1.5-1.5s0.7-1.5,1.5-1.5h10c0.8,0,1.5,0.7,1.5,1.5S24.8,35.9,24,35.9z"/>
		<path class="st1" d="M19,40.9c-0.8,0-1.5-0.7-1.5-1.5v-10c0-0.8,0.7-1.5,1.5-1.5s1.5,0.7,1.5,1.5v10C20.5,40.2,19.8,40.9,19,40.9z
			"/>
	</g>
	<path class="st1" d="M47,35.9h-10c-0.8,0-1.5-0.7-1.5-1.5s0.7-1.5,1.5-1.5h10c0.8,0,1.5,0.7,1.5,1.5S47.8,35.9,47,35.9z"/>
	<path class="st0" d="M50.9,11.2h-12c-0.8,0-1.5-0.7-1.5-1.5s0.7-1.5,1.5-1.5h12c0.8,0,1.5,0.7,1.5,1.5S51.8,11.2,50.9,11.2z"/>
</g>
</svg>
