<?xml version="1.0" encoding="utf-8"?>
<!-- Generator: Adobe Illustrator 23.0.1, SVG Export Plug-In . SVG Version: 6.00 Build 0)  -->
<svg version="1.0" id="图层_1" xmlns="http://www.w3.org/2000/svg" xmlns:xlink="http://www.w3.org/1999/xlink" x="0px" y="0px"
	 viewBox="0 0 60 60" style="enable-background:new 0 0 60 60;" xml:space="preserve">
<style type="text/css">
	.st0{fill:#101010;}
	.st1{fill:#10A957;}
</style>
<g>
	<path class="st0" d="M26.2,17.3c-0.7,0-1.3-0.5-1.5-1.1c-0.2-0.8,0.3-1.6,1.1-1.8l16.3-4c0.8-0.2,1.6,0.3,1.8,1.1s-0.3,1.6-1.1,1.8
		l-16.3,4C26.5,17.3,26.4,17.3,26.2,17.3z"/>
	<path class="st0" d="M18.6,37.6c-0.2,0-0.4,0-0.5-0.1c-0.8-0.3-1.2-1.2-0.9-1.9l7.7-20.3c0.3-0.8,1.2-1.2,1.9-0.9
		c0.8,0.3,1.2,1.2,0.9,1.9L20,36.6C19.7,37.2,19.2,37.6,18.6,37.6z"/>
	<path class="st0" d="M18.6,37.6c-0.7,0-1.4-0.5-1.5-1.3c-0.1-0.8,0.4-1.6,1.2-1.7l8.2-1.3c0.8-0.1,1.6,0.4,1.7,1.2
		c0.1,0.8-0.4,1.6-1.2,1.7l-8.2,1.3C18.7,37.6,18.6,37.6,18.6,37.6z"/>
	<path class="st0" d="M21.1,54.9c-0.1,0-0.3,0-0.4-0.1c-0.8-0.2-1.2-1.1-1-1.9l5.6-18.6c0.2-0.8,1.1-1.2,1.9-1
		c0.8,0.2,1.2,1.1,1,1.9l-5.6,18.6C22.4,54.5,21.8,54.9,21.1,54.9z"/>
	<path class="st0" d="M21.1,54.9c-0.3,0-0.7-0.1-1-0.4C19.5,54,19.5,53,20,52.4l21.9-26.2c0.5-0.6,1.5-0.7,2.1-0.2
		c0.6,0.5,0.7,1.5,0.2,2.1L22.3,54.3C22,54.7,21.6,54.9,21.1,54.9z"/>
	<path class="st0" d="M32.1,30.1c-0.7,0-1.4-0.6-1.5-1.3c-0.1-0.8,0.5-1.6,1.3-1.7l11-1.4c0.8-0.1,1.6,0.5,1.7,1.3
		c0.1,0.8-0.5,1.6-1.3,1.7l-11,1.4C32.2,30.1,32.2,30.1,32.1,30.1z"/>
	<path class="st0" d="M32.1,30.1c-0.3,0-0.5-0.1-0.8-0.2c-0.7-0.4-0.9-1.4-0.5-2.1L41.2,11c0.4-0.7,1.4-0.9,2.1-0.5
		c0.7,0.4,0.9,1.4,0.5,2.1L33.4,29.4C33.1,29.8,32.6,30.1,32.1,30.1z"/>
	<g>
		<path class="st1" d="M19.7,13c-0.5,0-1-0.3-1.3-0.8l-4-7c-0.4-0.7-0.2-1.6,0.6-2c0.7-0.4,1.6-0.2,2,0.6l4,7c0.4,0.7,0.2,1.6-0.6,2
			C20.2,12.9,20,13,19.7,13z"/>
		<path class="st1" d="M12,20.9c-0.3,0-0.5-0.1-0.8-0.2l-7.3-4.3c-0.7-0.4-1-1.3-0.5-2.1c0.4-0.7,1.3-0.9,2.1-0.5l7.3,4.3
			c0.7,0.4,1,1.3,0.5,2.1C13,20.6,12.5,20.9,12,20.9z"/>
		<path class="st1" d="M10.7,31.3H1.6c-0.8,0-1.5-0.7-1.5-1.5s0.7-1.5,1.5-1.5h9.1c0.8,0,1.5,0.7,1.5,1.5S11.5,31.3,10.7,31.3z"/>
		<path class="st1" d="M4.6,46.3c-0.5,0-1-0.3-1.3-0.7c-0.4-0.7-0.2-1.6,0.5-2.1l7.9-4.9c0.7-0.4,1.6-0.2,2.1,0.5
			c0.4,0.7,0.2,1.6-0.5,2.1l-7.9,4.9C5.1,46.2,4.9,46.3,4.6,46.3z"/>
	</g>
	<path class="st1" d="M48.9,20.6c-0.5,0-1-0.3-1.3-0.8c-0.4-0.7-0.2-1.6,0.5-2l7-4c0.7-0.4,1.6-0.2,2,0.5c0.4,0.7,0.2,1.6-0.5,2
		l-7,4C49.4,20.5,49.1,20.6,48.9,20.6z"/>
	<path class="st1" d="M45,56.8c-0.5,0-1-0.3-1.3-0.7l-4.3-7.3c-0.4-0.7-0.2-1.6,0.5-2.1c0.7-0.4,1.6-0.2,2.1,0.5l4.3,7.3
		c0.4,0.7,0.2,1.6-0.5,2.1C45.5,56.7,45.3,56.8,45,56.8z"/>
	<path class="st1" d="M58.4,31.3h-9.1c-0.8,0-1.5-0.7-1.5-1.5s0.7-1.5,1.5-1.5h9.1c0.8,0,1.5,0.7,1.5,1.5S59.3,31.3,58.4,31.3z"/>
	<path class="st1" d="M55.5,46c-0.3,0-0.5-0.1-0.8-0.2l-7.9-4.9c-0.7-0.4-0.9-1.4-0.5-2.1c0.4-0.7,1.4-0.9,2.1-0.5l7.9,4.9
		c0.7,0.4,0.9,1.4,0.5,2.1C56.5,45.7,56,46,55.5,46z"/>
</g>
</svg>
