<?xml version="1.0" encoding="utf-8"?>
<!-- Generator: Adobe Illustrator 23.0.1, SVG Export Plug-In . SVG Version: 6.00 Build 0)  -->
<svg version="1.0" id="图层_1" xmlns="http://www.w3.org/2000/svg" xmlns:xlink="http://www.w3.org/1999/xlink" x="0px" y="0px"
	 viewBox="0 0 60 60" style="enable-background:new 0 0 60 60;" xml:space="preserve">
<style type="text/css">
	.st0{fill:#101010;}
	.st1{fill:#10A957;}
</style>
<g>
	<path class="st0" d="M52.5,20.3h-45c-1.4,0-2.5-1.1-2.5-2.5v-11c0-1.4,1.1-2.5,2.5-2.5h45c1.4,0,2.5,1.1,2.5,2.5v11
		C55,19.2,53.9,20.3,52.5,20.3z M8,17.3h44v-10H8V17.3z"/>
	<path class="st1" d="M21.1,13.8h-7.5c-0.8,0-1.5-0.7-1.5-1.5c0-0.8,0.7-1.5,1.5-1.5h7.5c0.8,0,1.5,0.7,1.5,1.5
		C22.6,13.1,21.9,13.8,21.1,13.8z"/>
	<path class="st0" d="M52.5,38.3h-45c-1.4,0-2.5-1.1-2.5-2.5v-11c0-1.4,1.1-2.5,2.5-2.5h45c1.4,0,2.5,1.1,2.5,2.5v11
		C55,37.2,53.9,38.3,52.5,38.3z M8,35.3h44v-10H8V35.3z"/>
	<path class="st1" d="M21.1,31.8h-7.5c-0.8,0-1.5-0.7-1.5-1.5c0-0.8,0.7-1.5,1.5-1.5h7.5c0.8,0,1.5,0.7,1.5,1.5
		C22.6,31.1,21.9,31.8,21.1,31.8z"/>
	<path class="st0" d="M52.5,56.4h-45c-1.4,0-2.5-1.1-2.5-2.5v-11c0-1.4,1.1-2.5,2.5-2.5h45c1.4,0,2.5,1.1,2.5,2.5v11
		C55,55.2,53.9,56.4,52.5,56.4z M8,53.4h44v-10H8V53.4z"/>
	<path class="st1" d="M21.1,49.9h-7.5c-0.8,0-1.5-0.7-1.5-1.5c0-0.8,0.7-1.5,1.5-1.5h7.5c0.8,0,1.5,0.7,1.5,1.5
		C22.6,49.2,21.9,49.9,21.1,49.9z"/>
</g>
</svg>
