<?xml version="1.0" encoding="utf-8"?>
<!-- Generator: Adobe Illustrator 23.0.1, SVG Export Plug-In . SVG Version: 6.00 Build 0)  -->
<svg version="1.0" id="图层_1" xmlns="http://www.w3.org/2000/svg" xmlns:xlink="http://www.w3.org/1999/xlink" x="0px" y="0px"
	 viewBox="0 0 60 60" style="enable-background:new 0 0 60 60;" xml:space="preserve">
<style type="text/css">
	.st0{fill:#101010;}
	.st1{fill:#10A957;}
</style>
<g>
	<path class="st0" d="M3.3,58.5c-0.8,0-1.5-0.7-1.5-1.5V9c0-0.8,0.7-1.5,1.5-1.5S4.8,8.2,4.8,9v48C4.8,57.8,4.2,58.5,3.3,58.5z"/>
	<path class="st0" d="M20.3,14.5c-0.8,0-1.5-0.7-1.5-1.5V3c0-0.8,0.7-1.5,1.5-1.5s1.5,0.7,1.5,1.5v10C21.8,13.8,21.2,14.5,20.3,14.5
		z"/>
	<path class="st0" d="M39.3,14.5c-0.8,0-1.5-0.7-1.5-1.5V3c0-0.8,0.7-1.5,1.5-1.5s1.5,0.7,1.5,1.5v10C40.8,13.8,40.2,14.5,39.3,14.5
		z"/>
	<path class="st0" d="M56.3,58.5c-0.8,0-1.5-0.7-1.5-1.5V9c0-0.8,0.7-1.5,1.5-1.5s1.5,0.7,1.5,1.5v48C57.8,57.8,57.2,58.5,56.3,58.5
		z"/>
	<path class="st0" d="M56.3,58.5h-53c-0.8,0-1.5-0.7-1.5-1.5s0.7-1.5,1.5-1.5h53c0.8,0,1.5,0.7,1.5,1.5S57.2,58.5,56.3,58.5z"/>
	<path class="st0" d="M20.3,10.4h-17c-0.8,0-1.5-0.7-1.5-1.5s0.7-1.5,1.5-1.5h17c0.8,0,1.5,0.7,1.5,1.5S21.2,10.4,20.3,10.4z"/>
	<path class="st0" d="M56.3,10.4h-11c-0.8,0-1.5-0.7-1.5-1.5s0.7-1.5,1.5-1.5h11c0.8,0,1.5,0.7,1.5,1.5S57.2,10.4,56.3,10.4z"/>
	<path class="st0" d="M39.3,10.4h-13c-0.8,0-1.5-0.7-1.5-1.5s0.7-1.5,1.5-1.5h13c0.8,0,1.5,0.7,1.5,1.5S40.2,10.4,39.3,10.4z"/>
	<g>
		<path class="st1" d="M18.8,32.4h-7c-0.8,0-1.5-0.7-1.5-1.5s0.7-1.5,1.5-1.5h7c0.8,0,1.5,0.7,1.5,1.5S19.6,32.4,18.8,32.4z"/>
		<path class="st1" d="M33.2,32.4h-7.1c-0.8,0-1.5-0.7-1.5-1.5s0.7-1.5,1.5-1.5h7.1c0.8,0,1.5,0.7,1.5,1.5S34,32.4,33.2,32.4z"/>
		<path class="st1" d="M47.6,32.4h-7c-0.8,0-1.5-0.7-1.5-1.5s0.7-1.5,1.5-1.5h7c0.8,0,1.5,0.7,1.5,1.5S48.4,32.4,47.6,32.4z"/>
	</g>
	<g>
		<path class="st1" d="M18.8,41.3h-7c-0.8,0-1.5-0.7-1.5-1.5s0.7-1.5,1.5-1.5h7c0.8,0,1.5,0.7,1.5,1.5S19.6,41.3,18.8,41.3z"/>
		<path class="st1" d="M33.2,41.3h-7.1c-0.8,0-1.5-0.7-1.5-1.5s0.7-1.5,1.5-1.5h7.1c0.8,0,1.5,0.7,1.5,1.5S34,41.3,33.2,41.3z"/>
		<path class="st1" d="M47.6,41.3h-7c-0.8,0-1.5-0.7-1.5-1.5s0.7-1.5,1.5-1.5h7c0.8,0,1.5,0.7,1.5,1.5S48.4,41.3,47.6,41.3z"/>
	</g>
	<g>
		<path class="st1" d="M18.8,50.3h-7c-0.8,0-1.5-0.7-1.5-1.5s0.7-1.5,1.5-1.5h7c0.8,0,1.5,0.7,1.5,1.5S19.6,50.3,18.8,50.3z"/>
		<path class="st1" d="M33.2,50.3h-7.1c-0.8,0-1.5-0.7-1.5-1.5s0.7-1.5,1.5-1.5h7.1c0.8,0,1.5,0.7,1.5,1.5S34,50.3,33.2,50.3z"/>
		<path class="st1" d="M47.6,50.3h-7c-0.8,0-1.5-0.7-1.5-1.5s0.7-1.5,1.5-1.5h7c0.8,0,1.5,0.7,1.5,1.5S48.4,50.3,47.6,50.3z"/>
	</g>
	<path class="st0" d="M56.3,23.6h-53c-0.8,0-1.5-0.7-1.5-1.5s0.7-1.5,1.5-1.5h53c0.8,0,1.5,0.7,1.5,1.5S57.2,23.6,56.3,23.6z"/>
</g>
</svg>
