<?xml version="1.0" encoding="utf-8"?>
<!-- Generator: Adobe Illustrator 23.0.1, SVG Export Plug-In . SVG Version: 6.00 Build 0)  -->
<svg version="1.0" id="图层_1" xmlns="http://www.w3.org/2000/svg" xmlns:xlink="http://www.w3.org/1999/xlink" x="0px" y="0px"
	 viewBox="0 0 60 60" style="enable-background:new 0 0 60 60;" xml:space="preserve">
<style type="text/css">
	.st0{fill:#101010;}
	.st1{fill:#10A957;}
</style>
<g>
	<g>
		<path class="st0" d="M14.9,21.9h-13c-0.8,0-1.5-0.7-1.5-1.5s0.7-1.5,1.5-1.5h13c0.8,0,1.5,0.7,1.5,1.5S15.8,21.9,14.9,21.9z"/>
		<path class="st0" d="M14.9,40.5h-13c-0.8,0-1.5-0.7-1.5-1.5s0.7-1.5,1.5-1.5h13c0.8,0,1.5,0.7,1.5,1.5S15.8,40.5,14.9,40.5z"/>
		<path class="st0" d="M1.9,40.5c-0.8,0-1.5-0.7-1.5-1.5V20.4c0-0.8,0.7-1.5,1.5-1.5s1.5,0.7,1.5,1.5V39C3.4,39.8,2.7,40.5,1.9,40.5
			z"/>
		<g>
			<path class="st0" d="M23.3,17.6c-0.5,0-1.1-0.3-1.3-0.8c-0.4-0.7-0.1-1.6,0.6-2l18.5-9.5c0.7-0.4,1.6-0.1,2,0.6
				c0.4,0.7,0.1,1.6-0.6,2L24,17.4C23.7,17.5,23.5,17.6,23.3,17.6z"/>
			<path class="st0" d="M14.9,21.9c-0.5,0-1.1-0.3-1.3-0.8c-0.4-0.7-0.1-1.6,0.6-2l1.5-0.8c0.7-0.4,1.6-0.1,2,0.6
				c0.4,0.7,0.1,1.6-0.6,2l-1.5,0.8C15.4,21.8,15.2,21.9,14.9,21.9z"/>
			<path class="st0" d="M41.7,31.2c-0.8,0-1.5-0.7-1.5-1.5V6.5c0-0.8,0.7-1.5,1.5-1.5s1.5,0.7,1.5,1.5v23.2
				C43.2,30.5,42.6,31.2,41.7,31.2z"/>
		</g>
		<g>
			<path class="st0" d="M33,49.8c-0.2,0-0.5-0.1-0.7-0.2l-18-9.3c-0.7-0.4-1-1.3-0.6-2c0.4-0.7,1.3-1,2-0.6l18,9.3
				c0.7,0.4,1,1.3,0.6,2C34,49.5,33.5,49.8,33,49.8z"/>
			<path class="st0" d="M41.7,49.8c-0.8,0-1.5-0.7-1.5-1.5V29.7c0-0.8,0.7-1.5,1.5-1.5s1.5,0.7,1.5,1.5v18.6
				C43.2,49.2,42.6,49.8,41.7,49.8z"/>
		</g>
		<path class="st1" d="M58.3,31.2h-10c-0.8,0-1.5-0.7-1.5-1.5s0.7-1.5,1.5-1.5h10c0.8,0,1.5,0.7,1.5,1.5S59.2,31.2,58.3,31.2z"/>
		<path class="st1" d="M48.3,18.6c-0.5,0-1-0.3-1.3-0.7c-0.4-0.7-0.2-1.6,0.5-2.1l10-5.9c0.7-0.4,1.6-0.2,2.1,0.5
			c0.4,0.7,0.2,1.6-0.5,2.1l-10,5.9C48.8,18.6,48.6,18.6,48.3,18.6z"/>
		<path class="st1" d="M58.3,50.1c-0.3,0-0.5-0.1-0.8-0.2l-10-5.9c-0.7-0.4-1-1.3-0.5-2.1s1.3-1,2.1-0.5l10,5.9
			c0.7,0.4,1,1.3,0.5,2.1C59.3,49.9,58.8,50.1,58.3,50.1z"/>
	</g>
	<path class="st0" d="M41.8,57.7c-0.5,0-1-0.3-1.3-0.8L10.9,5c-0.4-0.7-0.2-1.6,0.6-2c0.7-0.4,1.6-0.2,2,0.6l29.6,51.9
		c0.4,0.7,0.2,1.6-0.6,2C42.4,57.6,42.1,57.7,41.8,57.7z"/>
</g>
</svg>
