<?xml version="1.0" encoding="utf-8"?>
<!-- Generator: Adobe Illustrator 23.0.1, SVG Export Plug-In . SVG Version: 6.00 Build 0)  -->
<svg version="1.0" id="图层_1" xmlns="http://www.w3.org/2000/svg" xmlns:xlink="http://www.w3.org/1999/xlink" x="0px" y="0px"
	 viewBox="0 0 60 60" style="enable-background:new 0 0 60 60;" xml:space="preserve">
<style type="text/css">
	.st0{fill:#10A957;}
	.st1{fill:#101010;}
</style>
<g>
	<path class="st0" d="M20.6,52c-0.8,0-1.5-0.7-1.5-1.5V39.2c0-0.8,0.7-1.5,1.5-1.5s1.5,0.7,1.5,1.5v11.3C22.1,51.3,21.4,52,20.6,52z
		"/>
	<path class="st1" d="M50.2,58.6H10.1c-0.8,0-1.5-0.7-1.5-1.5s0.7-1.5,1.5-1.5h40.1c0.8,0,1.5,0.7,1.5,1.5S51,58.6,50.2,58.6z"/>
	<path class="st1" d="M50.2,52H10.1c-0.8,0-1.5-0.7-1.5-1.5S9.3,49,10.1,49h40.1c0.8,0,1.5,0.7,1.5,1.5S51,52,50.2,52z"/>
	<path class="st1" d="M10.1,52c-0.8,0-1.5-0.7-1.5-1.5V34c0-0.8,0.7-1.5,1.5-1.5s1.5,0.7,1.5,1.5v16.5C11.6,51.3,10.9,52,10.1,52z"
		/>
	<path class="st1" d="M50.2,52c-0.8,0-1.5-0.7-1.5-1.5V34c0-0.8,0.7-1.5,1.5-1.5s1.5,0.7,1.5,1.5v16.5C51.7,51.3,51,52,50.2,52z"/>
	<path class="st1" d="M10.1,35.5c-0.8,0-1.5-0.7-1.5-1.5c0-11.9,9.7-21.5,21.5-21.5c0.8,0,1.5,0.7,1.5,1.5s-0.7,1.5-1.5,1.5
		c-10.2,0-18.5,8.3-18.5,18.5C11.6,34.8,10.9,35.5,10.1,35.5z"/>
	<path class="st1" d="M50.2,35.5c-0.8,0-1.5-0.7-1.5-1.5c0-10.2-8.3-18.5-18.5-18.5c-0.8,0-1.5-0.7-1.5-1.5s0.7-1.5,1.5-1.5
		c11.9,0,21.5,9.7,21.5,21.5C51.7,34.8,51,35.5,50.2,35.5z"/>
	<path class="st1" d="M30.2,10.5c-0.8,0-1.5-0.7-1.5-1.5V3.2c0-0.8,0.7-1.5,1.5-1.5s1.5,0.7,1.5,1.5V9C31.7,9.8,31,10.5,30.2,10.5z"
		/>
	<path class="st1" d="M11.3,18.3c-0.4,0-0.8-0.1-1.1-0.4l-3.7-3.7c-0.6-0.6-0.6-1.5,0-2.1c0.6-0.6,1.5-0.6,2.1,0l3.7,3.7
		c0.6,0.6,0.6,1.5,0,2.1C12.1,18.1,11.7,18.3,11.3,18.3z"/>
	<path class="st1" d="M48.9,18.3c-0.4,0-0.8-0.1-1.1-0.4c-0.6-0.6-0.6-1.5,0-2.1l4.5-4.5c0.6-0.6,1.5-0.6,2.1,0
		c0.6,0.6,0.6,1.5,0,2.1l-4.5,4.5C49.6,18.2,49.3,18.3,48.9,18.3z"/>
</g>
</svg>
