<?xml version="1.0" encoding="utf-8"?>
<!-- Generator: Adobe Illustrator 23.0.1, SVG Export Plug-In . SVG Version: 6.00 Build 0)  -->
<svg version="1.0" id="图层_1" xmlns="http://www.w3.org/2000/svg" xmlns:xlink="http://www.w3.org/1999/xlink" x="0px" y="0px"
	 viewBox="0 0 60 60" style="enable-background:new 0 0 60 60;" xml:space="preserve">
<style type="text/css">
	.st0{fill:#10A957;}
	.st1{fill:#101010;}
</style>
<g>
	<path class="st0" d="M29.6,42.9c-0.8,0-1.5-0.7-1.5-1.5V30.2c0-0.8,0.7-1.5,1.5-1.5s1.5,0.7,1.5,1.5v11.3
		C31.1,42.3,30.5,42.9,29.6,42.9z"/>
	<path class="st0" d="M23.8,40.9c-0.8,0-1.5-0.7-1.5-1.5v-7.3c0-0.8,0.7-1.5,1.5-1.5s1.5,0.7,1.5,1.5v7.3
		C25.3,40.3,24.6,40.9,23.8,40.9z"/>
	<path class="st0" d="M18,38.9c-0.8,0-1.5-0.7-1.5-1.5v-3.3c0-0.8,0.7-1.5,1.5-1.5s1.5,0.7,1.5,1.5v3.3C19.5,38.3,18.8,38.9,18,38.9
		z"/>
	<path class="st0" d="M35.5,40.9c-0.8,0-1.5-0.7-1.5-1.5v-7.3c0-0.8,0.7-1.5,1.5-1.5s1.5,0.7,1.5,1.5v7.3
		C37,40.3,36.3,40.9,35.5,40.9z"/>
	<path class="st0" d="M41.3,38.9c-0.8,0-1.5-0.7-1.5-1.5v-3.3c0-0.8,0.7-1.5,1.5-1.5s1.5,0.7,1.5,1.5v3.3
		C42.8,38.3,42.1,38.9,41.3,38.9z"/>
	<path class="st1" d="M49.7,58.8H9.6c-0.8,0-1.5-0.7-1.5-1.5s0.7-1.5,1.5-1.5h40.1c0.8,0,1.5,0.7,1.5,1.5S50.5,58.8,49.7,58.8z"/>
	<path class="st1" d="M49.7,52.1H9.6c-0.8,0-1.5-0.7-1.5-1.5s0.7-1.5,1.5-1.5h40.1c0.8,0,1.5,0.7,1.5,1.5S50.5,52.1,49.7,52.1z"/>
	<path class="st1" d="M9.6,52.1c-0.8,0-1.5-0.7-1.5-1.5V34.1c0-0.8,0.7-1.5,1.5-1.5s1.5,0.7,1.5,1.5v16.5
		C11.1,51.5,10.4,52.1,9.6,52.1z"/>
	<path class="st1" d="M49.7,52.1c-0.8,0-1.5-0.7-1.5-1.5V34.1c0-0.8,0.7-1.5,1.5-1.5s1.5,0.7,1.5,1.5v16.5
		C51.2,51.5,50.5,52.1,49.7,52.1z"/>
	<path class="st1" d="M9.6,35.6c-0.8,0-1.5-0.7-1.5-1.5c0-11.9,9.7-21.5,21.5-21.5c0.8,0,1.5,0.7,1.5,1.5s-0.7,1.5-1.5,1.5
		c-10.2,0-18.5,8.3-18.5,18.5C11.1,35,10.4,35.6,9.6,35.6z"/>
	<path class="st1" d="M49.7,35.6c-0.8,0-1.5-0.7-1.5-1.5c0-10.2-8.3-18.5-18.5-18.5c-0.8,0-1.5-0.7-1.5-1.5s0.7-1.5,1.5-1.5
		c11.9,0,21.5,9.7,21.5,21.5C51.2,35,50.5,35.6,49.7,35.6z"/>
	<path class="st1" d="M29.6,10.7c-0.8,0-1.5-0.7-1.5-1.5V3.4c0-0.8,0.7-1.5,1.5-1.5s1.5,0.7,1.5,1.5v5.8
		C31.1,10,30.5,10.7,29.6,10.7z"/>
	<path class="st1" d="M10.8,18.5c-0.4,0-0.8-0.1-1.1-0.4L6,14.3c-0.6-0.6-0.6-1.5,0-2.1c0.6-0.6,1.5-0.6,2.1,0l3.7,3.7
		c0.6,0.6,0.6,1.5,0,2.1C11.6,18.3,11.2,18.5,10.8,18.5z"/>
	<path class="st1" d="M48.4,18.5c-0.4,0-0.8-0.1-1.1-0.4c-0.6-0.6-0.6-1.5,0-2.1l4.5-4.5c0.6-0.6,1.5-0.6,2.1,0s0.6,1.5,0,2.1
		l-4.5,4.5C49.1,18.4,48.7,18.5,48.4,18.5z"/>
</g>
</svg>
