<?xml version="1.0" encoding="utf-8"?>
<!-- Generator: Adobe Illustrator 22.0.1, SVG Export Plug-In . SVG Version: 6.00 Build 0)  -->
<svg version="1.0" id="图层_1" xmlns="http://www.w3.org/2000/svg" xmlns:xlink="http://www.w3.org/1999/xlink" x="0px" y="0px"
	 viewBox="0 0 61.1 59.7" style="enable-background:new 0 0 61.1 59.7;" xml:space="preserve">
<path style="fill:#0A0408;" d="M54.7,16.5h1.2v1.2h-1.2V16.5z M53.5,17.7h-1.1v-1.2h1.1V17.7z M51.2,17.7h-1.1v-1.2h1.1V17.7z
	 M48.9,17.7h-1.1v-1.2h1.1L48.9,17.7L48.9,17.7z M46.7,17.7h-1.1v-1.2h1.1V17.7z M44.4,17.7h-1.1v-1.2h1.1L44.4,17.7L44.4,17.7z
	 M42.1,17.7H41v-1.2h1.1V17.7z M39.8,17.7h-1.1v-1.2h1.1V17.7z M37.6,17.7h-1.1v-1.2h1.1V17.7z M35.3,17.7h-1.1v-1.2h1.1V17.7z
	 M33,17.7h-1.1v-1.2H33V17.7z M30.7,17.7h-1.1v-1.2h1.1L30.7,17.7L30.7,17.7z M28.5,17.7h-1.1v-1.2h1.1V17.7z M26.2,17.7h-1.1v-1.2
	h1.1L26.2,17.7L26.2,17.7z M23.9,17.7h-1.1v-1.2h1.1L23.9,17.7L23.9,17.7z M21.7,17.7h-1.1v-1.2h1.1V17.7z M19.4,17.7h-1.1v-1.2h1.1
	V17.7z M17.1,17.7H16v-1.2h1.1V17.7z M14.8,17.7h-1.1v-1.2h1.1V17.7z M12.6,17.7h-1.1v-1.2h1.1V17.7z M10.3,17.7H9.2v-1.2h1.1V17.7z
	 M8,17.7H6.8v-1.2H8L8,17.7L8,17.7z M4.5,16.5h1.2v1.2H4.5V16.5z M5.7,48.4H4.5v-1.2h1.2V48.4z M5.7,46.3H4.5v-1.2h1.2V46.3z
	 M5.7,43.9H4.5v-1.2h1.2V43.9z M5.7,41.5H4.5v-1.2h1.2V41.5L5.7,41.5z M5.7,39.1H4.5v-1.2h1.2V39.1z M5.7,36.7H4.5v-1.2h1.2V36.7z
	 M5.7,34.3H4.5v-1.2h1.2V34.3z M5.7,32H4.5v-1.2h1.2V32L5.7,32z M5.7,29.6H4.5v-1.2h1.2V29.6z M5.7,27.2H4.5V26h1.2V27.2z M5.7,24.8
	H4.5v-1.2h1.2V24.8z M5.7,22.4H4.5v-1.2h1.2V22.4z M5.7,20H4.5v-1.2h1.2V20z M4.5,49.6h1.2v1.2H4.5V49.6z M53.5,50.8h-1.1v-1.2h1.1
	V50.8z M51.3,50.8h1.1v-1.2h-1.1V50.8z M51.2,50.8h-1.1v-1.2h1.1V50.8z M48.9,50.8h-1.1v-1.2h1.1L48.9,50.8L48.9,50.8z M46.7,50.8
	h-1.1v-1.2h1.1V50.8z M44.4,50.8h-1.1v-1.2h1.1L44.4,50.8L44.4,50.8z M42.1,50.8H41v-1.2h1.1V50.8z M39.8,50.8h-1.1v-1.2h1.1V50.8z
	 M37.6,50.8h-1.1v-1.2h1.1V50.8z M35.3,50.8h-1.1v-1.2h1.1V50.8z M33,50.8h-1.1v-1.2H33V50.8z M30.7,50.8h-1.1v-1.2h1.1L30.7,50.8
	L30.7,50.8z M28.5,50.8h-1.1v-1.2h1.1V50.8z M26.2,50.8h-1.1v-1.2h1.1L26.2,50.8L26.2,50.8z M23.9,50.8h-1.1v-1.2h1.1L23.9,50.8
	L23.9,50.8z M21.7,50.8h-1.1v-1.2h1.1V50.8z M19.4,50.8h-1.1v-1.2h1.1V50.8z M17.1,50.8H16v-1.2h1.1V50.8z M14.8,50.8h-1.1v-1.2h1.1
	V50.8z M12.6,50.8h-1.1v-1.2h1.1V50.8z M10.3,50.8H9.2v-1.2h1.1V50.8z M10.3,50.8H9.1v-1.2h1.1V50.8z M8,50.8H6.8v-1.2H8L8,50.8
	L8,50.8z M54.7,49.6h1.2v1.2h-1.2V49.6z M55.8,48.4h-1.2v-1.2h1.2V48.4z M55.8,46.3h-1.2v-1.2h1.2V46.3z M55.8,43.9h-1.2v-1.2h1.2
	V43.9z M55.8,41.5h-1.2v-1.2h1.2V41.5L55.8,41.5z M55.8,39.1h-1.2v-1.2h1.2V39.1z M55.8,36.7h-1.2v-1.2h1.2V36.7z M55.8,34.3h-1.2
	v-1.2h1.2V34.3z M55.8,32h-1.2v-1.2h1.2V32L55.8,32z M55.8,29.6h-1.2v-1.2h1.2V29.6z M55.8,27.2h-1.2V26h1.2V27.2z M55.8,24.8h-1.2
	v-1.2h1.2V24.8z M55.8,22.4h-1.2v-1.2h1.2V22.4z M55.8,20h-1.2v-1.2h1.2V20z"/>
<path style="fill:#EBB866;" d="M9.3,22h42.3v30.4H9.3V22z"/>
<path style="fill:#FFFFFF;" d="M2.8,50.1h55.6v6.1H2.8V50.1z"/>
<path style="fill:#0A0408;" d="M58.9,56.7H2.2v-7.2h56.8L58.9,56.7L58.9,56.7z M3.3,55.6h54.4v-4.9H3.3C3.3,50.7,3.3,55.6,3.3,55.6z
	"/>
<path style="fill:#55B7A8;" d="M15.9,14.3H22v23.2h-6.1V14.3z"/>
<path style="fill:#0A0408;" d="M22.6,38h-7.3V15.9h7.3V38L22.6,38z M16.5,36.8h5v-22h-5V36.8L16.5,36.8z"/>
<path style="fill:#DC444A;" d="M27.5,6.5h6.1v30.9h-6.1L27.5,6.5z"/>
<path style="fill:#0A0408;" d="M34.2,38H27V6h7.3L34.2,38L34.2,38z M28.1,36.8h5V7.1h-5C28.1,7.1,28.1,36.8,28.1,36.8z"/>
<path style="fill:#68A4D9;" d="M39.2,11.3h6.1v26.1h-6.1V11.3z"/>
<path style="fill:#0A0408;" d="M45.9,38h-7.3V10.7h7.3V38z M39.8,36.8h5v-25h-5V36.8z"/>
<path style="fill:#FFFFFF;" d="M15.9,14.6H22v5.8h-6.1V14.6z"/>
<path style="fill:#0A0408;" d="M22.6,21h-7.3v-7h7.3V21z M16.5,19.9h5v-4.6h-5V19.9z"/>
<path style="fill:#FFFFFF;" d="M27.5,3.5h6.1v5.8h-6.1L27.5,3.5z"/>
<path style="fill:#0A0408;" d="M34.2,9.9H27v-7h7.3L34.2,9.9L34.2,9.9z M28.1,8.7h5V4.1h-5C28.1,4.1,28.1,8.7,28.1,8.7z"/>
<path style="fill:#FFFFFF;" d="M39.2,9.9h6.1v5.8h-6.1V9.9z"/>
<path style="fill:#0A0408;" d="M45.9,16.3h-7.3v-7h7.3V16.3z M39.8,15.2h5v-4.6h-5V15.2z"/>
<path style="fill:#0A0408;" d="M15.9,43.8h0.6V45h-0.6V43.8z M43.6,45h-1.1v-1.2h1.1V45z M41.3,45h-1.1v-1.2h1.1V45z M39.1,45h-1.1
	v-1.2h1.1V45z M36.8,45h-1.1v-1.2h1.1V45z M34.5,45h-1.1v-1.2h1.1L34.5,45L34.5,45z M32.3,45h-1.1v-1.2h1.1V45z M30,45h-1.1v-1.2H30
	V45z M27.8,45h-1.1v-1.2h1.1V45z M25.5,45h-1.1v-1.2h1.1V45z M23.2,45h-1.1v-1.2h1.1V45z M21,45h-1.1v-1.2H21V45z M18.7,45h-1.1
	v-1.2h1.1V45z M44.7,43.8h0.6V45h-0.6V43.8z"/>
<path style="fill:#DC444A;" d="M3.3,15.2H7v3.7H3.3V15.2z"/>
<path style="fill:#0A0408;" d="M7.6,19.5H2.7v-4.8h4.8V19.5z M3.9,18.3h2.5v-2.5H3.9V18.3z"/>
<path style="fill:#DC444A;" d="M53.4,15.2h3.7v3.7h-3.7V15.2z"/>
<path style="fill:#0A0408;" d="M57.7,19.4h-4.8v-4.8h4.8V19.4z M54,18.3h2.5v-2.5H54V18.3z"/>
</svg>
