<?xml version="1.0" encoding="utf-8"?>
<!-- Generator: Adobe Illustrator 22.0.1, SVG Export Plug-In . SVG Version: 6.00 Build 0)  -->
<svg version="1.0" id="图层_1" xmlns="http://www.w3.org/2000/svg" xmlns:xlink="http://www.w3.org/1999/xlink" x="0px" y="0px"
	 viewBox="0 0 200 200" style="enable-background:new 0 0 200 200;" xml:space="preserve">
<path style="fill:#FFFFFF;" d="M37.5,100v50h-25v-50H37.5 M37.5,87.5h-25C5.6,87.5,0,93.1,0,100v50c0,6.9,5.6,12.5,12.5,12.5h25
	c6.9,0,12.5-5.6,12.5-12.5v-50C50,93.1,44.4,87.5,37.5,87.5L37.5,87.5z"/>
<path style="fill:#FFFFFF;" d="M112.5,12.5V150h-25V12.5H112.5 M112.5,0h-25C80.6,0,75,5.6,75,12.5V150c0,6.9,5.6,12.5,12.5,12.5h25
	c6.9,0,12.5-5.6,12.5-12.5V12.5C125,5.6,119.4,0,112.5,0L112.5,0z"/>
<path style="fill:#FFFFFF;" d="M187.5,50L187.5,50L187.5,50v100l0,0h-25l0,0V50l0,0H187.5 M187.5,37.5h-25
	c-6.9,0-12.5,5.6-12.5,12.5v100c0,6.9,5.6,12.5,12.5,12.5h25c6.9,0,12.5-5.6,12.5-12.5V50C200,43.1,194.4,37.5,187.5,37.5
	L187.5,37.5z"/>
<path style="fill:#FFFFFF;" d="M193.8,187.5H6.2c-3.5,0-6.2-2.8-6.2-6.2s2.8-6.2,6.2-6.2h187.5c3.5,0,6.2,2.8,6.2,6.2
	S197.2,187.5,193.8,187.5z"/>
</svg>
