<?xml version="1.0" encoding="utf-8"?>
<!-- Generator: Adobe Illustrator 22.0.1, SVG Export Plug-In . SVG Version: 6.00 Build 0)  -->
<svg version="1.0" id="图层_1" xmlns="http://www.w3.org/2000/svg" xmlns:xlink="http://www.w3.org/1999/xlink" x="0px" y="0px"
	 viewBox="0 0 61.1 59.7" style="enable-background:new 0 0 61.1 59.7;" xml:space="preserve">
<path style="fill:#7B49B6;" d="M43.8,14.7c-2.1-1.7-4.4-2.9-6.9-3.6l2.6-8.6c3.6,1.1,7,2.9,10,5.2L43.8,14.7z"/>
<path style="fill:#55BDCB;" d="M18.2,30.5c0,7,5.7,12.8,12.8,12.8s12.8-5.7,12.8-12.8c0-7-5.7-12.8-12.8-12.8
	C23.9,17.7,18.2,23.4,18.2,30.5C18.2,30.5,18.2,30.5,18.2,30.5z"/>
<path style="fill:#55BDCB;" d="M2.1,37.9c-0.6-2.4-0.9-4.9-0.9-7.5C1.2,14.1,14.6,0.7,31,0.7v9.8c-11,0-20,9-20,20
	c0,1.7,0.2,3.4,0.6,5L2.1,37.9z"/>
<path style="fill:#49A3F8;" d="M31,59.8c-13.4,0-25.1-9-28.4-22l8.7-2.2c2.8,10.9,14,17.4,24.9,14.6c1.8-0.5,3.5-1.2,5.1-2.1
	l4.5,7.8C41.2,58.5,36.1,59.8,31,59.8L31,59.8z"/>
<path style="fill:#EFC85D;" d="M45.7,55.9l-4.5-7.8c6.3-3.7,10.2-10.4,10.2-17.7h9C60.3,41,54.7,50.6,45.7,55.9L45.7,55.9z"/>
<path style="fill:#FFFFFF;" d="M60.3,30.5h-9c0-4.5-1.5-8.9-4.3-12.5l7.1-5.5C58.2,17.6,60.4,23.9,60.3,30.5z"/>
<path style="fill:#55BDCB;" d="M47.1,18c-1.6-2.1-3.6-3.8-5.9-5.2L45.7,5c3.3,1.9,6.2,4.4,8.5,7.4L47.1,18z"/>
<path style="fill:#49A3F8;" d="M45.3,16.1c-1.9-1.9-4.1-3.3-6.5-4.4l3.5-8.3C45.8,4.9,49,7,51.7,9.7L45.3,16.1z"/>
<path style="fill:#49A3F8;" d="M41.2,12.8c-3.1-1.8-6.6-2.7-10.2-2.7v-9c5.2,0,10.2,1.4,14.7,3.9L41.2,12.8z"/>
<path style="fill:#FFFFFF;" d="M29.1,13.3h3.7V31h-3.7V13.3z"/>
<path style="fill:#FC3A64;" d="M29.2,31l1.8-3.2l15.3,8.9l-1.8,3.2L29.2,31z"/>
<path style="fill:#FFFFFF;" d="M26.8,29.3c0,2.3,1.9,4.2,4.2,4.2s4.2-1.9,4.2-4.2c0,0,0,0,0,0c0-2.3-1.9-4.2-4.2-4.2
	C28.7,25.2,26.8,27,26.8,29.3z"/>
</svg>
