<?xml version="1.0" encoding="utf-8"?>
<!-- Generator: Adobe Illustrator 22.0.1, SVG Export Plug-In . SVG Version: 6.00 Build 0)  -->
<svg version="1.0" id="图层_1" xmlns="http://www.w3.org/2000/svg" xmlns:xlink="http://www.w3.org/1999/xlink" x="0px" y="0px"
	 viewBox="0 0 61.1 59.7" style="enable-background:new 0 0 61.1 59.7;" xml:space="preserve">
<g>
	<rect x="5" y="52.7" style="fill:#FAFAFA;" width="51.1" height="3"/>
	<path style="fill:#FAFAFA;" d="M57.6,4L57.6,4l-57,0v0v3v37.7v3v0h3v0h55.2h1.8v0v-3V7V4v0H57.6z M46.1,30.8L44,32.9L36,25
		l-4.5,4.5l0,0l-2.1,2.1l-8.9-8.9L10.2,33.1L8.1,31l12.4-12.4l0,0l0,0l8.9,8.9l4.5-4.5l0,0l2.1-2.1l0,0l0,0l2.1,2.1l0,0l5.8,5.8l7-7
		l2.1,2.1L46.1,30.8L46.1,30.8z"/>
</g>
</svg>
