<?xml version="1.0" encoding="utf-8"?>
<!-- Generator: Adobe Illustrator 22.0.1, SVG Export Plug-In . SVG Version: 6.00 Build 0)  -->
<svg version="1.0" id="图层_1" xmlns="http://www.w3.org/2000/svg" xmlns:xlink="http://www.w3.org/1999/xlink" x="0px" y="0px"
	 viewBox="0 0 61.1 59.7" style="enable-background:new 0 0 61.1 59.7;" xml:space="preserve">
<path style="fill:#FAFAFA;" d="M54,21.8c-0.5,0-1,0.1-1.4,0.3L28.7,8.9C28.7,7,27,5.4,25,5.5c-2,0.1-3.5,1.7-3.5,3.7
	c0,0.3,0.1,0.6,0.2,0.9L9,17c-0.6-0.4-1.2-0.6-1.9-0.6c-2,0-3.6,1.6-3.6,3.6c0,1.7,1.2,3,2.7,3.4c0,0,0,0.1,0,0.1L9.6,36
	c-0.4,0.6-0.7,1.3-0.7,2c0,2,1.6,3.6,3.6,3.6c0.2,0,0.3-0.1,0.4-0.1l12.1,10.1c0.1,0.1,0.2,0.1,0.3,0.2c0.5,1.5,1.8,2.5,3.4,2.5
	c2,0,3.6-1.6,3.6-3.6c0-0.3-0.1-0.6-0.2-0.8l20-21.3c0.5,0.3,1.1,0.5,1.8,0.5c2,0,3.6-1.6,3.6-3.6S56,21.8,54,21.8L54,21.8z
	 M28.3,33.3c1.2-0.9,2-2.3,2.2-3.9l17.3-1.5L30,46.8L28.3,33.3z M14,34.7c-0.3-0.1-0.7-0.2-1.1-0.2l-3-11.3L20,27.6
	c-0.1,0.5-0.2,0.9-0.2,1.4c0,0.5,0.1,0.9,0.2,1.4L14,34.7z M49.4,24.2l-19.8,1.8c-0.6-0.8-1.4-1.5-2.3-1.9l-0.1-12l0.1-0.1
	L49.4,24.2z M23.7,23.8c-0.6,0.2-1.1,0.4-1.6,0.7l-10.7-4.7l12.2-6.7C23.6,13.1,23.7,23.8,23.7,23.8z M15.9,39.3
	c0.2-0.4,0.2-0.8,0.3-1.3c0-0.1-0.1-0.2-0.1-0.4l5.9-4.3c0.8,0.6,1.8,0.9,2.8,1l1.7,13.5c-0.1,0-0.1,0.1-0.2,0.1L15.9,39.3
	L15.9,39.3z"/>
</svg>
