<?xml version="1.0" encoding="utf-8"?>
<!-- Generator: Adobe Illustrator 22.0.1, SVG Export Plug-In . SVG Version: 6.00 Build 0)  -->
<svg version="1.0" id="图层_1" xmlns="http://www.w3.org/2000/svg" xmlns:xlink="http://www.w3.org/1999/xlink" x="0px" y="0px"
	 viewBox="0 0 61.1 59.7" style="enable-background:new 0 0 61.1 59.7;" xml:space="preserve">
<path style="fill:#FAFAFA;" d="M37.6,17.6v-14H6.1v52.5h28h3.5H55v-7V38.6v-3.5V24.6v-7H37.6z M34.1,52.6H9.6V7.1h24.5v10.5V52.6z
	 M51.5,45.6h-7v-3.5h7V45.6z M51.5,31.6h-7v-3.5h7V31.6z M41.1,24.6v10.5h10.5v3.5H41.1v10.5h10.5v3.5h-14V21.1h14v3.5H41.1z"/>
<path style="fill:#FAFAFA;" d="M13.1,21.1h17.5V10.6H13.1V21.1z M16.6,14.1h10.5v3.5H16.6V14.1z"/>
<path style="fill:#FAFAFA;" d="M13.1,35.1h17.5V24.6H13.1V35.1z M16.6,28.1h10.5v3.5H16.6V28.1z"/>
<path style="fill:#FAFAFA;" d="M13.1,49.1h17.5V38.6H13.1V49.1z M16.6,42.1h10.5v3.5H16.6V42.1z"/>
</svg>
