<?xml version="1.0" encoding="utf-8"?>
<!-- Generator: Adobe Illustrator 22.0.1, SVG Export Plug-In . SVG Version: 6.00 Build 0)  -->
<svg version="1.0" id="图层_1" xmlns="http://www.w3.org/2000/svg" xmlns:xlink="http://www.w3.org/1999/xlink" x="0px" y="0px"
	 viewBox="0 0 61.1 59.7" style="enable-background:new 0 0 61.1 59.7;" xml:space="preserve">
<path style="fill:#F5F9FF;" d="M48.4,37.5c-0.2-0.4-0.5-0.7-0.8-1c-0.1-0.1-0.3-0.2-0.4-0.3l-0.6-0.3l-0.1,0l0.7-0.4l0.8-0.5
	c0.1-0.1,0.3-0.1,0.4-0.2c0.2-0.2,0.3-0.6,0.3-0.9v-0.5v-0.9c0-0.4,0-0.8,0-1.2l0-1.4c0-0.5,0-1,0-1.5v-0.6v-1.2l0-1.3v-0.7v-1.8
	v-0.2v-1.1v-0.1v-0.1c0-0.1,0-0.3-0.1-0.4c-0.1-0.2-0.1-0.4-0.2-0.6c0,0,0-0.1-0.1-0.1c-0.1-0.2-0.2-0.4-0.4-0.6
	c-0.1-0.1-0.2-0.2-0.3-0.3c0,0-0.1-0.1-0.1-0.1c-0.1-0.1-0.2-0.1-0.3-0.2l-0.1,0l-0.3-0.2l-0.2-0.1l-0.1-0.1l-0.3-0.2l-0.5-0.3
	l-0.3-0.2L45,17.9l-0.3-0.2l-0.2-0.1l-0.1-0.1l-0.2-0.1l-0.1-0.1l-0.4-0.2l-0.6-0.4L41.7,16l-1.4-0.8L39,14.5l-1.1-0.6l-0.8-0.5
	l-0.5-0.3c-0.3-0.2-0.7-0.3-1-0.1c-0.1,0.1-0.2,0.1-0.3,0.2l-0.9,0.5L33.7,14v-0.3V13v-0.1v0v0c0,0,0-0.1,0-0.1c0,0,0,0,0,0
	c0,0,0,0,0-0.1c0,0,0-0.1,0-0.1c0-0.1,0-0.2-0.1-0.3l0,0c0,0,0,0,0-0.1l0,0c0,0,0-0.1,0-0.1s0,0,0-0.1l0,0c0,0,0-0.1,0-0.1v0
	c0-0.1-0.1-0.1-0.1-0.1l0,0c0,0-0.1-0.1-0.1-0.1l0,0c-0.1-0.1-0.1-0.2-0.2-0.3c-0.1-0.1-0.2-0.2-0.2-0.3l0,0c0,0-0.1-0.1-0.1-0.1
	l0,0c0,0,0,0-0.1-0.1c0,0-0.1,0-0.1-0.1l0,0l-0.1,0l0,0l-0.1,0l-0.1,0l0,0l0,0l-0.1,0L32,10.4l-0.3-0.2l-0.1-0.1l-0.1,0l-0.5-0.3
	l-0.4-0.2l0,0l0,0l-0.2-0.1l-0.1,0L30,9.2l-0.4-0.3l-0.1-0.1l-0.1,0L29,8.6l-0.2-0.1l-0.5-0.3l0,0l-0.5-0.3l-0.5-0.3l-0.3-0.2
	l-0.1-0.1l0,0L26,6.9l-0.2-0.1l-0.1,0l-0.1-0.1l-0.2-0.1l-0.3-0.2L24.4,6l-0.2-0.1l0,0l0,0l-0.5-0.3l-0.4-0.3L23,5.2l0,0l0,0L22.7,5
	l-0.1-0.1l-0.2-0.1l-0.2-0.1l0,0L22,4.6l-0.2-0.1l-0.1,0c0,0-0.1,0-0.1-0.1l-0.1,0c-0.1,0-0.2-0.1-0.3-0.1c0,0-0.1,0-0.1,0
	c-0.1,0-0.2,0-0.3,0.1c-0.1,0.1-0.2,0.1-0.3,0.2l0,0L19.5,5l-1.3,0.7l-0.8,0.5l-0.6,0.3l-1,0.6l-0.4,0.2L14.4,8l-0.2,0.1l-0.4,0.2
	l-0.1,0l0,0c-0.1,0.1-0.3,0.2-0.3,0.4c0,0,0,0,0,0.1v0c0,0,0,0,0,0.1v0c0,0,0,0,0,0.1c0,0,0,0,0,0c0,0,0,0,0,0s0,0,0,0c0,0,0,0,0,0
	c0,0,0,0.1,0,0.2l0,7.4l0,5c0,0.2,0,0.4,0.1,0.7c0,0.1,0,0.2,0.1,0.2c0,0,0,0.1,0,0.1c0.1,0.2,0.2,0.4,0.4,0.6c0,0,0,0,0.1,0.1
	c0,0,0.1,0.1,0.1,0.1c0.1,0.1,0.1,0.1,0.2,0.2c0.1,0.1,0.1,0.1,0.2,0.1l0.1,0c0,0,0.1,0,0.1,0.1c0,0,0.1,0,0.1,0.1l0.9,0.5l-1.1,0.6
	l-0.6,0.4l-0.1,0.1c-0.2,0.1-0.4,0.4-0.4,0.9l0,12.4c0,0.8,0.6,1.9,1.3,2.3l10.8,6.2c0.4,0.2,0.7,0.2,1,0.1l0,0l0.3-0.2l0.8-0.5
	l0.7-0.4l0,1c0,0.8,0.6,1.9,1.3,2.3l10.8,6.2c0.4,0.2,0.7,0.2,1,0.1l0,0l0.3-0.2l0.8-0.5l1.1-0.7l1.3-0.8l1.3-0.8l1.1-0.7L48,52
	c0.1-0.1,0.3-0.1,0.4-0.2c0.2-0.2,0.3-0.6,0.3-0.9v-0.5v-0.9c0-0.4,0-0.8,0-1.2l0-1.4c0-0.5,0-1,0-1.5c0-0.5,0-1,0-1.5l0-1.5
	c0-0.5,0-0.9,0-1.4l0-1.1v-1.3v-0.1C48.6,38.2,48.5,37.8,48.4,37.5L48.4,37.5z"/>
<path style="fill:#C0D3F2;" d="M14.7,25.7l0.7,0.4l1.2,0.7l1.5,0.9l1.7,1l1.7,1l1.6,0.9l1.3,0.7l0.8,0.5l3.7-6l-0.7-0.4l-1.4-0.8
	l-1.4-0.8L24.1,23L23,22.3l-0.8-0.5l-0.5-0.3c-0.3-0.2-0.7-0.3-1-0.1c-0.1,0.1-0.2,0.1-0.3,0.2l-0.9,0.5l-1.2,0.7l-1.4,0.8l-1.3,0.8
	l-1.1,0.6l-0.6,0.4l-0.1,0C14,25.3,14.4,25.5,14.7,25.7z"/>
<path style="fill:#BFD2F2;" d="M25.7,32.1l3.8-6.1l-0.2-0.1l-3.7,6C25.6,32,25.7,32.1,25.7,32.1z"/>
<path style="fill:#BED2F2;" d="M25.8,32.2c0,0,0.1,0.1,0.2,0.2l3.8-6.1l-0.3-0.2L29.4,26l-3.8,6.1C25.7,32.1,25.8,32.2,25.8,32.2z
	 M25.2,31.7c0.1,0.1,0.2,0.1,0.3,0.2l3.7-6l-0.4-0.2L25.2,31.7L25.2,31.7z"/>
<path style="fill:#BED2F2;" d="M25.6,32l3.8-6l-0.2-0.1l-3.7,6C25.5,31.9,25.5,32,25.6,32L25.6,32z"/>
<path style="fill:#BDD1F2;" d="M26.2,32.8l3.9-6.3l-0.4-0.3l-3.8,6.1C26.1,32.5,26.2,32.6,26.2,32.8z"/>
<path style="fill:#BCD1F1;" d="M26.5,33.1l4.1-6.5l-0.5-0.3l-3.9,6.3C26.3,32.8,26.4,33,26.5,33.1z"/>
<path style="fill:#BBD0F1;" d="M26.7,34.2v0.5l4.7-7.5l-0.7-0.4l-0.3-0.2l-4,6.4C26.6,33.4,26.7,33.8,26.7,34.2z"/>
<path style="fill:#BACFF1;" d="M26.7,34.7v0.6l5-8l-0.4-0.2l-4.6,7.4C26.7,34.6,26.7,34.6,26.7,34.7z"/>
<path style="fill:#B9CFF1;" d="M26.7,36l5.3-8.5l-0.3-0.2l-0.1-0.1l-4.8,7.8C26.7,35.3,26.7,35.7,26.7,36z"/>
<path style="fill:#B8CEF1;" d="M26.7,35.9v0.8l5.6-9.1l-0.4-0.2l-5.2,8.4V35.9z"/>
<path style="fill:#B7CEF1;" d="M26.7,37.6l5.9-9.7c-0.1-0.1-0.2-0.2-0.4-0.2l-0.1,0l-5.5,8.9C26.7,36.8,26.7,37.4,26.7,37.6z"/>
<path style="fill:#B6CDF1;" d="M26.7,37.6v1.2l6.4-10.4c-0.1-0.1-0.3-0.3-0.4-0.4c0,0-0.1-0.1-0.1-0.1l-5.8,9.4
	C26.7,37.4,26.7,37.5,26.7,37.6z"/>
<path style="fill:#B4CCF0;" d="M26.7,39.5V40l6.8-11.1c-0.1-0.2-0.3-0.5-0.4-0.7l-6.3,10.2C26.7,38.8,26.7,39.1,26.7,39.5z"/>
<path style="fill:#B3CCF0;" d="M26.7,41.1l7-11.5c-0.1-0.2-0.1-0.5-0.2-0.7c0,0,0-0.1-0.1-0.1l-6.7,10.9
	C26.7,40.1,26.7,40.7,26.7,41.1z"/>
<path style="fill:#B2CBF0;" d="M26.7,41.4v0.3l7.1-11.6V30c0-0.1,0-0.3-0.1-0.4l-7,11.3L26.7,41.4z"/>
<path style="fill:#B1CBF0;" d="M26.7,42.9l7.1-11.5v-1.2v-0.1l-7.1,11.4C26.7,41.9,26.7,42.5,26.7,42.9L26.7,42.9z"/>
<path style="fill:#B0CAF0;" d="M26.7,43.3v0.7l7.1-11.5v-1.2v-0.2l-7.1,11.4L26.7,43.3z"/>
<path style="fill:#AFC9F0;" d="M26.7,44.9l7.1-11.5v-1l-7.1,11.4L26.7,44.9z"/>
<path style="fill:#AEC9EF;" d="M26.7,44.9c0,0.4,0,0.8,0,1.1v0.5l7.1-11c0-0.4,0-1.2,0-1.7v-0.7l-7.1,11.4
	C26.7,44.7,26.7,44.8,26.7,44.9z"/>
<path style="fill:#ADC8EF;" d="M26.3,47.4l0.3-0.2l0.3-0.2l6.9-10.8v-1.1l-7.1,11.1C26.7,46.8,26.6,47.2,26.3,47.4z"/>
<path style="fill:#ACC8EF;" d="M27.5,46.7l6.2-9.9v-1l-7,11.4L27.5,46.7z"/>
<path style="fill:#ABC7EF;" d="M33.4,43.2c0.2-0.2,0.3-0.6,0.3-0.9c0-0.2,0-5.8,0-6l-6.5,10.5C27.3,46.8,33.3,43.3,33.4,43.2
	L33.4,43.2z"/>
<path style="fill:#DAE4EF;" d="M25.4,31.9c0.7,0.4,1.3,1.5,1.3,2.3l0,12.4c0,0.8-0.6,1.2-1.3,0.8l-10.8-6.2
	c-0.7-0.4-1.3-1.5-1.3-2.3l0-12.4c0-0.8,0.6-1.2,1.3-0.8L25.4,31.9z"/>
<path style="fill:#FFC2B6;" d="M33.8,12.9L33.8,12.9c0-0.2,0-0.3,0-0.4c-0.1-0.2-0.1-0.5-0.2-0.7c-0.1-0.2-0.2-0.4-0.4-0.6
	c-0.1-0.1-0.2-0.2-0.3-0.3c0,0-0.1-0.1-0.1-0.1c-0.1-0.1-0.2-0.2-0.4-0.2l-0.1,0L32,10.4l-0.4-0.2l-0.1,0l-0.5-0.3l-0.4-0.2l-0.1,0
	l-0.3-0.2L30,9.2l-0.4-0.3l-0.1-0.1L29,8.6l-0.2-0.1l-0.5-0.3l0,0l-0.5-0.3l-0.5-0.3l-0.3-0.2l-0.1-0.1L26,6.9l-0.2-0.1l-0.3-0.2
	l-1-0.6l-0.2-0.1l-0.1,0l-0.9-0.5L23,5.2l0,0l-0.4-0.2l-0.4-0.2l0,0l-0.4-0.2c-0.3-0.2-0.7-0.3-1-0.1c-0.1,0.1-0.2,0.1-0.3,0.2
	L19.5,5l-1.2,0.7l-1.4,0.8l-1.3,0.8L14.4,8l-0.6,0.4l-0.1,0c-0.2,0.1-0.4,0.4-0.4,0.9l0,12.4c0,0.8,0.6,1.9,1.3,2.3l10.8,6.2
	c0.4,0.2,0.7,0.2,1,0.1l0,0l0.3-0.2l0.8-0.5l1.1-0.7l1.3-0.8l1.3-0.8l1.1-0.7l0.8-0.5c0.1-0.1,0.3-0.1,0.4-0.2
	c0.2-0.2,0.3-0.6,0.3-0.9v-0.5v-0.9c0-0.4,0-0.8,0-1.2l0-1.4c0-0.5,0-1,0-1.5c0-0.5,0-1,0-1.5l0-1.5c0-0.5,0-0.9,0-1.4
	c0-0.4,0-0.8,0-1.1v0v-0.5L33.8,12.9C33.8,12.9,33.8,12.9,33.8,12.9L33.8,12.9z"/>
<path style="fill:#C0D3F2;" d="M29.6,34.2l0.7,0.4l1.2,0.7l1.5,0.9l1.7,1l1.7,1L38,39l1.3,0.7l0.8,0.5l3.7-6l-0.7-0.4L41.7,33
	l-1.4-0.8L39,31.4l-1.1-0.6l-0.8-0.5l-0.5-0.3c-0.3-0.2-0.7-0.3-1-0.1c-0.1,0.1-0.2,0.1-0.3,0.2l-0.9,0.5l-1.3,0.7l-1.4,0.8L30.4,33
	l-1.1,0.6L28.6,34l-0.1,0C28.9,33.8,29.3,34,29.6,34.2L29.6,34.2z"/>
<path style="fill:#BFD2F2;" d="M40.7,40.6l3.8-6.1l-0.2-0.1l-3.7,6C40.5,40.5,40.6,40.6,40.7,40.6z"/>
<path style="fill:#BED2F2;" d="M40.7,40.7c0,0,0.1,0.1,0.2,0.2l3.8-6.1l-0.3-0.2l-0.1-0.1l-3.8,6.1C40.6,40.6,40.7,40.7,40.7,40.7z
	 M40.1,40.2c0.1,0.1,0.2,0.1,0.3,0.2l3.7-6l-0.4-0.2L40.1,40.2L40.1,40.2z"/>
<path style="fill:#BED2F2;" d="M40.5,40.5l3.8-6l-0.2-0.1l-3.7,6C40.4,40.4,40.4,40.5,40.5,40.5L40.5,40.5z"/>
<path style="fill:#BDD1F2;" d="M41.2,41.2l3.9-6.3l-0.4-0.3l-3.8,6.1C41,41,41.1,41.1,41.2,41.2z"/>
<path style="fill:#BCD1F1;" d="M41.4,41.6l4.1-6.5L45,34.9l-3.9,6.3C41.2,41.3,41.3,41.5,41.4,41.6z"/>
<path style="fill:#BBD0F1;" d="M41.6,42.7v0.5l4.7-7.5l-0.7-0.4l-0.3-0.2l-4,6.4C41.5,41.9,41.6,42.3,41.6,42.7L41.6,42.7z"/>
<path style="fill:#BACFF1;" d="M41.6,43.2v0.6l5-8l-0.4-0.2l-4.6,7.4C41.6,43,41.6,43.1,41.6,43.2z"/>
<path style="fill:#B9CFF1;" d="M41.6,44.5l5.3-8.5l-0.3-0.2l-0.1-0.1l-4.8,7.8C41.6,43.8,41.6,44.2,41.6,44.5z"/>
<path style="fill:#B8CEF1;" d="M41.6,44.4v0.8l5.6-9.1l-0.4-0.2l-5.2,8.4C41.6,44.3,41.6,44.4,41.6,44.4z"/>
<path style="fill:#B7CEF1;" d="M41.6,46.1l5.9-9.7c-0.1-0.1-0.2-0.2-0.4-0.2l-0.1,0L41.6,45C41.6,45.2,41.6,45.9,41.6,46.1z"/>
<path style="fill:#B6CDF1;" d="M41.6,46v1.2L48,36.8c-0.1-0.1-0.3-0.3-0.4-0.4c0,0-0.1-0.1-0.1-0.1l-5.8,9.4
	C41.6,45.8,41.6,45.9,41.6,46L41.6,46z"/>
<path style="fill:#B4CCF0;" d="M41.6,47.9v0.6l6.8-11.1c-0.1-0.2-0.3-0.5-0.4-0.7l-6.3,10.2V47.9z"/>
<path style="fill:#B3CCF0;" d="M41.6,49.6l7-11.5c-0.1-0.2-0.1-0.5-0.2-0.7c0,0,0-0.1-0.1-0.1l-6.7,10.9
	C41.6,48.6,41.6,49.2,41.6,49.6z"/>
<path style="fill:#B2CBF0;" d="M41.6,49.9v0.3l7.1-11.6v-0.2c0-0.1,0-0.3-0.1-0.4l-7,11.3C41.6,49.6,41.6,49.7,41.6,49.9L41.6,49.9z
	"/>
<path style="fill:#B1CBF0;" d="M41.6,51.3l7.1-11.5v-1.2v-0.1L41.6,50C41.6,50.3,41.6,51,41.6,51.3z"/>
<path style="fill:#B0CAF0;" d="M41.6,51.8v0.7l7.1-11.5v-1.2v-0.2l-7.1,11.4L41.6,51.8z"/>
<path style="fill:#AFC9F0;" d="M41.6,53.4l7.1-11.5v-1l-7.1,11.4L41.6,53.4L41.6,53.4z"/>
<path style="fill:#AEC9EF;" d="M41.6,53.4c0,0.4,0,0.8,0,1.1v0.5l7.1-11c0-0.4,0-1.2,0-1.7v-0.7l-7.1,11.4
	C41.6,53.2,41.6,53.3,41.6,53.4z"/>
<path style="fill:#ADC8EF;" d="M41.2,55.9l0.3-0.2l0.3-0.2l6.9-10.8v-1.1l-7.1,11.1C41.6,55.2,41.5,55.7,41.2,55.9L41.2,55.9z"/>
<path style="fill:#ACC8EF;" d="M42.4,55.1l6.2-9.9v-1l-7.1,11.4L42.4,55.1z"/>
<path style="fill:#ABC7EF;" d="M48.3,51.7c0.2-0.2,0.3-0.6,0.3-0.9c0-0.2,0-5.8,0-6l-6.5,10.5C42.2,55.3,48.2,51.8,48.3,51.7z"/>
<path style="fill:#DAE4EF;" d="M40.3,40.3c0.7,0.4,1.3,1.5,1.3,2.3l0,12.4c0,0.8-0.6,1.2-1.3,0.8l-10.8-6.2
	c-0.7-0.4-1.3-1.5-1.3-2.3l0-12.4c0-0.8,0.6-1.2,1.3-0.8L40.3,40.3z"/>
<path style="fill:#FFA78F;" d="M21.7,4.4c-0.3-0.2-0.7-0.3-1-0.1c-0.1,0.1-0.2,0.1-0.3,0.2L19.5,5l-1.2,0.7l-1.4,0.8l-1.3,0.8
	L14.4,8l-0.6,0.4l-0.1,0c0.4-0.2,0.8,0,1.1,0.2L15.4,9l1.2,0.7l0.8,0.5l4.7-5.5L21.7,4.4z"/>
<path style="fill:#FFA68E;" d="M22.2,4.7L22.2,4.7l-4.8,5.4l0.5,0.3L22.7,5L22.2,4.7z"/>
<path style="fill:#FFA58D;" d="M22.6,4.9l-4.8,5.4l0.3,0.2l0.1,0.1L23,5.2L22.6,4.9z"/>
<path style="fill:#FFA48C;" d="M23,5.2L23,5.2l-4.8,5.4l0.3,0.2l4.8-5.4L23,5.2z"/>
<path style="fill:#FFA28A;" d="M24.1,5.8l-0.9-0.5l-4.8,5.4l1,0.6l4.8-5.4L24.1,5.8z"/>
<path style="fill:#FFA189;" d="M24.2,5.9l-4.8,5.4l0.3,0.2L24.5,6L24.2,5.9z"/>
<path style="fill:#FFA087;" d="M25.4,6.6l-1-0.6l-4.8,5.4l0.2,0.1l1.2,0.7l4.8-5.4L25.4,6.6z"/>
<path style="fill:#FF9F86;" d="M25.8,6.8L21,12.2l0.3,0.2L26,6.9L25.8,6.8z"/>
<path style="fill:#FF9D84;" d="M26.8,7.4L26,6.9l-4.8,5.4l0.4,0.2l0.7,0.4L27,7.5L26.8,7.4z"/>
<path style="fill:#FF9C83;" d="M26.9,7.4l-4.8,5.4l0.4,0.2l4.7-5.4L26.9,7.4z"/>
<path style="fill:#FF9B82;" d="M27.2,7.6L22.4,13l0.6,0.3L27.8,8L27.2,7.6z"/>
<path style="fill:#FF9A81;" d="M28.2,8.2l-0.5-0.3l-4.8,5.4l0.1,0.1l0.5,0.3L28.2,8.2L28.2,8.2z"/>
<path style="fill:#FF9980;" d="M28.2,8.2l-4.8,5.4l0.6,0.3l4.8-5.4L28.2,8.2z"/>
<path style="fill:#FF987F;" d="M28.7,8.5l-4.8,5.4l0.3,0.2L29,8.6L28.7,8.5z"/>
<path style="fill:#FF977E;" d="M29,8.6L24.2,14l0.2,0.1l0.4,0.2l4.8-5.4L29,8.6z"/>
<path style="fill:#FF967D;" d="M29.6,8.9L29.6,8.9l-4.9,5.4l0.5,0.3l0.1,0.1L30,9.2L29.6,8.9z"/>
<path style="fill:#FF957B;" d="M30,9.2l-4.8,5.4c0.2,0.1,0.3,0.2,0.4,0.3l4.8-5.4L30,9.2z"/>
<path style="fill:#FF947A;" d="M30.4,9.4l-4.8,5.4c0.1,0.1,0.2,0.2,0.3,0.3l4.8-5.5L30.4,9.4z"/>
<path style="fill:#FF9379;" d="M30.7,9.6L30.7,9.6l-4.9,5.4l0,0c0.1,0.1,0.3,0.3,0.4,0.4l5-5.6L30.7,9.6z"/>
<path style="fill:#FF9278;" d="M31.1,9.9l-5,5.6c0.1,0.2,0.2,0.3,0.3,0.5l5.2-5.8L31.1,9.9z"/>
<path style="fill:#FF9177;" d="M31.7,10.2L31.7,10.2l-5.2,5.8c0.1,0.2,0.2,0.4,0.2,0.6l5.5-6.1L31.7,10.2z"/>
<path style="fill:#FF9176;" d="M32.2,10.5L32,10.4l-5.4,6c0,0.2,0.1,0.3,0.1,0.5l5.7-6.3L32.2,10.5z"/>
<path style="fill:#FF9075;" d="M32.7,10.8c-0.1-0.1-0.2-0.2-0.4-0.2l-5.6,6.2c0,0.1,0,0.2,0,0.2v0.7l6.1-6.8
	C32.8,10.9,32.7,10.8,32.7,10.8z"/>
<path style="fill:#FF8F74;" d="M32.8,10.8l-6.1,6.6v1l6.4-7.2C33,11.1,32.9,11,32.8,10.8z"/>
<path style="fill:#FF8E73;" d="M33.5,11.8c-0.1-0.2-0.2-0.4-0.4-0.6l-6.4,6.9v1.4L33.5,11.8L33.5,11.8z"/>
<path style="fill:#FF8D72;" d="M33.5,11.8l-6.8,7.1v1.5l7-7.9C33.7,12.3,33.6,12,33.5,11.8z"/>
<path style="fill:#FF8C71;" d="M33.8,12.8c0-0.1,0-0.2,0-0.4l-7,7.6v0.8L33.8,12.8C33.8,12.9,33.8,12.9,33.8,12.8z"/>
<path style="fill:#FF8B70;" d="M33.8,13.4V13v-0.1l-7.1,7.7v1.2l7.1-7.9C33.8,13.8,33.8,13.5,33.8,13.4L33.8,13.4z"/>
<path style="fill:#FF8A6F;" d="M33.8,13.7l-7.1,7.7v0.7l7.1-7.9C33.7,14.1,33.7,13.9,33.8,13.7L33.8,13.7z"/>
<path style="fill:#FF896E;" d="M27.4,29.6l1.1-0.7l1.3-0.8l1.3-0.8l1.1-0.7l0.8-0.5c0.1-0.1,0.3-0.1,0.4-0.2
	c0.2-0.2,0.3-0.6,0.3-0.9c0-0.2,0-10.6,0-11v0l-7.1,7.7c0,0,0,7.3,0,7.4c0,0.3-0.1,0.7-0.4,0.9l0.3-0.2L27.4,29.6z"/>
<path style="fill:#FFC2B6;" d="M25.4,14.7c0.7,0.4,1.3,1.5,1.3,2.3l0,12.4c0,0.8-0.6,1.2-1.3,0.8l-10.8-6.2
	c-0.7-0.4-1.3-1.5-1.3-2.3l0-12.4c0-0.8,0.6-1.2,1.3-0.8L25.4,14.7z"/>
<path style="fill:#C0D3F2;" d="M29.6,17.2l0.7,0.4l1.2,0.7l1.5,0.9l1.7,1l1.7,1L38,22l1.3,0.7l0.8,0.5l3.7-6l-0.7-0.4L41.7,16
	l-1.4-0.8L39,14.5l-1.1-0.6l-0.8-0.5l-0.5-0.3c-0.3-0.2-0.7-0.3-1-0.1c-0.1,0.1-0.2,0.1-0.3,0.2l-0.9,0.5l-1.3,0.7l-1.4,0.8L30.4,16
	l-1.1,0.6L28.6,17l-0.1,0C28.9,16.8,29.3,17,29.6,17.2L29.6,17.2z"/>
<path style="fill:#BFD2F2;" d="M40.7,23.6l3.8-6.1l-0.2-0.1l-3.7,6C40.5,23.5,40.6,23.6,40.7,23.6z"/>
<path style="fill:#BED2F2;" d="M40.7,23.7c0,0,0.1,0.1,0.2,0.2l3.8-6.1l-0.3-0.2l-0.1-0.1l-3.8,6.1C40.6,23.6,40.7,23.7,40.7,23.7z
	 M40.1,23.2c0.1,0.1,0.2,0.1,0.3,0.2l3.7-6l-0.4-0.2L40.1,23.2L40.1,23.2z"/>
<path style="fill:#BED2F2;" d="M40.5,23.5l3.8-6l-0.2-0.1l-3.7,6C40.4,23.4,40.4,23.5,40.5,23.5z"/>
<path style="fill:#BDD1F2;" d="M41.2,24.2l3.9-6.3l-0.4-0.3l-3.8,6.1C41,24,41.1,24.1,41.2,24.2L41.2,24.2z"/>
<path style="fill:#BCD1F1;" d="M41.4,24.6l4.1-6.5L45,17.9l-3.9,6.3C41.2,24.3,41.3,24.5,41.4,24.6z"/>
<path style="fill:#BBD0F1;" d="M41.6,25.7v0.5l4.7-7.5l-0.7-0.4l-0.3-0.2l-4,6.4C41.5,24.9,41.6,25.3,41.6,25.7L41.6,25.7z"/>
<path style="fill:#BACFF1;" d="M41.6,26.2v0.6l5-8l-0.4-0.2L41.6,26C41.6,26.1,41.6,26.1,41.6,26.2z"/>
<path style="fill:#B9CFF1;" d="M41.6,27.5l5.3-8.5l-0.3-0.2l-0.1-0.1l-4.8,7.8C41.6,26.8,41.6,27.2,41.6,27.5z"/>
<path style="fill:#B8CEF1;" d="M41.6,27.4v0.8l5.6-9.1l-0.4-0.2l-5.2,8.4C41.6,27.3,41.6,27.4,41.6,27.4z"/>
<path style="fill:#B7CEF1;" d="M41.6,29.1l5.9-9.7c-0.1-0.1-0.2-0.2-0.4-0.2l-0.1,0L41.6,28C41.6,28.3,41.6,28.9,41.6,29.1z"/>
<path style="fill:#B6CDF1;" d="M41.6,29.1v1.2L48,19.8c-0.1-0.1-0.3-0.3-0.4-0.4c0,0-0.1-0.1-0.1-0.1l-5.8,9.4
	C41.6,28.9,41.6,29,41.6,29.1L41.6,29.1z"/>
<path style="fill:#B4CCF0;" d="M41.6,31v0.6l6.8-11.1c-0.1-0.2-0.3-0.5-0.4-0.7l-6.3,10.2V31z"/>
<path style="fill:#B3CCF0;" d="M41.6,32.6l7-11.5c-0.1-0.2-0.1-0.5-0.2-0.7c0,0,0-0.1-0.1-0.1l-6.7,10.9
	C41.6,31.6,41.6,32.2,41.6,32.6z"/>
<path style="fill:#B2CBF0;" d="M41.6,32.9v0.3l7.1-11.6v-0.2c0-0.1,0-0.3-0.1-0.4l-7,11.3C41.6,32.6,41.6,32.8,41.6,32.9L41.6,32.9z
	"/>
<path style="fill:#B1CBF0;" d="M41.6,34.4l7.1-11.5v-1.2v-0.1L41.6,33C41.6,33.4,41.6,34,41.6,34.4L41.6,34.4z"/>
<path style="fill:#B0CAF0;" d="M41.6,34.8v0.7l7.1-11.5v-1.2v-0.2l-7.1,11.4L41.6,34.8z"/>
<path style="fill:#AFC9F0;" d="M41.6,36.4l7.1-11.5v-1l-7.1,11.4L41.6,36.4L41.6,36.4z"/>
<path style="fill:#AEC9EF;" d="M41.6,36.4c0,0.4,0,0.8,0,1.1v0.5l7.1-11c0-0.4,0-1.2,0-1.7v-0.7l-7.1,11.4
	C41.6,36.2,41.6,36.3,41.6,36.4z"/>
<path style="fill:#ADC8EF;" d="M41.2,38.9l0.3-0.2l0.3-0.2l6.9-10.8v-1.1l-7.1,11.1C41.6,38.3,41.5,38.7,41.2,38.9L41.2,38.9z"/>
<path style="fill:#ACC8EF;" d="M42.4,38.2l6.2-9.9v-1l-7.1,11.4L42.4,38.2z"/>
<path style="fill:#ABC7EF;" d="M48.3,34.7c0.2-0.2,0.3-0.6,0.3-0.9c0-0.2,0-5.8,0-6l-6.5,10.5C42.2,38.3,48.2,34.8,48.3,34.7z"/>
<path style="fill:#DAE4EF;" d="M40.3,23.4c0.7,0.4,1.3,1.5,1.3,2.3l0,12.4c0,0.8-0.6,1.2-1.3,0.8l-10.8-6.2
	c-0.7-0.4-1.3-1.5-1.3-2.3l0-12.4c0-0.8,0.6-1.2,1.3-0.8L40.3,23.4z"/>
</svg>
