<?xml version="1.0" encoding="utf-8"?>
<!-- Generator: Adobe Illustrator 22.0.1, SVG Export Plug-In . SVG Version: 6.00 Build 0)  -->
<svg version="1.0" id="图层_1" xmlns="http://www.w3.org/2000/svg" xmlns:xlink="http://www.w3.org/1999/xlink" x="0px" y="0px"
	 viewBox="0 0 61.1 59.7" style="enable-background:new 0 0 61.1 59.7;" xml:space="preserve">
<path style="fill:#0E63FF;" d="M38.6,41.2c1.6-2.5,2.6-5.5,2.6-8.7c0-5.4-2.8-10.3-7-13.1l-3.4,5.3c2.4,1.7,4,4.5,4,7.8
	c0,5.2-4.2,9.5-9.5,9.5c-5.2,0-9.5-4.2-9.5-9.5s4.2-9.5,9.5-9.5c0.6,0,1.1,0.1,1.7,0.2l0.8-5.3l-11.1,1.4c-4.3,2.8-7.1,7.7-7.1,13.2
	c0,8.7,7.1,15.8,15.8,15.8c3.2,0,6.2-1,8.7-2.6l12.1,12.1h0l4.4-4.4L38.6,41.2z"/>
<path style="fill:#0E63FF;" d="M32.7,2l-8.1,1.8L20.7,17l8.8-1l-1.6,11.2L38.7,10l-10.4,1.4L32.7,2z"/>
</svg>
