<?xml version="1.0" encoding="utf-8"?>
<!-- Generator: Adobe Illustrator 22.0.1, SVG Export Plug-In . SVG Version: 6.00 Build 0)  -->
<svg version="1.0" id="图层_1" xmlns="http://www.w3.org/2000/svg" xmlns:xlink="http://www.w3.org/1999/xlink" x="0px" y="0px"
	 viewBox="0 0 61.1 59.7" style="enable-background:new 0 0 61.1 59.7;" xml:space="preserve">
<path style="fill:#FAFAFA;" d="M30.6,5c-4,0-7.9,0.8-11.5,2.3c-3.7,1.5-6.8,3.6-9.5,6.2c-2.7,2.6-4.8,5.7-6.3,9.2
	C1.7,26.3,0.9,30,0.9,33.9c0,4,0.8,7.8,2.4,11.4c1.6,3.6,3.8,6.7,6.6,9.4h41.3c2.8-2.7,5-5.8,6.6-9.4c1.6-3.6,2.4-7.4,2.4-11.4
	c0-3.9-0.8-7.7-2.3-11.2c-1.6-3.6-3.7-6.6-6.3-9.2c-2.6-2.6-5.8-4.6-9.5-6.2C38.5,5.8,34.6,5,30.6,5L30.6,5L30.6,5L30.6,5
	 M49.5,50.5H11.7c-4.4-4.7-6.6-10.2-6.6-16.6c0-4.5,1.1-8.6,3.4-12.4c2.3-3.8,5.4-6.8,9.3-9c3.9-2.2,8.2-3.3,12.8-3.3
	c4.6,0,8.8,1.1,12.8,3.3c3.9,2.2,7,5.2,9.3,9c2.3,3.8,3.4,8,3.4,12.4C56.1,40.3,53.9,45.8,49.5,50.5L49.5,50.5L49.5,50.5L49.5,50.5
	L49.5,50.5 M12.7,32.8l-5.4-1l0.5-2.9l5.4,1L12.7,32.8 M48,29.9l5.4-1l0.5,2.9l-5.4,1L48,29.9 M17.9,21.5l-3.5-4.1l2.3-1.9l3.5,4.1
	L17.9,21.5 M43.3,21.5L41,19.7l3.5-4.1l2.3,1.9L43.3,21.5 M29.1,11.2h3v5.3h-3V11.2 M30.8,34.1l-9.1-9.9l5.1,12.1
	c-0.9,1.5-0.9,3.1,0.1,4.6c0.7,1,1.6,1.7,2.8,2c1.2,0.3,2.4,0.1,3.4-0.6c1.1-0.7,1.7-1.6,2-2.8c0.3-1.2,0.1-2.3-0.6-3.3
	C33.7,34.8,32.4,34.1,30.8,34.1L30.8,34.1L30.8,34.1L30.8,34.1L30.8,34.1z"/>
</svg>
