<?xml version="1.0" encoding="utf-8"?>
<!-- Generator: Adobe Illustrator 22.0.1, SVG Export Plug-In . SVG Version: 6.00 Build 0)  -->
<svg version="1.0" id="图层_1" xmlns="http://www.w3.org/2000/svg" xmlns:xlink="http://www.w3.org/1999/xlink" x="0px" y="0px"
	 viewBox="0 0 61.1 59.7" style="enable-background:new 0 0 61.1 59.7;" xml:space="preserve">
<g>
	<path style="fill:#FAFAFA;" d="M57,8L47,8L37,8l0-3.1l0-3.1c0,0-0.1-0.7-1-0.6c-0.3,0-6.8,1.2-16.3,3C10.8,5.9,3.5,7.3,3.3,7.4
		C2.9,7.5,2.8,7.9,2.7,8.2c-0.1,0.6-0.1,1.7,0,21.7c0,0-0.7,16.3,0,21.7c0,0.1,0.1,0.3,0.1,0.3c0.3,0.3,0.8,0.4,16.9,3.5L36,58.5
		c0,0,0.7,0,0.9-0.7c0.1-0.2,0.1-1.3,0.1-3.2v-3l10,0l10,0c0,0,1.8,0.1,1.8-1.7c0-5,0-20.1,0-20.1s0-15.1,0-20.1C58.8,8,57,8,57,8z
		 M27.6,28.5c0,3-1.3,5.1-3.9,6.3c-1.5,0.7-2.4,0.9-4.8,1l-2.1,0.1v3.7v3.7h-2.4H12V32.5h0V21.7h3.8c4.2,0,5.8,0.1,7.1,0.5
		C26,23,27.6,25.2,27.6,28.5z M56.5,29.8L56.5,29.8l0,19.5h-9.7H37v-2.9v-2.9h5.8h5.8l0-1.1l0-1.2l-5.7,0l-5.7,0V38v-3.2l0.6,0.2
		c2.1,0.7,4.5,0.6,6.7-0.4c1.2-0.5,2.9-1.9,3.7-3.1c1-1.5,1.5-3.1,1.6-5.1l0.1-1.3h-4h-4.1v-4v-4.1l-1.2,0.1
		c-1.1,0.1-1.8,0.2-3.1,0.6L37,17.8v-3.8v-3.8h9.7h9.7V29.8z M43.3,27.6h3.9L47.1,28c-0.2,1.1-1.2,2.7-2.2,3.6
		c-1.9,1.7-4.8,2.2-7.4,1.1L37,32.4v-6v-6l0.3-0.1c0.4-0.2,1.7-0.7,1.9-0.7c0.2,0,0.2,0.3,0.2,4v4H43.3z"/>
	<path style="fill:#FAFAFA;" d="M42.7,13.7l0,5.2l0,5.2l5.2,0l5.2,0v-0.4c0-1.1-0.3-2.8-0.5-3.7c-0.9-2.6-3-4.7-5.4-5.6
		c-1.1-0.4-1.8-0.5-3.3-0.6L42.7,13.7z M45.1,18.9c0-1.5,0-2.8,0.1-2.8c0.1,0,0.4,0.1,0.8,0.2c2.1,0.7,3.9,2.4,4.5,4.5
		c0.1,0.4,0.2,0.8,0.2,0.8c0,0.1-1.2,0.1-2.8,0.1h-2.8V18.9z"/>
	<path style="fill:#FAFAFA;" d="M20.9,25.9c-0.6-0.3-0.8-0.3-2.3-0.4l-1.7,0v3.3v3.3l1.7,0c1.6,0,1.7-0.1,2.4-0.4
		c1.1-0.6,1.7-1.5,1.7-2.9C22.5,27.4,22,26.5,20.9,25.9z"/>
</g>
</svg>
