<?xml version="1.0" encoding="utf-8"?>
<!-- Generator: Adobe Illustrator 22.0.1, SVG Export Plug-In . SVG Version: 6.00 Build 0)  -->
<svg version="1.0" id="图层_1" xmlns="http://www.w3.org/2000/svg" xmlns:xlink="http://www.w3.org/1999/xlink" x="0px" y="0px"
	 viewBox="0 0 61.1 59.7" style="enable-background:new 0 0 61.1 59.7;" xml:space="preserve">
<path style="fill:#FAFAFA;" d="M27.3,17c-5.3,0-9.6,4.3-9.6,9.6s4.3,9.6,9.6,9.6S37,32,37,26.6S32.7,17,27.3,17z M53,1H8.1
	C4.6,1,1.7,3.8,1.7,7.4v44.9c0,3.5,2.9,6.4,6.4,6.4H53c3.5,0,6.4-2.9,6.4-6.4V7.4C59.4,3.8,56.6,1,53,1z M48.5,52.3L36.2,40
	c-2.6,1.7-5.6,2.7-8.9,2.7c-8.9,0-16.1-7.2-16.1-16.1s7.2-16.1,16.1-16.1s16.1,7.2,16.1,16.1c0,3.3-1,6.3-2.7,8.8L53,47.8L48.5,52.3
	L48.5,52.3z"/>
</svg>
