<?xml version="1.0" encoding="utf-8"?>
<!-- Generator: Adobe Illustrator 22.0.1, SVG Export Plug-In . SVG Version: 6.00 Build 0)  -->
<svg version="1.0" id="图层_1" xmlns="http://www.w3.org/2000/svg" xmlns:xlink="http://www.w3.org/1999/xlink" x="0px" y="0px"
	 viewBox="0 0 61.1 59.7" style="enable-background:new 0 0 61.1 59.7;" xml:space="preserve">
<g>
	<polygon style="fill:#FAFAFA;" points="26.6,22.8 29.4,25.5 37.4,17.5 34.6,14.7 29.4,9.5 26.6,12.2 29.9,15.5 13.9,15.5 
		13.9,19.4 29.9,19.4 	"/>
	<path style="fill:#FAFAFA;" d="M52.1,20.3l-2.8-2.8l-8,8l2.8,2.8l3.3-3.3v4.5c0,4.1-3.3,7.5-7.5,7.5H26.3
		c-0.9-5.4-5.6-9.4-11.2-9.4c-6.3,0-11.4,5.1-11.4,11.4s5.1,11.4,11.4,11.4c5.6,0,10.3-4.1,11.2-9.4h13.9v0c6-0.2,10.9-5,11-11h0V25
		l3.3,3.3l2.8-2.8L52.1,20.3z M16.2,42.5h-1v-7l-1.8,1.6V36l1.8-1.6h1V42.5z"/>
</g>
</svg>
