<?xml version="1.0" encoding="utf-8"?>
<!-- Generator: Adobe Illustrator 22.0.1, SVG Export Plug-In . SVG Version: 6.00 Build 0)  -->
<svg version="1.0" id="图层_1" xmlns="http://www.w3.org/2000/svg" xmlns:xlink="http://www.w3.org/1999/xlink" x="0px" y="0px"
	 viewBox="0 0 61.1 59.7" style="enable-background:new 0 0 61.1 59.7;" xml:space="preserve">
<path style="fill:#FAFAFA;" d="M49.3,18.7l-7.5,13.7c1.4,0,2.6,0.4,3.7,1l7.2-13.2C51.5,20,50.3,19.6,49.3,18.7z M36.4,34.5L31,30.6
	c-0.7,1.1-1.7,1.9-2.8,2.6l6,4.3C34.8,36.5,35.5,35.3,36.4,34.5z M18.2,31.7l-7.5,9.6c1.1,0.6,2.2,1.2,3,2.2l7.6-9.7
	C20.1,33.4,19,32.7,18.2,31.7z"/>
<path style="fill:#FAFAFA;" d="M6.5,13.3c0-0.8,0.7-1.5,1.5-1.5h37.8c0-1.2,0.4-2.4,1-3.3H8.1c-2.8-0.1-5,2.1-5,4.8v28.5
	c1-0.6,2.2-1,3.3-1V13.3H6.5z M53.9,20.3v29.5c0,0.8-0.7,1.5-1.5,1.5H15.8c-0.3,1.2-0.8,2.4-1.7,3.3h38.2c2.8,0,5-2.2,5-5V19.7
	C56.4,20.1,55.3,20.4,53.9,20.3C54,20.4,54,20.3,53.9,20.3z M53.9,6.4c-3.3,0-6.1,2.8-6.1,6.1s2.8,6.1,6.1,6.1
	c3.3,0,6.1-2.8,6.1-6.1S57.2,6.4,53.9,6.4z M53.9,14.6c-1.1,0-2.1-1-2.1-2.1s1-2.1,2.1-2.1s2.1,1,2.1,2.1S55,14.6,53.9,14.6z"/>
<path style="fill:#FAFAFA;" d="M41.7,45.6c3.3,0,6.1-2.8,6.1-6.1s-2.8-6.1-6.1-6.1s-6.1,2.8-6.1,6.1S38.4,45.6,41.7,45.6z
	 M41.7,37.4c1.1,0,2.1,1,2.1,2.1s-1,2.1-2.1,2.1s-2.1-1-2.1-2.1S40.6,37.4,41.7,37.4z M24.3,21.5c-3.3,0-6.1,2.8-6.1,6.1
	s2.8,6.1,6.1,6.1s6.1-2.8,6.1-6.1S27.6,21.5,24.3,21.5z M24.3,29.5c-1.1,0-2.1-1-2.1-2.1c0-1.1,1-2.1,2.1-2.1c1.1,0,2.1,1,2.1,2.1
	C26.3,28.6,25.4,29.5,24.3,29.5z M7.2,43.8c-3.3,0-6.1,2.6-6.1,6s2.8,6.1,6.1,6.1s6.1-2.8,6.1-6.1S10.6,43.8,7.2,43.8z M7.2,51.8
	c-1.1,0-2.1-1-2.1-2.1s1-2.1,2.1-2.1s2.1,1,2.1,2.1S8.3,51.8,7.2,51.8z"/>
</svg>
