<?xml version="1.0" encoding="utf-8"?>
<!-- Generator: Adobe Illustrator 22.0.1, SVG Export Plug-In . SVG Version: 6.00 Build 0)  -->
<svg version="1.0" id="图层_1" xmlns="http://www.w3.org/2000/svg" xmlns:xlink="http://www.w3.org/1999/xlink" x="0px" y="0px"
	 viewBox="0 0 61.1 59.7" style="enable-background:new 0 0 61.1 59.7;" xml:space="preserve">
<path style="fill:#92BCFF;" d="M60.9,33.3c-0.1,0.8-0.9,1.3-1.5,1.7c-0.6,0.4-1.2,0.7-1.8,1.1c-1,0.6-2,1.1-2.9,1.7
	c-1.2,0.7-2.5,1.4-3.7,2.1c-1.4,0.8-2.7,1.6-4.1,2.4c-1.4,0.8-2.7,1.6-4.1,2.4c-1.3,0.7-2.5,1.5-3.8,2.2c-1,0.6-2,1.2-3.1,1.8
	c-0.7,0.4-1.3,0.8-2,1.2c-0.5,0.3-1,0.6-1.6,0.8c-1.5,0.4-3.2,0.3-4.5-0.5c-0.5-0.3-1-0.6-1.5-0.8c-0.9-0.5-1.8-1-2.7-1.5
	c-1.2-0.7-2.3-1.4-3.5-2c-1.3-0.8-2.7-1.5-4-2.3c-1.4-0.8-2.8-1.6-4.1-2.4c-1.3-0.8-2.6-1.5-3.9-2.3l-3.3-1.9
	c-0.8-0.5-1.6-0.9-2.4-1.4c-0.4-0.2-0.7-0.4-1.1-0.6c-0.6-0.3-1.1-0.9-1.1-1.6c0,0.6,0,1.3,0,1.9c0,0.2,0,0.5,0,0.7
	c0,0.6,0.5,1.1,1.1,1.4c0.3,0.2,0.6,0.4,1,0.6c0.8,0.5,1.7,1,2.5,1.4c1.2,0.7,2.4,1.4,3.6,2.1c1.4,0.8,2.9,1.6,4.3,2.5
	c1.5,0.9,3,1.7,4.5,2.6c1.4,0.8,2.8,1.6,4.2,2.4c1.2,0.7,2.3,1.4,3.5,2c0.8,0.5,1.6,0.9,2.4,1.4c0.5,0.3,0.9,0.6,1.4,0.7
	c1.6,0.6,3.4,0.4,4.8-0.4c0.5-0.3,1.1-0.6,1.6-1c1-0.6,2-1.2,3-1.8c1.3-0.8,2.6-1.5,3.9-2.3c1.5-0.9,2.9-1.7,4.4-2.6l4.4-2.6
	c1.3-0.8,2.6-1.5,4-2.3c1-0.6,2-1.2,3.1-1.8c0.6-0.3,1.1-0.7,1.7-1c0.2-0.1,0.3-0.2,0.5-0.3c0.4-0.3,0.8-0.8,0.8-1.3
	c0-0.3,0-0.6,0-0.8c0-0.6,0-1.1,0-1.7C60.9,33.2,60.9,33.2,60.9,33.3C60.9,33.3,60.9,33.3,60.9,33.3L60.9,33.3z"/>
<path style="fill:#E4ECF9;" d="M59.8,31.6c1.5,0.8,1.5,2.2,0,3.1L33.3,50.1c-1.5,0.8-3.8,0.8-5.3,0L1.3,34.7c-1.5-0.8-1.5-2.2,0-3.1
	l26.5-15.4c1.5-0.8,3.8-0.8,5.3,0L59.8,31.6z"/>
<path style="fill:#0955CE;" d="M36.7,29.6L36.7,29.6c0,0,0.1,0,0.1,0h0c0,0,0.1,0,0.1,0l-1.3-0.8h0c0,0,0,0,0,0c0,0,0,0,0,0
	c0,0,0,0,0,0h0h0c0,0,0,0,0,0h-0.1h0c0,0,0,0-0.1,0c0,0,0,0,0,0c0,0,0,0,0,0c0,0,0,0,0,0c0,0-0.1,0-0.1,0l-4,2.3l1.3,0.8l4-2.3
	c0,0,0.1,0,0.1-0.1c0,0,0,0,0,0C36.6,29.6,36.7,29.6,36.7,29.6L36.7,29.6z M29.2,33.9l-1.3-0.8l0-3.1l1.3,0.8L29.2,33.9z"/>
<path style="fill:#0955CE;" d="M24.5,37.3c0-0.1,0-0.1,0-0.2c0,0,0,0,0,0c0-0.1,0-0.1,0.1-0.2c0-0.1,0.1-0.1,0.1-0.2v0
	c0-0.1,0.1-0.1,0.1-0.2c0,0,0,0,0,0c0,0,0.1-0.1,0.1-0.1l0,0c0,0,0.1-0.1,0.1-0.1c0,0,0,0,0,0c0,0,0.1-0.1,0.1-0.1l4-2.3l-1.3-0.8
	l-4,2.3c0,0-0.1,0.1-0.1,0.1c0,0,0,0,0,0c0,0,0,0-0.1,0.1c0,0,0,0,0,0l0,0c0,0,0,0,0,0c0,0,0,0-0.1,0.1c0,0,0,0,0,0c0,0,0,0,0,0
	c0,0,0,0,0,0c0,0,0,0,0,0.1c0,0,0,0,0,0.1v0c0,0,0,0,0,0.1c0,0,0,0,0,0.1c0,0,0,0,0,0.1c0,0,0,0,0,0.1l0,0.1c0,0,0,0,0,0
	c0,0,0,0,0,0c0,0,0,0,0,0c0,0,0,0.1,0,0.1c0,0,0,0,0,0c0,0,0,0,0,0c0,0,0,0,0,0c0,0,0,0.1,0,0.1c0,0.2,0,0.3,0.1,0.4
	c0,0,0.1,0.1,0.1,0.1l1.3,0.8c-0.1-0.1-0.2-0.2-0.2-0.5C24.5,37.4,24.5,37.4,24.5,37.3C24.5,37.3,24.5,37.3,24.5,37.3L24.5,37.3z"/>
<path style="fill:#0E63FF;" d="M41,5.7c0.6-0.3,1.1-0.1,1.1,0.6l0,15.7c0,0.7-0.5,1.5-1.1,1.8l-8.7,5l0,3.1l4-2.3
	c0.4-0.2,0.7,0,0.7,0.4c0,0.5-0.3,1-0.7,1.2l-11.3,6.5c-0.4,0.2-0.7,0-0.7-0.4s0.3-1,0.7-1.2l4-2.3l0-3.1l-8.7,5
	c-0.6,0.3-1.1,0.1-1.1-0.6l0-15.7c0-0.7,0.5-1.5,1.1-1.8L41,5.7L41,5.7z"/>
<path style="fill:#0955CE;" d="M19.4,35.2l-1.3-0.8c0,0.2,0,0.4,0.1,0.5c0,0.1,0.1,0.1,0.2,0.2l1.3,0.8
	C19.6,35.8,19.4,35.5,19.4,35.2L19.4,35.2z"/>
<path style="fill:#0955CE;" d="M40.5,4.9C40.4,4.9,40.4,4.9,40.5,4.9L40.5,4.9C40.4,4.8,40.4,4.8,40.5,4.9c-0.1,0-0.1,0-0.1,0
	c0,0,0,0,0,0c0,0,0,0,0,0h0c0,0,0,0-0.1,0h-0.1c0,0,0,0,0,0c0,0,0,0,0,0c0,0,0,0,0,0c0,0,0,0,0,0c0,0,0,0-0.1,0c0,0,0,0,0,0
	c0,0,0,0,0,0c0,0-0.1,0-0.1,0.1L19.1,16.8c-0.1,0-0.1,0.1-0.2,0.1c0,0,0,0,0,0c-0.1,0-0.1,0.1-0.1,0.1c0,0,0,0,0,0l0,0
	c0,0,0,0-0.1,0.1l0,0c0,0,0,0,0,0c0,0,0,0,0,0.1c0,0,0,0,0,0c0,0,0,0,0,0c0,0,0,0,0,0c0,0,0,0,0,0c0,0,0,0,0,0c0,0,0,0,0,0
	c0,0,0,0,0,0c0,0,0,0.1-0.1,0.1v0c0,0,0,0,0,0c0,0,0,0,0,0.1c0,0,0,0,0,0s0,0,0,0s0,0,0,0c0,0,0,0,0,0.1c0,0,0,0,0,0v0
	c0,0,0,0.1,0,0.1c0,0,0,0,0,0c0,0,0,0,0,0s0,0,0,0c0,0,0,0,0,0c0,0,0,0,0,0c0,0,0,0,0,0c0,0,0,0,0,0s0,0,0,0.1c0,0,0,0,0,0
	c0,0,0,0,0,0c0,0,0,0.1,0,0.1c0,0,0,0,0,0v0c0,0.1,0,0.1,0,0.2l0,15.7l1.3,0.8l0-15.7c0-0.1,0-0.1,0-0.2c0,0,0,0,0,0
	c0,0,0-0.1,0-0.1c0,0,0,0,0-0.1c0,0,0,0,0-0.1c0,0,0-0.1,0-0.1c0,0,0,0,0,0c0,0,0-0.1,0-0.1c0,0,0,0,0,0l0-0.1c0,0,0,0,0,0
	c0,0,0-0.1,0-0.1c0,0,0,0,0,0c0,0,0-0.1,0.1-0.1c0,0,0,0,0,0c0,0,0-0.1,0.1-0.1c0,0,0,0,0,0c0,0,0-0.1,0.1-0.1c0,0,0,0,0,0
	c0,0,0,0,0-0.1c0,0,0,0,0-0.1c0,0,0,0,0,0c0,0,0-0.1,0.1-0.1l0,0c0,0,0.1-0.1,0.1-0.1c0,0,0,0,0,0l0.2-0.1L41.1,5.7
	c0,0,0.1,0,0.1-0.1c0,0,0,0,0,0c0,0,0.1,0,0.1,0c0,0,0,0,0,0c0,0,0,0,0,0c0,0,0,0,0.1,0h0.1c0,0,0.1,0,0.1,0c0,0,0,0,0,0
	c0,0,0,0,0.1,0c0,0,0,0,0,0c0,0,0,0,0.1,0L40.5,4.9z"/>
<path style="fill:#0955CE;" d="M40.1,7.6c0.3-0.2,0.5,0,0.5,0.3l0,12.6c0,0.3-0.2,0.7-0.5,0.9L21.9,31.9c-0.3,0.2-0.5,0-0.5-0.3
	l0-12.6c0-0.3,0.2-0.7,0.5-0.9C21.9,18.2,40.1,7.6,40.1,7.6z"/>
<path style="fill:#FFFFFF;" d="M30.5,27.7c0.4-0.3,0.8-0.1,0.8,0.5c0,0.5-0.4,1.1-0.8,1.4c-0.5,0.3-0.8,0.1-0.8-0.5
	C29.7,28.6,30.1,28,30.5,27.7z"/>
<path style="fill:#674611;" d="M34.8,18.8l-0.9-0.6l0,0L34.8,18.8L34.8,18.8"/>
<path style="fill:#ACC5EA;" d="M34.5,18.4l-0.9-0.5l0.3,0.4l0.9,0.6L34.5,18.4z"/>
<path style="fill:#0544A0;" d="M34.7,15c0.1-0.1,0.2,0,0.1,0.2L34,17.4c0,0.1-0.1,0.1-0.1,0.2c-0.1,0-0.1,0-0.1,0l-0.3-0.4l-2.6,3.2
	c0,0.1-0.1,0.1-0.1,0.1c-0.1,0.1-0.2,0.1-0.3,0l-0.7-1l-2.6,3.2c0,0.1-0.1,0.1-0.1,0.1c-0.1,0.1-0.2,0.1-0.3,0
	c-0.1-0.1,0-0.4,0.1-0.5l2.8-3.5c0-0.1,0.1-0.1,0.1-0.1c0.1-0.1,0.2-0.1,0.3,0l0.7,1l2.3-2.9l-0.3-0.4c-0.1-0.1,0-0.3,0.1-0.4
	C33,16,34.7,15,34.7,15z"/>
<path style="fill:#ACC5EA;" d="M31,20.3l0.9,0.6l2.3-2.9l-0.3-0.4L33,17l0.3,0.4L31,20.3z"/>
<path style="fill:#ACC5EA;" d="M35.9,16.2l-0.5-0.3L35,15.6c0,0,0,0,0,0h0h0h0h0h0h0h0h0c0,0,0,0,0,0l-1.7,1c0,0,0,0-0.1,0h0l0,0
	c0,0,0,0,0,0s0,0,0,0s0,0,0,0s0,0,0,0v0c0,0,0,0,0,0c0,0,0,0,0,0s0,0,0,0s0,0,0,0s0,0,0,0s0,0,0,0c0,0,0,0,0,0V17c0,0,0,0,0,0
	l0.9,0.6c0,0,0,0,0,0v0v0v0c0,0,0-0.1,0-0.1c0,0,0,0,0,0s0,0,0,0c0,0,0,0,0.1,0l1.7-1C35.8,16.2,35.8,16.2,35.9,16.2L35.9,16.2
	C35.8,16.2,35.8,16.2,35.9,16.2L35.9,16.2C35.9,16.2,35.9,16.2,35.9,16.2L35.9,16.2z M31.5,21.7l-0.7-1l-0.9-0.6l0.7,1l0,0
	L31.5,21.7C31.6,21.7,31.5,21.7,31.5,21.7z"/>
<path style="fill:#ACC5EA;" d="M30.2,19.2C30.2,19.2,30.2,19.2,30.2,19.2C30.1,19.2,30.1,19.2,30.2,19.2L30.2,19.2L30.2,19.2l-0.1,0
	h0c0,0,0,0,0,0c0,0,0,0,0,0h0h0c0,0,0,0,0,0l-0.1,0l0,0l0,0c0,0,0,0,0,0c0,0,0,0,0,0L27,22.9l0.9,0.6l2.8-3.5l0.1-0.1l0,0
	c0,0,0,0,0.1,0c0,0,0,0,0.1,0h0c0,0,0,0,0,0h0.1c0,0,0,0,0,0C31.1,19.8,30.2,19.2,30.2,19.2z"/>
<path style="fill:#ACC5EA;" d="M27,22.9C27,22.9,27,22.9,27,22.9L27,22.9C27,23,26.9,23,27,22.9C26.9,23,26.9,23,27,22.9
	C26.9,23,26.9,23,27,22.9C26.9,23,26.9,23,26.9,23c0,0,0,0,0,0c0,0,0,0,0,0c0,0,0,0,0,0s0,0,0,0v0c0,0,0,0,0,0v0c0,0,0,0.1,0,0.1v0
	c0,0,0,0.1,0,0.1c0,0,0,0,0,0l0.9,0.6c0,0,0,0,0,0c0,0,0-0.1,0-0.1v0c0,0,0-0.1,0-0.1c0,0,0,0,0,0v0c0,0,0,0,0-0.1s0,0,0-0.1
	c0,0,0,0,0-0.1l0-0.1L27,22.9L27,22.9C27,22.9,27,22.9,27,22.9L27,22.9z"/>
<path style="fill:#FFFFFF;" d="M35.8,16.2c0.1-0.1,0.2,0,0.1,0.2l-0.9,2.2c0,0.1-0.1,0.1-0.1,0.2c-0.1,0-0.1,0-0.1,0l-0.3-0.4
	l-2.6,3.2c0,0.1-0.1,0.1-0.1,0.1c-0.1,0.1-0.2,0.1-0.3,0l-0.7-1l-2.6,3.2c0,0.1-0.1,0.1-0.1,0.1C28,24,27.9,24,27.8,24
	c-0.1-0.1,0-0.4,0.1-0.5l2.8-3.5c0-0.1,0.1-0.1,0.1-0.1c0.1-0.1,0.2-0.1,0.3,0l0.7,1l2.3-2.9l-0.3-0.4c-0.1-0.1,0-0.3,0.1-0.4
	C34.1,17.2,35.8,16.2,35.8,16.2z"/>
</svg>
