<?xml version="1.0" encoding="utf-8"?>
<!-- Generator: Adobe Illustrator 22.0.1, SVG Export Plug-In . SVG Version: 6.00 Build 0)  -->
<svg version="1.0" id="图层_1" xmlns="http://www.w3.org/2000/svg" xmlns:xlink="http://www.w3.org/1999/xlink" x="0px" y="0px"
	 viewBox="0 0 61.1 59.7" style="enable-background:new 0 0 61.1 59.7;" xml:space="preserve">
<path style="fill:#0E63FF;" d="M44.5,3.8c-5,0-9.1,3.6-10,8.4H22.1v0c-5.4,0.2-9.7,4.5-9.8,9.8h0v4.3l-3-3l-2.5,2.5l7.2,7.2l2.5-2.5
	l4.7-4.7l-2.5-2.5l-3,3v-4c0-3.7,3-6.7,6.7-6.7h12.1c0.8,4.8,5,8.4,10,8.4c5.6,0,10.1-4.5,10.1-10.1S50,3.8,44.5,3.8z M45.1,17.2
	h-0.9V11l-1.6,1.4v-1l1.6-1.4h0.9V17.2z"/>
<path style="fill:#101010;" d="M49.6,29.2l-2.5-2.5L40,33.9l2.5,2.5l3-3v4c0,3.7-3,6.7-6.7,6.7H26.6c-0.8-4.8-5-8.4-10-8.4
	c-5.6,0-10.1,4.5-10.1,10.1c0,5.6,4.5,10.1,10.1,10.1c5,0,9.1-3.6,10-8.4H39v0c5.4-0.2,9.7-4.5,9.8-9.8h0v-4.3l3,3l2.5-2.5
	L49.6,29.2z M19.1,49.6h-4.9v-0.8l3-2.9c0.5-0.5,0.8-1,0.8-1.6c0-0.8-0.6-1.4-1.5-1.4c-0.8,0-1.5,0.6-1.5,1.5h-0.9
	c0-1.3,1-2.2,2.3-2.2c1.4,0,2.3,1,2.3,2.2c0,0.9-0.5,1.5-1.1,2.1l-2.5,2.4h3.8V49.6z"/>
</svg>
