<?xml version="1.0" encoding="utf-8"?>
<!-- Generator: Adobe Illustrator 23.0.1, SVG Export Plug-In . SVG Version: 6.00 Build 0)  -->
<svg version="1.0" id="图层_1" xmlns="http://www.w3.org/2000/svg" xmlns:xlink="http://www.w3.org/1999/xlink" x="0px" y="0px"
	 viewBox="0 0 60 60" style="enable-background:new 0 0 60 60;" xml:space="preserve">
<style type="text/css">
	.st0{fill:#4AC0FF;}
</style>
<g>
	<path class="st0" d="M57.6,11.9C57.6,11.8,57.6,11.8,57.6,11.9c0-0.2-0.1-0.4-0.1-0.6c0,0,0,0,0,0c-0.1-0.2-0.2-0.3-0.3-0.5
		c0,0,0,0,0,0l-11-10.3c0,0,0,0,0,0c-0.1-0.1-0.3-0.2-0.5-0.3c0,0,0,0-0.1,0c-0.2-0.1-0.3-0.1-0.5-0.1H14.1c-0.8,0-1.5,0.7-1.5,1.5
		v5.2L3.4,9.5c0,0-0.1,0-0.1,0c0,0-0.1,0-0.1,0.1c0,0-0.1,0.1-0.1,0.1c0,0-0.1,0.1-0.1,0.1c0,0-0.1,0.1-0.1,0.1c0,0-0.1,0.1-0.1,0.1
		c0,0-0.1,0.1-0.1,0.1c0,0-0.1,0.1-0.1,0.1c0,0,0,0.1-0.1,0.1c0,0,0,0.1-0.1,0.1c0,0,0,0.1,0,0.1c0,0,0,0.1,0,0.1c0,0.1,0,0.1,0,0.2
		c0,0,0,0.1,0,0.1c0,0.1,0,0.1,0,0.2c0,0,0,0.1,0,0.1l12.1,47c0,0.1,0.1,0.2,0.1,0.3c0,0.1,0,0.1,0.1,0.2c0.1,0.1,0.1,0.1,0.2,0.2
		c0,0,0.1,0.1,0.1,0.1c0.1,0.1,0.2,0.1,0.3,0.1c0.1,0,0.1,0.1,0.2,0.1c0.1,0,0.3,0.1,0.5,0.1c0,0,0,0,0,0c0,0,0,0,0,0c0,0,0,0,0,0
		c0,0,0,0,0,0c0.1,0,0.2,0,0.3,0L48,52h8.1c0.8,0,1.5-0.7,1.5-1.5L57.6,11.9C57.6,11.9,57.6,11.9,57.6,11.9z M15.6,49V3.1h26.1v9.6
		c0,0.8,0.7,1.5,1.5,1.5h11.5V49H15.6z M53.2,11.3h-8.6v-8L53.2,11.3z M12.6,38.8L5.6,12l6.9-2V38.8z M17,56.2L15.9,52h19L17,56.2z"
		/>
	<path class="st0" d="M43.7,27.7h-7.1v-7.1c0-0.8-0.7-1.5-1.5-1.5s-1.5,0.7-1.5,1.5v7.1h-7.1c-0.8,0-1.5,0.7-1.5,1.5
		s0.7,1.5,1.5,1.5h7.1v7.1c0,0.8,0.7,1.5,1.5,1.5s1.5-0.7,1.5-1.5v-7.1h7.1c0.8,0,1.5-0.7,1.5-1.5S44.5,27.7,43.7,27.7z"/>
</g>
</svg>
