<?xml version="1.0" encoding="utf-8"?>
<!-- Generator: Adobe Illustrator 23.0.1, SVG Export Plug-In . SVG Version: 6.00 Build 0)  -->
<svg version="1.0" id="图层_1" xmlns="http://www.w3.org/2000/svg" xmlns:xlink="http://www.w3.org/1999/xlink" x="0px" y="0px"
	 viewBox="0 0 60 60" style="enable-background:new 0 0 60 60;" xml:space="preserve">
<style type="text/css">
	.st0{fill:#01B8E2;}
	.st1{fill:#E2EDF2;}
</style>
<g>
	<path class="st0" d="M20.1,31.5H1.8c-0.8,0-1.5-0.7-1.5-1.5s0.7-1.5,1.5-1.5h18.3c0.8,0,1.5,0.7,1.5,1.5S21,31.5,20.1,31.5z"/>
	<path class="st0" d="M58.2,31.5H39.9c-0.8,0-1.5-0.7-1.5-1.5s0.7-1.5,1.5-1.5h18.3c0.8,0,1.5,0.7,1.5,1.5S59,31.5,58.2,31.5z"/>
	<g>
		<path class="st1" d="M30,21.6c-0.8,0-1.5-0.7-1.5-1.5V1.8c0-0.8,0.7-1.5,1.5-1.5s1.5,0.7,1.5,1.5v18.3
			C31.5,20.9,30.9,21.6,30,21.6z"/>
		<path class="st1" d="M22,23.4c-0.4,0-0.8-0.1-1.1-0.4L9,11.1C8.4,10.5,8.4,9.6,9,9s1.5-0.6,2.1,0L23,20.9c0.6,0.6,0.6,1.5,0,2.1
			C22.7,23.3,22.3,23.4,22,23.4z"/>
		<path class="st1" d="M38.1,23.4c-0.4,0-0.8-0.1-1.1-0.4c-0.6-0.6-0.6-1.5,0-2.1L48.9,9c0.6-0.6,1.5-0.6,2.1,0s0.6,1.5,0,2.1
			L39.1,23C38.8,23.3,38.5,23.4,38.1,23.4z"/>
	</g>
	<g>
		<path class="st1" d="M30,59.7c-0.8,0-1.5-0.7-1.5-1.5V39.9c0-0.8,0.7-1.5,1.5-1.5s1.5,0.7,1.5,1.5v18.3C31.5,59,30.9,59.7,30,59.7
			z"/>
		<path class="st1" d="M10.1,51.5c-0.4,0-0.8-0.1-1.1-0.4c-0.6-0.6-0.6-1.5,0-2.1l11.9-12c0.6-0.6,1.5-0.6,2.1,0s0.6,1.5,0,2.1
			L11.2,51C10.9,51.3,10.5,51.5,10.1,51.5z"/>
		<path class="st1" d="M49.9,51.5c-0.4,0-0.8-0.1-1.1-0.4L37,39.1c-0.6-0.6-0.6-1.5,0-2.1s1.5-0.6,2.1,0L51,48.9
			c0.6,0.6,0.6,1.5,0,2.1C50.7,51.3,50.3,51.5,49.9,51.5z"/>
	</g>
</g>
</svg>
