<?xml version="1.0" encoding="utf-8"?>
<!-- Generator: Adobe Illustrator 23.0.1, SVG Export Plug-In . SVG Version: 6.00 Build 0)  -->
<svg version="1.0" id="图层_1" xmlns="http://www.w3.org/2000/svg" xmlns:xlink="http://www.w3.org/1999/xlink" x="0px" y="0px"
	 viewBox="0 0 60 60" style="enable-background:new 0 0 60 60;" xml:space="preserve">
<style type="text/css">
	.st0{fill:#E2EDF2;}
	.st1{fill:#01B8E2;}
</style>
<g>
	<path class="st0" d="M59.3,24.3L46.2,14.1V7.6c0-0.8-0.7-1.5-1.5-1.5s-1.5,0.7-1.5,1.5v4.3L31.1,2.5c-0.3-0.2-0.6-0.3-0.9-0.3
		s-0.7,0.1-0.9,0.3L0.6,24.6C0,25.1-0.2,26,0.3,26.7c0.3,0.4,0.7,0.6,1.2,0.6c0.3,0,0.6-0.1,0.9-0.3l4.9-3.8v25.5
		c0,0.8,0.7,1.5,1.5,1.5s1.5-0.7,1.5-1.5V20.9l20-15.4L50,20.8v27.9c0,0.8,0.7,1.5,1.5,1.5s1.5-0.7,1.5-1.5V23.1l4.5,3.5
		c0.3,0.2,0.6,0.3,0.9,0.3c0.4,0,0.9-0.2,1.2-0.6C60.1,25.7,60,24.8,59.3,24.3z"/>
	<path class="st1" d="M42.6,23.6H18.8c-0.8,0-1.5,0.7-1.5,1.5v31.5c0,0.8,0.7,1.5,1.5,1.5s1.5-0.7,1.5-1.5v-30h22.3
		c0.8,0,1.5-0.7,1.5-1.5S43.4,23.6,42.6,23.6z"/>
	<path class="st0" d="M41.4,36.8c0-0.2-0.1-0.3-0.1-0.5v-0.1c-0.1-0.1-0.1-0.2-0.2-0.3c0,0,0,0-0.1-0.1c0,0,0,0,0-0.1l-6.1-5.5l0,0
		c-0.1-0.1-0.3-0.2-0.5-0.3c0,0,0,0-0.1,0s-0.3-0.1-0.4-0.1l0,0c0,0,0,0-0.1,0c-0.2,0-0.3,0.1-0.5,0.1l0,0c-0.2,0.1-0.3,0.2-0.4,0.3
		l0,0l0,0c-0.1,0.1-0.2,0.3-0.3,0.4c0,0,0,0,0,0.1s-0.1,0.3-0.1,0.4v8.2l-5.8-4.9c-0.6-0.5-1.6-0.5-2.1,0.2
		c-0.5,0.6-0.5,1.6,0.2,2.1l6.6,5.7l-6.7,5.9C24,49,24,50,24.5,50.6c0.3,0.3,0.7,0.5,1.1,0.5c0.3,0,0.7-0.1,1-0.4l5.8-5.1v8
		c0,0.8,0.7,1.5,1.5,1.5c0.5,0,1-0.3,1.2-0.7l5.8-5.3c0,0,0,0,0-0.1c0,0,0.1,0,0.1-0.1c0.1-0.1,0.1-0.2,0.2-0.3v-0.1
		c0.1-0.2,0.1-0.3,0.1-0.5c0,0,0,0,0-0.1c0-0.2,0-0.3-0.1-0.5l0,0c-0.1-0.2-0.2-0.3-0.3-0.5l0,0l0,0l-0.1-0.1l-5.1-4.4l5.1-4.5
		l0.1-0.1l0,0l0,0c0.1-0.1,0.2-0.3,0.3-0.5l0,0C41.4,37.2,41.4,37.1,41.4,36.8C41.4,36.9,41.4,36.9,41.4,36.8z M37.7,36.9L35.4,39
		v-4.3L37.7,36.9z M35.4,46l2.4,2l-2.4,2.1V46z"/>
</g>
</svg>
