<?xml version="1.0" encoding="utf-8"?>
<!-- Generator: Adobe Illustrator 23.0.1, SVG Export Plug-In . SVG Version: 6.00 Build 0)  -->
<svg version="1.0" id="图层_1" xmlns="http://www.w3.org/2000/svg" xmlns:xlink="http://www.w3.org/1999/xlink" x="0px" y="0px"
	 viewBox="0 0 60 60" style="enable-background:new 0 0 60 60;" xml:space="preserve">
<style type="text/css">
	.st0{fill:#E2EDF2;}
	.st1{fill:#01B8E2;}
</style>
<path class="st0" d="M58.5,51.9h-4.7V25.4c0-0.8-0.7-1.5-1.5-1.5s-1.5,0.7-1.5,1.5v26.5H38.9V30.3c0-0.8-0.7-1.5-1.5-1.5
	c-0.8,0-1.5,0.7-1.5,1.5v21.6h-12V23c0-0.8-0.7-1.5-1.5-1.5c-0.8,0-1.5,0.7-1.5,1.5v28.9h-12V34.2c0-0.8-0.7-1.5-1.5-1.5
	c-0.8,0-1.5,0.7-1.5,1.5v17.7H1.5c-0.8,0-1.5,0.7-1.5,1.5c0,0.8,0.7,1.5,1.5,1.5h57c0.8,0,1.5-0.7,1.5-1.5
	C60,52.6,59.3,51.9,58.5,51.9z"/>
<path class="st1" d="M56.9,6h-7.6c-0.9,0-1.6,0.7-1.6,1.5S48.4,9,49.2,9h4.2L38,21.7L22.5,12c-0.7-0.4-1.7-0.2-2.1,0.5c0,0,0,0,0,0
	L1.5,28.4c-0.7,0.5-0.7,1.5-0.2,2.1C1.5,30.8,2,31,2.4,31c0.4,0,0.7-0.1,1-0.3l18.5-15.5l15.4,9.7c0,0,0.1,0,0.1,0
	c0.1,0,0.2,0.1,0.3,0.1c0,0,0,0,0,0c0.1,0,0.3,0.1,0.4,0.1c0.1,0,0.2,0,0.4-0.1c0.1,0,0.1,0,0.2-0.1c0.1,0,0.1-0.1,0.2-0.1
	c0.1,0,0.1,0,0.2-0.1l16.4-13.6v3.9c0,0.8,0.7,1.5,1.5,1.5c0.9,0,1.5-0.7,1.5-1.5V7.5C58.4,6.7,57.7,6,56.9,6z"/>
</svg>
