<?xml version="1.0" encoding="utf-8"?>
<!-- Generator: Adobe Illustrator 23.0.1, SVG Export Plug-In . SVG Version: 6.00 Build 0)  -->
<svg version="1.0" id="图层_1" xmlns="http://www.w3.org/2000/svg" xmlns:xlink="http://www.w3.org/1999/xlink" x="0px" y="0px"
	 viewBox="0 0 60 60" style="enable-background:new 0 0 60 60;" xml:space="preserve">
<style type="text/css">
	.st0{fill:#E2EDF2;}
	.st1{fill:#01B8E2;}
</style>
<path class="st0" d="M59.8,36.4c0-1.5-0.8-2.9-2-3.7c-1.5-1-3.4-1.1-5.1-0.3c-0.1,0-0.2,0.1-0.2,0.2l-1.7,0.9v-4.1
	c0-0.8-0.7-1.5-1.5-1.5s-1.5,0.7-1.5,1.5v5.7L40.6,39c0,0,0,0,0,0c0-0.1,0-0.2,0-0.3c0-2.9-2.4-5.3-5.3-5.3c-0.2,0-0.3,0-0.5,0.1H18
	c0,0-0.1,0-0.1,0c0,0,0,0-0.1,0c-0.3,0-0.5,0.1-0.7,0.3l-3,1.8v-6c0-0.8-0.7-1.5-1.5-1.5c-0.8,0-1.5,0.7-1.5,1.5v7.8l-3.9,2.3
	l-0.8-1.2c0,0-0.1-0.1-0.1-0.1c0,0,0,0,0,0C6.2,38.2,6.1,38.1,6,38c0,0-0.1-0.1-0.1-0.1c-0.5-0.3-1.2-0.4-1.7,0l-3.6,2.3
	c-0.6,0.5-0.8,1.4-0.4,2.1C0.5,42.8,1,43,1.5,43c0.3,0,0.6-0.1,0.8-0.3l2.3-1.5l9.7,15.1L13.3,57c-0.6,0.5-0.8,1.4-0.3,2.1
	c0.3,0.4,0.7,0.6,1.2,0.6c0.3,0,0.6,0,0.9-0.3l1.8-1.3c0.1,0,0.2-0.1,0.2-0.1c0,0,0.1-0.1,0.1-0.1l0,0c0.1-0.1,0.2-0.2,0.2-0.2
	c0.1-0.1,0.1-0.2,0.2-0.3c0-0.1,0.1-0.1,0.1-0.2c0-0.1,0.1-0.3,0.1-0.4c0,0,0-0.1,0-0.1c0-0.2-0.1-0.5-0.2-0.7l-0.1-0.1l3.1-2.1
	h16.8c0.1,0,0.3,0,0.4-0.1c0,0,0,0,0,0c0.1,0,0.2-0.1,0.3-0.1c0,0,0.1,0,0.1,0l0.1-0.1c0,0,0,0,0,0l16.7-10.8c0.1,0,0.2-0.1,0.3-0.1
	l0.1-0.1c2.1-1.3,4.1-2.6,4.2-5.6C59.7,36.7,59.8,36.6,59.8,36.4z M53.9,39.8c-0.1,0-0.2,0-0.3,0.1L36.9,50.7H20.7
	c-0.4-0.1-0.9-0.1-1.3,0.2l-3.5,2.4L8.8,42.2l9.8-5.8h16.7c0.1,0,0.3,0,0.4-0.1c1.1,0.2,1.9,1.2,1.9,2.3c0,0.1,0,0.2,0,0.3
	c0,0.1,0,0.2,0,0.3c0,0.8-0.4,1.5-1,1.9l-0.4,0.2c0,0,0,0,0,0c-0.3,0.1-0.6,0.2-0.9,0.2H24.1c-0.8,0-1.5,0.7-1.5,1.5
	s0.7,1.5,1.5,1.5h11.4c0.2,0,0.3,0,0.4-0.1c0.9-0.1,1.7-0.4,2.4-1l15.4-8.3c0,0,0.1,0,0.1,0c0.8-0.4,1.6-0.4,2.2,0
	c0.3,0.2,0.6,0.6,0.6,1.2C56.8,38,56.1,38.5,53.9,39.8z"/>
<g>
	<path class="st1" d="M56.5,25.3c0.1-0.2,0.1-0.3,0.1-0.5v-5.6c0.2-0.6,0-1.3-0.6-1.7L31.9,1.2c-0.3-0.2-0.6-0.3-1-0.3
		c-0.3,0-0.7,0.1-1,0.3L6,17.4c-0.3,0.2-0.5,0.4-0.6,0.7c-0.1,0.2-0.1,0.4-0.1,0.6v6.1c0,0.8,0.7,1.5,1.5,1.5h5.8
		c0.8,0,1.5-0.6,1.5-1.5v-2l17-12.2l16.7,12.2v2c0,0.8,0.7,1.5,1.5,1.5h5.8c0.2,0,0.4,0,0.5-0.1c0.1,0,0.2-0.1,0.3-0.1
		c0,0,0.1-0.1,0.1-0.1c0.1-0.1,0.2-0.2,0.3-0.3c0,0,0-0.1,0.1-0.1C56.4,25.5,56.5,25.4,56.5,25.3z M50.8,22.6
		c0.2-0.6,0.1-1.2-0.4-1.6c0,0,0,0,0,0c0,0,0,0,0,0l-0.1-0.1c0,0-0.1-0.1-0.1-0.1L32,7.5c0,0-0.1,0-0.1-0.1
		c-0.1-0.1-0.2-0.1-0.3-0.1c-0.5-0.2-1-0.1-1.3,0.2c0,0,0,0-0.1,0L11.7,20.8c-0.1,0.1-0.2,0.2-0.3,0.3c-0.2,0.3-0.3,0.6-0.3,0.9v1.3
		H8.3v-3.8L31,4.2l22.6,15.2v3.9h-2.8V22.6z"/>
	<path class="st1" d="M40.5,6.2c0.9,0,1.5-0.7,1.5-1.5V3.6h6.3v7c0,0.8,0.7,1.5,1.5,1.5c0.9,0,1.5-0.7,1.5-1.5V2.1
		c0-0.8-0.7-1.5-1.5-1.5h-9.3c-0.8,0-1.5,0.7-1.5,1.5v2.6C39,5.5,39.7,6.2,40.5,6.2z"/>
</g>
</svg>
