<?xml version="1.0" encoding="utf-8"?>
<!-- Generator: Adobe Illustrator 23.0.1, SVG Export Plug-In . SVG Version: 6.00 Build 0)  -->
<svg version="1.0" id="图层_1" xmlns="http://www.w3.org/2000/svg" xmlns:xlink="http://www.w3.org/1999/xlink" x="0px" y="0px"
	 viewBox="0 0 60 60" style="enable-background:new 0 0 60 60;" xml:space="preserve">
<style type="text/css">
	.st0{fill:#E2EDF2;}
	.st1{fill:#01B8E2;}
</style>
<g>
	<path class="st0" d="M19.7,15.5H1.8c-0.8,0-1.5,0.7-1.5,1.5v29.8c0,0.8,0.7,1.5,1.5,1.5h15.8c0.9,0,1.5-0.7,1.5-1.5
		s-0.7-1.5-1.5-1.5H3.3V18.5h16.4c0.8,0,1.5-0.7,1.5-1.5S20.5,15.5,19.7,15.5z"/>
	<path class="st0" d="M58.4,22.4h-5.2V17c0-0.8-0.7-1.5-1.5-1.5H33.9c-0.8,0-1.5,0.7-1.5,1.5s0.7,1.5,1.5,1.5h16.3v26.8H31.3
		c-0.8,0-1.5,0.7-1.5,1.5s0.7,1.5,1.5,1.5h20.4c0.8,0,1.5-0.6,1.5-1.5V40h5.2c0.8,0,1.5-0.6,1.5-1.4V23.9
		C59.9,23.1,59.2,22.4,58.4,22.4z M53.2,25.4h3.7V37h-3.7V25.4z"/>
</g>
<path class="st1" d="M40.7,25.9c0.2-0.3,0.3-0.7,0.2-1c-0.1-0.8-0.9-1.4-1.7-1.3l-9.3,1.2l3-17.2l0,0c0.5-0.7,0.3-1.6-0.4-2.1
	c-0.4-0.3-0.8-0.3-1.2-0.2c-0.5,0.1-1,0.5-1.1,1L11.6,34.8c-0.4,0.3-0.6,0.8-0.5,1.3c0,0.2,0.1,0.5,0.3,0.6c0.1,0.1,0.2,0.2,0.3,0.3
	c0,0,0,0,0,0c0.1,0.1,0.1,0.1,0.2,0.1c0.1,0,0.2,0.1,0.3,0.1c0,0,0,0,0,0c0.2,0.1,0.3,0.1,0.5,0.1c0,0,0.1,0,0.2,0l9.3-1.2L19,53.7
	c-0.4,0.7-0.2,1.5,0.5,2c0.1,0.1,0.3,0.1,0.4,0.1c0.1,0,0.1,0,0.2,0.1c0.1,0,0.2,0,0.3,0c0.6,0,1.1-0.4,1.3-0.9L40.7,25.9
	C40.6,26,40.6,25.9,40.7,25.9z M26.6,26.4c-0.2,0.8,0.4,1.6,1.2,1.7c0.1,0,0.2,0,0.3,0c0,0,0.1,0,0.2,0l8-1.1L23.1,47.4l2.2-12.6
	c0,0,0,0,0,0c0.1-0.2,0.1-0.4,0-0.6c-0.1-0.8-0.9-1.4-1.7-1.3L15.8,34l13-20.1L26.6,26.4z"/>
</svg>
