<?xml version="1.0" encoding="utf-8"?>
<!-- Generator: Adobe Illustrator 23.0.1, SVG Export Plug-In . SVG Version: 6.00 Build 0)  -->
<svg version="1.0" id="图层_1" xmlns="http://www.w3.org/2000/svg" xmlns:xlink="http://www.w3.org/1999/xlink" x="0px" y="0px"
	 viewBox="0 0 60 60" style="enable-background:new 0 0 60 60;" xml:space="preserve">
<style type="text/css">
	.st0{fill:#01B8E2;}
	.st1{fill:#E2EDF2;}
</style>
<g>
	<path class="st0" d="M50.7,14.7c-1.6-2.2-7.5-9.3-19.8-9.5c-0.2-0.1-0.4-0.1-0.6-0.1c-8.4,0-16,3.6-20.3,9.5
		c-0.5,0.7-0.4,1.6,0.3,2.1c0.3,0.2,0.6,0.3,0.9,0.3c0.5,0,1-0.2,1.2-0.7c1.5-1.9,6.8-8,17.5-8.2c0.1,0.1,0.3,0.1,0.5,0.1
		c8.9,0,15,4.2,17.8,8.2c0.3,0.4,0.7,0.6,1.2,0.6c0.3,0,0.6-0.1,0.9-0.2C51,16.3,51.2,15.4,50.7,14.7z"/>
	<path class="st0" d="M30.3,14.2c-5.7,0-9.1,2.9-11.4,5.3c-0.5,0.6-0.5,1.5,0.1,2.1c0.3,0.3,0.6,0.4,1,0.4s0.8-0.2,1.1-0.5
		c2.1-2.2,4.7-4.3,9.2-4.3s7.1,2.1,9.2,4.3c0.3,0.3,0.7,0.5,1.1,0.5c0.4,0,0.7-0.2,1-0.4c0.6-0.5,0.7-1.5,0.1-2.1
		C39.4,17,36,14.2,30.3,14.2z"/>
</g>
<g>
	<path class="st1" d="M52.8,37.6h-9.6H39h-1.3c-0.8,0-1.5,0.7-1.5,1.5c0,0.8,0.7,1.5,1.5,1.5H39h4.2h9.2v11h-44v-11h9.2h4.9h0.6
		c0.8,0,1.5-0.7,1.5-1.5c0-0.8-0.7-1.5-1.5-1.5h-0.6h-4.9H7.8c-1.4,0-2.5,1.1-2.5,2.5v12c0,1.4,1.1,2.5,2.5,2.5h45
		c1.4,0,2.5-1.1,2.5-2.5v-12C55.3,38.7,54.2,37.6,52.8,37.6z"/>
	<path class="st1" d="M28.8,33.2v11c0,0.8,0.7,1.5,1.5,1.5s1.5-0.6,1.5-1.4V33.2c2-0.6,3.5-2.6,3.5-4.7c0-2.8-2.2-5-5-5s-5,2.3-5,5
		C25.3,30.8,26.8,32.6,28.8,33.2z M30.3,26.5c1.1,0,2,0.9,2,2s-0.9,2-2,2c-1.1,0-2-0.9-2-2S29.2,26.5,30.3,26.5z"/>
	<path class="st1" d="M12.9,45.1c-0.8,0-1.5,0.7-1.5,1.5c0,0.8,0.7,1.5,1.5,1.5h5.5c0.8,0,1.5-0.7,1.5-1.5c0-0.8-0.7-1.5-1.5-1.5
		H12.9z"/>
</g>
</svg>
