<?xml version="1.0" encoding="utf-8"?>
<!-- Generator: Adobe Illustrator 23.0.1, SVG Export Plug-In . SVG Version: 6.00 Build 0)  -->
<svg version="1.0" id="图层_1" xmlns="http://www.w3.org/2000/svg" xmlns:xlink="http://www.w3.org/1999/xlink" x="0px" y="0px"
	 viewBox="0 0 60 60" style="enable-background:new 0 0 60 60;" xml:space="preserve">
<style type="text/css">
	.st0{fill:#E2EDF2;}
	.st1{fill:#01B8E2;}
</style>
<g>
	<path class="st0" d="M52.6,25.4h-45c-1.4,0-2.5-1.1-2.5-2.5v-16c0-1.4,1.1-2.5,2.5-2.5h45c1.4,0,2.5,1.1,2.5,2.5v16
		C55.1,24.3,54,25.4,52.6,25.4z M8.1,22.4h44v-15h-44C8.1,7.4,8.1,22.4,8.1,22.4z"/>
	<path class="st0" d="M18.2,16.9h-5.5c-0.8,0-1.5-0.7-1.5-1.5c0-0.8,0.7-1.5,1.5-1.5h5.5c0.8,0,1.5,0.7,1.5,1.5
		C19.7,16.3,19,16.9,18.2,16.9z"/>
</g>
<g>
	<path class="st1" d="M55.4,45.6c-0.1-0.2-0.3-0.4-0.4-0.5c-0.1-0.1-0.2-0.2-0.4-0.3l-12.3-6c-0.7-0.4-1.6,0-2,0.7c0,0,0,0.1,0,0.1
		c-0.1,0.1-0.1,0.3-0.2,0.4l-2.6,14.2c0,0,0,0,0,0l0,0c-0.2,0.8,0.4,1.5,1.2,1.7c0.1,0,0.2,0,0.3,0c0.1,0,0.3,0,0.4-0.1
		c0.1,0,0.2-0.1,0.3-0.1c0.1-0.1,0.2-0.1,0.4-0.2l3-2.3l2.2,3.6c0.3,0.4,0.8,0.7,1.3,0.7c0.2,0,0.5,0,0.8-0.2c0.1,0,0.1-0.1,0.1-0.1
		l5.2-3c0.2,0,0.4-0.1,0.6-0.3c0.7-0.5,0.9-1.4,0.4-2.1l-2.2-3.1l3.1-1.3C55.3,47.2,55.7,46.4,55.4,45.6z M48.9,46.7
		c-0.2,0-0.4,0.1-0.6,0.2c-0.4,0.3-0.6,0.6-0.7,1c-0.1,0.3-0.1,0.6,0.1,0.9c0.1,0.2,0.2,0.4,0.4,0.5l2.1,3l-3.1,1.8l-2.3-3.8
		c-0.3-0.4-0.7-0.6-1.1-0.7c-0.1,0-0.2,0-0.3,0c-0.1,0-0.1,0-0.2,0c-0.2,0-0.3,0.1-0.5,0.2c0,0,0,0,0,0c0,0,0,0,0,0
		c-0.1,0-0.1,0-0.2,0.1l-1.4,1.1l1.6-8.8l7.7,3.7L48.9,46.7z"/>
	<path class="st1" d="M45.9,39.6c0.3,0,0.7-0.2,0.9-0.3l1.4-1.2c0.6-0.5,0.7-1.5,0.2-2.1s-1.5-0.7-2.1-0.2L44.9,37
		c-0.6,0.5-0.7,1.5-0.2,2.1C45,39.4,45.5,39.6,45.9,39.6z"/>
	<path class="st1" d="M42,38.2c0.9,0,1.5-0.7,1.5-1.5v-2c0-0.8-0.7-1.5-1.5-1.5s-1.5,0.7-1.5,1.5v2C40.5,37.5,41.2,38.2,42,38.2z"/>
	<path class="st1" d="M37.5,39.2c0.3,0.3,0.7,0.4,1.1,0.4c0.3,0,0.7-0.2,1-0.4c0.6-0.6,0.6-1.5,0-2.1L38,35.5
		c-0.6-0.6-1.5-0.6-2.1,0c-0.6,0.6-0.6,1.5,0,2.1L37.5,39.2z"/>
	<path class="st1" d="M39.2,41.9c0-0.8-0.7-1.5-1.5-1.5h-3.1c-0.8,0-1.5,0.7-1.5,1.5c0,0.8,0.7,1.5,1.5,1.5h3.1
		C38.6,43.4,39.2,42.7,39.2,41.9z"/>
</g>
<g>
	<path class="st0" d="M12.7,37.9c-0.8,0-1.5,0.7-1.5,1.5c0,0.8,0.7,1.5,1.5,1.5h5.5c0.8,0,1.5-0.6,1.5-1.5c0-0.8-0.7-1.5-1.5-1.5
		H12.7z"/>
	<path class="st0" d="M52.6,28.4h-45c-1.4,0-2.5,1.1-2.5,2.5v16c0,1.4,1.1,2.5,2.5,2.5H25h4.1h1.4c0.8,0,1.5-0.6,1.5-1.5
		c0-0.8-0.7-1.5-1.5-1.5h-1.4H25H8.1v-15h44v1.1v0.4c0,0.8,0.6,1.5,1.5,1.5c0.8,0,1.5-0.7,1.5-1.5v-0.4v-1.3v-0.2
		C55.1,29.5,54,28.4,52.6,28.4z"/>
</g>
</svg>
