<?xml version="1.0" encoding="utf-8"?>
<!-- Generator: Adobe Illustrator 23.0.1, SVG Export Plug-In . SVG Version: 6.00 Build 0)  -->
<svg version="1.0" id="图层_1" xmlns="http://www.w3.org/2000/svg" xmlns:xlink="http://www.w3.org/1999/xlink" x="0px" y="0px"
	 viewBox="0 0 60 60" style="enable-background:new 0 0 60 60;" xml:space="preserve">
<style type="text/css">
	.st0{fill:#01B8E2;}
	.st1{fill:#E2EDF2;}
</style>
<path class="st0" d="M36.3,32.3c-0.8,0-1.5-0.7-1.5-1.5V15.5c0-0.8,0.7-1.5,1.5-1.5s1.5,0.7,1.5,1.5v15.3
	C37.8,31.7,37.1,32.3,36.3,32.3z"/>
<g>
	<path class="st0" d="M36.3,29.3h-19V17h19c0.8,0,1.5-0.7,1.5-1.5S37.1,14,36.3,14H15.8c-0.8,0-1.5,0.7-1.5,1.5v15.3
		c0,0.8,0.7,1.5,1.5,1.5h20.5c0.8,0,1.5-0.7,1.5-1.5S37.1,29.3,36.3,29.3z"/>
	<path class="st0" d="M36.3,37.3H15.8c-0.8,0-1.5,0.7-1.5,1.5s0.7,1.5,1.5,1.5h20.5c0.8,0,1.5-0.7,1.5-1.5S37.1,37.3,36.3,37.3z"/>
	<path class="st0" d="M36.3,42.4H15.8c-0.8,0-1.5,0.7-1.5,1.5c0,0.8,0.7,1.5,1.5,1.5h20.5c0.8,0,1.5-0.7,1.5-1.5
		C37.8,43.1,37.1,42.4,36.3,42.4z"/>
</g>
<path class="st1" d="M55.2,19.2c0-0.8-0.7-1.5-1.5-1.5h-2.5c-0.8,0-1.5,0.7-1.5,1.5s0.7,1.5,1.5,1.5h1V51c0,0.1,0,0.1,0,0.1
	c0,0.1,0,0.1,0,0.2c0,1.3-1.1,2.4-2.4,2.4s-2.4-1.1-2.4-2.4V5.5c0-0.8-0.7-1.5-1.5-1.5H6.3C5.5,4,4.8,4.7,4.8,5.5v49.7
	c0,0.8,0.7,1.5,1.5,1.5h43.5c3,0,5.4-2.4,5.4-5.4c0-0.1,0-0.1,0-0.2c0-0.1,0-0.1,0-0.1V19.2z M44.4,51.3c0,0.9,0.2,1.7,0.6,2.4H7.8
	V7h36.6V51.3z"/>
</svg>
