<?xml version="1.0" encoding="utf-8"?>
<!-- Generator: Adobe Illustrator 23.0.1, SVG Export Plug-In . SVG Version: 6.00 Build 0)  -->
<svg version="1.0" id="图层_1" xmlns="http://www.w3.org/2000/svg" xmlns:xlink="http://www.w3.org/1999/xlink" x="0px" y="0px"
	 viewBox="0 0 60 60" style="enable-background:new 0 0 60 60;" xml:space="preserve">
<style type="text/css">
	.st0{fill:#E2EDF2;}
	.st1{fill:#01B8E2;}
</style>
<path class="st0" d="M54.4,5.2h-49c-0.8,0-1.5,0.7-1.5,1.5v37c0,0.8,0.7,1.5,1.5,1.5h11.8l11.7,9.9c0.3,0.3,0.7,0.4,1,0.4
	c0.3,0,0.7-0.1,1-0.4l11.8-9.9h11.7c0.8,0,1.5-0.7,1.5-1.5v-37C55.9,5.9,55.2,5.2,54.4,5.2z M42.1,42.2c-0.5,0-1,0.3-1.2,0.7
	L30,52.1l-11.4-9.6c0,0-0.1,0-0.1-0.1c-0.1-0.1-0.2-0.1-0.3-0.1c-0.1-0.1-0.3-0.1-0.4-0.1c0,0-0.1,0-0.1,0h0c-0.1,0-0.1,0-0.2,0H6.9
	v-34h46v34H42.1z"/>
<path class="st1" d="M44.8,17.2H14.9c-0.8,0-1.5-0.7-1.5-1.5s0.7-1.5,1.5-1.5h29.9c0.8,0,1.5,0.7,1.5,1.5
	C46.3,16.5,45.6,17.2,44.8,17.2z"/>
<path class="st1" d="M44.8,26.4H14.9c-0.8,0-1.5-0.7-1.5-1.5s0.7-1.5,1.5-1.5h29.9c0.8,0,1.5,0.7,1.5,1.5S45.6,26.4,44.8,26.4z"/>
<path class="st1" d="M30.9,35.7h-16c-0.8,0-1.5-0.7-1.5-1.5s0.7-1.5,1.5-1.5h16c0.8,0,1.5,0.7,1.5,1.5S31.7,35.7,30.9,35.7z"/>
</svg>
