<?xml version="1.0" encoding="utf-8"?>
<!-- Generator: Adobe Illustrator 23.0.1, SVG Export Plug-In . SVG Version: 6.00 Build 0)  -->
<svg version="1.0" id="图层_1" xmlns="http://www.w3.org/2000/svg" xmlns:xlink="http://www.w3.org/1999/xlink" x="0px" y="0px"
	 viewBox="0 0 60 60" style="enable-background:new 0 0 60 60;" xml:space="preserve">
<style type="text/css">
	.st0{fill:#01B8E2;}
	.st1{fill:#E2EDF2;}
</style>
<g>
	<rect x="10.6" y="14.2" class="st0" width="6.2" height="3"/>
	<rect x="19.1" y="14.2" class="st0" width="6.2" height="3"/>
	<rect x="27.6" y="14.2" class="st0" width="6.2" height="3"/>
</g>
<g>
	<rect x="10.6" y="19.9" class="st0" width="6.2" height="3"/>
	<rect x="19.1" y="19.9" class="st0" width="6.2" height="3"/>
	<rect x="27.6" y="19.9" class="st0" width="6.2" height="3"/>
</g>
<g>
	<rect x="10.6" y="25.6" class="st0" width="6.2" height="3"/>
	<rect x="19.1" y="25.6" class="st0" width="6.2" height="3"/>
	<rect x="27.6" y="25.6" class="st0" width="6.2" height="3"/>
</g>
<g>
	<rect x="10.6" y="31.2" class="st0" width="6.2" height="3"/>
	<rect x="19.1" y="31.2" class="st0" width="6.2" height="3"/>
	<rect x="27.6" y="31.2" class="st0" width="6.2" height="3"/>
</g>
<g>
	<path class="st1" d="M8.6,40h27.2h3v-3V11.4v-3h-3H8.6h-3v3V37v3H8.6z M8.6,11.4h27.2V37H8.6V11.4z"/>
	<polygon class="st1" points="15.9,51.4 19.9,53.3 19.9,55.2 9.4,55.2 9.4,53.3 13.4,51.4 12.2,48.7 6.4,51.4 6.5,58.1 6.5,58.2 
		22.8,58.2 22.8,58.1 22.9,51.4 17.1,48.7 	"/>
	<polygon class="st1" points="46.8,51.4 50.8,53.3 50.8,55.2 40.4,55.2 40.4,53.3 44.4,51.4 43.1,48.7 37.4,51.4 37.4,55.2 
		37.4,58.1 37.4,58.2 53.8,58.2 53.8,58.1 53.8,55.2 53.8,51.4 48.1,48.7 	"/>
	<polygon class="st1" points="45.1,11.4 53.9,11.4 53.9,8.4 45.1,8.4 42.1,8.4 42.1,11.4 42.1,14.1 45.1,14.1 	"/>
	<polygon class="st1" points="45.1,20 53.9,20 53.9,17 45.1,17 42.1,17 42.1,20 42.1,22.7 45.1,22.7 	"/>
	<polygon class="st1" points="45.1,28.6 53.9,28.6 53.9,25.6 45.1,25.6 42.1,25.6 42.1,28.6 42.1,31.3 45.1,31.3 	"/>
	<polygon class="st1" points="45.1,37.3 53.9,37.3 53.9,34.3 45.1,34.3 42.1,34.3 42.1,37.3 42.1,40 45.1,40 	"/>
	<path class="st1" d="M57,2.8H3H0v3V43v3h3h54h3v-3V5.8v-3H57z M57,43H3V5.8h54V43z"/>
</g>
</svg>
