<?xml version="1.0" encoding="utf-8"?>
<!-- Generator: Adobe Illustrator 23.0.1, SVG Export Plug-In . SVG Version: 6.00 Build 0)  -->
<svg version="1.0" id="图层_1" xmlns="http://www.w3.org/2000/svg" xmlns:xlink="http://www.w3.org/1999/xlink" x="0px" y="0px"
	 viewBox="0 0 60 60" style="enable-background:new 0 0 60 60;" xml:space="preserve">
<style type="text/css">
	.st0{fill:#01B8E2;}
	.st1{fill:#E2EDF2;}
</style>
<g>
	<path class="st0" d="M24,35.9H14c-0.8,0-1.5-0.7-1.5-1.5s0.7-1.5,1.5-1.5h10c0.8,0,1.5,0.7,1.5,1.5S24.8,35.9,24,35.9z"/>
	<path class="st0" d="M19,40.9c-0.8,0-1.5-0.7-1.5-1.5v-10c0-0.8,0.7-1.5,1.5-1.5s1.5,0.7,1.5,1.5v10C20.5,40.2,19.8,40.9,19,40.9z"
		/>
</g>
<path class="st0" d="M47,35.9H37c-0.8,0-1.5-0.7-1.5-1.5s0.7-1.5,1.5-1.5h10c0.8,0,1.5,0.7,1.5,1.5S47.8,35.9,47,35.9z"/>
<g>
	<path class="st1" d="M58.4,13H1.6c-0.8,0-1.5,0.7-1.5,1.5v8c0,0.8,0.7,1.5,1.5,1.5h1v26.5c0,0.8,0.7,1.5,1.5,1.5h51.7
		c0.8,0,1.5-0.7,1.5-1.5V24h1.1c0.8,0,1.5-0.7,1.5-1.5v-8C59.9,13.7,59.2,13,58.4,13z M54.3,49H5.6V24H9c0.8,0,1.5-0.7,1.5-1.5
		S9.8,21,9,21H3.1v-5h53.8v5H51c-0.8,0-1.5,0.7-1.5,1.5S50.2,24,51,24h3.3V49z"/>
	<path class="st1" d="M9,11.2h12c0.8,0,1.5-0.7,1.5-1.5S21.8,8.2,21,8.2H9c-0.8,0-1.5,0.7-1.5,1.5S8.2,11.2,9,11.2z"/>
	<path class="st1" d="M38.9,11.2h12c0.9,0,1.5-0.7,1.5-1.5s-0.7-1.5-1.5-1.5h-12c-0.8,0-1.5,0.7-1.5,1.5S38.1,11.2,38.9,11.2z"/>
</g>
</svg>
