<?xml version="1.0" encoding="utf-8"?>
<!-- Generator: Adobe Illustrator 23.0.1, SVG Export Plug-In . SVG Version: 6.00 Build 0)  -->
<svg version="1.0" id="图层_1" xmlns="http://www.w3.org/2000/svg" xmlns:xlink="http://www.w3.org/1999/xlink" x="0px" y="0px"
	 viewBox="0 0 60 60" style="enable-background:new 0 0 60 60;" xml:space="preserve">
<style type="text/css">
	.st0{fill:#E2EDF2;}
	.st1{fill:#01B8E2;}
</style>
<path class="st0" d="M44.6,27c-0.1-0.4-0.3-0.8-0.6-1c0,0,0,0,0,0c0,0,0,0,0,0c-0.1-0.1-0.2-0.1-0.4-0.2c-0.1,0-0.1,0-0.2-0.1
	c-0.1,0-0.2,0-0.3,0c-0.1,0-0.1,0-0.2,0l-7.8,1l8.8-14.1c0-0.1,0-0.1,0.1-0.2c0-0.1,0.1-0.2,0.1-0.3c0,0,0-0.1,0-0.1
	c0-0.2,0-0.3,0-0.5c0,0,0-0.1,0-0.1c0-0.1-0.1-0.2-0.1-0.3c-0.1-0.1-0.1-0.2-0.2-0.3c0,0-0.1-0.1-0.1-0.1c-0.1,0-0.1-0.1-0.2-0.1
	c0,0-0.1,0-0.1,0c-0.1-0.1-0.3-0.1-0.4-0.1c0,0,0,0,0,0c-0.2,0-0.3,0-0.5,0c0,0-0.1,0-0.1,0l-16.2,4c-0.5,0.1-0.9,0.5-1.1,1
	l-7.5,19.9c-0.2,0.3-0.3,0.7-0.2,1.1c0,0,0,0.1,0,0.1c0,0,0,0,0,0c0.1,0.4,0.3,0.7,0.7,0.9c0,0,0,0,0,0c0.1,0.1,0.2,0.1,0.3,0.2
	c0.1,0.1,0.3,0.1,0.4,0.1c0.2,0,0.4-0.1,0.6-0.2l5.4-0.9l-4.9,16.3c0,0.2,0,0.3,0,0.5c0,0.4,0.1,0.9,0.4,1.1
	c0.2,0.2,0.5,0.3,0.8,0.4c0.1,0,0.2,0,0.2,0c0.2,0,0.3,0,0.4-0.1c0.1,0,0.1,0,0.2-0.1c0,0,0.1,0,0.1-0.1c0.3-0.1,0.5-0.3,0.6-0.6
	l21.4-25.6C44.4,28.2,44.7,27.6,44.6,27z M28.2,35.2c0.2-0.8-0.2-1.7-1-1.9c-0.3-0.1-0.7-0.1-1,0l-5.3,0.8l6.5-17.1l11.9-2.9
	l-8.5,13.7c0,0.1,0,0.1-0.1,0.2c-0.1,0.1-0.1,0.2-0.1,0.3c0,0,0,0.1,0,0.1c0,0.1,0,0.3,0,0.4c0,0,0,0.1,0,0.1c0,0.1,0.1,0.2,0.1,0.3
	c0,0,0,0,0,0.1c0.1,0.2,0.3,0.5,0.5,0.6c0.3,0.1,0.5,0.2,0.8,0.2c0.1,0,0.1,0,0.2,0l7.1-0.9L24.7,46.8L28.2,35.2z"/>
<g>
	<path class="st1" d="M19.7,13c-0.5,0-1-0.3-1.3-0.8l-4-7c-0.4-0.7-0.2-1.6,0.6-2c0.7-0.4,1.6-0.2,2,0.6l4,7c0.4,0.7,0.2,1.6-0.6,2
		C20.2,12.9,20,13,19.7,13z"/>
	<path class="st1" d="M12,20.9c-0.3,0-0.5-0.1-0.8-0.2l-7.3-4.3c-0.7-0.4-1-1.3-0.5-2.1c0.4-0.7,1.3-0.9,2.1-0.5l7.3,4.3
		c0.7,0.4,1,1.3,0.5,2.1C13,20.6,12.5,20.9,12,20.9z"/>
	<path class="st1" d="M10.7,31.3H1.6c-0.8,0-1.5-0.7-1.5-1.5s0.7-1.5,1.5-1.5h9.1c0.8,0,1.5,0.7,1.5,1.5S11.5,31.3,10.7,31.3z"/>
	<path class="st1" d="M4.6,46.3c-0.5,0-1-0.3-1.3-0.7c-0.4-0.7-0.2-1.6,0.5-2.1l7.9-4.9c0.7-0.4,1.6-0.2,2.1,0.5
		c0.4,0.7,0.2,1.6-0.5,2.1l-7.9,4.9C5.1,46.2,4.9,46.3,4.6,46.3z"/>
</g>
<path class="st1" d="M48.9,20.6c-0.5,0-1-0.3-1.3-0.8c-0.4-0.7-0.2-1.6,0.5-2l7-4c0.7-0.4,1.6-0.2,2,0.5s0.2,1.6-0.5,2l-7,4
	C49.4,20.5,49.1,20.6,48.9,20.6z"/>
<path class="st1" d="M45,56.8c-0.5,0-1-0.3-1.3-0.7l-4.3-7.3c-0.4-0.7-0.2-1.6,0.5-2.1c0.7-0.4,1.6-0.2,2.1,0.5l4.3,7.3
	c0.4,0.7,0.2,1.6-0.5,2.1C45.5,56.7,45.3,56.8,45,56.8z"/>
<path class="st1" d="M58.4,31.3h-9.1c-0.8,0-1.5-0.7-1.5-1.5s0.7-1.5,1.5-1.5h9.1c0.8,0,1.5,0.7,1.5,1.5S59.3,31.3,58.4,31.3z"/>
<path class="st1" d="M55.5,46c-0.3,0-0.5-0.1-0.8-0.2l-7.9-4.9c-0.7-0.4-0.9-1.4-0.5-2.1c0.4-0.7,1.4-0.9,2.1-0.5l7.9,4.9
	c0.7,0.4,0.9,1.4,0.5,2.1C56.5,45.7,56,46,55.5,46z"/>
</svg>
