<?xml version="1.0" encoding="utf-8"?>
<!-- Generator: Adobe Illustrator 23.0.1, SVG Export Plug-In . SVG Version: 6.00 Build 0)  -->
<svg version="1.0" id="图层_1" xmlns="http://www.w3.org/2000/svg" xmlns:xlink="http://www.w3.org/1999/xlink" x="0px" y="0px"
	 viewBox="0 0 60 60" style="enable-background:new 0 0 60 60;" xml:space="preserve">
<style type="text/css">
	.st0{fill:#01B8E2;}
	.st1{fill:#E2EDF2;}
</style>
<path class="st0" d="M21.1,13.8h-7.5c-0.8,0-1.5-0.7-1.5-1.5s0.7-1.5,1.5-1.5h7.5c0.8,0,1.5,0.7,1.5,1.5S21.9,13.8,21.1,13.8z"/>
<path class="st0" d="M21.1,31.8h-7.5c-0.8,0-1.5-0.7-1.5-1.5s0.7-1.5,1.5-1.5h7.5c0.8,0,1.5,0.7,1.5,1.5
	C22.6,31.1,21.9,31.8,21.1,31.8z"/>
<g>
	<path class="st1" d="M52.5,4.3h-45C6.1,4.3,5,5.4,5,6.8v11c0,1.4,1.1,2.5,2.5,2.5h45c1.4,0,2.5-1.1,2.5-2.5v-11
		C55,5.4,53.9,4.3,52.5,4.3z M52,17.3H8v-10h44V17.3z"/>
	<path class="st1" d="M52.5,22.3h-45c-1.4,0-2.5,1.1-2.5,2.5v11c0,1.4,1.1,2.5,2.5,2.5h45c1.4,0,2.5-1.1,2.5-2.5v-11
		C55,23.4,53.9,22.3,52.5,22.3z M52,35.3H8v-10h44V35.3z"/>
	<path class="st1" d="M52.5,40.4h-45c-1.4,0-2.5,1.1-2.5,2.5v11c0,1.4,1.1,2.5,2.5,2.5h45c1.4,0,2.5-1.2,2.5-2.5v-11
		C55,41.5,53.9,40.4,52.5,40.4z M52,53.4H8v-10h44V53.4z"/>
</g>
<path class="st0" d="M21.1,49.9h-7.5c-0.8,0-1.5-0.7-1.5-1.5s0.7-1.5,1.5-1.5h7.5c0.8,0,1.5,0.7,1.5,1.5S21.9,49.9,21.1,49.9z"/>
</svg>
