<?xml version="1.0" encoding="utf-8"?>
<!-- Generator: Adobe Illustrator 23.0.1, SVG Export Plug-In . SVG Version: 6.00 Build 0)  -->
<svg version="1.0" id="图层_1" xmlns="http://www.w3.org/2000/svg" xmlns:xlink="http://www.w3.org/1999/xlink" x="0px" y="0px"
	 viewBox="0 0 60 60" style="enable-background:new 0 0 60 60;" xml:space="preserve">
<style type="text/css">
	.st0{fill:#01B8E2;}
	.st1{fill:#E2EDF2;}
</style>
<g>
	<path class="st0" d="M18.8,32.4h-7c-0.8,0-1.5-0.7-1.5-1.5s0.7-1.5,1.5-1.5h7c0.8,0,1.5,0.7,1.5,1.5S19.6,32.4,18.8,32.4z"/>
	<path class="st0" d="M33.2,32.4h-7.1c-0.8,0-1.5-0.7-1.5-1.5s0.7-1.5,1.5-1.5h7.1c0.8,0,1.5,0.7,1.5,1.5S34,32.4,33.2,32.4z"/>
	<path class="st0" d="M47.6,32.4h-7c-0.8,0-1.5-0.7-1.5-1.5s0.7-1.5,1.5-1.5h7c0.8,0,1.5,0.7,1.5,1.5S48.4,32.4,47.6,32.4z"/>
</g>
<g>
	<path class="st0" d="M18.8,41.3h-7c-0.8,0-1.5-0.7-1.5-1.5s0.7-1.5,1.5-1.5h7c0.8,0,1.5,0.7,1.5,1.5S19.6,41.3,18.8,41.3z"/>
	<path class="st0" d="M33.2,41.3h-7.1c-0.8,0-1.5-0.7-1.5-1.5s0.7-1.5,1.5-1.5h7.1c0.8,0,1.5,0.7,1.5,1.5S34,41.3,33.2,41.3z"/>
	<path class="st0" d="M47.6,41.3h-7c-0.8,0-1.5-0.7-1.5-1.5s0.7-1.5,1.5-1.5h7c0.8,0,1.5,0.7,1.5,1.5S48.4,41.3,47.6,41.3z"/>
</g>
<g>
	<path class="st0" d="M18.8,50.3h-7c-0.8,0-1.5-0.7-1.5-1.5s0.7-1.5,1.5-1.5h7c0.8,0,1.5,0.7,1.5,1.5S19.6,50.3,18.8,50.3z"/>
	<path class="st0" d="M33.2,50.3h-7.1c-0.8,0-1.5-0.7-1.5-1.5s0.7-1.5,1.5-1.5h7.1c0.8,0,1.5,0.7,1.5,1.5S34,50.3,33.2,50.3z"/>
	<path class="st0" d="M47.6,50.3h-7c-0.8,0-1.5-0.7-1.5-1.5s0.7-1.5,1.5-1.5h7c0.8,0,1.5,0.7,1.5,1.5S48.4,50.3,47.6,50.3z"/>
</g>
<g>
	<path class="st1" d="M57.8,8.9c0-0.8-0.7-1.5-1.5-1.5h-11c-0.8,0-1.5,0.7-1.5,1.5c0,0.8,0.7,1.5,1.5,1.5h9.5v10.2h-50V10.4h14V13
		c0,0.8,0.7,1.5,1.5,1.5c0.9,0,1.5-0.7,1.5-1.5V3c0-0.8-0.7-1.5-1.5-1.5S18.8,2.2,18.8,3v4.4H3.3c-0.8,0-1.5,0.7-1.5,1.5
		c0,0,0,0,0,0c0,0,0,0,0,0v48c0,0.8,0.7,1.5,1.5,1.5h53c0.9,0,1.5-0.7,1.5-1.5V8.9C57.8,9,57.8,9,57.8,8.9
		C57.8,8.9,57.8,8.9,57.8,8.9z M54.8,23.6v31.9h-50V23.6H54.8z"/>
	<path class="st1" d="M26.3,10.4h11.5V13c0,0.8,0.7,1.5,1.5,1.5c0.9,0,1.5-0.7,1.5-1.5V3c0-0.8-0.7-1.5-1.5-1.5S37.8,2.2,37.8,3v4.4
		H26.3c-0.8,0-1.5,0.7-1.5,1.5C24.8,9.7,25.5,10.4,26.3,10.4z"/>
</g>
</svg>
