<?xml version="1.0" encoding="utf-8"?>
<!-- Generator: Adobe Illustrator 23.0.1, SVG Export Plug-In . SVG Version: 6.00 Build 0)  -->
<svg version="1.0" id="图层_1" xmlns="http://www.w3.org/2000/svg" xmlns:xlink="http://www.w3.org/1999/xlink" x="0px" y="0px"
	 viewBox="0 0 60 60" style="enable-background:new 0 0 60 60;" xml:space="preserve">
<style type="text/css">
	.st0{fill:#01B8E2;}
	.st1{fill:#E2EDF2;}
</style>
<path class="st0" d="M58.3,31.2h-10c-0.8,0-1.5-0.7-1.5-1.5s0.7-1.5,1.5-1.5h10c0.8,0,1.5,0.7,1.5,1.5S59.2,31.2,58.3,31.2z"/>
<path class="st0" d="M48.3,18.6c-0.5,0-1-0.3-1.3-0.7c-0.4-0.7-0.2-1.6,0.5-2.1l10-5.9c0.7-0.4,1.6-0.2,2.1,0.5
	c0.4,0.7,0.2,1.6-0.5,2.1l-10,5.9C48.8,18.6,48.6,18.6,48.3,18.6z"/>
<path class="st0" d="M58.3,50.1c-0.3,0-0.5-0.1-0.8-0.2l-10-5.9c-0.7-0.4-1-1.3-0.5-2.1s1.3-1,2.1-0.5l10,5.9c0.7,0.4,1,1.3,0.5,2.1
	C59.3,49.9,58.8,50.1,58.3,50.1z"/>
<g>
	<path class="st1" d="M23.2,17.5c0.2,0,0.4-0.1,0.7-0.2l16.3-8.4v20.8v18.6c0,0.8,0.7,1.5,1.5,1.5c0.9,0,1.5-0.6,1.5-1.5V29.7V6.5
		c0,0,0,0,0-0.1c0-0.2-0.1-0.4-0.2-0.7c-0.2-0.3-0.4-0.5-0.7-0.6c0,0,0,0,0,0c-0.1,0-0.1,0-0.2-0.1c0,0-0.1,0-0.1,0
		c-0.1,0-0.1,0-0.2,0c0,0,0,0-0.1,0c0,0,0,0-0.1,0c-0.1,0-0.1,0-0.2,0c0,0-0.1,0-0.1,0c0,0-0.1,0-0.1,0c-0.1,0-0.1,0-0.2,0.1
		c0,0,0,0,0,0l-18.5,9.5c-0.7,0.4-1,1.3-0.6,2C22.1,17.2,22.7,17.5,23.2,17.5z"/>
	<path class="st1" d="M33.7,47l-18-9.3c-0.2-0.1-0.3-0.1-0.5-0.2c0,0-0.1,0-0.1,0c0,0,0,0,0,0c-0.1,0-0.2,0-0.2,0H3.4V21.9h11.5
		c0.4,0,0.7-0.1,1-0.3l1.2-0.7c0.7-0.4,1-1.3,0.6-2c-0.4-0.7-1.3-1-2-0.6l-1.1,0.6H1.9c-0.8,0-1.5,0.7-1.5,1.5V39
		c0,0.8,0.7,1.5,1.5,1.5h12.8l17.6,9.1c0.2,0.1,0.5,0.2,0.7,0.2c0.5,0,1-0.3,1.3-0.8C34.7,48.3,34.4,47.4,33.7,47z"/>
	<path class="st1" d="M43.1,55.5L13.5,3.6c-0.4-0.8-1.3-1-2-0.6c-0.8,0.4-1,1.3-0.6,2l29.6,51.9c0.3,0.5,0.8,0.8,1.3,0.8
		c0.3,0,0.6-0.1,0.7-0.2C43.3,57.1,43.5,56.2,43.1,55.5z"/>
</g>
</svg>
