<?xml version="1.0" encoding="utf-8"?>
<!-- Generator: Adobe Illustrator 23.0.1, SVG Export Plug-In . SVG Version: 6.00 Build 0)  -->
<svg version="1.0" id="图层_1" xmlns="http://www.w3.org/2000/svg" xmlns:xlink="http://www.w3.org/1999/xlink" x="0px" y="0px"
	 viewBox="0 0 60 60" style="enable-background:new 0 0 60 60;" xml:space="preserve">
<style type="text/css">
	.st0{fill:#01B8E2;}
	.st1{fill:#E2EDF2;}
</style>
<path class="st0" d="M20.6,52c-0.8,0-1.5-0.7-1.5-1.5V39.2c0-0.8,0.7-1.5,1.5-1.5s1.5,0.7,1.5,1.5v11.3C22.1,51.3,21.4,52,20.6,52z"
	/>
<g>
	<path class="st1" d="M50.2,55.6H10.1c-0.8,0-1.5,0.7-1.5,1.5c0,0.8,0.7,1.5,1.5,1.5h40.1c0.8,0,1.5-0.7,1.5-1.5
		C51.7,56.3,51,55.6,50.2,55.6z"/>
	<path class="st1" d="M30.2,12.5C30.2,12.5,30.2,12.5,30.2,12.5c-0.1,0-0.1,0-0.1,0C18.3,12.5,8.6,22.1,8.6,34v16.5
		c0,0.8,0.7,1.5,1.5,1.5h40.1c0.8,0,1.5-0.7,1.5-1.5V34C51.7,22.2,42.1,12.5,30.2,12.5z M48.7,49H11.6V34c0-10.2,8.3-18.5,18.5-18.5
		c0,0,0,0,0.1,0c0,0,0,0,0,0c10.2,0,18.5,8.3,18.5,18.5V49z"/>
	<path class="st1" d="M30.2,10.5c0.8,0,1.5-0.7,1.5-1.5V3.2c0-0.8-0.7-1.5-1.5-1.5s-1.5,0.7-1.5,1.5V9C28.7,9.8,29.4,10.5,30.2,10.5
		z"/>
	<path class="st1" d="M11.3,18.3c0.4,0,0.8-0.2,1-0.4c0.6-0.6,0.6-1.5,0-2.1l-3.7-3.7c-0.6-0.6-1.5-0.6-2.1,0
		c-0.6,0.6-0.6,1.5,0,2.1l3.7,3.7C10.5,18.2,10.9,18.3,11.3,18.3z"/>
	<path class="st1" d="M54.4,11.3c-0.6-0.6-1.5-0.6-2.1,0l-4.5,4.5c-0.6,0.6-0.6,1.5,0,2.1c0.3,0.3,0.7,0.4,1.1,0.4
		c0.4,0,0.7-0.1,1-0.4l4.5-4.5C55,12.8,55,11.9,54.4,11.3z"/>
</g>
</svg>
