<?xml version="1.0" encoding="utf-8"?>
<!-- Generator: Adobe Illustrator 23.0.1, SVG Export Plug-In . SVG Version: 6.00 Build 0)  -->
<svg version="1.0" id="图层_1" xmlns="http://www.w3.org/2000/svg" xmlns:xlink="http://www.w3.org/1999/xlink" x="0px" y="0px"
	 viewBox="0 0 60 60" style="enable-background:new 0 0 60 60;" xml:space="preserve">
<style type="text/css">
	.st0{fill:#01B8E2;}
	.st1{fill:#E2EDF2;}
</style>
<path class="st0" d="M29.6,42.9c-0.8,0-1.5-0.7-1.5-1.5V30.2c0-0.8,0.7-1.5,1.5-1.5s1.5,0.7,1.5,1.5v11.3
	C31.1,42.3,30.5,42.9,29.6,42.9z"/>
<path class="st0" d="M23.8,40.9c-0.8,0-1.5-0.7-1.5-1.5v-7.3c0-0.8,0.7-1.5,1.5-1.5s1.5,0.7,1.5,1.5v7.3
	C25.3,40.3,24.6,40.9,23.8,40.9z"/>
<path class="st0" d="M18,38.9c-0.8,0-1.5-0.7-1.5-1.5v-3.3c0-0.8,0.7-1.5,1.5-1.5s1.5,0.7,1.5,1.5v3.3C19.5,38.3,18.8,38.9,18,38.9z
	"/>
<path class="st0" d="M35.5,40.9c-0.8,0-1.5-0.7-1.5-1.5v-7.3c0-0.8,0.7-1.5,1.5-1.5s1.5,0.7,1.5,1.5v7.3
	C37,40.3,36.3,40.9,35.5,40.9z"/>
<path class="st0" d="M41.3,38.9c-0.8,0-1.5-0.7-1.5-1.5v-3.3c0-0.8,0.7-1.5,1.5-1.5s1.5,0.7,1.5,1.5v3.3
	C42.8,38.3,42.1,38.9,41.3,38.9z"/>
<g>
	<path class="st1" d="M49.7,55.8H9.6c-0.8,0-1.5,0.7-1.5,1.5s0.7,1.5,1.5,1.5h40.1c0.8,0,1.5-0.7,1.5-1.5S50.5,55.8,49.7,55.8z"/>
	<path class="st1" d="M29.7,12.6C29.7,12.6,29.7,12.6,29.7,12.6c-0.1,0-0.1,0-0.1,0c-11.8,0-21.5,9.6-21.5,21.5v16.5
		c0,0.8,0.7,1.5,1.5,1.5h40.1c0.8,0,1.5-0.6,1.5-1.5V34.1C51.2,22.3,41.6,12.6,29.7,12.6z M48.2,49.1H11.1v-15
		c0-10.2,8.3-18.5,18.5-18.5c0,0,0,0,0.1,0c0,0,0,0,0,0c10.2,0,18.5,8.3,18.5,18.5V49.1z"/>
	<path class="st1" d="M29.6,10.7c0.9,0,1.5-0.7,1.5-1.5V3.4c0-0.8-0.7-1.5-1.5-1.5c-0.8,0-1.5,0.7-1.5,1.5v5.8
		C28.1,10,28.8,10.7,29.6,10.7z"/>
	<path class="st1" d="M10.8,18.5c0.4,0,0.8-0.2,1-0.5c0.6-0.6,0.6-1.5,0-2.1l-3.7-3.7c-0.6-0.6-1.5-0.6-2.1,0
		c-0.6,0.6-0.6,1.5,0,2.1l3.7,3.8C10,18.4,10.4,18.5,10.8,18.5z"/>
	<path class="st1" d="M53.9,11.5c-0.6-0.6-1.5-0.6-2.1,0L47.3,16c-0.6,0.6-0.6,1.5,0,2.1c0.3,0.3,0.7,0.4,1.1,0.4
		c0.3,0,0.7-0.1,1-0.4l4.5-4.5C54.5,13,54.5,12.1,53.9,11.5z"/>
</g>
</svg>
