<?xml version="1.0" encoding="utf-8"?>
<!-- Generator: Adobe Illustrator 24.1.0, SVG Export Plug-In . SVG Version: 6.00 Build 0)  -->
<svg version="1.1" id="图层_1" xmlns="http://www.w3.org/2000/svg" xmlns:xlink="http://www.w3.org/1999/xlink" x="0px" y="0px"
	 viewBox="0 0 200 200" style="enable-background:new 0 0 200 200;" xml:space="preserve">
<style type="text/css">
	.st0{fill:#FFFFFF;}
</style>
<path class="st0" d="M29.4,147.5l-3-4.7C18,128.5,14,112.1,14.8,95.6c2.5-40.9,33.4-74.4,74-80.1c28.9-4.1,52,8.7,63.5,17l0.6,0.4
	l-4.5,5.2c-1,1.1-0.9,2.7,0.2,3.7c0.6,0.5,1.3,0.7,2,0.7l19.3-1.6c2.3-0.2,4-2.2,3.8-4.5c0-0.1,0-0.1,0-0.2l-2.5-17.8
	c-0.2-1.4-1.5-2.5-2.9-2.3c-0.6,0.1-1.2,0.4-1.7,0.9l-3.9,4.7C150,12.5,127.2,0,100,0C44.8,0,0,44.8,0,100c0,18.3,5,36.3,14.5,51.9
	c1.3,2.2,2.8,4.3,4.3,6.4c1.7,1.8,4.2,2.7,6.6,2.2c2.9-0.5,5.2-2.7,5.9-5.6c0.6-2.2,0.1-4.5-1.4-6.3c-0.1-0.4-0.3-0.7-0.5-1.1
	L29.4,147.5z M189.6,55.7c-1.4-3.4-5.1-5.1-8.7-4.2c-2.3,0.6-4.1,2.2-5,4.4c-0.8,2-0.7,4.2,0.3,6.1c0.1,0.3,0.2,0.5,0.3,0.8
	c2.1,4.3,3.8,8.7,5.2,13.2c13.3,45.2-12.7,92.6-57.9,105.9c-7.8,2.3-15.8,3.4-23.9,3.4c-13.2-0.1-26.1-3.1-38-8.9l-2.5-1.4l3-5
	c0.8-1.1,0.5-2.7-0.7-3.5c-0.5-0.4-1.2-0.5-1.8-0.4L41,169c-2.5,0.4-4.3,2.7-3.9,5.2c0,0.3,0.1,0.6,0.2,0.8l6,19.7
	c0.4,1.3,1.8,2.1,3.1,1.7c0.7-0.2,1.3-0.7,1.6-1.4l4.1-7.2c2.2,1.1,4.7,2.3,7.8,3.6c12.6,5.5,26.3,8.4,40,8.6
	c55.2,0,100-44.8,100-100C200,84.6,196.4,69.5,189.6,55.7z"/>
<path class="st0" d="M89.4,132.5c-3.3,0-5.9,2.7-5.9,5.9c0,1.7,0.6,3.3,1.7,4.5c1.1,1.1,2.6,1.7,4.2,1.7h4.4c0.2,4.4,2,8.1,6.5,8.1
	c4.4,0,6.5-3.8,6.2-9.2v-38.4c12.4-3.5,19.6-16.4,16.1-28.9s-16.4-19.6-28.9-16.1C81.3,63.8,74,76.7,77.5,89.1
	c2.2,7.8,8.3,13.9,16.1,16.1v11.6h-8.5c-3.3,0-5.9,2.7-5.9,5.9c0,3.3,2.7,5.9,5.9,5.9h8.5v3.8H89.4z M88.3,82.8
	c0-6.4,5.3-11.7,11.7-11.6c6.4,0,11.7,5.3,11.6,11.7c0,6.4-5.2,11.6-11.6,11.6C93.6,94.5,88.3,89.2,88.3,82.8L88.3,82.8z"/>
</svg>
