<?xml version="1.0" encoding="utf-8"?>
<!-- Generator: Adobe Illustrator 24.1.0, SVG Export Plug-In . SVG Version: 6.00 Build 0)  -->
<svg version="1.1" id="图层_1" xmlns="http://www.w3.org/2000/svg" xmlns:xlink="http://www.w3.org/1999/xlink" x="0px" y="0px"
	 viewBox="0 0 200 200" style="enable-background:new 0 0 200 200;" xml:space="preserve">
<style type="text/css">
	.st0{fill:#FFFFFF;}
</style>
<path class="st0" d="M10,100c0-49.6,40.3-89.8,90-89.8s90,40.2,90,89.8c0,15.1-3.8,30-11.1,43.3l-0.1-0.1c-2.8,3.5-7.9,4.2-11.5,1.4
	c-2-1.5-3.1-3.9-3.1-6.4l0.1-0.8c0-2.4,1-4.5,2.7-6l-0.1-0.1c4.6-9.8,7.1-20.5,7-31.4c0-40.6-33-73.6-73.7-73.6
	c-40.7,0-73.7,32.9-73.7,73.6s33,73.6,73.7,73.6c16.1,0,30.9-5.1,43-13.8c2.9-3.5,8-4,11.5-1.2c1.9,1.6,3,3.9,3,6.3l-0.1,0.8
	c0,3.6-2.4,6.7-5.7,7.8c-15.2,10.7-33.3,16.5-51.9,16.4C50.3,189.8,10,149.6,10,100z M146.1,91.9c4.6,0,8.3,3.7,8.3,8.2
	c0,4.5-3.7,8.2-8.3,8.2l-63.1,0l19.2,19c3.2,3.1,3.2,8.2,0.2,11.4c0,0.1-0.1,0.1-0.2,0.2c-3.3,3.2-8.5,3.2-11.7,0L58.3,107
	c-2.4-1.5-3.9-4.1-3.9-6.9c0-1.8,0.6-3.5,1.6-4.9c0.5-0.7,1.2-1.4,1.9-1.9l32.5-32c3.3-3.2,8.5-3.2,11.7,0c3.2,3.1,3.3,8.2,0.2,11.4
	c-0.1,0.1-0.1,0.1-0.2,0.2L82.8,91.9L146.1,91.9L146.1,91.9z"/>
</svg>
