<?xml version="1.0" encoding="utf-8"?>
<!-- Generator: Adobe Illustrator 23.0.1, SVG Export Plug-In . SVG Version: 6.00 Build 0)  -->
<svg version="1.0" id="图层_1" xmlns="http://www.w3.org/2000/svg" xmlns:xlink="http://www.w3.org/1999/xlink" x="0px" y="0px"
	 viewBox="0 0 60 60" style="enable-background:new 0 0 60 60;" xml:space="preserve">
<style type="text/css">
	.st0{fill:#E2EDF2;}
</style>
<g>
	<path class="st0" d="M43.2,53.6v-47c0-1.1-0.9-2-2-2h-33c-1.1,0-2,0.9-2,2v47c0,1.1,0.9,2,2,2h33C42.3,55.6,43.2,54.7,43.2,53.6z
		 M39.2,51.6h-29v-43h29V51.6z"/>
	<path class="st0" d="M49.2,10.6v39c0,1.1,0.9,2,2,2s2-0.9,2-2v-39c0-1.1-0.9-2-2-2S49.2,9.5,49.2,10.6z"/>
</g>
</svg>
