<?xml version="1.0" encoding="utf-8"?>
<!-- Generator: Adobe Illustrator 23.0.1, SVG Export Plug-In . SVG Version: 6.00 Build 0)  -->
<svg version="1.0" id="图层_1" xmlns="http://www.w3.org/2000/svg" xmlns:xlink="http://www.w3.org/1999/xlink" x="0px" y="0px"
	 viewBox="0 0 60 60" style="enable-background:new 0 0 60 60;" xml:space="preserve">
<style type="text/css">
	.st0{fill:#E2EDF2;}
</style>
<path class="st0" d="M31.9,1.9C31.9,1.9,31.9,1.9,31.9,1.9C31.8,1.9,31.8,1.9,31.9,1.9C20.2,2.1,10.9,8.3,6.3,18.6l-2.8-4.6
	c-0.5-0.9-1.7-1.2-2.6-0.7C0,13.8-0.3,15,0.3,15.9L5,23.8c0,0,0,0,0,0c0,0,0.1,0.1,0.1,0.1c0,0,0.1,0.1,0.1,0.1c0,0,0.1,0.1,0.1,0.1
	c0,0,0,0,0.1,0.1c0,0,0.1,0,0.1,0.1c0.1,0.1,0.1,0.1,0.2,0.1c0,0,0,0,0.1,0c0,0,0,0,0,0c0.1,0.1,0.2,0.1,0.3,0.1c0,0,0,0,0,0
	c0,0,0,0,0,0c0,0,0,0,0,0c0,0,0.1,0,0.1,0c0.1,0,0.3,0.1,0.4,0.1c0,0,0,0,0,0c0,0,0,0,0,0c0,0,0,0,0,0c0.1,0,0.3,0,0.4-0.1l0,0
	c0,0,0,0,0,0l9.5-2.4c1-0.2,1.6-1.3,1.4-2.3c-0.3-1-1.3-1.6-2.3-1.4l-6,1.5c4.1-8.9,12.2-14.3,22.2-14.5c13.4,0,24.4,10.9,24.4,24.4
	c0,13.4-10.9,24.4-24.4,24.4C20.3,54,11.1,46.9,8.4,36.2c-0.2-1-1.3-1.6-2.3-1.4c-1,0.3-1.6,1.3-1.4,2.3c3,12.2,13.9,20.6,27,21
	c0,0,0,0,0.1,0c0,0,0,0,0,0s0,0,0,0C47.4,58.1,60,45.5,60,30C60,14.5,47.4,1.9,31.9,1.9z"/>
</svg>
