<?xml version="1.0" encoding="utf-8"?>
<!-- Generator: Adobe Illustrator 23.0.0, SVG Export Plug-In . SVG Version: 6.00 Build 0)  -->
<svg version="1.0" id="图层_1" xmlns="http://www.w3.org/2000/svg" xmlns:xlink="http://www.w3.org/1999/xlink" x="0px" y="0px"
	 viewBox="0 0 24.96 26.95" style="enable-background:new 0 0 24.96 26.95;" xml:space="preserve">
<path style="fill:#D6FF59;" d="M23.96,20.78h-1.55V10.35C22.41,4.64,17.86,0,12.27,0S2.13,4.64,2.13,10.35v10.43H1c-0.55,0-1,0.45-1,1s0.45,1,1,1h6.29
	c0.46,2.37,2.51,4.17,4.98,4.17s4.52-1.8,4.98-4.17h6.71c0.55,0,1-0.45,1-1S24.52,20.78,23.96,20.78z M8.25,10.35c0,0.55-0.45,1-1,1
	s-1-0.45-1-1c0-3.68,2.94-6.67,6.55-6.67c0.55,0,1,0.45,1,1s-0.45,1-1,1C10.29,5.68,8.25,7.77,8.25,10.35z M12.27,24.95
	c-1.36,0-2.5-0.91-2.91-2.17h5.81C14.77,24.04,13.63,24.95,12.27,24.95z"/>
</svg>
