<?xml version="1.0" encoding="utf-8"?>
<!-- Generator: Adobe Illustrator 23.0.1, SVG Export Plug-In . SVG Version: 6.00 Build 0)  -->
<svg version="1.0" id="图层_1" xmlns="http://www.w3.org/2000/svg" xmlns:xlink="http://www.w3.org/1999/xlink" x="0px" y="0px"
	 viewBox="0 0 60.4 58.9" style="enable-background:new 0 0 60.4 58.9;" xml:space="preserve">
<path style="fill:#FFFFFF;" d="M60.4,58.9H0V42.3h1.5c4.4,0,7.9-3.5,7.9-7.9s-3.5-7.9-7.9-7.9H0V9.3h19.2C20,4.1,24.5,0,30,0
	s10,4.1,10.7,9.3h19.7V58.9z M3,55.9h54.4V12.3H37.8v-1.5C37.8,6.5,34.3,3,30,3s-7.8,3.5-7.8,7.8v1.5H3v11.3
	c5.3,0.7,9.4,5.3,9.4,10.8S8.3,44.5,3,45.2V55.9z"/>
</svg>
