<?xml version="1.0" standalone="no"?><!DOCTYPE svg PUBLIC "-//W3C//DTD SVG 1.1//EN" "http://www.w3.org/Graphics/SVG/1.1/DTD/svg11.dtd"><svg t="1568778415562" class="icon" viewBox="0 0 1024 1024" version="1.1" xmlns="http://www.w3.org/2000/svg" p-id="2885" width="16" height="16" xmlns:xlink="http://www.w3.org/1999/xlink"><defs><style type="text/css"></style></defs><path d="M748.24491876 355.72769398l-472.55858734 0 236.27929367 312.49842055z" fill="#ffffff" p-id="2886"></path><path d="M268.06441889 355.72769398c0-1.52438251 0-2.28657398 0.7621915-3.048765 1.52438251-2.28657398 3.8109565-4.57314752 6.85972103-4.57314752L748.24491876 348.10578145C751.29368376 348.10578145 753.58025778 349.63016396 755.10464029 352.67892897c1.52438251 2.28657398 0.76219149 5.33533902-0.76219149 7.62191301l-236.27929367 312.49842055c-1.52438251 1.52438251-3.8109565 3.04876501-6.09753004 3.04876501s-4.57314752-0.76219149-6.09753004-3.04876501l-236.27929365-312.49842055c-0.76219149-1.52438251-1.52438251-3.04876501-1.52438251-4.573148zM733.0010932 363.34960701l-442.07093618 0 221.03546807 291.91925595L733.0010932 363.34960701z" fill="#ffffff" p-id="2887"></path></svg>