<?xml version="1.0" encoding="utf-8"?>
<!-- Generator: Adobe Illustrator 22.1.0, SVG Export Plug-In . SVG Version: 6.00 Build 0)  -->
<svg version="1.0" id="图层_1" xmlns="http://www.w3.org/2000/svg" xmlns:xlink="http://www.w3.org/1999/xlink" x="0px" y="0px"
	 viewBox="0 0 51 61" style="enable-background:new 0 0 51 61;" xml:space="preserve">
<g>
	<g>
		<rect x="12.9" y="0.6" style="fill:#fff;" width="25" height="3"/>
		<rect x="12.9" y="0.6" style="fill:#fff;" width="3" height="10"/>
		<rect x="34.9" y="0.6" style="fill:#fff;" width="3" height="10"/>
		<rect x="12.9" y="7.6" style="fill:#fff;" width="25" height="3"/>
	</g>
	<g>
		<g>
			<polygon style="fill:#fff;" points="15.6,22.6 15.6,19.6 41.1,19.6 41.2,22.6 			"/>
			<rect x="9.6" y="19.6" style="fill:#fff;" width="3" height="3"/>
		</g>
		<g>
			<rect x="15.6" y="32.6" style="fill:#fff;" width="25.6" height="3"/>
			<rect x="9.6" y="32.6" style="fill:#fff;" width="3" height="3"/>
		</g>
		<g>
			<rect x="15.6" y="45.6" style="fill:#fff;" width="15.6" height="3"/>
			<rect x="9.6" y="45.6" style="fill:#fff;" width="3" height="3"/>
		</g>
	</g>
	<polygon style="fill:#fff;" points="0.4,60.6 0.4,57.6 50.3,57.6 50.4,60.6 	"/>
	<polygon style="fill:#fff;" points="47.4,4.1 50.4,4.1 50.4,60.6 47.4,60.6 	"/>
	<polygon style="fill:#fff;" points="0.4,4.1 3.4,4.1 3.4,60.6 0.4,60.6 	"/>
	<g>
		<rect x="0.4" y="4.1" style="fill:#fff;" width="12.5" height="3"/>
		<rect x="37.9" y="4.1" style="fill:#fff;" width="12.5" height="3"/>
	</g>
</g>
</svg>
