<?xml version="1.0" encoding="utf-8"?>
<!-- Generator: Adobe Illustrator 23.0.1, SVG Export Plug-In . SVG Version: 6.00 Build 0)  -->
<svg version="1.0" id="图层_1" xmlns="http://www.w3.org/2000/svg" xmlns:xlink="http://www.w3.org/1999/xlink" x="0px" y="0px"
	 viewBox="0 0 60 60" style="enable-background:new 0 0 60 60;" xml:space="preserve">
<style type="text/css">
	.st0{fill:#E2EDF2;}
</style>
<path class="st0" d="M55.7,34.8l-6.1-6.1c-2.8-2.8-6.5-4.3-10.5-4.3c-3.3,0-6.4,1.1-9,3.1l-8.3-8.3c-0.8-0.8-2-0.8-2.7,0
	c-0.8,0.8-0.8,2,0,2.7l8.1,8.1c-4.3,3-10.2,2.5-13.9-1.2l-6.1-6.1c-2.1-2.1-3.2-4.8-3.2-7.7S5,9.1,7.1,7.1s4.8-3.2,7.7-3.2
	s5.7,1.1,7.7,3.2l6.1,6.1c2.1,2.3,2.1,3.6,1.9,4.8C30.3,19,31,20,32.1,20.2c0.1,0,0.2,0,0.3,0c0.9,0,1.7-0.7,1.9-1.6
	c0.3-1.9,0.3-4.6-2.9-8.1c0,0,0,0,0,0c0,0,0,0,0,0l-6.1-6.1C22.4,1.5,18.7,0,14.8,0S7.1,1.5,4.3,4.3C1.5,7.1,0,10.8,0,14.8
	s1.5,7.7,4.3,10.5l6.1,6.1c2.9,2.9,6.7,4.3,10.5,4.3c3.2,0,6.3-1,9-3.1l7.8,7.8c0.4,0.4,0.9,0.6,1.4,0.6c0.5,0,1-0.2,1.4-0.6
	c0.8-0.8,0.8-2,0-2.7l-7.6-7.6c1.8-1.3,4-2,6.2-2c2.9,0,5.7,1.1,7.7,3.2l6.1,6.1c4.3,4.3,4.3,11.2,0,15.4c-4.3,4.3-11.2,4.3-15.4,0
	l-6.1-6.1c-2.1-2.3-2.1-3.6-1.9-4.8c0.2-1.1-0.5-2.1-1.6-2.2c-1.1-0.2-2.1,0.5-2.2,1.6c-0.3,1.9-0.3,4.6,2.9,8.1c0,0,0,0,0,0
	c0,0,0,0,0,0l6.1,6.1c2.9,2.9,6.7,4.3,10.5,4.3c3.8,0,7.6-1.4,10.5-4.3C61.4,49.9,61.4,40.5,55.7,34.8z"/>
</svg>
