<?xml version="1.0" encoding="utf-8"?>
<!-- Generator: Adobe Illustrator 23.0.3, SVG Export Plug-In . SVG Version: 6.00 Build 0)  -->
<svg version="1.0" id="图层_1" xmlns="http://www.w3.org/2000/svg" xmlns:xlink="http://www.w3.org/1999/xlink" x="0px" y="0px"
	 viewBox="0 0 150 150" style="enable-background:new 0 0 150 150;" xml:space="preserve">
<g>
	<g>
		<g>
			<g>
				<rect x="133.72" y="0.04" style="fill:#FFFFFF;" width="7.5" height="149.96"/>
				<rect x="92.06" y="0.04" style="fill:#FFFFFF;" width="7.5" height="149.96"/>
				<rect x="92.06" y="0.04" style="fill:#FFFFFF;" width="49.16" height="7.5"/>
				<rect x="92.08" y="142.5" style="fill:#FFFFFF;" width="49.16" height="7.5"/>
			</g>
			<g>
				<rect x="92.06" y="0.04" style="fill:#FFFFFF;" width="7.5" height="149.96"/>
				<rect x="50.42" y="0.04" style="fill:#FFFFFF;" width="7.5" height="149.96"/>
				<rect x="50.42" y="0.04" style="fill:#FFFFFF;" width="49.16" height="7.5"/>
				<rect x="8.75" y="32.33" style="fill:#FFFFFF;" width="132.47" height="7.5"/>
				<rect x="8.75" y="112.76" style="fill:#FFFFFF;" width="132.47" height="7.5"/>
				<rect x="50.42" y="142.5" style="fill:#FFFFFF;" width="49.16" height="7.5"/>
			</g>
			<g>
				<rect x="50.42" y="0.04" style="fill:#FFFFFF;" width="7.5" height="149.96"/>
				<rect x="8.75" y="0.04" style="fill:#FFFFFF;" width="7.5" height="149.96"/>
				<rect x="8.75" y="0.04" style="fill:#FFFFFF;" width="49.16" height="7.5"/>
				<rect x="8.75" y="142.5" style="fill:#FFFFFF;" width="49.16" height="7.5"/>
			</g>
		</g>
	</g>
	<circle style="fill:#FFFFFF;" cx="33.32" cy="20.81" r="5"/>
	<circle style="fill:#FFFFFF;" cx="74.99" cy="20.81" r="5"/>
	<circle style="fill:#FFFFFF;" cx="116.65" cy="20.81" r="5"/>
	<circle style="fill:#FFFFFF;" cx="33.32" cy="131.25" r="5"/>
	<circle style="fill:#FFFFFF;" cx="74.99" cy="131.25" r="5"/>
	<circle style="fill:#FFFFFF;" cx="116.65" cy="131.25" r="5"/>
	<rect x="23.57" y="102.77" style="fill:#FFFFFF;" width="102.85" height="5"/>
	<g>
		<rect x="23.58" y="79.02" style="fill:#FFFFFF;" width="5" height="28.74"/>
		<rect x="38.1" y="79.02" style="fill:#FFFFFF;" width="5" height="28.74"/>
		<rect x="23.57" y="79.02" style="fill:#FFFFFF;" width="19.52" height="5"/>
	</g>
	<g>
		<rect x="66.29" y="79.02" style="fill:#FFFFFF;" width="5" height="28.74"/>
		<rect x="80.81" y="79.02" style="fill:#FFFFFF;" width="5" height="28.74"/>
		<rect x="66.28" y="79.02" style="fill:#FFFFFF;" width="19.52" height="5"/>
	</g>
	<g>
		<rect x="106.88" y="79.02" style="fill:#FFFFFF;" width="5" height="28.74"/>
		<rect x="121.43" y="79.02" style="fill:#FFFFFF;" width="5" height="28.74"/>
		<rect x="106.89" y="79.03" style="fill:#FFFFFF;" width="19.52" height="5"/>
	</g>
</g>
</svg>
