<?xml version="1.0" encoding="utf-8"?>
<!-- Generator: Adobe Illustrator 23.0.3, SVG Export Plug-In . SVG Version: 6.00 Build 0)  -->
<svg version="1.0" id="图层_1" xmlns="http://www.w3.org/2000/svg" xmlns:xlink="http://www.w3.org/1999/xlink" x="0px" y="0px"
	 viewBox="0 0 150 150" style="enable-background:new 0 0 150 150;" xml:space="preserve">
<g>
	<path style="fill:#9C9C9C;" d="M54.46,39.17c0-7.63-6.21-13.84-13.84-13.84s-13.84,6.21-13.84,13.84S32.99,53,40.62,53
		S54.46,46.8,54.46,39.17z M40.62,45.58c-3.53,0-6.41-2.87-6.41-6.41c0-3.53,2.87-6.41,6.41-6.41s6.41,2.87,6.41,6.41
		C47.03,42.7,44.15,45.58,40.62,45.58z"/>
	<path style="fill:#9C9C9C;" d="M76.93,61.67c0-7.63-6.21-13.84-13.84-13.84s-13.84,6.21-13.84,13.84s6.21,13.84,13.84,13.84
		S76.93,69.3,76.93,61.67z M63.1,68.08c-3.53,0-6.41-2.87-6.41-6.41s2.87-6.41,6.41-6.41s6.41,2.87,6.41,6.41
		S66.63,68.08,63.1,68.08z"/>
	<path style="fill:#9C9C9C;" d="M86.35,73.16c-7.63,0-13.84,6.21-13.84,13.84s6.21,13.84,13.84,13.84s13.84-6.21,13.84-13.84
		S93.98,73.16,86.35,73.16z M86.35,93.41c-3.53,0-6.41-2.87-6.41-6.41s2.87-6.41,6.41-6.41s6.41,2.87,6.41,6.41
		S89.89,93.41,86.35,93.41z"/>
	<path style="fill:#9C9C9C;" d="M110.03,97.34c-7.63,0-13.84,6.21-13.84,13.84s6.21,13.84,13.84,13.84s13.84-6.21,13.84-13.84
		S117.66,97.34,110.03,97.34z M110.03,117.59c-3.53,0-6.41-2.87-6.41-6.41s2.87-6.41,6.41-6.41s6.41,2.87,6.41,6.41
		S113.56,117.59,110.03,117.59z"/>
	<path style="fill:#9C9C9C;" d="M147.81,125.62l-6.45-6.29l4-4.05c0.17-0.17,0.25-0.39,0.38-0.58c0.14-0.21,0.32-0.4,0.41-0.63
		c0.09-0.22,0.09-0.46,0.14-0.69c0.05-0.24,0.13-0.47,0.13-0.71c0-0.24-0.08-0.47-0.13-0.7c-0.04-0.23-0.05-0.47-0.14-0.7
		c-0.09-0.23-0.27-0.41-0.4-0.62c-0.13-0.2-0.21-0.42-0.38-0.59L41.04,3.84c-0.01-0.01-0.02-0.01-0.02-0.02
		C41.01,3.82,41.01,3.81,41,3.8c-0.18-0.17-0.4-0.26-0.6-0.39c-0.21-0.14-0.39-0.31-0.61-0.4c-0.23-0.09-0.47-0.1-0.71-0.15
		c-0.23-0.04-0.45-0.13-0.68-0.13c-0.24,0-0.47,0.08-0.7,0.13C37.46,2.91,37.22,2.92,37,3.01c-0.23,0.09-0.42,0.27-0.64,0.41
		c-0.19,0.13-0.4,0.21-0.57,0.37c-0.01,0.01-0.01,0.02-0.02,0.02c-0.01,0.01-0.02,0.01-0.03,0.02l-3.97,4.02l-6.9-6.73
		c-0.37-0.36-0.79-0.62-1.24-0.8c-0.45-0.18-0.93-0.26-1.4-0.25c-0.95,0.01-1.9,0.39-2.61,1.12L2.13,19.13
		c-1.43,1.47-1.4,3.82,0.07,5.25l6.75,6.58l-3.96,4c0,0,0,0-0.01,0c0,0,0,0,0,0.01l-0.03,0.03c-0.13,0.13-0.19,0.3-0.3,0.45
		c-0.18,0.25-0.39,0.49-0.5,0.77c-0.05,0.14-0.05,0.28-0.09,0.42c-0.09,0.32-0.18,0.64-0.18,0.98c0,0.13,0.06,0.24,0.07,0.37
		c0.04,0.35,0.07,0.7,0.21,1.03c0.05,0.13,0.16,0.23,0.23,0.35c0.16,0.3,0.31,0.6,0.56,0.85l104.32,106.22
		c0.01,0.01,0.02,0.01,0.02,0.02c0.01,0.01,0.01,0.02,0.02,0.02c0.23,0.23,0.52,0.36,0.79,0.52c0.15,0.08,0.27,0.22,0.43,0.28
		c0.45,0.18,0.92,0.28,1.4,0.28c0.47,0,0.95-0.09,1.39-0.27c0.14-0.06,0.26-0.18,0.39-0.26c0.28-0.16,0.57-0.3,0.81-0.53
		c0.01-0.01,0.01-0.02,0.02-0.02c0.01-0.01,0.02-0.01,0.02-0.02l3.98-4.02l6.61,6.44c0.72,0.7,1.66,1.06,2.59,1.06
		c0.96,0,1.93-0.37,2.66-1.12l17.5-17.94C149.3,129.4,149.28,127.05,147.81,125.62z M111.91,138.55L12.79,37.63l25.59-25.9
		l99.12,100.92L111.91,138.55z M10.04,21.66L22.35,9.03l4.21,4.1l-12.4,12.54L10.04,21.66z M136.14,124.61l3.83,3.73l-12.32,12.63
		l-3.91-3.81L136.14,124.61z"/>
</g>
</svg>
