<?xml version="1.0" encoding="utf-8"?>
<!-- Generator: Adobe Illustrator 23.0.1, SVG Export Plug-In . SVG Version: 6.00 Build 0)  -->
<svg version="1.0" id="图层_1" xmlns="http://www.w3.org/2000/svg" xmlns:xlink="http://www.w3.org/1999/xlink" x="0px" y="0px"
	 viewBox="0 0 20 20" style="enable-background:new 0 0 20 20;" xml:space="preserve">
<style type="text/css">
	.st0{fill:#FFFFFF;}
</style>
<g>
	<path class="st0" d="M18.5,3.5H16l-1.5-2.6c0,0,0,0,0,0c0,0-0.1,0-0.1-0.1c0,0-0.1,0-0.1,0c0,0,0,0,0,0h-9c0,0,0,0,0,0
		c0,0-0.1,0-0.1,0c0,0-0.1,0-0.1,0.1c0,0,0,0,0,0L3.6,3.5H1.4c-0.2,0-0.3,0.1-0.3,0.3v10.7c0,0.2,0.1,0.3,0.3,0.3h1.8v2.3
		c0,0,0,0,0,0v0c0,0,0,0,0,0c0,0.1,0,0.1,0.1,0.2l1.8,1.8c0.1,0.1,0.1,0.1,0.2,0.1h4h5c0.1,0,0.2-0.1,0.2-0.1l1.8-1.8
		c0,0,0.1-0.1,0.1-0.2c0,0,0,0,0,0v0c0,0,0,0,0,0v-2.3h2.1c0.2,0,0.3-0.1,0.3-0.3V3.8C18.8,3.6,18.6,3.5,18.5,3.5z M1.7,14.2V4.1
		h2.1c0,0,0,0,0,0s0,0,0,0h12c0,0,0,0,0,0s0,0,0,0h2.4v10.1H1.7z M5.5,1.3h8.6l1.2,2.2h-11L5.5,1.3z M15.8,17l-1.7,1.7H9.3H5.5
		L3.8,17v-2.2h2.3v1.5c0,0.2,0.1,0.3,0.3,0.3s0.3-0.1,0.3-0.3v-1.5h1.7v1.5c0,0.2,0.1,0.3,0.3,0.3S9,16.5,9,16.3v-1.5h1.7v1.5
		c0,0.2,0.1,0.3,0.3,0.3s0.3-0.1,0.3-0.3v-1.5h1.7v1.5c0,0.2,0.1,0.3,0.3,0.3s0.3-0.1,0.3-0.3v-1.5h2V17z"/>
	<path class="st0" d="M16.1,5.2H3.5c-0.2,0-0.3,0.1-0.3,0.3V9c0,0.2,0.1,0.3,0.3,0.3h4.4c0,0,0,0,0,0c0,0,0,0,0,0h3.2c0,0,0,0,0,0
		c0,0,0,0,0,0h4.9c0.2,0,0.3-0.1,0.3-0.3V5.5C16.4,5.4,16.2,5.2,16.1,5.2z M11.7,5.8l-0.8,2.9H8.3l0.8-2.9H11.7z M3.8,5.8h4.7
		L7.7,8.7H3.8V5.8z M15.8,8.7h-4.2l0.8-2.9h3.4V8.7z"/>
	<path class="st0" d="M16.1,12.1h-4.6c-0.2,0-0.3,0.1-0.3,0.3s0.1,0.3,0.3,0.3h4.6c0.2,0,0.3-0.1,0.3-0.3S16.2,12.1,16.1,12.1z"/>
	<path class="st0" d="M4.7,12.1H3.5c-0.2,0-0.3,0.1-0.3,0.3s0.1,0.3,0.3,0.3h1.2c0.2,0,0.3-0.1,0.3-0.3S4.9,12.1,4.7,12.1z"/>
	<path class="st0" d="M7.6,12.1H6.3c-0.2,0-0.3,0.1-0.3,0.3s0.1,0.3,0.3,0.3h1.3c0.2,0,0.3-0.1,0.3-0.3S7.7,12.1,7.6,12.1z"/>
</g>
</svg>
