<?xml version="1.0" encoding="utf-8"?>
<!-- Generator: Adobe Illustrator 23.0.3, SVG Export Plug-In . SVG Version: 6.00 Build 0)  -->
<svg version="1.0" id="图层_1" xmlns="http://www.w3.org/2000/svg" xmlns:xlink="http://www.w3.org/1999/xlink" x="0px" y="0px"
	 viewBox="0 0 69.2 69.2" style="enable-background:new 0 0 69.2 69.2;" xml:space="preserve">
<g>
	<rect x="3.3" y="13.7" style="fill:none;stroke:#FFFFFF;stroke-width:3;stroke-miterlimit:10;" width="63.1" height="50"/>
	<rect x="26.7" y="6.9" style="fill:none;stroke:#FFFFFF;stroke-width:3;stroke-miterlimit:10;" width="14.1" height="6.4"/>
	<rect x="48.5" y="6.9" style="fill:none;stroke:#FFFFFF;stroke-width:3;stroke-miterlimit:10;" width="14.1" height="6.4"/>
	<rect x="6.1" y="6.9" style="fill:none;stroke:#FFFFFF;stroke-width:3;stroke-miterlimit:10;" width="14.1" height="6.4"/>
	<g>
		<line style="fill:none;stroke:#FFFFFF;stroke-width:3;stroke-miterlimit:10;" x1="55.5" y1="13.7" x2="55.5" y2="58.5"/>
	</g>
	<line style="fill:none;stroke:#FFFFFF;stroke-width:3;stroke-miterlimit:10;" x1="18.3" y1="13.7" x2="18.3" y2="58.5"/>
	<line style="fill:none;stroke:#FFFFFF;stroke-width:3;stroke-miterlimit:10;" x1="33.6" y1="13.7" x2="33.6" y2="58.5"/>
	<line style="fill:none;stroke:#FFFFFF;stroke-width:3;stroke-miterlimit:10;" x1="44.5" y1="13.7" x2="44.5" y2="58.5"/>
	<rect x="3.3" y="55.7" style="fill:#FFFFFF;" width="63.1" height="3"/>
	<rect x="6.8" y="45.9" style="fill:#FFFFFF;" width="7.6" height="3"/>
	<rect x="6.8" y="50.8" style="fill:#FFFFFF;" width="7.6" height="3"/>
	<rect x="22.2" y="45.9" style="fill:#FFFFFF;" width="7.6" height="3"/>
	<rect x="22.2" y="50.8" style="fill:#FFFFFF;" width="7.6" height="3"/>
	<rect x="35.3" y="21.2" style="fill:#FFFFFF;" width="7.6" height="3"/>
	<rect x="35.3" y="26" style="fill:#FFFFFF;" width="7.6" height="3"/>
	<rect x="35.3" y="33.3" style="fill:#FFFFFF;" width="7.6" height="3"/>
	<rect x="35.3" y="38.2" style="fill:#FFFFFF;" width="7.6" height="3"/>
	<rect x="35.3" y="45.9" style="fill:#FFFFFF;" width="7.6" height="3"/>
	<rect x="35.3" y="50.8" style="fill:#FFFFFF;" width="7.6" height="3"/>
	<rect x="46.2" y="21.2" style="fill:#FFFFFF;" width="7.6" height="3"/>
	<rect x="58.7" y="29" style="fill:#FFFFFF;" width="4.4" height="3"/>
	<rect x="46.2" y="26" style="fill:#FFFFFF;" width="7.6" height="3"/>
	<rect x="46.2" y="33.3" style="fill:#FFFFFF;" width="7.6" height="3"/>
	<rect x="46.2" y="38.2" style="fill:#FFFFFF;" width="7.6" height="3"/>
	<rect x="46.2" y="45.9" style="fill:#FFFFFF;" width="7.6" height="3"/>
	<rect x="46.2" y="50.8" style="fill:#FFFFFF;" width="7.6" height="3"/>
	<circle style="fill:#FFFFFF;" cx="10.6" cy="22.7" r="0.9"/>
	<circle style="fill:#FFFFFF;" cx="59.2" cy="27.1" r="0.5"/>
	<circle style="fill:#FFFFFF;" cx="62.6" cy="27.1" r="0.5"/>
	<circle style="fill:#FFFFFF;" cx="60.9" cy="27.1" r="0.5"/>
</g>
</svg>
