<?xml version="1.0" encoding="utf-8"?>
<!-- Generator: Adobe Illustrator 23.0.1, SVG Export Plug-In . SVG Version: 6.00 Build 0)  -->
<svg version="1.0" id="图层_1" xmlns="http://www.w3.org/2000/svg" xmlns:xlink="http://www.w3.org/1999/xlink" x="0px" y="0px"
	 viewBox="0 0 20 20" style="enable-background:new 0 0 20 20;" xml:space="preserve">
<style type="text/css">
	.st0{fill:#FFFFFF;}
</style>
<g>
	<path class="st0" d="M19.3,18.5C19.3,18.5,19.3,18.5,19.3,18.5c0-0.1,0-0.1,0-0.1c0,0,0,0,0-0.1l-0.9-2.6c0,0,0,0,0-0.1
		c0,0,0-0.1-0.1-0.1c0,0-0.1,0-0.1,0c0,0,0,0-0.1,0h-1.7l-1.7-5.9c0,0,0,0,0-0.1c0,0,0-0.1-0.1-0.1c0,0-0.1,0-0.1,0c0,0,0,0-0.1,0
		H5.7c0,0,0,0-0.1,0c0,0-0.1,0-0.1,0c0,0,0,0.1-0.1,0.1c0,0,0,0,0,0.1l-1.7,5.9H1.9c0,0,0,0-0.1,0c0,0-0.1,0-0.1,0c0,0,0,0-0.1,0.1
		c0,0,0,0,0,0.1l-0.9,2.6c0,0,0,0,0,0.1c0,0,0,0,0,0c0,0,0,0,0,0.1c0,0,0,0.1,0,0.1c0,0,0,0.1,0.1,0.1c0,0,0,0,0.1,0
		c0,0,0.1,0,0.1,0c0,0,0,0,0,0h18c0,0,0,0,0,0c0,0,0.1,0,0.1,0c0,0,0,0,0.1,0c0,0,0.1,0,0.1-0.1C19.3,18.6,19.3,18.6,19.3,18.5z
		 M2.1,16.1h1.7c0,0,0,0,0,0c0,0,0,0,0,0h12.3c0,0,0,0,0,0c0,0,0,0,0,0h1.7l0.7,2H1.4L2.1,16.1z M10.3,13.6V10h1.9v3.6H10.3z
		 M7.8,13.6V10h1.9v3.6H7.8z M4.8,13.6L5.9,10h1.3v3.6H4.8z M12.8,10h1.3l1.1,3.6h-2.4V10z M4.7,14.2h10.7l0.4,1.3H4.3L4.7,14.2z"/>
	<path class="st0" d="M5.8,8c-0.1,0.1-0.1,0.3,0,0.4C5.9,8.4,6,8.5,6,8.5c0.1,0,0.2,0,0.2-0.1c1.5-1.8,0.8-3,0.3-3.9
		C6.1,3.6,5.7,2.9,6.7,1.7c0.1-0.1,0.1-0.3,0-0.4c-0.1-0.1-0.3-0.1-0.4,0C5,2.8,5.6,3.8,6.1,4.7C6.6,5.7,7,6.5,5.8,8z"/>
	<path class="st0" d="M9.5,8c-0.1,0.1-0.1,0.3,0,0.4c0.1,0,0.1,0.1,0.2,0.1c0.1,0,0.2,0,0.2-0.1c1.5-1.8,0.8-3,0.3-3.9
		c-0.5-0.9-0.8-1.5,0.1-2.7c0.1-0.1,0.1-0.3,0-0.4c-0.1-0.1-0.3-0.1-0.4,0C8.8,2.8,9.3,3.8,9.8,4.7C10.3,5.7,10.8,6.5,9.5,8z"/>
	<path class="st0" d="M13.3,8c-0.1,0.1-0.1,0.3,0,0.4c0.1,0,0.1,0.1,0.2,0.1c0.1,0,0.2,0,0.2-0.1c1.5-1.8,0.8-3,0.3-3.9
		c-0.5-0.9-0.8-1.5,0.1-2.7c0.1-0.1,0.1-0.3,0-0.4c-0.1-0.1-0.3-0.1-0.4,0c-1.2,1.5-0.7,2.5-0.2,3.4C14.1,5.7,14.5,6.5,13.3,8z"/>
</g>
</svg>
