<?xml version="1.0" standalone="no"?><!DOCTYPE svg PUBLIC "-//W3C//DTD SVG 1.1//EN" "http://www.w3.org/Graphics/SVG/1.1/DTD/svg11.dtd"><svg t="1553677067648" class="icon" style="" viewBox="0 0 1131 1024" version="1.1" xmlns="http://www.w3.org/2000/svg" p-id="10913" xmlns:xlink="http://www.w3.org/1999/xlink" width="53.015625" height="48"><defs><style type="text/css"></style></defs><path d="M715.7789474609374 813.357894921875c0-10.51578984375-10.98947373046875-21.03157880859375-16.484211035156253-21.03157880859375H430.1c-10.98947373046875 0-16.48421015625 10.51578984375-16.48421015625 21.03157880859375v84.07894746093748h-192.31578984375v63h686.7947364257814v-63h-192.31578896484376v-84.07894746093748zM990.5157898437501 62H127.93684238281253C94.96842119140626 62 62 88.28947373046879 62 125.04736865234372v577.9894737304687c0 31.5 27.47368388671875 63 65.9368423828125 63h862.5789474609375c32.96842119140625 0 65.9368423828125-26.242105078125 65.93684150390625-63V125c0-36.757894921875-27.47368388671875-63.04736865234375-65.93684150390625-63.04736865234375z m0 614.7473686523437c0 10.51578984375-10.98947373046875 21.03157880859375-21.9789474609375 21.03157880859375H149.91578984375002c-10.98947373046875 0-21.9789474609375-10.51578984375-21.9789474609375-21.03157880859375V146.0789474609375c0-10.51578984375 10.98947373046875-21.03157880859375 21.9789474609375-21.03157880859375h818.6210525390625c10.98947373046875 0 21.9789474609375 10.51578984375 21.9789474609375 21.03157880859375v530.6684211914063z m-219.78947373046876-36.757894921875h115.38947373046874V314.18947373046876h-115.38947373046874v325.79999999999995z m-186.77368476562498 0h115.342105078125V214.38421015625H584v425.6052635742187z m-346.1210525390625 0h115.342105078125V513.8473686523438H237.8315788085938v126.142105078125z m159.29999999999998 0h115.38947373046874v-225.94736865234376H397.13157880859376v225.94736865234376z" p-id="10914" fill="#1296db"></path></svg>