<?xml version="1.0" encoding="utf-8"?>
<!-- Generator: Adobe Illustrator 23.0.1, SVG Export Plug-In . SVG Version: 6.00 Build 0)  -->
<svg version="1.0" id="图层_1" xmlns="http://www.w3.org/2000/svg" xmlns:xlink="http://www.w3.org/1999/xlink" x="0px" y="0px"
	 viewBox="0 0 20 20" style="enable-background:new 0 0 20 20;" xml:space="preserve">
<style type="text/css">
	.st0{fill:#FFFFFF;}
</style>
<g>
	<path class="st0" d="M17.6,4.2C17.6,4.2,17.5,4.2,17.6,4.2C17.5,4.1,17.5,4,17.5,4c0,0-0.1,0-0.1-0.1c0,0-0.1,0-0.1,0
		c-1.8-0.2-5.2-0.9-7.1-3.1c0,0,0,0,0,0c0,0,0,0,0,0c0,0-0.1,0-0.1,0c0,0-0.1,0-0.1,0c0,0-0.1,0-0.1,0c0,0-0.1,0-0.1,0c0,0,0,0,0,0
		c0,0,0,0,0,0C7.9,3,4.5,3.7,2.7,3.9c0,0-0.1,0-0.1,0c0,0-0.1,0-0.1,0.1c0,0,0,0.1,0,0.1c0,0,0,0.1,0,0.1v7.4c0,0,0,0,0,0
		c0,0,0,0,0,0c0.3,3.6,5.3,6.4,7.4,7.6c0,0,0.1,0,0.1,0c0,0,0,0,0,0s0,0,0,0c0,0,0.1,0,0.1,0c2.1-1.2,7.1-4,7.4-7.6c0,0,0,0,0,0
		c0,0,0,0,0,0V4.2z M10,18.7c-2.1-1.2-6.7-3.9-7-7.1V4.5c1.9-0.3,5-1,7-3.1c2,2.1,5.1,2.8,7,3.1v7.1C16.7,14.8,12.1,17.5,10,18.7z"
		/>
	<path class="st0" d="M13.3,8.9C13.3,8.9,13.3,8.9,13.3,8.9c0,0-0.1,0-0.1,0c0,0-0.1,0-0.1,0c0,0,0,0,0,0c0,0,0,0-0.1,0.1
		c0,0-0.1,0-0.1,0.1c0,0,0,0,0,0c0,0,0,0.1,0,0.1c0,0,0,0.1,0,0.1c0,0,0,0,0,0c0.1,0.4,0,0.8-0.2,1c-0.2,0.2-0.5,0.4-0.8,0.4
		c-0.4,0-0.6-0.1-0.8-0.3c-0.2-0.2-0.3-0.8,0.2-2.1c0,0,0,0,0,0c0,0,0,0,0,0c0.4-1.3-1-3-2.1-3.6c0,0,0,0,0,0c0,0,0,0-0.1,0
		c0,0-0.1,0-0.1,0c0,0-0.1,0-0.1,0c0,0,0,0,0,0c0,0-0.1,0-0.1,0.1c0,0-0.1,0-0.1,0.1c0,0,0,0,0,0c0,0,0,0.1,0,0.1c0,0,0,0.1,0,0.1
		C8.8,5.7,8.8,6.5,8,7.4C7.9,7.5,7.7,7.7,7.6,7.8c-0.8,0.8-1.6,1.7-1.7,3c-0.1,3,2.4,3.6,2.9,3.7l0,0c0,0,0,0,0,0
		c0.4,0.1,0.7,0.1,1,0.1c0.3,0,0.6,0,0.9-0.1c0,0,0,0,0,0c0,0,0,0,0.1,0c0,0,0,0,0,0c0,0,0,0,0,0c0,0,0,0,0,0
		c1.7-0.3,2.8-1.4,3.2-2.9C14.2,10.6,13.9,9.4,13.3,8.9z M8.6,14.2L8.6,14.2L8.6,14.2L8.6,14.2z M13.4,11.6c-0.2,0.7-0.7,2-2.7,2.4
		c0,0,0,0,0,0c0,0,0,0,0,0c-0.6,0.1-1.1,0.1-1.8,0c0,0,0,0,0,0c0,0,0,0,0,0c-0.6-0.1-2.5-0.6-2.4-3.1C6.6,9.7,7.3,9,8,8.2
		c0.1-0.1,0.3-0.3,0.4-0.4C9.2,7,9.4,6.2,9.4,5.4C10.2,6.1,11,7.3,10.8,8c0,0,0,0,0,0c-0.5,1.3-0.5,2.2-0.1,2.7
		c0.3,0.4,0.7,0.5,1.3,0.5c0.5,0,1-0.2,1.3-0.6c0.1-0.1,0.2-0.3,0.2-0.4C13.5,10.6,13.5,11.1,13.4,11.6z"/>
</g>
</svg>
