<?xml version="1.0" encoding="utf-8"?>
<!-- Generator: Adobe Illustrator 23.0.1, SVG Export Plug-In . SVG Version: 6.00 Build 0)  -->
<svg version="1.0" id="图层_1" xmlns="http://www.w3.org/2000/svg" xmlns:xlink="http://www.w3.org/1999/xlink" x="0px" y="0px"
	 viewBox="0 0 20 20" style="enable-background:new 0 0 20 20;" xml:space="preserve">
<style type="text/css">
	.st0{fill:#FFFFFF;}
</style>
<g>
	<path class="st0" d="M9.3,17.7c-0.6-1.2-1.8-3.4-5.7-2.2c0.8-3.2-0.1-4-2.3-5.7c2.8-1.6,2.8-3.6,2.2-5.7c0.7,0.2,1.3,0.3,1.9,0.3
		c0.7,0,1.3-0.1,1.9-0.4c1.5-0.8,2-2.4,2.1-2.9c0-0.2-0.1-0.3-0.2-0.4C9.1,0.8,8.9,0.9,8.9,1C8.8,1.4,8.4,2.8,7,3.5
		C6,4,4.7,4,3.2,3.4c0,0-0.1,0-0.1,0c0,0-0.1,0-0.1,0c0,0,0,0,0,0c0,0-0.1,0-0.1,0.1c0,0-0.1,0-0.1,0.1c0,0,0,0,0,0c0,0,0,0.1,0,0.1
		c0,0,0,0.1,0,0.1C3.5,6.2,3.7,8,0.6,9.6c0,0,0,0,0,0.1c0,0,0,0-0.1,0c0,0,0,0,0,0.1c0,0,0,0.1,0,0.1c0,0,0,0.1,0,0.1c0,0,0,0,0,0.1
		c0,0,0,0,0.1,0.1c0,0,0,0,0,0l0.2,0.1c2.4,1.9,3,2.3,2.1,5.7c0,0,0,0.1,0,0.1c0,0,0,0.1,0,0.1c0,0,0,0,0,0c0,0,0,0.1,0.1,0.1
		c0,0,0,0.1,0.1,0.1c0,0,0,0,0,0c0,0,0.1,0,0.1,0c0,0,0,0,0.1,0c0,0,0,0,0,0C7,14.9,8.1,16.9,8.7,18c0.1,0.2,0.2,0.4,0.3,0.5
		c0.1,0.1,0.2,0.1,0.2,0.1c0.1,0,0.1,0,0.2-0.1c0.1-0.1,0.2-0.3,0.1-0.4C9.4,18.1,9.4,17.9,9.3,17.7z"/>
	<path class="st0" d="M9.4,5.9c0.2,0,0.3-0.1,0.3-0.3S9.5,5.3,9.4,5.3c-2.5,0-4.5,2-4.5,4.5s2,4.5,4.5,4.5c0.2,0,0.3-0.1,0.3-0.3
		s-0.1-0.3-0.3-0.3c-2.2,0-3.9-1.8-3.9-3.9S7.2,5.9,9.4,5.9z"/>
	<path class="st0" d="M19,8c0,0,0-0.1,0-0.1c0,0,0-0.1,0-0.1c0,0,0-0.1,0-0.1l-1-1.1c0,0,0,0,0,0c0,0,0,0,0,0c0,0-0.1,0-0.1,0
		c0,0-0.1-0.1-0.1-0.1c0,0-0.1,0-0.1,0c0,0-0.1,0-0.1,0c0,0,0,0,0,0c0,0,0,0,0,0l-2.2,2.1l-3.2,0.1l1.7-2.8l2.9-0.8
		c0,0,0.1,0,0.1-0.1c0,0,0.1,0,0.1-0.1c0,0,0-0.1,0-0.1c0,0,0-0.1,0-0.1l0,0c0,0,0,0,0,0s0,0,0,0l-0.4-1.5c0,0,0-0.1-0.1-0.1
		c0,0,0-0.1-0.1-0.1c0,0-0.1,0-0.1,0c0,0-0.1,0-0.1,0l-2.4,0.5L13,1.2c0,0,0-0.1-0.1-0.1c0,0,0-0.1-0.1-0.1c0,0,0,0-0.1,0
		c0,0-0.1,0-0.2,0l-1.5,0.4c0,0,0,0,0,0s0,0,0,0l0,0c0,0-0.1,0-0.1,0.1c0,0-0.1,0-0.1,0.1c0,0,0,0.1,0,0.1c0,0,0,0.1,0,0.1l0.8,3.1
		L9.8,8.2c-0.1,0.1,0,0.3,0.1,0.4c0,0,0.1,0,0.2,0c0.1,0,0.2-0.1,0.3-0.1l2-3.4c0,0,0,0,0,0c0,0,0-0.1,0-0.1c0,0,0-0.1,0-0.1
		c0,0,0,0,0,0l-0.8-2.9l1-0.3l0.7,2.4c0,0,0,0.1,0.1,0.1c0,0,0,0,0,0.1c0,0,0.1,0.1,0.2,0.1c0,0,0,0,0,0c0,0,0,0,0,0c0,0,0,0,0,0
		c0,0,0,0,0,0c0,0,0,0,0.1,0L16,3.7l0.2,0.9l-2.7,0.7c0,0-0.1,0-0.1,0.1c0,0-0.1,0-0.1,0.1l-2,3.4c0,0,0,0.1,0,0.1c0,0,0,0,0,0.1
		c0,0,0,0,0,0c0,0,0,0.1,0,0.1c0,0,0,0.1,0.1,0.1c0,0,0,0,0,0c0,0,0.1,0,0.2,0c0,0,0,0,0,0c0,0,0,0,0,0c0,0,0,0,0,0l3.9-0.1
		c0,0,0,0,0.1,0c0,0,0.1,0,0.1-0.1l2.1-2l0.6,0.7l-1.6,1.7c0,0,0,0.1,0,0.1c0,0,0,0.1,0,0.1c0,0,0,0.1,0,0.1c0,0,0,0.1,0,0.1
		l1.6,1.8l-0.7,0.7l-2-2c0,0-0.1,0-0.1-0.1c0,0,0,0-0.1,0h0c0,0,0,0,0,0l-3.8,0c0,0,0,0,0,0c0,0,0,0-0.1,0c0,0-0.1,0-0.1,0
		c0,0,0,0,0,0c0,0,0,0.1-0.1,0.1c0,0,0,0.1,0,0.1c0,0,0,0,0,0c0,0,0,0,0,0.1c0,0,0,0.1,0,0.1l1.8,3.2c0,0,0,0,0,0l0,0
		c0,0.1,0.1,0.1,0.2,0.1c0,0,0,0,0,0l3,0.9L16,16l-2.4-0.6c0,0-0.1,0-0.1,0c0,0-0.1,0-0.1,0c0,0,0,0,0,0.1c0,0-0.1,0.1-0.1,0.1l0,0
		c0,0,0,0,0,0s0,0,0,0L12.5,18l-0.9-0.3l0.7-2.8c0,0,0,0,0,0l0,0c0,0,0-0.1,0-0.1c0,0,0-0.1,0-0.1l-2-3.5c-0.1-0.1-0.3-0.2-0.4-0.1
		c-0.1,0.1-0.2,0.3-0.1,0.4l1.9,3.4L11,17.8c0,0,0,0.1,0,0.1c0,0,0,0.1,0,0.1c0,0,0.1,0,0.1,0.1c0,0,0,0.1,0.1,0.1l1.4,0.5
		c0,0,0,0,0,0c0,0,0,0,0,0c0,0,0.1,0,0.1,0c0.1,0,0.1,0,0.2-0.1c0,0,0,0,0-0.1c0,0,0.1-0.1,0.1-0.1c0,0,0,0,0,0c0,0,0,0,0,0l0.7-2.5
		l2.4,0.6c0,0,0.1,0,0.1,0c0.1,0,0.1,0,0.2-0.1c0,0,0,0,0-0.1c0,0,0.1-0.1,0.1-0.1l0.4-1.5c0,0,0,0,0,0c0,0,0,0,0,0c0,0,0,0,0,0
		c0-0.1,0-0.1,0-0.2c0,0,0,0-0.1-0.1c0,0-0.1-0.1-0.1-0.1c0,0,0,0,0,0c0,0,0,0,0,0l-3.1-0.9L12.1,11l3.2,0l2.1,2.2c0,0,0,0,0,0
		c0,0,0,0,0,0c0.1,0.1,0.1,0.1,0.2,0.1c0.1,0,0.2,0,0.2-0.1c0,0,0,0,0,0c0,0,0,0,0,0L19,12c0,0,0-0.1,0-0.1c0,0,0-0.1,0-0.1
		c0,0,0-0.1,0-0.1c0,0,0-0.1,0-0.1l-1.6-1.8L19,8C19,8.1,19,8,19,8z"/>
</g>
</svg>
