<?xml version="1.0" encoding="utf-8"?>
<!-- Generator: Adobe Illustrator 23.0.1, SVG Export Plug-In . SVG Version: 6.00 Build 0)  -->
<svg version="1.0" id="图层_1" xmlns="http://www.w3.org/2000/svg" xmlns:xlink="http://www.w3.org/1999/xlink" x="0px" y="0px"
	 viewBox="0 0 20 20" style="enable-background:new 0 0 20 20;" xml:space="preserve">
<style type="text/css">
	.st0{fill:#FFFFFF;}
</style>
<g>
	<path class="st0" d="M15.6,0.7h-11c-0.6,0-1.2,0.5-1.2,1.2v0.2c0,0.6,0.5,1.2,1.2,1.2h0.8l1.1,3.8c0,0,0,0.1,0.1,0.1c0,0,0,0,0,0
		l1.5,1.3H8c-0.7,0-1.2,0.6-1.2,1.2S7.3,11,8,11h0.9v1.9c0,0.6,0.5,1.1,1.1,1.1s1.1-0.5,1.1-1.1V11H12c0.7,0,1.2-0.6,1.2-1.2
		S12.7,8.5,12,8.5h-0.2l1.5-1.3c0,0,0,0,0,0c0,0,0.1-0.1,0.1-0.1l1.1-3.8h1c0.6,0,1.2-0.5,1.2-1.2V1.9C16.8,1.2,16.2,0.7,15.6,0.7z
		 M10.6,12.9c0,0.3-0.2,0.5-0.5,0.5s-0.5-0.2-0.5-0.5V11H10h0.6V12.9z M12.9,6.8l-2.1,1.8c0,0,0,0,0,0c0,0,0,0.1-0.1,0.1
		c0,0,0,0.1,0,0.1c0,0,0,0,0,0c0,0,0,0.1,0,0.1c0,0,0,0.1,0,0.1c0,0,0,0,0,0c0.1,0.1,0.1,0.1,0.2,0.1h1c0.3,0,0.6,0.3,0.6,0.6
		s-0.3,0.6-0.6,0.6h-2H8c-0.3,0-0.6-0.3-0.6-0.6S7.6,9.1,8,9.1h1c0.1,0,0.2,0,0.2-0.1c0,0,0,0,0,0c0,0,0-0.1,0-0.1c0,0,0-0.1,0-0.1
		c0,0,0,0,0,0c0,0,0-0.1,0-0.1c0,0,0-0.1-0.1-0.1c0,0,0,0,0,0L7.1,6.8L6,3.3H14L12.9,6.8z M16.2,2.1c0,0.3-0.3,0.6-0.6,0.6h-11
		C4.2,2.7,4,2.4,4,2.1V1.9c0-0.3,0.3-0.6,0.6-0.6h11c0.3,0,0.6,0.3,0.6,0.6V2.1z"/>
	<path class="st0" d="M6.6,13.1h0.8c0.2,0,0.3-0.1,0.3-0.3s-0.1-0.3-0.3-0.3H6.6c-0.2,0-0.3,0.1-0.3,0.3S6.4,13.1,6.6,13.1z"/>
	<path class="st0" d="M5.8,12.8c0-0.2-0.1-0.3-0.3-0.3H5c-0.2,0-0.3,0.1-0.3,0.3s0.1,0.3,0.3,0.3h0.5C5.7,13.1,5.8,12.9,5.8,12.8z"
		/>
	<path class="st0" d="M3.9,12.5H3.5c-0.2,0-0.3,0.1-0.3,0.3s0.1,0.3,0.3,0.3h0.4c0.2,0,0.3-0.1,0.3-0.3S4.1,12.5,3.9,12.5z"/>
	<path class="st0" d="M8,14.4l-0.6,0.6c-0.1,0.1-0.1,0.3,0,0.4c0.1,0.1,0.1,0.1,0.2,0.1s0.2,0,0.2-0.1l0.6-0.6
		c0.1-0.1,0.1-0.3,0-0.4C8.3,14.2,8.1,14.2,8,14.4z"/>
	<path class="st0" d="M6.7,15.7L6.3,16c-0.1,0.1-0.1,0.3,0,0.4c0.1,0.1,0.1,0.1,0.2,0.1s0.2,0,0.2-0.1l0.4-0.4
		c0.1-0.1,0.1-0.3,0-0.4C7,15.5,6.8,15.5,6.7,15.7z"/>
	<path class="st0" d="M5.5,16.8l-0.3,0.3c-0.1,0.1-0.1,0.3,0,0.4c0.1,0.1,0.1,0.1,0.2,0.1s0.2,0,0.2-0.1L6,17.2
		c0.1-0.1,0.1-0.3,0-0.4S5.6,16.7,5.5,16.8z"/>
	<path class="st0" d="M12.1,14.4c-0.1-0.1-0.3-0.1-0.4,0c-0.1,0.1-0.1,0.3,0,0.4l0.6,0.6c0.1,0.1,0.1,0.1,0.2,0.1s0.2,0,0.2-0.1
		c0.1-0.1,0.1-0.3,0-0.4L12.1,14.4z"/>
	<path class="st0" d="M13.4,15.7c-0.1-0.1-0.3-0.1-0.4,0c-0.1,0.1-0.1,0.3,0,0.4l0.4,0.4c0.1,0.1,0.1,0.1,0.2,0.1s0.2,0,0.2-0.1
		c0.1-0.1,0.1-0.3,0-0.4L13.4,15.7z"/>
	<path class="st0" d="M14.6,16.8c-0.1-0.1-0.3-0.1-0.4,0s-0.1,0.3,0,0.4l0.3,0.3c0.1,0.1,0.1,0.1,0.2,0.1s0.2,0,0.2-0.1
		c0.1-0.1,0.1-0.3,0-0.4L14.6,16.8z"/>
	<path class="st0" d="M13.4,13.1c0.2,0,0.3-0.1,0.3-0.3s-0.1-0.3-0.3-0.3h-0.8c-0.2,0-0.3,0.1-0.3,0.3s0.1,0.3,0.3,0.3H13.4z"/>
	<path class="st0" d="M14.9,12.5h-0.5c-0.2,0-0.3,0.1-0.3,0.3s0.1,0.3,0.3,0.3h0.5c0.2,0,0.3-0.1,0.3-0.3S15.1,12.5,14.9,12.5z"/>
	<path class="st0" d="M16.4,12.5h-0.4c-0.2,0-0.3,0.1-0.3,0.3s0.1,0.3,0.3,0.3h0.4c0.2,0,0.3-0.1,0.3-0.3S16.6,12.5,16.4,12.5z"/>
	<path class="st0" d="M10.1,14.8c-0.2,0-0.3,0.1-0.3,0.3v0.8c0,0.2,0.1,0.3,0.3,0.3s0.3-0.1,0.3-0.3v-0.8
		C10.4,15,10.2,14.8,10.1,14.8z"/>
	<path class="st0" d="M10.1,16.7c-0.2,0-0.3,0.1-0.3,0.3v0.5c0,0.2,0.1,0.3,0.3,0.3s0.3-0.1,0.3-0.3V17
		C10.4,16.8,10.2,16.7,10.1,16.7z"/>
	<path class="st0" d="M10.1,18.3c-0.2,0-0.3,0.1-0.3,0.3V19c0,0.2,0.1,0.3,0.3,0.3s0.3-0.1,0.3-0.3v-0.4
		C10.4,18.5,10.2,18.3,10.1,18.3z"/>
</g>
</svg>
