<?xml version="1.0" encoding="utf-8"?>
<!-- Generator: Adobe Illustrator 23.0.3, SVG Export Plug-In . SVG Version: 6.00 Build 0)  -->
<svg version="1.0" id="图层_1" xmlns="http://www.w3.org/2000/svg" xmlns:xlink="http://www.w3.org/1999/xlink" x="0px" y="0px"
	 viewBox="0 0 150 150" style="enable-background:new 0 0 150 150;" xml:space="preserve">
<g>
	<g>
		<path style="fill:#9E9E9E;" d="M46.64,149.91c-16.68,0-30.26-13.57-30.26-30.25c0-9.99,5.01-19.36,13.21-24.97V16.53
			c0-9.07,7.38-16.45,16.45-16.45s16.45,7.38,16.45,16.45v77.38c8.94,5.49,14.41,15.16,14.41,25.75
			C76.9,136.34,63.33,149.91,46.64,149.91z M46.05,7.68c-4.88,0-8.86,3.97-8.86,8.86v82.43l-1.89,1.1
			c-6.98,4.05-11.32,11.56-11.32,19.6c0,12.5,10.17,22.66,22.67,22.66s22.67-10.17,22.67-22.66c0-8.53-4.73-16.25-12.34-20.16
			l-2.06-1.06V16.53C54.9,11.65,50.93,7.68,46.05,7.68z"/>
	</g>
	<g>
		<path style="fill:#9E9E9E;" d="M48.94,119.38h-4.59c-0.83,0-1.5-0.67-1.5-1.5V37.76c0-0.83,0.67-1.5,1.5-1.5h4.59
			c0.83,0,1.5,0.67,1.5,1.5v80.11C50.44,118.7,49.76,119.38,48.94,119.38z"/>
	</g>
	<g>
		<circle style="fill:#9E9E9E;" cx="46.64" cy="119.38" r="8.3"/>
	</g>
	<g>
		<path style="fill:#9E9E9E;" d="M106.52,142.42c-14.94,0-27.09-12.61-27.09-28.11c0-14.05,21.38-50.94,23.82-55.1
			c0.68-1.16,1.93-1.88,3.27-1.88c1.35,0,2.59,0.71,3.27,1.88c2.44,4.16,23.82,41.05,23.82,55.1
			C133.61,129.81,121.46,142.42,106.52,142.42z M106.52,68.79c-7.44,13.35-19.5,36.82-19.5,45.52c0,11.31,8.75,20.52,19.5,20.52
			c10.75,0,19.5-9.2,19.5-20.52C126.02,105.6,113.96,82.14,106.52,68.79z"/>
	</g>
	<g>
		<path style="fill:#9E9E9E;" d="M116.21,120.43c-0.44,0-0.89-0.08-1.32-0.24c-1.96-0.73-2.96-2.92-2.23-4.88
			c2.25-6.05-3.36-15.62-5.71-18.8c-1.25-1.68-0.89-4.06,0.79-5.31c1.68-1.25,4.05-0.9,5.3,0.78c1.12,1.5,10.81,15.01,6.73,25.97
			C119.2,119.49,117.75,120.43,116.21,120.43z"/>
	</g>
</g>
</svg>
