<?xml version="1.0" encoding="utf-8"?>
<!-- Generator: Adobe Illustrator 23.0.1, SVG Export Plug-In . SVG Version: 6.00 Build 0)  -->
<svg version="1.0" id="图层_1" xmlns="http://www.w3.org/2000/svg" xmlns:xlink="http://www.w3.org/1999/xlink" x="0px" y="0px"
	 viewBox="0 0 1920 70" style="enable-background:new 0 0 1920 70;" xml:space="preserve">
<style type="text/css">
	.st0{fill:#082268;}
	.st1{fill:#0050A0;}
	.st2{fill:url(#SVGID_1_);}
	.st3{fill:url(#SVGID_2_);}
	.st4{fill:url(#SVGID_3_);}
</style>
<g>
	<path class="st0" d="M1920,58.2h-563.2c-0.3,0-0.5,0.2-0.5,0.5s0.2,0.5,0.5,0.5H1920V58.2z"/>
	<path class="st0" d="M1416.8,0l-60.4,58.4c-0.2,0.2-0.2,0.5,0,0.7c0.1,0.1,0.2,0.2,0.4,0.2c0.1,0,0.2,0,0.3-0.1L1418.3,0H1416.8z"
		/>
	<path class="st0" d="M606.9,67.5L532.9,0h-1.5l74.8,68.2c0.1,0.1,0.2,0.1,0.3,0.1c0.1,0,0.3-0.1,0.4-0.2
		C607.1,68,607.1,67.6,606.9,67.5z"/>
	<path class="st0" d="M1388,0l-74,67.4c-0.2,0.2-0.2,0.5,0,0.7c0.1,0.1,0.2,0.2,0.4,0.2c0.1,0,0.2,0,0.3-0.1L1389.5,0H1388z"/>
	<path class="st0" d="M1314.4,68.3H606.6c-0.3,0-0.5-0.2-0.5-0.5s0.2-0.5,0.5-0.5h707.8c0.3,0,0.5,0.2,0.5,0.5
		S1314.6,68.3,1314.4,68.3z"/>
	<g>
		<path class="st1" d="M1314.4,68.3h-17.2c-0.3,0-0.5-0.2-0.5-0.5s0.2-0.5,0.5-0.5h17.2c0.3,0,0.5,0.2,0.5,0.5
			S1314.6,68.3,1314.4,68.3z"/>
		<path class="st1" d="M1314.4,68.3c-0.1,0-0.3-0.1-0.4-0.2c-0.2-0.2-0.2-0.5,0-0.7l14.2-12.9c0.2-0.2,0.5-0.2,0.7,0
			c0.2,0.2,0.2,0.5,0,0.7l-14.2,12.9C1314.6,68.3,1314.5,68.3,1314.4,68.3z"/>
	</g>
	<g>
		<path class="st1" d="M606.6,68.3c-0.1,0-0.2,0-0.3-0.1L590,53.4c-0.2-0.2-0.2-0.5,0-0.7c0.2-0.2,0.5-0.2,0.7,0l16.3,14.8
			c0.2,0.2,0.2,0.5,0,0.7C606.9,68.3,606.7,68.3,606.6,68.3z"/>
		<path class="st1" d="M624.3,68.3h-17.7c-0.3,0-0.5-0.2-0.5-0.5s0.2-0.5,0.5-0.5h17.7c0.3,0,0.5,0.2,0.5,0.5S624.6,68.3,624.3,68.3
			z"/>
	</g>
	<linearGradient id="SVGID_1_" gradientUnits="userSpaceOnUse" x1="1121.6534" y1="67.8218" x2="779.2838" y2="67.8218">
		<stop  offset="0" style="stop-color:#2A89EE;stop-opacity:0"/>
		<stop  offset="0.5086" style="stop-color:#2A89EE"/>
		<stop  offset="1" style="stop-color:#2A89EE;stop-opacity:0"/>
	</linearGradient>
	<path class="st2" d="M1121.2,68.3H779.8c-0.3,0-0.5-0.2-0.5-0.5s0.2-0.5,0.5-0.5h341.4c0.3,0,0.5,0.2,0.5,0.5
		S1121.4,68.3,1121.2,68.3z"/>
	<linearGradient id="SVGID_2_" gradientUnits="userSpaceOnUse" x1="1820.5001" y1="58.7393" x2="1469.045" y2="58.7393">
		<stop  offset="0" style="stop-color:#2A89EE;stop-opacity:0"/>
		<stop  offset="0.5086" style="stop-color:#2A89EE"/>
		<stop  offset="1" style="stop-color:#2A89EE;stop-opacity:0"/>
	</linearGradient>
	<path class="st3" d="M1820,59.2h-350.5c-0.3,0-0.5-0.2-0.5-0.5s0.2-0.5,0.5-0.5H1820c0.3,0,0.5,0.2,0.5,0.5S1820.3,59.2,1820,59.2z
		"/>
	<g>
		<path class="st0" d="M563.2,57.7H0v1h563.2c0.3,0,0.5-0.2,0.5-0.5S563.5,57.7,563.2,57.7z"/>
		<path class="st0" d="M563.5,57.8L504.1,0h-1.4l60.2,58.5c0.1,0.1,0.2,0.1,0.3,0.1c0.1,0,0.3-0.1,0.4-0.2
			C563.7,58.3,563.7,58,563.5,57.8z"/>
		<linearGradient id="SVGID_3_" gradientUnits="userSpaceOnUse" x1="510.3051" y1="58.169" x2="91.4999" y2="58.169">
			<stop  offset="0" style="stop-color:#2A89EE;stop-opacity:0"/>
			<stop  offset="0.5086" style="stop-color:#2A89EE"/>
			<stop  offset="1" style="stop-color:#2A89EE;stop-opacity:0"/>
		</linearGradient>
		<path class="st4" d="M509.8,58.7H92c-0.3,0-0.5-0.2-0.5-0.5s0.2-0.5,0.5-0.5h417.8c0.3,0,0.5,0.2,0.5,0.5S510.1,58.7,509.8,58.7z"
			/>
	</g>
</g>
</svg>
