<?xml version="1.0" encoding="utf-8"?>
<!-- Generator: Adobe Illustrator 22.1.0, SVG Export Plug-In . SVG Version: 6.00 Build 0)  -->
<svg version="1.0" id="图层_1" xmlns="http://www.w3.org/2000/svg" xmlns:xlink="http://www.w3.org/1999/xlink" x="0px" y="0px"
	 viewBox="0 0 49.1 51.1" style="enable-background:new 0 0 49.1 51.1;" xml:space="preserve">
<g>
	<rect y="8.2" style="fill:#fff;" width="49.1" height="3"/>
	<rect x="6.5" y="48.1" style="fill:#fff;" width="36.1" height="3"/>

		<rect x="7.4" y="28.1" transform="matrix(-1.836970e-16 1 -1 -1.836970e-16 47.3025 11.9691)" style="fill:#fff;" width="20.6" height="3"/>

		<rect x="14.4" y="28.1" transform="matrix(-1.836970e-16 1 -1 -1.836970e-16 54.3025 4.9691)" style="fill:#fff;" width="20.6" height="3"/>

		<rect x="21.4" y="28.1" transform="matrix(-1.836970e-16 1 -1 -1.836970e-16 61.3025 -2.0309)" style="fill:#fff;" width="20.6" height="3"/>

		<rect x="-12.6" y="29" transform="matrix(-1.836970e-16 1 -1 -1.836970e-16 38.4443 22.49)" style="fill:#fff;" width="41.2" height="3"/>

		<rect x="20.5" y="29" transform="matrix(-1.836970e-16 1 -1 -1.836970e-16 71.5733 -10.6391)" style="fill:#fff;" width="41.2" height="3"/>
	<path style="fill:none;stroke:#fff;stroke-width:3;stroke-miterlimit:10;" d="M18.2,8.2c0-3.5,2.8-6.3,6.3-6.3s6.3,2.8,6.3,6.3" />
</g>
</svg>
