<?xml version="1.0" encoding="utf-8"?>
<!-- Generator: Adobe Illustrator 23.0.1, SVG Export Plug-In . SVG Version: 6.00 Build 0)  -->
<svg version="1.0" id="图层_1" xmlns="http://www.w3.org/2000/svg" xmlns:xlink="http://www.w3.org/1999/xlink" x="0px" y="0px"
	 viewBox="0 0 50 50" style="enable-background:new 0 0 50 50;" xml:space="preserve">
<style type="text/css">
	.st0{fill:none;stroke:#10EBF4;stroke-width:2;stroke-linecap:round;stroke-miterlimit:10;}
</style>
<g>
	<g>
		<g>
			<line class="st0" x1="3.2" y1="41.8" x2="46.1" y2="41.8"/>
			<line class="st0" x1="3.2" y1="41.8" x2="1.6" y2="48.4"/>
			<line class="st0" x1="46.1" y1="41.8" x2="47.7" y2="48.4"/>
			<line class="st0" x1="1.6" y1="48.4" x2="47.7" y2="48.4"/>
		</g>
		<line class="st0" x1="8.9" y1="41.8" x2="12.1" y2="28"/>
		<line class="st0" x1="40.4" y1="41.8" x2="37.2" y2="28"/>
		<line class="st0" x1="12.1" y1="28" x2="37.2" y2="28"/>
		<line class="st0" x1="10.9" y1="37.2" x2="38.5" y2="37.2"/>
		<line class="st0" x1="17.5" y1="28" x2="17.5" y2="37.2"/>
		<line class="st0" x1="24.7" y1="28" x2="24.7" y2="37.2"/>
		<line class="st0" x1="31.8" y1="28" x2="31.8" y2="37.2"/>
	</g>
	<g>
		<path class="st0" d="M14.5,1.4c-6.6,8.2,6.2,10.9-1.3,20.3"/>
		<path class="st0" d="M25.3,1.4c-6.6,8.2,6.2,10.9-1.3,20.3"/>
		<path class="st0" d="M36.2,1.4c-6.6,8.2,6.2,10.9-1.3,20.3"/>
	</g>
</g>
</svg>
